<?xml version="1.0" standalone="no"?>
<!DOCTYPE svg PUBLIC "-//W3C//DTD SVG 1.1//EN" "http://www.w3.org/Graphics/SVG/1.1/DTD/svg11.dtd" >
<svg xmlns="http://www.w3.org/2000/svg" xmlns:xlink="http://www.w3.org/1999/xlink" version="1.1">
<metadata>
Created by FontForge 20201107 at Fri Jan  6 16:30:32 2023
 By 
Copyright 2019 The Golos Text Project Authors (https://github.com/googlefonts/golos-text)
</metadata>
<defs>
<font id="GolosText-SemiBold" horiz-adv-x="0" vert-adv-y="1000" >
  <font-face 
    font-family="Golos Text SemiBold"
    font-weight="600"
    font-stretch="normal"
    units-per-em="1000"
    panose-1="2 11 5 3 2 2 2 2 2 4"
    ascent="800"
    descent="-200"
    x-height="530"
    cap-height="700"
    bbox="-219 -227 1214 960"
    underline-thickness="50"
    underline-position="-100"
    unicode-range="U+000D-FEFF"
  />
<missing-glyph horiz-adv-x="500" vert-adv-y="0" 
d="M58 8h384v496h-384v-496zM50 0v512h400v-512h-400z" />
    <glyph glyph-name=".notdef" horiz-adv-x="500" vert-adv-y="0" 
d="M58 8h384v496h-384v-496zM50 0v512h400v-512h-400z" />
    <glyph glyph-name=".null" vert-adv-y="0" 
 />
    <glyph glyph-name=".null" vert-adv-y="0" 
 />
    <glyph glyph-name="uni000D" unicode="&#xd;" horiz-adv-x="250" vert-adv-y="0" 
 />
    <glyph glyph-name="space" unicode=" " horiz-adv-x="250" vert-adv-y="0" 
 />
    <glyph glyph-name="exclam" unicode="!" horiz-adv-x="310" vert-adv-y="0" 
d="M92 230v470h131v-470h-131zM155 -12q-23 0 -42.5 11.5t-31 31.5t-11.5 42q0 37 25 61t60 24t60 -24t25 -61q0 -22 -11.5 -42t-30.5 -31.5t-43 -11.5z" />
    <glyph glyph-name="quotedbl" unicode="&#x22;" horiz-adv-x="429" vert-adv-y="0" 
d="M55 460v240h120v-240h-120zM254 460v240h120v-240h-120z" />
    <glyph glyph-name="numbersign" unicode="#" horiz-adv-x="680" vert-adv-y="0" 
d="M91 0l33 186h-78v98h96l25 132h-82v98h100l36 186h119l-35 -186h130l35 186h119l-34 -186h79v-98h-97l-25 -132h83v-98h-101l-35 -186h-119l34 186h-131l-33 -186h-119zM262 284h130l25 132h-130z" />
    <glyph glyph-name="dollar" unicode="$" horiz-adv-x="659" vert-adv-y="0" 
d="M270 -120v112q-110 12 -165 66t-60 137h150q8 -39 36.5 -60t98.5 -21q72 0 103.5 19.5t31.5 55.5q0 30 -18.5 49t-56.5 32.5t-99 25.5q-71 14 -122 39t-77.5 68t-26.5 109q0 79 54.5 130.5t150.5 65.5v92h120v-92q100 -12 149 -63.5t56 -129.5h-149q-8 36 -33 53.5
t-83 17.5q-59 0 -87 -19t-28 -51q0 -39 38.5 -61t121.5 -38q57 -11 101.5 -27t75.5 -41.5t47 -61.5t16 -87q0 -86 -58.5 -141t-166.5 -67v-112h-120z" />
    <glyph glyph-name="percent" unicode="%" horiz-adv-x="840" vert-adv-y="1200" 
d="M190 358q-77 0 -123.5 46t-46.5 121v10q0 49 21 86.5t59.5 59t89.5 21.5q52 0 90 -21t59 -58.5t21 -87.5v-10q0 -75 -46.5 -121t-123.5 -46zM190 462q20 0 32 14.5t12 48.5v10q0 34 -12 48.5t-32 14.5t-32 -14.5t-12 -48.5v-10q0 -34 12 -48.5t32 -14.5zM111 -10l480 700
h138l-480 -700h-138zM650 -22q-77 0 -123.5 46t-46.5 121v10q0 49 21 86.5t59.5 59t89.5 21.5q52 0 90 -21t59 -58.5t21 -87.5v-10q0 -75 -46.5 -121t-123.5 -46zM650 82q20 0 32 14.5t12 48.5v10q0 34 -12 48.5t-32 14.5t-32 -14.5t-12 -48.5v-10q0 -34 12 -48.5t32 -14.5z
" />
    <glyph glyph-name="ampersand" unicode="&#x26;" horiz-adv-x="700" vert-adv-y="0" 
d="M295 -12q-82 0 -136.5 26.5t-81.5 72.5t-27 103q0 37 10 67.5t36 64t76 74.5q-20 24 -35.5 47.5t-23.5 51.5t-8 65q0 36 18.5 71t58.5 58t103 23q68 0 107.5 -25t56 -60.5t16.5 -66.5q0 -27 -9.5 -52t-35.5 -54.5t-72 -68.5l129 -145q7 23 10.5 48.5t3.5 51.5h134
q0 -63 -13.5 -114.5t-38.5 -93.5l117 -132h-158l-41 45q-40 -29 -89.5 -43t-106.5 -14zM295 100q33 0 61.5 9.5t51.5 26.5l-156 172q-27 -23 -42 -41.5t-20.5 -37t-5.5 -39.5q0 -39 29.5 -64.5t81.5 -25.5zM234 560q0 -20 9 -40.5t29 -46.5q27 22 41 36.5t18.5 26.5t4.5 24
q0 20 -14 32.5t-37 12.5t-37 -13t-14 -32z" />
    <glyph glyph-name="quotesingle" unicode="'" horiz-adv-x="230" vert-adv-y="0" 
d="M55 460v240h120v-240h-120z" />
    <glyph glyph-name="parenleft" unicode="(" horiz-adv-x="380" vert-adv-y="0" 
d="M71 240v20q0 106 24.5 187t55.5 138q16 33 36.5 61.5t43.5 53.5h139q-24 -25 -45.5 -53.5t-40.5 -61.5q-31 -55 -58.5 -138t-27.5 -187v-20q0 -105 26.5 -187t59.5 -138q19 -33 40.5 -61.5t45.5 -53.5h-143q-22 25 -42 53.5t-36 61.5q-31 56 -54.5 138t-23.5 187z" />
    <glyph glyph-name="parenright" unicode=")" horiz-adv-x="380" vert-adv-y="0" 
d="M309 260v-20q0 -106 -24.5 -187t-55.5 -138q-17 -33 -36.5 -61.5t-43.5 -53.5h-139q24 25 45.5 53.5t40.5 61.5q32 56 59 138.5t27 186.5v20q0 105 -27 187t-59 138q-19 33 -40.5 61.5t-45.5 53.5h143q23 -25 42.5 -53.5t35.5 -61.5q31 -56 54.5 -138t23.5 -187z" />
    <glyph glyph-name="asterisk" unicode="*" horiz-adv-x="450" vert-adv-y="0" 
d="M178 350l10 111l-92 -68l-51 89l107 43l-107 43l51 89l92 -68l-10 111h94l-10 -111l93 68l50 -89l-107 -43l107 -43l-51 -89l-92 68l10 -111h-94z" />
    <glyph glyph-name="plus" unicode="+" horiz-adv-x="569" vert-adv-y="0" 
d="M219 116v182h-179v124h179v182h132v-182h179v-124h-179v-182h-132z" />
    <glyph glyph-name="comma" unicode="," horiz-adv-x="310" vert-adv-y="0" 
d="M45 -160l40 160v130h140v-130l-112 -160h-68z" />
    <glyph glyph-name="hyphen" unicode="-" horiz-adv-x="380" vert-adv-y="0" 
d="M30 218v124h320v-124h-320z" />
    <glyph glyph-name="period" unicode="." horiz-adv-x="310" vert-adv-y="0" 
d="M155 -12q-23 0 -42.5 11.5t-31 31.5t-11.5 42q0 37 25 61t60 24t60 -24t25 -61q0 -22 -11.5 -42t-30.5 -31.5t-43 -11.5z" />
    <glyph glyph-name="slash" unicode="/" horiz-adv-x="480" vert-adv-y="0" 
d="M21 -200l319 900h119l-319 -900h-119z" />
    <glyph glyph-name="zero" unicode="0" horiz-adv-x="639" vert-adv-y="0" 
d="M320 -12q-57 0 -106 19t-86 61t-57.5 111.5t-20.5 170.5v20q0 94 20.5 159t57.5 105.5t86 59t106 18.5t106 -18.5t86 -59t57.5 -105.5t20.5 -159v-20q0 -101 -20.5 -170.5t-57.5 -111.5t-86 -61t-106 -19zM320 114q26 0 47.5 10.5t38 36.5t25.5 72t9 117v20q0 85 -16 132
t-43 65.5t-61 18.5q-35 0 -61.5 -18.5t-42.5 -65.5t-16 -132v-20q0 -71 9 -117t25.5 -72t38.5 -36.5t47 -10.5z" />
    <glyph glyph-name="one" unicode="1" horiz-adv-x="504" vert-adv-y="0" 
d="M45 0v124h160v424l-160 -114v146l169 120h141v-576h130v-124h-440z" />
    <glyph glyph-name="two" unicode="2" horiz-adv-x="599" vert-adv-y="0" 
d="M30 0v109l245 211q46 41 73.5 67.5t39.5 50.5t12 52q0 43 -23.5 69.5t-71.5 26.5q-55 0 -85 -29.5t-30 -100.5h-150q0 79 30 136.5t89.5 88.5t145.5 31q80 0 135 -28.5t82.5 -78.5t27.5 -115q0 -48 -22.5 -90t-59.5 -80t-83 -76l-144 -120h319v-124h-530z" />
    <glyph glyph-name="three" unicode="3" horiz-adv-x="604" vert-adv-y="0" 
d="M295 -12q-85 0 -143 27.5t-87.5 78.5t-29.5 121h150q0 -51 26 -76t84 -25q55 0 82.5 24.5t27.5 69.5q0 47 -27.5 71t-82.5 24h-66v114h66q48 0 74 20.5t26 63.5q0 37 -25 61t-75 24q-51 0 -75.5 -23t-24.5 -68h-150q0 69 27.5 117.5t83.5 74t139 25.5t139 -25t83.5 -68
t27.5 -97q0 -59 -32.5 -99.5t-86.5 -57.5q62 -17 95.5 -59.5t33.5 -110.5q0 -60 -31.5 -106.5t-89.5 -73.5t-139 -27z" />
    <glyph glyph-name="four" unicode="4" horiz-adv-x="628" vert-adv-y="0" 
d="M350 0v148h-330v104l330 448h150v-428h79v-124h-79v-148h-150zM160 272h190v261z" />
    <glyph glyph-name="five" unicode="5" horiz-adv-x="599" vert-adv-y="0" 
d="M300 -12q-66 0 -113 17t-77 46t-44.5 66t-15.5 78h150q3 -36 27.5 -58.5t72.5 -22.5q55 0 82.5 31t27.5 93q0 44 -15 70.5t-40 38t-55 11.5q-35 0 -58 -12.5t-37 -34.5h-140v389h456v-124h-306v-128q21 19 51 27t69 8q68 0 118 -27t78.5 -81.5t28.5 -136.5
q0 -75 -32.5 -131.5t-90.5 -87.5t-137 -31z" />
    <glyph glyph-name="six" unicode="6" horiz-adv-x="624" vert-adv-y="0" 
d="M325 -12q-131 0 -203 78.5t-72 253.5v20q0 134 36.5 215.5t101 119t147.5 37.5q65 0 113.5 -18t78.5 -56.5t38 -101.5h-140q-10 25 -33.5 37.5t-61.5 12.5q-40 0 -69.5 -16.5t-48 -59.5t-22.5 -126q26 41 73.5 57t96.5 16q71 0 119.5 -26t74.5 -75t26 -119v-11
q0 -71 -32.5 -124.5t-90.5 -83.5t-132 -30zM315 114q54 0 84.5 30.5t30.5 78.5v10q0 48 -30.5 78t-84.5 30t-84.5 -30t-30.5 -78v-10q0 -48 30.5 -78.5t84.5 -30.5z" />
    <glyph glyph-name="seven" unicode="7" horiz-adv-x="540" vert-adv-y="0" 
d="M121 0l236 576h-337v124h489v-109l-229 -591h-159z" />
    <glyph glyph-name="eight" unicode="8" horiz-adv-x="629" vert-adv-y="0" 
d="M315 -12q-84 0 -144.5 25t-93 71t-32.5 107q0 59 36 105.5t107 65.5q-53 17 -88 59t-35 101q0 55 29 98t84.5 67.5t136.5 24.5q80 0 136 -24.5t85.5 -67.5t29.5 -98q0 -59 -35.5 -99.5t-88.5 -60.5q71 -22 107 -64.5t36 -106.5q0 -61 -32 -107t-92.5 -71t-145.5 -25z
M315 114q42 0 68.5 11t39 31t12.5 47q0 45 -33.5 71.5t-86.5 34.5q-53 -8 -86.5 -34.5t-33.5 -71.5q0 -27 13.5 -47t40 -31t66.5 -11zM315 411q45 8 73 31.5t28 65.5q0 39 -26.5 58.5t-74.5 19.5q-47 0 -73.5 -19.5t-26.5 -58.5q0 -42 27.5 -65.5t72.5 -31.5z" />
    <glyph glyph-name="nine" unicode="9" horiz-adv-x="624" vert-adv-y="0" 
d="M295 -12q-66 0 -116 19t-80 58.5t-39 98.5h140q9 -25 32 -37.5t68 -12.5q37 0 66 16.5t47.5 60t21.5 125.5q-25 -41 -73 -57t-96 -16q-70 0 -120 26t-75.5 75.5t-25.5 118.5v11q0 71 32.5 124.5t90.5 83.5t132 30q88 0 149.5 -34t93.5 -107t32 -191v-19
q0 -134 -36.5 -216t-99.5 -119.5t-144 -37.5zM310 359q54 0 84.5 30t30.5 78v10q0 47 -31.5 78t-83.5 31q-54 0 -84.5 -30.5t-30.5 -78.5v-10q0 -48 30.5 -78t84.5 -30z" />
    <glyph glyph-name="colon" unicode=":" horiz-adv-x="310" vert-adv-y="0" 
d="M155 -12q-23 0 -42.5 11.5t-31 31.5t-11.5 42q0 37 25 61t60 24t60 -24t25 -61q0 -22 -11.5 -42t-30.5 -31.5t-43 -11.5zM155 372q-23 0 -42.5 11.5t-31 31.5t-11.5 42q0 37 25 61t60 24t60 -24t25 -61q0 -22 -11.5 -42t-30.5 -31.5t-43 -11.5z" />
    <glyph glyph-name="semicolon" unicode=";" horiz-adv-x="310" vert-adv-y="0" 
d="M45 -160l40 160v130h140v-130l-112 -160h-68zM155 372q-23 0 -42.5 11.5t-31 31.5t-11.5 42q0 37 25 61t60 24t60 -24t25 -61q0 -22 -11.5 -42t-30.5 -31.5t-43 -11.5z" />
    <glyph glyph-name="less" unicode="&#x3c;" horiz-adv-x="569" vert-adv-y="0" 
d="M530 90l-490 215v110l490 215v-143l-315 -125l315 -125v-147z" />
    <glyph glyph-name="equal" unicode="=" horiz-adv-x="569" vert-adv-y="0" 
d="M40 178v124h490v-124h-490zM40 418v124h490v-124h-490z" />
    <glyph glyph-name="greater" unicode="&#x3e;" horiz-adv-x="569" vert-adv-y="0" 
d="M40 630l490 -215v-110l-490 -215v143l315 125l-315 125v147z" />
    <glyph glyph-name="question" unicode="?" horiz-adv-x="529" vert-adv-y="0" 
d="M199 230v39q0 27 9 48.5t27.5 42.5t47.5 47q37 31 57.5 54t20.5 54q0 38 -24 61.5t-72 23.5q-43 0 -69.5 -23.5t-26.5 -66.5h-134q0 55 30 101t82 73.5t118 27.5q72 0 123.5 -25.5t79 -68.5t27.5 -98q0 -36 -9.5 -63.5t-30.5 -53.5t-58 -59q-30 -27 -44 -43t-18 -27.5
t-4 -23.5v-20h-132zM265 -12q-24 0 -43 11.5t-30.5 31.5t-11.5 42q0 37 25 61t60 24q34 0 59.5 -24t25.5 -61q0 -22 -11.5 -42t-30.5 -31.5t-43 -11.5z" />
    <glyph glyph-name="at" unicode="@" horiz-adv-x="990" vert-adv-y="0" 
d="M510 -212q-102 0 -186.5 32t-146 92.5t-94.5 147.5t-33 196q0 105 33.5 189t94.5 143.5t142 91.5t175 32q102 0 184 -28.5t140.5 -83t89.5 -132.5t31 -177q0 -96 -28.5 -158t-77 -92.5t-110.5 -30.5q-45 0 -79 18t-48 72q-20 -43 -53.5 -67t-88.5 -24q-84 0 -134.5 57
t-50.5 171v33q0 115 48.5 170t129.5 55q38 0 63 -10t41 -26t24 -35v62h107v-281q0 -51 11.5 -70t41.5 -19t52 16t34 54.5t12 104.5q0 85 -26 146.5t-72.5 101.5t-108 59t-132.5 19q-72 0 -134 -23.5t-107.5 -69.5t-71 -113t-25.5 -155q0 -119 44.5 -203t124 -127t184.5 -43
q78 0 133 16.5t92 39.5v-104q-39 -20 -92.5 -33.5t-132.5 -13.5zM478 116q43 0 68.5 28t25.5 78v62q0 51 -25 78.5t-70 27.5q-41 0 -64 -29t-23 -95v-28q0 -65 23.5 -93.5t64.5 -28.5z" />
    <glyph glyph-name="A" unicode="A" horiz-adv-x="689" vert-adv-y="0" 
d="M10 0l260 700h149l261 -700h-158l-54 143h-259l-53 -143h-146zM255 267h168l-84 243z" />
    <glyph glyph-name="B" unicode="B" horiz-adv-x="680" vert-adv-y="0" 
d="M81 0v700h299q118 0 173.5 -49.5t55.5 -137.5q0 -54 -26.5 -92.5t-71.5 -55.5q60 -14 94 -56.5t34 -110.5q0 -60 -25 -104.5t-79 -69t-142 -24.5h-312zM230 114h136q70 0 97 24t27 71t-26.5 73.5t-98.5 26.5h-135v-195zM230 411h120q61 0 85.5 24t24.5 65q0 42 -24 64
t-85 22h-121v-175z" />
    <glyph glyph-name="C" unicode="C" horiz-adv-x="699" vert-adv-y="0" 
d="M365 -12q-91 0 -162.5 36.5t-112 115t-40.5 205.5v20q0 92 24 157.5t67.5 107.5t100.5 62t123 20q59 0 110.5 -14.5t91.5 -43.5t64.5 -75t28.5 -108h-156q-11 59 -48 87t-91 28q-42 0 -78 -20.5t-58.5 -68.5t-22.5 -132v-20q0 -66 14 -110.5t37 -71t51 -38t57 -11.5
q57 0 94 29.5t45 85.5h156q-5 -65 -29 -111.5t-63 -75t-91 -41.5t-112 -13z" />
    <glyph glyph-name="D" unicode="D" horiz-adv-x="710" vert-adv-y="0" 
d="M81 0v700h243q106 0 181 -38t114.5 -112.5t39.5 -184.5v-20q0 -112 -41 -189t-118.5 -116.5t-185.5 -39.5h-233zM230 124h74q55 0 100 21t72.5 69.5t27.5 130.5v20q0 78 -25 124.5t-68.5 66.5t-96.5 20h-84v-452z" />
    <glyph glyph-name="E" unicode="E" horiz-adv-x="620" vert-adv-y="0" 
d="M81 0v700h488v-124h-338v-156h308v-120h-308v-176h338v-124h-488z" />
    <glyph glyph-name="F" unicode="F" horiz-adv-x="595" vert-adv-y="0" 
d="M81 0v700h479v-124h-330v-176h300v-120h-300v-280h-149z" />
    <glyph glyph-name="G" unicode="G" horiz-adv-x="724" vert-adv-y="0" 
d="M375 -12q-93 0 -166.5 36.5t-116 115t-42.5 205.5v20q0 91 25.5 157t70.5 108t102.5 62t121.5 20q60 0 109.5 -14.5t87.5 -43t63 -72t35 -101.5h-156q-14 42 -36 64.5t-48.5 31t-54.5 8.5q-44 0 -81.5 -21t-60 -69t-22.5 -130v-20q0 -65 14 -109t38.5 -70.5t54.5 -38.5
t62 -12q43 0 78 15t57.5 47.5t26.5 83.5h-142v104h285v-40q0 -87 -21.5 -150.5t-62 -105t-96.5 -61.5t-125 -20z" />
    <glyph glyph-name="H" unicode="H" horiz-adv-x="760" vert-adv-y="0" 
d="M81 0v700h149v-278h300v278h149v-700h-149v298h-300v-298h-149z" />
    <glyph glyph-name="I" unicode="I" horiz-adv-x="330" vert-adv-y="0" 
d="M91 0v700h149v-700h-149z" />
    <glyph glyph-name="J" unicode="J" horiz-adv-x="575" vert-adv-y="0" 
d="M255 -12q-74 0 -124 27t-77 79t-29 126h142q2 -53 24 -79t64 -26q32 0 51.5 12.5t29 42.5t9.5 80v450h150v-450q0 -94 -29.5 -151.5t-82.5 -84t-128 -26.5z" />
    <glyph glyph-name="K" unicode="K" horiz-adv-x="700" vert-adv-y="0" 
d="M81 0v700h149v-295l256 295h173l-260 -287l280 -413h-175l-206 314l-68 -75v-239h-149z" />
    <glyph glyph-name="L" unicode="L" horiz-adv-x="570" vert-adv-y="0" 
d="M81 0v700h149v-576h320v-124h-469z" />
    <glyph glyph-name="M" unicode="M" horiz-adv-x="879" vert-adv-y="0" 
d="M81 0v700h149l213 -394l212 394h145v-700h-150v445l-166 -305h-89l-165 305v-445h-149z" />
    <glyph glyph-name="N" unicode="N" horiz-adv-x="760" vert-adv-y="0" 
d="M81 0v700h141l309 -450v450h148v-700h-141l-309 450v-450h-148z" />
    <glyph glyph-name="O" unicode="O" horiz-adv-x="759" vert-adv-y="0" 
d="M380 -12q-66 0 -125 20t-105.5 62.5t-73 110.5t-26.5 164v20q0 92 26.5 157.5t73 107.5t105.5 62t125 20t125 -20t105.5 -62t73 -107.5t26.5 -157.5v-20q0 -96 -26.5 -164t-73 -110.5t-105.5 -62.5t-125 -20zM380 114q46 0 85.5 21.5t64 72t24.5 137.5v20
q0 82 -24.5 130.5t-64 69.5t-85.5 21q-45 0 -85 -21t-64.5 -69.5t-24.5 -130.5v-20q0 -87 24.5 -137.5t64.5 -72t85 -21.5z" />
    <glyph glyph-name="P" unicode="P" horiz-adv-x="665" vert-adv-y="0" 
d="M81 0v700h269q95 0 157 -28.5t92 -80t30 -121.5t-30 -121.5t-92 -80t-157 -28.5h-120v-240h-149zM230 364h105q80 0 112.5 27t32.5 79q0 51 -32.5 78.5t-112.5 27.5h-105v-212z" />
    <glyph glyph-name="Q" unicode="Q" horiz-adv-x="759" vert-adv-y="0" 
d="M380 -12q-66 0 -125 20t-105.5 63t-73 110.5t-26.5 163.5v20q0 92 26.5 157.5t73 107.5t105.5 62t125 20t125 -20t105.5 -62t73 -107.5t26.5 -157.5v-20q0 -79 -19.5 -138.5t-50.5 -102.5l60 -59l-75 -75l-65 63q-39 -22 -85 -33.5t-95 -11.5zM380 114q22 0 42 4.5
t39 14.5l-101 102l75 75l96 -97q11 26 17 58t6 74v20q0 82 -24.5 130.5t-64 69.5t-85.5 21q-45 0 -85 -21t-64.5 -69.5t-24.5 -130.5v-20q0 -87 24.5 -137.5t64.5 -72t85 -21.5z" />
    <glyph glyph-name="R" unicode="R" horiz-adv-x="690" vert-adv-y="0" 
d="M81 0v700h283q88 0 146.5 -28t88.5 -78.5t30 -118.5q0 -72 -37 -125.5t-113 -77.5l170 -272h-173l-147 256h-99v-256h-149zM230 374h105q83 0 114 25.5t31 75.5t-31 75.5t-114 25.5h-105v-202z" />
    <glyph glyph-name="S" unicode="S" horiz-adv-x="659" vert-adv-y="0" 
d="M330 -12q-93 0 -155 26t-94.5 72.5t-35.5 108.5h150q8 -39 36.5 -60t98.5 -21q72 0 103.5 19.5t31.5 55.5q0 30 -18.5 49t-56.5 32.5t-99 25.5q-71 14 -122 39t-77.5 68t-26.5 109q0 61 32.5 105.5t92 69.5t140.5 25q88 0 144.5 -24.5t86 -68.5t34.5 -104h-149
q-8 36 -33 53.5t-83 17.5q-59 0 -87 -19t-28 -51q0 -39 38.5 -61t121.5 -38q57 -11 101.5 -27t75.5 -41.5t47 -61.5t16 -87q0 -64 -33.5 -112t-97 -74t-154.5 -26z" />
    <glyph glyph-name="T" unicode="T" horiz-adv-x="639" vert-adv-y="0" 
d="M245 0v576h-225v124h599v-124h-225v-576h-149z" />
    <glyph glyph-name="U" unicode="U" horiz-adv-x="730" vert-adv-y="0" 
d="M365 -12q-90 0 -156 32t-102 97t-36 163v420h149v-406q0 -90 35 -135t110 -45t110 45t35 134v407h149v-420q0 -98 -35.5 -163t-101.5 -97t-157 -32z" />
    <glyph glyph-name="V" unicode="V" horiz-adv-x="689" vert-adv-y="0" 
d="M275 0l-265 700h162l184 -520l174 520h150l-256 -700h-149z" />
    <glyph glyph-name="W" unicode="W" horiz-adv-x="979" vert-adv-y="0" 
d="M200 0l-180 700h156l109 -494l135 494h140l138 -496l118 496h144l-181 -700h-149l-145 500l-136 -500h-149z" />
    <glyph glyph-name="X" unicode="X" horiz-adv-x="700" vert-adv-y="0" 
d="M20 0l235 365l-225 335h168l154 -229l155 229h163l-223 -332l233 -368h-169l-163 262l-162 -262h-166z" />
    <glyph glyph-name="Y" unicode="Y" horiz-adv-x="680" vert-adv-y="0" 
d="M275 0v267l-265 433h175l168 -281l157 281h160l-245 -433v-267h-150z" />
    <glyph glyph-name="Z" unicode="Z" horiz-adv-x="619" vert-adv-y="0" 
d="M35 0v109l360 467h-350v124h530v-109l-360 -467h370v-124h-550z" />
    <glyph glyph-name="bracketleft" unicode="[" horiz-adv-x="380" vert-adv-y="0" 
d="M111 -200v900h218v-98h-99v-704h99v-98h-218z" />
    <glyph glyph-name="backslash" unicode="\" horiz-adv-x="480" vert-adv-y="0" 
d="M340 -200l-319 900h119l319 -900h-119z" />
    <glyph glyph-name="bracketright" unicode="]" horiz-adv-x="380" vert-adv-y="0" 
d="M269 700v-900h-218v98h99v704h-99v98h218z" />
    <glyph glyph-name="asciicircum" unicode="^" horiz-adv-x="569" vert-adv-y="0" 
d="M35 440l184 260h132l184 -260h-150l-106 155l-106 -155h-138z" />
    <glyph glyph-name="underscore" unicode="_" horiz-adv-x="500" vert-adv-y="0" 
d="M0 -149v98h500v-98h-500z" />
    <glyph glyph-name="grave" unicode="`" horiz-adv-x="300" vert-adv-y="0" 
d="M170 580l-150 160h150l110 -160h-110z" />
    <glyph glyph-name="a" unicode="a" horiz-adv-x="575" vert-adv-y="0" 
d="M219 -12q-57 0 -97 21.5t-61 59.5t-21 86q0 80 47.5 120t142.5 40h158v25q0 52 -23.5 73t-74.5 21q-45 0 -65 -15.5t-23 -38.5h-132q3 46 29.5 82.5t76 58t119.5 21.5q68 0 118.5 -20t78.5 -64.5t28 -119.5v-203q0 -42 1.5 -73.5t5.5 -61.5h-123q-4 22 -4.5 33.5
t-0.5 34.5q-21 -32 -66 -56t-114 -24zM260 90q32 0 61.5 11.5t48 36t18.5 62.5v25h-133q-38 0 -59.5 -17.5t-21.5 -47.5q0 -32 22 -51t64 -19z" />
    <glyph glyph-name="b" unicode="b" horiz-adv-x="615" vert-adv-y="0" 
d="M355 -12q-66 0 -109 27t-63 63v-78h-122v700h131v-243q25 38 66.5 61.5t96.5 23.5q106 0 165.5 -65.5t59.5 -196.5v-20q0 -91 -27.5 -151.5t-77.5 -90.5t-120 -30zM324 100q52 0 87 39.5t35 120.5v20q0 75 -33.5 112.5t-88.5 37.5q-38 0 -68 -14.5t-47 -43t-17 -72.5v-60
q0 -47 16.5 -78.5t46.5 -46.5t69 -15z" />
    <glyph glyph-name="c" unicode="c" horiz-adv-x="564" vert-adv-y="0" 
d="M295 -12q-73 0 -132 30.5t-93.5 91t-34.5 150.5v20q0 86 36 144t95 88t129 30q75 0 127 -25t80.5 -69t32.5 -97h-134q-8 36 -32.5 57.5t-73.5 21.5q-34 0 -62.5 -16t-46 -49t-17.5 -85v-20q0 -56 16.5 -91.5t45 -52t64.5 -16.5q39 0 67.5 20.5t38.5 58.5h134
q-6 -57 -38 -101t-84.5 -67t-117.5 -23z" />
    <glyph glyph-name="d" unicode="d" horiz-adv-x="615" vert-adv-y="0" 
d="M260 -12q-69 0 -119.5 30t-78 90.5t-27.5 151.5v20q0 86 27.5 144t78.5 88t119 30q55 0 96.5 -23.5t66.5 -62.5v244h131v-700h-122v78q-20 -36 -63 -63t-109 -27zM291 100q40 0 69.5 15t46 46.5t16.5 78.5v60q0 44 -17 72.5t-47 43t-68 14.5q-54 0 -88 -37.5t-34 -112.5
v-20q0 -82 35 -121t87 -39z" />
    <glyph glyph-name="e" unicode="e" horiz-adv-x="580" vert-adv-y="0" 
d="M300 -12q-72 0 -132.5 29.5t-96.5 90t-36 152.5v20q0 88 34.5 146t92.5 87t128 29q125 0 190 -66t65 -191v-56h-375q2 -47 20.5 -76.5t47.5 -43t62 -13.5q51 0 77 15t37 44h121q-16 -83 -79 -125t-156 -42zM295 434q-31 0 -60 -10t-46 -35.5t-19 -67.5h247
q-1 45 -17.5 69.5t-43.5 34t-61 9.5z" />
    <glyph glyph-name="f" unicode="f" horiz-adv-x="365" vert-adv-y="0" 
d="M91 0v420h-66v110h66v20q0 51 18 85.5t59.5 52.5t111.5 18q15 0 37.5 -0.5t37.5 -2.5v-112q-15 2 -32.5 2.5t-32.5 0.5q-38 0 -53 -12.5t-15 -41.5v-10h123v-110h-123v-420h-131z" />
    <glyph glyph-name="g" unicode="g" horiz-adv-x="615" vert-adv-y="0" 
d="M290 -212q-84 0 -134 20.5t-73.5 56.5t-27.5 85h134q6 -21 27 -39.5t74 -18.5q67 0 100 32t33 96v64q-25 -39 -67 -62.5t-96 -23.5q-69 0 -119.5 30t-78 89.5t-27.5 147.5v20q0 83 27.5 140t78.5 87t119 30q66 0 109 -27t63 -63v78h122v-500q0 -118 -65 -180t-199 -62z
M291 110q40 0 69.5 14.5t46 45.5t16.5 75v60q0 42 -17 69t-47 41.5t-68 14.5q-54 0 -88 -36.5t-34 -108.5v-20q0 -77 35 -116t87 -39z" />
    <glyph glyph-name="h" unicode="h" horiz-adv-x="605" vert-adv-y="0" 
d="M61 0v700h131v-243q12 20 33.5 39.5t54 32.5t78.5 13q97 0 144.5 -52t47.5 -150v-340h-132v309q0 59 -24.5 90t-83.5 31q-42 0 -68 -17t-38 -44.5t-12 -59.5v-309h-131z" />
    <glyph glyph-name="i" unicode="i" horiz-adv-x="271" vert-adv-y="1200" 
d="M71 0v530h131v-530h-131zM136 581q-35 0 -57.5 22t-22.5 57t22.5 57t56.5 22q36 0 58.5 -22t22.5 -57t-22.5 -57t-57.5 -22z" />
    <glyph glyph-name="j" unicode="j" horiz-adv-x="271" vert-adv-y="1200" 
d="M21 -212q-11 0 -25 0.5t-25 2.5v112q8 -2 17.5 -2.5t17.5 -0.5q25 0 39 8.5t20 33t6 68.5v520h131v-530q0 -84 -16 -130t-55 -64t-110 -18zM136 581q-35 0 -57.5 22t-22.5 57t22.5 57t56.5 22q36 0 58.5 -22t22.5 -57t-22.5 -57t-57.5 -22z" />
    <glyph glyph-name="k" unicode="k" horiz-adv-x="575" vert-adv-y="0" 
d="M61 0v700h131v-388l196 218h151l-203 -227l223 -303h-152l-156 216l-59 -63v-153h-131z" />
    <glyph glyph-name="l" unicode="l" horiz-adv-x="330" vert-adv-y="0" 
d="M240 -6q-61 0 -99.5 16.5t-56.5 56t-18 110.5v523h131v-507q0 -51 14.5 -69t57.5 -18q11 0 19 0.5t16 1.5v-110q-5 -2 -17 -3t-25 -1h-22z" />
    <glyph glyph-name="m" unicode="m" horiz-adv-x="875" vert-adv-y="0" 
d="M61 0v530h120v-79q18 35 58.5 63t93.5 28q64 0 100.5 -26t51.5 -69q22 42 63.5 68.5t98.5 26.5q84 0 128.5 -49t44.5 -148v-345h-132v315q0 63 -20.5 89t-65.5 26q-26 0 -48 -13.5t-35.5 -39.5t-13.5 -62v-315h-131v315q0 63 -20.5 89t-65.5 26q-26 0 -48.5 -13.5
t-35 -39.5t-12.5 -62v-315h-131z" />
    <glyph glyph-name="n" unicode="n" horiz-adv-x="605" vert-adv-y="0" 
d="M61 0v530h120v-78q20 36 62 63t115 27q97 0 144.5 -52t47.5 -150v-340h-132v310q0 59 -24.5 89.5t-83.5 30.5q-42 0 -68 -17t-38 -44t-12 -59v-310h-131z" />
    <glyph glyph-name="o" unicode="o" horiz-adv-x="600" vert-adv-y="0" 
d="M300 -12q-72 0 -132.5 29.5t-96.5 90t-36 152.5v20q0 87 36 145t96.5 87.5t132.5 29.5t132.5 -29.5t96.5 -87.5t36 -145v-20q0 -90 -36 -150.5t-96.5 -91t-132.5 -30.5zM300 100q38 0 67.5 17.5t46.5 53.5t17 89v20q0 49 -17 82t-46.5 50.5t-67.5 17.5t-67.5 -17.5
t-46.5 -50.5t-17 -82v-20q0 -54 17 -89.5t46.5 -53t67.5 -17.5z" />
    <glyph glyph-name="p" unicode="p" horiz-adv-x="615" vert-adv-y="0" 
d="M61 -200v730h122v-78q20 36 63 63t109 27q106 0 165.5 -65.5t59.5 -196.5v-20q0 -91 -27.5 -151.5t-77.5 -90.5t-120 -30q-54 0 -95.5 23.5t-67.5 61.5v-273h-131zM324 100q52 0 87 39.5t35 120.5v20q0 75 -33.5 112.5t-88.5 37.5q-38 0 -68 -14.5t-47 -43t-17 -72.5v-60
q0 -47 16.5 -78.5t46.5 -46.5t69 -15z" />
    <glyph glyph-name="q" unicode="q" horiz-adv-x="615" vert-adv-y="0" 
d="M423 -200v274q-25 -39 -67 -62.5t-96 -23.5q-69 0 -119.5 30t-78 90.5t-27.5 151.5v20q0 86 27.5 144t78.5 88t119 30q66 0 109 -27t63 -63v78h122v-730h-131zM291 100q40 0 69.5 15t46 46.5t16.5 78.5v60q0 44 -17 72.5t-47 43t-68 14.5q-54 0 -88 -37t-34 -113v-20
q0 -82 35 -121t87 -39z" />
    <glyph glyph-name="r" unicode="r" horiz-adv-x="390" vert-adv-y="0" 
d="M61 0v530h120v-79q11 23 30 43t47 34t62 14q19 0 32.5 -2t17.5 -4v-117q-10 4 -25.5 7.5t-41.5 3.5q-40 0 -64.5 -17t-35.5 -44.5t-11 -59.5v-309h-131z" />
    <glyph glyph-name="s" unicode="s" horiz-adv-x="549" vert-adv-y="0" 
d="M275 -12q-65 0 -109 13.5t-72.5 37t-42 53.5t-16.5 63h132q5 -26 31 -42.5t77 -16.5q58 0 83 16t25 41q0 18 -11 29.5t-39 20t-79 17.5q-44 6 -80.5 16.5t-64.5 29.5t-43.5 47.5t-15.5 69.5q0 44 26.5 80t77 57.5t121.5 21.5q77 0 123 -24t69 -62t28 -81h-132
q-8 29 -31 44t-57 15q-50 0 -71.5 -15.5t-21.5 -38.5q0 -24 23.5 -37t96.5 -23q45 -6 83.5 -17.5t67.5 -30.5t45.5 -47.5t16.5 -69.5q0 -49 -26.5 -86.5t-80 -59t-133.5 -21.5z" />
    <glyph glyph-name="t" unicode="t" horiz-adv-x="400" vert-adv-y="0" 
d="M275 -6q-62 0 -102 17.5t-58.5 56.5t-18.5 101v251h-71v110h71v120h131v-120h128v-110h-128v-230q0 -45 16.5 -64.5t61.5 -19.5q30 0 60 3v-110q-19 -2 -39.5 -3.5t-50.5 -1.5z" />
    <glyph glyph-name="u" unicode="u" horiz-adv-x="595" vert-adv-y="0" 
d="M242 -12q-92 0 -139 52.5t-47 162.5v327h131v-309q0 -60 23.5 -90.5t79.5 -30.5q40 0 64.5 17t36.5 44t12 60v309h132v-530h-122v79q-19 -37 -60.5 -64t-110.5 -27z" />
    <glyph glyph-name="v" unicode="v" horiz-adv-x="580" vert-adv-y="0" 
d="M234 0l-224 530h148l144 -366l131 366h137l-204 -530h-132z" />
    <glyph glyph-name="w" unicode="w" horiz-adv-x="830" vert-adv-y="0" 
d="M168 0l-148 530h142l86 -350l107 350h122l112 -350l91 350h130l-148 -530h-132l-117 370l-113 -370h-132z" />
    <glyph glyph-name="x" unicode="x" horiz-adv-x="569" vert-adv-y="0" 
d="M15 0l180 276l-170 254h147l116 -170l114 170h143l-168 -249l178 -281h-148l-124 198l-123 -198h-145z" />
    <glyph glyph-name="y" unicode="y" horiz-adv-x="580" vert-adv-y="0" 
d="M150 -212q-15 0 -30 3v112q15 -3 30 -3q20 0 33.5 10t25 32t25.5 58l-224 530h148l144 -366l131 366h137l-204 -530q-29 -75 -56 -121.5t-63.5 -68.5t-96.5 -22z" />
    <glyph glyph-name="z" unicode="z" horiz-adv-x="510" vert-adv-y="0" 
d="M30 0v95l274 325h-264v110h430v-95l-274 -325h284v-110h-450z" />
    <glyph glyph-name="braceleft" unicode="{" horiz-adv-x="380" vert-adv-y="0" 
d="M339 -200h-59q-75 0 -117 42t-42 117v192q0 23 -13.5 36.5t-36.5 13.5v98q23 0 36.5 13.5t13.5 36.5v201q0 68 44.5 109t114.5 41h59v-98h-40q-29 0 -44 -15t-15 -45v-222q0 -30 -13.5 -46t-36.5 -24q23 -8 36.5 -24t13.5 -46v-222q0 -30 15 -45t44 -15h40v-98z" />
    <glyph glyph-name="bar" unicode="|" horiz-adv-x="340" vert-adv-y="0" 
d="M110 -200v900h120v-900h-120z" />
    <glyph glyph-name="braceright" unicode="}" horiz-adv-x="380" vert-adv-y="0" 
d="M41 700h59q75 0 117 -42t42 -117v-192q0 -23 13.5 -36.5t36.5 -13.5v-98q-23 0 -36.5 -13.5t-13.5 -36.5v-200q0 -68 -44.5 -109.5t-114.5 -41.5h-59v98h40q29 0 44 15t15 45v222q0 30 13.5 46t36.5 24q-23 8 -36.5 24t-13.5 46v222q0 30 -15 45t-44 15h-40v98z" />
    <glyph glyph-name="asciitilde" unicode="~" horiz-adv-x="569" vert-adv-y="0" 
d="M380 261q-34 0 -60.5 10.5t-48.5 25t-42.5 26t-43.5 11.5q-17 0 -29.5 -8.5t-21.5 -18.5q-4 -6 -8.5 -12.5t-8.5 -14.5l-87 55q8 17 18 33t21 29q20 23 49 42.5t72 19.5q34 0 60 -10.5t48 -25t43 -26t44 -11.5q17 0 29 8t21 19q4 5 8.5 12t8.5 15l88 -55
q-9 -18 -18.5 -33.5t-20.5 -29.5q-20 -23 -49.5 -42t-71.5 -19z" />
    <glyph glyph-name="uni00A0" unicode="&#xa0;" horiz-adv-x="250" vert-adv-y="0" 
 />
    <glyph glyph-name="exclamdown" unicode="&#xa1;" horiz-adv-x="310" vert-adv-y="0" 
d="M92 -200v500h131v-500h-131zM155 372q-23 0 -42.5 11.5t-31 31t-11.5 42.5q0 37 25 61t60 24t60 -24t25 -61q0 -23 -11.5 -42.5t-30.5 -31t-43 -11.5z" />
    <glyph glyph-name="cent" unicode="&#xa2;" horiz-adv-x="564" vert-adv-y="0" 
d="M234 -120v114q-86 16 -142.5 82t-56.5 184v20q0 72 26.5 125.5t72 87t100.5 43.5v94h121v-93q56 -10 94.5 -36.5t60 -65.5t25.5 -84h-134q-8 36 -32.5 57.5t-73.5 21.5q-34 0 -62.5 -16t-46 -49t-17.5 -85v-20q0 -56 16.5 -91.5t45 -52t64.5 -16.5q39 0 67.5 20.5
t38.5 58.5h134q-8 -74 -56.5 -122.5t-123.5 -62.5v-114h-121z" />
    <glyph glyph-name="sterling" unicode="&#xa3;" horiz-adv-x="649" vert-adv-y="0" 
d="M50 0v124h90v164h-80v104h80v108q0 67 27 114t79.5 72.5t126.5 25.5t123 -24t75.5 -68.5t28.5 -104.5h-150q-4 34 -23 52.5t-54 18.5q-44 0 -63.5 -22t-19.5 -64v-108h165v-104h-165v-164h310v-124h-550z" />
    <glyph glyph-name="currency" unicode="&#xa4;" horiz-adv-x="569" vert-adv-y="0" 
d="M113 110l-78 79l67 67q-13 23 -20 49t-7 55q0 28 7 54t20 49l-67 68l78 79l68 -68q24 14 50 20.5t54 6.5t54 -6.5t49 -20.5l68 68l78 -79l-67 -68q14 -23 21 -49t7 -54t-7 -54t-21 -50l67 -67l-78 -79l-68 67q-23 -13 -49 -19.5t-54 -6.5q-29 0 -55 6.5t-49 19.5z
M285 271q37 0 61.5 25.5t24.5 63.5t-24.5 63.5t-61.5 25.5t-61.5 -25.5t-24.5 -63.5t24.5 -63.5t61.5 -25.5z" />
    <glyph glyph-name="yen" unicode="&#xa5;" horiz-adv-x="650" vert-adv-y="0" 
d="M255 0v137h-185v104h185v58h-185v104h103l-158 297h176l142 -297l142 297h160l-152 -297h107v-104h-185v-58h185v-104h-185v-137h-150z" />
    <glyph glyph-name="brokenbar" unicode="&#xa6;" horiz-adv-x="340" vert-adv-y="0" 
d="M110 -200v370h120v-370h-120zM110 330v370h120v-370h-120z" />
    <glyph glyph-name="section" unicode="&#xa7;" horiz-adv-x="580" vert-adv-y="0" 
d="M290 -212q-65 0 -111 22.5t-69.5 62.5t-23.5 92h155q0 -25 12 -38t37 -13q24 0 37 12.5t13 33.5q0 16 -8 30.5t-34 30t-84 34.5q-72 23 -117.5 72t-45.5 123q0 57 28 101.5t77 70.5q-35 23 -52.5 56.5t-17.5 71.5q0 46 23.5 82.5t69.5 58t111 21.5q66 0 111.5 -22.5
t69.5 -62t24 -92.5h-155q0 26 -12 38.5t-38 12.5q-25 0 -37 -11.5t-12 -34.5q0 -14 7 -29.5t34 -31.5t85 -36q72 -22 117.5 -71t45.5 -122q0 -58 -28.5 -102.5t-77.5 -70.5q34 -23 52.5 -56t18.5 -71q0 -45 -24 -82t-70 -58.5t-111 -21.5zM290 172q38 0 61 21t23 57
q0 35 -23 56.5t-61 21.5t-61 -21.5t-23 -56.5t23 -56.5t61 -21.5z" />
    <glyph glyph-name="dieresis" unicode="&#xa8;" horiz-adv-x="400" vert-adv-y="0" 
d="M94 586q-32 0 -53 21t-21 53t21 53t53 21t53 -21t21 -53t-21 -53t-53 -21zM306 586q-32 0 -53 21t-21 53t21 53t53 21t53 -21t21 -53t-21 -53t-53 -21z" />
    <glyph glyph-name="copyright" unicode="&#xa9;" horiz-adv-x="840" vert-adv-y="0" 
d="M421 -22q-80 0 -148 28t-119.5 78.5t-80 118.5t-28.5 147t29 147t80 118.5t119 78.5t147 28t147 -28t119.5 -78.5t80 -118t28.5 -147.5q0 -78 -28.5 -146.5t-79.5 -119t-119.5 -78.5t-146.5 -28zM420 74q76 0 137.5 36.5t98 99t36.5 140.5t-36.5 140.5t-98 99
t-137.5 36.5t-137.5 -36.5t-98 -99t-36.5 -140.5t36.5 -140.5t98 -99t137.5 -36.5zM420 138q-58 0 -102 23.5t-68.5 70t-24.5 113.5v10q0 65 25 111t69 71t101 25q56 0 95.5 -18t63 -52t26.5 -81h-116q-7 30 -22.5 45.5t-46.5 15.5q-32 0 -55.5 -29.5t-23.5 -87.5v-10
q0 -62 24 -89.5t55 -27.5q32 0 48 19t21 47h116q-5 -47 -27.5 -82.5t-61.5 -54.5t-96 -19z" />
    <glyph glyph-name="ordfeminine" unicode="&#xaa;" horiz-adv-x="575" vert-adv-y="1200" 
d="M219 -12q-57 0 -97 21.5t-61 59.5t-21 86q0 80 47.5 120t142.5 40h158v25q0 52 -23.5 73t-74.5 21q-45 0 -65 -15.5t-23 -38.5h-132q3 46 29.5 82.5t76 58t119.5 21.5q68 0 118.5 -20t78.5 -64.5t28 -119.5v-203q0 -42 1.5 -73.5t5.5 -61.5h-123q-4 22 -4.5 33.5
t-0.5 34.5q-21 -32 -66 -56t-114 -24zM260 90q32 0 61.5 11.5t48 36t18.5 62.5v25h-133q-38 0 -59.5 -17.5t-21.5 -47.5q0 -32 22 -51t64 -19z" />
    <glyph glyph-name="guillemotleft" unicode="&#xab;" horiz-adv-x="540" vert-adv-y="0" 
d="M250 35l-220 185v110l220 185v-138l-125 -100l125 -100v-142zM490 35l-220 185v110l220 185v-138l-125 -100l125 -100v-142z" />
    <glyph glyph-name="logicalnot" unicode="&#xac;" horiz-adv-x="569" vert-adv-y="0" 
d="M398 130v168h-358v124h490v-292h-132z" />
    <glyph glyph-name="uni00AD" unicode="&#xad;" horiz-adv-x="380" vert-adv-y="0" 
d="M30 218v124h320v-124h-320z" />
    <glyph glyph-name="registered" unicode="&#xae;" horiz-adv-x="641" vert-adv-y="0" 
d="M320 139q-59 0 -110.5 22t-91 61.5t-61.5 91t-22 111.5t22 111.5t61.5 91t91 61.5t110.5 22t110.5 -22t91 -61.5t61.5 -91t22 -111.5t-22 -111.5t-61.5 -91t-91 -61.5t-110.5 -22zM320 214q58 0 104 27t73 74.5t27 109.5t-27 109.5t-73 74.5t-104 27t-104 -27t-73 -74.5
t-27 -109.5t27 -109.5t73 -74.5t104 -27zM206 275v300h115q73 0 103.5 -26t30.5 -72q0 -33 -14.5 -56t-49.5 -34l54 -112h-89l-43 105h-24v-105h-83zM289 443h27q33 0 44.5 8.5t11.5 24.5t-11.5 25t-44.5 9h-27v-67z" />
    <glyph glyph-name="macron" unicode="&#xaf;" horiz-adv-x="340" vert-adv-y="0" 
d="M20 615v90h300v-90h-300z" />
    <glyph glyph-name="degree" unicode="&#xb0;" horiz-adv-x="390" vert-adv-y="0" 
d="M195 382q-45 0 -82.5 22.5t-60 60t-22.5 82.5t22.5 82.5t60 60t82.5 22.5q46 0 83 -22.5t59.5 -60t22.5 -82.5t-22.5 -82.5t-59.5 -60t-83 -22.5zM195 486q26 0 43.5 17.5t17.5 43.5t-17.5 43.5t-43.5 17.5t-43.5 -17.5t-17.5 -43.5t17.5 -43.5t43.5 -17.5z" />
    <glyph glyph-name="plusminus" unicode="&#xb1;" horiz-adv-x="569" vert-adv-y="0" 
d="M40 68v124h490v-124h-490zM219 270v78h-179v124h179v182h132v-182h179v-124h-179v-78h-132z" />
    <glyph glyph-name="uni00B2" unicode="&#xb2;" horiz-adv-x="379" vert-adv-y="0" 
d="M20 380v82l159 123q30 23 40 37t10 33q0 14 -9.5 23.5t-29.5 9.5q-17 0 -28 -11t-11 -31h-126q0 69 41 107.5t124 38.5t124 -36.5t41 -90.5q0 -26 -8.5 -47t-30 -43t-60.5 -52l-54 -41h158v-102h-340z" />
    <glyph glyph-name="uni00B3" unicode="&#xb3;" horiz-adv-x="389" vert-adv-y="0" 
d="M195 368q-90 0 -132.5 38t-42.5 103h126q0 -18 12 -27.5t37 -9.5t37 8.5t12 28.5q0 19 -12.5 28.5t-37.5 9.5h-40v76h40q20 0 30 9t10 26q0 15 -9.5 22.5t-29.5 7.5q-19 0 -29 -9t-10 -23h-126q0 64 39.5 100t125.5 36q81 0 123 -33t42 -83q0 -39 -17.5 -57.5
t-47.5 -28.5q30 -10 52.5 -33t22.5 -65q0 -52 -42.5 -88t-132.5 -36z" />
    <glyph glyph-name="acute" unicode="&#xb4;" horiz-adv-x="300" vert-adv-y="0" 
d="M20 580l110 160h150l-150 -160h-110z" />
    <glyph glyph-name="uni03BC" unicode="&#xb5;" horiz-adv-x="599" vert-adv-y="0" 
d="M60 -200v730h132v-309q0 -60 23.5 -90.5t79.5 -30.5q40 0 64.5 17t36.5 44t12 60v309h132v-530h-121v79q-20 -37 -61.5 -64t-110.5 -27q-16 0 -29 2t-26 5v-195h-132z" />
    <glyph glyph-name="paragraph" unicode="&#xb6;" horiz-adv-x="635" vert-adv-y="0" 
d="M185 -200v506q-42 11 -76 39t-54 68.5t-20 86.5q0 55 27.5 100t73 72.5t99.5 27.5h320v-900h-120v790h-130v-790h-120z" />
    <glyph glyph-name="periodcentered" unicode="&#xb7;" horiz-adv-x="310" vert-adv-y="0" 
d="M155 190q-23 0 -42.5 11.5t-31 31.5t-11.5 42q0 37 25 61t60 24t60 -24t25 -61q0 -22 -11.5 -42t-30.5 -31.5t-43 -11.5z" />
    <glyph glyph-name="cedilla" unicode="&#xb8;" horiz-adv-x="239" vert-adv-y="0" 
d="M90 -212q-17 0 -30 1t-22 3q-5 1 -9.5 2t-8.5 2v72l14 -2q7 -1 16 -1.5t20 -0.5q27 0 36.5 8.5t9.5 17.5q0 12 -9 20.5t-40 8.5l17 91h76l-7 -46q38 -9 52 -31.5t14 -47.5q0 -44 -30 -70.5t-99 -26.5z" />
    <glyph glyph-name="uni00B9" unicode="&#xb9;" horiz-adv-x="269" vert-adv-y="0" 
d="M119 380v269l-104 -74v127l110 78h120v-400h-126z" />
    <glyph glyph-name="ordmasculine" unicode="&#xba;" horiz-adv-x="380" vert-adv-y="1200" 
d="M190 368q-77 0 -123.5 46t-46.5 121v10q0 49 21 86.5t59.5 59t89.5 21.5q52 0 90 -21t59 -58.5t21 -87.5v-10q0 -75 -46.5 -121t-123.5 -46zM190 472q20 0 32 14.5t12 48.5v10q0 34 -12 48.5t-32 14.5t-32 -14.5t-12 -48.5v-10q0 -34 12 -48.5t32 -14.5z" />
    <glyph glyph-name="guillemotright" unicode="&#xbb;" horiz-adv-x="540" vert-adv-y="0" 
d="M50 515l220 -185v-110l-220 -185v138l125 100l-125 100v142zM290 515l220 -185v-110l-220 -185v138l125 100l-125 100v142z" />
    <glyph glyph-name="onequarter" unicode="&#xbc;" horiz-adv-x="850" vert-adv-y="1200" 
d="M119 380v269l-104 -74v127l110 78h120v-400h-126zM50 0l480 700h138l-480 -700h-138zM653 0v69h-194v82l184 249h136v-229h40v-102h-40v-69h-126zM581 171h72v108z" />
    <glyph glyph-name="onehalf" unicode="&#xbd;" horiz-adv-x="830" vert-adv-y="1200" 
d="M119 380v269l-104 -74v127l110 78h120v-400h-126zM50 0l480 700h138l-480 -700h-138zM469 0v82l159 123q30 23 40 37t10 33q0 14 -9.5 23.5t-29.5 9.5q-17 0 -28 -11t-11 -31h-126q0 69 41 107.5t124 38.5t124 -36.5t41 -90.5q0 -26 -8.5 -47t-30 -43t-60.5 -52l-54 -41
h158v-102h-340z" />
    <glyph glyph-name="threequarters" unicode="&#xbe;" horiz-adv-x="970" vert-adv-y="1200" 
d="M195 368q-90 0 -132.5 38t-42.5 103h126q0 -18 12 -27.5t37 -9.5t37 8.5t12 28.5q0 19 -12.5 28.5t-37.5 9.5h-40v76h40q20 0 30 9t10 26q0 15 -9.5 22.5t-29.5 7.5q-19 0 -29 -9t-10 -23h-126q0 64 39.5 100t125.5 36q81 0 123 -33t42 -83q0 -39 -17.5 -57.5
t-47.5 -28.5q30 -10 52.5 -33t22.5 -65q0 -52 -42.5 -88t-132.5 -36zM170 0l480 700h138l-480 -700h-138zM773 0v69h-194v82l184 249h136v-229h40v-102h-40v-69h-126zM701 171h72v108z" />
    <glyph glyph-name="questiondown" unicode="&#xbf;" horiz-adv-x="530" vert-adv-y="0" 
d="M265 -212q-72 0 -123.5 25.5t-79 69t-27.5 97.5q0 37 9.5 64t31 53.5t57.5 58.5q30 26 44 42.5t18.5 28t4.5 23.5v50h131v-69q0 -26 -8.5 -47.5t-27.5 -42.5t-49 -48q-36 -31 -56.5 -54t-20.5 -54q0 -38 24.5 -61.5t71.5 -23.5q43 0 69.5 23.5t26.5 66.5h134
q0 -54 -30 -100.5t-82 -74t-118 -27.5zM265 372q-23 0 -43 11.5t-31 31t-11 42.5q0 37 25 61t60 24t60 -24t25 -61q0 -23 -11.5 -42.5t-30.5 -31t-43 -11.5z" />
    <glyph glyph-name="Agrave" unicode="&#xc0;" horiz-adv-x="689" vert-adv-y="1200" 
d="M10 0l260 700h149l261 -700h-158l-54 143h-259l-53 -143h-146zM255 267h168l-84 243zM285 750l-150 150h160l110 -150h-120z" />
    <glyph glyph-name="Aacute" unicode="&#xc1;" horiz-adv-x="689" vert-adv-y="1200" 
d="M10 0l260 700h149l261 -700h-158l-54 143h-259l-53 -143h-146zM255 267h168l-84 243zM285 750l110 150h160l-150 -150h-120z" />
    <glyph glyph-name="Acircumflex" unicode="&#xc2;" horiz-adv-x="689" vert-adv-y="1200" 
d="M10 0l260 700h149l261 -700h-158l-54 143h-259l-53 -143h-146zM255 267h168l-84 243zM165 750l110 150h140l110 -150h-120l-61 61l-59 -61h-120z" />
    <glyph glyph-name="Atilde" unicode="&#xc3;" horiz-adv-x="689" vert-adv-y="1200" 
d="M10 0l260 700h149l261 -700h-158l-54 143h-259l-53 -143h-146zM255 267h168l-84 243zM415 750q-35 0 -57.5 11t-41 22.5t-41.5 11.5q-14 0 -23 -6t-16 -14q-3 -4 -6 -9.5t-5 -10.5l-70 40q4 14 10 27.5t14 24.5q14 20 37.5 36.5t57.5 16.5q36 0 58.5 -11.5t41.5 -22.5
t41 -11q13 0 22.5 6t14.5 14q5 5 8 10t5 10l70 -40q-4 -15 -10 -28.5t-14 -24.5q-14 -20 -37.5 -36t-58.5 -16z" />
    <glyph glyph-name="Adieresis" unicode="&#xc4;" horiz-adv-x="689" vert-adv-y="1200" 
d="M10 0l260 700h149l261 -700h-158l-54 143h-259l-53 -143h-146zM255 267h168l-84 243zM226 746q-35 0 -57.5 22t-22.5 57t22.5 57t57.5 22t57.5 -22t22.5 -57t-22.5 -57t-57.5 -22zM466 746q-35 0 -58 22t-23 57t23 57t58 22t57.5 -22t22.5 -57t-22.5 -57t-57.5 -22z" />
    <glyph glyph-name="Aring" unicode="&#xc5;" horiz-adv-x="689" vert-adv-y="1200" 
d="M10 0l260 700h149l261 -700h-158l-54 143h-259l-53 -143h-146zM255 267h168l-84 243zM345 730q-37 0 -66.5 14.5t-46.5 40.5t-17 60t17 60t46.5 40.5t66.5 14.5t66 -14.5t46 -40.5t17 -60t-16.5 -60t-46.5 -40.5t-66 -14.5zM345 810q17 0 28.5 9.5t11.5 25.5
q0 17 -11.5 26t-28.5 9t-29 -9.5t-12 -25.5q0 -17 12 -26t29 -9z" />
    <glyph glyph-name="AE" unicode="&#xc6;" horiz-adv-x="1000" vert-adv-y="0" 
d="M10 0l410 700h530v-124h-339v-156h309v-120h-309v-176h339v-124h-491v143h-209l-84 -143h-156zM322 267h137v248z" />
    <glyph glyph-name="Ccedilla" unicode="&#xc7;" horiz-adv-x="699" vert-adv-y="1200" 
d="M365 -12q-91 0 -162.5 36.5t-112 115t-40.5 205.5v20q0 92 24 157.5t67.5 107.5t100.5 62t123 20q59 0 110.5 -14.5t91.5 -43.5t64.5 -75t28.5 -108h-156q-11 59 -48 87t-91 28q-42 0 -78 -20.5t-58.5 -68.5t-22.5 -132v-20q0 -66 14 -110.5t37 -71t51 -38t57 -11.5
q57 0 94 29.5t45 85.5h156q-5 -65 -29 -111.5t-63 -75t-91 -41.5t-112 -13zM335 -212q-17 0 -30 1t-22 3q-5 1 -9.5 2t-8.5 2v74l14 -2q7 -1 16 -1.5t20 -0.5q27 0 35.5 7.5t8.5 17.5q0 11 -8.5 18.5t-40.5 7.5l17 93h80l-7 -46q37 -9 50.5 -31.5t13.5 -47.5
q0 -44 -30 -70.5t-99 -26.5z" />
    <glyph glyph-name="Egrave" unicode="&#xc8;" horiz-adv-x="620" vert-adv-y="1200" 
d="M81 0v700h488v-124h-338v-156h308v-120h-308v-176h338v-124h-488zM266 750l-150 150h160l110 -150h-120z" />
    <glyph glyph-name="Eacute" unicode="&#xc9;" horiz-adv-x="620" vert-adv-y="1200" 
d="M81 0v700h488v-124h-338v-156h308v-120h-308v-176h338v-124h-488zM266 750l110 150h160l-150 -150h-120z" />
    <glyph glyph-name="Ecircumflex" unicode="&#xca;" horiz-adv-x="620" vert-adv-y="1200" 
d="M81 0v700h488v-124h-338v-156h308v-120h-308v-176h338v-124h-488zM146 750l110 150h140l110 -150h-120l-61 61l-59 -61h-120z" />
    <glyph glyph-name="Edieresis" unicode="&#xcb;" horiz-adv-x="620" vert-adv-y="1200" 
d="M81 0v700h488v-124h-338v-156h308v-120h-308v-176h338v-124h-488zM205 746q-35 0 -57.5 22t-22.5 57t22.5 57t57.5 22t57.5 -22t22.5 -57t-22.5 -57t-57.5 -22zM445 746q-35 0 -58 22t-23 57t23 57t58 22t57.5 -22t22.5 -57t-22.5 -57t-57.5 -22z" />
    <glyph glyph-name="Igrave" unicode="&#xcc;" horiz-adv-x="330" vert-adv-y="1200" 
d="M91 0v700h149v-700h-149zM105 750l-150 150h160l110 -150h-120z" />
    <glyph glyph-name="Iacute" unicode="&#xcd;" horiz-adv-x="330" vert-adv-y="1200" 
d="M91 0v700h149v-700h-149zM105 750l110 150h160l-150 -150h-120z" />
    <glyph glyph-name="Icircumflex" unicode="&#xce;" horiz-adv-x="330" vert-adv-y="1200" 
d="M91 0v700h149v-700h-149zM-15 750l110 150h140l110 -150h-120l-61 61l-59 -61h-120z" />
    <glyph glyph-name="Idieresis" unicode="&#xcf;" horiz-adv-x="330" vert-adv-y="1200" 
d="M91 0v700h149v-700h-149zM45 746q-35 0 -57.5 22t-22.5 57t22.5 57t57.5 22t57.5 -22t22.5 -57t-22.5 -57t-57.5 -22zM285 746q-35 0 -58 22t-23 57t23 57t58 22t57.5 -22t22.5 -57t-22.5 -57t-57.5 -22z" />
    <glyph glyph-name="Eth" unicode="&#xd0;" horiz-adv-x="734" vert-adv-y="0" 
d="M105 0v303h-80v104h80v293h245q105 0 180 -38t115 -113t40 -184v-20q0 -112 -41 -189t-118.5 -116.5t-185.5 -39.5h-235zM255 124h75q54 0 99.5 21t72.5 69.5t27 130.5v20q0 78 -25.5 124.5t-68.5 66.5t-95 20h-85v-169h140v-104h-140v-179z" />
    <glyph glyph-name="Ntilde" unicode="&#xd1;" horiz-adv-x="760" vert-adv-y="1200" 
d="M81 0v700h141l309 -450v450h148v-700h-141l-309 450v-450h-148zM451 750q-35 0 -57.5 11t-41 22.5t-41.5 11.5q-14 0 -23 -6t-16 -14q-3 -4 -6 -9.5t-5 -10.5l-70 40q4 14 10 27.5t14 24.5q14 20 37.5 36.5t57.5 16.5q36 0 58.5 -11.5t41.5 -22.5t41 -11q13 0 22.5 6
t14.5 14q5 5 8 10t5 10l70 -40q-4 -15 -10 -28.5t-14 -24.5q-14 -20 -37.5 -36t-58.5 -16z" />
    <glyph glyph-name="Ograve" unicode="&#xd2;" horiz-adv-x="759" vert-adv-y="1200" 
d="M380 -12q-66 0 -125 20t-105.5 62.5t-73 110.5t-26.5 164v20q0 92 26.5 157.5t73 107.5t105.5 62t125 20t125 -20t105.5 -62t73 -107.5t26.5 -157.5v-20q0 -96 -26.5 -164t-73 -110.5t-105.5 -62.5t-125 -20zM380 114q46 0 85.5 21.5t64 72t24.5 137.5v20
q0 82 -24.5 130.5t-64 69.5t-85.5 21q-45 0 -85 -21t-64.5 -69.5t-24.5 -130.5v-20q0 -87 24.5 -137.5t64.5 -72t85 -21.5zM320 750l-150 150h160l110 -150h-120z" />
    <glyph glyph-name="Oacute" unicode="&#xd3;" horiz-adv-x="759" vert-adv-y="1200" 
d="M380 -12q-66 0 -125 20t-105.5 62.5t-73 110.5t-26.5 164v20q0 92 26.5 157.5t73 107.5t105.5 62t125 20t125 -20t105.5 -62t73 -107.5t26.5 -157.5v-20q0 -96 -26.5 -164t-73 -110.5t-105.5 -62.5t-125 -20zM380 114q46 0 85.5 21.5t64 72t24.5 137.5v20
q0 82 -24.5 130.5t-64 69.5t-85.5 21q-45 0 -85 -21t-64.5 -69.5t-24.5 -130.5v-20q0 -87 24.5 -137.5t64.5 -72t85 -21.5zM320 750l110 150h160l-150 -150h-120z" />
    <glyph glyph-name="Ocircumflex" unicode="&#xd4;" horiz-adv-x="759" vert-adv-y="1200" 
d="M380 -12q-66 0 -125 20t-105.5 62.5t-73 110.5t-26.5 164v20q0 92 26.5 157.5t73 107.5t105.5 62t125 20t125 -20t105.5 -62t73 -107.5t26.5 -157.5v-20q0 -96 -26.5 -164t-73 -110.5t-105.5 -62.5t-125 -20zM380 114q46 0 85.5 21.5t64 72t24.5 137.5v20
q0 82 -24.5 130.5t-64 69.5t-85.5 21q-45 0 -85 -21t-64.5 -69.5t-24.5 -130.5v-20q0 -87 24.5 -137.5t64.5 -72t85 -21.5zM200 750l110 150h140l110 -150h-120l-61 61l-59 -61h-120z" />
    <glyph glyph-name="Otilde" unicode="&#xd5;" horiz-adv-x="759" vert-adv-y="1200" 
d="M380 -12q-66 0 -125 20t-105.5 62.5t-73 110.5t-26.5 164v20q0 92 26.5 157.5t73 107.5t105.5 62t125 20t125 -20t105.5 -62t73 -107.5t26.5 -157.5v-20q0 -96 -26.5 -164t-73 -110.5t-105.5 -62.5t-125 -20zM380 114q46 0 85.5 21.5t64 72t24.5 137.5v20
q0 82 -24.5 130.5t-64 69.5t-85.5 21q-45 0 -85 -21t-64.5 -69.5t-24.5 -130.5v-20q0 -87 24.5 -137.5t64.5 -72t85 -21.5zM450 750q-35 0 -57.5 11t-41 22.5t-41.5 11.5q-14 0 -23 -6t-16 -14q-3 -4 -6 -9.5t-5 -10.5l-70 40q4 14 10 27.5t14 24.5q14 20 37.5 36.5
t57.5 16.5q36 0 58.5 -11.5t41.5 -22.5t41 -11q13 0 22.5 6t14.5 14q5 5 8 10t5 10l70 -40q-4 -15 -10 -28.5t-14 -24.5q-14 -20 -37.5 -36t-58.5 -16z" />
    <glyph glyph-name="Odieresis" unicode="&#xd6;" horiz-adv-x="759" vert-adv-y="1200" 
d="M380 -12q-66 0 -125 20t-105.5 62.5t-73 110.5t-26.5 164v20q0 92 26.5 157.5t73 107.5t105.5 62t125 20t125 -20t105.5 -62t73 -107.5t26.5 -157.5v-20q0 -96 -26.5 -164t-73 -110.5t-105.5 -62.5t-125 -20zM380 114q46 0 85.5 21.5t64 72t24.5 137.5v20
q0 82 -24.5 130.5t-64 69.5t-85.5 21q-45 0 -85 -21t-64.5 -69.5t-24.5 -130.5v-20q0 -87 24.5 -137.5t64.5 -72t85 -21.5zM261 746q-35 0 -57.5 22t-22.5 57t22.5 57t57.5 22t57.5 -22t22.5 -57t-22.5 -57t-57.5 -22zM501 746q-35 0 -58 22t-23 57t23 57t58 22t57.5 -22
t22.5 -57t-22.5 -57t-57.5 -22z" />
    <glyph glyph-name="multiply" unicode="&#xd7;" horiz-adv-x="569" vert-adv-y="0" 
d="M144 135l-84 84l142 141l-142 141l84 84l141 -141l141 141l84 -84l-141 -141l141 -141l-84 -84l-141 141z" />
    <glyph glyph-name="Oslash" unicode="&#xd8;" horiz-adv-x="759" vert-adv-y="0" 
d="M380 -12q-54 0 -104.5 13t-92.5 42l-44 -55l-64 54l47 58q-34 43 -53 103.5t-19 141.5v20q0 92 26.5 157.5t73 107.5t105.5 62t125 20q54 0 104 -13t92 -42l45 55l63 -53l-46 -58q33 -42 52.5 -100t19.5 -136v-20q0 -96 -26.5 -163.5t-73 -110.5t-105.5 -63t-125 -20z
M380 114q46 0 85.5 21.5t64 72t24.5 137.5v20q0 34 -5 61.5t-13 50.5l-264 -326q23 -20 50.5 -28.5t57.5 -8.5zM380 586q-45 0 -85 -21t-64.5 -69.5t-24.5 -130.5v-20q0 -37 4 -67t13 -53l265 324q-23 20 -51 28.5t-57 8.5z" />
    <glyph glyph-name="Ugrave" unicode="&#xd9;" horiz-adv-x="730" vert-adv-y="1200" 
d="M365 -12q-90 0 -156 32t-102 97t-36 163v420h149v-406q0 -90 35 -135t110 -45t110 45t35 134v407h149v-420q0 -98 -35.5 -163t-101.5 -97t-157 -32zM306 750l-150 150h160l110 -150h-120z" />
    <glyph glyph-name="Uacute" unicode="&#xda;" horiz-adv-x="730" vert-adv-y="1200" 
d="M365 -12q-90 0 -156 32t-102 97t-36 163v420h149v-406q0 -90 35 -135t110 -45t110 45t35 134v407h149v-420q0 -98 -35.5 -163t-101.5 -97t-157 -32zM306 750l110 150h160l-150 -150h-120z" />
    <glyph glyph-name="Ucircumflex" unicode="&#xdb;" horiz-adv-x="730" vert-adv-y="1200" 
d="M365 -12q-90 0 -156 32t-102 97t-36 163v420h149v-406q0 -90 35 -135t110 -45t110 45t35 134v407h149v-420q0 -98 -35.5 -163t-101.5 -97t-157 -32zM186 750l110 150h140l110 -150h-120l-61 61l-59 -61h-120z" />
    <glyph glyph-name="Udieresis" unicode="&#xdc;" horiz-adv-x="730" vert-adv-y="1200" 
d="M365 -12q-90 0 -156 32t-102 97t-36 163v420h149v-406q0 -90 35 -135t110 -45t110 45t35 134v407h149v-420q0 -98 -35.5 -163t-101.5 -97t-157 -32zM245 746q-35 0 -57.5 22t-22.5 57t22.5 57t57.5 22t57.5 -22t22.5 -57t-22.5 -57t-57.5 -22zM485 746q-35 0 -58 22
t-23 57t23 57t58 22t57.5 -22t22.5 -57t-22.5 -57t-57.5 -22z" />
    <glyph glyph-name="Yacute" unicode="&#xdd;" horiz-adv-x="680" vert-adv-y="1200" 
d="M275 0v267l-265 433h175l168 -281l157 281h160l-245 -433v-267h-150zM280 750l110 150h160l-150 -150h-120z" />
    <glyph glyph-name="Thorn" unicode="&#xde;" horiz-adv-x="665" vert-adv-y="0" 
d="M81 0v700h149v-110h120q95 0 157 -28.5t92 -80t30 -121.5t-30 -121.5t-92 -80t-157 -28.5h-120v-130h-149zM230 254h105q80 0 112.5 27t32.5 79q0 51 -32.5 78.5t-112.5 27.5h-105v-212z" />
    <glyph glyph-name="germandbls" unicode="&#xdf;" horiz-adv-x="590" vert-adv-y="0" 
d="M61 0v475q0 115 59 176t170 61q73 0 121.5 -23t73 -63t24.5 -91t-26 -91t-74 -57q51 -8 82 -33.5t44.5 -61t13.5 -77.5v-10q0 -70 -24.5 -117t-78.5 -70.5t-141 -23.5q-11 0 -25 0.5t-25 2.5v111q11 -2 25 -2.5t25 -0.5q56 0 84.5 27.5t28.5 80.5v10q0 51 -30 79t-93 28
h-20v100h15q38 0 63 21t25 64q0 44 -22 64.5t-66 20.5q-48 0 -73 -31t-25 -94v-475h-131z" />
    <glyph glyph-name="agrave" unicode="&#xe0;" horiz-adv-x="575" vert-adv-y="1200" 
d="M219 -12q-57 0 -97 21.5t-61 59.5t-21 86q0 80 47.5 120t142.5 40h158v25q0 52 -23.5 73t-74.5 21q-45 0 -65 -15.5t-23 -38.5h-132q3 46 29.5 82.5t76 58t119.5 21.5q68 0 118.5 -20t78.5 -64.5t28 -119.5v-203q0 -42 1.5 -73.5t5.5 -61.5h-123q-4 22 -4.5 33.5
t-0.5 34.5q-21 -32 -66 -56t-114 -24zM260 90q32 0 61.5 11.5t48 36t18.5 62.5v25h-133q-38 0 -59.5 -17.5t-21.5 -47.5q0 -32 22 -51t64 -19zM240 580l-150 160h150l110 -160h-110z" />
    <glyph glyph-name="aacute" unicode="&#xe1;" horiz-adv-x="575" vert-adv-y="1200" 
d="M219 -12q-57 0 -97 21.5t-61 59.5t-21 86q0 80 47.5 120t142.5 40h158v25q0 52 -23.5 73t-74.5 21q-45 0 -65 -15.5t-23 -38.5h-132q3 46 29.5 82.5t76 58t119.5 21.5q68 0 118.5 -20t78.5 -64.5t28 -119.5v-203q0 -42 1.5 -73.5t5.5 -61.5h-123q-4 22 -4.5 33.5
t-0.5 34.5q-21 -32 -66 -56t-114 -24zM260 90q32 0 61.5 11.5t48 36t18.5 62.5v25h-133q-38 0 -59.5 -17.5t-21.5 -47.5q0 -32 22 -51t64 -19zM240 580l110 160h150l-150 -160h-110z" />
    <glyph glyph-name="acircumflex" unicode="&#xe2;" horiz-adv-x="575" vert-adv-y="1200" 
d="M219 -12q-57 0 -97 21.5t-61 59.5t-21 86q0 80 47.5 120t142.5 40h158v25q0 52 -23.5 73t-74.5 21q-45 0 -65 -15.5t-23 -38.5h-132q3 46 29.5 82.5t76 58t119.5 21.5q68 0 118.5 -20t78.5 -64.5t28 -119.5v-203q0 -42 1.5 -73.5t5.5 -61.5h-123q-4 22 -4.5 33.5
t-0.5 34.5q-21 -32 -66 -56t-114 -24zM260 90q32 0 61.5 11.5t48 36t18.5 62.5v25h-133q-38 0 -59.5 -17.5t-21.5 -47.5q0 -32 22 -51t64 -19zM120 580l110 160h130l110 -160h-110l-66 70l-64 -70h-110z" />
    <glyph glyph-name="atilde" unicode="&#xe3;" horiz-adv-x="575" vert-adv-y="1200" 
d="M219 -12q-57 0 -97 21.5t-61 59.5t-21 86q0 80 47.5 120t142.5 40h158v25q0 52 -23.5 73t-74.5 21q-45 0 -65 -15.5t-23 -38.5h-132q3 46 29.5 82.5t76 58t119.5 21.5q68 0 118.5 -20t78.5 -64.5t28 -119.5v-203q0 -42 1.5 -73.5t5.5 -61.5h-123q-4 22 -4.5 33.5
t-0.5 34.5q-21 -32 -66 -56t-114 -24zM260 90q32 0 61.5 11.5t48 36t18.5 62.5v25h-133q-38 0 -59.5 -17.5t-21.5 -47.5q0 -32 22 -51t64 -19zM405 725l60 -35q-4 -14 -9.5 -26.5t-13.5 -23.5q-13 -19 -34 -34.5t-54 -15.5q-30 0 -50.5 11t-36 22.5t-33.5 11.5q-13 0 -22 -6
t-15 -14q-4 -4 -7 -9.5t-5 -10.5l-60 35q4 14 9.5 26.5t13.5 23.5q13 19 34 34.5t52 15.5q30 0 50 -11.5t36.5 -22.5t33.5 -11q13 0 23 6t16 14q4 5 7 10t5 10z" />
    <glyph glyph-name="adieresis" unicode="&#xe4;" horiz-adv-x="575" vert-adv-y="1200" 
d="M219 -12q-57 0 -97 21.5t-61 59.5t-21 86q0 80 47.5 120t142.5 40h158v25q0 52 -23.5 73t-74.5 21q-45 0 -65 -15.5t-23 -38.5h-132q3 46 29.5 82.5t76 58t119.5 21.5q68 0 118.5 -20t78.5 -64.5t28 -119.5v-203q0 -42 1.5 -73.5t5.5 -61.5h-123q-4 22 -4.5 33.5
t-0.5 34.5q-21 -32 -66 -56t-114 -24zM260 90q32 0 61.5 11.5t48 36t18.5 62.5v25h-133q-38 0 -59.5 -17.5t-21.5 -47.5q0 -32 22 -51t64 -19zM189 586q-32 0 -53 21t-21 53t21 53t53 21t53 -21t21 -53t-21 -53t-53 -21zM401 586q-32 0 -53 21t-21 53t21 53t53 21t53 -21
t21 -53t-21 -53t-53 -21z" />
    <glyph glyph-name="aring" unicode="&#xe5;" horiz-adv-x="575" vert-adv-y="1200" 
d="M219 -12q-57 0 -97 21.5t-61 59.5t-21 86q0 80 47.5 120t142.5 40h158v25q0 52 -23.5 73t-74.5 21q-45 0 -65 -15.5t-23 -38.5h-132q3 46 29.5 82.5t76 58t119.5 21.5q68 0 118.5 -20t78.5 -64.5t28 -119.5v-203q0 -42 1.5 -73.5t5.5 -61.5h-123q-4 22 -4.5 33.5
t-0.5 34.5q-21 -32 -66 -56t-114 -24zM260 90q32 0 61.5 11.5t48 36t18.5 62.5v25h-133q-38 0 -59.5 -17.5t-21.5 -47.5q0 -32 22 -51t64 -19zM295 565q-53 0 -89 33t-36 82q0 48 36 81.5t89 33.5t88.5 -33t35.5 -82q0 -48 -35.5 -81.5t-88.5 -33.5zM295 643q16 0 26.5 10
t10.5 27t-10.5 27t-26.5 10q-17 0 -27.5 -10t-10.5 -27t10.5 -27t27.5 -10z" />
    <glyph glyph-name="ae" unicode="&#xe6;" horiz-adv-x="935" vert-adv-y="0" 
d="M219 -12q-56 0 -96.5 21.5t-61.5 59.5t-21 86q0 80 47.5 119.5t142.5 39.5h158v27q0 51 -23.5 72t-74.5 21q-45 0 -65 -15.5t-23 -38.5h-132q3 46 29.5 82.5t76 58t119.5 21.5q60 0 102 -18.5t71 -53.5q27 32 70.5 52t106.5 20q125 0 190 -66t65 -191v-62h-375
q2 -44 20.5 -72t47.5 -41.5t62 -13.5q51 0 77 15t37 44h121q-16 -83 -79 -125t-156 -42q-69 0 -122.5 24.5t-82.5 75.5q-29 -49 -87.5 -74.5t-143.5 -25.5zM260 90q32 0 61.5 11.5t48 36t18.5 62.5v24h-133q-38 0 -59.5 -17t-21.5 -47q0 -32 21.5 -51t64.5 -19zM650 434
q-31 0 -59 -11t-46 -36.5t-20 -69.5h247q-1 47 -17.5 72t-43.5 35t-61 10z" />
    <glyph glyph-name="ccedilla" unicode="&#xe7;" horiz-adv-x="564" vert-adv-y="1200" 
d="M295 -12q-73 0 -132 30.5t-93.5 91t-34.5 150.5v20q0 86 36 144t95 88t129 30q75 0 127 -25t80.5 -69t32.5 -97h-134q-8 36 -32.5 57.5t-73.5 21.5q-34 0 -62.5 -16t-46 -49t-17.5 -85v-20q0 -56 16.5 -91.5t45 -52t64.5 -16.5q39 0 67.5 20.5t38.5 58.5h134
q-6 -57 -38 -101t-84.5 -67t-117.5 -23zM270 -212q-17 0 -30 1t-22 3q-5 1 -9.5 2t-8.5 2v72l14 -2q7 -1 16 -1.5t20 -0.5q27 0 36.5 8.5t9.5 17.5q0 12 -9 20.5t-40 8.5l17 91h76l-7 -46q38 -9 52 -31.5t14 -47.5q0 -44 -30 -70.5t-99 -26.5z" />
    <glyph glyph-name="egrave" unicode="&#xe8;" horiz-adv-x="580" vert-adv-y="1200" 
d="M300 -12q-72 0 -132.5 29.5t-96.5 90t-36 152.5v20q0 88 34.5 146t92.5 87t128 29q125 0 190 -66t65 -191v-56h-375q2 -47 20.5 -76.5t47.5 -43t62 -13.5q51 0 77 15t37 44h121q-16 -83 -79 -125t-156 -42zM295 434q-31 0 -60 -10t-46 -35.5t-19 -67.5h247
q-1 45 -17.5 69.5t-43.5 34t-61 9.5zM236 580l-150 160h150l110 -160h-110z" />
    <glyph glyph-name="eacute" unicode="&#xe9;" horiz-adv-x="580" vert-adv-y="1200" 
d="M300 -12q-72 0 -132.5 29.5t-96.5 90t-36 152.5v20q0 88 34.5 146t92.5 87t128 29q125 0 190 -66t65 -191v-56h-375q2 -47 20.5 -76.5t47.5 -43t62 -13.5q51 0 77 15t37 44h121q-16 -83 -79 -125t-156 -42zM295 434q-31 0 -60 -10t-46 -35.5t-19 -67.5h247
q-1 45 -17.5 69.5t-43.5 34t-61 9.5zM236 580l110 160h150l-150 -160h-110z" />
    <glyph glyph-name="ecircumflex" unicode="&#xea;" horiz-adv-x="580" vert-adv-y="1200" 
d="M300 -12q-72 0 -132.5 29.5t-96.5 90t-36 152.5v20q0 88 34.5 146t92.5 87t128 29q125 0 190 -66t65 -191v-56h-375q2 -47 20.5 -76.5t47.5 -43t62 -13.5q51 0 77 15t37 44h121q-16 -83 -79 -125t-156 -42zM295 434q-31 0 -60 -10t-46 -35.5t-19 -67.5h247
q-1 45 -17.5 69.5t-43.5 34t-61 9.5zM116 580l110 160h130l110 -160h-110l-66 70l-64 -70h-110z" />
    <glyph glyph-name="edieresis" unicode="&#xeb;" horiz-adv-x="580" vert-adv-y="1200" 
d="M300 -12q-72 0 -132.5 29.5t-96.5 90t-36 152.5v20q0 88 34.5 146t92.5 87t128 29q125 0 190 -66t65 -191v-56h-375q2 -47 20.5 -76.5t47.5 -43t62 -13.5q51 0 77 15t37 44h121q-16 -83 -79 -125t-156 -42zM295 434q-31 0 -60 -10t-46 -35.5t-19 -67.5h247
q-1 45 -17.5 69.5t-43.5 34t-61 9.5zM185 586q-32 0 -53 21t-21 53t21 53t53 21t53 -21t21 -53t-21 -53t-53 -21zM397 586q-32 0 -53 21t-21 53t21 53t53 21t53 -21t21 -53t-21 -53t-53 -21z" />
    <glyph glyph-name="igrave" unicode="&#xec;" horiz-adv-x="271" vert-adv-y="1200" 
d="M71 0v530h131v-530h-131zM81 580l-150 160h150l110 -160h-110z" />
    <glyph glyph-name="iacute" unicode="&#xed;" horiz-adv-x="271" vert-adv-y="1200" 
d="M71 0v530h131v-530h-131zM81 580l110 160h150l-150 -160h-110z" />
    <glyph glyph-name="icircumflex" unicode="&#xee;" horiz-adv-x="271" vert-adv-y="1200" 
d="M71 0v530h131v-530h-131zM-39 580l110 160h130l110 -160h-110l-66 70l-64 -70h-110z" />
    <glyph glyph-name="idieresis" unicode="&#xef;" horiz-adv-x="271" vert-adv-y="1200" 
d="M71 0v530h131v-530h-131zM30 586q-32 0 -53 21t-21 53t21 53t53 21t53 -21t21 -53t-21 -53t-53 -21zM242 586q-32 0 -53 21t-21 53t21 53t53 21t53 -21t21 -53t-21 -53t-53 -21z" />
    <glyph glyph-name="eth" unicode="&#xf0;" horiz-adv-x="605" vert-adv-y="0" 
d="M300 -12q-67 0 -128 29.5t-99 88t-38 144.5v20q0 61 21.5 108t57.5 79t79.5 48.5t86.5 16.5q35 0 66 -7.5t58 -22.5q-23 39 -54 67t-74 48l-26 -49l-62 29l24 46q-18 6 -37.5 12t-40.5 12l34 96q25 -7 48.5 -14t44.5 -15l25 46l62 -30l-23 -42q90 -44 142.5 -104
t75 -136.5t22.5 -167.5v-20q0 -96 -38 -158.5t-98.5 -93t-128.5 -30.5zM300 98q36 0 65.5 17t47.5 51t18 84v20q0 46 -18 77.5t-47.5 48t-65.5 16.5q-35 0 -65 -16.5t-48 -48t-18 -77.5v-20q0 -50 18 -84t48 -51t65 -17z" />
    <glyph glyph-name="ntilde" unicode="&#xf1;" horiz-adv-x="605" vert-adv-y="1200" 
d="M61 0v530h120v-78q20 36 62 63t115 27q97 0 144.5 -52t47.5 -150v-340h-132v310q0 59 -24.5 89.5t-83.5 30.5q-42 0 -68 -17t-38 -44t-12 -59v-310h-131zM413 725l60 -35q-4 -14 -9.5 -26.5t-13.5 -23.5q-13 -19 -34 -34.5t-54 -15.5q-30 0 -50.5 11t-36 22.5t-33.5 11.5
q-13 0 -22 -6t-15 -14q-4 -4 -7 -9.5t-5 -10.5l-60 35q4 14 9.5 26.5t13.5 23.5q13 19 34 34.5t52 15.5q30 0 50 -11.5t36.5 -22.5t33.5 -11q13 0 23 6t16 14q4 5 7 10t5 10z" />
    <glyph glyph-name="ograve" unicode="&#xf2;" horiz-adv-x="600" vert-adv-y="1200" 
d="M300 -12q-72 0 -132.5 29.5t-96.5 90t-36 152.5v20q0 87 36 145t96.5 87.5t132.5 29.5t132.5 -29.5t96.5 -87.5t36 -145v-20q0 -90 -36 -150.5t-96.5 -91t-132.5 -30.5zM300 100q38 0 67.5 17.5t46.5 53.5t17 89v20q0 49 -17 82t-46.5 50.5t-67.5 17.5t-67.5 -17.5
t-46.5 -50.5t-17 -82v-20q0 -54 17 -89.5t46.5 -53t67.5 -17.5zM246 580l-150 160h150l110 -160h-110z" />
    <glyph glyph-name="oacute" unicode="&#xf3;" horiz-adv-x="600" vert-adv-y="1200" 
d="M300 -12q-72 0 -132.5 29.5t-96.5 90t-36 152.5v20q0 87 36 145t96.5 87.5t132.5 29.5t132.5 -29.5t96.5 -87.5t36 -145v-20q0 -90 -36 -150.5t-96.5 -91t-132.5 -30.5zM300 100q38 0 67.5 17.5t46.5 53.5t17 89v20q0 49 -17 82t-46.5 50.5t-67.5 17.5t-67.5 -17.5
t-46.5 -50.5t-17 -82v-20q0 -54 17 -89.5t46.5 -53t67.5 -17.5zM246 580l110 160h150l-150 -160h-110z" />
    <glyph glyph-name="ocircumflex" unicode="&#xf4;" horiz-adv-x="600" vert-adv-y="1200" 
d="M300 -12q-72 0 -132.5 29.5t-96.5 90t-36 152.5v20q0 87 36 145t96.5 87.5t132.5 29.5t132.5 -29.5t96.5 -87.5t36 -145v-20q0 -90 -36 -150.5t-96.5 -91t-132.5 -30.5zM300 100q38 0 67.5 17.5t46.5 53.5t17 89v20q0 49 -17 82t-46.5 50.5t-67.5 17.5t-67.5 -17.5
t-46.5 -50.5t-17 -82v-20q0 -54 17 -89.5t46.5 -53t67.5 -17.5zM126 580l110 160h130l110 -160h-110l-66 70l-64 -70h-110z" />
    <glyph glyph-name="otilde" unicode="&#xf5;" horiz-adv-x="600" vert-adv-y="1200" 
d="M300 -12q-72 0 -132.5 29.5t-96.5 90t-36 152.5v20q0 87 36 145t96.5 87.5t132.5 29.5t132.5 -29.5t96.5 -87.5t36 -145v-20q0 -90 -36 -150.5t-96.5 -91t-132.5 -30.5zM300 100q38 0 67.5 17.5t46.5 53.5t17 89v20q0 49 -17 82t-46.5 50.5t-67.5 17.5t-67.5 -17.5
t-46.5 -50.5t-17 -82v-20q0 -54 17 -89.5t46.5 -53t67.5 -17.5zM411 725l60 -35q-4 -14 -9.5 -26.5t-13.5 -23.5q-13 -19 -34 -34.5t-54 -15.5q-30 0 -50.5 11t-36 22.5t-33.5 11.5q-13 0 -22 -6t-15 -14q-4 -4 -7 -9.5t-5 -10.5l-60 35q4 14 9.5 26.5t13.5 23.5
q13 19 34 34.5t52 15.5q30 0 50 -11.5t36.5 -22.5t33.5 -11q13 0 23 6t16 14q4 5 7 10t5 10z" />
    <glyph glyph-name="odieresis" unicode="&#xf6;" horiz-adv-x="600" vert-adv-y="1200" 
d="M300 -12q-72 0 -132.5 29.5t-96.5 90t-36 152.5v20q0 87 36 145t96.5 87.5t132.5 29.5t132.5 -29.5t96.5 -87.5t36 -145v-20q0 -90 -36 -150.5t-96.5 -91t-132.5 -30.5zM300 100q38 0 67.5 17.5t46.5 53.5t17 89v20q0 49 -17 82t-46.5 50.5t-67.5 17.5t-67.5 -17.5
t-46.5 -50.5t-17 -82v-20q0 -54 17 -89.5t46.5 -53t67.5 -17.5zM195 586q-32 0 -53 21t-21 53t21 53t53 21t53 -21t21 -53t-21 -53t-53 -21zM407 586q-32 0 -53 21t-21 53t21 53t53 21t53 -21t21 -53t-21 -53t-53 -21z" />
    <glyph glyph-name="divide" unicode="&#xf7;" horiz-adv-x="569" vert-adv-y="0" 
d="M40 298v124h490v-124h-490zM285 68q-24 0 -43 11.5t-30.5 31t-11.5 42.5q0 37 25 61t60 24q34 0 59.5 -24t25.5 -61q0 -23 -11.5 -42.5t-30.5 -31t-43 -11.5zM285 482q-24 0 -43 11.5t-30.5 31t-11.5 42.5q0 37 25 61t60 24q34 0 59.5 -24t25.5 -61q0 -23 -11.5 -42.5
t-30.5 -31t-43 -11.5z" />
    <glyph glyph-name="oslash" unicode="&#xf8;" horiz-adv-x="600" vert-adv-y="0" 
d="M300 -12q-89 0 -155 42l-35 -42l-50 42l36 44q-29 33 -45 79t-16 107v20q0 87 36 145t96.5 87.5t132.5 29.5q88 0 154 -42l36 42l50 -42l-36 -43q29 -33 45 -76.5t16 -100.5v-20q0 -90 -36 -150.5t-96.5 -91t-132.5 -30.5zM300 100q38 0 67.5 17.5t46.5 53.5t17 89v20
q0 20 -3 39t-11 35l-193 -232q16 -10 35 -16t41 -6zM300 430q-38 0 -67.5 -17.5t-46.5 -50.5t-17 -82v-20q0 -25 3.5 -46t10.5 -37l193 229q-16 12 -35 18t-41 6z" />
    <glyph glyph-name="ugrave" unicode="&#xf9;" horiz-adv-x="595" vert-adv-y="1200" 
d="M242 -12q-92 0 -139 52.5t-47 162.5v327h131v-309q0 -60 23.5 -90.5t79.5 -30.5q40 0 64.5 17t36.5 44t12 60v309h132v-530h-122v79q-19 -37 -60.5 -64t-110.5 -27zM243 580l-150 160h150l110 -160h-110z" />
    <glyph glyph-name="uacute" unicode="&#xfa;" horiz-adv-x="595" vert-adv-y="1200" 
d="M242 -12q-92 0 -139 52.5t-47 162.5v327h131v-309q0 -60 23.5 -90.5t79.5 -30.5q40 0 64.5 17t36.5 44t12 60v309h132v-530h-122v79q-19 -37 -60.5 -64t-110.5 -27zM243 580l110 160h150l-150 -160h-110z" />
    <glyph glyph-name="ucircumflex" unicode="&#xfb;" horiz-adv-x="595" vert-adv-y="1200" 
d="M242 -12q-92 0 -139 52.5t-47 162.5v327h131v-309q0 -60 23.5 -90.5t79.5 -30.5q40 0 64.5 17t36.5 44t12 60v309h132v-530h-122v79q-19 -37 -60.5 -64t-110.5 -27zM123 580l110 160h130l110 -160h-110l-66 70l-64 -70h-110z" />
    <glyph glyph-name="udieresis" unicode="&#xfc;" horiz-adv-x="595" vert-adv-y="1200" 
d="M242 -12q-92 0 -139 52.5t-47 162.5v327h131v-309q0 -60 23.5 -90.5t79.5 -30.5q40 0 64.5 17t36.5 44t12 60v309h132v-530h-122v79q-19 -37 -60.5 -64t-110.5 -27zM192 586q-32 0 -53 21t-21 53t21 53t53 21t53 -21t21 -53t-21 -53t-53 -21zM404 586q-32 0 -53 21
t-21 53t21 53t53 21t53 -21t21 -53t-21 -53t-53 -21z" />
    <glyph glyph-name="yacute" unicode="&#xfd;" horiz-adv-x="580" vert-adv-y="1200" 
d="M150 -212q-15 0 -30 3v112q15 -3 30 -3q20 0 33.5 10t25 32t25.5 58l-224 530h148l144 -366l131 366h137l-204 -530q-29 -75 -56 -121.5t-63.5 -68.5t-96.5 -22zM235 580l110 160h150l-150 -160h-110z" />
    <glyph glyph-name="thorn" unicode="&#xfe;" horiz-adv-x="615" vert-adv-y="0" 
d="M61 -200v900h131v-243q25 38 66.5 61.5t96.5 23.5q106 0 165.5 -65.5t59.5 -196.5v-20q0 -91 -27.5 -151.5t-77.5 -90.5t-120 -30q-54 0 -95.5 23.5t-67.5 61.5v-273h-131zM324 100q52 0 87 39.5t35 120.5v20q0 75 -33.5 112.5t-88.5 37.5q-38 0 -68 -14.5t-47 -43.5
t-17 -73v-60q0 -46 16.5 -77t46.5 -46.5t69 -15.5z" />
    <glyph glyph-name="ydieresis" unicode="&#xff;" horiz-adv-x="580" vert-adv-y="1200" 
d="M150 -212q-15 0 -30 3v112q15 -3 30 -3q20 0 33.5 10t25 32t25.5 58l-224 530h148l144 -366l131 366h137l-204 -530q-29 -75 -56 -121.5t-63.5 -68.5t-96.5 -22zM184 586q-32 0 -53 21t-21 53t21 53t53 21t53 -21t21 -53t-21 -53t-53 -21zM396 586q-32 0 -53 21t-21 53
t21 53t53 21t53 -21t21 -53t-21 -53t-53 -21z" />
    <glyph glyph-name="Amacron" unicode="&#x100;" horiz-adv-x="689" vert-adv-y="1200" 
d="M10 0l260 700h149l261 -700h-158l-54 143h-259l-53 -143h-146zM255 267h168l-84 243zM185 788v104h320v-104h-320z" />
    <glyph glyph-name="amacron" unicode="&#x101;" horiz-adv-x="575" vert-adv-y="1200" 
d="M219 -12q-57 0 -97 21.5t-61 59.5t-21 86q0 80 47.5 120t142.5 40h158v25q0 52 -23.5 73t-74.5 21q-45 0 -65 -15.5t-23 -38.5h-132q3 46 29.5 82.5t76 58t119.5 21.5q68 0 118.5 -20t78.5 -64.5t28 -119.5v-203q0 -42 1.5 -73.5t5.5 -61.5h-123q-4 22 -4.5 33.5
t-0.5 34.5q-21 -32 -66 -56t-114 -24zM260 90q32 0 61.5 11.5t48 36t18.5 62.5v25h-133q-38 0 -59.5 -17.5t-21.5 -47.5q0 -32 22 -51t64 -19zM145 615v90h300v-90h-300z" />
    <glyph glyph-name="Abreve" unicode="&#x102;" horiz-adv-x="689" vert-adv-y="1200" 
d="M10 0l260 700h149l261 -700h-158l-54 143h-259l-53 -143h-146zM255 267h168l-84 243zM344 740q-64 0 -106.5 19.5t-62.5 57t-20 93.5h126q0 -48 16 -66t47 -18q33 0 49 18t16 66h126q0 -56 -20 -93.5t-62 -57t-109 -19.5z" />
    <glyph glyph-name="abreve" unicode="&#x103;" horiz-adv-x="575" vert-adv-y="1200" 
d="M219 -12q-57 0 -97 21.5t-61 59.5t-21 86q0 80 47.5 120t142.5 40h158v25q0 52 -23.5 73t-74.5 21q-45 0 -65 -15.5t-23 -38.5h-132q3 46 29.5 82.5t76 58t119.5 21.5q68 0 118.5 -20t78.5 -64.5t28 -119.5v-203q0 -42 1.5 -73.5t5.5 -61.5h-123q-4 22 -4.5 33.5
t-0.5 34.5q-21 -32 -66 -56t-114 -24zM260 90q32 0 61.5 11.5t48 36t18.5 62.5v25h-133q-38 0 -59.5 -17.5t-21.5 -47.5q0 -32 22 -51t64 -19zM295 585q-89 0 -129.5 38t-40.5 112h117q0 -39 13 -54.5t39 -15.5q28 0 42 15.5t14 54.5h115q0 -74 -41 -112t-129 -38z" />
    <glyph glyph-name="Aogonek" unicode="&#x104;" horiz-adv-x="689" vert-adv-y="1200" 
d="M10 0l260 700h149l261 -700h-158l-54 143h-259l-53 -143h-146zM255 267h168l-84 243zM626 -212q-63 0 -94.5 21t-31.5 67q0 24 10.5 44t26.5 35.5t33 27t31 17.5h79q-14 -14 -32 -29t-31 -32t-13 -38q0 -16 10.5 -25.5t38.5 -9.5q10 0 15 0.5t12 1.5v-76q-13 -2 -21.5 -3
t-32.5 -1z" />
    <glyph glyph-name="aogonek" unicode="&#x105;" horiz-adv-x="575" vert-adv-y="1200" 
d="M219 -12q-57 0 -97 21.5t-61 59.5t-21 86q0 80 47.5 120t142.5 40h158v25q0 52 -23.5 73t-74.5 21q-45 0 -65 -15.5t-23 -38.5h-132q3 46 29.5 82.5t76 58t119.5 21.5q68 0 118.5 -20t78.5 -64.5t28 -119.5v-203q0 -42 1.5 -73.5t5.5 -61.5h-123q-4 22 -4.5 33.5
t-0.5 34.5q-21 -32 -66 -56t-114 -24zM260 90q32 0 61.5 11.5t48 36t18.5 62.5v25h-133q-38 0 -59.5 -17.5t-21.5 -47.5q0 -32 22 -51t64 -19zM473 -212q-63 0 -94.5 21t-31.5 67q0 24 10.5 44t26.5 35.5t33 27t31 17.5h79q-14 -14 -32 -29t-31 -32t-13 -38
q0 -16 10.5 -25.5t38.5 -9.5q10 0 15 0.5t12 1.5v-76q-13 -2 -21.5 -3t-32.5 -1z" />
    <glyph glyph-name="Cacute" unicode="&#x106;" horiz-adv-x="699" vert-adv-y="1200" 
d="M365 -12q-91 0 -162.5 36.5t-112 115t-40.5 205.5v20q0 92 24 157.5t67.5 107.5t100.5 62t123 20q59 0 110.5 -14.5t91.5 -43.5t64.5 -75t28.5 -108h-156q-11 59 -48 87t-91 28q-42 0 -78 -20.5t-58.5 -68.5t-22.5 -132v-20q0 -66 14 -110.5t37 -71t51 -38t57 -11.5
q57 0 94 29.5t45 85.5h156q-5 -65 -29 -111.5t-63 -75t-91 -41.5t-112 -13zM290 750l110 150h160l-150 -150h-120z" />
    <glyph glyph-name="cacute" unicode="&#x107;" horiz-adv-x="564" vert-adv-y="1200" 
d="M295 -12q-73 0 -132 30.5t-93.5 91t-34.5 150.5v20q0 86 36 144t95 88t129 30q75 0 127 -25t80.5 -69t32.5 -97h-134q-8 36 -32.5 57.5t-73.5 21.5q-34 0 -62.5 -16t-46 -49t-17.5 -85v-20q0 -56 16.5 -91.5t45 -52t64.5 -16.5q39 0 67.5 20.5t38.5 58.5h134
q-6 -57 -38 -101t-84.5 -67t-117.5 -23zM228 580l110 160h150l-150 -160h-110z" />
    <glyph glyph-name="Cdotaccent" unicode="&#x10a;" horiz-adv-x="699" vert-adv-y="1200" 
d="M365 -12q-91 0 -162.5 36.5t-112 115t-40.5 205.5v20q0 92 24 157.5t67.5 107.5t100.5 62t123 20q59 0 110.5 -14.5t91.5 -43.5t64.5 -75t28.5 -108h-156q-11 59 -48 87t-91 28q-42 0 -78 -20.5t-58.5 -68.5t-22.5 -132v-20q0 -66 14 -110.5t37 -71t51 -38t57 -11.5
q57 0 94 29.5t45 85.5h156q-5 -65 -29 -111.5t-63 -75t-91 -41.5t-112 -13zM350 740q-38 0 -62 23.5t-24 61.5t24 61.5t62 23.5t62 -23.5t24 -61.5t-24 -61.5t-62 -23.5z" />
    <glyph glyph-name="cdotaccent" unicode="&#x10b;" horiz-adv-x="564" vert-adv-y="1200" 
d="M295 -12q-73 0 -132 30.5t-93.5 91t-34.5 150.5v20q0 86 36 144t95 88t129 30q75 0 127 -25t80.5 -69t32.5 -97h-134q-8 36 -32.5 57.5t-73.5 21.5q-34 0 -62.5 -16t-46 -49t-17.5 -85v-20q0 -56 16.5 -91.5t45 -52t64.5 -16.5q39 0 67.5 20.5t38.5 58.5h134
q-6 -57 -38 -101t-84.5 -67t-117.5 -23zM283 581q-35 0 -57.5 22t-22.5 57t22.5 57t56.5 22q36 0 58.5 -22t22.5 -57t-22.5 -57t-57.5 -22z" />
    <glyph glyph-name="Ccaron" unicode="&#x10c;" horiz-adv-x="699" vert-adv-y="1200" 
d="M365 -12q-91 0 -162.5 36.5t-112 115t-40.5 205.5v20q0 92 24 157.5t67.5 107.5t100.5 62t123 20q59 0 110.5 -14.5t91.5 -43.5t64.5 -75t28.5 -108h-156q-11 59 -48 87t-91 28q-42 0 -78 -20.5t-58.5 -68.5t-22.5 -132v-20q0 -66 14 -110.5t37 -71t51 -38t57 -11.5
q57 0 94 29.5t45 85.5h156q-5 -65 -29 -111.5t-63 -75t-91 -41.5t-112 -13zM280 750l-110 150h120l59 -61l61 61h120l-110 -150h-140z" />
    <glyph glyph-name="ccaron" unicode="&#x10d;" horiz-adv-x="564" vert-adv-y="1200" 
d="M295 -12q-73 0 -132 30.5t-93.5 91t-34.5 150.5v20q0 86 36 144t95 88t129 30q75 0 127 -25t80.5 -69t32.5 -97h-134q-8 36 -32.5 57.5t-73.5 21.5q-34 0 -62.5 -16t-46 -49t-17.5 -85v-20q0 -56 16.5 -91.5t45 -52t64.5 -16.5q39 0 67.5 20.5t38.5 58.5h134
q-6 -57 -38 -101t-84.5 -67t-117.5 -23zM218 580l-110 160h110l64 -70l66 70h110l-110 -160h-130z" />
    <glyph glyph-name="Dcaron" unicode="&#x10e;" horiz-adv-x="710" vert-adv-y="1200" 
d="M81 0v700h243q106 0 181 -38t114.5 -112.5t39.5 -184.5v-20q0 -112 -41 -189t-118.5 -116.5t-185.5 -39.5h-233zM230 124h74q55 0 100 21t72.5 69.5t27.5 130.5v20q0 78 -25 124.5t-68.5 66.5t-96.5 20h-84v-452zM285 750l-110 150h120l59 -61l61 61h120l-110 -150h-140z
" />
    <glyph glyph-name="dcaron" unicode="&#x10f;" horiz-adv-x="615" vert-adv-y="1200" 
d="M260 -12q-69 0 -119.5 30t-78 90.5t-27.5 151.5v20q0 86 27.5 144t78.5 88t119 30q55 0 96.5 -23.5t66.5 -62.5v244h131v-700h-122v78q-20 -36 -63 -63t-109 -27zM291 100q40 0 69.5 15t46 46.5t16.5 78.5v60q0 44 -17 72.5t-47 43t-68 14.5q-54 0 -88 -37.5t-34 -112.5
v-20q0 -82 35 -121t87 -39zM626 486l11 127v87h111v-87l-68 -127h-54z" />
    <glyph glyph-name="Dcroat" unicode="&#x110;" horiz-adv-x="734" vert-adv-y="1200" 
d="M105 0v303h-80v104h80v293h245q105 0 180 -38t115 -113t40 -184v-20q0 -112 -41 -189t-118.5 -116.5t-185.5 -39.5h-235zM255 124h75q54 0 99.5 21t72.5 69.5t27 130.5v20q0 78 -25.5 124.5t-68.5 66.5t-95 20h-85v-169h140v-104h-140v-179z" />
    <glyph glyph-name="dcroat" unicode="&#x111;" horiz-adv-x="615" vert-adv-y="1200" 
d="M283 643h371v-70h-371v70zM260 -12q-69 0 -119.5 30t-78 90.5t-27.5 151.5v20q0 86 27.5 144t78.5 88t119 30q55 0 96.5 -23.5t66.5 -62.5v244h131v-700h-122v78q-20 -36 -63 -63t-109 -27zM291 100q40 0 69.5 15t46 46.5t16.5 78.5v60q0 44 -17 72.5t-47 43t-68 14.5
q-54 0 -88 -37.5t-34 -112.5v-20q0 -82 35 -121t87 -39z" />
    <glyph glyph-name="Emacron" unicode="&#x112;" horiz-adv-x="620" vert-adv-y="1200" 
d="M81 0v700h488v-124h-338v-156h308v-120h-308v-176h338v-124h-488zM166 788v104h320v-104h-320z" />
    <glyph glyph-name="emacron" unicode="&#x113;" horiz-adv-x="580" vert-adv-y="1200" 
d="M300 -12q-72 0 -132.5 29.5t-96.5 90t-36 152.5v20q0 88 34.5 146t92.5 87t128 29q125 0 190 -66t65 -191v-56h-375q2 -47 20.5 -76.5t47.5 -43t62 -13.5q51 0 77 15t37 44h121q-16 -83 -79 -125t-156 -42zM295 434q-31 0 -60 -10t-46 -35.5t-19 -67.5h247
q-1 45 -17.5 69.5t-43.5 34t-61 9.5zM141 615v90h300v-90h-300z" />
    <glyph glyph-name="Edotaccent" unicode="&#x116;" horiz-adv-x="620" vert-adv-y="1200" 
d="M81 0v700h488v-124h-338v-156h308v-120h-308v-176h338v-124h-488zM325 740q-38 0 -62 23.5t-24 61.5t24 61.5t62 23.5t62 -23.5t24 -61.5t-24 -61.5t-62 -23.5z" />
    <glyph glyph-name="edotaccent" unicode="&#x117;" horiz-adv-x="580" vert-adv-y="1200" 
d="M300 -12q-72 0 -132.5 29.5t-96.5 90t-36 152.5v20q0 88 34.5 146t92.5 87t128 29q125 0 190 -66t65 -191v-56h-375q2 -47 20.5 -76.5t47.5 -43t62 -13.5q51 0 77 15t37 44h121q-16 -83 -79 -125t-156 -42zM295 434q-31 0 -60 -10t-46 -35.5t-19 -67.5h247
q-1 45 -17.5 69.5t-43.5 34t-61 9.5zM291 581q-35 0 -57.5 22t-22.5 57t22.5 57t56.5 22q36 0 58.5 -22t22.5 -57t-22.5 -57t-57.5 -22z" />
    <glyph glyph-name="Eogonek" unicode="&#x118;" horiz-adv-x="620" vert-adv-y="1200" 
d="M81 0v700h488v-124h-338v-156h308v-120h-308v-176h338v-124h-488zM516 -212q-63 0 -94.5 21t-31.5 67q0 24 10.5 44t26.5 35.5t33 27t31 17.5h79q-14 -14 -32 -29t-31 -32t-13 -38q0 -16 10.5 -25.5t38.5 -9.5q10 0 15 0.5t12 1.5v-76q-13 -2 -21.5 -3t-32.5 -1z" />
    <glyph glyph-name="eogonek" unicode="&#x119;" horiz-adv-x="580" vert-adv-y="1200" 
d="M300 -12q-72 0 -132.5 29.5t-96.5 90t-36 152.5v20q0 88 34.5 146t92.5 87t128 29q125 0 190 -66t65 -191v-56h-375q2 -47 20.5 -76.5t47.5 -43t62 -13.5q51 0 77 15t37 44h121q-16 -83 -79 -125t-156 -42zM295 434q-31 0 -60 -10t-46 -35.5t-19 -67.5h247
q-1 45 -17.5 69.5t-43.5 34t-61 9.5zM338 -212q-63 0 -94.5 21t-31.5 67q0 24 10.5 44t26.5 35.5t33 27t31 17.5h79q-14 -14 -32 -29t-31 -32t-13 -38q0 -16 10.5 -25.5t38.5 -9.5q10 0 15 0.5t12 1.5v-76q-13 -2 -21.5 -3t-32.5 -1z" />
    <glyph glyph-name="Ecaron" unicode="&#x11a;" horiz-adv-x="620" vert-adv-y="1200" 
d="M81 0v700h488v-124h-338v-156h308v-120h-308v-176h338v-124h-488zM256 750l-110 150h120l59 -61l61 61h120l-110 -150h-140z" />
    <glyph glyph-name="ecaron" unicode="&#x11b;" horiz-adv-x="580" vert-adv-y="1200" 
d="M300 -12q-72 0 -132.5 29.5t-96.5 90t-36 152.5v20q0 88 34.5 146t92.5 87t128 29q125 0 190 -66t65 -191v-56h-375q2 -47 20.5 -76.5t47.5 -43t62 -13.5q51 0 77 15t37 44h121q-16 -83 -79 -125t-156 -42zM295 434q-31 0 -60 -10t-46 -35.5t-19 -67.5h247
q-1 45 -17.5 69.5t-43.5 34t-61 9.5zM226 580l-110 160h110l64 -70l66 70h110l-110 -160h-130z" />
    <glyph glyph-name="Gbreve" unicode="&#x11e;" horiz-adv-x="724" vert-adv-y="1200" 
d="M375 -12q-93 0 -166.5 36.5t-116 115t-42.5 205.5v20q0 91 25.5 157t70.5 108t102.5 62t121.5 20q60 0 109.5 -14.5t87.5 -43t63 -72t35 -101.5h-156q-14 42 -36 64.5t-48.5 31t-54.5 8.5q-44 0 -81.5 -21t-60 -69t-22.5 -130v-20q0 -65 14 -109t38.5 -70.5t54.5 -38.5
t62 -12q43 0 78 15t57.5 47.5t26.5 83.5h-142v104h285v-40q0 -87 -21.5 -150.5t-62 -105t-96.5 -61.5t-125 -20z" />
    <glyph glyph-name="gbreve" unicode="&#x11f;" horiz-adv-x="615" vert-adv-y="1200" 
d="M290 -212q-84 0 -134 20.5t-73.5 56.5t-27.5 85h134q6 -21 27 -39.5t74 -18.5q67 0 100 32t33 96v64q-25 -39 -67 -62.5t-96 -23.5q-69 0 -119.5 30t-78 89.5t-27.5 147.5v20q0 83 27.5 140t78.5 87t119 30q66 0 109 -27t63 -63v78h122v-500q0 -118 -65 -180t-199 -62z
M291 110q40 0 69.5 14.5t46 45.5t16.5 75v60q0 42 -17 69t-47 41.5t-68 14.5q-54 0 -88 -36.5t-34 -108.5v-20q0 -77 35 -116t87 -39z" />
    <glyph glyph-name="Gdotaccent" unicode="&#x120;" horiz-adv-x="724" vert-adv-y="1200" 
d="M375 -12q-93 0 -166.5 36.5t-116 115t-42.5 205.5v20q0 91 25.5 157t70.5 108t102.5 62t121.5 20q60 0 109.5 -14.5t87.5 -43t63 -72t35 -101.5h-156q-14 42 -36 64.5t-48.5 31t-54.5 8.5q-44 0 -81.5 -21t-60 -69t-22.5 -130v-20q0 -65 14 -109t38.5 -70.5t54.5 -38.5
t62 -12q43 0 78 15t57.5 47.5t26.5 83.5h-142v104h285v-40q0 -87 -21.5 -150.5t-62 -105t-96.5 -61.5t-125 -20zM363 740q-38 0 -62 23.5t-24 61.5t24 61.5t62 23.5t62 -23.5t24 -61.5t-24 -61.5t-62 -23.5z" />
    <glyph glyph-name="gdotaccent" unicode="&#x121;" horiz-adv-x="615" vert-adv-y="1200" 
d="M290 -212q-84 0 -134 20.5t-73.5 56.5t-27.5 85h134q6 -21 27 -39.5t74 -18.5q67 0 100 32t33 96v64q-25 -39 -67 -62.5t-96 -23.5q-69 0 -119.5 30t-78 89.5t-27.5 147.5v20q0 83 27.5 140t78.5 87t119 30q66 0 109 -27t63 -63v78h122v-500q0 -118 -65 -180t-199 -62z
M291 110q40 0 69.5 14.5t46 45.5t16.5 75v60q0 42 -17 69t-47 41.5t-68 14.5q-54 0 -88 -36.5t-34 -108.5v-20q0 -77 35 -116t87 -39zM309 581q-35 0 -57.5 22t-22.5 57t22.5 57t56.5 22q36 0 58.5 -22t22.5 -57t-22.5 -57t-57.5 -22z" />
    <glyph glyph-name="uni0122" unicode="&#x122;" horiz-adv-x="724" vert-adv-y="1200" 
d="M375 -12q-93 0 -166.5 36.5t-116 115t-42.5 205.5v20q0 91 25.5 157t70.5 108t102.5 62t121.5 20q60 0 109.5 -14.5t87.5 -43t63 -72t35 -101.5h-156q-14 42 -36 64.5t-48.5 31t-54.5 8.5q-44 0 -81.5 -21t-60 -69t-22.5 -130v-20q0 -65 14 -109t38.5 -70.5t54.5 -38.5
t62 -12q43 0 78 15t57.5 47.5t26.5 83.5h-142v104h285v-40q0 -87 -21.5 -150.5t-62 -105t-96.5 -61.5t-125 -20zM308 -226v181h110v-91l-51 -90h-59z" />
    <glyph glyph-name="uni0123" unicode="&#x123;" horiz-adv-x="615" vert-adv-y="1200" 
d="M290 -212q-84 0 -134 20.5t-73.5 56.5t-27.5 85h134q6 -21 27 -39.5t74 -18.5q67 0 100 32t33 96v64q-25 -39 -67 -62.5t-96 -23.5q-69 0 -119.5 30t-78 89.5t-27.5 147.5v20q0 83 27.5 140t78.5 87t119 30q66 0 109 -27t63 -63v78h122v-500q0 -118 -65 -180t-199 -62z
M291 110q40 0 69.5 14.5t46 45.5t16.5 75v60q0 42 -17 69t-47 41.5t-68 14.5q-54 0 -88 -36.5t-34 -108.5v-20q0 -77 35 -116t87 -39zM363 794v-181h-110v91l51 90h59z" />
    <glyph glyph-name="Hbar" unicode="&#x126;" horiz-adv-x="760" vert-adv-y="1200" 
d="M14 611h732v-104h-732v104zM81 0v700h149v-278h300v278h149v-700h-149v298h-300v-298h-149z" />
    <glyph glyph-name="hbar" unicode="&#x127;" horiz-adv-x="624" vert-adv-y="1200" 
d="M-15 643h371v-70h-371v70zM79 0v700h132v-243q13 20 34 39.5t53.5 32.5t77.5 13q98 0 145.5 -52t47.5 -150v-340h-132v309q0 59 -24.5 90t-83.5 31q-42 0 -68 -17t-38 -44.5t-12 -59.5v-309h-132z" />
    <glyph glyph-name="Imacron" unicode="&#x12a;" horiz-adv-x="330" vert-adv-y="1200" 
d="M91 0v700h149v-700h-149zM5 788v104h320v-104h-320z" />
    <glyph glyph-name="imacron" unicode="&#x12b;" horiz-adv-x="271" vert-adv-y="1200" 
d="M71 0v530h131v-530h-131zM-14 615v90h300v-90h-300z" />
    <glyph glyph-name="Iogonek" unicode="&#x12e;" horiz-adv-x="330" vert-adv-y="1200" 
d="M91 0v700h149v-700h-149zM186 -212q-63 0 -94.5 21t-31.5 67q0 24 10.5 44t26.5 35.5t33 27t31 17.5h79q-14 -14 -32 -29t-31 -32t-13 -38q0 -16 10.5 -25.5t38.5 -9.5q10 0 15 0.5t12 1.5v-76q-13 -2 -21.5 -3t-32.5 -1z" />
    <glyph glyph-name="iogonek" unicode="&#x12f;" horiz-adv-x="271" vert-adv-y="1200" 
d="M71 0v530h131v-530h-131zM136 581q-35 0 -57.5 22t-22.5 57t22.5 57t56.5 22q36 0 58.5 -22t22.5 -57t-22.5 -57t-57.5 -22zM148 -212q-63 0 -94.5 21t-31.5 67q0 24 10.5 44t26.5 35.5t33 27t31 17.5h79q-14 -14 -32 -29t-31 -32t-13 -38q0 -16 10.5 -25.5t38.5 -9.5
q10 0 15 0.5t12 1.5v-76q-13 -2 -21.5 -3t-32.5 -1z" />
    <glyph glyph-name="Idotaccent" unicode="&#x130;" horiz-adv-x="330" vert-adv-y="1200" 
d="M91 0v700h149v-700h-149zM165 740q-38 0 -62 23.5t-24 61.5t24 61.5t62 23.5t62 -23.5t24 -61.5t-24 -61.5t-62 -23.5z" />
    <glyph glyph-name="dotlessi" unicode="&#x131;" horiz-adv-x="271" vert-adv-y="1200" 
d="M71 0v530h131v-530h-131z" />
    <glyph glyph-name="IJ" unicode="&#x132;" horiz-adv-x="905" vert-adv-y="1200" 
d="M91 0v700h149v-700h-149zM585 -12q-74 0 -124 27t-77 79t-29 126h142q2 -53 24 -79t64 -26q32 0 51.5 12.5t29 42.5t9.5 80v450h150v-450q0 -94 -29.5 -151.5t-82.5 -84t-128 -26.5z" />
    <glyph glyph-name="ij" unicode="&#x133;" horiz-adv-x="544" vert-adv-y="1200" 
d="M71 0v530h131v-530h-131zM136 581q-35 0 -57.5 22t-22.5 57t22.5 57t56.5 22q36 0 58.5 -22t22.5 -57t-22.5 -57t-57.5 -22zM292 -212q-11 0 -25 0.5t-25 2.5v112q8 -2 17.5 -2.5t17.5 -0.5q25 0 39 8.5t20 33t6 68.5v520h131v-530q0 -84 -16 -130t-55 -64t-110 -18z
M408 581q-35 0 -57.5 22t-22.5 57t22.5 57t56.5 22q36 0 58.5 -22t22.5 -57t-22.5 -57t-57.5 -22z" />
    <glyph glyph-name="uni0136" unicode="&#x136;" horiz-adv-x="700" vert-adv-y="1200" 
d="M81 0v700h149v-295l256 295h173l-260 -287l280 -413h-175l-206 314l-68 -75v-239h-149zM295 -226v181h110v-91l-51 -90h-59z" />
    <glyph glyph-name="uni0137" unicode="&#x137;" horiz-adv-x="575" vert-adv-y="1200" 
d="M61 0v700h131v-388l196 218h151l-203 -227l223 -303h-152l-156 216l-59 -63v-153h-131zM233 -226v181h110v-91l-51 -90h-59z" />
    <glyph glyph-name="Lacute" unicode="&#x139;" horiz-adv-x="570" vert-adv-y="1200" 
d="M81 0v700h149v-576h320v-124h-469zM95 750l110 150h160l-150 -150h-120z" />
    <glyph glyph-name="lacute" unicode="&#x13a;" horiz-adv-x="330" vert-adv-y="1200" 
d="M240 -6q-61 0 -99.5 16.5t-56.5 56t-18 110.5v523h131v-507q0 -51 14.5 -69t57.5 -18q11 0 19 0.5t16 1.5v-110q-5 -2 -17 -3t-25 -1h-22zM71 750l110 150h160l-150 -150h-120z" />
    <glyph glyph-name="uni013B" unicode="&#x13b;" horiz-adv-x="570" vert-adv-y="1200" 
d="M81 0v700h149v-576h320v-124h-469zM230 -226v181h110v-91l-51 -90h-59z" />
    <glyph glyph-name="uni013C" unicode="&#x13c;" horiz-adv-x="330" vert-adv-y="1200" 
d="M240 -6q-61 0 -99.5 16.5t-56.5 56t-18 110.5v523h131v-507q0 -51 14.5 -69t57.5 -18q11 0 19 0.5t16 1.5v-110q-5 -2 -17 -3t-25 -1h-22zM110 -226v181h110v-91l-51 -90h-59z" />
    <glyph glyph-name="Lcaron" unicode="&#x13d;" horiz-adv-x="570" vert-adv-y="1200" 
d="M81 0v700h149v-576h320v-124h-469zM447 486l11 127v87h111v-87l-68 -127h-54z" />
    <glyph glyph-name="lcaron" unicode="&#x13e;" horiz-adv-x="330" vert-adv-y="1200" 
d="M240 -6q-61 0 -99.5 16.5t-56.5 56t-18 110.5v523h131v-507q0 -51 14.5 -69t57.5 -18q11 0 19 0.5t16 1.5v-110q-5 -2 -17 -3t-25 -1h-22zM268 486l11 127v87h111v-87l-68 -127h-54z" />
    <glyph glyph-name="Lslash" unicode="&#x141;" horiz-adv-x="609" vert-adv-y="0" 
d="M120 0v227l-100 -58v125l100 57v349h149v-262l161 91v-123l-161 -92v-190h320v-124h-469z" />
    <glyph glyph-name="lslash" unicode="&#x142;" horiz-adv-x="375" vert-adv-y="0" 
d="M274 -6q-45 0 -78 9t-54.5 29.5t-31.5 56t-10 88.5v102l-80 -46v124l80 46v297h132v-222l108 64v-125l-108 -62v-162q0 -51 15 -69t58 -18q11 0 19 0.5t16 1.5v-111q-5 -1 -17 -2t-25 -1h-24z" />
    <glyph glyph-name="Nacute" unicode="&#x143;" horiz-adv-x="760" vert-adv-y="1200" 
d="M81 0v700h141l309 -450v450h148v-700h-141l-309 450v-450h-148zM321 750l110 150h160l-150 -150h-120z" />
    <glyph glyph-name="nacute" unicode="&#x144;" horiz-adv-x="605" vert-adv-y="1200" 
d="M61 0v530h120v-78q20 36 62 63t115 27q97 0 144.5 -52t47.5 -150v-340h-132v310q0 59 -24.5 89.5t-83.5 30.5q-42 0 -68 -17t-38 -44t-12 -59v-310h-131zM248 580l110 160h150l-150 -160h-110z" />
    <glyph glyph-name="uni0145" unicode="&#x145;" horiz-adv-x="760" vert-adv-y="1200" 
d="M81 0v700h141l309 -450v450h148v-700h-141l-309 450v-450h-148zM325 -226v181h110v-91l-51 -90h-59z" />
    <glyph glyph-name="uni0146" unicode="&#x146;" horiz-adv-x="605" vert-adv-y="1200" 
d="M61 0v530h120v-78q20 36 62 63t115 27q97 0 144.5 -52t47.5 -150v-340h-132v310q0 59 -24.5 89.5t-83.5 30.5q-42 0 -68 -17t-38 -44t-12 -59v-310h-131zM248 -226v181h110v-91l-51 -90h-59z" />
    <glyph glyph-name="Ncaron" unicode="&#x147;" horiz-adv-x="760" vert-adv-y="1200" 
d="M81 0v700h141l309 -450v450h148v-700h-141l-309 450v-450h-148zM311 750l-110 150h120l59 -61l61 61h120l-110 -150h-140z" />
    <glyph glyph-name="ncaron" unicode="&#x148;" horiz-adv-x="605" vert-adv-y="1200" 
d="M61 0v530h120v-78q20 36 62 63t115 27q97 0 144.5 -52t47.5 -150v-340h-132v310q0 59 -24.5 89.5t-83.5 30.5q-42 0 -68 -17t-38 -44t-12 -59v-310h-131zM238 580l-110 160h110l64 -70l66 70h110l-110 -160h-130z" />
    <glyph glyph-name="Eng" unicode="&#x14a;" horiz-adv-x="760" vert-adv-y="1200" 
d="M500 -212q-11 0 -25 0.5t-25 2.5v112q8 -2 17.5 -2.5t17.5 -0.5q24 0 35.5 9t14.5 33t3 68v520h141v-530q0 -84 -15.5 -130t-54.5 -64t-109 -18zM81 0v700h141l309 -450v450h148v-700h-141l-309 450v-450h-148z" />
    <glyph glyph-name="eng" unicode="&#x14b;" horiz-adv-x="606" vert-adv-y="1200" 
d="M370 -212q-11 0 -25 0.5t-25 2.5v112q8 -2 17.5 -2.5t17.5 -0.5q24 0 38 8.5t19.5 33t5.5 68.5v120h132v-131q0 -82 -16 -128.5t-55 -64.5t-109 -18zM61 0v530h120v-78q20 36 62 63t115 27q97 0 144.5 -52t47.5 -150v-340h-132v310q0 59 -24.5 89.5t-83.5 30.5
q-42 0 -68 -17t-38 -44.5t-12 -58.5v-310h-131z" />
    <glyph glyph-name="Omacron" unicode="&#x14c;" horiz-adv-x="759" vert-adv-y="1200" 
d="M380 -12q-66 0 -125 20t-105.5 62.5t-73 110.5t-26.5 164v20q0 92 26.5 157.5t73 107.5t105.5 62t125 20t125 -20t105.5 -62t73 -107.5t26.5 -157.5v-20q0 -96 -26.5 -164t-73 -110.5t-105.5 -62.5t-125 -20zM380 114q46 0 85.5 21.5t64 72t24.5 137.5v20
q0 82 -24.5 130.5t-64 69.5t-85.5 21q-45 0 -85 -21t-64.5 -69.5t-24.5 -130.5v-20q0 -87 24.5 -137.5t64.5 -72t85 -21.5zM220 788v104h320v-104h-320z" />
    <glyph glyph-name="omacron" unicode="&#x14d;" horiz-adv-x="600" vert-adv-y="1200" 
d="M300 -12q-72 0 -132.5 29.5t-96.5 90t-36 152.5v20q0 87 36 145t96.5 87.5t132.5 29.5t132.5 -29.5t96.5 -87.5t36 -145v-20q0 -90 -36 -150.5t-96.5 -91t-132.5 -30.5zM300 100q38 0 67.5 17.5t46.5 53.5t17 89v20q0 49 -17 82t-46.5 50.5t-67.5 17.5t-67.5 -17.5
t-46.5 -50.5t-17 -82v-20q0 -54 17 -89.5t46.5 -53t67.5 -17.5zM151 615v90h300v-90h-300z" />
    <glyph glyph-name="Ohungarumlaut" unicode="&#x150;" horiz-adv-x="759" vert-adv-y="1200" 
d="M380 -12q-66 0 -125 20t-105.5 62.5t-73 110.5t-26.5 164v20q0 92 26.5 157.5t73 107.5t105.5 62t125 20t125 -20t105.5 -62t73 -107.5t26.5 -157.5v-20q0 -96 -26.5 -164t-73 -110.5t-105.5 -62.5t-125 -20zM380 114q46 0 85.5 21.5t64 72t24.5 137.5v20
q0 82 -24.5 130.5t-64 69.5t-85.5 21q-45 0 -85 -21t-64.5 -69.5t-24.5 -130.5v-20q0 -87 24.5 -137.5t64.5 -72t85 -21.5zM253 750l109 150h125l-133 -150h-101zM420 750l134 150h128l-161 -150h-101z" />
    <glyph glyph-name="ohungarumlaut" unicode="&#x151;" horiz-adv-x="600" vert-adv-y="1200" 
d="M300 -12q-72 0 -132.5 29.5t-96.5 90t-36 152.5v20q0 87 36 145t96.5 87.5t132.5 29.5t132.5 -29.5t96.5 -87.5t36 -145v-20q0 -90 -36 -150.5t-96.5 -91t-132.5 -30.5zM300 100q38 0 67.5 17.5t46.5 53.5t17 89v20q0 49 -17 82t-46.5 50.5t-67.5 17.5t-67.5 -17.5
t-46.5 -50.5t-17 -82v-20q0 -54 17 -89.5t46.5 -53t67.5 -17.5zM232 580h-98l84 160h137zM445 580h-103l123 160h143z" />
    <glyph glyph-name="OE" unicode="&#x152;" horiz-adv-x="1100" vert-adv-y="0" 
d="M375 -12q-64 0 -122.5 20t-104 63t-72 110.5t-26.5 163.5v20q0 92 26.5 157.5t72 107.5t104 62t122.5 20q54 0 100.5 -14t84.5 -47v49h490v-124h-339v-154h309v-124h-309v-174h339v-124h-490v49q-38 -33 -84.5 -47t-100.5 -14zM380 114q46 0 86 21.5t64.5 72t24.5 137.5
v20q0 82 -24.5 130.5t-64.5 69.5t-86 21q-45 0 -85 -21t-64.5 -69.5t-24.5 -130.5v-20q0 -87 24.5 -137.5t64.5 -72t85 -21.5z" />
    <glyph glyph-name="oe" unicode="&#x153;" horiz-adv-x="981" vert-adv-y="0" 
d="M300 -12q-72 0 -132.5 29.5t-96.5 90t-36 152.5v20q0 87 36 145t96.5 87.5t132.5 29.5q61 0 112 -21.5t86 -63.5q33 43 82.5 64t110.5 21q124 0 189 -66t65 -191v-56h-375q2 -47 20.5 -76.5t47.5 -43t63 -13.5q50 0 76 15t37 44h121q-16 -83 -79 -125t-155 -42
q-64 0 -115.5 21.5t-86.5 67.5q-35 -46 -86 -67.5t-113 -21.5zM300 100q38 0 67.5 17.5t46.5 53.5t17 89v20q0 49 -17 82t-46.5 50.5t-67.5 17.5t-67.5 -17.5t-46.5 -50.5t-17 -82v-20q0 -54 17 -89.5t46.5 -53t67.5 -17.5zM696 434q-32 0 -60 -10t-46 -35.5t-20 -67.5h247
q-1 45 -17.5 69.5t-43.5 34t-60 9.5z" />
    <glyph glyph-name="Racute" unicode="&#x154;" horiz-adv-x="690" vert-adv-y="1200" 
d="M81 0v700h283q88 0 146.5 -28t88.5 -78.5t30 -118.5q0 -72 -37 -125.5t-113 -77.5l170 -272h-173l-147 256h-99v-256h-149zM230 374h105q83 0 114 25.5t31 75.5t-31 75.5t-114 25.5h-105v-202zM285 750l110 150h160l-150 -150h-120z" />
    <glyph glyph-name="racute" unicode="&#x155;" horiz-adv-x="390" vert-adv-y="1200" 
d="M61 0v530h120v-79q11 23 30 43t47 34t62 14q19 0 32.5 -2t17.5 -4v-117q-10 4 -25.5 7.5t-41.5 3.5q-40 0 -64.5 -17t-35.5 -44.5t-11 -59.5v-309h-131zM141 580l110 160h150l-150 -160h-110z" />
    <glyph glyph-name="uni0156" unicode="&#x156;" horiz-adv-x="690" vert-adv-y="1200" 
d="M81 0v700h283q88 0 146.5 -28t88.5 -78.5t30 -118.5q0 -72 -37 -125.5t-113 -77.5l170 -272h-173l-147 256h-99v-256h-149zM230 374h105q83 0 114 25.5t31 75.5t-31 75.5t-114 25.5h-105v-202zM290 -226v181h110v-91l-51 -90h-59z" />
    <glyph glyph-name="uni0157" unicode="&#x157;" horiz-adv-x="390" vert-adv-y="1200" 
d="M61 0v530h120v-79q11 23 30 43t47 34t62 14q19 0 32.5 -2t17.5 -4v-117q-10 4 -25.5 7.5t-41.5 3.5q-40 0 -64.5 -17t-35.5 -44.5t-11 -59.5v-309h-131zM71 -226v181h110v-91l-51 -90h-59z" />
    <glyph glyph-name="Rcaron" unicode="&#x158;" horiz-adv-x="690" vert-adv-y="1200" 
d="M81 0v700h283q88 0 146.5 -28t88.5 -78.5t30 -118.5q0 -72 -37 -125.5t-113 -77.5l170 -272h-173l-147 256h-99v-256h-149zM230 374h105q83 0 114 25.5t31 75.5t-31 75.5t-114 25.5h-105v-202zM275 750l-110 150h120l59 -61l61 61h120l-110 -150h-140z" />
    <glyph glyph-name="rcaron" unicode="&#x159;" horiz-adv-x="390" vert-adv-y="1200" 
d="M61 0v530h120v-79q11 23 30 43t47 34t62 14q19 0 32.5 -2t17.5 -4v-117q-10 4 -25.5 7.5t-41.5 3.5q-40 0 -64.5 -17t-35.5 -44.5t-11 -59.5v-309h-131zM131 580l-110 160h110l64 -70l66 70h110l-110 -160h-130z" />
    <glyph glyph-name="Sacute" unicode="&#x15a;" horiz-adv-x="659" vert-adv-y="1200" 
d="M330 -12q-93 0 -155 26t-94.5 72.5t-35.5 108.5h150q8 -39 36.5 -60t98.5 -21q72 0 103.5 19.5t31.5 55.5q0 30 -18.5 49t-56.5 32.5t-99 25.5q-71 14 -122 39t-77.5 68t-26.5 109q0 61 32.5 105.5t92 69.5t140.5 25q88 0 144.5 -24.5t86 -68.5t34.5 -104h-149
q-8 36 -33 53.5t-83 17.5q-59 0 -87 -19t-28 -51q0 -39 38.5 -61t121.5 -38q57 -11 101.5 -27t75.5 -41.5t47 -61.5t16 -87q0 -64 -33.5 -112t-97 -74t-154.5 -26zM270 750l110 150h160l-150 -150h-120z" />
    <glyph glyph-name="sacute" unicode="&#x15b;" horiz-adv-x="549" vert-adv-y="1200" 
d="M275 -12q-65 0 -109 13.5t-72.5 37t-42 53.5t-16.5 63h132q5 -26 31 -42.5t77 -16.5q58 0 83 16t25 41q0 18 -11 29.5t-39 20t-79 17.5q-44 6 -80.5 16.5t-64.5 29.5t-43.5 47.5t-15.5 69.5q0 44 26.5 80t77 57.5t121.5 21.5q77 0 123 -24t69 -62t28 -81h-132
q-8 29 -31 44t-57 15q-50 0 -71.5 -15.5t-21.5 -38.5q0 -24 23.5 -37t96.5 -23q45 -6 83.5 -17.5t67.5 -30.5t45.5 -47.5t16.5 -69.5q0 -49 -26.5 -86.5t-80 -59t-133.5 -21.5zM220 580l110 160h150l-150 -160h-110z" />
    <glyph glyph-name="Scedilla" unicode="&#x15e;" horiz-adv-x="659" vert-adv-y="1200" 
d="M330 -12q-93 0 -155 26t-94.5 72.5t-35.5 108.5h150q8 -39 36.5 -60t98.5 -21q72 0 103.5 19.5t31.5 55.5q0 30 -18.5 49t-56.5 32.5t-99 25.5q-71 14 -122 39t-77.5 68t-26.5 109q0 61 32.5 105.5t92 69.5t140.5 25q88 0 144.5 -24.5t86 -68.5t34.5 -104h-149
q-8 36 -33 53.5t-83 17.5q-59 0 -87 -19t-28 -51q0 -39 38.5 -61t121.5 -38q57 -11 101.5 -27t75.5 -41.5t47 -61.5t16 -87q0 -64 -33.5 -112t-97 -74t-154.5 -26zM315 -212q-17 0 -30 1t-22 3q-5 1 -9.5 2t-8.5 2v74l14 -2q7 -1 16 -1.5t20 -0.5q27 0 35.5 7.5t8.5 17.5
q0 11 -8.5 18.5t-40.5 7.5l17 93h80l-7 -46q37 -9 50.5 -31.5t13.5 -47.5q0 -44 -30 -70.5t-99 -26.5z" />
    <glyph glyph-name="scedilla" unicode="&#x15f;" horiz-adv-x="549" vert-adv-y="1200" 
d="M275 -12q-65 0 -109 13.5t-72.5 37t-42 53.5t-16.5 63h132q5 -26 31 -42.5t77 -16.5q58 0 83 16t25 41q0 18 -11 29.5t-39 20t-79 17.5q-44 6 -80.5 16.5t-64.5 29.5t-43.5 47.5t-15.5 69.5q0 44 26.5 80t77 57.5t121.5 21.5q77 0 123 -24t69 -62t28 -81h-132
q-8 29 -31 44t-57 15q-50 0 -71.5 -15.5t-21.5 -38.5q0 -24 23.5 -37t96.5 -23q45 -6 83.5 -17.5t67.5 -30.5t45.5 -47.5t16.5 -69.5q0 -49 -26.5 -86.5t-80 -59t-133.5 -21.5zM262 -212q-17 0 -30 1t-22 3q-5 1 -9.5 2t-8.5 2v72l14 -2q7 -1 16 -1.5t20 -0.5q27 0 36.5 8.5
t9.5 17.5q0 12 -9 20.5t-40 8.5l17 91h76l-7 -46q38 -9 52 -31.5t14 -47.5q0 -44 -30 -70.5t-99 -26.5z" />
    <glyph glyph-name="Scaron" unicode="&#x160;" horiz-adv-x="659" vert-adv-y="1200" 
d="M330 -12q-93 0 -155 26t-94.5 72.5t-35.5 108.5h150q8 -39 36.5 -60t98.5 -21q72 0 103.5 19.5t31.5 55.5q0 30 -18.5 49t-56.5 32.5t-99 25.5q-71 14 -122 39t-77.5 68t-26.5 109q0 61 32.5 105.5t92 69.5t140.5 25q88 0 144.5 -24.5t86 -68.5t34.5 -104h-149
q-8 36 -33 53.5t-83 17.5q-59 0 -87 -19t-28 -51q0 -39 38.5 -61t121.5 -38q57 -11 101.5 -27t75.5 -41.5t47 -61.5t16 -87q0 -64 -33.5 -112t-97 -74t-154.5 -26zM260 750l-110 150h120l59 -61l61 61h120l-110 -150h-140z" />
    <glyph glyph-name="scaron" unicode="&#x161;" horiz-adv-x="549" vert-adv-y="1200" 
d="M275 -12q-65 0 -109 13.5t-72.5 37t-42 53.5t-16.5 63h132q5 -26 31 -42.5t77 -16.5q58 0 83 16t25 41q0 18 -11 29.5t-39 20t-79 17.5q-44 6 -80.5 16.5t-64.5 29.5t-43.5 47.5t-15.5 69.5q0 44 26.5 80t77 57.5t121.5 21.5q77 0 123 -24t69 -62t28 -81h-132
q-8 29 -31 44t-57 15q-50 0 -71.5 -15.5t-21.5 -38.5q0 -24 23.5 -37t96.5 -23q45 -6 83.5 -17.5t67.5 -30.5t45.5 -47.5t16.5 -69.5q0 -49 -26.5 -86.5t-80 -59t-133.5 -21.5zM210 580l-110 160h110l64 -70l66 70h110l-110 -160h-130z" />
    <glyph glyph-name="Tcaron" unicode="&#x164;" horiz-adv-x="639" vert-adv-y="1200" 
d="M245 0v576h-225v124h599v-124h-225v-576h-149zM250 750l-110 150h120l59 -61l61 61h120l-110 -150h-140z" />
    <glyph glyph-name="tcaron" unicode="&#x165;" horiz-adv-x="400" vert-adv-y="1200" 
d="M275 -6q-62 0 -102 17.5t-58.5 56.5t-18.5 101v251h-71v110h71v120h131v-120h128v-110h-128v-230q0 -45 16.5 -64.5t61.5 -19.5q30 0 60 3v-110q-19 -2 -39.5 -3.5t-50.5 -1.5zM285 595l11 127v87h111v-87l-68 -127h-54z" />
    <glyph glyph-name="Umacron" unicode="&#x16a;" horiz-adv-x="730" vert-adv-y="1200" 
d="M365 -12q-90 0 -156 32t-102 97t-36 163v420h149v-406q0 -90 35 -135t110 -45t110 45t35 134v407h149v-420q0 -98 -35.5 -163t-101.5 -97t-157 -32zM206 788v104h320v-104h-320z" />
    <glyph glyph-name="umacron" unicode="&#x16b;" horiz-adv-x="595" vert-adv-y="1200" 
d="M242 -12q-92 0 -139 52.5t-47 162.5v327h131v-309q0 -60 23.5 -90.5t79.5 -30.5q40 0 64.5 17t36.5 44t12 60v309h132v-530h-122v79q-19 -37 -60.5 -64t-110.5 -27zM148 615v90h300v-90h-300z" />
    <glyph glyph-name="Ubreve" unicode="&#x16c;" horiz-adv-x="730" vert-adv-y="1200" 
d="M365 -12q-90 0 -156 32t-102 97t-36 163v420h149v-406q0 -90 35 -135t110 -45t110 45t35 134v407h149v-420q0 -98 -35.5 -163t-101.5 -97t-157 -32z" />
    <glyph glyph-name="ubreve" unicode="&#x16d;" horiz-adv-x="595" vert-adv-y="1200" 
d="M242 -12q-92 0 -139 52.5t-47 162.5v327h131v-309q0 -60 23.5 -90.5t79.5 -30.5q40 0 64.5 17t36.5 44t12 60v309h132v-530h-122v79q-19 -37 -60.5 -64t-110.5 -27zM298 585q-89 0 -129.5 38t-40.5 112h117q0 -39 13 -54.5t39 -15.5q28 0 42 15.5t14 54.5h115
q0 -74 -41 -112t-129 -38z" />
    <glyph glyph-name="Uring" unicode="&#x16e;" horiz-adv-x="730" vert-adv-y="1200" 
d="M365 -12q-90 0 -156 32t-102 97t-36 163v420h149v-406q0 -90 35 -135t110 -45t110 45t35 134v407h149v-420q0 -98 -35.5 -163t-101.5 -97t-157 -32zM365 730q-37 0 -66.5 14.5t-46.5 40.5t-17 60t17 60t46.5 40.5t66.5 14.5t66 -14.5t46 -40.5t17 -60t-16.5 -60
t-46.5 -40.5t-66 -14.5zM365 810q17 0 28.5 9.5t11.5 25.5q0 17 -11.5 26t-28.5 9t-29 -9.5t-12 -25.5q0 -17 12 -26t29 -9z" />
    <glyph glyph-name="uring" unicode="&#x16f;" horiz-adv-x="595" vert-adv-y="1200" 
d="M242 -12q-92 0 -139 52.5t-47 162.5v327h131v-309q0 -60 23.5 -90.5t79.5 -30.5q40 0 64.5 17t36.5 44t12 60v309h132v-530h-122v79q-19 -37 -60.5 -64t-110.5 -27zM298 565q-53 0 -89 33t-36 82q0 48 36 81.5t89 33.5t88.5 -33t35.5 -82q0 -48 -35.5 -81.5t-88.5 -33.5z
M298 643q16 0 26.5 10t10.5 27t-10.5 27t-26.5 10q-17 0 -27.5 -10t-10.5 -27t10.5 -27t27.5 -10z" />
    <glyph glyph-name="Uhungarumlaut" unicode="&#x170;" horiz-adv-x="730" vert-adv-y="1200" 
d="M365 -12q-90 0 -156 32t-102 97t-36 163v420h149v-406q0 -90 35 -135t110 -45t110 45t35 134v407h149v-420q0 -98 -35.5 -163t-101.5 -97t-157 -32zM238 750l109 150h125l-133 -150h-101zM405 750l134 150h128l-161 -150h-101z" />
    <glyph glyph-name="uhungarumlaut" unicode="&#x171;" horiz-adv-x="595" vert-adv-y="1200" 
d="M242 -12q-92 0 -139 52.5t-47 162.5v327h131v-309q0 -60 23.5 -90.5t79.5 -30.5q40 0 64.5 17t36.5 44t12 60v309h132v-530h-122v79q-19 -37 -60.5 -64t-110.5 -27zM230 580h-98l84 160h137zM443 580h-103l123 160h143z" />
    <glyph glyph-name="Uogonek" unicode="&#x172;" horiz-adv-x="730" vert-adv-y="1200" 
d="M365 -12q-90 0 -156 32t-102 97t-36 163v420h149v-406q0 -90 35 -135t110 -45t110 45t35 134v407h149v-420q0 -98 -35.5 -163t-101.5 -97t-157 -32zM415 -212q-63 0 -94.5 21t-31.5 67q0 24 10.5 44t26.5 35.5t33 27t31 17.5h79q-14 -14 -32 -29t-31 -32t-13 -38
q0 -16 10.5 -25.5t38.5 -9.5q10 0 15 0.5t12 1.5v-76q-13 -2 -21.5 -3t-32.5 -1z" />
    <glyph glyph-name="uogonek" unicode="&#x173;" horiz-adv-x="595" vert-adv-y="1200" 
d="M242 -12q-92 0 -139 52.5t-47 162.5v327h131v-309q0 -60 23.5 -90.5t79.5 -30.5q40 0 64.5 17t36.5 44t12 60v309h132v-530h-122v79q-19 -37 -60.5 -64t-110.5 -27zM481 -212q-63 0 -94.5 21t-31.5 67q0 24 10.5 44t26.5 35.5t33 27t31 17.5h79q-14 -14 -32 -29t-31 -32
t-13 -38q0 -16 10.5 -25.5t38.5 -9.5q10 0 15 0.5t12 1.5v-76q-13 -2 -21.5 -3t-32.5 -1z" />
    <glyph glyph-name="Wcircumflex" unicode="&#x174;" horiz-adv-x="979" vert-adv-y="1200" 
d="M200 0l-180 700h156l109 -494l135 494h140l138 -496l118 496h144l-181 -700h-149l-145 500l-136 -500h-149zM310 750l110 150h140l110 -150h-120l-61 61l-59 -61h-120z" />
    <glyph glyph-name="wcircumflex" unicode="&#x175;" horiz-adv-x="830" vert-adv-y="1200" 
d="M168 0l-148 530h142l86 -350l107 350h122l112 -350l91 350h130l-148 -530h-132l-117 370l-113 -370h-132zM240 580l110 160h130l110 -160h-110l-66 70l-64 -70h-110z" />
    <glyph glyph-name="Ycircumflex" unicode="&#x176;" horiz-adv-x="680" vert-adv-y="1200" 
d="M275 0v267l-265 433h175l168 -281l157 281h160l-245 -433v-267h-150zM160 750l110 150h140l110 -150h-120l-61 61l-59 -61h-120z" />
    <glyph glyph-name="ycircumflex" unicode="&#x177;" horiz-adv-x="580" vert-adv-y="1200" 
d="M150 -212q-15 0 -30 3v112q15 -3 30 -3q20 0 33.5 10t25 32t25.5 58l-224 530h148l144 -366l131 366h137l-204 -530q-29 -75 -56 -121.5t-63.5 -68.5t-96.5 -22zM115 580l110 160h130l110 -160h-110l-66 70l-64 -70h-110z" />
    <glyph glyph-name="Ydieresis" unicode="&#x178;" horiz-adv-x="680" vert-adv-y="1200" 
d="M275 0v267l-265 433h175l168 -281l157 281h160l-245 -433v-267h-150zM220 746q-35 0 -57.5 22t-22.5 57t22.5 57t57.5 22t57.5 -22t22.5 -57t-22.5 -57t-57.5 -22zM460 746q-35 0 -58 22t-23 57t23 57t58 22t57.5 -22t22.5 -57t-22.5 -57t-57.5 -22z" />
    <glyph glyph-name="Zacute" unicode="&#x179;" horiz-adv-x="619" vert-adv-y="1200" 
d="M35 0v109l360 467h-350v124h530v-109l-360 -467h370v-124h-550zM250 750l110 150h160l-150 -150h-120z" />
    <glyph glyph-name="zacute" unicode="&#x17a;" horiz-adv-x="510" vert-adv-y="1200" 
d="M30 0v95l274 325h-264v110h430v-95l-274 -325h284v-110h-450zM201 580l110 160h150l-150 -160h-110z" />
    <glyph glyph-name="Zdotaccent" unicode="&#x17b;" horiz-adv-x="619" vert-adv-y="1200" 
d="M35 0v109l360 467h-350v124h530v-109l-360 -467h370v-124h-550zM310 740q-38 0 -62 23.5t-24 61.5t24 61.5t62 23.5t62 -23.5t24 -61.5t-24 -61.5t-62 -23.5z" />
    <glyph glyph-name="zdotaccent" unicode="&#x17c;" horiz-adv-x="510" vert-adv-y="1200" 
d="M30 0v95l274 325h-264v110h430v-95l-274 -325h284v-110h-450zM256 581q-35 0 -57.5 22t-22.5 57t22.5 57t56.5 22q36 0 58.5 -22t22.5 -57t-22.5 -57t-57.5 -22z" />
    <glyph glyph-name="Zcaron" unicode="&#x17d;" horiz-adv-x="619" vert-adv-y="1200" 
d="M35 0v109l360 467h-350v124h530v-109l-360 -467h370v-124h-550zM240 750l-110 150h120l59 -61l61 61h120l-110 -150h-140z" />
    <glyph glyph-name="zcaron" unicode="&#x17e;" horiz-adv-x="510" vert-adv-y="1200" 
d="M30 0v95l274 325h-264v110h430v-95l-274 -325h284v-110h-450zM191 580l-110 160h110l64 -70l66 70h110l-110 -160h-130z" />
    <glyph glyph-name="florin" unicode="&#x192;" horiz-adv-x="370" vert-adv-y="0" 
d="M42 -212q-8 0 -27.5 0.5t-27.5 3.5v111q8 -2 22.5 -2.5t22.5 -0.5q31 0 45 13t14 41v466h-66v110h66v20q0 51 18 85.5t59.5 52.5t111.5 18q15 0 37.5 -0.5t37.5 -2.5v-112q-15 2 -32.5 2.5t-32.5 0.5q-38 0 -53 -12.5t-15 -41.5v-10h123v-110h-123v-476
q0 -49 -17.5 -84.5t-57 -53.5t-105.5 -18z" />
    <glyph glyph-name="uni0218" unicode="&#x218;" horiz-adv-x="659" vert-adv-y="1200" 
d="M330 -12q-93 0 -155 26t-94.5 72.5t-35.5 108.5h150q8 -39 36.5 -60t98.5 -21q72 0 103.5 19.5t31.5 55.5q0 30 -18.5 49t-56.5 32.5t-99 25.5q-71 14 -122 39t-77.5 68t-26.5 109q0 61 32.5 105.5t92 69.5t140.5 25q88 0 144.5 -24.5t86 -68.5t34.5 -104h-149
q-8 36 -33 53.5t-83 17.5q-59 0 -87 -19t-28 -51q0 -39 38.5 -61t121.5 -38q57 -11 101.5 -27t75.5 -41.5t47 -61.5t16 -87q0 -64 -33.5 -112t-97 -74t-154.5 -26zM275 -226v181h110v-91l-51 -90h-59z" />
    <glyph glyph-name="uni0219" unicode="&#x219;" horiz-adv-x="549" vert-adv-y="1200" 
d="M275 -12q-65 0 -109 13.5t-72.5 37t-42 53.5t-16.5 63h132q5 -26 31 -42.5t77 -16.5q58 0 83 16t25 41q0 18 -11 29.5t-39 20t-79 17.5q-44 6 -80.5 16.5t-64.5 29.5t-43.5 47.5t-15.5 69.5q0 44 26.5 80t77 57.5t121.5 21.5q77 0 123 -24t69 -62t28 -81h-132
q-8 29 -31 44t-57 15q-50 0 -71.5 -15.5t-21.5 -38.5q0 -24 23.5 -37t96.5 -23q45 -6 83.5 -17.5t67.5 -30.5t45.5 -47.5t16.5 -69.5q0 -49 -26.5 -86.5t-80 -59t-133.5 -21.5zM220 -226v181h110v-91l-51 -90h-59z" />
    <glyph glyph-name="uni021A" unicode="&#x21a;" horiz-adv-x="639" vert-adv-y="1200" 
d="M245 0v576h-225v124h599v-124h-225v-576h-149zM265 -226v181h110v-91l-51 -90h-59z" />
    <glyph glyph-name="uni021B" unicode="&#x21b;" horiz-adv-x="400" vert-adv-y="1200" 
d="M275 -6q-62 0 -102 17.5t-58.5 56.5t-18.5 101v251h-71v110h71v120h131v-120h128v-110h-128v-230q0 -45 16.5 -64.5t61.5 -19.5q30 0 60 3v-110q-19 -2 -39.5 -3.5t-50.5 -1.5zM145 -226v181h110v-91l-51 -90h-59z" />
    <glyph glyph-name="uni0237" unicode="&#x237;" horiz-adv-x="271" vert-adv-y="0" 
d="M21 -212q-11 0 -25 0.5t-25 2.5v112q8 -2 17.5 -2.5t17.5 -0.5q25 0 39 8.5t20 33t6 68.5v520h131v-530q0 -84 -16 -130t-55 -64t-110 -18z" />
    <glyph glyph-name="uni02BC" unicode="&#x2bc;" horiz-adv-x="285" vert-adv-y="0" 
d="M45 410l40 160v130h140v-130l-112 -160h-68z" />
    <glyph glyph-name="circumflex" unicode="&#x2c6;" horiz-adv-x="390" vert-adv-y="0" 
d="M20 580l110 160h130l110 -160h-110l-66 70l-64 -70h-110z" />
    <glyph glyph-name="caron" unicode="&#x2c7;" horiz-adv-x="390" vert-adv-y="0" 
d="M130 580l-110 160h110l64 -70l66 70h110l-110 -160h-130z" />
    <glyph glyph-name="breve" unicode="&#x2d8;" horiz-adv-x="380" vert-adv-y="1200" 
d="M190 585q-89 0 -129.5 38t-40.5 112h117q0 -39 13 -54.5t39 -15.5q28 0 42 15.5t14 54.5h115q0 -74 -41 -112t-129 -38z" />
    <glyph glyph-name="dotaccent" unicode="&#x2d9;" horiz-adv-x="200" vert-adv-y="0" 
d="M100 581q-35 0 -57.5 22t-22.5 57t22.5 57t56.5 22q36 0 58.5 -22t22.5 -57t-22.5 -57t-57.5 -22z" />
    <glyph glyph-name="ring" unicode="&#x2da;" horiz-adv-x="289" vert-adv-y="0" 
d="M145 565q-53 0 -89 33t-36 82q0 48 36 81.5t89 33.5t88.5 -33t35.5 -82q0 -48 -35.5 -81.5t-88.5 -33.5zM145 643q16 0 26.5 10t10.5 27t-10.5 27t-26.5 10q-17 0 -27.5 -10t-10.5 -27t10.5 -27t27.5 -10z" />
    <glyph glyph-name="ogonek" unicode="&#x2db;" horiz-adv-x="249" vert-adv-y="1200" 
d="M148 -212q-63 0 -94.5 21t-31.5 67q0 24 10.5 44t26.5 35.5t33 27t31 17.5h79q-14 -14 -32 -29t-31 -32t-13 -38q0 -16 10.5 -25.5t38.5 -9.5q10 0 15 0.5t12 1.5v-76q-13 -2 -21.5 -3t-32.5 -1z" />
    <glyph glyph-name="tilde" unicode="&#x2dc;" horiz-adv-x="380" vert-adv-y="0" 
d="M300 725l60 -35q-4 -14 -9.5 -26.5t-13.5 -23.5q-13 -19 -34 -34.5t-54 -15.5q-30 0 -50.5 11t-36 22.5t-33.5 11.5q-13 0 -22 -6t-15 -14q-4 -4 -7 -9.5t-5 -10.5l-60 35q4 14 9.5 26.5t13.5 23.5q13 19 34 34.5t52 15.5q30 0 50 -11.5t36.5 -22.5t33.5 -11q13 0 23 6
t16 14q4 5 7 10t5 10z" />
    <glyph glyph-name="hungarumlaut" unicode="&#x2dd;" horiz-adv-x="587" vert-adv-y="0" 
d="M161 580h-98l84 160h137zM374 580h-103l123 160h143z" />
    <glyph glyph-name="gravecomb" unicode="&#x300;" vert-adv-y="0" 
d="M170 580l-150 160h150l110 -160h-110z" />
    <glyph glyph-name="acutecomb" unicode="&#x301;" vert-adv-y="0" 
d="M20 580l110 160h150l-150 -160h-110z" />
    <glyph glyph-name="uni0302" unicode="&#x302;" vert-adv-y="0" 
d="M20 580l110 160h130l110 -160h-110l-66 70l-64 -70h-110z" />
    <glyph glyph-name="tildecomb" unicode="&#x303;" vert-adv-y="0" 
d="M300 725l60 -35q-4 -14 -9.5 -26.5t-13.5 -23.5q-13 -19 -34 -34.5t-54 -15.5q-30 0 -50.5 11t-36 22.5t-33.5 11.5q-13 0 -22 -6t-15 -14q-4 -4 -7 -9.5t-5 -10.5l-60 35q4 14 9.5 26.5t13.5 23.5q13 19 34 34.5t52 15.5q30 0 50 -11.5t36.5 -22.5t33.5 -11q13 0 23 6
t16 14q4 5 7 10t5 10z" />
    <glyph glyph-name="uni0304" unicode="&#x304;" vert-adv-y="0" 
d="M20 615v90h300v-90h-300z" />
    <glyph glyph-name="uni0306" unicode="&#x306;" vert-adv-y="0" 
d="M190 585q-89 0 -129.5 38t-40.5 112h117q0 -39 13 -54.5t39 -15.5q28 0 42 15.5t14 54.5h115q0 -74 -41 -112t-129 -38z" />
    <glyph glyph-name="uni0307" unicode="&#x307;" vert-adv-y="0" 
d="M100 581q-35 0 -57.5 22t-22.5 57t22.5 57t56.5 22q36 0 58.5 -22t22.5 -57t-22.5 -57t-57.5 -22z" />
    <glyph glyph-name="uni0308" unicode="&#x308;" vert-adv-y="0" 
d="M94 586q-32 0 -53 21t-21 53t21 53t53 21t53 -21t21 -53t-21 -53t-53 -21zM306 586q-32 0 -53 21t-21 53t21 53t53 21t53 -21t21 -53t-21 -53t-53 -21z" />
    <glyph glyph-name="uni030A" unicode="&#x30a;" vert-adv-y="0" 
d="M145 565q-53 0 -89 33t-36 82q0 48 36 81.5t89 33.5t88.5 -33t35.5 -82q0 -48 -35.5 -81.5t-88.5 -33.5zM145 643q16 0 26.5 10t10.5 27t-10.5 27t-26.5 10q-17 0 -27.5 -10t-10.5 -27t10.5 -27t27.5 -10z" />
    <glyph glyph-name="uni030B" unicode="&#x30b;" vert-adv-y="0" 
d="M161 580h-98l84 160h137zM374 580h-103l123 160h143z" />
    <glyph glyph-name="uni030C" unicode="&#x30c;" vert-adv-y="0" 
d="M130 580l-110 160h110l64 -70l66 70h110l-110 -160h-130z" />
    <glyph glyph-name="uni0312" unicode="&#x312;" vert-adv-y="1200" 
d="M55 794v-181h-110v91l51 90h59z" />
    <glyph glyph-name="uni0326" unicode="&#x326;" vert-adv-y="1200" 
d="M60 -226v181h110v-91l-51 -90h-59z" />
    <glyph glyph-name="uni0327" unicode="&#x327;" vert-adv-y="0" 
d="M90 -212q-17 0 -30 1t-22 3q-5 1 -9.5 2t-8.5 2v72l14 -2q7 -1 16 -1.5t20 -0.5q27 0 36.5 8.5t9.5 17.5q0 12 -9 20.5t-40 8.5l17 91h76l-7 -46q38 -9 52 -31.5t14 -47.5q0 -44 -30 -70.5t-99 -26.5z" />
    <glyph glyph-name="uni0328" unicode="&#x328;" vert-adv-y="1200" 
d="M148 -212q-63 0 -94.5 21t-31.5 67q0 24 10.5 44t26.5 35.5t33 27t31 17.5h79q-14 -14 -32 -29t-31 -32t-13 -38q0 -16 10.5 -25.5t38.5 -9.5q10 0 15 0.5t12 1.5v-76q-13 -2 -21.5 -3t-32.5 -1z" />
    <glyph glyph-name="uni0401" unicode="&#x401;" horiz-adv-x="620" vert-adv-y="1200" 
d="M81 0v700h488v-124h-338v-156h308v-120h-308v-176h338v-124h-488zM205 746q-35 0 -57.5 22t-22.5 57t22.5 57t57.5 22t57.5 -22t22.5 -57t-22.5 -57t-57.5 -22zM445 746q-35 0 -58 22t-23 57t23 57t58 22t57.5 -22t22.5 -57t-22.5 -57t-57.5 -22z" />
    <glyph glyph-name="uni0402" unicode="&#x402;" horiz-adv-x="830" vert-adv-y="0" 
d="M245 0v576h-225v124h599v-124h-225v-163q26 17 71 31t105 14q109 0 166.5 -58t57.5 -168v-20q0 -104 -61 -161t-193 -57q-8 0 -25 0.5t-25 2.5v126q8 -2 20 -2.5t20 -0.5q52 0 80.5 27t28.5 69v20q0 42 -28.5 69t-80.5 27q-47 0 -80.5 -12.5t-55.5 -26.5v-293h-149z" />
    <glyph glyph-name="uni0403" unicode="&#x403;" horiz-adv-x="560" vert-adv-y="1200" 
d="M81 0v700h459v-124h-310v-576h-149zM254 750l110 150h160l-150 -150h-120z" />
    <glyph glyph-name="uni0404" unicode="&#x404;" horiz-adv-x="699" vert-adv-y="0" 
d="M365 -12q-66 0 -123 20t-100.5 62.5t-67.5 110.5t-24 164v20q0 90 24 155.5t66.5 108t100 63t124.5 20.5q59 0 110.5 -14.5t91.5 -43.5t64.5 -75t28.5 -108h-156q-11 59 -48 87t-91 28q-41 0 -75 -16.5t-54.5 -54.5t-27.5 -101h242v-116h-242q4 -52 19 -87t36.5 -56.5
t47.5 -31t54 -9.5q57 0 94 29.5t45 85.5h156q-5 -65 -29 -111.5t-63 -75t-91 -41.5t-112 -13z" />
    <glyph glyph-name="uni0405" unicode="&#x405;" horiz-adv-x="659" vert-adv-y="1200" 
d="M330 -12q-93 0 -155 26t-94.5 72.5t-35.5 108.5h150q8 -39 36.5 -60t98.5 -21q72 0 103.5 19.5t31.5 55.5q0 30 -18.5 49t-56.5 32.5t-99 25.5q-71 14 -122 39t-77.5 68t-26.5 109q0 61 32.5 105.5t92 69.5t140.5 25q88 0 144.5 -24.5t86 -68.5t34.5 -104h-149
q-8 36 -33 53.5t-83 17.5q-59 0 -87 -19t-28 -51q0 -39 38.5 -61t121.5 -38q57 -11 101.5 -27t75.5 -41.5t47 -61.5t16 -87q0 -64 -33.5 -112t-97 -74t-154.5 -26z" />
    <glyph glyph-name="uni0406" unicode="&#x406;" horiz-adv-x="330" vert-adv-y="1200" 
d="M91 0v700h149v-700h-149z" />
    <glyph glyph-name="uni0407" unicode="&#x407;" horiz-adv-x="330" vert-adv-y="1200" 
d="M91 0v700h149v-700h-149zM45 746q-35 0 -57.5 22t-22.5 57t22.5 57t57.5 22t57.5 -22t22.5 -57t-22.5 -57t-57.5 -22zM285 746q-35 0 -58 22t-23 57t23 57t58 22t57.5 -22t22.5 -57t-22.5 -57t-57.5 -22z" />
    <glyph glyph-name="uni0408" unicode="&#x408;" horiz-adv-x="575" vert-adv-y="1200" 
d="M255 -12q-74 0 -124 27t-77 79t-29 126h142q2 -53 24 -79t64 -26q32 0 51.5 12.5t29 42.5t9.5 80v450h150v-450q0 -94 -29.5 -151.5t-82.5 -84t-128 -26.5z" />
    <glyph glyph-name="uni0409" unicode="&#x409;" horiz-adv-x="1055" vert-adv-y="0" 
d="M65 -12q-8 0 -20 0.5t-20 2.5v134q3 -1 15 -1q21 0 36.5 6.5t26.5 28.5t18 63.5t10.5 109t3.5 168.5v200h500v-250h110q143 0 211.5 -61.5t68.5 -163.5t-68.5 -163.5t-211.5 -61.5h-260v576h-208v-96q0 -126 -9 -214t-26.5 -143t-43 -84t-59.5 -40t-74 -11zM635 124h95
q80 0 112.5 27t32.5 74t-32.5 74t-112.5 27h-95v-202z" />
    <glyph glyph-name="uni040A" unicode="&#x40a;" horiz-adv-x="1090" vert-adv-y="0" 
d="M81 0v700h149v-268h290v268h149v-268h121q139 0 204.5 -59t65.5 -157t-65.5 -157t-204.5 -59h-270v308h-290v-308h-149zM669 124h106q78 0 107 23.5t29 68.5t-29 68.5t-107 23.5h-106v-184z" />
    <glyph glyph-name="uni040B" unicode="&#x40b;" horiz-adv-x="845" vert-adv-y="0" 
d="M245 0v576h-225v124h599v-124h-225v-163q26 17 71 31t105 14q114 0 169 -56.5t55 -177.5v-224h-149v205q0 68 -27.5 97.5t-87.5 29.5q-47 0 -80.5 -12.5t-55.5 -26.5v-293h-149z" />
    <glyph glyph-name="uni040C" unicode="&#x40c;" horiz-adv-x="710" vert-adv-y="1200" 
d="M81 0v700h149v-285h60l224 285h165l-274 -331l284 -369h-175l-224 305h-60v-305h-149zM309 750l110 150h160l-150 -150h-120z" />
    <glyph glyph-name="uni040E" unicode="&#x40e;" horiz-adv-x="689" vert-adv-y="1200" 
d="M205 -12q-11 0 -21.5 1t-18.5 2v119q8 -1 18.5 -1.5t21.5 -0.5q30 0 45.5 7t24 23t20.5 41l-285 521h162l196 -375l156 375h156l-237 -540q-21 -46 -42.5 -79t-49 -53.5t-62.5 -30t-84 -9.5zM347 740q-64 0 -106.5 19.5t-62.5 57t-20 93.5h126q0 -48 16 -66t47 -18
q33 0 49 18t16 66h126q0 -56 -20 -93.5t-62 -57t-109 -19.5z" />
    <glyph glyph-name="uni040F" unicode="&#x40f;" horiz-adv-x="740" vert-adv-y="0" 
d="M303 -130v130h-222v700h149v-576h280v576h149v-700h-222v-130h-134z" />
    <glyph glyph-name="uni0410" unicode="&#x410;" horiz-adv-x="689" vert-adv-y="1200" 
d="M10 0l260 700h149l261 -700h-158l-54 143h-259l-53 -143h-146zM255 267h168l-84 243z" />
    <glyph glyph-name="uni0411" unicode="&#x411;" horiz-adv-x="675" vert-adv-y="0" 
d="M81 0v700h493v-124h-344v-134h130q143 0 211 -61t68 -160t-68 -160t-211 -61h-279zM230 124h115q82 0 113.5 25.5t31.5 71.5t-31.5 71.5t-113.5 25.5h-115v-194z" />
    <glyph glyph-name="uni0412" unicode="&#x412;" horiz-adv-x="680" vert-adv-y="1200" 
d="M81 0v700h299q118 0 173.5 -49.5t55.5 -137.5q0 -54 -26.5 -92.5t-71.5 -55.5q60 -14 94 -56.5t34 -110.5q0 -60 -25 -104.5t-79 -69t-142 -24.5h-312zM230 114h136q70 0 97 24t27 71t-26.5 73.5t-98.5 26.5h-135v-195zM230 411h120q61 0 85.5 24t24.5 65q0 42 -24 64
t-85 22h-121v-175z" />
    <glyph glyph-name="uni0413" unicode="&#x413;" horiz-adv-x="560" vert-adv-y="0" 
d="M81 0v700h459v-124h-310v-576h-149z" />
    <glyph glyph-name="uni0414" unicode="&#x414;" horiz-adv-x="749" vert-adv-y="0" 
d="M20 -130v254h78q15 35 25.5 84t16.5 105t8.5 114.5t2.5 113.5v159h492v-576h76v-254h-132v130h-433v-130h-134zM243 124h251v452h-201v-55q0 -138 -13.5 -232.5t-36.5 -164.5z" />
    <glyph glyph-name="uni0415" unicode="&#x415;" horiz-adv-x="620" vert-adv-y="1200" 
d="M81 0v700h488v-124h-338v-156h308v-120h-308v-176h338v-124h-488z" />
    <glyph glyph-name="uni0416" unicode="&#x416;" horiz-adv-x="1000" vert-adv-y="0" 
d="M20 0l240 364l-230 336h160l185 -285h50v285h150v-285h50l191 285h154l-230 -329l240 -371h-166l-189 305h-50v-305h-150v305h-50l-191 -305h-164z" />
    <glyph glyph-name="uni0417" unicode="&#x417;" horiz-adv-x="657" vert-adv-y="0" 
d="M325 -12q-92 0 -155.5 28t-97 80.5t-37.5 122.5h156q4 -33 19 -56.5t43.5 -36t71.5 -12.5q70 0 102.5 26t32.5 71q0 30 -13.5 52t-44 34t-82.5 12h-74v102h74q63 0 89 27.5t26 65.5q0 37 -26.5 59.5t-83.5 22.5q-38 0 -63.5 -9.5t-39 -29.5t-16.5 -51h-156
q5 105 72 160.5t203 55.5q135 0 200 -52.5t65 -145.5q0 -55 -27 -93.5t-79 -55.5q64 -15 97.5 -57.5t33.5 -110.5q0 -61 -32 -108.5t-96 -74t-162 -26.5z" />
    <glyph glyph-name="uni0418" unicode="&#x418;" horiz-adv-x="760" vert-adv-y="0" 
d="M81 0v700h149v-465l305 465h144v-700h-149v465l-306 -465h-143z" />
    <glyph glyph-name="uni0419" unicode="&#x419;" horiz-adv-x="760" vert-adv-y="1200" 
d="M81 0v700h149v-465l305 465h144v-700h-149v465l-306 -465h-143zM380 740q-64 0 -106.5 19.5t-62.5 57t-20 93.5h126q0 -48 16 -66t47 -18q33 0 49 18t16 66h126q0 -56 -20 -93.5t-62 -57t-109 -19.5z" />
    <glyph glyph-name="uni041A" unicode="&#x41a;" horiz-adv-x="710" vert-adv-y="0" 
d="M81 0v700h149v-285h60l224 285h165l-274 -331l284 -369h-175l-224 305h-60v-305h-149z" />
    <glyph glyph-name="uni041B" unicode="&#x41b;" horiz-adv-x="725" vert-adv-y="0" 
d="M65 -12q-8 0 -20 0.5t-20 2.5v134q3 -1 15 -1q20 0 36 6.5t27 28.5t18 63.5t10.5 109t3.5 168.5v200h510v-700h-150v576h-218v-96q0 -127 -9 -214.5t-26.5 -142.5t-43 -84t-59.5 -40t-74 -11z" />
    <glyph glyph-name="uni041C" unicode="&#x41c;" horiz-adv-x="879" vert-adv-y="1200" 
d="M81 0v700h149l213 -394l212 394h145v-700h-150v445l-166 -305h-89l-165 305v-445h-149z" />
    <glyph glyph-name="uni041D" unicode="&#x41d;" horiz-adv-x="760" vert-adv-y="1200" 
d="M81 0v700h149v-278h300v278h149v-700h-149v298h-300v-298h-149z" />
    <glyph glyph-name="uni041E" unicode="&#x41e;" horiz-adv-x="759" vert-adv-y="1200" 
d="M380 -12q-66 0 -125 20t-105.5 62.5t-73 110.5t-26.5 164v20q0 92 26.5 157.5t73 107.5t105.5 62t125 20t125 -20t105.5 -62t73 -107.5t26.5 -157.5v-20q0 -96 -26.5 -164t-73 -110.5t-105.5 -62.5t-125 -20zM380 114q46 0 85.5 21.5t64 72t24.5 137.5v20
q0 82 -24.5 130.5t-64 69.5t-85.5 21q-45 0 -85 -21t-64.5 -69.5t-24.5 -130.5v-20q0 -87 24.5 -137.5t64.5 -72t85 -21.5z" />
    <glyph glyph-name="uni041F" unicode="&#x41f;" horiz-adv-x="750" vert-adv-y="0" 
d="M81 0v700h588v-700h-149v576h-290v-576h-149z" />
    <glyph glyph-name="uni0420" unicode="&#x420;" horiz-adv-x="665" vert-adv-y="1200" 
d="M81 0v700h269q95 0 157 -28.5t92 -80t30 -121.5t-30 -121.5t-92 -80t-157 -28.5h-120v-240h-149zM230 364h105q80 0 112.5 27t32.5 79q0 51 -32.5 78.5t-112.5 27.5h-105v-212z" />
    <glyph glyph-name="uni0421" unicode="&#x421;" horiz-adv-x="699" vert-adv-y="1200" 
d="M365 -12q-91 0 -162.5 36.5t-112 115t-40.5 205.5v20q0 92 24 157.5t67.5 107.5t100.5 62t123 20q59 0 110.5 -14.5t91.5 -43.5t64.5 -75t28.5 -108h-156q-11 59 -48 87t-91 28q-42 0 -78 -20.5t-58.5 -68.5t-22.5 -132v-20q0 -66 14 -110.5t37 -71t51 -38t57 -11.5
q57 0 94 29.5t45 85.5h156q-5 -65 -29 -111.5t-63 -75t-91 -41.5t-112 -13z" />
    <glyph glyph-name="uni0422" unicode="&#x422;" horiz-adv-x="639" vert-adv-y="1200" 
d="M245 0v576h-225v124h599v-124h-225v-576h-149z" />
    <glyph glyph-name="uni0423" unicode="&#x423;" horiz-adv-x="689" vert-adv-y="0" 
d="M205 -12q-11 0 -21.5 1t-18.5 2v119q8 -1 18.5 -1.5t21.5 -0.5q30 0 45.5 7t24 23t20.5 41l-285 521h162l196 -375l156 375h156l-237 -540q-21 -46 -42.5 -79t-49 -53.5t-62.5 -30t-84 -9.5z" />
    <glyph glyph-name="uni0424" unicode="&#x424;" horiz-adv-x="900" vert-adv-y="0" 
d="M375 -30v62q-105 0 -179 39.5t-112.5 111.5t-38.5 167v20q0 86 38.5 153.5t112.5 106t179 38.5v62h150v-62q105 0 178.5 -38.5t112.5 -106t39 -153.5v-20q0 -95 -39 -167t-112.5 -111.5t-178.5 -39.5v-62h-150zM700 350v20q0 55 -19.5 93t-58.5 58.5t-97 20.5v-384
q59 0 97.5 21.5t58 64t19.5 106.5zM201 370v-20q0 -64 18.5 -107.5t57 -64t98.5 -20.5v384q-58 0 -97 -20.5t-58 -58.5t-19 -93z" />
    <glyph glyph-name="uni0425" unicode="&#x425;" horiz-adv-x="700" vert-adv-y="1200" 
d="M20 0l235 365l-225 335h168l154 -229l155 229h163l-223 -332l233 -368h-169l-163 262l-162 -262h-166z" />
    <glyph glyph-name="uni0426" unicode="&#x426;" horiz-adv-x="775" vert-adv-y="0" 
d="M611 -130v130h-530v700h149v-576h280v576h149v-576h86v-254h-134z" />
    <glyph glyph-name="uni0427" unicode="&#x427;" horiz-adv-x="680" vert-adv-y="0" 
d="M450 0v287q-26 -17 -70.5 -31t-103.5 -14q-115 0 -170.5 56.5t-55.5 177.5v224h150v-205q0 -68 27.5 -97.5t87.5 -29.5q47 0 80.5 12.5t54.5 26.5v293h150v-700h-150z" />
    <glyph glyph-name="uni0428" unicode="&#x428;" horiz-adv-x="989" vert-adv-y="0" 
d="M81 0v700h149v-576h190v576h149v-576h191v576h150v-700h-829z" />
    <glyph glyph-name="uni0429" unicode="&#x429;" horiz-adv-x="1025" vert-adv-y="0" 
d="M81 0v700h149v-576h190v576h149v-576h191v576h150v-576h85v-254h-134v130h-780z" />
    <glyph glyph-name="uni042A" unicode="&#x42a;" horiz-adv-x="740" vert-adv-y="0" 
d="M161 0v576h-141v124h290v-250h120q143 0 211 -61.5t68 -163.5t-68 -163.5t-211 -61.5h-269zM310 124h105q80 0 112.5 27t32.5 74t-32.5 74t-112.5 27h-105v-202z" />
    <glyph glyph-name="uni042B" unicode="&#x42b;" horiz-adv-x="909" vert-adv-y="0" 
d="M81 0v700h149v-250h100q143 0 211 -61.5t68 -163.5t-68 -163.5t-211 -61.5h-249zM230 124h85q80 0 112.5 27t32.5 74t-32.5 74t-112.5 27h-85v-202zM680 0v700h150v-700h-150z" />
    <glyph glyph-name="uni042C" unicode="&#x42c;" horiz-adv-x="660" vert-adv-y="0" 
d="M81 0v700h149v-250h120q143 0 211 -61.5t68 -163.5t-68 -163.5t-211 -61.5h-269zM230 124h105q80 0 112.5 27t32.5 74t-32.5 74t-112.5 27h-105v-202z" />
    <glyph glyph-name="uni042D" unicode="&#x42d;" horiz-adv-x="699" vert-adv-y="0" 
d="M335 -12q-60 0 -112 13t-91 41.5t-63 75t-29 111.5h156q8 -56 45 -85.5t94 -29.5q28 0 54 9.5t47.5 31t36 56.5t19.5 87h-242v116h241q-6 63 -28 101t-54.5 54.5t-73.5 16.5q-54 0 -91 -28t-48 -87h-156q4 62 28.5 108t64.5 75t91.5 43.5t110.5 14.5q67 0 124.5 -20.5
t100 -63t66.5 -108t24 -155.5v-20q0 -96 -24 -164t-67.5 -110.5t-100.5 -62.5t-123 -20z" />
    <glyph glyph-name="Yucy" unicode="&#x42e;" horiz-adv-x="970" vert-adv-y="0" 
d="M81 0v700h149v-278h88q10 101 51 164.5t105 94.5t141 31q88 0 157 -35.5t108 -111.5t39 -200v-20q0 -126 -40 -205t-109 -115.5t-155 -36.5q-80 0 -144.5 31.5t-105 99.5t-48.5 179h-87v-298h-149zM615 114q43 0 76 21.5t53 72t20 137.5v20q0 82 -20 130.5t-53 69.5
t-76 21q-42 0 -75.5 -21t-53.5 -69.5t-20 -130.5v-20q0 -87 20 -137.5t53.5 -72t75.5 -21.5z" />
    <glyph glyph-name="Yacy" unicode="&#x42f;" horiz-adv-x="695" vert-adv-y="0" 
d="M35 0l179 272q-75 24 -112 77t-37 126q0 68 30 118.5t89 78.5t146 28h285v-700h-150v256h-110l-156 -256h-164zM215 475q0 -50 31 -75.5t114 -25.5h105v202h-105q-83 0 -114 -25.5t-31 -75.5z" />
    <glyph glyph-name="uni0430" unicode="&#x430;" horiz-adv-x="575" vert-adv-y="1200" 
d="M219 -12q-57 0 -97 21.5t-61 59.5t-21 86q0 80 47.5 120t142.5 40h158v25q0 52 -23.5 73t-74.5 21q-45 0 -65 -15.5t-23 -38.5h-132q3 46 29.5 82.5t76 58t119.5 21.5q68 0 118.5 -20t78.5 -64.5t28 -119.5v-203q0 -42 1.5 -73.5t5.5 -61.5h-123q-4 22 -4.5 33.5
t-0.5 34.5q-21 -32 -66 -56t-114 -24zM260 90q32 0 61.5 11.5t48 36t18.5 62.5v25h-133q-38 0 -59.5 -17.5t-21.5 -47.5q0 -32 22 -51t64 -19z" />
    <glyph glyph-name="uni0431" unicode="&#x431;" horiz-adv-x="595" vert-adv-y="0" 
d="M300 -12q-73 0 -132.5 34t-93.5 101.5t-34 167.5v22q0 120 25 204.5t84.5 131.5t164.5 52q42 2 81 3.5t71 6t54 14.5v-117q-10 -6 -33 -11t-61 -7.5t-97 -3.5q-60 -1 -98 -17.5t-58 -54.5t-27 -103q16 30 41 52.5t62 35.5t86 13q66 0 117 -27t79.5 -80t28.5 -130v-19
q0 -84 -34 -144t-92.5 -92t-133.5 -32zM300 100q60 0 93 39.5t33 112.5v20q0 64 -34 99.5t-92 35.5t-92 -36t-34 -99v-18q0 -48 16.5 -82.5t45 -53t64.5 -18.5z" />
    <glyph glyph-name="uni0432" unicode="&#x432;" horiz-adv-x="575" vert-adv-y="0" 
d="M61 0v530h264q69 0 112 -18t62.5 -50t19.5 -75q0 -36 -22 -68.5t-62 -43.5q49 -12 76.5 -45.5t27.5 -78.5q0 -69 -48 -110t-146 -41h-284zM192 106h128q45 0 66.5 13.5t21.5 43.5t-20.5 43.5t-67.5 13.5h-128v-114zM192 318h115q46 0 63.5 13t17.5 40q0 26 -18 39.5
t-63 13.5h-115v-106z" />
    <glyph glyph-name="uni0433" unicode="&#x433;" horiz-adv-x="470" vert-adv-y="0" 
d="M70 0v530h380v-110h-248v-420h-132z" />
    <glyph glyph-name="uni0434" unicode="&#x434;" horiz-adv-x="624" vert-adv-y="0" 
d="M20 -125v235h60q14 21 22.5 63t13 94.5t4.5 103.5v159h415v-420h64v-235h-115v125h-349v-125h-115zM209 110h194v310h-163v-69q0 -70 -6.5 -135.5t-24.5 -105.5z" />
    <glyph glyph-name="uni0435" unicode="&#x435;" horiz-adv-x="580" vert-adv-y="1200" 
d="M300 -12q-72 0 -132.5 29.5t-96.5 90t-36 152.5v20q0 88 34.5 146t92.5 87t128 29q125 0 190 -66t65 -191v-56h-375q2 -47 20.5 -76.5t47.5 -43t62 -13.5q51 0 77 15t37 44h121q-16 -83 -79 -125t-156 -42zM295 434q-31 0 -60 -10t-46 -35.5t-19 -67.5h247
q-1 45 -17.5 69.5t-43.5 34t-61 9.5z" />
    <glyph glyph-name="uni0436" unicode="&#x436;" horiz-adv-x="819" vert-adv-y="0" 
d="M15 0l188 276l-178 254h138l142 -208h39v208h132v-208h40l143 208h136l-177 -251l187 -279h-148l-141 218h-40v-218h-132v218h-40l-145 -218h-144z" />
    <glyph glyph-name="uni0437" unicode="&#x437;" horiz-adv-x="544" vert-adv-y="0" 
d="M270 -12q-76 0 -128.5 21t-80 62t-31.5 98h134q2 -21 12.5 -37t33 -24t60.5 -8q58 0 82 17.5t24 42.5q0 30 -19.5 45t-71.5 15h-81v98h74q38 0 58 16t20 42q0 23 -19.5 38.5t-66.5 15.5q-49 0 -71 -16.5t-25 -47.5h-134q4 57 30.5 96t77 59.5t122.5 20.5q116 0 168 -42.5
t52 -112.5q0 -38 -19.5 -68t-61.5 -44q57 -14 79 -45.5t22 -74.5q0 -48 -26 -86t-79 -59.5t-135 -21.5z" />
    <glyph glyph-name="uni0438" unicode="&#x438;" horiz-adv-x="610" vert-adv-y="0" 
d="M61 0v530h131v-340l236 340h121v-530h-131v340l-236 -340h-121z" />
    <glyph glyph-name="uni0439" unicode="&#x439;" horiz-adv-x="610" vert-adv-y="1200" 
d="M61 0v530h131v-340l236 340h121v-530h-131v340l-236 -340h-121zM306 585q-89 0 -129.5 38t-40.5 112h117q0 -39 13 -54.5t39 -15.5q28 0 42 15.5t14 54.5h115q0 -74 -41 -112t-129 -38z" />
    <glyph glyph-name="uni043A" unicode="&#x43a;" horiz-adv-x="575" vert-adv-y="0" 
d="M61 0v530h131v-208h49l164 208h145l-200 -251l210 -279h-158l-161 218h-49v-218h-131z" />
    <glyph glyph-name="uni043B" unicode="&#x43b;" horiz-adv-x="595" vert-adv-y="0" 
d="M65 -12q-8 0 -20 0.5t-20 2.5v119q3 -1 15 -1q26 0 42.5 21.5t24.5 74.5t8 145v180h420v-530h-132v420h-166v-90q0 -103 -10.5 -170t-32 -104.5t-53.5 -52.5t-76 -15z" />
    <glyph glyph-name="uni043C" unicode="&#x43c;" horiz-adv-x="720" vert-adv-y="0" 
d="M61 0v530h155l147 -286l147 286h149v-530h-125v345l-129 -240h-90l-129 240v-345h-125z" />
    <glyph glyph-name="uni043D" unicode="&#x43d;" horiz-adv-x="610" vert-adv-y="0" 
d="M61 0v530h131v-205h226v205h131v-530h-131v215h-226v-215h-131z" />
    <glyph glyph-name="uni043E" unicode="&#x43e;" horiz-adv-x="600" vert-adv-y="1200" 
d="M300 -12q-72 0 -132.5 29.5t-96.5 90t-36 152.5v20q0 87 36 145t96.5 87.5t132.5 29.5t132.5 -29.5t96.5 -87.5t36 -145v-20q0 -90 -36 -150.5t-96.5 -91t-132.5 -30.5zM300 100q38 0 67.5 17.5t46.5 53.5t17 89v20q0 49 -17 82t-46.5 50.5t-67.5 17.5t-67.5 -17.5
t-46.5 -50.5t-17 -82v-20q0 -54 17 -89.5t46.5 -53t67.5 -17.5z" />
    <glyph glyph-name="uni043F" unicode="&#x43f;" horiz-adv-x="600" vert-adv-y="0" 
d="M61 0v530h478v-530h-131v420h-216v-420h-131z" />
    <glyph glyph-name="uni0440" unicode="&#x440;" horiz-adv-x="615" vert-adv-y="1200" 
d="M61 -200v730h122v-78q20 36 63 63t109 27q106 0 165.5 -65.5t59.5 -196.5v-20q0 -91 -27.5 -151.5t-77.5 -90.5t-120 -30q-54 0 -95.5 23.5t-67.5 61.5v-273h-131zM324 100q52 0 87 39.5t35 120.5v20q0 75 -33.5 112.5t-88.5 37.5q-38 0 -68 -14.5t-47 -43t-17 -72.5v-60
q0 -47 16.5 -78.5t46.5 -46.5t69 -15z" />
    <glyph glyph-name="uni0441" unicode="&#x441;" horiz-adv-x="564" vert-adv-y="1200" 
d="M295 -12q-73 0 -132 30.5t-93.5 91t-34.5 150.5v20q0 86 36 144t95 88t129 30q75 0 127 -25t80.5 -69t32.5 -97h-134q-8 36 -32.5 57.5t-73.5 21.5q-34 0 -62.5 -16t-46 -49t-17.5 -85v-20q0 -56 16.5 -91.5t45 -52t64.5 -16.5q39 0 67.5 20.5t38.5 58.5h134
q-6 -57 -38 -101t-84.5 -67t-117.5 -23z" />
    <glyph glyph-name="uni0442" unicode="&#x442;" horiz-adv-x="509" vert-adv-y="0" 
d="M189 0v420h-169v110h469v-110h-168v-420h-132z" />
    <glyph glyph-name="uni0443" unicode="&#x443;" horiz-adv-x="580" vert-adv-y="1200" 
d="M150 -212q-15 0 -30 3v112q15 -3 30 -3q20 0 33.5 10t25 32t25.5 58l-224 530h148l144 -366l131 366h137l-204 -530q-29 -75 -56 -121.5t-63.5 -68.5t-96.5 -22z" />
    <glyph glyph-name="uni0444" unicode="&#x444;" horiz-adv-x="759" vert-adv-y="0" 
d="M314 -200v188q-137 0 -208 70.5t-71 201.5v20q0 127 71 194.5t208 67.5v158h132v-158q136 0 207.5 -67.5t71.5 -193.5v-21q0 -132 -71.5 -202t-207.5 -70v-188h-132zM591 260v20q0 75 -35.5 112.5t-113.5 37.5v-330q78 0 113.5 40.5t35.5 119.5zM169 281v-21
q0 -79 36 -119.5t113 -40.5v330q-78 0 -113.5 -38t-35.5 -111z" />
    <glyph glyph-name="uni0445" unicode="&#x445;" horiz-adv-x="569" vert-adv-y="1200" 
d="M15 0l180 276l-170 254h147l116 -170l114 170h143l-168 -249l178 -281h-148l-124 198l-123 -198h-145z" />
    <glyph glyph-name="uni0446" unicode="&#x446;" horiz-adv-x="630" vert-adv-y="0" 
d="M489 -125v125h-428v530h131v-420h206v420h131v-420h76v-235h-116z" />
    <glyph glyph-name="uni0447" unicode="&#x447;" horiz-adv-x="565" vert-adv-y="0" 
d="M373 0v195q-23 -14 -55 -25t-78 -11q-97 0 -146 46.5t-49 144.5v180h132v-165q0 -52 21.5 -73t76.5 -21q38 0 62.5 9t35.5 17v233h132v-530h-132z" />
    <glyph glyph-name="uni0448" unicode="&#x448;" horiz-adv-x="829" vert-adv-y="0" 
d="M61 0v530h131v-420h157v420h132v-420h158v420h131v-530h-709z" />
    <glyph glyph-name="uni0449" unicode="&#x449;" horiz-adv-x="870" vert-adv-y="0" 
d="M729 -125v125h-668v530h131v-420h157v420h132v-420h158v420h131v-420h75v-235h-116z" />
    <glyph glyph-name="uni044A" unicode="&#x44a;" horiz-adv-x="615" vert-adv-y="0" 
d="M141 0v420h-121v110h252v-178h113q103 0 153.5 -44t50.5 -132q0 -52 -21 -91.5t-65.5 -62t-117.5 -22.5h-244zM272 106h98q48 0 68 18t20 52q0 35 -20.5 53t-67.5 18h-98v-141z" />
    <glyph glyph-name="uni044B" unicode="&#x44b;" horiz-adv-x="749" vert-adv-y="1200" 
d="M61 0v530h131v-178h93q103 0 153.5 -44t50.5 -132q0 -52 -21 -91.5t-65.5 -62t-117.5 -22.5h-224zM192 106h78q48 0 68 18t20 52q0 35 -20.5 53t-67.5 18h-78v-141zM549 0v530h131v-530h-131z" />
    <glyph glyph-name="uni044C" unicode="&#x44c;" horiz-adv-x="535" vert-adv-y="0" 
d="M60 0v530h132v-178h113q103 0 154 -44t51 -132q0 -52 -21 -91.5t-66 -62t-118 -22.5h-245zM192 106h98q48 0 68.5 17.5t20.5 52.5t-21 53t-68 18h-98v-141z" />
    <glyph glyph-name="uni044D" unicode="&#x44d;" horiz-adv-x="564" vert-adv-y="0" 
d="M270 -12q-66 0 -118 23t-84 67t-38 101h134q10 -38 38.5 -58.5t67.5 -20.5q54 0 85 29t39 93h-184v96h183q-8 57 -40 84.5t-83 27.5q-49 0 -73.5 -21.5t-32.5 -57.5h-134q4 53 32.5 97t81 69t126.5 25q75 0 134 -30t92.5 -88t33.5 -144v-20q0 -90 -32.5 -150.5t-90.5 -91
t-137 -30.5z" />
    <glyph glyph-name="yucy" unicode="&#x44e;" horiz-adv-x="775" vert-adv-y="0" 
d="M61 0v530h131v-205h42q10 72 44 120t87.5 72.5t119.5 24.5q72 0 130 -29.5t91.5 -87.5t33.5 -145v-20q0 -90 -33.5 -150.5t-91.5 -91t-130 -30.5q-66 0 -120 24.5t-88.5 75t-42.5 127.5h-42v-215h-131zM485 100q32 0 59.5 16.5t44.5 52.5t17 91v20q0 51 -17 84.5
t-44.5 49.5t-59.5 16t-59.5 -16t-44.5 -49.5t-17 -84.5v-20q0 -56 17 -91.5t44.5 -52t59.5 -16.5z" />
    <glyph glyph-name="yacy" unicode="&#x44f;" horiz-adv-x="580" vert-adv-y="0" 
d="M30 0l137 199q-61 20 -89 60t-28 94q0 52 24 92t73 62.5t123 22.5h250v-530h-132v183h-95l-115 -183h-148zM182 353q0 -34 22.5 -50t60.5 -16h123v133h-123q-38 0 -60.5 -16.5t-22.5 -50.5z" />
    <glyph glyph-name="uni0451" unicode="&#x451;" horiz-adv-x="580" vert-adv-y="1200" 
d="M300 -12q-72 0 -132.5 29.5t-96.5 90t-36 152.5v20q0 88 34.5 146t92.5 87t128 29q125 0 190 -66t65 -191v-56h-375q2 -47 20.5 -76.5t47.5 -43t62 -13.5q51 0 77 15t37 44h121q-16 -83 -79 -125t-156 -42zM295 434q-31 0 -60 -10t-46 -35.5t-19 -67.5h247
q-1 45 -17.5 69.5t-43.5 34t-61 9.5zM185 586q-32 0 -53 21t-21 53t21 53t53 21t53 -21t21 -53t-21 -53t-53 -21zM397 586q-32 0 -53 21t-21 53t21 53t53 21t53 -21t21 -53t-21 -53t-53 -21z" />
    <glyph glyph-name="uni0452" unicode="&#x452;" horiz-adv-x="640" vert-adv-y="0" 
d="M110 0v434h-90v96h90v170h132v-170h217v-96h-217v-137q12 21 33 40t53 32t75 13q92 0 139 -52t47 -150v-180q0 -84 -15.5 -130t-54.5 -64t-109 -18q-11 0 -25 0.5t-25 2.5v112q8 -2 17.5 -2.5t17.5 -0.5q24 0 38 8.5t19.5 33t5.5 68.5v139q0 60 -24.5 90.5t-78.5 30.5
q-40 0 -65 -17t-36.5 -44.5t-11.5 -59.5v-149h-132z" />
    <glyph glyph-name="uni0453" unicode="&#x453;" horiz-adv-x="470" vert-adv-y="1200" 
d="M70 0v530h380v-110h-248v-420h-132zM205 580l110 160h150l-150 -160h-110z" />
    <glyph glyph-name="uni0454" unicode="&#x454;" horiz-adv-x="564" vert-adv-y="0" 
d="M295 -12q-73 0 -132 30.5t-93.5 91t-34.5 150.5v20q0 86 36 144t95 88t129 30q75 0 127 -25t80.5 -69t32.5 -97h-134q-8 36 -32.5 57.5t-73.5 21.5q-30 0 -55.5 -12t-44 -37t-24.5 -63h184v-96h-184q6 -42 23 -69t43 -40t58 -13q39 0 67.5 20.5t38.5 58.5h134
q-6 -57 -38 -101t-84.5 -67t-117.5 -23z" />
    <glyph glyph-name="uni0455" unicode="&#x455;" horiz-adv-x="549" vert-adv-y="1200" 
d="M275 -12q-65 0 -109 13.5t-72.5 37t-42 53.5t-16.5 63h132q5 -26 31 -42.5t77 -16.5q58 0 83 16t25 41q0 18 -11 29.5t-39 20t-79 17.5q-44 6 -80.5 16.5t-64.5 29.5t-43.5 47.5t-15.5 69.5q0 44 26.5 80t77 57.5t121.5 21.5q77 0 123 -24t69 -62t28 -81h-132
q-8 29 -31 44t-57 15q-50 0 -71.5 -15.5t-21.5 -38.5q0 -24 23.5 -37t96.5 -23q45 -6 83.5 -17.5t67.5 -30.5t45.5 -47.5t16.5 -69.5q0 -49 -26.5 -86.5t-80 -59t-133.5 -21.5z" />
    <glyph glyph-name="uni0456" unicode="&#x456;" horiz-adv-x="271" vert-adv-y="1200" 
d="M71 0v530h131v-530h-131zM136 581q-35 0 -57.5 22t-22.5 57t22.5 57t56.5 22q36 0 58.5 -22t22.5 -57t-22.5 -57t-57.5 -22z" />
    <glyph glyph-name="uni0457" unicode="&#x457;" horiz-adv-x="271" vert-adv-y="1200" 
d="M71 0v530h131v-530h-131zM30 586q-32 0 -53 21t-21 53t21 53t53 21t53 -21t21 -53t-21 -53t-53 -21zM242 586q-32 0 -53 21t-21 53t21 53t53 21t53 -21t21 -53t-21 -53t-53 -21z" />
    <glyph glyph-name="uni0458" unicode="&#x458;" horiz-adv-x="271" vert-adv-y="1200" 
d="M21 -212q-11 0 -25 0.5t-25 2.5v112q8 -2 17.5 -2.5t17.5 -0.5q25 0 39 8.5t20 33t6 68.5v520h131v-530q0 -84 -16 -130t-55 -64t-110 -18zM136 581q-35 0 -57.5 22t-22.5 57t22.5 57t56.5 22q36 0 58.5 -22t22.5 -57t-22.5 -57t-57.5 -22z" />
    <glyph glyph-name="uni0459" unicode="&#x459;" horiz-adv-x="859" vert-adv-y="0" 
d="M65 -12q-8 0 -20 0.5t-20 2.5v119q3 -1 15 -1q26 0 42.5 21.5t24.5 74.5t8 145v180h410v-178h104q104 0 155 -44t51 -132q0 -52 -21 -91.5t-66 -62t-119 -22.5h-236v420h-156v-90q0 -103 -10.5 -170t-32 -104.5t-53.5 -52.5t-76 -15zM525 105h90q49 0 68.5 17.5
t19.5 53.5q0 35 -20.5 52.5t-67.5 17.5h-90v-141z" />
    <glyph glyph-name="uni045A" unicode="&#x45a;" horiz-adv-x="885" vert-adv-y="0" 
d="M61 0v530h131v-190h216v190h132v-192h125q95 0 144.5 -43t49.5 -125q0 -49 -20 -87.5t-63 -60.5t-111 -22h-257v230h-216v-230h-131zM540 106h110q40 0 59 17t19 47q0 29 -19.5 45.5t-58.5 16.5h-110v-126z" />
    <glyph glyph-name="uni045B" unicode="&#x45b;" horiz-adv-x="640" vert-adv-y="0" 
d="M110 0v434h-90v96h90v170h132v-170h217v-96h-217v-137q12 21 33 40t53 32t75 13q92 0 139 -52t47 -150v-180h-131v149q0 60 -24.5 90.5t-78.5 30.5q-40 0 -64.5 -17t-36.5 -44.5t-12 -59.5v-149h-132z" />
    <glyph glyph-name="uni045C" unicode="&#x45c;" horiz-adv-x="575" vert-adv-y="1200" 
d="M61 0v530h131v-208h49l164 208h145l-200 -251l210 -279h-158l-161 218h-49v-218h-131zM244 580l110 160h150l-150 -160h-110z" />
    <glyph glyph-name="uni045E" unicode="&#x45e;" horiz-adv-x="580" vert-adv-y="1200" 
d="M150 -212q-15 0 -30 3v112q15 -3 30 -3q20 0 33.5 10t25 32t25.5 58l-224 530h148l144 -366l131 366h137l-204 -530q-29 -75 -56 -121.5t-63.5 -68.5t-96.5 -22zM295 585q-89 0 -129.5 38t-40.5 112h117q0 -39 13 -54.5t39 -15.5q28 0 42 15.5t14 54.5h115
q0 -74 -41 -112t-129 -38z" />
    <glyph glyph-name="uni045F" unicode="&#x45f;" horiz-adv-x="590" vert-adv-y="0" 
d="M237 -125v125h-176v530h131v-420h206v420h131v-530h-176v-125h-116z" />
    <glyph glyph-name="Geupturncy" unicode="&#x490;" horiz-adv-x="560" vert-adv-y="0" 
d="M81 0v700h325v130h134v-254h-310v-576h-149z" />
    <glyph glyph-name="geupturncy" unicode="&#x491;" horiz-adv-x="470" vert-adv-y="0" 
d="M70 0v530h264v125h116v-235h-248v-420h-132z" />
    <glyph glyph-name="Gestrokecy" unicode="&#x492;" horiz-adv-x="579" vert-adv-y="0" 
d="M100 417v283h459v-124h-310v-159h174v-126h-174v-291h-149v291h-80v126h80z" />
    <glyph glyph-name="gestrokecy" unicode="&#x493;" horiz-adv-x="495" vert-adv-y="0" 
d="M25 196v110h71v224h379v-110h-248v-114h156v-110h-156v-196h-131v196h-71z" />
    <glyph glyph-name="Gemiddlehookcy" unicode="&#x494;" horiz-adv-x="657" vert-adv-y="0" 
d="M81 0v700h452v-126h-302v-157q23 13 61.5 26t92.5 13q68 0 116.5 -23t74 -72t25.5 -127v-238q0 -41 -11 -79t-36.5 -68.5t-68 -48.5t-105.5 -18h-54v116h39q48 0 67 25t19 74v213q0 64 -28 91t-82 27q-38 0 -65.5 -10t-44.5 -22v-296h-150z" />
    <glyph glyph-name="gemiddlehookcy" unicode="&#x495;" horiz-adv-x="562" vert-adv-y="0" 
d="M70 0v530h380v-110h-248v-107q22 12 50.5 21.5t72.5 9.5q98 0 146.5 -45.5t48.5 -145.5v-153q0 -84 -16.5 -130t-56 -64t-107.5 -18q-11 0 -25 0.5t-25 2.5v112q8 -2 17.5 -2.5t17.5 -0.5q22 0 36 8.5t20.5 32.5t6.5 69v128q0 52 -22 73t-76 21q-30 0 -52.5 -6t-35.5 -13
v-213h-132z" />
    <glyph glyph-name="uni0496" unicode="&#x496;" horiz-adv-x="1019" vert-adv-y="0" 
d="M993 -130h-134v130h-46l-187 305h-50v-305h-151v305h-50l-192 -305h-163l236 361l-226 339h161l183 -285h51v285h151v-285h50l189 285h155l-226 -330l156 -244h93v-256z" />
    <glyph glyph-name="uni0497" unicode="&#x497;" horiz-adv-x="837" vert-adv-y="0" 
d="M815 -125h-115v125h-50l-137 220h-41v-220h-131v220h-41l-142 -220h-143l183 273l-172 257h140l134 -210h41v210h131v-210h41l139 210h136l-173 -249l111 -171h89v-235z" />
    <glyph glyph-name="uni0498" unicode="&#x498;" horiz-adv-x="657" vert-adv-y="1200" 
d="M402 -5v-125h-134v126zM325 -12q-92 0 -155.5 28t-97 80.5t-37.5 122.5h156q4 -33 19 -56.5t43.5 -36t71.5 -12.5q70 0 102.5 26t32.5 71q0 30 -13.5 52t-44 34t-82.5 12h-74v102h74q63 0 89 27.5t26 65.5q0 37 -26.5 59.5t-83.5 22.5q-38 0 -63.5 -9.5t-39 -29.5
t-16.5 -51h-156q5 105 72 160.5t203 55.5q135 0 200 -52.5t65 -145.5q0 -55 -27 -93.5t-79 -55.5q64 -15 97.5 -57.5t33.5 -110.5q0 -61 -32 -108.5t-96 -74t-162 -26.5z" />
    <glyph glyph-name="uni0499" unicode="&#x499;" horiz-adv-x="544" vert-adv-y="1200" 
d="M336 -2v-123h-116v123h116zM270 -12q-76 0 -128.5 21t-80 62t-31.5 98h134q2 -21 12.5 -37t33 -24t60.5 -8q58 0 82 17.5t24 42.5q0 30 -19.5 45t-71.5 15h-81v98h74q38 0 58 16t20 42q0 23 -19.5 38.5t-66.5 15.5q-49 0 -71 -16.5t-25 -47.5h-134q4 57 30.5 96t77 59.5
t122.5 20.5q116 0 168 -42.5t52 -112.5q0 -38 -19.5 -68t-61.5 -44q57 -14 79 -45.5t22 -74.5q0 -48 -26 -86t-79 -59.5t-135 -21.5z" />
    <glyph glyph-name="uni049A" unicode="&#x49a;" horiz-adv-x="743" vert-adv-y="0" 
d="M716 -130h-134v130h-68l-224 305h-60v-305h-149v700h149v-285h60l224 285h165l-274 -331l187 -243h124v-256z" />
    <glyph glyph-name="uni049B" unicode="&#x49b;" horiz-adv-x="590" vert-adv-y="0" 
d="M569 -125h-114v125h-53l-161 218h-49v-218h-131v530h131v-208h49l164 208h145l-200 -251l127 -169h92v-235z" />
    <glyph glyph-name="uni049C" unicode="&#x49c;" horiz-adv-x="775" vert-adv-y="0" 
d="M81 0v700h150v-286h47v120h119v-120h22l143 286h155l-177 -326l215 -374h-178l-158 303h-22v-113h-119v113h-47v-303h-150z" />
    <glyph glyph-name="uni049D" unicode="&#x49d;" horiz-adv-x="660" vert-adv-y="0" 
d="M61 0v530h131v-208h44v90h111v-90h20l107 208h148l-146 -252l169 -278h-156l-121 218h-21v-93h-111v93h-44v-218h-131z" />
    <glyph glyph-name="uni04A0" unicode="&#x4a0;" horiz-adv-x="815" vert-adv-y="0" 
d="M20 586v114h302v-285h60l224 285h166l-275 -331l285 -369h-175l-225 305h-60v-305h-150v586h-152z" />
    <glyph glyph-name="uni04A1" unicode="&#x4a1;" horiz-adv-x="658" vert-adv-y="0" 
d="M20 419v111h252v-208h49l166 208h146l-206 -251l216 -279h-158l-164 218h-49v-218h-131v419h-121z" />
    <glyph glyph-name="uni04A2" unicode="&#x4a2;" horiz-adv-x="782" vert-adv-y="0" 
d="M756 -130h-134v130h-93v297h-298v-297h-150v700h150v-277h298v277h150v-574h77v-256z" />
    <glyph glyph-name="uni04A3" unicode="&#x4a3;" horiz-adv-x="637" vert-adv-y="0" 
d="M615 -125h-115v125h-82v215h-226v-215h-131v530h131v-205h226v205h131v-420h66v-235z" />
    <glyph glyph-name="EnGecy" unicode="&#x4a4;" horiz-adv-x="1009" vert-adv-y="0" 
d="M231 0h-150v700h150v-277h298v277h460v-126h-310v-574h-150v297h-298v-297z" />
    <glyph glyph-name="engecy" unicode="&#x4a5;" horiz-adv-x="819" vert-adv-y="0" 
d="M418 0v215h-226v-215h-131v530h131v-205h226v205h381v-110h-250v-420h-131z" />
    <glyph glyph-name="uni04AA" unicode="&#x4aa;" horiz-adv-x="699" vert-adv-y="0" 
d="M435 -130h-134v123q-16 2 -32 6t-31 9q-85 30 -136.5 111.5t-51.5 225.5v20q0 92 24 157.5t67.5 107.5t100.5 62t123 20q59 0 110.5 -14.5t91.5 -43.5t64.5 -75t28.5 -108h-156q-11 59 -48 87t-91 28q-42 0 -78 -20.5t-58.5 -68.5t-22.5 -132v-20q0 -66 14 -110.5t37 -71
t51 -38t57 -11.5q57 0 94 29.5t45 85.5h156q-5 -64 -29 -110.5t-63 -75.5t-91 -42q-10 -2 -20.5 -4t-21.5 -4v-123z" />
    <glyph glyph-name="uni04AB" unicode="&#x4ab;" horiz-adv-x="564" vert-adv-y="0" 
d="M352 -125h-115v119q-11 2 -22.5 4.5t-22.5 6.5q-70 26 -113.5 89.5t-43.5 165.5v20q0 86 36 144t95 88t129 30q75 0 127 -25t80.5 -69t32.5 -97h-134q-8 36 -32.5 57.5t-73.5 21.5q-34 0 -62.5 -16t-46 -49t-17.5 -85v-20q0 -56 16.5 -91.5t45 -52t64.5 -16.5
q39 0 67.5 20.5t38.5 58.5h134q-7 -65 -47 -111t-102 -67q-8 -2 -17 -4t-17 -4v-118z" />
    <glyph glyph-name="uni04AE" unicode="&#x4ae;" horiz-adv-x="680" vert-adv-y="0" 
d="M426 0h-152v267l-264 433h175l167 -282l158 282h160l-244 -433v-267z" />
    <glyph glyph-name="uni04AF" unicode="&#x4af;" horiz-adv-x="587" vert-adv-y="0" 
d="M371 -227h-132v220l-226 537h146l147 -382l133 382h134l-202 -528v-229z" />
    <glyph glyph-name="uni04B0" unicode="&#x4b0;" horiz-adv-x="666" vert-adv-y="0" 
d="M269 0v172h-128v126h125l-252 402h174l159 -268l150 268h159l-234 -402h124v-126h-125v-172h-152z" />
    <glyph glyph-name="uni04B1" unicode="&#x4b1;" horiz-adv-x="579" vert-adv-y="0" 
d="M93 0v110h104l-184 420h147l142 -355l129 355h134l-168 -420h110v-110h-140v-227h-132v227h-142z" />
    <glyph glyph-name="uni04B2" unicode="&#x4b2;" horiz-adv-x="721" vert-adv-y="0" 
d="M695 -130h-134v130h-56l-163 262l-163 -262h-166l236 365l-226 335h168l154 -229l156 229h162l-223 -332l153 -242h102v-256z" />
    <glyph glyph-name="uni04B3" unicode="&#x4b3;" horiz-adv-x="592" vert-adv-y="0" 
d="M570 -125h-114v125h-49l-124 198l-123 -198h-145l180 276l-170 254h147l116 -170l114 170h143l-168 -249l108 -171h85v-235z" />
    <glyph glyph-name="uni04B6" unicode="&#x4b6;" horiz-adv-x="712" vert-adv-y="0" 
d="M551 0h-101v289q-26 -17 -71 -31t-103 -14q-115 0 -170.5 55.5t-55.5 176.5v224h151v-205q0 -66 28.5 -94.5t85.5 -28.5q50 0 81.5 11t53.5 26v291h150v-574h84v-256h-133v130z" />
    <glyph glyph-name="uni04B7" unicode="&#x4b7;" horiz-adv-x="598" vert-adv-y="0" 
d="M462 -125v125h-92v194q-23 -13 -54 -24t-79 -11q-99 0 -147 45.5t-48 145.5v180h132v-165q0 -53 22 -73.5t76 -20.5q38 0 63 8.5t35 17.5v233h132v-420h75v-235h-115z" />
    <glyph glyph-name="uni04B8" unicode="&#x4b8;" horiz-adv-x="706" vert-adv-y="0" 
d="M627 0h-151v313q-15 -10 -34.5 -18.5t-43.5 -14.5v-111h-118v97q-49 1 -88 10.5t-67 28t-46 47t-27 66.5t-9 86v196h151v-176q0 -60 20.5 -91.5t65.5 -40.5v121h118v-117q24 6 43.5 16t34.5 23v265h151v-700z" />
    <glyph glyph-name="uni04B9" unicode="&#x4b9;" horiz-adv-x="608" vert-adv-y="0" 
d="M410 0v223q-14 -7 -29 -12.5t-32 -10.5v-102h-112v90q-65 2 -108.5 22.5t-65 62.5t-21.5 106v151h132v-136q0 -41 14.5 -61.5t48.5 -29.5v96h112v-93q23 3 38.5 8.5t22.5 11.5v204h132v-530h-132z" />
    <glyph glyph-name="uni04BA" unicode="&#x4ba;" horiz-adv-x="665" vert-adv-y="0" 
d="M81 700h150v-271q26 17 71.5 30.5t106.5 13.5q110 0 165 -54.5t55 -175.5v-243h-150v223q0 66 -29 94t-91 28q-45 0 -76 -11t-52 -25v-309h-150v700z" />
    <glyph glyph-name="uni04BB" unicode="&#x4bb;" horiz-adv-x="605" vert-adv-y="1200" 
d="M61 0v700h131v-243q12 20 33.5 39.5t54 32.5t78.5 13q97 0 144.5 -52t47.5 -150v-340h-132v309q0 59 -24.5 90t-83.5 31q-42 0 -68 -17t-38 -44.5t-12 -59.5v-309h-131z" />
    <glyph glyph-name="uni04C0" unicode="&#x4c0;" horiz-adv-x="330" vert-adv-y="1200" 
d="M91 0v700h149v-700h-149z" />
    <glyph glyph-name="uni04C3" unicode="&#x4c3;" horiz-adv-x="694" vert-adv-y="0" 
d="M81 0v700h150v-286h82l174 286h166l-194 -293q49 -8 86 -33t58 -66.5t21 -101.5v-210q0 -41 -11 -79t-36.5 -68.5t-68 -48.5t-105.5 -18h-53v116h39q47 0 66.5 25t19.5 74v183q0 42 -13.5 69t-39.5 40.5t-62 13.5h-129v-303h-150z" />
    <glyph glyph-name="uni04C4" unicode="&#x4c4;" horiz-adv-x="577" vert-adv-y="0" 
d="M292 -205v111q9 -2 17.5 -2.5t16.5 -0.5q29 0 42 22t13 85v109q0 54 -24 76.5t-74 22.5h-91v-218h-131v530h131v-208h77l128 208h145l-148 -219q59 -16 89 -60.5t30 -117.5v-141q0 -74 -16 -118.5t-53 -63.5t-100 -19q-12 0 -25.5 0.5t-26.5 3.5z" />
    <glyph glyph-name="uni04C7" unicode="&#x4c7;" horiz-adv-x="760" vert-adv-y="0" 
d="M81 0v700h150v-277h298v277h150v-700q0 -45 -9.5 -84.5t-34 -69.5t-66.5 -47t-106 -17h-43v117h33q43 0 59.5 25t16.5 76v297h-298v-297h-150z" />
    <glyph glyph-name="uni04C8" unicode="&#x4c8;" horiz-adv-x="610" vert-adv-y="0" 
d="M61 0v530h131v-205h226v205h131v-538q0 -74 -15.5 -118.5t-52.5 -63.5t-101 -19q-11 0 -25 0.5t-26 3.5v111q8 -2 17 -2.5t17 -0.5q28 0 41.5 22t13.5 85v205h-226v-215h-131z" />
    <glyph glyph-name="uni04CB" unicode="&#x4cb;" horiz-adv-x="680" vert-adv-y="0" 
d="M370 -130v256h80v163q-26 -17 -71 -31t-103 -14q-115 0 -170.5 55.5t-55.5 176.5v224h151v-205q0 -66 28.5 -94.5t85.5 -28.5q50 0 81.5 11t53.5 26v291h150v-700h-96v-130h-134z" />
    <glyph glyph-name="uni04CC" unicode="&#x4cc;" horiz-adv-x="568" vert-adv-y="0" 
d="M305 -125v225h65v108q-23 -14 -54 -25t-79 -11q-99 0 -147 45t-48 146v167h132v-152q0 -52 22 -73t76 -21q38 0 63 8.5t35 16.5v221h132v-530h-82v-125h-115z" />
    <glyph glyph-name="uni04CF" unicode="&#x4cf;" horiz-adv-x="261" vert-adv-y="0" 
d="M197 0h-131v700h131v-700z" />
    <glyph glyph-name="uni04D0" unicode="&#x4d0;" horiz-adv-x="689" vert-adv-y="1200" 
d="M10 0l260 700h149l261 -700h-158l-54 143h-259l-53 -143h-146zM255 267h168l-84 243zM347 742q-64 0 -106.5 19.5t-62.5 57t-20 93.5h126q0 -48 16 -66t47 -18q33 0 49 18t16 66h126q0 -56 -20 -93.5t-62 -57t-109 -19.5z" />
    <glyph glyph-name="uni04D1" unicode="&#x4d1;" horiz-adv-x="575" vert-adv-y="1200" 
d="M219 -12q-57 0 -97 21.5t-61 59.5t-21 86q0 80 47.5 120t142.5 40h158v25q0 52 -23.5 73t-74.5 21q-45 0 -65 -15.5t-23 -38.5h-132q3 46 29.5 82.5t76 58t119.5 21.5q68 0 118.5 -20t78.5 -64.5t28 -119.5v-203q0 -42 1.5 -73.5t5.5 -61.5h-123q-4 22 -4.5 33.5
t-0.5 34.5q-21 -32 -66 -56t-114 -24zM260 90q32 0 61.5 11.5t48 36t18.5 62.5v25h-133q-38 0 -59.5 -17.5t-21.5 -47.5q0 -32 22 -51t64 -19zM294 585q-89 0 -129.5 38t-40.5 112h117q0 -39 13 -54.5t39 -15.5q28 0 42 15.5t14 54.5h115q0 -74 -41 -112t-129 -38z" />
    <glyph glyph-name="uni04D2" unicode="&#x4d2;" horiz-adv-x="689" vert-adv-y="1200" 
d="M10 0l260 700h149l261 -700h-158l-54 143h-259l-53 -143h-146zM255 267h168l-84 243zM226 746q-35 0 -57.5 22t-22.5 57t22.5 57t57.5 22t57.5 -22t22.5 -57t-22.5 -57t-57.5 -22zM466 746q-35 0 -58 22t-23 57t23 57t58 22t57.5 -22t22.5 -57t-22.5 -57t-57.5 -22z" />
    <glyph glyph-name="uni04D3" unicode="&#x4d3;" horiz-adv-x="575" vert-adv-y="1200" 
d="M219 -12q-57 0 -97 21.5t-61 59.5t-21 86q0 80 47.5 120t142.5 40h158v25q0 52 -23.5 73t-74.5 21q-45 0 -65 -15.5t-23 -38.5h-132q3 46 29.5 82.5t76 58t119.5 21.5q68 0 118.5 -20t78.5 -64.5t28 -119.5v-203q0 -42 1.5 -73.5t5.5 -61.5h-123q-4 22 -4.5 33.5
t-0.5 34.5q-21 -32 -66 -56t-114 -24zM260 90q32 0 61.5 11.5t48 36t18.5 62.5v25h-133q-38 0 -59.5 -17.5t-21.5 -47.5q0 -32 22 -51t64 -19zM189 586q-32 0 -53 21t-21 53t21 53t53 21t53 -21t21 -53t-21 -53t-53 -21zM401 586q-32 0 -53 21t-21 53t21 53t53 21t53 -21
t21 -53t-21 -53t-53 -21z" />
    <glyph glyph-name="uni04D4" unicode="&#x4d4;" horiz-adv-x="1000" vert-adv-y="1200" 
d="M10 0l410 700h530v-124h-339v-156h309v-120h-309v-176h339v-124h-491v143h-209l-84 -143h-156zM322 267h137v248z" />
    <glyph glyph-name="uni04D5" unicode="&#x4d5;" horiz-adv-x="935" vert-adv-y="1200" 
d="M219 -12q-56 0 -96.5 21.5t-61.5 59.5t-21 86q0 80 47.5 119.5t142.5 39.5h158v27q0 51 -23.5 72t-74.5 21q-45 0 -65 -15.5t-23 -38.5h-132q3 46 29.5 82.5t76 58t119.5 21.5q60 0 102 -18.5t71 -53.5q27 32 70.5 52t106.5 20q125 0 190 -66t65 -191v-62h-375
q2 -44 20.5 -72t47.5 -41.5t62 -13.5q51 0 77 15t37 44h121q-16 -83 -79 -125t-156 -42q-69 0 -122.5 24.5t-82.5 75.5q-29 -49 -87.5 -74.5t-143.5 -25.5zM260 90q32 0 61.5 11.5t48 36t18.5 62.5v24h-133q-38 0 -59.5 -17t-21.5 -47q0 -32 21.5 -51t64.5 -19zM650 434
q-31 0 -59 -11t-46 -36.5t-20 -69.5h247q-1 47 -17.5 72t-43.5 35t-61 10z" />
    <glyph glyph-name="uni04D6" unicode="&#x4d6;" horiz-adv-x="620" vert-adv-y="1200" 
d="M81 0v700h488v-124h-338v-156h308v-120h-308v-176h338v-124h-488zM325 740q-64 0 -106.5 19.5t-62.5 57t-20 93.5h126q0 -48 16 -66t47 -18q33 0 49 18t16 66h126q0 -56 -20 -93.5t-62 -57t-109 -19.5z" />
    <glyph glyph-name="uni04D7" unicode="&#x4d7;" horiz-adv-x="580" vert-adv-y="1200" 
d="M300 -12q-72 0 -132.5 29.5t-96.5 90t-36 152.5v20q0 88 34.5 146t92.5 87t128 29q125 0 190 -66t65 -191v-56h-375q2 -47 20.5 -76.5t47.5 -43t62 -13.5q51 0 77 15t37 44h121q-16 -83 -79 -125t-156 -42zM295 434q-31 0 -60 -10t-46 -35.5t-19 -67.5h247
q-1 45 -17.5 69.5t-43.5 34t-61 9.5zM293 585q-89 0 -129.5 38t-40.5 112h117q0 -39 13 -54.5t39 -15.5q28 0 42 15.5t14 54.5h115q0 -74 -41 -112t-129 -38z" />
    <glyph glyph-name="uni04D8" unicode="&#x4d8;" horiz-adv-x="724" vert-adv-y="0" 
d="M346 -12q-67 0 -122.5 20.5t-95.5 63.5t-61.5 111.5t-21.5 161.5v57h473q-6 67 -29.5 107t-58.5 57.5t-77 17.5q-48 0 -84.5 -24.5t-51.5 -78.5h-157q12 78 53 129.5t103 76.5t135 25q67 0 126 -20.5t103.5 -63t69.5 -108t25 -155.5v-20q0 -126 -44.5 -205t-118.5 -115.5
t-166 -36.5zM348 116q47 0 82.5 18.5t58 60t27.5 110.5h-325q6 -72 26.5 -113t54 -58.5t76.5 -17.5z" />
    <glyph glyph-name="uni04D9" unicode="&#x4d9;" horiz-adv-x="587" vert-adv-y="0" 
d="M283 542q75 0 136 -29.5t97 -89.5t36 -153v-20q0 -87 -35 -145.5t-93.5 -87.5t-129.5 -29q-128 0 -193.5 66.5t-65.5 190.5v55h382q-1 48 -20.5 78t-50 42.5t-63.5 12.5q-50 0 -77 -15.5t-39 -42.5h-122q16 84 78.5 125.5t159.5 41.5zM416 209h-253q0 -43 17 -67.5
t45.5 -35t62.5 -10.5q33 0 61.5 11.5t47 36.5t19.5 65z" />
    <glyph glyph-name="uni04DA" unicode="&#x4da;" horiz-adv-x="724" vert-adv-y="1200" 
d="M346 -12q-67 0 -122.5 20.5t-95.5 63.5t-61.5 111.5t-21.5 161.5v57h473q-6 67 -29.5 107t-58.5 57.5t-77 17.5q-48 0 -84.5 -24.5t-51.5 -78.5h-157q12 78 53 129.5t103 76.5t135 25q67 0 126 -20.5t103.5 -63t69.5 -108t25 -155.5v-20q0 -126 -44.5 -205t-118.5 -115.5
t-166 -36.5zM348 116q47 0 82.5 18.5t58 60t27.5 110.5h-325q6 -72 26.5 -113t54 -58.5t76.5 -17.5zM244 746q-35 0 -57.5 22t-22.5 57t22.5 57t57.5 22t57.5 -22t22.5 -57t-22.5 -57t-57.5 -22zM484 746q-35 0 -58 22t-23 57t23 57t58 22t57.5 -22t22.5 -57t-22.5 -57
t-57.5 -22z" />
    <glyph glyph-name="uni04DB" unicode="&#x4db;" horiz-adv-x="587" vert-adv-y="1200" 
d="M283 542q75 0 136 -29.5t97 -89.5t36 -153v-20q0 -87 -35 -145.5t-93.5 -87.5t-129.5 -29q-128 0 -193.5 66.5t-65.5 190.5v55h382q-1 48 -20.5 78t-50 42.5t-63.5 12.5q-50 0 -77 -15.5t-39 -42.5h-122q16 84 78.5 125.5t159.5 41.5zM416 209h-253q0 -43 17 -67.5
t45.5 -35t62.5 -10.5q33 0 61.5 11.5t47 36.5t19.5 65zM188 586q-32 0 -53 21t-21 53t21 53t53 21t53 -21t21 -53t-21 -53t-53 -21zM400 586q-32 0 -53 21t-21 53t21 53t53 21t53 -21t21 -53t-21 -53t-53 -21z" />
    <glyph glyph-name="uni04DC" unicode="&#x4dc;" horiz-adv-x="1000" vert-adv-y="1200" 
d="M20 0l240 364l-230 336h160l185 -285h50v285h150v-285h50l191 285h154l-230 -329l240 -371h-166l-189 305h-50v-305h-150v305h-50l-191 -305h-164zM380 746q-35 0 -57.5 22t-22.5 57t22.5 57t57.5 22t57.5 -22t22.5 -57t-22.5 -57t-57.5 -22zM620 746q-35 0 -58 22
t-23 57t23 57t58 22t57.5 -22t22.5 -57t-22.5 -57t-57.5 -22z" />
    <glyph glyph-name="uni04DD" unicode="&#x4dd;" horiz-adv-x="819" vert-adv-y="1200" 
d="M15 0l188 276l-178 254h138l142 -208h39v208h132v-208h40l143 208h136l-177 -251l187 -279h-148l-141 218h-40v-218h-132v218h-40l-145 -218h-144zM304 586q-32 0 -53 21t-21 53t21 53t53 21t53 -21t21 -53t-21 -53t-53 -21zM516 586q-32 0 -53 21t-21 53t21 53t53 21
t53 -21t21 -53t-21 -53t-53 -21z" />
    <glyph glyph-name="uni04DE" unicode="&#x4de;" horiz-adv-x="657" vert-adv-y="1200" 
d="M325 -12q-92 0 -155.5 28t-97 80.5t-37.5 122.5h156q4 -33 19 -56.5t43.5 -36t71.5 -12.5q70 0 102.5 26t32.5 71q0 30 -13.5 52t-44 34t-82.5 12h-74v102h74q63 0 89 27.5t26 65.5q0 37 -26.5 59.5t-83.5 22.5q-38 0 -63.5 -9.5t-39 -29.5t-16.5 -51h-156
q5 105 72 160.5t203 55.5q135 0 200 -52.5t65 -145.5q0 -55 -27 -93.5t-79 -55.5q64 -15 97.5 -57.5t33.5 -110.5q0 -61 -32 -108.5t-96 -74t-162 -26.5zM209 746q-35 0 -57.5 22t-22.5 57t22.5 57t57.5 22t57.5 -22t22.5 -57t-22.5 -57t-57.5 -22zM449 746q-35 0 -58 22
t-23 57t23 57t58 22t57.5 -22t22.5 -57t-22.5 -57t-57.5 -22z" />
    <glyph glyph-name="uni04DF" unicode="&#x4df;" horiz-adv-x="544" vert-adv-y="1200" 
d="M270 -12q-76 0 -128.5 21t-80 62t-31.5 98h134q2 -21 12.5 -37t33 -24t60.5 -8q58 0 82 17.5t24 42.5q0 30 -19.5 45t-71.5 15h-81v98h74q38 0 58 16t20 42q0 23 -19.5 38.5t-66.5 15.5q-49 0 -71 -16.5t-25 -47.5h-134q4 57 30.5 96t77 59.5t122.5 20.5q116 0 168 -42.5
t52 -112.5q0 -38 -19.5 -68t-61.5 -44q57 -14 79 -45.5t22 -74.5q0 -48 -26 -86t-79 -59.5t-135 -21.5zM167 586q-32 0 -53 21t-21 53t21 53t53 21t53 -21t21 -53t-21 -53t-53 -21zM379 586q-32 0 -53 21t-21 53t21 53t53 21t53 -21t21 -53t-21 -53t-53 -21z" />
    <glyph glyph-name="uni04E2" unicode="&#x4e2;" horiz-adv-x="760" vert-adv-y="1200" 
d="M81 0v700h149v-465l305 465h144v-700h-149v465l-306 -465h-143zM221 788v104h320v-104h-320z" />
    <glyph glyph-name="uni04E3" unicode="&#x4e3;" horiz-adv-x="610" vert-adv-y="1200" 
d="M61 0v530h131v-340l236 340h121v-530h-131v340l-236 -340h-121zM156 615v90h300v-90h-300z" />
    <glyph glyph-name="uni04E4" unicode="&#x4e4;" horiz-adv-x="760" vert-adv-y="1200" 
d="M81 0v700h149v-465l305 465h144v-700h-149v465l-306 -465h-143zM260 746q-35 0 -57.5 22t-22.5 57t22.5 57t57.5 22t57.5 -22t22.5 -57t-22.5 -57t-57.5 -22zM500 746q-35 0 -58 22t-23 57t23 57t58 22t57.5 -22t22.5 -57t-22.5 -57t-57.5 -22z" />
    <glyph glyph-name="uni04E5" unicode="&#x4e5;" horiz-adv-x="610" vert-adv-y="1200" 
d="M61 0v530h131v-340l236 340h121v-530h-131v340l-236 -340h-121zM200 586q-32 0 -53 21t-21 53t21 53t53 21t53 -21t21 -53t-21 -53t-53 -21zM412 586q-32 0 -53 21t-21 53t21 53t53 21t53 -21t21 -53t-21 -53t-53 -21z" />
    <glyph glyph-name="uni04E6" unicode="&#x4e6;" horiz-adv-x="759" vert-adv-y="1200" 
d="M380 -12q-66 0 -125 20t-105.5 62.5t-73 110.5t-26.5 164v20q0 92 26.5 157.5t73 107.5t105.5 62t125 20t125 -20t105.5 -62t73 -107.5t26.5 -157.5v-20q0 -96 -26.5 -164t-73 -110.5t-105.5 -62.5t-125 -20zM380 114q46 0 85.5 21.5t64 72t24.5 137.5v20
q0 82 -24.5 130.5t-64 69.5t-85.5 21q-45 0 -85 -21t-64.5 -69.5t-24.5 -130.5v-20q0 -87 24.5 -137.5t64.5 -72t85 -21.5zM261 746q-35 0 -57.5 22t-22.5 57t22.5 57t57.5 22t57.5 -22t22.5 -57t-22.5 -57t-57.5 -22zM501 746q-35 0 -58 22t-23 57t23 57t58 22t57.5 -22
t22.5 -57t-22.5 -57t-57.5 -22z" />
    <glyph glyph-name="uni04E7" unicode="&#x4e7;" horiz-adv-x="600" vert-adv-y="1200" 
d="M300 -12q-72 0 -132.5 29.5t-96.5 90t-36 152.5v20q0 87 36 145t96.5 87.5t132.5 29.5t132.5 -29.5t96.5 -87.5t36 -145v-20q0 -90 -36 -150.5t-96.5 -91t-132.5 -30.5zM300 100q38 0 67.5 17.5t46.5 53.5t17 89v20q0 49 -17 82t-46.5 50.5t-67.5 17.5t-67.5 -17.5
t-46.5 -50.5t-17 -82v-20q0 -54 17 -89.5t46.5 -53t67.5 -17.5zM195 586q-32 0 -53 21t-21 53t21 53t53 21t53 -21t21 -53t-21 -53t-53 -21zM407 586q-32 0 -53 21t-21 53t21 53t53 21t53 -21t21 -53t-21 -53t-53 -21z" />
    <glyph glyph-name="uni04E8" unicode="&#x4e8;" horiz-adv-x="773" vert-adv-y="0" 
d="M387 -12q-67 0 -128 20.5t-108 63.5t-74 110.5t-27 162.5v20q0 91 27 157t74 108t108 62t128 20q68 0 128.5 -20t107 -62t73.5 -108t27 -157v-20q0 -95 -27 -162.5t-73.5 -110.5t-107 -63.5t-128.5 -20.5zM387 116q42 0 79 16.5t63 56t34 107.5h-354q8 -68 34 -107.5
t64 -56t80 -16.5zM387 584q-42 0 -79.5 -16t-64 -53t-33.5 -101h353q-8 64 -34 101t-63 53t-79 16z" />
    <glyph glyph-name="uni04E9" unicode="&#x4e9;" horiz-adv-x="613" vert-adv-y="0" 
d="M307 -12q-75 0 -136.5 29.5t-98.5 90t-37 152.5v20q0 86 37 144t98.5 88t136.5 30q73 0 134.5 -30t99 -88t37.5 -144v-20q0 -90 -37.5 -150.5t-99 -91t-134.5 -30.5zM307 100q36 0 64 14t46.5 42t23.5 71h-269q6 -43 24.5 -71t47 -42t63.5 -14zM307 430q-34 0 -61.5 -13
t-46 -38t-27.5 -61h268q-6 36 -25 61t-46.5 38t-61.5 13z" />
    <glyph glyph-name="uni04EA" unicode="&#x4ea;" horiz-adv-x="773" vert-adv-y="1200" 
d="M387 -12q-67 0 -128 20.5t-108 63.5t-74 110.5t-27 162.5v20q0 91 27 157t74 108t108 62t128 20q68 0 128.5 -20t107 -62t73.5 -108t27 -157v-20q0 -95 -27 -162.5t-73.5 -110.5t-107 -63.5t-128.5 -20.5zM387 116q42 0 79 16.5t63 56t34 107.5h-354q8 -68 34 -107.5
t64 -56t80 -16.5zM387 584q-42 0 -79.5 -16t-64 -53t-33.5 -101h353q-8 64 -34 101t-63 53t-79 16zM268 746q-35 0 -57.5 22t-22.5 57t22.5 57t57.5 22t57.5 -22t22.5 -57t-22.5 -57t-57.5 -22zM508 746q-35 0 -58 22t-23 57t23 57t58 22t57.5 -22t22.5 -57t-22.5 -57
t-57.5 -22z" />
    <glyph glyph-name="uni04EB" unicode="&#x4eb;" horiz-adv-x="613" vert-adv-y="1200" 
d="M307 -12q-75 0 -136.5 29.5t-98.5 90t-37 152.5v20q0 86 37 144t98.5 88t136.5 30q73 0 134.5 -30t99 -88t37.5 -144v-20q0 -90 -37.5 -150.5t-99 -91t-134.5 -30.5zM307 100q36 0 64 14t46.5 42t23.5 71h-269q6 -43 24.5 -71t47 -42t63.5 -14zM307 430q-34 0 -61.5 -13
t-46 -38t-27.5 -61h268q-6 36 -25 61t-46.5 38t-61.5 13zM202 586q-32 0 -53 21t-21 53t21 53t53 21t53 -21t21 -53t-21 -53t-53 -21zM414 586q-32 0 -53 21t-21 53t21 53t53 21t53 -21t21 -53t-21 -53t-53 -21z" />
    <glyph glyph-name="uni04EE" unicode="&#x4ee;" horiz-adv-x="689" vert-adv-y="1200" 
d="M205 -12q-11 0 -21.5 1t-18.5 2v119q8 -1 18.5 -1.5t21.5 -0.5q30 0 45.5 7t24 23t20.5 41l-285 521h162l196 -375l156 375h156l-237 -540q-21 -46 -42.5 -79t-49 -53.5t-62.5 -30t-84 -9.5zM185 788v104h320v-104h-320z" />
    <glyph glyph-name="uni04EF" unicode="&#x4ef;" horiz-adv-x="580" vert-adv-y="1200" 
d="M150 -212q-15 0 -30 3v112q15 -3 30 -3q20 0 33.5 10t25 32t25.5 58l-224 530h148l144 -366l131 366h137l-204 -530q-29 -75 -56 -121.5t-63.5 -68.5t-96.5 -22zM140 615v90h300v-90h-300z" />
    <glyph glyph-name="uni04F0" unicode="&#x4f0;" horiz-adv-x="689" vert-adv-y="1200" 
d="M205 -12q-11 0 -21.5 1t-18.5 2v119q8 -1 18.5 -1.5t21.5 -0.5q30 0 45.5 7t24 23t20.5 41l-285 521h162l196 -375l156 375h156l-237 -540q-21 -46 -42.5 -79t-49 -53.5t-62.5 -30t-84 -9.5zM226 746q-35 0 -57.5 22t-22.5 57t22.5 57t57.5 22t57.5 -22t22.5 -57
t-22.5 -57t-57.5 -22zM466 746q-35 0 -58 22t-23 57t23 57t58 22t57.5 -22t22.5 -57t-22.5 -57t-57.5 -22z" />
    <glyph glyph-name="uni04F1" unicode="&#x4f1;" horiz-adv-x="580" vert-adv-y="1200" 
d="M150 -212q-15 0 -30 3v112q15 -3 30 -3q20 0 33.5 10t25 32t25.5 58l-224 530h148l144 -366l131 366h137l-204 -530q-29 -75 -56 -121.5t-63.5 -68.5t-96.5 -22zM184 586q-32 0 -53 21t-21 53t21 53t53 21t53 -21t21 -53t-21 -53t-53 -21zM396 586q-32 0 -53 21t-21 53
t21 53t53 21t53 -21t21 -53t-21 -53t-53 -21z" />
    <glyph glyph-name="uni04F2" unicode="&#x4f2;" horiz-adv-x="689" vert-adv-y="1200" 
d="M205 -12q-11 0 -21.5 1t-18.5 2v119q8 -1 18.5 -1.5t21.5 -0.5q30 0 45.5 7t24 23t20.5 41l-285 521h162l196 -375l156 375h156l-237 -540q-21 -46 -42.5 -79t-49 -53.5t-62.5 -30t-84 -9.5zM218 750l109 150h125l-133 -150h-101zM385 750l134 150h128l-161 -150h-101z
" />
    <glyph glyph-name="uni04F3" unicode="&#x4f3;" horiz-adv-x="580" vert-adv-y="1200" 
d="M150 -212q-15 0 -30 3v112q15 -3 30 -3q20 0 33.5 10t25 32t25.5 58l-224 530h148l144 -366l131 366h137l-204 -530q-29 -75 -56 -121.5t-63.5 -68.5t-96.5 -22zM222 580h-98l84 160h137zM435 580h-103l123 160h143z" />
    <glyph glyph-name="uni04F4" unicode="&#x4f4;" horiz-adv-x="680" vert-adv-y="1200" 
d="M450 0v287q-26 -17 -70.5 -31t-103.5 -14q-115 0 -170.5 56.5t-55.5 177.5v224h150v-205q0 -68 27.5 -97.5t87.5 -29.5q47 0 80.5 12.5t54.5 26.5v293h150v-700h-150zM220 746q-35 0 -57.5 22t-22.5 57t22.5 57t57.5 22t57.5 -22t22.5 -57t-22.5 -57t-57.5 -22zM460 746
q-35 0 -58 22t-23 57t23 57t58 22t57.5 -22t22.5 -57t-22.5 -57t-57.5 -22z" />
    <glyph glyph-name="uni04F5" unicode="&#x4f5;" horiz-adv-x="565" vert-adv-y="1200" 
d="M373 0v195q-23 -14 -55 -25t-78 -11q-97 0 -146 46.5t-49 144.5v180h132v-165q0 -52 21.5 -73t76.5 -21q38 0 62.5 9t35.5 17v233h132v-530h-132zM177 586q-32 0 -53 21t-21 53t21 53t53 21t53 -21t21 -53t-21 -53t-53 -21zM389 586q-32 0 -53 21t-21 53t21 53t53 21
t53 -21t21 -53t-21 -53t-53 -21z" />
    <glyph glyph-name="uni04F8" unicode="&#x4f8;" horiz-adv-x="909" vert-adv-y="1200" 
d="M81 0v700h149v-250h100q143 0 211 -61.5t68 -163.5t-68 -163.5t-211 -61.5h-249zM230 124h85q80 0 112.5 27t32.5 74t-32.5 74t-112.5 27h-85v-202zM680 0v700h150v-700h-150zM336 746q-35 0 -57.5 22t-22.5 57t22.5 57t57.5 22t57.5 -22t22.5 -57t-22.5 -57t-57.5 -22z
M576 746q-35 0 -58 22t-23 57t23 57t58 22t57.5 -22t22.5 -57t-22.5 -57t-57.5 -22z" />
    <glyph glyph-name="uni04F9" unicode="&#x4f9;" horiz-adv-x="749" vert-adv-y="1200" 
d="M61 0v530h131v-178h93q103 0 153.5 -44t50.5 -132q0 -52 -21 -91.5t-65.5 -62t-117.5 -22.5h-224zM192 106h78q48 0 68 18t20 52q0 35 -20.5 53t-67.5 18h-78v-141zM549 0v530h131v-530h-131zM266 585q-32 0 -53 21t-21 53t21 53t53 21t53 -21t21 -53t-21 -53t-53 -21z
M478 585q-32 0 -53 21t-21 53t21 53t53 21t53 -21t21 -53t-21 -53t-53 -21z" />
    <glyph glyph-name="uni0512" unicode="&#x512;" horiz-adv-x="725" vert-adv-y="0" 
d="M385 -218v117h31q45 0 62 25t17 76v575h-217v-95q0 -126 -9 -214t-27 -143t-44.5 -84t-59.5 -40t-73 -11q-8 0 -20 0.5t-20 2.5v136q2 -1 15 -1q21 0 36.5 6.5t26.5 28t18 63t10.5 109t3.5 167.5v200h510v-700q0 -45 -10.5 -85t-34.5 -69.5t-66 -46.5t-106 -17h-43z" />
    <glyph glyph-name="uni0513" unicode="&#x513;" horiz-adv-x="592" vert-adv-y="0" 
d="M311 -205v111q8 -2 17 -2.5t17 -0.5q28 0 41.5 22t13.5 85v410h-163v-90q0 -103 -11 -170t-33 -104.5t-54.5 -52.5t-76.5 -15q-9 0 -20.5 0.5t-19.5 2.5v118q2 -1 15 -1q26 0 42.5 22t24.5 75t8 145v180h420v-538q0 -74 -16 -118.5t-53 -63.5t-101 -19q-11 0 -24.5 0.5
t-26.5 3.5z" />
    <glyph glyph-name="Wgrave" unicode="&#x1e80;" horiz-adv-x="979" vert-adv-y="1200" 
d="M200 0l-180 700h156l109 -494l135 494h140l138 -496l118 496h144l-181 -700h-149l-145 500l-136 -500h-149zM430 750l-150 150h160l110 -150h-120z" />
    <glyph glyph-name="wgrave" unicode="&#x1e81;" horiz-adv-x="830" vert-adv-y="1200" 
d="M168 0l-148 530h142l86 -350l107 350h122l112 -350l91 350h130l-148 -530h-132l-117 370l-113 -370h-132zM360 580l-150 160h150l110 -160h-110z" />
    <glyph glyph-name="Wacute" unicode="&#x1e82;" horiz-adv-x="979" vert-adv-y="1200" 
d="M200 0l-180 700h156l109 -494l135 494h140l138 -496l118 496h144l-181 -700h-149l-145 500l-136 -500h-149zM430 750l110 150h160l-150 -150h-120z" />
    <glyph glyph-name="wacute" unicode="&#x1e83;" horiz-adv-x="830" vert-adv-y="1200" 
d="M168 0l-148 530h142l86 -350l107 350h122l112 -350l91 350h130l-148 -530h-132l-117 370l-113 -370h-132zM360 580l110 160h150l-150 -160h-110z" />
    <glyph glyph-name="Wdieresis" unicode="&#x1e84;" horiz-adv-x="979" vert-adv-y="1200" 
d="M200 0l-180 700h156l109 -494l135 494h140l138 -496l118 496h144l-181 -700h-149l-145 500l-136 -500h-149zM371 746q-35 0 -57.5 22t-22.5 57t22.5 57t57.5 22t57.5 -22t22.5 -57t-22.5 -57t-57.5 -22zM611 746q-35 0 -58 22t-23 57t23 57t58 22t57.5 -22t22.5 -57
t-22.5 -57t-57.5 -22z" />
    <glyph glyph-name="wdieresis" unicode="&#x1e85;" horiz-adv-x="830" vert-adv-y="1200" 
d="M168 0l-148 530h142l86 -350l107 350h122l112 -350l91 350h130l-148 -530h-132l-117 370l-113 -370h-132zM309 586q-32 0 -53 21t-21 53t21 53t53 21t53 -21t21 -53t-21 -53t-53 -21zM521 586q-32 0 -53 21t-21 53t21 53t53 21t53 -21t21 -53t-21 -53t-53 -21z" />
    <glyph glyph-name="uni1E9E" unicode="&#x1e9e;" horiz-adv-x="686" vert-adv-y="0" 
d="M351 710q64 0 112 -15.5t81.5 -44.5t53.5 -69t27 -85l-124 -109q50 -7 82 -30t47.5 -60t15.5 -87q0 -52 -16 -90.5t-46 -65.5t-73.5 -40.5t-98.5 -13.5h-62v121h42q54 0 78.5 25.5t24.5 67.5q0 47 -28 68t-83 21h-43v82l135 121q-7 34 -34 56t-77 22q-72 0 -106.5 -42.5
t-34.5 -123.5v-418h-151v435q0 87 34 149t96.5 94t147.5 32z" />
    <glyph glyph-name="Ygrave" unicode="&#x1ef2;" horiz-adv-x="680" vert-adv-y="1200" 
d="M275 0v267l-265 433h175l168 -281l157 281h160l-245 -433v-267h-150zM280 750l-150 150h160l110 -150h-120z" />
    <glyph glyph-name="ygrave" unicode="&#x1ef3;" horiz-adv-x="580" vert-adv-y="1200" 
d="M150 -212q-15 0 -30 3v112q15 -3 30 -3q20 0 33.5 10t25 32t25.5 58l-224 530h148l144 -366l131 366h137l-204 -530q-29 -75 -56 -121.5t-63.5 -68.5t-96.5 -22zM235 580l-150 160h150l110 -160h-110z" />
    <glyph glyph-name="uni2009" unicode="&#x2009;" horiz-adv-x="154" vert-adv-y="0" 
 />
    <glyph glyph-name="uni2010" unicode="&#x2010;" horiz-adv-x="380" vert-adv-y="0" 
d="M30 218v124h320v-124h-320z" />
    <glyph glyph-name="uni2011" unicode="&#x2011;" horiz-adv-x="380" vert-adv-y="0" 
d="M30 218v124h320v-124h-320z" />
    <glyph glyph-name="figuredash" unicode="&#x2012;" horiz-adv-x="599" vert-adv-y="0" 
d="M53 298v124h493v-124h-493z" />
    <glyph glyph-name="endash" unicode="&#x2013;" horiz-adv-x="530" vert-adv-y="0" 
d="M30 218v124h470v-124h-470z" />
    <glyph glyph-name="emdash" unicode="&#x2014;" horiz-adv-x="730" vert-adv-y="0" 
d="M30 218v124h670v-124h-670z" />
    <glyph glyph-name="quoteleft" unicode="&#x2018;" horiz-adv-x="300" vert-adv-y="0" 
d="M255 700l-40 -150v-120h-130v120l102 150h68z" />
    <glyph glyph-name="quoteright" unicode="&#x2019;" horiz-adv-x="300" vert-adv-y="0" 
d="M45 430l40 150v120h130v-120l-102 -150h-68z" />
    <glyph glyph-name="quotesinglbase" unicode="&#x201a;" horiz-adv-x="300" vert-adv-y="0" 
d="M45 -150l40 150v120h130v-120l-102 -150h-68z" />
    <glyph glyph-name="quotedblleft" unicode="&#x201c;" horiz-adv-x="510" vert-adv-y="0" 
d="M255 700l-40 -150v-120h-130v120l102 150h68zM465 700l-40 -150v-120h-130v120l102 150h68z" />
    <glyph glyph-name="quotedblright" unicode="&#x201d;" horiz-adv-x="510" vert-adv-y="0" 
d="M45 430l40 150v120h130v-120l-102 -150h-68zM255 430l40 150v120h130v-120l-102 -150h-68z" />
    <glyph glyph-name="quotedblbase" unicode="&#x201e;" horiz-adv-x="510" vert-adv-y="0" 
d="M45 -150l40 150v120h130v-120l-102 -150h-68zM255 -150l40 150v120h130v-120l-102 -150h-68z" />
    <glyph glyph-name="dagger" unicode="&#x2020;" horiz-adv-x="550" vert-adv-y="0" 
d="M215 -200v632h-180v98h180v170h120v-170h180v-98h-180v-632h-120z" />
    <glyph glyph-name="daggerdbl" unicode="&#x2021;" horiz-adv-x="550" vert-adv-y="0" 
d="M215 -200v200h-180v98h180v334h-180v98h180v170h120v-170h180v-98h-180v-334h180v-98h-180v-200h-120z" />
    <glyph glyph-name="bullet" unicode="&#x2022;" horiz-adv-x="400" vert-adv-y="0" 
d="M200 136q-39 0 -71 18t-50 50t-18 71q0 40 18 71.5t50 49.5t71 18q40 0 71.5 -18t49.5 -49.5t18 -71.5q0 -39 -18 -71t-49.5 -50t-71.5 -18z" />
    <glyph glyph-name="ellipsis" unicode="&#x2026;" horiz-adv-x="970" vert-adv-y="0" 
d="M155 -12q-23 0 -42.5 11.5t-31 31.5t-11.5 42q0 37 25 61t60 24t60 -24t25 -61q0 -22 -11.5 -42t-30.5 -31.5t-43 -11.5zM485 -12q-23 0 -42.5 11.5t-31 31.5t-11.5 42q0 37 25 61t60 24t60 -24t25 -61q0 -22 -11.5 -42t-30.5 -31.5t-43 -11.5zM815 -12q-23 0 -42.5 11.5
t-31 31.5t-11.5 42q0 37 25 61t60 24t60 -24t25 -61q0 -22 -11.5 -42t-30.5 -31.5t-43 -11.5z" />
    <glyph glyph-name="uni202F" unicode="&#x202f;" horiz-adv-x="154" vert-adv-y="0" 
 />
    <glyph glyph-name="perthousand" unicode="&#x2030;" horiz-adv-x="1234" vert-adv-y="1200" 
d="M190 358q-77 0 -123.5 46t-46.5 121v10q0 49 21 86.5t59.5 59t89.5 21.5q52 0 90 -21t59 -58.5t21 -87.5v-10q0 -75 -46.5 -121t-123.5 -46zM190 462q20 0 32 14.5t12 48.5v10q0 34 -12 48.5t-32 14.5t-32 -14.5t-12 -48.5v-10q0 -34 12 -48.5t32 -14.5zM111 -10l480 700
h138l-480 -700h-138zM650 -22q-77 0 -123.5 46t-46.5 121v10q0 49 21 86.5t59.5 59t89.5 21.5q52 0 90 -21t59 -58.5t21 -87.5v-10q0 -75 -46.5 -121t-123.5 -46zM650 82q20 0 32 14.5t12 48.5v10q0 34 -12 48.5t-32 14.5t-32 -14.5t-12 -48.5v-10q0 -34 12 -48.5t32 -14.5z
M1044 -22q-77 0 -123.5 46t-46.5 121v10q0 49 21 86.5t59.5 59t89.5 21.5q52 0 90 -21t59 -58.5t21 -87.5v-10q0 -75 -46.5 -121t-123.5 -46zM1044 82q20 0 32 14.5t12 48.5v10q0 34 -12 48.5t-32 14.5t-32 -14.5t-12 -48.5v-10q0 -34 12 -48.5t32 -14.5z" />
    <glyph glyph-name="guilsinglleft" unicode="&#x2039;" horiz-adv-x="301" vert-adv-y="0" 
d="M250 35l-220 185v110l220 185v-138l-125 -100l125 -100v-142z" />
    <glyph glyph-name="guilsinglright" unicode="&#x203a;" horiz-adv-x="301" vert-adv-y="0" 
d="M50 515l220 -185v-110l-220 -185v138l125 100l-125 100v142z" />
    <glyph glyph-name="fraction" unicode="&#x2044;" horiz-adv-x="180" vert-adv-y="0" 
d="M-219 0l480 700h138l-480 -700h-138z" />
    <glyph glyph-name="uni2074" unicode="&#x2074;" horiz-adv-x="399" vert-adv-y="0" 
d="M204 380v69h-194v82l184 249h136v-229h40v-102h-40v-69h-126zM132 551h72v108z" />
    <glyph glyph-name="uni2081" unicode="&#x2081;" horiz-adv-x="269" vert-adv-y="1200" 
d="M119 0v269l-104 -74v127l110 78h120v-400h-126z" />
    <glyph glyph-name="uni2082" unicode="&#x2082;" horiz-adv-x="379" vert-adv-y="1200" 
d="M20 0v82l159 123q30 23 40 37t10 33q0 14 -9.5 23.5t-29.5 9.5q-17 0 -28 -11t-11 -31h-126q0 69 41 107.5t124 38.5t124 -36.5t41 -90.5q0 -26 -8.5 -47t-30 -43t-60.5 -52l-54 -41h158v-102h-340z" />
    <glyph glyph-name="uni2083" unicode="&#x2083;" horiz-adv-x="389" vert-adv-y="1200" 
d="M195 -12q-90 0 -132.5 38t-42.5 103h126q0 -18 12 -27.5t37 -9.5t37 8.5t12 28.5q0 19 -12.5 28.5t-37.5 9.5h-40v76h40q20 0 30 9t10 26q0 15 -9.5 22.5t-29.5 7.5q-19 0 -29 -9t-10 -23h-126q0 64 39.5 100t125.5 36q81 0 123 -33t42 -83q0 -39 -17.5 -57.5
t-47.5 -28.5q30 -10 52.5 -33t22.5 -65q0 -52 -42.5 -88t-132.5 -36z" />
    <glyph glyph-name="uni2084" unicode="&#x2084;" horiz-adv-x="399" vert-adv-y="1200" 
d="M204 0v69h-194v82l184 249h136v-229h40v-102h-40v-69h-126zM132 171h72v108z" />
    <glyph glyph-name="Euro" unicode="&#x20ac;" horiz-adv-x="689" vert-adv-y="0" 
d="M375 -12q-70 0 -128 24.5t-97.5 76t-57.5 133.5h-72v104h60v11.5v12.5v15v9.5v9.5h-60v104h73q18 78 59 127.5t98.5 73t124.5 23.5q56 0 104 -14t85 -43.5t59.5 -75.5t26.5 -108h-156q-7 39 -23.5 64.5t-40.5 38t-55 12.5q-38 0 -71 -22t-52 -76h158v-104h-174v-9.5v-9.5
v-15v-12.5v-11.5h174v-104h-159q12 -39 30.5 -63.5t42.5 -34.5t51 -10q34 0 58.5 13t40 39t20.5 63h156q-5 -65 -27 -111.5t-58.5 -75t-84.5 -41.5t-105 -13z" />
    <glyph glyph-name="uni20B4" unicode="&#x20b4;" horiz-adv-x="610" vert-adv-y="0" 
d="M41 387v104h304q11 11 15.5 23.5t4.5 25.5q0 21 -14 33.5t-46 12.5q-27 0 -41 -9t-19 -32h-149q1 52 24 89.5t69 57.5t116 20q71 0 117.5 -20t69 -52.5t22.5 -69.5q0 -22 -2.5 -41.5t-13.5 -37.5h71v-104h-528zM305 -12q-76 0 -124 19t-71.5 52.5t-23.5 75.5q0 30 4.5 50
t15.5 40h-65v104h528v-104h-305q-17 -17 -23 -31.5t-6 -29.5q0 -23 16 -36.5t54 -13.5q32 0 49 10.5t21 30.5h149q-2 -50 -24 -87t-69 -58.5t-126 -21.5z" />
    <glyph glyph-name="uni20B8" unicode="&#x20b8;" horiz-adv-x="639" vert-adv-y="0" 
d="M20 574v126h599v-126h-599zM396 0h-152v388h-224v127h599v-127h-223v-388z" />
    <glyph glyph-name="uni20BD" unicode="&#x20bd;" horiz-adv-x="659" vert-adv-y="0" 
d="M110 0v88h-90v104h90v58h-90v124h90v326h249q87 0 144.5 -28t87 -78.5t29.5 -118.5t-29.5 -118.5t-87 -78.5t-144.5 -28h-99v-58h220v-104h-220v-88h-150zM260 374h85q66 0 95.5 26.5t29.5 74.5t-28 74.5t-97 26.5h-85v-202z" />
    <glyph glyph-name="uni2116" unicode="&#x2116;" horiz-adv-x="1105" vert-adv-y="0" 
d="M81 0v700h141l309 -450v450h148v-700h-141l-309 450v-450h-148zM910 368q-77 0 -123.5 46t-46.5 121v10q0 49 21 87t60 59t89 21q52 0 90 -21t58.5 -58.5t20.5 -87.5v-10q0 -75 -46 -121t-123 -46zM910 472q21 0 33 14.5t12 48.5v10q0 34 -12 48.5t-33 14.5
q-20 0 -32 -14.5t-12 -48.5v-10q0 -34 12 -48.5t32 -14.5zM750 219v102h319v-102h-319z" />
    <glyph glyph-name="trademark" unicode="&#x2122;" horiz-adv-x="895" vert-adv-y="0" 
d="M128 300v298h-108v102h340v-102h-108v-298h-124zM420 300v400h129l97 -181l98 181h126v-400h-116v225l-79 -145h-60l-79 145v-225h-116z" />
    <glyph glyph-name="arrowleft" unicode="&#x2190;" horiz-adv-x="750" vert-adv-y="0" 
d="M313 50l-300 300l300 300h175l-238 -238h475v-124h-475l238 -238h-175z" />
    <glyph glyph-name="arrowup" unicode="&#x2191;" horiz-adv-x="800" vert-adv-y="0" 
d="M309 0v470l-234 -233v175l300 300l300 -300v-175l-234 233v-470h-132z" />
    <glyph glyph-name="arrowright" unicode="&#x2192;" horiz-adv-x="750" vert-adv-y="0" 
d="M262 50l228 238h-465v124h465l-228 238h175l300 -300l-300 -300h-175z" />
    <glyph glyph-name="arrowdown" unicode="&#x2193;" horiz-adv-x="750" vert-adv-y="0" 
d="M375 -12l-300 300v175l234 -233v470h132v-470l234 233v-175z" />
    <glyph glyph-name="arrownorthwest" unicode="&#x2196;" horiz-adv-x="750" vert-adv-y="0" 
d="M582 50l-383 382v-324l-124 124v418h418l124 -124h-326l384 -383z" />
    <glyph glyph-name="arrownortheast" unicode="&#x2197;" horiz-adv-x="750" vert-adv-y="0" 
d="M163 50l-88 88l388 388h-330l124 124h418v-418l-124 -124v330z" />
    <glyph glyph-name="arrowsoutheast" unicode="&#x2198;" horiz-adv-x="750" vert-adv-y="0" 
d="M257 50l-124 124h326l-384 383l93 93l383 -382v324l124 -124v-418h-418z" />
    <glyph glyph-name="arrowsouthwest" unicode="&#x2199;" horiz-adv-x="750" vert-adv-y="0" 
d="M75 50v418l124 124v-330l388 388l88 -88l-388 -388h330l-124 -124h-418z" />
    <glyph glyph-name="uni0394" unicode="&#x2206;" horiz-adv-x="689" vert-adv-y="0" 
d="M10 0l254 700h162l254 -700h-670zM338 520l-142 -396h284z" />
    <glyph glyph-name="minus" unicode="&#x2212;" horiz-adv-x="569" vert-adv-y="0" 
d="M40 298v124h490v-124h-490z" />
    <glyph glyph-name="division" unicode="&#x2215;" horiz-adv-x="569" vert-adv-y="0" 
d="M45 0l342 700h138l-342 -700h-138z" />
    <glyph glyph-name="radical" unicode="&#x221a;" horiz-adv-x="630" vert-adv-y="0" 
d="M10 267v124h160l115 -281l157 690h178v-124h-74l-176 -776h-150l-150 367h-60z" />
    <glyph glyph-name="approxequal" unicode="&#x2248;" horiz-adv-x="569" vert-adv-y="0" 
d="M380 140q-34 0 -60.5 11.5t-48.5 26t-42.5 25.5t-43.5 11q-17 0 -29.5 -9t-20.5 -17q-5 -7 -9.5 -13.5t-8.5 -14.5l-87 56q8 16 18 32t21 29q20 23 49 43t72 20q34 0 60 -11.5t48 -26t43 -25.5t44 -11q16 0 28.5 8t21.5 19q5 5 9 12t8 15l88 -54q-9 -19 -18.5 -34.5
t-20.5 -29.5q-20 -23 -49.5 -42.5t-71.5 -19.5zM380 380q-34 0 -60.5 11.5t-48.5 26t-42.5 25.5t-43.5 11q-17 0 -29.5 -9t-20.5 -17q-5 -7 -9.5 -13.5t-8.5 -14.5l-87 54q8 18 18 34t21 29q20 23 49 43t72 20q34 0 60 -11.5t48 -26t43 -25.5t44 -11q16 0 28.5 8t21.5 19
q5 5 9 12t8 15l88 -56q-9 -17 -18.5 -32.5t-20.5 -29.5q-20 -23 -49.5 -42.5t-71.5 -19.5z" />
    <glyph glyph-name="lessequal" unicode="&#x2264;" horiz-adv-x="569" vert-adv-y="0" 
d="M40 20v124h490v-124h-490zM530 152l-490 215v109l490 216v-143l-315 -126l315 -124v-147z" />
    <glyph glyph-name="greaterequal" unicode="&#x2265;" horiz-adv-x="569" vert-adv-y="0" 
d="M40 20v124h490v-124h-490zM41 692l490 -216v-109l-490 -215v143l315 124l-315 126v147z" />
    <glyph glyph-name="angleleft" unicode="&#x2329;" horiz-adv-x="380" vert-adv-y="0" 
d="M243 -200l-198 450l200 450h130l-200 -450l200 -450h-132z" />
    <glyph glyph-name="angleright" unicode="&#x232a;" horiz-adv-x="380" vert-adv-y="0" 
d="M137 700l198 -450l-200 -450h-130l200 450l-200 450h132z" />
    <glyph glyph-name="Accent" unicode="&#xf401;" vert-adv-y="0" 
 />
    <glyph glyph-name="Apostrophe" unicode="&#xf40a;" horiz-adv-x="285" vert-adv-y="0" 
d="M45 410l40 160v130h140v-130l-112 -160h-68z" />
    <glyph glyph-name="cyrEstail.alt02" unicode="&#xf50c;" horiz-adv-x="699" vert-adv-y="1200" 
d="M365 -12q-91 0 -162.5 36.5t-112 115t-40.5 205.5v20q0 92 24 157.5t67.5 107.5t100.5 62t123 20q59 0 110.5 -14.5t91.5 -43.5t64.5 -75t28.5 -108h-156q-11 59 -48 87t-91 28q-42 0 -78 -20.5t-58.5 -68.5t-22.5 -132v-20q0 -66 14 -110.5t37 -71t51 -38t57 -11.5
q57 0 94 29.5t45 85.5h156q-5 -65 -29 -111.5t-63 -75t-91 -41.5t-112 -13zM335 -212q-17 0 -30 1t-22 3q-5 1 -9.5 2t-8.5 2v74l14 -2q7 -1 16 -1.5t20 -0.5q27 0 35.5 7.5t8.5 17.5q0 11 -8.5 18.5t-40.5 7.5l17 93h80l-7 -46q37 -9 50.5 -31.5t13.5 -47.5
q0 -44 -30 -70.5t-99 -26.5z" />
    <glyph glyph-name="cyrestail.alt02" unicode="&#xf50d;" horiz-adv-x="564" vert-adv-y="1200" 
d="M295 -12q-73 0 -132 30.5t-93.5 91t-34.5 150.5v20q0 86 36 144t95 88t129 30q75 0 127 -25t80.5 -69t32.5 -97h-134q-8 36 -32.5 57.5t-73.5 21.5q-34 0 -62.5 -16t-46 -49t-17.5 -85v-20q0 -56 16.5 -91.5t45 -52t64.5 -16.5q39 0 67.5 20.5t38.5 58.5h134
q-6 -57 -38 -101t-84.5 -67t-117.5 -23zM270 -212q-17 0 -30 1t-22 3q-5 1 -9.5 2t-8.5 2v72l14 -2q7 -1 16 -1.5t20 -0.5q27 0 36.5 8.5t9.5 17.5q0 12 -9 20.5t-40 8.5l17 91h76l-7 -46q38 -9 52 -31.5t14 -47.5q0 -44 -30 -70.5t-99 -26.5z" />
    <glyph glyph-name="cyrYerucyrbreve" unicode="&#xf536;" horiz-adv-x="909" vert-adv-y="1200" 
d="M81 0v700h149v-250h100q143 0 211 -61.5t68 -163.5t-68 -163.5t-211 -61.5h-249zM230 124h85q80 0 112.5 27t32.5 74t-32.5 74t-112.5 27h-85v-202zM680 0v700h150v-700h-150zM454 740q-64 0 -106.5 19.5t-62.5 57t-20 93.5h126q0 -48 16 -66t47 -18q33 0 49 18t16 66
h126q0 -56 -20 -93.5t-62 -57t-109 -19.5z" />
    <glyph glyph-name="cyryerucyrbreve" unicode="&#xf537;" horiz-adv-x="749" vert-adv-y="1200" 
d="M61 0v530h131v-178h93q103 0 153.5 -44t50.5 -132q0 -52 -21 -91.5t-65.5 -62t-117.5 -22.5h-224zM192 106h78q48 0 68 18t20 52q0 35 -20.5 53t-67.5 18h-78v-141zM549 0v530h131v-530h-131zM370 585q-89 0 -129.5 38t-40.5 112h117q0 -39 13 -54.5t39 -15.5
q28 0 42 15.5t14 54.5h115q0 -74 -41 -112t-129 -38z" />
    <glyph glyph-name="cyrGebar.alt" unicode="&#xf53c;" horiz-adv-x="595" vert-adv-y="1200" 
d="M81 0v700h479v-124h-330v-176h300v-120h-300v-280h-149z" />
    <glyph glyph-name="cyrgebar.alt" unicode="&#xf53d;" horiz-adv-x="460" vert-adv-y="0" 
d="M192 0h-131v530h379v-110h-248v-114h156v-110h-156v-196z" />
    <glyph glyph-name="uniF6BA" unicode="&#xf6ba;" horiz-adv-x="380" vert-adv-y="0" 
d="M30 288v124h320v-124h-320z" />
    <glyph glyph-name="uniF6BB" unicode="&#xf6bb;" horiz-adv-x="530" vert-adv-y="0" 
d="M30 288v124h470v-124h-470z" />
    <glyph glyph-name="uniF6BC" unicode="&#xf6bc;" horiz-adv-x="730" vert-adv-y="0" 
d="M30 288v124h670v-124h-670z" />
    <glyph glyph-name="cyrBreve" unicode="&#xf6d1;" horiz-adv-x="420" vert-adv-y="0" 
d="M209 740q-64 0 -106.5 19.5t-62.5 57t-20 93.5h126q0 -48 16 -66t47 -18q33 0 49 18t16 66h126q0 -56 -20 -93.5t-62 -57t-109 -19.5z" />
    <glyph glyph-name="cyrbreve" unicode="&#xf6d4;" horiz-adv-x="380" vert-adv-y="0" 
d="M190 585q-89 0 -129.5 38t-40.5 112h117q0 -39 13 -54.5t39 -15.5q28 0 42 15.5t14 54.5h115q0 -74 -41 -112t-129 -38z" />
    <glyph glyph-name="uniFEFF" unicode="&#xfeff;" vert-adv-y="0" 
 />
    <glyph glyph-name="i.loclTRK" horiz-adv-x="271" vert-adv-y="1200" 
d="M71 0v530h131v-530h-131zM136 581q-35 0 -57.5 22t-22.5 57t22.5 57t56.5 22q36 0 58.5 -22t22.5 -57t-22.5 -57t-57.5 -22z" />
    <glyph glyph-name="zero.osf" horiz-adv-x="639" vert-adv-y="0" 
d="M320 -12q-137 0 -208.5 70.5t-71.5 201.5v20q0 80 32.5 139t95 91t152.5 32q137 0 208.5 -69t71.5 -193v-20q0 -85 -32.5 -146t-95 -93.5t-152.5 -32.5zM320 114q60 0 95 37t35 109v20q0 63 -36 99.5t-94 36.5q-60 0 -95 -36t-35 -100v-20q0 -70 36 -108t94 -38z" />
    <glyph glyph-name="one.osf" horiz-adv-x="430" vert-adv-y="0" 
d="M200 0v378l-159 -109v146l168 115h140v-530h-149z" />
    <glyph glyph-name="two.osf" horiz-adv-x="569" vert-adv-y="0" 
d="M45 0v94l218 149q45 30 66.5 48.5t28.5 34t7 34.5q0 26 -20 41t-55 15q-47 0 -71 -21t-24 -70h-150q0 64 28.5 113t83.5 76.5t133 27.5q74 0 124 -22.5t75.5 -61t25.5 -88.5q0 -32 -7.5 -58t-26.5 -50t-53 -51t-87 -61l-41 -26h215v-124h-470z" />
    <glyph glyph-name="three.osf" horiz-adv-x="570" vert-adv-y="0" 
d="M280 -212q-81 0 -136.5 29.5t-84.5 83t-29 123.5h150q0 -53 23 -81.5t77 -28.5q51 0 75.5 27.5t24.5 76.5q0 47 -23.5 73.5t-76.5 26.5h-56v114h56q44 0 67 23t23 65q0 46 -22 71t-68 25q-48 0 -69 -26.5t-21 -73.5h-150q0 68 27.5 119t81 79t131.5 28t131 -26t81 -71.5
t28 -103.5t-29.5 -101t-79.5 -60q58 -17 88.5 -61.5t30.5 -113.5q0 -61 -28.5 -110.5t-84.5 -78t-137 -28.5z" />
    <glyph glyph-name="four.osf" horiz-adv-x="579" vert-adv-y="0" 
d="M330 -200v200h-310v104l310 426h150v-406h79v-124h-79v-200h-150zM160 124h170v239z" />
    <glyph glyph-name="five.osf" horiz-adv-x="590" vert-adv-y="0" 
d="M295 -212q-85 0 -138.5 28.5t-79 77t-26.5 105.5h149q3 -39 26.5 -62t68.5 -23q51 0 78 32.5t27 101.5q0 50 -14.5 78t-39 40t-51.5 12q-31 0 -53.5 -12.5t-36.5 -34.5h-139v399h445v-124h-296v-138q17 14 48 24.5t67 10.5q70 0 118.5 -27.5t74.5 -84t26 -143.5
q0 -82 -30.5 -140.5t-87.5 -89t-136 -30.5z" />
    <glyph glyph-name="six.osf" horiz-adv-x="605" vert-adv-y="0" 
d="M315 -12q-124 0 -194.5 78.5t-70.5 253.5v20q0 134 36.5 215.5t98.5 119t140 37.5q58 0 105 -18t77 -57t38 -101h-140q-10 25 -29 37.5t-56 12.5q-39 0 -66.5 -16.5t-43.5 -59.5t-20 -126q26 41 68 57t92 16q66 0 113 -26t72 -75t25 -119v-11q0 -71 -32.5 -124.5
t-88 -83.5t-124.5 -30zM305 114q50 0 77.5 30.5t27.5 78.5v10q0 48 -27.5 78t-77.5 30t-77.5 -30t-27.5 -78v-10q0 -48 27.5 -78.5t77.5 -30.5z" />
    <glyph glyph-name="seven.osf" horiz-adv-x="520" vert-adv-y="0" 
d="M91 -200l246 606h-317v124h469v-109l-239 -621h-159z" />
    <glyph glyph-name="eight.osf" horiz-adv-x="609" vert-adv-y="0" 
d="M305 -12q-79 0 -137.5 25t-90.5 71t-32 107q0 59 35 105.5t98 65.5q-45 18 -79 59.5t-34 100.5q0 55 29.5 98t83 67.5t127.5 24.5q75 0 129 -24.5t83 -67.5t29 -98q0 -59 -30.5 -99.5t-83.5 -60.5q64 -22 98.5 -64.5t34.5 -106.5q0 -61 -32 -107t-90 -71t-138 -25z
M305 114q54 0 82 24t28 65q0 45 -32.5 71.5t-77.5 34.5q-45 -8 -77.5 -34.5t-32.5 -71.5q0 -41 29 -65t81 -24zM305 411q39 8 65 31.5t26 65.5q0 39 -25.5 58.5t-65.5 19.5q-39 0 -64.5 -19.5t-25.5 -58.5q0 -42 26.5 -65.5t63.5 -31.5z" />
    <glyph glyph-name="nine.osf" horiz-adv-x="625" vert-adv-y="0" 
d="M295 -212q-61 0 -109 19t-77.5 58.5t-38.5 98.5h140q10 -25 31 -37.5t59 -12.5q31 0 58 17t45 62.5t22 132.5q-26 -41 -68 -57t-92 -16q-65 0 -112.5 28.5t-72.5 80.5t-25 121v11q0 71 32.5 127t87.5 88.5t125 32.5q84 0 143 -39t90.5 -116.5t31.5 -196.5v-19
q0 -139 -36 -223t-97 -122t-137 -38zM310 169q50 0 77.5 31t27.5 87v10q0 54 -28.5 86.5t-76.5 32.5q-51 0 -78 -31.5t-27 -87.5v-10q0 -56 27 -87t78 -31z" />
    <glyph glyph-name="zero.tf" horiz-adv-x="639" vert-adv-y="1200" 
d="M320 -12q-57 0 -106 19t-86 61t-57.5 111.5t-20.5 170.5v20q0 94 20.5 159t57.5 105.5t86 59t106 18.5t106 -18.5t86 -59t57.5 -105.5t20.5 -159v-20q0 -101 -20.5 -170.5t-57.5 -111.5t-86 -61t-106 -19zM320 114q26 0 47.5 10.5t38 36.5t25.5 72t9 117v20q0 85 -16 132
t-43 65.5t-61 18.5q-35 0 -61.5 -18.5t-42.5 -65.5t-16 -132v-20q0 -71 9 -117t25.5 -72t38.5 -36.5t47 -10.5z" />
    <glyph glyph-name="one.tf" horiz-adv-x="639" vert-adv-y="0" 
d="M568 0h-486v126h182v420l-165 -118v154l166 118h151v-574h152v-126z" />
    <glyph glyph-name="two.tf" horiz-adv-x="599" vert-adv-y="1200" 
d="M30 0v109l245 211q46 41 73.5 67.5t39.5 50.5t12 52q0 43 -23.5 69.5t-71.5 26.5q-55 0 -85 -29.5t-30 -100.5h-150q0 79 30 136.5t89.5 88.5t145.5 31q80 0 135 -28.5t82.5 -78.5t27.5 -115q0 -48 -22.5 -90t-59.5 -80t-83 -76l-144 -120h319v-124h-530z" />
    <glyph glyph-name="three.tf" horiz-adv-x="604" vert-adv-y="1200" 
d="M295 -12q-85 0 -143 27.5t-87.5 78.5t-29.5 121h150q0 -51 26 -76t84 -25q55 0 82.5 24.5t27.5 69.5q0 47 -27.5 71t-82.5 24h-66v114h66q48 0 74 20.5t26 63.5q0 37 -25 61t-75 24q-51 0 -75.5 -23t-24.5 -68h-150q0 69 27.5 117.5t83.5 74t139 25.5t139 -25t83.5 -68
t27.5 -97q0 -59 -32.5 -99.5t-86.5 -57.5q62 -17 95.5 -59.5t33.5 -110.5q0 -60 -31.5 -106.5t-89.5 -73.5t-139 -27z" />
    <glyph glyph-name="four.tf" horiz-adv-x="639" vert-adv-y="0" 
d="M515 0h-150v147h-316v106l320 447h146v-427h81v-126h-81v-147zM365 528l-175 -255h175v255z" />
    <glyph glyph-name="five.tf" horiz-adv-x="599" vert-adv-y="1200" 
d="M300 -12q-66 0 -113 17t-77 46t-44.5 66t-15.5 78h150q3 -36 27.5 -58.5t72.5 -22.5q55 0 82.5 31t27.5 93q0 44 -15 70.5t-40 38t-55 11.5q-35 0 -58 -12.5t-37 -34.5h-140v389h456v-124h-306v-128q21 19 51 27t69 8q68 0 118 -27t78.5 -81.5t28.5 -136.5
q0 -75 -32.5 -131.5t-90.5 -87.5t-137 -31z" />
    <glyph glyph-name="six.tf" horiz-adv-x="624" vert-adv-y="1200" 
d="M325 -12q-131 0 -203 78.5t-72 253.5v20q0 134 36.5 215.5t101 119t147.5 37.5q65 0 113.5 -18t78.5 -56.5t38 -101.5h-140q-10 25 -33.5 37.5t-61.5 12.5q-40 0 -69.5 -16.5t-48 -59.5t-22.5 -126q26 41 73.5 57t96.5 16q71 0 119.5 -26t74.5 -75t26 -119v-11
q0 -71 -32.5 -124.5t-90.5 -83.5t-132 -30zM315 114q54 0 84.5 30.5t30.5 78.5v10q0 48 -30.5 78t-84.5 30t-84.5 -30t-30.5 -78v-10q0 -48 30.5 -78.5t84.5 -30.5z" />
    <glyph glyph-name="seven.tf" horiz-adv-x="639" vert-adv-y="0" 
d="M335 0h-158l249 575h-357v125h510v-110z" />
    <glyph glyph-name="eight.tf" horiz-adv-x="629" vert-adv-y="1200" 
d="M315 -12q-84 0 -144.5 25t-93 71t-32.5 107q0 59 36 105.5t107 65.5q-53 17 -88 59t-35 101q0 55 29 98t84.5 67.5t136.5 24.5q80 0 136 -24.5t85.5 -67.5t29.5 -98q0 -59 -35.5 -99.5t-88.5 -60.5q71 -22 107 -64.5t36 -106.5q0 -61 -32 -107t-92.5 -71t-145.5 -25z
M315 114q42 0 68.5 11t39 31t12.5 47q0 45 -33.5 71.5t-86.5 34.5q-53 -8 -86.5 -34.5t-33.5 -71.5q0 -27 13.5 -47t40 -31t66.5 -11zM315 411q45 8 73 31.5t28 65.5q0 39 -26.5 58.5t-74.5 19.5q-47 0 -73.5 -19.5t-26.5 -58.5q0 -42 27.5 -65.5t72.5 -31.5z" />
    <glyph glyph-name="nine.tf" horiz-adv-x="624" vert-adv-y="1200" 
d="M295 -12q-66 0 -116 19t-80 58.5t-39 98.5h140q9 -25 32 -37.5t68 -12.5q37 0 66 16.5t47.5 60t21.5 125.5q-25 -41 -73 -57t-96 -16q-70 0 -120 26t-75.5 75.5t-25.5 118.5v11q0 71 32.5 124.5t90.5 83.5t132 30q88 0 149.5 -34t93.5 -107t32 -191v-19
q0 -134 -36.5 -216t-99.5 -119.5t-144 -37.5zM310 359q54 0 84.5 30t30.5 78v10q0 47 -31.5 78t-83.5 31q-54 0 -84.5 -30.5t-30.5 -78.5v-10q0 -48 30.5 -78t84.5 -30z" />
    <glyph glyph-name="zero.tosf" horiz-adv-x="639" vert-adv-y="1200" 
d="M320 -12q-137 0 -208.5 70.5t-71.5 201.5v20q0 80 32.5 139t95 91t152.5 32q137 0 208.5 -69t71.5 -193v-20q0 -85 -32.5 -146t-95 -93.5t-152.5 -32.5zM320 114q60 0 95 37t35 109v20q0 63 -36 99.5t-94 36.5q-60 0 -95 -36t-35 -100v-20q0 -70 36 -108t94 -38z" />
    <glyph glyph-name="one.tosf" horiz-adv-x="639" vert-adv-y="0" 
d="M74 0v126h197v250l-166 -118v154l168 118h150v-404h142v-126h-491z" />
    <glyph glyph-name="two.tosf" horiz-adv-x="639" vert-adv-y="1200" 
d="M85 0v94l218 149q45 30 66.5 48.5t28.5 34t7 34.5q0 26 -20 41t-55 15q-47 0 -71 -21t-24 -70h-150q0 64 28.5 113t83.5 76.5t133 27.5q74 0 124 -22.5t75.5 -61t25.5 -88.5q0 -32 -7.5 -58t-26.5 -50t-53 -51t-87 -61l-41 -26h215v-124h-470z" />
    <glyph glyph-name="three.tosf" horiz-adv-x="639" vert-adv-y="1200" 
d="M320 -212q-81 0 -136.5 29.5t-84.5 83t-29 123.5h150q0 -53 23 -81.5t77 -28.5q51 0 75.5 27.5t24.5 76.5q0 47 -23.5 73.5t-76.5 26.5h-56v114h56q44 0 67 23t23 65q0 46 -22 71t-68 25q-48 0 -69 -26.5t-21 -73.5h-150q0 68 27.5 119t81 79t131.5 28t131 -26t81 -71.5
t28 -103.5t-29.5 -101t-79.5 -60q58 -17 88.5 -61.5t30.5 -113.5q0 -61 -28.5 -110.5t-84.5 -78t-137 -28.5z" />
    <glyph glyph-name="four.tosf" horiz-adv-x="639" vert-adv-y="1200" 
d="M360 -200v200h-310v104l310 426h150v-406h79v-124h-79v-200h-150zM190 124h170v239z" />
    <glyph glyph-name="five.tosf" horiz-adv-x="639" vert-adv-y="1200" 
d="M315 -212q-85 0 -138.5 28.5t-79 77t-26.5 105.5h149q3 -39 26.5 -62t68.5 -23q51 0 78 32.5t27 101.5q0 50 -14.5 78t-39 40t-51.5 12q-31 0 -53.5 -12.5t-36.5 -34.5h-139v399h445v-124h-296v-138q17 14 48 24.5t67 10.5q70 0 118.5 -27.5t74.5 -84t26 -143.5
q0 -82 -30.5 -140.5t-87.5 -89t-136 -30.5z" />
    <glyph glyph-name="six.tosf" horiz-adv-x="639" vert-adv-y="1200" 
d="M330 -12q-124 0 -194.5 78.5t-70.5 253.5v20q0 134 36.5 215.5t98.5 119t140 37.5q58 0 105 -18t77 -57t38 -101h-140q-10 25 -29 37.5t-56 12.5q-39 0 -66.5 -16.5t-43.5 -59.5t-20 -126q26 41 68 57t92 16q66 0 113 -26t72 -75t25 -119v-11q0 -71 -32.5 -124.5
t-88 -83.5t-124.5 -30zM320 114q50 0 77.5 30.5t27.5 78.5v10q0 48 -27.5 78t-77.5 30t-77.5 -30t-27.5 -78v-10q0 -48 27.5 -78.5t77.5 -30.5z" />
    <glyph glyph-name="seven.tosf" horiz-adv-x="639" vert-adv-y="0" 
d="M318 -200h-160l253 605h-336v125h490v-110z" />
    <glyph glyph-name="eight.tosf" horiz-adv-x="639" vert-adv-y="1200" 
d="M320 -12q-79 0 -137.5 25t-90.5 71t-32 107q0 59 35 105.5t98 65.5q-45 18 -79 59.5t-34 100.5q0 55 29.5 98t83 67.5t127.5 24.5q75 0 129 -24.5t83 -67.5t29 -98q0 -59 -30.5 -99.5t-83.5 -60.5q64 -22 98.5 -64.5t34.5 -106.5q0 -61 -32 -107t-90 -71t-138 -25z
M320 114q54 0 82 24t28 65q0 45 -32.5 71.5t-77.5 34.5q-45 -8 -77.5 -34.5t-32.5 -71.5q0 -41 29 -65t81 -24zM320 411q39 8 65 31.5t26 65.5q0 39 -25.5 58.5t-65.5 19.5q-39 0 -64.5 -19.5t-25.5 -58.5q0 -42 26.5 -65.5t63.5 -31.5z" />
    <glyph glyph-name="nine.tosf" horiz-adv-x="639" vert-adv-y="1200" 
d="M305 -212q-61 0 -109 19t-77.5 58.5t-38.5 98.5h140q10 -25 31 -37.5t59 -12.5q31 0 58 17t45 62.5t22 132.5q-26 -41 -68 -57t-92 -16q-65 0 -112.5 28.5t-72.5 80.5t-25 121v11q0 71 32.5 127t87.5 88.5t125 32.5q84 0 143 -39t90.5 -116.5t31.5 -196.5v-19
q0 -139 -36 -223t-97 -122t-137 -38zM320 169q50 0 77.5 31t27.5 87v10q0 54 -28.5 86.5t-76.5 32.5q-51 0 -78 -31.5t-27 -87.5v-10q0 -56 27 -87t78 -31z" />
    <glyph glyph-name="parenleft.case" horiz-adv-x="380" vert-adv-y="0" 
d="M71 340v20q0 106 24.5 187t55.5 138q16 33 36.5 61.5t43.5 53.5h139q-24 -25 -45.5 -53.5t-40.5 -61.5q-31 -55 -58.5 -138t-27.5 -187v-20q0 -105 26.5 -187t59.5 -138q19 -33 40.5 -61.5t45.5 -53.5h-143q-22 25 -42 53.5t-36 61.5q-31 56 -54.5 138t-23.5 187z" />
    <glyph glyph-name="parenright.case" horiz-adv-x="380" vert-adv-y="0" 
d="M309 360v-20q0 -106 -24.5 -187t-55.5 -138q-17 -33 -36.5 -61.5t-43.5 -53.5h-139q24 25 45.5 53.5t40.5 61.5q32 56 59 138.5t27 186.5v20q0 105 -27 187t-59 138q-19 33 -40.5 61.5t-45.5 53.5h143q23 -25 42.5 -53.5t35.5 -61.5q31 -56 54.5 -138t23.5 -187z" />
    <glyph glyph-name="braceleft.case" horiz-adv-x="380" vert-adv-y="0" 
d="M339 -100h-59q-75 0 -117 42t-42 117v192q0 23 -13.5 36.5t-36.5 13.5v98q23 0 36.5 13.5t13.5 36.5v201q0 68 44.5 109t114.5 41h59v-98h-40q-29 0 -44 -15t-15 -45v-222q0 -30 -13.5 -46t-36.5 -24q23 -8 36.5 -24t13.5 -46v-222q0 -30 15 -45t44 -15h40v-98z" />
    <glyph glyph-name="braceright.case" horiz-adv-x="380" vert-adv-y="0" 
d="M41 800h59q75 0 117 -42t42 -117v-192q0 -23 13.5 -36.5t36.5 -13.5v-98q-23 0 -36.5 -13.5t-13.5 -36.5v-200q0 -68 -44.5 -109.5t-114.5 -41.5h-59v98h40q29 0 44 15t15 45v222q0 30 13.5 46t36.5 24q-23 8 -36.5 24t-13.5 46v222q0 30 -15 45t-44 15h-40v98z" />
    <glyph glyph-name="bracketleft.case" horiz-adv-x="380" vert-adv-y="0" 
d="M111 -100v900h218v-98h-99v-704h99v-98h-218z" />
    <glyph glyph-name="bracketright.case" horiz-adv-x="380" vert-adv-y="0" 
d="M269 800v-900h-218v98h99v704h-99v98h218z" />
    <glyph glyph-name="uni030C.alt" vert-adv-y="1200" 
d="M64 486l11 127v87h111v-87l-68 -127h-54z" />
    <glyph glyph-name="uni0308.case" vert-adv-y="0" 
d="M100 746q-35 0 -57.5 22t-22.5 57t22.5 57t57.5 22t57.5 -22t22.5 -57t-22.5 -57t-57.5 -22zM340 746q-35 0 -58 22t-23 57t23 57t58 22t57.5 -22t22.5 -57t-22.5 -57t-57.5 -22z" />
    <glyph glyph-name="uni0307.case" vert-adv-y="0" 
d="M106 740q-38 0 -62 23.5t-24 61.5t24 61.5t62 23.5t62 -23.5t24 -61.5t-24 -61.5t-62 -23.5z" />
    <glyph glyph-name="gravecomb.case" vert-adv-y="0" 
d="M170 750l-150 150h160l110 -150h-120z" />
    <glyph glyph-name="acutecomb.case" vert-adv-y="1200" 
d="M20 750l110 150h160l-150 -150h-120z" />
    <glyph glyph-name="uni030B.case" vert-adv-y="0" 
d="M39 750l109 150h125l-133 -150h-101zM206 750l134 150h128l-161 -150h-101z" />
    <glyph glyph-name="uni0302.case" vert-adv-y="0" 
d="M20 750l110 150h140l110 -150h-120l-61 61l-59 -61h-120z" />
    <glyph glyph-name="uni030C.case" vert-adv-y="0" 
d="M130 750l-110 150h120l59 -61l61 61h120l-110 -150h-140z" />
    <glyph glyph-name="uni0306.case" vert-adv-y="0" 
d="M209 740q-64 0 -106.5 19.5t-62.5 57t-20 93.5h126q0 -48 16 -66t47 -18q33 0 49 18t16 66h126q0 -56 -20 -93.5t-62 -57t-109 -19.5z" />
    <glyph glyph-name="uni030A.case" vert-adv-y="0" 
d="M150 730q-37 0 -66.5 14.5t-46.5 40.5t-17 60t17 60t46.5 40.5t66.5 14.5t66 -14.5t46 -40.5t17 -60t-16.5 -60t-46.5 -40.5t-66 -14.5zM150 810q17 0 28.5 9.5t11.5 25.5q0 17 -11.5 26t-28.5 9t-29 -9.5t-12 -25.5q0 -17 12 -26t29 -9z" />
    <glyph glyph-name="tildecomb.case" vert-adv-y="0" 
d="M280 750q-35 0 -57.5 11t-41 22.5t-41.5 11.5q-14 0 -23 -6t-16 -14q-3 -4 -6 -9.5t-5 -10.5l-70 40q4 14 10 27.5t14 24.5q14 20 37.5 36.5t57.5 16.5q36 0 58.5 -11.5t41.5 -22.5t41 -11q13 0 22.5 6t14.5 14q5 5 8 10t5 10l70 -40q-4 -15 -10 -28.5t-14 -24.5
q-14 -20 -37.5 -36t-58.5 -16z" />
    <glyph glyph-name="uni0304.case" vert-adv-y="0" 
d="M20 773v104h320v-104h-320z" />
    <glyph glyph-name="uni0327.case" vert-adv-y="0" 
d="M90 -212q-17 0 -30 1t-22 3q-5 1 -9.5 2t-8.5 2v74l14 -2q7 -1 16 -1.5t20 -0.5q27 0 35.5 7.5t8.5 17.5q0 11 -8.5 18.5t-40.5 7.5l17 93h80l-7 -46q37 -9 50.5 -31.5t13.5 -47.5q0 -44 -30 -70.5t-99 -26.5z" />
    </font>
</defs>
</svg>
