<?xml version="1.0" standalone="no"?>
<!DOCTYPE svg PUBLIC "-//W3C//DTD SVG 1.1//EN" "http://www.w3.org/Graphics/SVG/1.1/DTD/svg11.dtd" >
<svg xmlns="http://www.w3.org/2000/svg" xmlns:xlink="http://www.w3.org/1999/xlink" version="1.1">
<metadata>
Created by FontForge 20201107 at Fri Jan  6 16:30:32 2023
 By 
Copyright 2019 The Golos Text Project Authors (https://github.com/googlefonts/golos-text)
</metadata>
<defs>
<font id="GolosText-Medium" horiz-adv-x="0" vert-adv-y="1000" >
  <font-face 
    font-family="Golos Text Medium"
    font-weight="500"
    font-stretch="normal"
    units-per-em="1000"
    panose-1="2 11 5 3 2 2 2 2 2 4"
    ascent="800"
    descent="-200"
    x-height="530"
    cap-height="700"
    bbox="-210 -229 1202 960"
    underline-thickness="50"
    underline-position="-100"
    unicode-range="U+000D-FEFF"
  />
<missing-glyph horiz-adv-x="500" vert-adv-y="0" 
d="M58 8h384v496h-384v-496zM50 0v512h400v-512h-400z" />
    <glyph glyph-name=".notdef" horiz-adv-x="500" vert-adv-y="0" 
d="M58 8h384v496h-384v-496zM50 0v512h400v-512h-400z" />
    <glyph glyph-name=".null" vert-adv-y="0" 
 />
    <glyph glyph-name=".null" vert-adv-y="0" 
 />
    <glyph glyph-name="uni000D" unicode="&#xd;" horiz-adv-x="250" vert-adv-y="0" 
 />
    <glyph glyph-name="space" unicode=" " horiz-adv-x="250" vert-adv-y="0" 
 />
    <glyph glyph-name="exclam" unicode="!" horiz-adv-x="310" vert-adv-y="0" 
d="M100 225v475h110v-475h-110zM155 -11q-22 0 -40.5 10.5t-29 29t-10.5 40.5q0 35 23 57.5t57 22.5t57 -22.5t23 -57.5q0 -22 -10.5 -40.5t-28.5 -29t-41 -10.5z" />
    <glyph glyph-name="quotedbl" unicode="&#x22;" horiz-adv-x="400" vert-adv-y="0" 
d="M60 480v220h100v-220h-100zM240 480v220h100v-220h-100z" />
    <glyph glyph-name="numbersign" unicode="#" horiz-adv-x="680" vert-adv-y="0" 
d="M100 0l35 192h-80v86h96l27 144h-84v86h100l36 192h102l-36 -192h146l36 192h102l-36 -192h81v-86h-97l-27 -144h85v-86h-101l-35 -192h-102l35 192h-146l-35 -192h-102zM253 278h146l27 144h-146z" />
    <glyph glyph-name="dollar" unicode="$" horiz-adv-x="650" vert-adv-y="0" 
d="M275 -120v112q-110 11 -164 65t-61 133h120q8 -41 41 -68t114 -27q84 0 119.5 27.5t35.5 67.5q0 33 -20 54t-61.5 36.5t-105.5 28.5q-72 16 -122 40.5t-75.5 65.5t-25.5 105q0 70 52 123t153 65v92h100v-92q97 -11 147.5 -62.5t57.5 -125.5h-120q-8 38 -40.5 61.5
t-94.5 23.5q-72 0 -103.5 -25t-31.5 -60q0 -48 40 -72t123 -41q62 -13 108 -30.5t77 -42t46.5 -60t15.5 -84.5q0 -78 -56 -133t-169 -65v-112h-100z" />
    <glyph glyph-name="percent" unicode="%" horiz-adv-x="840" vert-adv-y="1200" 
d="M190 359q-74 0 -119.5 46t-45.5 120v10q0 50 20.5 87t58 58t86.5 21t86 -21t58 -58t21 -87v-10q0 -74 -45.5 -120t-119.5 -46zM190 449q27 0 43 18t16 59v9q0 40 -16 58t-43 18t-43 -18t-16 -58v-9q0 -41 16 -59t43 -18zM120 -10l480 700h120l-480 -700h-120zM650 -21
q-74 0 -119.5 46t-45.5 120v10q0 50 20.5 87t58 58t86.5 21t86 -21t58 -58t21 -87v-10q0 -74 -45.5 -120t-119.5 -46zM650 69q27 0 43 18t16 59v9q0 40 -16 58t-43 18t-43 -18t-16 -58v-9q0 -41 16 -59t43 -18z" />
    <glyph glyph-name="ampersand" unicode="&#x26;" horiz-adv-x="685" vert-adv-y="0" 
d="M290 -11q-71 0 -124 26t-82 71.5t-29 103.5q0 41 11.5 75.5t39 67t73.5 66.5q-29 35 -44 61.5t-20 50t-5 49.5q0 43 21 77t59 54t90 20t90 -20t59 -54t21 -77q0 -28 -11 -54t-37 -55t-71 -65l147 -165q10 26 15 53t5 61h112q0 -62 -14 -111t-40 -91l119 -133h-134l-52 57
q-41 -33 -91.5 -50.5t-107.5 -17.5zM290 85q38 0 70.5 12t59.5 36l-172 189q-34 -27 -51.5 -47.5t-23.5 -40t-6 -44.5q0 -45 32.5 -75t90.5 -30zM220 560q0 -24 8 -43t38 -55q35 26 50.5 43t19.5 30t4 25q0 23 -16.5 39t-43.5 16t-43.5 -16t-16.5 -39z" />
    <glyph glyph-name="quotesingle" unicode="'" horiz-adv-x="220" vert-adv-y="0" 
d="M60 480v220h100v-220h-100z" />
    <glyph glyph-name="parenleft" unicode="(" horiz-adv-x="380" vert-adv-y="0" 
d="M80 240v20q0 102 26.5 182.5t58.5 138.5q19 34 40 63.5t45 55.5h120q-25 -26 -48 -55.5t-43 -63.5q-34 -58 -62.5 -138.5t-28.5 -182.5v-20q0 -101 28.5 -182.5t62.5 -138.5q20 -34 43 -63.5t48 -55.5h-124q-23 26 -44 55.5t-39 63.5q-32 57 -57.5 138t-25.5 183z" />
    <glyph glyph-name="parenright" unicode=")" horiz-adv-x="380" vert-adv-y="0" 
d="M300 260v-20q0 -102 -26.5 -182t-58.5 -139q-19 -34 -40 -63.5t-45 -55.5h-120q26 26 48.5 55.5t42.5 63.5q35 59 63 139t28 182v20q0 101 -28 182.5t-63 138.5q-20 34 -42.5 63.5t-48.5 55.5h124q23 -26 44 -55.5t39 -63.5q32 -57 57.5 -138t25.5 -183z" />
    <glyph glyph-name="asterisk" unicode="*" horiz-adv-x="450" vert-adv-y="0" 
d="M183 350l8 117l-98 -67l-43 74l108 51l-108 51l42 74l99 -67l-8 117h84l-8 -117l99 67l42 -74l-108 -51l108 -51l-43 -74l-98 67l8 -117h-84z" />
    <glyph glyph-name="plus" unicode="+" horiz-adv-x="560" vert-adv-y="0" 
d="M225 125v183h-180v104h180v183h110v-183h180v-104h-180v-183h-110z" />
    <glyph glyph-name="comma" unicode="," horiz-adv-x="310" vert-adv-y="0" 
d="M50 -155l40 155v126h130v-126l-110 -155h-60z" />
    <glyph glyph-name="hyphen" unicode="-" horiz-adv-x="380" vert-adv-y="0" 
d="M35 228v104h310v-104h-310z" />
    <glyph glyph-name="period" unicode="." horiz-adv-x="310" vert-adv-y="0" 
d="M155 -11q-22 0 -40.5 10.5t-29 29t-10.5 40.5q0 35 23 57.5t57 22.5t57 -22.5t23 -57.5q0 -22 -10.5 -40.5t-28.5 -29t-41 -10.5z" />
    <glyph glyph-name="slash" unicode="/" horiz-adv-x="480" vert-adv-y="0" 
d="M30 -200l318 900h102l-318 -900h-102z" />
    <glyph glyph-name="zero" unicode="0" horiz-adv-x="630" vert-adv-y="0" 
d="M315 -11q-55 0 -102.5 17.5t-83 58t-55 110.5t-19.5 175v20q0 97 19.5 162.5t55 105t83 56.5t102.5 17t102.5 -17t83 -56.5t55 -105t19.5 -162.5v-20q0 -105 -19.5 -175t-55 -110.5t-83 -58t-102.5 -17.5zM315 93q28 0 53 11t44.5 39.5t31 78.5t11.5 128v20
q0 94 -19.5 145.5t-51.5 71.5t-69 20t-69 -20t-51.5 -71.5t-19.5 -145.5v-20q0 -78 11.5 -128t31 -78.5t44.5 -39.5t53 -11z" />
    <glyph glyph-name="one" unicode="1" horiz-adv-x="495" vert-adv-y="0" 
d="M50 0v104h165v469l-165 -117v124l169 120h116v-596h135v-104h-420z" />
    <glyph glyph-name="two" unicode="2" horiz-adv-x="590" vert-adv-y="0" 
d="M35 0v94l261 226q43 38 69 65.5t38 52t12 52.5q0 51 -30.5 83t-84.5 32q-64 0 -99.5 -34.5t-35.5 -105.5h-120q0 74 31.5 129.5t88.5 86t135 30.5q76 0 128.5 -28.5t79.5 -78.5t27 -114q0 -47 -20 -88.5t-54.5 -79t-80.5 -73.5l-178 -145h343v-104h-510z" />
    <glyph glyph-name="three" unicode="3" horiz-adv-x="595" vert-adv-y="0" 
d="M290 -11q-81 0 -136.5 27t-84.5 74.5t-29 109.5h120q0 -50 31.5 -77.5t98.5 -27.5q65 0 97.5 27.5t32.5 77.5q0 51 -30 80.5t-100 29.5h-70v100h70q60 0 90 25.5t30 73.5t-28.5 72t-91.5 24q-62 0 -91.5 -25t-29.5 -70h-120q0 61 27.5 106t81.5 70t132 25q79 0 132 -25.5
t80.5 -68t27.5 -94.5q0 -60 -32 -100.5t-88 -57.5q61 -18 95.5 -60.5t34.5 -114.5q0 -56 -28.5 -102t-84 -72.5t-137.5 -26.5z" />
    <glyph glyph-name="four" unicode="4" horiz-adv-x="615" vert-adv-y="0" 
d="M365 0v158h-345v89l340 453h125v-438h85v-104h-85v-158h-120zM140 262h225v300z" />
    <glyph glyph-name="five" unicode="5" horiz-adv-x="590" vert-adv-y="0" 
d="M295 -11q-62 0 -106.5 16t-73.5 43t-43.5 61.5t-16.5 70.5h120q5 -36 35.5 -60.5t84.5 -24.5q61 0 95.5 36t34.5 105q0 52 -19 82.5t-49 44t-62 13.5q-43 0 -71.5 -15t-45.5 -41h-108v380h435v-104h-317v-163q23 22 54 35.5t78 13.5q68 0 118.5 -28t78.5 -82.5t28 -134.5
q0 -76 -31.5 -131.5t-87.5 -86t-131 -30.5z" />
    <glyph glyph-name="six" unicode="6" horiz-adv-x="615" vert-adv-y="0" 
d="M320 -11q-124 0 -194.5 78t-70.5 248v20q0 136 36 218.5t98.5 120t140.5 37.5q60 0 105.5 -17.5t75 -54t39.5 -94.5h-120q-11 32 -36 46t-64 14q-45 0 -81.5 -20t-58 -69.5t-23.5 -140.5q26 44 75.5 62.5t97.5 18.5q71 0 121 -26t77 -75.5t27 -121.5v-10q0 -69 -32 -122
t-87.5 -82.5t-125.5 -29.5zM312 95q60 0 96.5 35.5t36.5 92.5v10q0 56 -36.5 91.5t-96.5 35.5t-96.5 -35.5t-36.5 -91.5v-10q0 -57 36.5 -92.5t96.5 -35.5z" />
    <glyph glyph-name="seven" unicode="7" horiz-adv-x="535" vert-adv-y="0" 
d="M130 0l244 596h-354v104h480v-94l-240 -606h-130z" />
    <glyph glyph-name="eight" unicode="8" horiz-adv-x="620" vert-adv-y="0" 
d="M310 -11q-84 0 -142 25.5t-88 70.5t-30 103q0 60 37.5 106.5t109.5 66.5q-53 18 -90 60t-37 102q0 54 28 96.5t81.5 67t130.5 24.5q78 0 131.5 -24.5t81 -67t27.5 -96.5q0 -60 -36 -101t-90 -61q73 -23 109.5 -65t36.5 -108q0 -58 -30 -103t-88 -70.5t-142 -25.5zM310 95
q48 0 79 13t46 36t15 53q0 51 -40 81.5t-100 38.5q-60 -8 -100 -38.5t-40 -81.5q0 -30 16 -53t47 -36t77 -13zM310 403q53 8 86.5 34t33.5 77q0 45 -32.5 68t-87.5 23t-87.5 -22.5t-32.5 -68.5q0 -51 34 -77t86 -34z" />
    <glyph glyph-name="nine" unicode="9" horiz-adv-x="615" vert-adv-y="0" 
d="M290 -11q-61 0 -108 17.5t-77 54t-40 94.5h120q11 -32 37 -46t68 -14t77.5 20t57.5 70t23 140q-26 -44 -75.5 -62.5t-97.5 -18.5q-70 0 -120.5 26.5t-77.5 76.5t-27 120v10q0 70 32 122.5t87.5 82t125.5 29.5q84 0 143 -34t90.5 -106t31.5 -186v-20q0 -136 -36 -218.5
t-97 -120t-137 -37.5zM303 340q60 0 96.5 35.5t36.5 91.5v10q0 55 -37.5 91.5t-95.5 36.5q-60 0 -96.5 -35.5t-36.5 -92.5v-10q0 -56 36.5 -91.5t96.5 -35.5z" />
    <glyph glyph-name="colon" unicode=":" horiz-adv-x="310" vert-adv-y="0" 
d="M155 -11q-22 0 -40.5 10.5t-29 29t-10.5 40.5q0 35 23 57.5t57 22.5t57 -22.5t23 -57.5q0 -22 -10.5 -40.5t-28.5 -29t-41 -10.5zM155 381q-22 0 -40.5 10.5t-29 29t-10.5 40.5q0 35 23 57.5t57 22.5t57 -22.5t23 -57.5q0 -22 -10.5 -40.5t-28.5 -29t-41 -10.5z" />
    <glyph glyph-name="semicolon" unicode=";" horiz-adv-x="310" vert-adv-y="0" 
d="M50 -155l40 155v126h130v-126l-110 -155h-60zM155 381q-22 0 -40.5 10.5t-29 29t-10.5 40.5q0 35 23 57.5t57 22.5t57 -22.5t23 -57.5q0 -22 -10.5 -40.5t-28.5 -29t-41 -10.5z" />
    <glyph glyph-name="less" unicode="&#x3c;" horiz-adv-x="560" vert-adv-y="0" 
d="M515 105l-470 208v94l470 208v-120l-330 -133l330 -133v-124z" />
    <glyph glyph-name="equal" unicode="=" horiz-adv-x="560" vert-adv-y="0" 
d="M45 198v104h470v-104h-470zM45 418v104h470v-104h-470z" />
    <glyph glyph-name="greater" unicode="&#x3e;" horiz-adv-x="560" vert-adv-y="0" 
d="M45 615l470 -208v-94l-470 -208v120l330 133l-330 133v124z" />
    <glyph glyph-name="question" unicode="?" horiz-adv-x="520" vert-adv-y="0" 
d="M205 225v35q0 28 7.5 49.5t25.5 43t49 47.5q38 33 59.5 61t21.5 59q0 40 -29 67.5t-79 27.5t-79 -28.5t-29 -76.5h-112q0 57 27.5 102.5t77 72t115.5 26.5q69 0 118 -25t75.5 -68.5t26.5 -97.5q0 -38 -13 -69t-35.5 -57.5t-52.5 -52.5q-22 -19 -36 -33.5t-21 -28.5
t-7 -34v-20h-110zM260 -11q-22 0 -40.5 10.5t-29 29t-10.5 40.5q0 35 23 57.5t57 22.5t57 -22.5t23 -57.5q0 -22 -10.5 -40.5t-28.5 -29t-41 -10.5z" />
    <glyph glyph-name="at" unicode="@" horiz-adv-x="990" vert-adv-y="0" 
d="M507 -211q-100 0 -183 32.5t-143 93t-93 145.5t-33 190q0 104 33.5 188.5t93.5 145.5t140 94t173 33q101 0 182 -30t138.5 -85t88.5 -131t31 -169q0 -89 -27.5 -148.5t-74.5 -89t-107 -29.5q-45 0 -78.5 18.5t-45.5 75.5q-21 -43 -54 -68.5t-90 -25.5q-86 0 -136.5 56
t-50.5 170v20q0 115 49.5 170.5t134.5 55.5q37 0 61 -10t39 -26.5t23 -34.5v60h100v-277q0 -51 13 -69.5t41 -18.5t51 16.5t36.5 54t13.5 100.5q0 83 -27 144.5t-74.5 102.5t-108 61.5t-128.5 20.5q-71 0 -132.5 -25.5t-107.5 -74t-72 -118t-26 -157.5q0 -118 44.5 -202
t123.5 -128.5t182 -44.5q79 0 133.5 15.5t90.5 37.5v-94q-38 -20 -91 -32.5t-133 -12.5zM477 125q46 0 73.5 29t27.5 79v65q0 50 -27 78.5t-75 28.5q-44 0 -68.5 -30.5t-24.5 -99.5v-20q0 -69 25 -99.5t69 -30.5z" />
    <glyph glyph-name="A" unicode="A" horiz-adv-x="680" vert-adv-y="0" 
d="M15 0l265 700h120l265 -700h-128l-59 158h-284l-59 -158h-120zM233 262h206l-102 288z" />
    <glyph glyph-name="B" unicode="B" horiz-adv-x="675" vert-adv-y="0" 
d="M90 0v700h280q119 0 174.5 -51t55.5 -136q0 -54 -28 -92.5t-77 -55.5q62 -14 98.5 -56.5t36.5 -110.5q0 -58 -25 -103t-79 -70t-140 -25h-296zM210 104h163q78 0 107.5 25t29.5 77q0 51 -30 78.5t-108 27.5h-162v-208zM210 408h145q70 0 97.5 26t27.5 70q0 45 -27 68.5
t-98 23.5h-145v-188z" />
    <glyph glyph-name="C" unicode="C" horiz-adv-x="690" vert-adv-y="0" 
d="M360 -11q-86 0 -155 36.5t-109.5 115t-40.5 204.5v20q0 91 24 156.5t65.5 107.5t97 62t118.5 20q58 0 108 -14.5t88 -43.5t61 -72t28 -101h-126q-13 65 -55.5 95t-103.5 30q-44 0 -85 -22.5t-67.5 -74.5t-26.5 -143v-20q0 -72 16 -120.5t42.5 -76.5t58 -40.5t62.5 -12.5
q72 0 111.5 33.5t47.5 91.5h126q-6 -62 -29.5 -106t-62 -71.5t-87.5 -40.5t-106 -13z" />
    <glyph glyph-name="D" unicode="D" horiz-adv-x="705" vert-adv-y="0" 
d="M90 0v700h225q106 0 181 -37.5t114.5 -112t39.5 -185.5v-20q0 -112 -41 -189t-118.5 -116.5t-185.5 -39.5h-215zM210 104h85q69 0 120.5 23.5t80 76.5t28.5 141v20q0 82 -29 133t-78.5 74.5t-111.5 23.5h-95v-492z" />
    <glyph glyph-name="E" unicode="E" horiz-adv-x="615" vert-adv-y="0" 
d="M90 0v700h470v-104h-350v-184h320v-104h-320v-204h350v-104h-470z" />
    <glyph glyph-name="F" unicode="F" horiz-adv-x="595" vert-adv-y="0" 
d="M90 0v700h465v-104h-345v-199h315v-104h-315v-293h-120z" />
    <glyph glyph-name="G" unicode="G" horiz-adv-x="715" vert-adv-y="0" 
d="M370 -11q-96 0 -167 40t-109.5 119.5t-38.5 196.5v20q0 83 22.5 147t64 108.5t99.5 67.5t129 23q54 0 100.5 -14.5t82.5 -42t60.5 -69t36.5 -95.5h-130q-14 44 -38 69t-53 35.5t-59 10.5q-56 0 -99 -26t-66.5 -79t-23.5 -135v-20q0 -64 14 -111t39.5 -78t60 -46t75.5 -15
q52 0 90 18t61 56t28 96h-159v100h275v-40q0 -84 -20.5 -147t-58.5 -105t-92.5 -63t-123.5 -21z" />
    <glyph glyph-name="H" unicode="H" horiz-adv-x="760" vert-adv-y="0" 
d="M90 0v700h120v-288h340v288h120v-700h-120v308h-340v-308h-120z" />
    <glyph glyph-name="I" unicode="I" horiz-adv-x="320" vert-adv-y="0" 
d="M100 0v700h120v-700h-120z" />
    <glyph glyph-name="J" unicode="J" horiz-adv-x="560" vert-adv-y="0" 
d="M240 -11q-72 0 -120 25t-72.5 72.5t-27.5 113.5h116q4 -52 29 -78.5t75 -26.5q36 0 60.5 14t37 48t12.5 93v450h120v-450q0 -94 -26.5 -151.5t-77.5 -83.5t-126 -26z" />
    <glyph glyph-name="K" unicode="K" horiz-adv-x="695" vert-adv-y="0" 
d="M90 0v700h120v-334l296 334h144l-262 -286l282 -414h-146l-216 331l-98 -106v-225h-120z" />
    <glyph glyph-name="L" unicode="L" horiz-adv-x="570" vert-adv-y="0" 
d="M90 0v700h120v-596h340v-104h-460z" />
    <glyph glyph-name="M" unicode="M" horiz-adv-x="870" vert-adv-y="0" 
d="M90 0v700h124l223 -415l223 415h120v-700h-120v490l-185 -345h-80l-185 345v-490h-120z" />
    <glyph glyph-name="N" unicode="N" horiz-adv-x="760" vert-adv-y="0" 
d="M90 0v700h116l344 -500v500h120v-700h-116l-344 500v-500h-120z" />
    <glyph glyph-name="O" unicode="O" horiz-adv-x="750" vert-adv-y="0" 
d="M375 -11q-64 0 -121.5 20t-102.5 62.5t-70.5 110t-25.5 163.5v20q0 92 25.5 157.5t70.5 107.5t102.5 61.5t121.5 19.5t121.5 -19.5t102.5 -61.5t70.5 -107.5t25.5 -157.5v-20q0 -96 -25.5 -163.5t-70.5 -110t-102.5 -62.5t-121.5 -20zM375 95q50 0 94 24t72 78.5
t28 147.5v20q0 88 -28 140.5t-72 76t-94 23.5t-94.5 -23.5t-72 -76t-27.5 -140.5v-20q0 -93 27.5 -147.5t72 -78.5t94.5 -24z" />
    <glyph glyph-name="P" unicode="P" horiz-adv-x="660" vert-adv-y="0" 
d="M90 0v700h255q94 0 155 -27.5t90.5 -77.5t29.5 -118t-29.5 -118t-90.5 -77.5t-155 -27.5h-135v-254h-120zM210 358h125q95 0 130 29.5t35 89.5q0 59 -35 89t-130 30h-125v-238z" />
    <glyph glyph-name="Q" unicode="Q" horiz-adv-x="750" vert-adv-y="0" 
d="M375 -11q-64 0 -121.5 20t-102.5 62.5t-70.5 110t-25.5 163.5v20q0 92 25.5 157.5t70.5 107.5t102.5 61.5t121.5 19.5t121.5 -19.5t102.5 -61.5t70.5 -107.5t25.5 -157.5v-20q0 -82 -19.5 -143t-53.5 -104l63 -62l-66 -66l-66 66q-39 -24 -84.5 -35.5t-93.5 -11.5z
M375 95q25 0 49 5.5t46 18.5l-105 105l66 66l104 -104q16 29 25 68t9 91v20q0 88 -28 140.5t-72 76t-94 23.5t-94.5 -23.5t-72 -76t-27.5 -140.5v-20q0 -93 27.5 -147.5t72 -78.5t94.5 -24z" />
    <glyph glyph-name="R" unicode="R" horiz-adv-x="685" vert-adv-y="0" 
d="M90 0v700h265q88 0 146.5 -28t88.5 -77t30 -113q0 -72 -39 -124.5t-117 -75.5l176 -282h-132l-155 268h-143v-268h-120zM210 368h125q92 0 128.5 30t36.5 84t-36.5 84t-128.5 30h-125v-228z" />
    <glyph glyph-name="S" unicode="S" horiz-adv-x="650" vert-adv-y="0" 
d="M325 -11q-90 0 -149 26t-89.5 71.5t-36.5 103.5h120q8 -41 41 -68t114 -27q84 0 119.5 27.5t35.5 67.5q0 33 -20 54t-61.5 36.5t-105.5 28.5q-72 16 -122 40.5t-75.5 65.5t-25.5 105q0 53 29 96t85.5 69t140.5 26q82 0 136.5 -24.5t84 -67.5t34.5 -99h-120
q-8 38 -40.5 61.5t-94.5 23.5q-72 0 -103.5 -25t-31.5 -60q0 -48 40 -72t123 -41q62 -13 108 -30.5t77 -42t46.5 -60t15.5 -84.5q0 -58 -30.5 -103.5t-91.5 -71.5t-153 -26z" />
    <glyph glyph-name="T" unicode="T" horiz-adv-x="630" vert-adv-y="0" 
d="M255 0v596h-235v104h590v-104h-235v-596h-120z" />
    <glyph glyph-name="U" unicode="U" horiz-adv-x="730" vert-adv-y="0" 
d="M365 -11q-87 0 -151 32t-99 96.5t-35 162.5v420h120v-413q0 -99 42 -145.5t123 -46.5q82 0 123.5 46.5t41.5 144.5v414h120v-420q0 -98 -35 -162.5t-99 -96.5t-151 -32z" />
    <glyph glyph-name="V" unicode="V" horiz-adv-x="680" vert-adv-y="0" 
d="M285 0l-270 700h128l205 -549l197 549h120l-260 -700h-120z" />
    <glyph glyph-name="W" unicode="W" horiz-adv-x="970" vert-adv-y="0" 
d="M210 0l-185 700h124l133 -520l153 520h100l162 -520l132 520h116l-185 -700h-120l-159 520l-151 -520h-120z" />
    <glyph glyph-name="X" unicode="X" horiz-adv-x="680" vert-adv-y="0" 
d="M25 0l241 366l-231 334h136l170 -245l172 245h132l-230 -332l240 -368h-138l-178 280l-180 -280h-134z" />
    <glyph glyph-name="Y" unicode="Y" horiz-adv-x="660" vert-adv-y="0" 
d="M280 0v270l-270 430h142l190 -310l176 310h132l-250 -430v-270h-120z" />
    <glyph glyph-name="Z" unicode="Z" horiz-adv-x="610" vert-adv-y="0" 
d="M40 0v94l376 502h-366v104h510v-94l-376 -502h386v-104h-530z" />
    <glyph glyph-name="bracketleft" unicode="[" horiz-adv-x="380" vert-adv-y="0" 
d="M120 -200v900h200v-86h-98v-728h98v-86h-200z" />
    <glyph glyph-name="backslash" unicode="\" horiz-adv-x="480" vert-adv-y="0" 
d="M348 -200l-318 900h102l318 -900h-102z" />
    <glyph glyph-name="bracketright" unicode="]" horiz-adv-x="380" vert-adv-y="0" 
d="M260 700v-900h-200v86h98v728h-98v86h200z" />
    <glyph glyph-name="asciicircum" unicode="^" horiz-adv-x="560" vert-adv-y="0" 
d="M40 440l185 260h110l185 -260h-126l-118 170l-118 -170h-118z" />
    <glyph glyph-name="underscore" unicode="_" horiz-adv-x="500" vert-adv-y="0" 
d="M0 -143v86h500v-86h-500z" />
    <glyph glyph-name="grave" unicode="`" horiz-adv-x="280" vert-adv-y="0" 
d="M170 580l-150 160h130l110 -160h-90z" />
    <glyph glyph-name="a" unicode="a" horiz-adv-x="570" vert-adv-y="0" 
d="M225 -11q-57 0 -97.5 21.5t-61.5 59.5t-21 85q0 79 47 117.5t138 38.5h165v29q0 60 -26.5 82.5t-83.5 22.5q-51 0 -75 -16t-28 -44h-107q3 46 29 81t73.5 55t112.5 20t113.5 -20t75 -62.5t26.5 -112.5v-211q0 -42 1 -73.5t5 -61.5h-100q-3 23 -4.5 39t-1.5 40
q-19 -37 -65.5 -63.5t-114.5 -26.5zM255 85q38 0 69.5 13t51 39t19.5 63v29h-145q-42 0 -67.5 -18t-25.5 -53q0 -33 23.5 -53t74.5 -20z" />
    <glyph glyph-name="b" unicode="b" horiz-adv-x="615" vert-adv-y="0" 
d="M352 -11q-66 0 -113.5 30t-66.5 70v-89h-102v700h110v-254q25 41 68.5 68t103.5 27q103 0 163 -65t60 -196v-20q0 -90 -28 -150.5t-78 -90.5t-117 -30zM326 85q61 0 99 43t38 132v20q0 84 -37 124.5t-100 40.5q-38 0 -71.5 -16t-54 -47t-20.5 -77v-70q0 -50 20.5 -83.5
t54 -50t71.5 -16.5z" />
    <glyph glyph-name="c" unicode="c" horiz-adv-x="555" vert-adv-y="0" 
d="M290 -11q-71 0 -128 30t-89.5 90t-32.5 151v20q0 86 34.5 144t91.5 87.5t124 29.5q70 0 118.5 -24t76 -65t35.5 -92h-112q-10 37 -36 61t-82 24q-37 0 -68.5 -17t-50.5 -53.5t-19 -94.5v-20q0 -63 19 -101.5t50.5 -56t68.5 -17.5q47 0 76 21t42 64h112
q-10 -56 -41.5 -96.5t-79.5 -62.5t-109 -22z" />
    <glyph glyph-name="d" unicode="d" horiz-adv-x="615" vert-adv-y="0" 
d="M264 -11q-67 0 -117.5 30t-78.5 90.5t-28 150.5v20q0 85 28 143t78.5 88t116.5 30q60 0 103.5 -27t68.5 -69v255h110v-700h-102v89q-18 -40 -66.5 -70t-112.5 -30zM289 85q39 0 72 16.5t53.5 50t20.5 83.5v71q0 46 -20.5 76.5t-54 46.5t-71.5 16q-63 0 -100 -40.5
t-37 -124.5v-20q0 -88 38 -131.5t99 -43.5z" />
    <glyph glyph-name="e" unicode="e" horiz-adv-x="580" vert-adv-y="0" 
d="M300 -11q-70 0 -129 29.5t-95 89.5t-36 152v20q0 88 34.5 146t91.5 86.5t124 28.5q121 0 185.5 -65t64.5 -186v-56h-388q2 -54 23 -87t54 -47.5t71 -14.5q57 0 83.5 18t36.5 47h110q-16 -79 -78.5 -120t-151.5 -41zM295 445q-37 0 -69 -13t-52 -41t-22 -75h278
q-1 50 -19 78t-48 39.5t-68 11.5z" />
    <glyph glyph-name="f" unicode="f" horiz-adv-x="365" vert-adv-y="0" 
d="M100 0v436h-70v94h70v15q0 53 17.5 88.5t56.5 53.5t101 18q15 0 34 -0.5t41 -2.5v-96q-15 2 -32.5 2.5t-32.5 0.5q-42 0 -58.5 -15.5t-16.5 -53.5v-10h130v-94h-130v-436h-110z" />
    <glyph glyph-name="g" unicode="g" horiz-adv-x="615" vert-adv-y="0" 
d="M290 -211q-82 0 -130.5 20t-71 55.5t-28.5 80.5h112q8 -24 32.5 -44t85.5 -20q75 0 110 36t35 103v75q-25 -42 -68 -69t-103 -27q-67 0 -117.5 30t-78.5 89t-28 147v20q0 82 28 139t78.5 87t116.5 30t113.5 -30t66.5 -70v89h102v-505q0 -112 -64 -174t-191 -62zM289 95
q39 0 72 16.5t53.5 49t20.5 80.5v70q0 43 -20.5 72.5t-54 45.5t-71.5 16q-63 0 -100 -39.5t-37 -120.5v-20q0 -85 38 -127.5t99 -42.5z" />
    <glyph glyph-name="h" unicode="h" horiz-adv-x="605" vert-adv-y="0" 
d="M70 0v700h110v-254q12 25 33.5 46.5t54 35t77.5 13.5q97 0 146 -52.5t49 -153.5v-335h-110v310q0 67 -28 101t-92 34q-46 0 -74.5 -19.5t-42 -50t-13.5 -65.5v-310h-110z" />
    <glyph glyph-name="i" unicode="i" horiz-adv-x="270" vert-adv-y="1200" 
d="M80 0v530h110v-530h-110zM135 590q-31 0 -50.5 19.5t-19.5 50.5t19.5 50.5t50.5 19.5t50.5 -19.5t19.5 -50.5t-19.5 -50.5t-50.5 -19.5z" />
    <glyph glyph-name="j" unicode="j" horiz-adv-x="270" vert-adv-y="1200" 
d="M20 -211q-11 0 -25 0.5t-25 2.5v96q8 -2 17.5 -2.5t17.5 -0.5q26 0 42.5 10t24.5 36.5t8 73.5v525h110v-530q0 -83 -16 -129t-53 -64t-101 -18zM135 590q-31 0 -50.5 19.5t-19.5 50.5t19.5 50.5t50.5 19.5t50.5 -19.5t19.5 -50.5t-19.5 -50.5t-50.5 -19.5z" />
    <glyph glyph-name="k" unicode="k" horiz-adv-x="570" vert-adv-y="0" 
d="M70 0v700h110v-401l220 231h130l-214 -225l234 -305h-132l-175 235l-63 -64v-171h-110z" />
    <glyph glyph-name="l" unicode="l" horiz-adv-x="325" vert-adv-y="0" 
d="M240 -5q-57 0 -93.5 16.5t-54 55t-17.5 102.5v531h110v-523q0 -49 16 -67.5t59 -18.5q11 0 19 0.5t16 1.5v-95q-5 -1 -15.5 -2t-21 -1h-18.5z" />
    <glyph glyph-name="m" unicode="m" horiz-adv-x="875" vert-adv-y="0" 
d="M70 0v530h102v-90q18 41 58 71t92 30q66 0 103 -28t51 -73q23 45 64.5 73t96.5 28q83 0 128 -49t45 -152v-340h-110v315q0 71 -26.5 100.5t-71.5 29.5q-36 0 -59.5 -16.5t-35.5 -46t-12 -67.5v-315h-110v315q0 71 -26.5 100.5t-71.5 29.5q-36 0 -59.5 -16.5t-35.5 -46
t-12 -67.5v-315h-110z" />
    <glyph glyph-name="n" unicode="n" horiz-adv-x="605" vert-adv-y="0" 
d="M70 0v530h102v-89q19 40 62 70t111 30q97 0 146 -52.5t49 -153.5v-335h-110v310q0 67 -28 101t-92 34q-46 0 -74.5 -19.5t-42 -50t-13.5 -65.5v-310h-110z" />
    <glyph glyph-name="o" unicode="o" horiz-adv-x="600" vert-adv-y="0" 
d="M300 -11q-73 0 -132 30.5t-93.5 91t-34.5 149.5v20q0 84 34.5 142.5t93.5 88.5t132 30q74 0 132.5 -30t93 -88.5t34.5 -142.5v-20q0 -89 -34.5 -149.5t-93 -91t-132.5 -30.5zM300 85q38 0 72 18t55 56.5t21 100.5v20q0 57 -21 93.5t-55 54t-72 17.5t-72 -17.5t-55 -54
t-21 -93.5v-20q0 -62 21 -100.5t55 -56.5t72 -18z" />
    <glyph glyph-name="p" unicode="p" horiz-adv-x="615" vert-adv-y="0" 
d="M70 -200v730h102v-89q24 46 71.5 73t107.5 27q104 0 164 -65t60 -196v-20q0 -90 -28 -150.5t-78 -90.5t-118 -30q-57 0 -104 25t-67 70v-284h-110zM325 85q62 0 100 43t38 132v20q0 84 -37 124.5t-101 40.5q-37 0 -70.5 -16t-54 -47t-20.5 -77v-70q0 -50 20.5 -83.5
t53.5 -50t71 -16.5z" />
    <glyph glyph-name="q" unicode="q" horiz-adv-x="615" vert-adv-y="0" 
d="M435 -200v285q-25 -42 -68 -69t-103 -27q-67 0 -117.5 30t-78.5 90.5t-28 150.5v20q0 85 28 143t78.5 88t116.5 30t113.5 -30t66.5 -70v89h102v-730h-110zM289 85q39 0 72 16.5t53.5 50t20.5 84.5v70q0 46 -20.5 76.5t-54 46.5t-71.5 16q-63 0 -100 -40t-37 -125v-20
q0 -88 38 -131.5t99 -43.5z" />
    <glyph glyph-name="r" unicode="r" horiz-adv-x="390" vert-adv-y="0" 
d="M70 0v530h102v-90q11 28 30.5 50.5t48 36.5t64.5 14q25 0 37.5 -2t17.5 -4v-100q-17 5 -31 7.5t-34 2.5q-43 0 -71 -19.5t-41 -50t-13 -65.5v-310h-110z" />
    <glyph glyph-name="s" unicode="s" horiz-adv-x="540" vert-adv-y="0" 
d="M270 -11q-58 0 -100 13t-69.5 35.5t-42 51.5t-18.5 61h110q7 -28 34 -46.5t86 -18.5q66 0 93 18t27 47q0 17 -12.5 32t-42 26.5t-81.5 17.5q-45 6 -82 17.5t-63 30.5t-40 46.5t-14 64.5q0 43 23.5 78t71.5 56.5t120 21.5q70 0 114.5 -22.5t67.5 -59t28 -79.5h-110
q-8 31 -32.5 48t-67.5 17q-59 0 -82 -18t-23 -42q0 -26 25.5 -44.5t101.5 -26.5q47 -6 85 -18t65.5 -31.5t42.5 -47.5t15 -67q0 -45 -25.5 -81.5t-76.5 -58t-128 -21.5z" />
    <glyph glyph-name="t" unicode="t" horiz-adv-x="400" vert-adv-y="0" 
d="M275 -5q-60 0 -97.5 17t-55 53.5t-17.5 94.5v276h-75v94h75v120h110v-120h135v-94h-135v-261q0 -47 17.5 -65.5t67.5 -18.5q30 0 60 3v-94q-19 -2 -39 -3.5t-46 -1.5z" />
    <glyph glyph-name="u" unicode="u" horiz-adv-x="595" vert-adv-y="0" 
d="M255 -11q-94 0 -142 54.5t-48 166.5v320h110v-310q0 -67 27.5 -101t87.5 -34q44 0 71.5 19t40.5 50t13 66v310h110v-530h-102v90q-19 -41 -61.5 -71t-106.5 -30z" />
    <glyph glyph-name="v" unicode="v" horiz-adv-x="580" vert-adv-y="0" 
d="M245 0l-225 530h120l162 -410l146 410h112l-205 -530h-110z" />
    <glyph glyph-name="w" unicode="w" horiz-adv-x="830" vert-adv-y="0" 
d="M175 0l-145 530h116l97 -390l122 390h100l130 -390l97 390h108l-145 -530h-110l-132 390l-128 -390h-110z" />
    <glyph glyph-name="x" unicode="x" horiz-adv-x="560" vert-adv-y="0" 
d="M20 0l191 276l-181 254h124l129 -178l127 178h120l-179 -250l189 -280h-126l-135 206l-137 -206h-122z" />
    <glyph glyph-name="y" unicode="y" horiz-adv-x="580" vert-adv-y="0" 
d="M155 -211q-15 0 -30 3v96q15 -3 30 -3q22 0 36 10.5t26 35.5t28 69l-225 530h120l162 -410l146 410h112l-205 -530q-29 -74 -55 -121t-59 -68.5t-86 -21.5z" />
    <glyph glyph-name="z" unicode="z" horiz-adv-x="510" vert-adv-y="0" 
d="M35 0v84l298 352h-288v94h420v-84l-298 -352h308v-94h-440z" />
    <glyph glyph-name="braceleft" unicode="{" horiz-adv-x="380" vert-adv-y="0" 
d="M330 -200h-50q-72 0 -111 39t-39 111v207q0 23 -13.5 36.5t-36.5 13.5v86q23 0 36.5 13.5t13.5 36.5v207q0 72 39 111t111 39h50v-86h-40q-29 0 -43.5 -14.5t-14.5 -43.5v-236q0 -30 -13.5 -46t-36.5 -24q23 -8 36.5 -24t13.5 -46v-236q0 -29 14.5 -43.5t43.5 -14.5h40
v-86z" />
    <glyph glyph-name="bar" unicode="|" horiz-adv-x="340" vert-adv-y="0" 
d="M119 -200v900h102v-900h-102z" />
    <glyph glyph-name="braceright" unicode="}" horiz-adv-x="380" vert-adv-y="0" 
d="M50 700h50q72 0 111 -39t39 -111v-207q0 -23 13.5 -36.5t36.5 -13.5v-86q-23 0 -36.5 -13.5t-13.5 -36.5v-207q0 -72 -39 -111t-111 -39h-50v86h40q29 0 43.5 14.5t14.5 43.5v236q0 30 13.5 46t36.5 24q-23 8 -36.5 24t-13.5 46v236q0 29 -14.5 43.5t-43.5 14.5h-40v86z
" />
    <glyph glyph-name="asciitilde" unicode="~" horiz-adv-x="560" vert-adv-y="0" 
d="M375 270q-32 0 -58 11t-49 26t-44.5 26t-43.5 11q-18 0 -31.5 -8.5t-22.5 -18.5q-5 -6 -9.5 -12.5t-8.5 -14.5l-73 45q8 16 17 30t19 27q18 22 46 40t68 18q32 0 58.5 -11t49 -26t44 -26t43.5 -11q18 0 31.5 8t22.5 19q5 5 9.5 12t8.5 15l73 -45q-7 -16 -16 -30.5
t-20 -27.5q-18 -22 -46.5 -39.5t-67.5 -17.5z" />
    <glyph glyph-name="uni00A0" unicode="&#xa0;" horiz-adv-x="250" vert-adv-y="0" 
 />
    <glyph glyph-name="exclamdown" unicode="&#xa1;" horiz-adv-x="310" vert-adv-y="0" 
d="M100 -200v505h110v-505h-110zM155 381q-22 0 -40.5 10.5t-29 29t-10.5 40.5q0 35 23 57.5t57 22.5t57 -22.5t23 -57.5q0 -22 -10.5 -40.5t-28.5 -29t-41 -10.5z" />
    <glyph glyph-name="cent" unicode="&#xa2;" horiz-adv-x="555" vert-adv-y="0" 
d="M245 -120v112q-90 12 -147.5 79.5t-57.5 188.5v20q0 76 27.5 130t74 86t103.5 41v93h100v-94q53 -9 89.5 -34t58 -61.5t27.5 -80.5h-112q-10 37 -36 61t-82 24q-37 0 -68.5 -17t-50.5 -53.5t-19 -94.5v-20q0 -63 19 -101.5t50.5 -56t68.5 -17.5q47 0 76 21t42 64h112
q-13 -71 -59.5 -116.5t-115.5 -59.5v-114h-100z" />
    <glyph glyph-name="sterling" unicode="&#xa3;" horiz-adv-x="640" vert-adv-y="0" 
d="M55 0v104h90v189h-80v94h80v113q0 67 26.5 114t76.5 72t120 25q69 0 116 -24t73 -66.5t28 -100.5h-120q-4 42 -27 63.5t-70 21.5q-52 0 -77.5 -26t-25.5 -79v-113h175v-94h-175v-189h320v-104h-530z" />
    <glyph glyph-name="currency" unicode="&#xa4;" horiz-adv-x="560" vert-adv-y="0" 
d="M104 115l-69 69l73 73q-14 23 -21 49t-7 54t7 53.5t21 48.5l-73 74l69 69l73 -74q23 14 48.5 21.5t54.5 7.5q28 0 53.5 -7.5t48.5 -21.5l74 74l69 -69l-74 -74q14 -23 21.5 -48.5t7.5 -53.5q0 -29 -7.5 -54.5t-21.5 -48.5l74 -73l-69 -69l-74 73q-23 -14 -48.5 -21
t-53.5 -7t-54 7t-49 21zM280 262q41 0 68.5 28t27.5 70t-27.5 70t-68.5 28t-68.5 -28t-27.5 -70t27.5 -70t68.5 -28z" />
    <glyph glyph-name="yen" unicode="&#xa5;" horiz-adv-x="680" vert-adv-y="0" 
d="M285 0v145h-190v94h190v62h-190v94h121l-176 305h142l165 -305l161 305h132l-169 -305h124v-94h-190v-62h190v-94h-190v-145h-120z" />
    <glyph glyph-name="brokenbar" unicode="&#xa6;" horiz-adv-x="340" vert-adv-y="0" 
d="M119 -200v370h102v-370h-102zM119 330v370h102v-370h-102z" />
    <glyph glyph-name="section" unicode="&#xa7;" horiz-adv-x="580" vert-adv-y="0" 
d="M290 -211q-70 0 -113 22t-62.5 60.5t-19.5 88.5h126q0 -32 17.5 -48.5t51.5 -16.5q35 0 52 17.5t17 42.5q0 16 -10.5 31.5t-43 33t-98.5 40.5q-64 22 -105.5 70.5t-41.5 119.5q0 60 30 105t81 70q-35 21 -55.5 53t-20.5 72q0 45 19.5 81.5t62.5 58t113 21.5t113 -22
t62.5 -60.5t19.5 -88.5h-126q0 34 -20 49.5t-49 15.5q-32 0 -50.5 -17t-18.5 -43q0 -19 11.5 -35t45 -32.5t100.5 -39.5q63 -21 102.5 -70t39.5 -118q0 -60 -30 -105t-81 -71q35 -21 55.5 -53t20.5 -71q0 -45 -19.5 -81.5t-62.5 -58t-113 -21.5zM290 154q46 0 75 27t29 69
q0 44 -28.5 70t-75.5 26t-75.5 -27t-28.5 -69t28.5 -69t75.5 -27z" />
    <glyph glyph-name="dieresis" unicode="&#xa8;" horiz-adv-x="380" vert-adv-y="0" 
d="M86 594q-29 0 -47.5 18.5t-18.5 47.5t18.5 47.5t47.5 18.5t47.5 -18.5t18.5 -47.5t-18.5 -47.5t-47.5 -18.5zM294 594q-29 0 -47.5 18.5t-18.5 47.5t18.5 47.5t47.5 18.5t47.5 -18.5t18.5 -47.5t-18.5 -47.5t-47.5 -18.5z" />
    <glyph glyph-name="copyright" unicode="&#xa9;" horiz-adv-x="830" vert-adv-y="0" 
d="M415 -16q-77 0 -143.5 27.5t-116 76.5t-77.5 116t-28 146q0 78 28 144.5t78 116.5t116.5 77.5t142.5 27.5q77 0 143.5 -27.5t116 -76.5t77.5 -116t28 -146q0 -76 -28 -142.5t-78 -117t-116.5 -78.5t-142.5 -28zM415 70q77 0 139.5 36.5t99.5 100t37 143.5t-37 143
t-99.5 100t-139.5 37t-139.5 -37t-99.5 -100t-37 -143q0 -79 37 -142.5t99.5 -100.5t139.5 -37zM415 139q-56 0 -97.5 24t-64.5 70t-23 112v10q0 64 23.5 110t65.5 71t96 25t91 -17.5t58.5 -49.5t25.5 -74h-98q-5 29 -23.5 46t-53.5 17q-38 0 -62.5 -31.5t-24.5 -96.5v-10
q0 -65 25 -96.5t62 -31.5q36 0 53 17.5t24 50.5h98q-4 -42 -25.5 -75t-59.5 -52t-90 -19z" />
    <glyph glyph-name="ordfeminine" unicode="&#xaa;" horiz-adv-x="570" vert-adv-y="1200" 
d="M225 -11q-57 0 -97.5 21.5t-61.5 59.5t-21 85q0 79 47 117.5t138 38.5h165v29q0 60 -26.5 82.5t-83.5 22.5q-51 0 -75 -16t-28 -44h-107q3 46 29 81t73.5 55t112.5 20t113.5 -20t75 -62.5t26.5 -112.5v-211q0 -42 1 -73.5t5 -61.5h-100q-3 23 -4.5 39t-1.5 40
q-19 -37 -65.5 -63.5t-114.5 -26.5zM255 85q38 0 69.5 13t51 39t19.5 63v29h-145q-42 0 -67.5 -18t-25.5 -53q0 -33 23.5 -53t74.5 -20z" />
    <glyph glyph-name="guillemotleft" unicode="&#xab;" horiz-adv-x="545" vert-adv-y="0" 
d="M255 40l-220 189v92l220 189v-120l-135 -113l135 -113v-124zM490 40l-220 189v92l220 189v-120l-135 -113l135 -113v-124z" />
    <glyph glyph-name="logicalnot" unicode="&#xac;" horiz-adv-x="560" vert-adv-y="0" 
d="M405 140v168h-360v104h470v-272h-110z" />
    <glyph glyph-name="uni00AD" unicode="&#xad;" horiz-adv-x="380" vert-adv-y="0" 
d="M35 228v104h310v-104h-310z" />
    <glyph glyph-name="registered" unicode="&#xae;" horiz-adv-x="650" vert-adv-y="0" 
d="M325 139q-59 0 -110.5 22t-91 61.5t-61.5 91t-22 111.5t22 111.5t61.5 91t91 61.5t110.5 22t110.5 -22t91 -61.5t61.5 -91t22 -111.5t-22 -111.5t-61.5 -91t-91 -61.5t-110.5 -22zM325 204q61 0 109.5 28.5t76.5 78.5t28 114q0 65 -28 114.5t-76.5 78t-109.5 28.5
t-109.5 -28.5t-76.5 -78t-28 -114.5q0 -64 28 -114t76.5 -78.5t109.5 -28.5zM215 275v300h110q71 0 100.5 -25.5t29.5 -71.5q0 -33 -16 -55.5t-52 -32.5l68 -115h-80l-60 108h-26v-108h-74zM289 441h32q35 0 47.5 10t12.5 27t-12.5 27t-47.5 10h-32v-74z" />
    <glyph glyph-name="macron" unicode="&#xaf;" horiz-adv-x="320" vert-adv-y="0" 
d="M20 618v84h280v-84h-280z" />
    <glyph glyph-name="degree" unicode="&#xb0;" horiz-adv-x="390" vert-adv-y="0" 
d="M195 391q-44 0 -80.5 21.5t-58 58t-21.5 80.5t21.5 80.5t58 58t80.5 21.5t80.5 -21.5t58 -58t21.5 -80.5t-21.5 -80.5t-58 -58t-80.5 -21.5zM195 481q29 0 49.5 20.5t20.5 49.5t-20.5 49.5t-49.5 20.5t-49.5 -20.5t-20.5 -49.5t20.5 -49.5t49.5 -20.5z" />
    <glyph glyph-name="plusminus" unicode="&#xb1;" horiz-adv-x="560" vert-adv-y="0" 
d="M45 78v104h470v-104h-470zM225 270v88h-180v104h180v183h110v-183h180v-104h-180v-88h-110z" />
    <glyph glyph-name="uni00B2" unicode="&#xb2;" horiz-adv-x="370" vert-adv-y="0" 
d="M25 380v73l153 123q36 29 46 45.5t10 38.5q0 17 -11 28.5t-38 11.5q-25 0 -37 -12.5t-12 -32.5h-106q0 61 40 98.5t115 37.5t115 -36t40 -90q0 -26 -9.5 -48.5t-30 -45t-55.5 -48.5l-73 -55h173v-88h-320z" />
    <glyph glyph-name="uni00B3" unicode="&#xb3;" horiz-adv-x="380" vert-adv-y="0" 
d="M190 369q-83 0 -124 37t-41 94h106q0 -21 12.5 -31t46.5 -10q31 0 45 12.5t14 31.5q0 20 -12.5 32.5t-47.5 12.5h-44v74h44q27 0 38.5 12t11.5 30q0 19 -12 28t-37 9q-24 0 -36.5 -9.5t-12.5 -26.5h-106q0 57 38.5 91.5t116.5 34.5q80 0 117.5 -32.5t37.5 -82.5
q0 -39 -19.5 -57.5t-45.5 -28.5q26 -10 50.5 -33t24.5 -65q0 -51 -41 -87t-124 -36z" />
    <glyph glyph-name="acute" unicode="&#xb4;" horiz-adv-x="280" vert-adv-y="0" 
d="M20 580l110 160h130l-150 -160h-90z" />
    <glyph glyph-name="uni03BC" unicode="&#xb5;" horiz-adv-x="620" vert-adv-y="0" 
d="M80 -200v730h110v-310q0 -67 27.5 -101t87.5 -34q44 0 71.5 19t40.5 50t13 66v310h110v-530h-102v90q-19 -40 -61.5 -70.5t-106.5 -30.5q-23 0 -43 4t-37 11v-204h-110z" />
    <glyph glyph-name="paragraph" unicode="&#xb6;" horiz-adv-x="630" vert-adv-y="0" 
d="M190 -200v506q-42 11 -76 39t-54 68.5t-20 86.5q0 55 27.5 100t73 72.5t99.5 27.5h300v-900h-102v806h-146v-806h-102z" />
    <glyph glyph-name="periodcentered" unicode="&#xb7;" horiz-adv-x="310" vert-adv-y="0" 
d="M155 195q-22 0 -40.5 10.5t-29 29t-10.5 40.5q0 35 23 57.5t57 22.5t57 -22.5t23 -57.5q0 -22 -10.5 -40.5t-28.5 -29t-41 -10.5z" />
    <glyph glyph-name="cedilla" unicode="&#xb8;" horiz-adv-x="230" vert-adv-y="0" 
d="M85 -211q-16 0 -28 1t-20 2q-5 1 -9 2l-8 2v66l14 -2q7 -1 16 -1.5t20 -0.5q28 0 38 10t10 21q0 13 -10 22t-42 9l17 90h68l-7 -47q40 -9 53 -32t13 -46q0 -44 -29.5 -70t-95.5 -26z" />
    <glyph glyph-name="uni00B9" unicode="&#xb9;" horiz-adv-x="260" vert-adv-y="0" 
d="M124 380v286l-104 -74v110l110 78h100v-400h-106z" />
    <glyph glyph-name="ordmasculine" unicode="&#xba;" horiz-adv-x="380" vert-adv-y="1200" 
d="M190 369q-74 0 -119.5 46t-45.5 120v10q0 50 20.5 87t58 58t86.5 21t86 -21t58 -58t21 -87v-10q0 -74 -45.5 -120t-119.5 -46zM190 459q27 0 43 18t16 59v9q0 40 -16 58t-43 18t-43 -18t-16 -58v-9q0 -41 16 -59t43 -18z" />
    <glyph glyph-name="guillemotright" unicode="&#xbb;" horiz-adv-x="545" vert-adv-y="0" 
d="M55 510l220 -189v-92l-220 -189v120l135 113l-135 113v124zM290 510l220 -189v-92l-220 -189v120l135 113l-135 113v124z" />
    <glyph glyph-name="onequarter" unicode="&#xbc;" horiz-adv-x="830" vert-adv-y="1200" 
d="M124 380v286l-104 -74v110l110 78h100v-400h-106zM50 0l480 700h120l-480 -700h-120zM649 0v77h-194v71l184 252h116v-237h40v-86h-40v-77h-106zM560 163h89v129z" />
    <glyph glyph-name="onehalf" unicode="&#xbd;" horiz-adv-x="810" vert-adv-y="1200" 
d="M124 380v286l-104 -74v110l110 78h100v-400h-106zM50 0l480 700h120l-480 -700h-120zM465 0v73l153 123q36 29 46 45.5t10 38.5q0 17 -11 28.5t-38 11.5q-25 0 -37 -12.5t-12 -32.5h-106q0 61 40 98.5t115 37.5t115 -36t40 -90q0 -26 -9.5 -48.5t-30 -45t-55.5 -48.5
l-73 -55h173v-88h-320z" />
    <glyph glyph-name="threequarters" unicode="&#xbe;" horiz-adv-x="950" vert-adv-y="1200" 
d="M190 369q-83 0 -124 37t-41 94h106q0 -21 12.5 -31t46.5 -10q31 0 45 12.5t14 31.5q0 20 -12.5 32.5t-47.5 12.5h-44v74h44q27 0 38.5 12t11.5 30q0 19 -12 28t-37 9q-24 0 -36.5 -9.5t-12.5 -26.5h-106q0 57 38.5 91.5t116.5 34.5q80 0 117.5 -32.5t37.5 -82.5
q0 -39 -19.5 -57.5t-45.5 -28.5q26 -10 50.5 -33t24.5 -65q0 -51 -41 -87t-124 -36zM170 0l480 700h120l-480 -700h-120zM769 0v77h-194v71l184 252h116v-237h40v-86h-40v-77h-106zM680 163h89v129z" />
    <glyph glyph-name="questiondown" unicode="&#xbf;" horiz-adv-x="520" vert-adv-y="0" 
d="M260 -211q-68 0 -117.5 25.5t-76 68.5t-26.5 97q0 39 13 69.5t36 57t52 52.5q22 20 36 34t21 28.5t7 33.5v50h110v-65q0 -27 -7.5 -49t-25 -43t-49.5 -48q-38 -33 -59.5 -61t-21.5 -59q0 -40 29 -67.5t79 -27.5t79 28.5t29 76.5h112q0 -56 -27.5 -102t-77 -72.5
t-115.5 -26.5zM260 381q-22 0 -40.5 10.5t-29 29t-10.5 40.5q0 35 23 57.5t57 22.5t57 -22.5t23 -57.5q0 -22 -10.5 -40.5t-28.5 -29t-41 -10.5z" />
    <glyph glyph-name="Agrave" unicode="&#xc0;" horiz-adv-x="680" vert-adv-y="1200" 
d="M15 0l265 700h120l265 -700h-128l-59 158h-284l-59 -158h-120zM233 262h206l-102 288zM290 750l-150 150h140l110 -150h-100z" />
    <glyph glyph-name="Aacute" unicode="&#xc1;" horiz-adv-x="680" vert-adv-y="1200" 
d="M15 0l265 700h120l265 -700h-128l-59 158h-284l-59 -158h-120zM233 262h206l-102 288zM290 750l110 150h140l-150 -150h-100z" />
    <glyph glyph-name="Acircumflex" unicode="&#xc2;" horiz-adv-x="680" vert-adv-y="1200" 
d="M15 0l265 700h120l265 -700h-128l-59 158h-284l-59 -158h-120zM233 262h206l-102 288zM170 750l110 150h120l110 -150h-100l-70 70l-70 -70h-100z" />
    <glyph glyph-name="Atilde" unicode="&#xc3;" horiz-adv-x="680" vert-adv-y="1200" 
d="M15 0l265 700h120l265 -700h-128l-59 158h-284l-59 -158h-120zM233 262h206l-102 288zM410 755q-35 0 -57.5 11t-41 22.5t-41.5 11.5q-11 0 -20 -6t-14 -14q-4 -4 -6.5 -9.5t-4.5 -10.5l-65 30q4 14 9 27.5t12 24.5q12 20 33.5 36.5t55.5 16.5q35 0 57.5 -11.5
t41.5 -22.5t41 -11q11 0 19.5 6t14.5 14l6 10t5 10l65 -30q-4 -15 -9 -28.5t-12 -24.5q-12 -20 -33.5 -36t-55.5 -16z" />
    <glyph glyph-name="Adieresis" unicode="&#xc4;" horiz-adv-x="680" vert-adv-y="1200" 
d="M15 0l265 700h120l265 -700h-128l-59 158h-284l-59 -158h-120zM233 262h206l-102 288zM225 755q-31 0 -50.5 19.5t-19.5 50.5t19.5 50.5t50.5 19.5t50.5 -19.5t19.5 -50.5t-19.5 -50.5t-50.5 -19.5zM455 755q-31 0 -50.5 19.5t-19.5 50.5t19.5 50.5t50.5 19.5t50.5 -19.5
t19.5 -50.5t-19.5 -50.5t-50.5 -19.5z" />
    <glyph glyph-name="Aring" unicode="&#xc5;" horiz-adv-x="680" vert-adv-y="1200" 
d="M15 0l265 700h120l265 -700h-128l-59 158h-284l-59 -158h-120zM233 262h206l-102 288zM340 730q-35 0 -63.5 15.5t-45 41.5t-16.5 58t16.5 58t45 41.5t63.5 15.5t63.5 -15.5t45 -41.5t16.5 -58t-16.5 -58t-45 -41.5t-63.5 -15.5zM340 800q20 0 32.5 12.5t12.5 32.5
t-12.5 32.5t-32.5 12.5t-32.5 -12.5t-12.5 -32.5t12.5 -32.5t32.5 -12.5z" />
    <glyph glyph-name="AE" unicode="&#xc6;" horiz-adv-x="975" vert-adv-y="0" 
d="M10 0l410 700h500v-104h-350v-184h320v-104h-320v-204h350v-104h-470v158h-220l-92 -158h-128zM289 262h161v288z" />
    <glyph glyph-name="Ccedilla" unicode="&#xc7;" horiz-adv-x="690" vert-adv-y="1200" 
d="M360 -11q-86 0 -155 36.5t-109.5 115t-40.5 204.5v20q0 91 24 156.5t65.5 107.5t97 62t118.5 20q58 0 108 -14.5t88 -43.5t61 -72t28 -101h-126q-13 65 -55.5 95t-103.5 30q-44 0 -85 -22.5t-67.5 -74.5t-26.5 -143v-20q0 -72 16 -120.5t42.5 -76.5t58 -40.5t62.5 -12.5
q72 0 111.5 33.5t47.5 91.5h126q-6 -62 -29.5 -106t-62 -71.5t-87.5 -40.5t-106 -13zM330 -211q-16 0 -28 1t-20 2q-5 1 -9 2l-8 2v68l14 -2q7 -1 16 -1.5t20 -0.5q28 0 37 9t9 20q0 13 -9.5 21t-42.5 8l17 92h72l-7 -47q38 -9 51 -32t13 -46q0 -44 -29.5 -70t-95.5 -26z
" />
    <glyph glyph-name="Egrave" unicode="&#xc8;" horiz-adv-x="615" vert-adv-y="1200" 
d="M90 0v700h470v-104h-350v-184h320v-104h-320v-204h350v-104h-470zM275 750l-150 150h140l110 -150h-100z" />
    <glyph glyph-name="Eacute" unicode="&#xc9;" horiz-adv-x="615" vert-adv-y="1200" 
d="M90 0v700h470v-104h-350v-184h320v-104h-320v-204h350v-104h-470zM275 750l110 150h140l-150 -150h-100z" />
    <glyph glyph-name="Ecircumflex" unicode="&#xca;" horiz-adv-x="615" vert-adv-y="1200" 
d="M90 0v700h470v-104h-350v-184h320v-104h-320v-204h350v-104h-470zM155 750l110 150h120l110 -150h-100l-70 70l-70 -70h-100z" />
    <glyph glyph-name="Edieresis" unicode="&#xcb;" horiz-adv-x="615" vert-adv-y="1200" 
d="M90 0v700h470v-104h-350v-184h320v-104h-320v-204h350v-104h-470zM210 755q-31 0 -50.5 19.5t-19.5 50.5t19.5 50.5t50.5 19.5t50.5 -19.5t19.5 -50.5t-19.5 -50.5t-50.5 -19.5zM440 755q-31 0 -50.5 19.5t-19.5 50.5t19.5 50.5t50.5 19.5t50.5 -19.5t19.5 -50.5
t-19.5 -50.5t-50.5 -19.5z" />
    <glyph glyph-name="Igrave" unicode="&#xcc;" horiz-adv-x="320" vert-adv-y="1200" 
d="M100 0v700h120v-700h-120zM110 750l-150 150h140l110 -150h-100z" />
    <glyph glyph-name="Iacute" unicode="&#xcd;" horiz-adv-x="320" vert-adv-y="1200" 
d="M100 0v700h120v-700h-120zM110 750l110 150h140l-150 -150h-100z" />
    <glyph glyph-name="Icircumflex" unicode="&#xce;" horiz-adv-x="320" vert-adv-y="1200" 
d="M100 0v700h120v-700h-120zM-10 750l110 150h120l110 -150h-100l-70 70l-70 -70h-100z" />
    <glyph glyph-name="Idieresis" unicode="&#xcf;" horiz-adv-x="320" vert-adv-y="1200" 
d="M100 0v700h120v-700h-120zM45 755q-31 0 -50.5 19.5t-19.5 50.5t19.5 50.5t50.5 19.5t50.5 -19.5t19.5 -50.5t-19.5 -50.5t-50.5 -19.5zM275 755q-31 0 -50.5 19.5t-19.5 50.5t19.5 50.5t50.5 19.5t50.5 -19.5t19.5 -50.5t-19.5 -50.5t-50.5 -19.5z" />
    <glyph glyph-name="Eth" unicode="&#xd0;" horiz-adv-x="725" vert-adv-y="0" 
d="M110 0v308h-80v94h80v298h225q106 0 181 -37.5t114.5 -112t39.5 -185.5v-20q0 -112 -41 -189t-118.5 -116.5t-185.5 -39.5h-215zM230 104h85q69 0 120.5 23.5t80 76.5t28.5 141v20q0 82 -29 133t-78.5 74.5t-111.5 23.5h-95v-194h160v-94h-160v-204z" />
    <glyph glyph-name="Ntilde" unicode="&#xd1;" horiz-adv-x="760" vert-adv-y="1200" 
d="M90 0v700h116l344 -500v500h120v-700h-116l-344 500v-500h-120zM450 755q-35 0 -57.5 11t-41 22.5t-41.5 11.5q-11 0 -20 -6t-14 -14q-4 -4 -6.5 -9.5t-4.5 -10.5l-65 30q4 14 9 27.5t12 24.5q12 20 33.5 36.5t55.5 16.5q35 0 57.5 -11.5t41.5 -22.5t41 -11q11 0 19.5 6
t14.5 14l6 10t5 10l65 -30q-4 -15 -9 -28.5t-12 -24.5q-12 -20 -33.5 -36t-55.5 -16z" />
    <glyph glyph-name="Ograve" unicode="&#xd2;" horiz-adv-x="750" vert-adv-y="1200" 
d="M375 -11q-64 0 -121.5 20t-102.5 62.5t-70.5 110t-25.5 163.5v20q0 92 25.5 157.5t70.5 107.5t102.5 61.5t121.5 19.5t121.5 -19.5t102.5 -61.5t70.5 -107.5t25.5 -157.5v-20q0 -96 -25.5 -163.5t-70.5 -110t-102.5 -62.5t-121.5 -20zM375 95q50 0 94 24t72 78.5
t28 147.5v20q0 88 -28 140.5t-72 76t-94 23.5t-94.5 -23.5t-72 -76t-27.5 -140.5v-20q0 -93 27.5 -147.5t72 -78.5t94.5 -24zM325 750l-150 150h140l110 -150h-100z" />
    <glyph glyph-name="Oacute" unicode="&#xd3;" horiz-adv-x="750" vert-adv-y="1200" 
d="M375 -11q-64 0 -121.5 20t-102.5 62.5t-70.5 110t-25.5 163.5v20q0 92 25.5 157.5t70.5 107.5t102.5 61.5t121.5 19.5t121.5 -19.5t102.5 -61.5t70.5 -107.5t25.5 -157.5v-20q0 -96 -25.5 -163.5t-70.5 -110t-102.5 -62.5t-121.5 -20zM375 95q50 0 94 24t72 78.5
t28 147.5v20q0 88 -28 140.5t-72 76t-94 23.5t-94.5 -23.5t-72 -76t-27.5 -140.5v-20q0 -93 27.5 -147.5t72 -78.5t94.5 -24zM325 750l110 150h140l-150 -150h-100z" />
    <glyph glyph-name="Ocircumflex" unicode="&#xd4;" horiz-adv-x="750" vert-adv-y="1200" 
d="M375 -11q-64 0 -121.5 20t-102.5 62.5t-70.5 110t-25.5 163.5v20q0 92 25.5 157.5t70.5 107.5t102.5 61.5t121.5 19.5t121.5 -19.5t102.5 -61.5t70.5 -107.5t25.5 -157.5v-20q0 -96 -25.5 -163.5t-70.5 -110t-102.5 -62.5t-121.5 -20zM375 95q50 0 94 24t72 78.5
t28 147.5v20q0 88 -28 140.5t-72 76t-94 23.5t-94.5 -23.5t-72 -76t-27.5 -140.5v-20q0 -93 27.5 -147.5t72 -78.5t94.5 -24zM205 750l110 150h120l110 -150h-100l-70 70l-70 -70h-100z" />
    <glyph glyph-name="Otilde" unicode="&#xd5;" horiz-adv-x="750" vert-adv-y="1200" 
d="M375 -11q-64 0 -121.5 20t-102.5 62.5t-70.5 110t-25.5 163.5v20q0 92 25.5 157.5t70.5 107.5t102.5 61.5t121.5 19.5t121.5 -19.5t102.5 -61.5t70.5 -107.5t25.5 -157.5v-20q0 -96 -25.5 -163.5t-70.5 -110t-102.5 -62.5t-121.5 -20zM375 95q50 0 94 24t72 78.5
t28 147.5v20q0 88 -28 140.5t-72 76t-94 23.5t-94.5 -23.5t-72 -76t-27.5 -140.5v-20q0 -93 27.5 -147.5t72 -78.5t94.5 -24zM445 755q-35 0 -57.5 11t-41 22.5t-41.5 11.5q-11 0 -20 -6t-14 -14q-4 -4 -6.5 -9.5t-4.5 -10.5l-65 30q4 14 9 27.5t12 24.5q12 20 33.5 36.5
t55.5 16.5q35 0 57.5 -11.5t41.5 -22.5t41 -11q11 0 19.5 6t14.5 14l6 10t5 10l65 -30q-4 -15 -9 -28.5t-12 -24.5q-12 -20 -33.5 -36t-55.5 -16z" />
    <glyph glyph-name="Odieresis" unicode="&#xd6;" horiz-adv-x="750" vert-adv-y="1200" 
d="M375 -11q-64 0 -121.5 20t-102.5 62.5t-70.5 110t-25.5 163.5v20q0 92 25.5 157.5t70.5 107.5t102.5 61.5t121.5 19.5t121.5 -19.5t102.5 -61.5t70.5 -107.5t25.5 -157.5v-20q0 -96 -25.5 -163.5t-70.5 -110t-102.5 -62.5t-121.5 -20zM375 95q50 0 94 24t72 78.5
t28 147.5v20q0 88 -28 140.5t-72 76t-94 23.5t-94.5 -23.5t-72 -76t-27.5 -140.5v-20q0 -93 27.5 -147.5t72 -78.5t94.5 -24zM260 755q-31 0 -50.5 19.5t-19.5 50.5t19.5 50.5t50.5 19.5t50.5 -19.5t19.5 -50.5t-19.5 -50.5t-50.5 -19.5zM490 755q-31 0 -50.5 19.5
t-19.5 50.5t19.5 50.5t50.5 19.5t50.5 -19.5t19.5 -50.5t-19.5 -50.5t-50.5 -19.5z" />
    <glyph glyph-name="multiply" unicode="&#xd7;" horiz-adv-x="560" vert-adv-y="0" 
d="M135 145l-70 70l145 145l-145 145l70 70l145 -145l145 145l70 -70l-145 -145l145 -145l-70 -70l-145 145z" />
    <glyph glyph-name="Oslash" unicode="&#xd8;" horiz-adv-x="750" vert-adv-y="0" 
d="M375 -11q-54 0 -103.5 14t-91.5 44l-47 -58l-58 48l51 63q-33 43 -52 103.5t-19 141.5v20q0 92 25.5 157.5t70.5 107.5t102.5 61.5t121.5 19.5q54 0 103.5 -14t91.5 -44l47 58l58 -48l-50 -63q32 -42 51 -99.5t19 -135.5v-20q0 -96 -25.5 -163.5t-70.5 -110t-102.5 -62.5
t-121.5 -20zM375 95q50 0 94 24t72 78.5t28 147.5v20q0 42 -7 75t-19 59l-290 -361q26 -23 57 -33t65 -10zM375 605q-50 0 -94.5 -23.5t-72 -76t-27.5 -140.5v-20q0 -45 7 -80.5t19 -62.5l290 360q-26 23 -57.5 33t-64.5 10z" />
    <glyph glyph-name="Ugrave" unicode="&#xd9;" horiz-adv-x="730" vert-adv-y="1200" 
d="M365 -11q-87 0 -151 32t-99 96.5t-35 162.5v420h120v-413q0 -99 42 -145.5t123 -46.5q82 0 123.5 46.5t41.5 144.5v414h120v-420q0 -98 -35 -162.5t-99 -96.5t-151 -32zM315 750l-150 150h140l110 -150h-100z" />
    <glyph glyph-name="Uacute" unicode="&#xda;" horiz-adv-x="730" vert-adv-y="1200" 
d="M365 -11q-87 0 -151 32t-99 96.5t-35 162.5v420h120v-413q0 -99 42 -145.5t123 -46.5q82 0 123.5 46.5t41.5 144.5v414h120v-420q0 -98 -35 -162.5t-99 -96.5t-151 -32zM315 750l110 150h140l-150 -150h-100z" />
    <glyph glyph-name="Ucircumflex" unicode="&#xdb;" horiz-adv-x="730" vert-adv-y="1200" 
d="M365 -11q-87 0 -151 32t-99 96.5t-35 162.5v420h120v-413q0 -99 42 -145.5t123 -46.5q82 0 123.5 46.5t41.5 144.5v414h120v-420q0 -98 -35 -162.5t-99 -96.5t-151 -32zM195 750l110 150h120l110 -150h-100l-70 70l-70 -70h-100z" />
    <glyph glyph-name="Udieresis" unicode="&#xdc;" horiz-adv-x="730" vert-adv-y="1200" 
d="M365 -11q-87 0 -151 32t-99 96.5t-35 162.5v420h120v-413q0 -99 42 -145.5t123 -46.5q82 0 123.5 46.5t41.5 144.5v414h120v-420q0 -98 -35 -162.5t-99 -96.5t-151 -32zM250 755q-31 0 -50.5 19.5t-19.5 50.5t19.5 50.5t50.5 19.5t50.5 -19.5t19.5 -50.5t-19.5 -50.5
t-50.5 -19.5zM480 755q-31 0 -50.5 19.5t-19.5 50.5t19.5 50.5t50.5 19.5t50.5 -19.5t19.5 -50.5t-19.5 -50.5t-50.5 -19.5z" />
    <glyph glyph-name="Yacute" unicode="&#xdd;" horiz-adv-x="660" vert-adv-y="1200" 
d="M280 0v270l-270 430h142l190 -310l176 310h132l-250 -430v-270h-120zM280 750l110 150h140l-150 -150h-100z" />
    <glyph glyph-name="Thorn" unicode="&#xde;" horiz-adv-x="660" vert-adv-y="0" 
d="M90 0v700h120v-116h135q94 0 155 -27.5t90.5 -77.5t29.5 -119q0 -68 -29.5 -118t-90.5 -77t-155 -27h-135v-138h-120zM210 242h125q95 0 130 29.5t35 88.5q0 60 -35 90t-130 30h-125v-238z" />
    <glyph glyph-name="germandbls" unicode="&#xdf;" horiz-adv-x="585" vert-adv-y="0" 
d="M70 0v480q0 111 58.5 171t161.5 60q68 0 114.5 -23t71 -63t24.5 -90q0 -51 -26 -91t-74 -57q51 -8 82 -34t44.5 -62.5t13.5 -75.5v-10q0 -70 -25 -116.5t-78 -70t-137 -23.5q-11 0 -25 0.5t-25 2.5v94q11 -2 25 -2.5t25 -0.5q65 0 97.5 31.5t32.5 88.5v10q0 57 -33 88
t-102 31h-20v84h15q40 0 70 24t30 73q0 48 -25 72t-75 24q-53 0 -81.5 -35.5t-28.5 -99.5v-480h-110z" />
    <glyph glyph-name="agrave" unicode="&#xe0;" horiz-adv-x="570" vert-adv-y="1200" 
d="M225 -11q-57 0 -97.5 21.5t-61.5 59.5t-21 85q0 79 47 117.5t138 38.5h165v29q0 60 -26.5 82.5t-83.5 22.5q-51 0 -75 -16t-28 -44h-107q3 46 29 81t73.5 55t112.5 20t113.5 -20t75 -62.5t26.5 -112.5v-211q0 -42 1 -73.5t5 -61.5h-100q-3 23 -4.5 39t-1.5 40
q-19 -37 -65.5 -63.5t-114.5 -26.5zM255 85q38 0 69.5 13t51 39t19.5 63v29h-145q-42 0 -67.5 -18t-25.5 -53q0 -33 23.5 -53t74.5 -20zM245 580l-150 160h130l110 -160h-90z" />
    <glyph glyph-name="aacute" unicode="&#xe1;" horiz-adv-x="570" vert-adv-y="1200" 
d="M225 -11q-57 0 -97.5 21.5t-61.5 59.5t-21 85q0 79 47 117.5t138 38.5h165v29q0 60 -26.5 82.5t-83.5 22.5q-51 0 -75 -16t-28 -44h-107q3 46 29 81t73.5 55t112.5 20t113.5 -20t75 -62.5t26.5 -112.5v-211q0 -42 1 -73.5t5 -61.5h-100q-3 23 -4.5 39t-1.5 40
q-19 -37 -65.5 -63.5t-114.5 -26.5zM255 85q38 0 69.5 13t51 39t19.5 63v29h-145q-42 0 -67.5 -18t-25.5 -53q0 -33 23.5 -53t74.5 -20zM245 580l110 160h130l-150 -160h-90z" />
    <glyph glyph-name="acircumflex" unicode="&#xe2;" horiz-adv-x="570" vert-adv-y="1200" 
d="M225 -11q-57 0 -97.5 21.5t-61.5 59.5t-21 85q0 79 47 117.5t138 38.5h165v29q0 60 -26.5 82.5t-83.5 22.5q-51 0 -75 -16t-28 -44h-107q3 46 29 81t73.5 55t112.5 20t113.5 -20t75 -62.5t26.5 -112.5v-211q0 -42 1 -73.5t5 -61.5h-100q-3 23 -4.5 39t-1.5 40
q-19 -37 -65.5 -63.5t-114.5 -26.5zM255 85q38 0 69.5 13t51 39t19.5 63v29h-145q-42 0 -67.5 -18t-25.5 -53q0 -33 23.5 -53t74.5 -20zM125 580l110 160h110l110 -160h-90l-75 80l-75 -80h-90z" />
    <glyph glyph-name="atilde" unicode="&#xe3;" horiz-adv-x="570" vert-adv-y="1200" 
d="M225 -11q-57 0 -97.5 21.5t-61.5 59.5t-21 85q0 79 47 117.5t138 38.5h165v29q0 60 -26.5 82.5t-83.5 22.5q-51 0 -75 -16t-28 -44h-107q3 46 29 81t73.5 55t112.5 20t113.5 -20t75 -62.5t26.5 -112.5v-211q0 -42 1 -73.5t5 -61.5h-100q-3 23 -4.5 39t-1.5 40
q-19 -37 -65.5 -63.5t-114.5 -26.5zM255 85q38 0 69.5 13t51 39t19.5 63v29h-145q-42 0 -67.5 -18t-25.5 -53q0 -33 23.5 -53t74.5 -20zM390 720l60 -25q-4 -14 -8.5 -26.5t-11.5 -23.5q-11 -19 -30.5 -34.5t-49.5 -15.5t-50.5 11t-36 22.5t-33.5 11.5q-11 0 -18.5 -6
t-12.5 -14l-5 -10t-4 -10l-60 25q4 14 8.5 26.5t11.5 23.5q11 19 30.5 34.5t49.5 15.5t50 -11.5t36.5 -22.5t33.5 -11q11 0 18.5 6t12.5 14l5 10t4 10z" />
    <glyph glyph-name="adieresis" unicode="&#xe4;" horiz-adv-x="570" vert-adv-y="1200" 
d="M225 -11q-57 0 -97.5 21.5t-61.5 59.5t-21 85q0 79 47 117.5t138 38.5h165v29q0 60 -26.5 82.5t-83.5 22.5q-51 0 -75 -16t-28 -44h-107q3 46 29 81t73.5 55t112.5 20t113.5 -20t75 -62.5t26.5 -112.5v-211q0 -42 1 -73.5t5 -61.5h-100q-3 23 -4.5 39t-1.5 40
q-19 -37 -65.5 -63.5t-114.5 -26.5zM255 85q38 0 69.5 13t51 39t19.5 63v29h-145q-42 0 -67.5 -18t-25.5 -53q0 -33 23.5 -53t74.5 -20zM186 594q-29 0 -47.5 18.5t-18.5 47.5t18.5 47.5t47.5 18.5t47.5 -18.5t18.5 -47.5t-18.5 -47.5t-47.5 -18.5zM394 594
q-29 0 -47.5 18.5t-18.5 47.5t18.5 47.5t47.5 18.5t47.5 -18.5t18.5 -47.5t-18.5 -47.5t-47.5 -18.5z" />
    <glyph glyph-name="aring" unicode="&#xe5;" horiz-adv-x="570" vert-adv-y="1200" 
d="M225 -11q-57 0 -97.5 21.5t-61.5 59.5t-21 85q0 79 47 117.5t138 38.5h165v29q0 60 -26.5 82.5t-83.5 22.5q-51 0 -75 -16t-28 -44h-107q3 46 29 81t73.5 55t112.5 20t113.5 -20t75 -62.5t26.5 -112.5v-211q0 -42 1 -73.5t5 -61.5h-100q-3 23 -4.5 39t-1.5 40
q-19 -37 -65.5 -63.5t-114.5 -26.5zM255 85q38 0 69.5 13t51 39t19.5 63v29h-145q-42 0 -67.5 -18t-25.5 -53q0 -33 23.5 -53t74.5 -20zM290 570q-51 0 -85.5 31.5t-34.5 78.5t34.5 78.5t85.5 31.5t85.5 -31.5t34.5 -78.5t-34.5 -78.5t-85.5 -31.5zM290 638q18 0 30 12
t12 30t-12 30t-30 12t-30 -12t-12 -30t12 -30t30 -12z" />
    <glyph glyph-name="ae" unicode="&#xe6;" horiz-adv-x="935" vert-adv-y="0" 
d="M225 -11q-57 0 -97.5 21.5t-61.5 59.5t-21 85q0 79 47 116.5t138 37.5h165v31q0 60 -26.5 82.5t-83.5 22.5q-51 0 -75 -16t-28 -44h-107q3 46 29 81t73.5 55t112.5 20q60 0 106.5 -21.5t69.5 -60.5q32 45 77.5 63.5t101.5 18.5q121 0 185.5 -65t64.5 -186v-62h-388
q2 -51 23 -82.5t54 -46t71 -14.5q57 0 83.5 18t36.5 47h110q-16 -78 -78.5 -119.5t-151.5 -41.5q-69 0 -122.5 26t-82.5 77q-29 -49 -84.5 -76t-140.5 -27zM255 85q38 0 69.5 13t51 38.5t19.5 62.5v30h-145q-42 0 -67.5 -18t-25.5 -53q0 -33 23.5 -53t74.5 -20zM650 445
q-37 0 -69 -13t-52 -42t-22 -78h278q-1 52 -19 80.5t-48 40.5t-68 12z" />
    <glyph glyph-name="ccedilla" unicode="&#xe7;" horiz-adv-x="555" vert-adv-y="1200" 
d="M290 -11q-71 0 -128 30t-89.5 90t-32.5 151v20q0 86 34.5 144t91.5 87.5t124 29.5q70 0 118.5 -24t76 -65t35.5 -92h-112q-10 37 -36 61t-82 24q-37 0 -68.5 -17t-50.5 -53.5t-19 -94.5v-20q0 -63 19 -101.5t50.5 -56t68.5 -17.5q47 0 76 21t42 64h112
q-10 -56 -41.5 -96.5t-79.5 -62.5t-109 -22zM260 -211q-16 0 -28 1t-20 2q-5 1 -9 2l-8 2v66l14 -2q7 -1 16 -1.5t20 -0.5q28 0 38 10t10 21q0 13 -10 22t-42 9l17 90h68l-7 -47q40 -9 53 -32t13 -46q0 -44 -29.5 -70t-95.5 -26z" />
    <glyph glyph-name="egrave" unicode="&#xe8;" horiz-adv-x="580" vert-adv-y="1200" 
d="M300 -11q-70 0 -129 29.5t-95 89.5t-36 152v20q0 88 34.5 146t91.5 86.5t124 28.5q121 0 185.5 -65t64.5 -186v-56h-388q2 -54 23 -87t54 -47.5t71 -14.5q57 0 83.5 18t36.5 47h110q-16 -79 -78.5 -120t-151.5 -41zM295 445q-37 0 -69 -13t-52 -41t-22 -75h278
q-1 50 -19 78t-48 39.5t-68 11.5zM245 580l-150 160h130l110 -160h-90z" />
    <glyph glyph-name="eacute" unicode="&#xe9;" horiz-adv-x="580" vert-adv-y="1200" 
d="M300 -11q-70 0 -129 29.5t-95 89.5t-36 152v20q0 88 34.5 146t91.5 86.5t124 28.5q121 0 185.5 -65t64.5 -186v-56h-388q2 -54 23 -87t54 -47.5t71 -14.5q57 0 83.5 18t36.5 47h110q-16 -79 -78.5 -120t-151.5 -41zM295 445q-37 0 -69 -13t-52 -41t-22 -75h278
q-1 50 -19 78t-48 39.5t-68 11.5zM245 580l110 160h130l-150 -160h-90z" />
    <glyph glyph-name="ecircumflex" unicode="&#xea;" horiz-adv-x="580" vert-adv-y="1200" 
d="M300 -11q-70 0 -129 29.5t-95 89.5t-36 152v20q0 88 34.5 146t91.5 86.5t124 28.5q121 0 185.5 -65t64.5 -186v-56h-388q2 -54 23 -87t54 -47.5t71 -14.5q57 0 83.5 18t36.5 47h110q-16 -79 -78.5 -120t-151.5 -41zM295 445q-37 0 -69 -13t-52 -41t-22 -75h278
q-1 50 -19 78t-48 39.5t-68 11.5zM125 580l110 160h110l110 -160h-90l-75 80l-75 -80h-90z" />
    <glyph glyph-name="edieresis" unicode="&#xeb;" horiz-adv-x="580" vert-adv-y="1200" 
d="M300 -11q-70 0 -129 29.5t-95 89.5t-36 152v20q0 88 34.5 146t91.5 86.5t124 28.5q121 0 185.5 -65t64.5 -186v-56h-388q2 -54 23 -87t54 -47.5t71 -14.5q57 0 83.5 18t36.5 47h110q-16 -79 -78.5 -120t-151.5 -41zM295 445q-37 0 -69 -13t-52 -41t-22 -75h278
q-1 50 -19 78t-48 39.5t-68 11.5zM186 594q-29 0 -47.5 18.5t-18.5 47.5t18.5 47.5t47.5 18.5t47.5 -18.5t18.5 -47.5t-18.5 -47.5t-47.5 -18.5zM394 594q-29 0 -47.5 18.5t-18.5 47.5t18.5 47.5t47.5 18.5t47.5 -18.5t18.5 -47.5t-18.5 -47.5t-47.5 -18.5z" />
    <glyph glyph-name="igrave" unicode="&#xec;" horiz-adv-x="270" vert-adv-y="1200" 
d="M80 0v530h110v-530h-110zM90 580l-150 160h130l110 -160h-90z" />
    <glyph glyph-name="iacute" unicode="&#xed;" horiz-adv-x="270" vert-adv-y="1200" 
d="M80 0v530h110v-530h-110zM90 580l110 160h130l-150 -160h-90z" />
    <glyph glyph-name="icircumflex" unicode="&#xee;" horiz-adv-x="270" vert-adv-y="1200" 
d="M80 0v530h110v-530h-110zM-30 580l110 160h110l110 -160h-90l-75 80l-75 -80h-90z" />
    <glyph glyph-name="idieresis" unicode="&#xef;" horiz-adv-x="270" vert-adv-y="1200" 
d="M80 0v530h110v-530h-110zM31 594q-29 0 -47.5 18.5t-18.5 47.5t18.5 47.5t47.5 18.5t47.5 -18.5t18.5 -47.5t-18.5 -47.5t-47.5 -18.5zM239 594q-29 0 -47.5 18.5t-18.5 47.5t18.5 47.5t47.5 18.5t47.5 -18.5t18.5 -47.5t-18.5 -47.5t-47.5 -18.5z" />
    <glyph glyph-name="eth" unicode="&#xf0;" horiz-adv-x="605" vert-adv-y="0" 
d="M300 -11q-68 0 -127.5 29.5t-96 87.5t-36.5 144v20q0 61 21 107.5t56 78.5t77.5 48.5t85.5 16.5q41 0 76 -10t64 -30q-23 47 -58 79t-85 55l-25 -47l-53 24l23 45q-17 7 -35.5 12.5t-37.5 10.5l28 87q24 -7 46 -14t43 -15l24 45l53 -24l-24 -44q88 -42 141 -100
t76.5 -133.5t23.5 -171.5v-20q0 -96 -36.5 -158t-96 -92.5t-127.5 -30.5zM300 85q41 0 74.5 18t53.5 54.5t20 92.5v20q0 51 -20 85.5t-53.5 52t-74.5 17.5q-40 0 -74 -17.5t-54 -52t-20 -85.5v-20q0 -56 20 -92.5t54 -54.5t74 -18z" />
    <glyph glyph-name="ntilde" unicode="&#xf1;" horiz-adv-x="605" vert-adv-y="1200" 
d="M70 0v530h102v-89q19 40 62 70t111 30q97 0 146 -52.5t49 -153.5v-335h-110v310q0 67 -28 101t-92 34q-46 0 -74.5 -19.5t-42 -50t-13.5 -65.5v-310h-110zM403 720l60 -25q-4 -14 -8.5 -26.5t-11.5 -23.5q-11 -19 -30.5 -34.5t-49.5 -15.5t-50.5 11t-36 22.5t-33.5 11.5
q-11 0 -18.5 -6t-12.5 -14l-5 -10t-4 -10l-60 25q4 14 8.5 26.5t11.5 23.5q11 19 30.5 34.5t49.5 15.5t50 -11.5t36.5 -22.5t33.5 -11q11 0 18.5 6t12.5 14l5 10t4 10z" />
    <glyph glyph-name="ograve" unicode="&#xf2;" horiz-adv-x="600" vert-adv-y="1200" 
d="M300 -11q-73 0 -132 30.5t-93.5 91t-34.5 149.5v20q0 84 34.5 142.5t93.5 88.5t132 30q74 0 132.5 -30t93 -88.5t34.5 -142.5v-20q0 -89 -34.5 -149.5t-93 -91t-132.5 -30.5zM300 85q38 0 72 18t55 56.5t21 100.5v20q0 57 -21 93.5t-55 54t-72 17.5t-72 -17.5t-55 -54
t-21 -93.5v-20q0 -62 21 -100.5t55 -56.5t72 -18zM255 580l-150 160h130l110 -160h-90z" />
    <glyph glyph-name="oacute" unicode="&#xf3;" horiz-adv-x="600" vert-adv-y="1200" 
d="M300 -11q-73 0 -132 30.5t-93.5 91t-34.5 149.5v20q0 84 34.5 142.5t93.5 88.5t132 30q74 0 132.5 -30t93 -88.5t34.5 -142.5v-20q0 -89 -34.5 -149.5t-93 -91t-132.5 -30.5zM300 85q38 0 72 18t55 56.5t21 100.5v20q0 57 -21 93.5t-55 54t-72 17.5t-72 -17.5t-55 -54
t-21 -93.5v-20q0 -62 21 -100.5t55 -56.5t72 -18zM255 580l110 160h130l-150 -160h-90z" />
    <glyph glyph-name="ocircumflex" unicode="&#xf4;" horiz-adv-x="600" vert-adv-y="1200" 
d="M300 -11q-73 0 -132 30.5t-93.5 91t-34.5 149.5v20q0 84 34.5 142.5t93.5 88.5t132 30q74 0 132.5 -30t93 -88.5t34.5 -142.5v-20q0 -89 -34.5 -149.5t-93 -91t-132.5 -30.5zM300 85q38 0 72 18t55 56.5t21 100.5v20q0 57 -21 93.5t-55 54t-72 17.5t-72 -17.5t-55 -54
t-21 -93.5v-20q0 -62 21 -100.5t55 -56.5t72 -18zM135 580l110 160h110l110 -160h-90l-75 80l-75 -80h-90z" />
    <glyph glyph-name="otilde" unicode="&#xf5;" horiz-adv-x="600" vert-adv-y="1200" 
d="M300 -11q-73 0 -132 30.5t-93.5 91t-34.5 149.5v20q0 84 34.5 142.5t93.5 88.5t132 30q74 0 132.5 -30t93 -88.5t34.5 -142.5v-20q0 -89 -34.5 -149.5t-93 -91t-132.5 -30.5zM300 85q38 0 72 18t55 56.5t21 100.5v20q0 57 -21 93.5t-55 54t-72 17.5t-72 -17.5t-55 -54
t-21 -93.5v-20q0 -62 21 -100.5t55 -56.5t72 -18zM400 720l60 -25q-4 -14 -8.5 -26.5t-11.5 -23.5q-11 -19 -30.5 -34.5t-49.5 -15.5t-50.5 11t-36 22.5t-33.5 11.5q-11 0 -18.5 -6t-12.5 -14l-5 -10t-4 -10l-60 25q4 14 8.5 26.5t11.5 23.5q11 19 30.5 34.5t49.5 15.5
t50 -11.5t36.5 -22.5t33.5 -11q11 0 18.5 6t12.5 14l5 10t4 10z" />
    <glyph glyph-name="odieresis" unicode="&#xf6;" horiz-adv-x="600" vert-adv-y="1200" 
d="M300 -11q-73 0 -132 30.5t-93.5 91t-34.5 149.5v20q0 84 34.5 142.5t93.5 88.5t132 30q74 0 132.5 -30t93 -88.5t34.5 -142.5v-20q0 -89 -34.5 -149.5t-93 -91t-132.5 -30.5zM300 85q38 0 72 18t55 56.5t21 100.5v20q0 57 -21 93.5t-55 54t-72 17.5t-72 -17.5t-55 -54
t-21 -93.5v-20q0 -62 21 -100.5t55 -56.5t72 -18zM196 594q-29 0 -47.5 18.5t-18.5 47.5t18.5 47.5t47.5 18.5t47.5 -18.5t18.5 -47.5t-18.5 -47.5t-47.5 -18.5zM404 594q-29 0 -47.5 18.5t-18.5 47.5t18.5 47.5t47.5 18.5t47.5 -18.5t18.5 -47.5t-18.5 -47.5t-47.5 -18.5z
" />
    <glyph glyph-name="divide" unicode="&#xf7;" horiz-adv-x="560" vert-adv-y="0" 
d="M45 308v104h470v-104h-470zM280 88q-22 0 -40.5 10.5t-29 29t-10.5 40.5q0 35 23 57.5t57 22.5t57 -22.5t23 -57.5q0 -22 -10.5 -40.5t-28.5 -29t-41 -10.5zM280 472q-22 0 -40.5 10.5t-29 29t-10.5 40.5q0 35 23 57.5t57 22.5t57 -22.5t23 -57.5q0 -22 -10.5 -40.5
t-28.5 -29t-41 -10.5z" />
    <glyph glyph-name="oslash" unicode="&#xf8;" horiz-adv-x="600" vert-adv-y="0" 
d="M300 -11q-91 0 -156 45l-38 -45l-46 40l39 46q-28 33 -43.5 79t-15.5 106v20q0 84 34.5 142.5t93.5 88.5t132 30q92 0 156 -45l38 45l46 -40l-39 -45q28 -33 43.5 -77t15.5 -99v-20q0 -89 -34.5 -149.5t-93 -91t-132.5 -30.5zM300 85q38 0 72 18t55 56.5t21 100.5v20
q0 27 -5.5 49t-14.5 40l-217 -256q20 -14 42.5 -21t46.5 -7zM300 445q-38 0 -72 -17.5t-55 -54t-21 -93.5v-20q0 -29 5 -54t15 -45l217 256q-20 14 -42.5 21t-46.5 7z" />
    <glyph glyph-name="ugrave" unicode="&#xf9;" horiz-adv-x="595" vert-adv-y="1200" 
d="M255 -11q-94 0 -142 54.5t-48 166.5v320h110v-310q0 -67 27.5 -101t87.5 -34q44 0 71.5 19t40.5 50t13 66v310h110v-530h-102v90q-19 -41 -61.5 -71t-106.5 -30zM253 580l-150 160h130l110 -160h-90z" />
    <glyph glyph-name="uacute" unicode="&#xfa;" horiz-adv-x="595" vert-adv-y="1200" 
d="M255 -11q-94 0 -142 54.5t-48 166.5v320h110v-310q0 -67 27.5 -101t87.5 -34q44 0 71.5 19t40.5 50t13 66v310h110v-530h-102v90q-19 -41 -61.5 -71t-106.5 -30zM253 580l110 160h130l-150 -160h-90z" />
    <glyph glyph-name="ucircumflex" unicode="&#xfb;" horiz-adv-x="595" vert-adv-y="1200" 
d="M255 -11q-94 0 -142 54.5t-48 166.5v320h110v-310q0 -67 27.5 -101t87.5 -34q44 0 71.5 19t40.5 50t13 66v310h110v-530h-102v90q-19 -41 -61.5 -71t-106.5 -30zM133 580l110 160h110l110 -160h-90l-75 80l-75 -80h-90z" />
    <glyph glyph-name="udieresis" unicode="&#xfc;" horiz-adv-x="595" vert-adv-y="1200" 
d="M255 -11q-94 0 -142 54.5t-48 166.5v320h110v-310q0 -67 27.5 -101t87.5 -34q44 0 71.5 19t40.5 50t13 66v310h110v-530h-102v90q-19 -41 -61.5 -71t-106.5 -30zM194 594q-29 0 -47.5 18.5t-18.5 47.5t18.5 47.5t47.5 18.5t47.5 -18.5t18.5 -47.5t-18.5 -47.5
t-47.5 -18.5zM402 594q-29 0 -47.5 18.5t-18.5 47.5t18.5 47.5t47.5 18.5t47.5 -18.5t18.5 -47.5t-18.5 -47.5t-47.5 -18.5z" />
    <glyph glyph-name="yacute" unicode="&#xfd;" horiz-adv-x="580" vert-adv-y="1200" 
d="M155 -211q-15 0 -30 3v96q15 -3 30 -3q22 0 36 10.5t26 35.5t28 69l-225 530h120l162 -410l146 410h112l-205 -530q-29 -74 -55 -121t-59 -68.5t-86 -21.5zM245 580l110 160h130l-150 -160h-90z" />
    <glyph glyph-name="thorn" unicode="&#xfe;" horiz-adv-x="615" vert-adv-y="0" 
d="M70 -200v900h110v-254q25 41 68.5 68t103.5 27q103 0 163 -65t60 -196v-20q0 -90 -28 -150.5t-78 -90.5t-118 -30q-57 0 -104 25t-67 69v-283h-110zM326 85q61 0 99 43t38 132v20q0 84 -37 124.5t-100 40.5q-43 0 -76 -17.5t-51.5 -49t-18.5 -73.5v-70q0 -50 20.5 -83.5
t54 -50t71.5 -16.5z" />
    <glyph glyph-name="ydieresis" unicode="&#xff;" horiz-adv-x="580" vert-adv-y="1200" 
d="M155 -211q-15 0 -30 3v96q15 -3 30 -3q22 0 36 10.5t26 35.5t28 69l-225 530h120l162 -410l146 410h112l-205 -530q-29 -74 -55 -121t-59 -68.5t-86 -21.5zM186 594q-29 0 -47.5 18.5t-18.5 47.5t18.5 47.5t47.5 18.5t47.5 -18.5t18.5 -47.5t-18.5 -47.5t-47.5 -18.5z
M394 594q-29 0 -47.5 18.5t-18.5 47.5t18.5 47.5t47.5 18.5t47.5 -18.5t18.5 -47.5t-18.5 -47.5t-47.5 -18.5z" />
    <glyph glyph-name="Amacron" unicode="&#x100;" horiz-adv-x="680" vert-adv-y="1200" 
d="M15 0l265 700h120l265 -700h-128l-59 158h-284l-59 -158h-120zM233 262h206l-102 288zM190 778v94h300v-94h-300z" />
    <glyph glyph-name="amacron" unicode="&#x101;" horiz-adv-x="570" vert-adv-y="1200" 
d="M225 -11q-57 0 -97.5 21.5t-61.5 59.5t-21 85q0 79 47 117.5t138 38.5h165v29q0 60 -26.5 82.5t-83.5 22.5q-51 0 -75 -16t-28 -44h-107q3 46 29 81t73.5 55t112.5 20t113.5 -20t75 -62.5t26.5 -112.5v-211q0 -42 1 -73.5t5 -61.5h-100q-3 23 -4.5 39t-1.5 40
q-19 -37 -65.5 -63.5t-114.5 -26.5zM255 85q38 0 69.5 13t51 39t19.5 63v29h-145q-42 0 -67.5 -18t-25.5 -53q0 -33 23.5 -53t74.5 -20zM150 618v84h280v-84h-280z" />
    <glyph glyph-name="Abreve" unicode="&#x102;" horiz-adv-x="680" vert-adv-y="1200" 
d="M15 0l265 700h120l265 -700h-128l-59 158h-284l-59 -158h-120zM233 262h206l-102 288zM340 745q-62 0 -102 18.5t-59 54t-19 87.5h110q0 -46 17.5 -65t52.5 -19t52.5 19t17.5 65h110q0 -52 -19 -87.5t-59 -54t-102 -18.5z" />
    <glyph glyph-name="abreve" unicode="&#x103;" horiz-adv-x="570" vert-adv-y="1200" 
d="M225 -11q-57 0 -97.5 21.5t-61.5 59.5t-21 85q0 79 47 117.5t138 38.5h165v29q0 60 -26.5 82.5t-83.5 22.5q-51 0 -75 -16t-28 -44h-107q3 46 29 81t73.5 55t112.5 20t113.5 -20t75 -62.5t26.5 -112.5v-211q0 -42 1 -73.5t5 -61.5h-100q-3 23 -4.5 39t-1.5 40
q-19 -37 -65.5 -63.5t-114.5 -26.5zM255 85q38 0 69.5 13t51 39t19.5 63v29h-145q-42 0 -67.5 -18t-25.5 -53q0 -33 23.5 -53t74.5 -20zM290 590q-83 0 -121.5 36.5t-38.5 103.5h102q0 -36 14.5 -52t43.5 -16t43.5 16t14.5 52h102q0 -67 -39 -103.5t-121 -36.5z" />
    <glyph glyph-name="Aogonek" unicode="&#x104;" horiz-adv-x="680" vert-adv-y="1200" 
d="M15 0l265 700h120l265 -700h-128l-59 158h-284l-59 -158h-120zM233 262h206l-102 288zM607 -211q-55 0 -81 25t-26 64q0 24 9.5 44t25 35.5t34 26.5t35.5 16h61q-8 -2 -26.5 -17t-34.5 -37t-16 -46q0 -19 10.5 -30t38.5 -11q7 0 12.5 1t15.5 2v-68q-18 -4 -31 -4.5
t-27 -0.5z" />
    <glyph glyph-name="aogonek" unicode="&#x105;" horiz-adv-x="570" vert-adv-y="1200" 
d="M225 -11q-57 0 -97.5 21.5t-61.5 59.5t-21 85q0 79 47 117.5t138 38.5h165v29q0 60 -26.5 82.5t-83.5 22.5q-51 0 -75 -16t-28 -44h-107q3 46 29 81t73.5 55t112.5 20t113.5 -20t75 -62.5t26.5 -112.5v-211q0 -42 1 -73.5t5 -61.5h-100q-3 23 -4.5 39t-1.5 40
q-19 -37 -65.5 -63.5t-114.5 -26.5zM255 85q38 0 69.5 13t51 39t19.5 63v29h-145q-42 0 -67.5 -18t-25.5 -53q0 -33 23.5 -53t74.5 -20zM453 -211q-55 0 -81 25t-26 64q0 24 9.5 44t25 35.5t34 26.5t35.5 16h61q-8 -2 -26.5 -17t-34.5 -37t-16 -46q0 -19 10.5 -30t38.5 -11
q7 0 12.5 1t15.5 2v-68q-18 -4 -31 -4.5t-27 -0.5z" />
    <glyph glyph-name="Cacute" unicode="&#x106;" horiz-adv-x="690" vert-adv-y="1200" 
d="M360 -11q-86 0 -155 36.5t-109.5 115t-40.5 204.5v20q0 91 24 156.5t65.5 107.5t97 62t118.5 20q58 0 108 -14.5t88 -43.5t61 -72t28 -101h-126q-13 65 -55.5 95t-103.5 30q-44 0 -85 -22.5t-67.5 -74.5t-26.5 -143v-20q0 -72 16 -120.5t42.5 -76.5t58 -40.5t62.5 -12.5
q72 0 111.5 33.5t47.5 91.5h126q-6 -62 -29.5 -106t-62 -71.5t-87.5 -40.5t-106 -13zM295 750l110 150h140l-150 -150h-100z" />
    <glyph glyph-name="cacute" unicode="&#x107;" horiz-adv-x="555" vert-adv-y="1200" 
d="M290 -11q-71 0 -128 30t-89.5 90t-32.5 151v20q0 86 34.5 144t91.5 87.5t124 29.5q70 0 118.5 -24t76 -65t35.5 -92h-112q-10 37 -36 61t-82 24q-37 0 -68.5 -17t-50.5 -53.5t-19 -94.5v-20q0 -63 19 -101.5t50.5 -56t68.5 -17.5q47 0 76 21t42 64h112
q-10 -56 -41.5 -96.5t-79.5 -62.5t-109 -22zM233 580l110 160h130l-150 -160h-90z" />
    <glyph glyph-name="Cdotaccent" unicode="&#x10a;" horiz-adv-x="690" vert-adv-y="1200" 
d="M360 -11q-86 0 -155 36.5t-109.5 115t-40.5 204.5v20q0 91 24 156.5t65.5 107.5t97 62t118.5 20q58 0 108 -14.5t88 -43.5t61 -72t28 -101h-126q-13 65 -55.5 95t-103.5 30q-44 0 -85 -22.5t-67.5 -74.5t-26.5 -143v-20q0 -72 16 -120.5t42.5 -76.5t58 -40.5t62.5 -12.5
q72 0 111.5 33.5t47.5 91.5h126q-6 -62 -29.5 -106t-62 -71.5t-87.5 -40.5t-106 -13zM345 751q-33 0 -53.5 20.5t-20.5 53.5t20.5 53.5t53.5 20.5t53.5 -20.5t20.5 -53.5t-20.5 -53.5t-53.5 -20.5z" />
    <glyph glyph-name="cdotaccent" unicode="&#x10b;" horiz-adv-x="555" vert-adv-y="1200" 
d="M290 -11q-71 0 -128 30t-89.5 90t-32.5 151v20q0 86 34.5 144t91.5 87.5t124 29.5q70 0 118.5 -24t76 -65t35.5 -92h-112q-10 37 -36 61t-82 24q-37 0 -68.5 -17t-50.5 -53.5t-19 -94.5v-20q0 -63 19 -101.5t50.5 -56t68.5 -17.5q47 0 76 21t42 64h112
q-10 -56 -41.5 -96.5t-79.5 -62.5t-109 -22zM278 590q-31 0 -50.5 19.5t-19.5 50.5t19.5 50.5t50.5 19.5t50.5 -19.5t19.5 -50.5t-19.5 -50.5t-50.5 -19.5z" />
    <glyph glyph-name="Ccaron" unicode="&#x10c;" horiz-adv-x="690" vert-adv-y="1200" 
d="M360 -11q-86 0 -155 36.5t-109.5 115t-40.5 204.5v20q0 91 24 156.5t65.5 107.5t97 62t118.5 20q58 0 108 -14.5t88 -43.5t61 -72t28 -101h-126q-13 65 -55.5 95t-103.5 30q-44 0 -85 -22.5t-67.5 -74.5t-26.5 -143v-20q0 -72 16 -120.5t42.5 -76.5t58 -40.5t62.5 -12.5
q72 0 111.5 33.5t47.5 91.5h126q-6 -62 -29.5 -106t-62 -71.5t-87.5 -40.5t-106 -13zM285 750l-110 150h100l70 -70l70 70h100l-110 -150h-120z" />
    <glyph glyph-name="ccaron" unicode="&#x10d;" horiz-adv-x="555" vert-adv-y="1200" 
d="M290 -11q-71 0 -128 30t-89.5 90t-32.5 151v20q0 86 34.5 144t91.5 87.5t124 29.5q70 0 118.5 -24t76 -65t35.5 -92h-112q-10 37 -36 61t-82 24q-37 0 -68.5 -17t-50.5 -53.5t-19 -94.5v-20q0 -63 19 -101.5t50.5 -56t68.5 -17.5q47 0 76 21t42 64h112
q-10 -56 -41.5 -96.5t-79.5 -62.5t-109 -22zM223 580l-110 160h90l75 -80l75 80h90l-110 -160h-110z" />
    <glyph glyph-name="Dcaron" unicode="&#x10e;" horiz-adv-x="705" vert-adv-y="1200" 
d="M90 0v700h225q106 0 181 -37.5t114.5 -112t39.5 -185.5v-20q0 -112 -41 -189t-118.5 -116.5t-185.5 -39.5h-215zM210 104h85q69 0 120.5 23.5t80 76.5t28.5 141v20q0 82 -29 133t-78.5 74.5t-111.5 23.5h-95v-492zM293 750l-110 150h100l70 -70l70 70h100l-110 -150h-120
z" />
    <glyph glyph-name="dcaron" unicode="&#x10f;" horiz-adv-x="615" vert-adv-y="1200" 
d="M264 -11q-67 0 -117.5 30t-78.5 90.5t-28 150.5v20q0 85 28 143t78.5 88t116.5 30q60 0 103.5 -27t68.5 -69v255h110v-700h-102v89q-18 -40 -66.5 -70t-112.5 -30zM289 85q39 0 72 16.5t53.5 50t20.5 83.5v71q0 46 -20.5 76.5t-54 46.5t-71.5 16q-63 0 -100 -40.5
t-37 -124.5v-20q0 -88 38 -131.5t99 -43.5zM630 492l11 123v85h103v-85l-67 -123h-47z" />
    <glyph glyph-name="Dcroat" unicode="&#x110;" horiz-adv-x="725" vert-adv-y="1200" 
d="M110 0v308h-80v94h80v298h225q106 0 181 -37.5t114.5 -112t39.5 -185.5v-20q0 -112 -41 -189t-118.5 -116.5t-185.5 -39.5h-215zM230 104h85q69 0 120.5 23.5t80 76.5t28.5 141v20q0 82 -29 133t-78.5 74.5t-111.5 23.5h-95v-194h160v-94h-160v-204z" />
    <glyph glyph-name="dcroat" unicode="&#x111;" horiz-adv-x="615" vert-adv-y="1200" 
d="M293 638h346v-66h-346v66zM264 -11q-67 0 -117.5 30t-78.5 90.5t-28 150.5v20q0 85 28 143t78.5 88t116.5 30q60 0 103.5 -27t68.5 -69v255h110v-700h-102v89q-18 -40 -66.5 -70t-112.5 -30zM289 85q39 0 72 16.5t53.5 50t20.5 83.5v71q0 46 -20.5 76.5t-54 46.5
t-71.5 16q-63 0 -100 -40.5t-37 -124.5v-20q0 -88 38 -131.5t99 -43.5z" />
    <glyph glyph-name="Emacron" unicode="&#x112;" horiz-adv-x="615" vert-adv-y="1200" 
d="M90 0v700h470v-104h-350v-184h320v-104h-320v-204h350v-104h-470zM175 778v94h300v-94h-300z" />
    <glyph glyph-name="emacron" unicode="&#x113;" horiz-adv-x="580" vert-adv-y="1200" 
d="M300 -11q-70 0 -129 29.5t-95 89.5t-36 152v20q0 88 34.5 146t91.5 86.5t124 28.5q121 0 185.5 -65t64.5 -186v-56h-388q2 -54 23 -87t54 -47.5t71 -14.5q57 0 83.5 18t36.5 47h110q-16 -79 -78.5 -120t-151.5 -41zM295 445q-37 0 -69 -13t-52 -41t-22 -75h278
q-1 50 -19 78t-48 39.5t-68 11.5zM150 618v84h280v-84h-280z" />
    <glyph glyph-name="Edotaccent" unicode="&#x116;" horiz-adv-x="615" vert-adv-y="1200" 
d="M90 0v700h470v-104h-350v-184h320v-104h-320v-204h350v-104h-470zM325 751q-33 0 -53.5 20.5t-20.5 53.5t20.5 53.5t53.5 20.5t53.5 -20.5t20.5 -53.5t-20.5 -53.5t-53.5 -20.5z" />
    <glyph glyph-name="edotaccent" unicode="&#x117;" horiz-adv-x="580" vert-adv-y="1200" 
d="M300 -11q-70 0 -129 29.5t-95 89.5t-36 152v20q0 88 34.5 146t91.5 86.5t124 28.5q121 0 185.5 -65t64.5 -186v-56h-388q2 -54 23 -87t54 -47.5t71 -14.5q57 0 83.5 18t36.5 47h110q-16 -79 -78.5 -120t-151.5 -41zM295 445q-37 0 -69 -13t-52 -41t-22 -75h278
q-1 50 -19 78t-48 39.5t-68 11.5zM290 590q-31 0 -50.5 19.5t-19.5 50.5t19.5 50.5t50.5 19.5t50.5 -19.5t19.5 -50.5t-19.5 -50.5t-50.5 -19.5z" />
    <glyph glyph-name="Eogonek" unicode="&#x118;" horiz-adv-x="615" vert-adv-y="1200" 
d="M90 0v700h470v-104h-350v-184h320v-104h-320v-204h350v-104h-470zM502 -211q-55 0 -81 25t-26 64q0 24 9.5 44t25 35.5t34 26.5t35.5 16h61q-8 -2 -26.5 -17t-34.5 -37t-16 -46q0 -19 10.5 -30t38.5 -11q7 0 12.5 1t15.5 2v-68q-18 -4 -31 -4.5t-27 -0.5z" />
    <glyph glyph-name="eogonek" unicode="&#x119;" horiz-adv-x="580" vert-adv-y="1200" 
d="M300 -11q-70 0 -129 29.5t-95 89.5t-36 152v20q0 88 34.5 146t91.5 86.5t124 28.5q121 0 185.5 -65t64.5 -186v-56h-388q2 -54 23 -87t54 -47.5t71 -14.5q57 0 83.5 18t36.5 47h110q-16 -79 -78.5 -120t-151.5 -41zM295 445q-37 0 -69 -13t-52 -41t-22 -75h278
q-1 50 -19 78t-48 39.5t-68 11.5zM328 -211q-55 0 -81 25t-26 64q0 24 9.5 44t25 35.5t34 26.5t35.5 16h61q-8 -2 -26.5 -17t-34.5 -37t-16 -46q0 -19 10.5 -30t38.5 -11q7 0 12.5 1t15.5 2v-68q-18 -4 -31 -4.5t-27 -0.5z" />
    <glyph glyph-name="Ecaron" unicode="&#x11a;" horiz-adv-x="615" vert-adv-y="1200" 
d="M90 0v700h470v-104h-350v-184h320v-104h-320v-204h350v-104h-470zM265 750l-110 150h100l70 -70l70 70h100l-110 -150h-120z" />
    <glyph glyph-name="ecaron" unicode="&#x11b;" horiz-adv-x="580" vert-adv-y="1200" 
d="M300 -11q-70 0 -129 29.5t-95 89.5t-36 152v20q0 88 34.5 146t91.5 86.5t124 28.5q121 0 185.5 -65t64.5 -186v-56h-388q2 -54 23 -87t54 -47.5t71 -14.5q57 0 83.5 18t36.5 47h110q-16 -79 -78.5 -120t-151.5 -41zM295 445q-37 0 -69 -13t-52 -41t-22 -75h278
q-1 50 -19 78t-48 39.5t-68 11.5zM235 580l-110 160h90l75 -80l75 80h90l-110 -160h-110z" />
    <glyph glyph-name="Gbreve" unicode="&#x11e;" horiz-adv-x="715" vert-adv-y="1200" 
d="M370 -11q-96 0 -167 40t-109.5 119.5t-38.5 196.5v20q0 83 22.5 147t64 108.5t99.5 67.5t129 23q54 0 100.5 -14.5t82.5 -42t60.5 -69t36.5 -95.5h-130q-14 44 -38 69t-53 35.5t-59 10.5q-56 0 -99 -26t-66.5 -79t-23.5 -135v-20q0 -64 14 -111t39.5 -78t60 -46t75.5 -15
q52 0 90 18t61 56t28 96h-159v100h275v-40q0 -84 -20.5 -147t-58.5 -105t-92.5 -63t-123.5 -21z" />
    <glyph glyph-name="gbreve" unicode="&#x11f;" horiz-adv-x="615" vert-adv-y="1200" 
d="M290 -211q-82 0 -130.5 20t-71 55.5t-28.5 80.5h112q8 -24 32.5 -44t85.5 -20q75 0 110 36t35 103v75q-25 -42 -68 -69t-103 -27q-67 0 -117.5 30t-78.5 89t-28 147v20q0 82 28 139t78.5 87t116.5 30t113.5 -30t66.5 -70v89h102v-505q0 -112 -64 -174t-191 -62zM289 95
q39 0 72 16.5t53.5 49t20.5 80.5v70q0 43 -20.5 72.5t-54 45.5t-71.5 16q-63 0 -100 -39.5t-37 -120.5v-20q0 -85 38 -127.5t99 -42.5z" />
    <glyph glyph-name="Gdotaccent" unicode="&#x120;" horiz-adv-x="715" vert-adv-y="1200" 
d="M370 -11q-96 0 -167 40t-109.5 119.5t-38.5 196.5v20q0 83 22.5 147t64 108.5t99.5 67.5t129 23q54 0 100.5 -14.5t82.5 -42t60.5 -69t36.5 -95.5h-130q-14 44 -38 69t-53 35.5t-59 10.5q-56 0 -99 -26t-66.5 -79t-23.5 -135v-20q0 -64 14 -111t39.5 -78t60 -46t75.5 -15
q52 0 90 18t61 56t28 96h-159v100h275v-40q0 -84 -20.5 -147t-58.5 -105t-92.5 -63t-123.5 -21zM358 751q-33 0 -53.5 20.5t-20.5 53.5t20.5 53.5t53.5 20.5t53.5 -20.5t20.5 -53.5t-20.5 -53.5t-53.5 -20.5z" />
    <glyph glyph-name="gdotaccent" unicode="&#x121;" horiz-adv-x="615" vert-adv-y="1200" 
d="M290 -211q-82 0 -130.5 20t-71 55.5t-28.5 80.5h112q8 -24 32.5 -44t85.5 -20q75 0 110 36t35 103v75q-25 -42 -68 -69t-103 -27q-67 0 -117.5 30t-78.5 89t-28 147v20q0 82 28 139t78.5 87t116.5 30t113.5 -30t66.5 -70v89h102v-505q0 -112 -64 -174t-191 -62zM289 95
q39 0 72 16.5t53.5 49t20.5 80.5v70q0 43 -20.5 72.5t-54 45.5t-71.5 16q-63 0 -100 -39.5t-37 -120.5v-20q0 -85 38 -127.5t99 -42.5zM308 590q-31 0 -50.5 19.5t-19.5 50.5t19.5 50.5t50.5 19.5t50.5 -19.5t19.5 -50.5t-19.5 -50.5t-50.5 -19.5z" />
    <glyph glyph-name="uni0122" unicode="&#x122;" horiz-adv-x="715" vert-adv-y="1200" 
d="M370 -11q-96 0 -167 40t-109.5 119.5t-38.5 196.5v20q0 83 22.5 147t64 108.5t99.5 67.5t129 23q54 0 100.5 -14.5t82.5 -42t60.5 -69t36.5 -95.5h-130q-14 44 -38 69t-53 35.5t-59 10.5q-56 0 -99 -26t-66.5 -79t-23.5 -135v-20q0 -64 14 -111t39.5 -78t60 -46t75.5 -15
q52 0 90 18t61 56t28 96h-159v100h275v-40q0 -84 -20.5 -147t-58.5 -105t-92.5 -63t-123.5 -21zM308 -226v181h100v-91l-51 -90h-49z" />
    <glyph glyph-name="uni0123" unicode="&#x123;" horiz-adv-x="615" vert-adv-y="1200" 
d="M290 -211q-82 0 -130.5 20t-71 55.5t-28.5 80.5h112q8 -24 32.5 -44t85.5 -20q75 0 110 36t35 103v75q-25 -42 -68 -69t-103 -27q-67 0 -117.5 30t-78.5 89t-28 147v20q0 82 28 139t78.5 87t116.5 30t113.5 -30t66.5 -70v89h102v-505q0 -112 -64 -174t-191 -62zM289 95
q39 0 72 16.5t53.5 49t20.5 80.5v70q0 43 -20.5 72.5t-54 45.5t-71.5 16q-63 0 -100 -39.5t-37 -120.5v-20q0 -85 38 -127.5t99 -42.5zM358 794v-181h-100v91l51 90h49z" />
    <glyph glyph-name="Hbar" unicode="&#x126;" horiz-adv-x="760" vert-adv-y="1200" 
d="M24 606h712v-94h-712v94zM90 0v700h120v-288h340v288h120v-700h-120v308h-340v-308h-120z" />
    <glyph glyph-name="hbar" unicode="&#x127;" horiz-adv-x="605" vert-adv-y="1200" 
d="M-13 638h346v-66h-346v66zM70 0v700h110v-254q12 25 33.5 46.5t54 35t77.5 13.5q97 0 146 -52.5t49 -153.5v-335h-110v310q0 67 -28 101t-92 34q-46 0 -74.5 -19.5t-42 -50t-13.5 -65.5v-310h-110z" />
    <glyph glyph-name="Imacron" unicode="&#x12a;" horiz-adv-x="320" vert-adv-y="1200" 
d="M100 0v700h120v-700h-120zM10 778v94h300v-94h-300z" />
    <glyph glyph-name="imacron" unicode="&#x12b;" horiz-adv-x="270" vert-adv-y="1200" 
d="M80 0v530h110v-530h-110zM-5 618v84h280v-84h-280z" />
    <glyph glyph-name="Iogonek" unicode="&#x12e;" horiz-adv-x="320" vert-adv-y="1200" 
d="M100 0v700h120v-700h-120zM162 -211q-55 0 -81 25t-26 64q0 24 9.5 44t25 35.5t34 26.5t35.5 16h61q-8 -2 -26.5 -17t-34.5 -37t-16 -46q0 -19 10.5 -30t38.5 -11q7 0 12.5 1t15.5 2v-68q-18 -4 -31 -4.5t-27 -0.5z" />
    <glyph glyph-name="iogonek" unicode="&#x12f;" horiz-adv-x="270" vert-adv-y="1200" 
d="M80 0v530h110v-530h-110zM135 590q-31 0 -50.5 19.5t-19.5 50.5t19.5 50.5t50.5 19.5t50.5 -19.5t19.5 -50.5t-19.5 -50.5t-50.5 -19.5zM132 -211q-55 0 -81 25t-26 64q0 24 9.5 44t25 35.5t34 26.5t35.5 16h61q-8 -2 -26.5 -17t-34.5 -37t-16 -46q0 -19 10.5 -30
t38.5 -11q7 0 12.5 1t15.5 2v-68q-18 -4 -31 -4.5t-27 -0.5z" />
    <glyph glyph-name="Idotaccent" unicode="&#x130;" horiz-adv-x="320" vert-adv-y="1200" 
d="M100 0v700h120v-700h-120zM160 751q-33 0 -53.5 20.5t-20.5 53.5t20.5 53.5t53.5 20.5t53.5 -20.5t20.5 -53.5t-20.5 -53.5t-53.5 -20.5z" />
    <glyph glyph-name="dotlessi" unicode="&#x131;" horiz-adv-x="270" vert-adv-y="1200" 
d="M80 0v530h110v-530h-110z" />
    <glyph glyph-name="IJ" unicode="&#x132;" horiz-adv-x="880" vert-adv-y="1200" 
d="M100 0v700h120v-700h-120zM560 -11q-72 0 -120 25t-72.5 72.5t-27.5 113.5h116q4 -52 29 -78.5t75 -26.5q36 0 60.5 14t37 48t12.5 93v450h120v-450q0 -94 -26.5 -151.5t-77.5 -83.5t-126 -26z" />
    <glyph glyph-name="ij" unicode="&#x133;" horiz-adv-x="540" vert-adv-y="1200" 
d="M80 0v530h110v-530h-110zM135 590q-31 0 -50.5 19.5t-19.5 50.5t19.5 50.5t50.5 19.5t50.5 -19.5t19.5 -50.5t-19.5 -50.5t-50.5 -19.5zM290 -211q-11 0 -25 0.5t-25 2.5v96q8 -2 17.5 -2.5t17.5 -0.5q26 0 42.5 10t24.5 36.5t8 73.5v525h110v-530q0 -83 -16 -129
t-53 -64t-101 -18zM405 590q-31 0 -50.5 19.5t-19.5 50.5t19.5 50.5t50.5 19.5t50.5 -19.5t19.5 -50.5t-19.5 -50.5t-50.5 -19.5z" />
    <glyph glyph-name="uni0136" unicode="&#x136;" horiz-adv-x="695" vert-adv-y="1200" 
d="M90 0v700h120v-334l296 334h144l-262 -286l282 -414h-146l-216 331l-98 -106v-225h-120zM298 -226v181h100v-91l-51 -90h-49z" />
    <glyph glyph-name="uni0137" unicode="&#x137;" horiz-adv-x="570" vert-adv-y="1200" 
d="M70 0v700h110v-401l220 231h130l-214 -225l234 -305h-132l-175 235l-63 -64v-171h-110zM235 -226v181h100v-91l-51 -90h-49z" />
    <glyph glyph-name="Lacute" unicode="&#x139;" horiz-adv-x="570" vert-adv-y="1200" 
d="M90 0v700h120v-596h340v-104h-460zM100 750l110 150h140l-150 -150h-100z" />
    <glyph glyph-name="lacute" unicode="&#x13a;" horiz-adv-x="325" vert-adv-y="1200" 
d="M240 -5q-57 0 -93.5 16.5t-54 55t-17.5 102.5v531h110v-523q0 -49 16 -67.5t59 -18.5q11 0 19 0.5t16 1.5v-95q-5 -1 -15.5 -2t-21 -1h-18.5zM80 750l110 150h140l-150 -150h-100z" />
    <glyph glyph-name="uni013B" unicode="&#x13b;" horiz-adv-x="570" vert-adv-y="1200" 
d="M90 0v700h120v-596h340v-104h-460zM235 -226v181h100v-91l-51 -90h-49z" />
    <glyph glyph-name="uni013C" unicode="&#x13c;" horiz-adv-x="325" vert-adv-y="1200" 
d="M240 -5q-57 0 -93.5 16.5t-54 55t-17.5 102.5v531h110v-523q0 -49 16 -67.5t59 -18.5q11 0 19 0.5t16 1.5v-95q-5 -1 -15.5 -2t-21 -1h-18.5zM113 -226v181h100v-91l-51 -90h-49z" />
    <glyph glyph-name="Lcaron" unicode="&#x13d;" horiz-adv-x="570" vert-adv-y="1200" 
d="M90 0v700h120v-596h340v-104h-460zM449 492l11 123v85h103v-85l-67 -123h-47z" />
    <glyph glyph-name="lcaron" unicode="&#x13e;" horiz-adv-x="325" vert-adv-y="1200" 
d="M240 -5q-57 0 -93.5 16.5t-54 55t-17.5 102.5v531h110v-523q0 -49 16 -67.5t59 -18.5q11 0 19 0.5t16 1.5v-95q-5 -1 -15.5 -2t-21 -1h-18.5zM270 492l11 123v85h103v-85l-67 -123h-47z" />
    <glyph glyph-name="Lslash" unicode="&#x141;" horiz-adv-x="600" vert-adv-y="0" 
d="M120 0v249l-100 -58v104l100 58v347h120v-278l170 98v-104l-170 -98v-214h340v-104h-460z" />
    <glyph glyph-name="lslash" unicode="&#x142;" horiz-adv-x="355" vert-adv-y="0" 
d="M265 -5q-43 0 -74.5 9t-51.5 29.5t-29.5 54t-9.5 81.5v151l-80 -46v94l80 46v286h110v-223l110 64v-94l-110 -64v-206q0 -49 16 -67.5t59 -18.5q11 0 19 0.5t16 1.5v-95q-5 -1 -15.5 -2t-21 -1h-18.5z" />
    <glyph glyph-name="Nacute" unicode="&#x143;" horiz-adv-x="760" vert-adv-y="1200" 
d="M90 0v700h116l344 -500v500h120v-700h-116l-344 500v-500h-120zM330 750l110 150h140l-150 -150h-100z" />
    <glyph glyph-name="nacute" unicode="&#x144;" horiz-adv-x="605" vert-adv-y="1200" 
d="M70 0v530h102v-89q19 40 62 70t111 30q97 0 146 -52.5t49 -153.5v-335h-110v310q0 67 -28 101t-92 34q-46 0 -74.5 -19.5t-42 -50t-13.5 -65.5v-310h-110zM258 580l110 160h130l-150 -160h-90z" />
    <glyph glyph-name="uni0145" unicode="&#x145;" horiz-adv-x="760" vert-adv-y="1200" 
d="M90 0v700h116l344 -500v500h120v-700h-116l-344 500v-500h-120zM330 -226v181h100v-91l-51 -90h-49z" />
    <glyph glyph-name="uni0146" unicode="&#x146;" horiz-adv-x="605" vert-adv-y="1200" 
d="M70 0v530h102v-89q19 40 62 70t111 30q97 0 146 -52.5t49 -153.5v-335h-110v310q0 67 -28 101t-92 34q-46 0 -74.5 -19.5t-42 -50t-13.5 -65.5v-310h-110zM253 -226v181h100v-91l-51 -90h-49z" />
    <glyph glyph-name="Ncaron" unicode="&#x147;" horiz-adv-x="760" vert-adv-y="1200" 
d="M90 0v700h116l344 -500v500h120v-700h-116l-344 500v-500h-120zM320 750l-110 150h100l70 -70l70 70h100l-110 -150h-120z" />
    <glyph glyph-name="ncaron" unicode="&#x148;" horiz-adv-x="605" vert-adv-y="1200" 
d="M70 0v530h102v-89q19 40 62 70t111 30q97 0 146 -52.5t49 -153.5v-335h-110v310q0 67 -28 101t-92 34q-46 0 -74.5 -19.5t-42 -50t-13.5 -65.5v-310h-110zM248 580l-110 160h90l75 -80l75 80h90l-110 -160h-110z" />
    <glyph glyph-name="Eng" unicode="&#x14a;" horiz-adv-x="760" vert-adv-y="1200" 
d="M500 -211q-11 0 -25 0.5t-25 2.5v96q8 -2 17.5 -2.5t17.5 -0.5q26 0 41 10t21.5 36.5t6.5 73.5v525h116v-530q0 -83 -16 -129t-53 -64t-101 -18zM90 0v700h116l344 -500v500h120v-700h-116l-344 500v-500h-120z" />
    <glyph glyph-name="eng" unicode="&#x14b;" horiz-adv-x="605" vert-adv-y="1200" 
d="M370 -211q-11 0 -25 0.5t-25 2.5v96q8 -2 17.5 -2.5t17.5 -0.5q26 0 42.5 10t24.5 36.5t8 73.5v125h110v-130q0 -83 -16 -129t-53 -64t-101 -18zM70 0v530h102v-89q19 40 62 70t111 30q97 0 146 -52.5t49 -153.5v-335h-110v310q0 67 -28 101t-92 34q-46 0 -74.5 -19.5
t-42 -50t-13.5 -65.5v-310h-110z" />
    <glyph glyph-name="Omacron" unicode="&#x14c;" horiz-adv-x="750" vert-adv-y="1200" 
d="M375 -11q-64 0 -121.5 20t-102.5 62.5t-70.5 110t-25.5 163.5v20q0 92 25.5 157.5t70.5 107.5t102.5 61.5t121.5 19.5t121.5 -19.5t102.5 -61.5t70.5 -107.5t25.5 -157.5v-20q0 -96 -25.5 -163.5t-70.5 -110t-102.5 -62.5t-121.5 -20zM375 95q50 0 94 24t72 78.5
t28 147.5v20q0 88 -28 140.5t-72 76t-94 23.5t-94.5 -23.5t-72 -76t-27.5 -140.5v-20q0 -93 27.5 -147.5t72 -78.5t94.5 -24zM225 778v94h300v-94h-300z" />
    <glyph glyph-name="omacron" unicode="&#x14d;" horiz-adv-x="600" vert-adv-y="1200" 
d="M300 -11q-73 0 -132 30.5t-93.5 91t-34.5 149.5v20q0 84 34.5 142.5t93.5 88.5t132 30q74 0 132.5 -30t93 -88.5t34.5 -142.5v-20q0 -89 -34.5 -149.5t-93 -91t-132.5 -30.5zM300 85q38 0 72 18t55 56.5t21 100.5v20q0 57 -21 93.5t-55 54t-72 17.5t-72 -17.5t-55 -54
t-21 -93.5v-20q0 -62 21 -100.5t55 -56.5t72 -18zM160 618v84h280v-84h-280z" />
    <glyph glyph-name="Ohungarumlaut" unicode="&#x150;" horiz-adv-x="750" vert-adv-y="1200" 
d="M375 -11q-64 0 -121.5 20t-102.5 62.5t-70.5 110t-25.5 163.5v20q0 92 25.5 157.5t70.5 107.5t102.5 61.5t121.5 19.5t121.5 -19.5t102.5 -61.5t70.5 -107.5t25.5 -157.5v-20q0 -96 -25.5 -163.5t-70.5 -110t-102.5 -62.5t-121.5 -20zM375 95q50 0 94 24t72 78.5
t28 147.5v20q0 88 -28 140.5t-72 76t-94 23.5t-94.5 -23.5t-72 -76t-27.5 -140.5v-20q0 -93 27.5 -147.5t72 -78.5t94.5 -24zM251 750l112 150h114l-134 -150h-92zM408 750l137 150h116l-161 -150h-92z" />
    <glyph glyph-name="ohungarumlaut" unicode="&#x151;" horiz-adv-x="600" vert-adv-y="1200" 
d="M300 -11q-73 0 -132 30.5t-93.5 91t-34.5 149.5v20q0 84 34.5 142.5t93.5 88.5t132 30q74 0 132.5 -30t93 -88.5t34.5 -142.5v-20q0 -89 -34.5 -149.5t-93 -91t-132.5 -30.5zM300 85q38 0 72 18t55 56.5t21 100.5v20q0 57 -21 93.5t-55 54t-72 17.5t-72 -17.5t-55 -54
t-21 -93.5v-20q0 -62 21 -100.5t55 -56.5t72 -18zM231 580h-83l96 160h124zM428 580h-87l127 160h127z" />
    <glyph glyph-name="OE" unicode="&#x152;" horiz-adv-x="1100" vert-adv-y="0" 
d="M375 -11q-64 0 -121.5 20t-102.5 62.5t-70.5 110t-25.5 163.5v20q0 92 25.5 157.5t70.5 107.5t102.5 61.5t121.5 19.5q57 0 108.5 -17t91.5 -59v65h470v-104h-350v-184h320v-104h-320v-204h350v-104h-470v65q-40 -42 -91.5 -59t-108.5 -17zM375 95q50 0 94.5 24t72.5 79
t28 147v20q0 87 -28 140t-72.5 76.5t-94.5 23.5t-94.5 -23.5t-72 -76t-27.5 -140.5v-20q0 -93 27.5 -147.5t72 -78.5t94.5 -24z" />
    <glyph glyph-name="oe" unicode="&#x153;" horiz-adv-x="990" vert-adv-y="0" 
d="M300 -11q-73 0 -132 30.5t-93.5 91t-34.5 149.5v20q0 84 34.5 142.5t93.5 88.5t132 30q66 0 118.5 -24.5t85.5 -71.5q32 48 83 72t113 24q121 0 185.5 -65t64.5 -186v-56h-388q2 -54 23 -87t54 -47.5t71 -14.5q57 0 83.5 18t36.5 47h110q-16 -79 -78.5 -120t-151.5 -41
q-65 0 -118 24t-87 75q-33 -50 -86 -74.5t-119 -24.5zM300 85q38 0 72 18t55 56.5t21 100.5v20q0 57 -21 93.5t-55 54t-72 17.5t-72 -17.5t-55 -54t-21 -93.5v-20q0 -62 21 -100.5t55 -56.5t72 -18zM705 445q-37 0 -69 -13t-52 -41t-22 -75h278q-1 50 -19 78t-48 39.5
t-68 11.5z" />
    <glyph glyph-name="Racute" unicode="&#x154;" horiz-adv-x="685" vert-adv-y="1200" 
d="M90 0v700h265q88 0 146.5 -28t88.5 -77t30 -113q0 -72 -39 -124.5t-117 -75.5l176 -282h-132l-155 268h-143v-268h-120zM210 368h125q92 0 128.5 30t36.5 84t-36.5 84t-128.5 30h-125v-228zM293 750l110 150h140l-150 -150h-100z" />
    <glyph glyph-name="racute" unicode="&#x155;" horiz-adv-x="390" vert-adv-y="1200" 
d="M70 0v530h102v-90q11 28 30.5 50.5t48 36.5t64.5 14q25 0 37.5 -2t17.5 -4v-100q-17 5 -31 7.5t-34 2.5q-43 0 -71 -19.5t-41 -50t-13 -65.5v-310h-110zM150 580l110 160h130l-150 -160h-90z" />
    <glyph glyph-name="uni0156" unicode="&#x156;" horiz-adv-x="685" vert-adv-y="1200" 
d="M90 0v700h265q88 0 146.5 -28t88.5 -77t30 -113q0 -72 -39 -124.5t-117 -75.5l176 -282h-132l-155 268h-143v-268h-120zM210 368h125q92 0 128.5 30t36.5 84t-36.5 84t-128.5 30h-125v-228zM293 -226v181h100v-91l-51 -90h-49z" />
    <glyph glyph-name="uni0157" unicode="&#x157;" horiz-adv-x="390" vert-adv-y="1200" 
d="M70 0v530h102v-90q11 28 30.5 50.5t48 36.5t64.5 14q25 0 37.5 -2t17.5 -4v-100q-17 5 -31 7.5t-34 2.5q-43 0 -71 -19.5t-41 -50t-13 -65.5v-310h-110zM75 -226v181h100v-91l-51 -90h-49z" />
    <glyph glyph-name="Rcaron" unicode="&#x158;" horiz-adv-x="685" vert-adv-y="1200" 
d="M90 0v700h265q88 0 146.5 -28t88.5 -77t30 -113q0 -72 -39 -124.5t-117 -75.5l176 -282h-132l-155 268h-143v-268h-120zM210 368h125q92 0 128.5 30t36.5 84t-36.5 84t-128.5 30h-125v-228zM283 750l-110 150h100l70 -70l70 70h100l-110 -150h-120z" />
    <glyph glyph-name="rcaron" unicode="&#x159;" horiz-adv-x="390" vert-adv-y="1200" 
d="M70 0v530h102v-90q11 28 30.5 50.5t48 36.5t64.5 14q25 0 37.5 -2t17.5 -4v-100q-17 5 -31 7.5t-34 2.5q-43 0 -71 -19.5t-41 -50t-13 -65.5v-310h-110zM140 580l-110 160h90l75 -80l75 80h90l-110 -160h-110z" />
    <glyph glyph-name="Sacute" unicode="&#x15a;" horiz-adv-x="650" vert-adv-y="1200" 
d="M325 -11q-90 0 -149 26t-89.5 71.5t-36.5 103.5h120q8 -41 41 -68t114 -27q84 0 119.5 27.5t35.5 67.5q0 33 -20 54t-61.5 36.5t-105.5 28.5q-72 16 -122 40.5t-75.5 65.5t-25.5 105q0 53 29 96t85.5 69t140.5 26q82 0 136.5 -24.5t84 -67.5t34.5 -99h-120
q-8 38 -40.5 61.5t-94.5 23.5q-72 0 -103.5 -25t-31.5 -60q0 -48 40 -72t123 -41q62 -13 108 -30.5t77 -42t46.5 -60t15.5 -84.5q0 -58 -30.5 -103.5t-91.5 -71.5t-153 -26zM275 750l110 150h140l-150 -150h-100z" />
    <glyph glyph-name="sacute" unicode="&#x15b;" horiz-adv-x="540" vert-adv-y="1200" 
d="M270 -11q-58 0 -100 13t-69.5 35.5t-42 51.5t-18.5 61h110q7 -28 34 -46.5t86 -18.5q66 0 93 18t27 47q0 17 -12.5 32t-42 26.5t-81.5 17.5q-45 6 -82 17.5t-63 30.5t-40 46.5t-14 64.5q0 43 23.5 78t71.5 56.5t120 21.5q70 0 114.5 -22.5t67.5 -59t28 -79.5h-110
q-8 31 -32.5 48t-67.5 17q-59 0 -82 -18t-23 -42q0 -26 25.5 -44.5t101.5 -26.5q47 -6 85 -18t65.5 -31.5t42.5 -47.5t15 -67q0 -45 -25.5 -81.5t-76.5 -58t-128 -21.5zM225 580l110 160h130l-150 -160h-90z" />
    <glyph glyph-name="Scedilla" unicode="&#x15e;" horiz-adv-x="650" vert-adv-y="1200" 
d="M325 -11q-90 0 -149 26t-89.5 71.5t-36.5 103.5h120q8 -41 41 -68t114 -27q84 0 119.5 27.5t35.5 67.5q0 33 -20 54t-61.5 36.5t-105.5 28.5q-72 16 -122 40.5t-75.5 65.5t-25.5 105q0 53 29 96t85.5 69t140.5 26q82 0 136.5 -24.5t84 -67.5t34.5 -99h-120
q-8 38 -40.5 61.5t-94.5 23.5q-72 0 -103.5 -25t-31.5 -60q0 -48 40 -72t123 -41q62 -13 108 -30.5t77 -42t46.5 -60t15.5 -84.5q0 -58 -30.5 -103.5t-91.5 -71.5t-153 -26zM310 -211q-16 0 -28 1t-20 2q-5 1 -9 2l-8 2v68l14 -2q7 -1 16 -1.5t20 -0.5q28 0 37 9t9 20
q0 13 -9.5 21t-42.5 8l17 92h72l-7 -47q38 -9 51 -32t13 -46q0 -44 -29.5 -70t-95.5 -26z" />
    <glyph glyph-name="scedilla" unicode="&#x15f;" horiz-adv-x="540" vert-adv-y="1200" 
d="M270 -11q-58 0 -100 13t-69.5 35.5t-42 51.5t-18.5 61h110q7 -28 34 -46.5t86 -18.5q66 0 93 18t27 47q0 17 -12.5 32t-42 26.5t-81.5 17.5q-45 6 -82 17.5t-63 30.5t-40 46.5t-14 64.5q0 43 23.5 78t71.5 56.5t120 21.5q70 0 114.5 -22.5t67.5 -59t28 -79.5h-110
q-8 31 -32.5 48t-67.5 17q-59 0 -82 -18t-23 -42q0 -26 25.5 -44.5t101.5 -26.5q47 -6 85 -18t65.5 -31.5t42.5 -47.5t15 -67q0 -45 -25.5 -81.5t-76.5 -58t-128 -21.5zM252 -211q-16 0 -28 1t-20 2q-5 1 -9 2l-8 2v66l14 -2q7 -1 16 -1.5t20 -0.5q28 0 38 10t10 21
q0 13 -10 22t-42 9l17 90h68l-7 -47q40 -9 53 -32t13 -46q0 -44 -29.5 -70t-95.5 -26z" />
    <glyph glyph-name="Scaron" unicode="&#x160;" horiz-adv-x="650" vert-adv-y="1200" 
d="M325 -11q-90 0 -149 26t-89.5 71.5t-36.5 103.5h120q8 -41 41 -68t114 -27q84 0 119.5 27.5t35.5 67.5q0 33 -20 54t-61.5 36.5t-105.5 28.5q-72 16 -122 40.5t-75.5 65.5t-25.5 105q0 53 29 96t85.5 69t140.5 26q82 0 136.5 -24.5t84 -67.5t34.5 -99h-120
q-8 38 -40.5 61.5t-94.5 23.5q-72 0 -103.5 -25t-31.5 -60q0 -48 40 -72t123 -41q62 -13 108 -30.5t77 -42t46.5 -60t15.5 -84.5q0 -58 -30.5 -103.5t-91.5 -71.5t-153 -26zM265 750l-110 150h100l70 -70l70 70h100l-110 -150h-120z" />
    <glyph glyph-name="scaron" unicode="&#x161;" horiz-adv-x="540" vert-adv-y="1200" 
d="M270 -11q-58 0 -100 13t-69.5 35.5t-42 51.5t-18.5 61h110q7 -28 34 -46.5t86 -18.5q66 0 93 18t27 47q0 17 -12.5 32t-42 26.5t-81.5 17.5q-45 6 -82 17.5t-63 30.5t-40 46.5t-14 64.5q0 43 23.5 78t71.5 56.5t120 21.5q70 0 114.5 -22.5t67.5 -59t28 -79.5h-110
q-8 31 -32.5 48t-67.5 17q-59 0 -82 -18t-23 -42q0 -26 25.5 -44.5t101.5 -26.5q47 -6 85 -18t65.5 -31.5t42.5 -47.5t15 -67q0 -45 -25.5 -81.5t-76.5 -58t-128 -21.5zM215 580l-110 160h90l75 -80l75 80h90l-110 -160h-110z" />
    <glyph glyph-name="Tcaron" unicode="&#x164;" horiz-adv-x="630" vert-adv-y="1200" 
d="M255 0v596h-235v104h590v-104h-235v-596h-120zM255 750l-110 150h100l70 -70l70 70h100l-110 -150h-120z" />
    <glyph glyph-name="tcaron" unicode="&#x165;" horiz-adv-x="400" vert-adv-y="1200" 
d="M275 -5q-60 0 -97.5 17t-55 53.5t-17.5 94.5v276h-75v94h75v120h110v-120h135v-94h-135v-261q0 -47 17.5 -65.5t67.5 -18.5q30 0 60 3v-94q-19 -2 -39 -3.5t-46 -1.5zM271 595l11 123v85h103v-85l-67 -123h-47z" />
    <glyph glyph-name="Umacron" unicode="&#x16a;" horiz-adv-x="730" vert-adv-y="1200" 
d="M365 -11q-87 0 -151 32t-99 96.5t-35 162.5v420h120v-413q0 -99 42 -145.5t123 -46.5q82 0 123.5 46.5t41.5 144.5v414h120v-420q0 -98 -35 -162.5t-99 -96.5t-151 -32zM215 778v94h300v-94h-300z" />
    <glyph glyph-name="umacron" unicode="&#x16b;" horiz-adv-x="595" vert-adv-y="1200" 
d="M255 -11q-94 0 -142 54.5t-48 166.5v320h110v-310q0 -67 27.5 -101t87.5 -34q44 0 71.5 19t40.5 50t13 66v310h110v-530h-102v90q-19 -41 -61.5 -71t-106.5 -30zM158 618v84h280v-84h-280z" />
    <glyph glyph-name="Ubreve" unicode="&#x16c;" horiz-adv-x="730" vert-adv-y="1200" 
d="M365 -11q-87 0 -151 32t-99 96.5t-35 162.5v420h120v-413q0 -99 42 -145.5t123 -46.5q82 0 123.5 46.5t41.5 144.5v414h120v-420q0 -98 -35 -162.5t-99 -96.5t-151 -32z" />
    <glyph glyph-name="ubreve" unicode="&#x16d;" horiz-adv-x="595" vert-adv-y="1200" 
d="M255 -11q-94 0 -142 54.5t-48 166.5v320h110v-310q0 -67 27.5 -101t87.5 -34q44 0 71.5 19t40.5 50t13 66v310h110v-530h-102v90q-19 -41 -61.5 -71t-106.5 -30zM298 590q-83 0 -121.5 36.5t-38.5 103.5h102q0 -36 14.5 -52t43.5 -16t43.5 16t14.5 52h102
q0 -67 -39 -103.5t-121 -36.5z" />
    <glyph glyph-name="Uring" unicode="&#x16e;" horiz-adv-x="730" vert-adv-y="1200" 
d="M365 -11q-87 0 -151 32t-99 96.5t-35 162.5v420h120v-413q0 -99 42 -145.5t123 -46.5q82 0 123.5 46.5t41.5 144.5v414h120v-420q0 -98 -35 -162.5t-99 -96.5t-151 -32zM365 730q-35 0 -63.5 15.5t-45 41.5t-16.5 58t16.5 58t45 41.5t63.5 15.5t63.5 -15.5t45 -41.5
t16.5 -58t-16.5 -58t-45 -41.5t-63.5 -15.5zM365 800q20 0 32.5 12.5t12.5 32.5t-12.5 32.5t-32.5 12.5t-32.5 -12.5t-12.5 -32.5t12.5 -32.5t32.5 -12.5z" />
    <glyph glyph-name="uring" unicode="&#x16f;" horiz-adv-x="595" vert-adv-y="1200" 
d="M255 -11q-94 0 -142 54.5t-48 166.5v320h110v-310q0 -67 27.5 -101t87.5 -34q44 0 71.5 19t40.5 50t13 66v310h110v-530h-102v90q-19 -41 -61.5 -71t-106.5 -30zM298 570q-51 0 -85.5 31.5t-34.5 78.5t34.5 78.5t85.5 31.5t85.5 -31.5t34.5 -78.5t-34.5 -78.5
t-85.5 -31.5zM298 638q18 0 30 12t12 30t-12 30t-30 12t-30 -12t-12 -30t12 -30t30 -12z" />
    <glyph glyph-name="Uhungarumlaut" unicode="&#x170;" horiz-adv-x="730" vert-adv-y="1200" 
d="M365 -11q-87 0 -151 32t-99 96.5t-35 162.5v420h120v-413q0 -99 42 -145.5t123 -46.5q82 0 123.5 46.5t41.5 144.5v414h120v-420q0 -98 -35 -162.5t-99 -96.5t-151 -32zM241 750l112 150h114l-134 -150h-92zM398 750l137 150h116l-161 -150h-92z" />
    <glyph glyph-name="uhungarumlaut" unicode="&#x171;" horiz-adv-x="595" vert-adv-y="1200" 
d="M255 -11q-94 0 -142 54.5t-48 166.5v320h110v-310q0 -67 27.5 -101t87.5 -34q44 0 71.5 19t40.5 50t13 66v310h110v-530h-102v90q-19 -41 -61.5 -71t-106.5 -30zM229 580h-83l96 160h124zM426 580h-87l127 160h127z" />
    <glyph glyph-name="Uogonek" unicode="&#x172;" horiz-adv-x="730" vert-adv-y="1200" 
d="M365 -11q-87 0 -151 32t-99 96.5t-35 162.5v420h120v-413q0 -99 42 -145.5t123 -46.5q82 0 123.5 46.5t41.5 144.5v414h120v-420q0 -98 -35 -162.5t-99 -96.5t-151 -32zM403 -211q-55 0 -81 25t-26 64q0 24 9.5 44t25 35.5t34 26.5t35.5 16h61q-8 -2 -26.5 -17t-34.5 -37
t-16 -46q0 -19 10.5 -30t38.5 -11q7 0 12.5 1t15.5 2v-68q-18 -4 -31 -4.5t-27 -0.5z" />
    <glyph glyph-name="uogonek" unicode="&#x173;" horiz-adv-x="595" vert-adv-y="1200" 
d="M255 -11q-94 0 -142 54.5t-48 166.5v320h110v-310q0 -67 27.5 -101t87.5 -34q44 0 71.5 19t40.5 50t13 66v310h110v-530h-102v90q-19 -41 -61.5 -71t-106.5 -30zM467 -211q-55 0 -81 25t-26 64q0 24 9.5 44t25 35.5t34 26.5t35.5 16h61q-8 -2 -26.5 -17t-34.5 -37
t-16 -46q0 -19 10.5 -30t38.5 -11q7 0 12.5 1t15.5 2v-68q-18 -4 -31 -4.5t-27 -0.5z" />
    <glyph glyph-name="Wcircumflex" unicode="&#x174;" horiz-adv-x="970" vert-adv-y="1200" 
d="M210 0l-185 700h124l133 -520l153 520h100l162 -520l132 520h116l-185 -700h-120l-159 520l-151 -520h-120zM315 750l110 150h120l110 -150h-100l-70 70l-70 -70h-100z" />
    <glyph glyph-name="wcircumflex" unicode="&#x175;" horiz-adv-x="830" vert-adv-y="1200" 
d="M175 0l-145 530h116l97 -390l122 390h100l130 -390l97 390h108l-145 -530h-110l-132 390l-128 -390h-110zM250 580l110 160h110l110 -160h-90l-75 80l-75 -80h-90z" />
    <glyph glyph-name="Ycircumflex" unicode="&#x176;" horiz-adv-x="660" vert-adv-y="1200" 
d="M280 0v270l-270 430h142l190 -310l176 310h132l-250 -430v-270h-120zM160 750l110 150h120l110 -150h-100l-70 70l-70 -70h-100z" />
    <glyph glyph-name="ycircumflex" unicode="&#x177;" horiz-adv-x="580" vert-adv-y="1200" 
d="M155 -211q-15 0 -30 3v96q15 -3 30 -3q22 0 36 10.5t26 35.5t28 69l-225 530h120l162 -410l146 410h112l-205 -530q-29 -74 -55 -121t-59 -68.5t-86 -21.5zM125 580l110 160h110l110 -160h-90l-75 80l-75 -80h-90z" />
    <glyph glyph-name="Ydieresis" unicode="&#x178;" horiz-adv-x="660" vert-adv-y="1200" 
d="M280 0v270l-270 430h142l190 -310l176 310h132l-250 -430v-270h-120zM215 755q-31 0 -50.5 19.5t-19.5 50.5t19.5 50.5t50.5 19.5t50.5 -19.5t19.5 -50.5t-19.5 -50.5t-50.5 -19.5zM445 755q-31 0 -50.5 19.5t-19.5 50.5t19.5 50.5t50.5 19.5t50.5 -19.5t19.5 -50.5
t-19.5 -50.5t-50.5 -19.5z" />
    <glyph glyph-name="Zacute" unicode="&#x179;" horiz-adv-x="610" vert-adv-y="1200" 
d="M40 0v94l376 502h-366v104h510v-94l-376 -502h386v-104h-530zM255 750l110 150h140l-150 -150h-100z" />
    <glyph glyph-name="zacute" unicode="&#x17a;" horiz-adv-x="510" vert-adv-y="1200" 
d="M35 0v84l298 352h-288v94h420v-84l-298 -352h308v-94h-440zM210 580l110 160h130l-150 -160h-90z" />
    <glyph glyph-name="Zdotaccent" unicode="&#x17b;" horiz-adv-x="610" vert-adv-y="1200" 
d="M40 0v94l376 502h-366v104h510v-94l-376 -502h386v-104h-530zM305 751q-33 0 -53.5 20.5t-20.5 53.5t20.5 53.5t53.5 20.5t53.5 -20.5t20.5 -53.5t-20.5 -53.5t-53.5 -20.5z" />
    <glyph glyph-name="zdotaccent" unicode="&#x17c;" horiz-adv-x="510" vert-adv-y="1200" 
d="M35 0v84l298 352h-288v94h420v-84l-298 -352h308v-94h-440zM255 590q-31 0 -50.5 19.5t-19.5 50.5t19.5 50.5t50.5 19.5t50.5 -19.5t19.5 -50.5t-19.5 -50.5t-50.5 -19.5z" />
    <glyph glyph-name="Zcaron" unicode="&#x17d;" horiz-adv-x="610" vert-adv-y="1200" 
d="M40 0v94l376 502h-366v104h510v-94l-376 -502h386v-104h-530zM245 750l-110 150h100l70 -70l70 70h100l-110 -150h-120z" />
    <glyph glyph-name="zcaron" unicode="&#x17e;" horiz-adv-x="510" vert-adv-y="1200" 
d="M35 0v84l298 352h-288v94h420v-84l-298 -352h308v-94h-440zM200 580l-110 160h90l75 -80l75 80h90l-110 -160h-110z" />
    <glyph glyph-name="florin" unicode="&#x192;" horiz-adv-x="370" vert-adv-y="0" 
d="M45 -210q-8 0 -24 0.5t-31 2.5v96q8 -2 22.5 -2.5t22.5 -0.5q35 0 50 15.5t15 53.5v481h-70v94h70v15q0 53 17.5 88.5t56.5 53.5t101 18q15 0 34 -0.5t41 -2.5v-96q-15 2 -32.5 2.5t-32.5 0.5q-42 0 -58.5 -15.5t-16.5 -53.5v-10h130v-94h-130v-486q0 -52 -17 -88
t-53.5 -54t-94.5 -18z" />
    <glyph glyph-name="uni0218" unicode="&#x218;" horiz-adv-x="650" vert-adv-y="1200" 
d="M325 -11q-90 0 -149 26t-89.5 71.5t-36.5 103.5h120q8 -41 41 -68t114 -27q84 0 119.5 27.5t35.5 67.5q0 33 -20 54t-61.5 36.5t-105.5 28.5q-72 16 -122 40.5t-75.5 65.5t-25.5 105q0 53 29 96t85.5 69t140.5 26q82 0 136.5 -24.5t84 -67.5t34.5 -99h-120
q-8 38 -40.5 61.5t-94.5 23.5q-72 0 -103.5 -25t-31.5 -60q0 -48 40 -72t123 -41q62 -13 108 -30.5t77 -42t46.5 -60t15.5 -84.5q0 -58 -30.5 -103.5t-91.5 -71.5t-153 -26zM275 -226v181h100v-91l-51 -90h-49z" />
    <glyph glyph-name="uni0219" unicode="&#x219;" horiz-adv-x="540" vert-adv-y="1200" 
d="M270 -11q-58 0 -100 13t-69.5 35.5t-42 51.5t-18.5 61h110q7 -28 34 -46.5t86 -18.5q66 0 93 18t27 47q0 17 -12.5 32t-42 26.5t-81.5 17.5q-45 6 -82 17.5t-63 30.5t-40 46.5t-14 64.5q0 43 23.5 78t71.5 56.5t120 21.5q70 0 114.5 -22.5t67.5 -59t28 -79.5h-110
q-8 31 -32.5 48t-67.5 17q-59 0 -82 -18t-23 -42q0 -26 25.5 -44.5t101.5 -26.5q47 -6 85 -18t65.5 -31.5t42.5 -47.5t15 -67q0 -45 -25.5 -81.5t-76.5 -58t-128 -21.5zM220 -226v181h100v-91l-51 -90h-49z" />
    <glyph glyph-name="uni021A" unicode="&#x21a;" horiz-adv-x="630" vert-adv-y="1200" 
d="M255 0v596h-235v104h590v-104h-235v-596h-120zM265 -226v181h100v-91l-51 -90h-49z" />
    <glyph glyph-name="uni021B" unicode="&#x21b;" horiz-adv-x="400" vert-adv-y="1200" 
d="M275 -5q-60 0 -97.5 17t-55 53.5t-17.5 94.5v276h-75v94h75v120h110v-120h135v-94h-135v-261q0 -47 17.5 -65.5t67.5 -18.5q30 0 60 3v-94q-19 -2 -39 -3.5t-46 -1.5zM150 -226v181h100v-91l-51 -90h-49z" />
    <glyph glyph-name="uni0237" unicode="&#x237;" horiz-adv-x="270" vert-adv-y="0" 
d="M20 -211q-11 0 -25 0.5t-25 2.5v96q8 -2 17.5 -2.5t17.5 -0.5q26 0 42.5 10t24.5 36.5t8 73.5v525h110v-530q0 -83 -16 -129t-53 -64t-101 -18z" />
    <glyph glyph-name="uni02BC" unicode="&#x2bc;" horiz-adv-x="285" vert-adv-y="0" 
d="M50 419l40 155v126h130v-126l-110 -155h-60z" />
    <glyph glyph-name="circumflex" unicode="&#x2c6;" horiz-adv-x="370" vert-adv-y="0" 
d="M20 580l110 160h110l110 -160h-90l-75 80l-75 -80h-90z" />
    <glyph glyph-name="caron" unicode="&#x2c7;" horiz-adv-x="370" vert-adv-y="0" 
d="M130 580l-110 160h90l75 -80l75 80h90l-110 -160h-110z" />
    <glyph glyph-name="breve" unicode="&#x2d8;" horiz-adv-x="360" vert-adv-y="1200" 
d="M180 590q-83 0 -121.5 36.5t-38.5 103.5h102q0 -36 14.5 -52t43.5 -16t43.5 16t14.5 52h102q0 -67 -39 -103.5t-121 -36.5z" />
    <glyph glyph-name="dotaccent" unicode="&#x2d9;" horiz-adv-x="180" vert-adv-y="0" 
d="M90 590q-31 0 -50.5 19.5t-19.5 50.5t19.5 50.5t50.5 19.5t50.5 -19.5t19.5 -50.5t-19.5 -50.5t-50.5 -19.5z" />
    <glyph glyph-name="ring" unicode="&#x2da;" horiz-adv-x="280" vert-adv-y="0" 
d="M140 570q-51 0 -85.5 31.5t-34.5 78.5t34.5 78.5t85.5 31.5t85.5 -31.5t34.5 -78.5t-34.5 -78.5t-85.5 -31.5zM140 638q18 0 30 12t12 30t-12 30t-30 12t-30 -12t-12 -30t12 -30t30 -12z" />
    <glyph glyph-name="ogonek" unicode="&#x2db;" horiz-adv-x="240" vert-adv-y="1200" 
d="M132 -211q-55 0 -81 25t-26 64q0 24 9.5 44t25 35.5t34 26.5t35.5 16h61q-8 -2 -26.5 -17t-34.5 -37t-16 -46q0 -19 10.5 -30t38.5 -11q7 0 12.5 1t15.5 2v-68q-18 -4 -31 -4.5t-27 -0.5z" />
    <glyph glyph-name="tilde" unicode="&#x2dc;" horiz-adv-x="360" vert-adv-y="0" 
d="M280 720l60 -25q-4 -14 -8.5 -26.5t-11.5 -23.5q-11 -19 -30.5 -34.5t-49.5 -15.5t-50.5 11t-36 22.5t-33.5 11.5q-11 0 -18.5 -6t-12.5 -14l-5 -10t-4 -10l-60 25q4 14 8.5 26.5t11.5 23.5q11 19 30.5 34.5t49.5 15.5t50 -11.5t36.5 -22.5t33.5 -11q11 0 18.5 6t12.5 14
l5 10t4 10z" />
    <glyph glyph-name="hungarumlaut" unicode="&#x2dd;" horiz-adv-x="553" vert-adv-y="0" 
d="M141 580h-83l96 160h124zM338 580h-87l127 160h127z" />
    <glyph glyph-name="gravecomb" unicode="&#x300;" vert-adv-y="0" 
d="M170 580l-150 160h130l110 -160h-90z" />
    <glyph glyph-name="acutecomb" unicode="&#x301;" vert-adv-y="0" 
d="M20 580l110 160h130l-150 -160h-90z" />
    <glyph glyph-name="uni0302" unicode="&#x302;" vert-adv-y="0" 
d="M20 580l110 160h110l110 -160h-90l-75 80l-75 -80h-90z" />
    <glyph glyph-name="tildecomb" unicode="&#x303;" vert-adv-y="0" 
d="M280 720l60 -25q-4 -14 -8.5 -26.5t-11.5 -23.5q-11 -19 -30.5 -34.5t-49.5 -15.5t-50.5 11t-36 22.5t-33.5 11.5q-11 0 -18.5 -6t-12.5 -14l-5 -10t-4 -10l-60 25q4 14 8.5 26.5t11.5 23.5q11 19 30.5 34.5t49.5 15.5t50 -11.5t36.5 -22.5t33.5 -11q11 0 18.5 6t12.5 14
l5 10t4 10z" />
    <glyph glyph-name="uni0304" unicode="&#x304;" vert-adv-y="0" 
d="M20 618v84h280v-84h-280z" />
    <glyph glyph-name="uni0306" unicode="&#x306;" vert-adv-y="0" 
d="M180 590q-83 0 -121.5 36.5t-38.5 103.5h102q0 -36 14.5 -52t43.5 -16t43.5 16t14.5 52h102q0 -67 -39 -103.5t-121 -36.5z" />
    <glyph glyph-name="uni0307" unicode="&#x307;" vert-adv-y="0" 
d="M90 590q-31 0 -50.5 19.5t-19.5 50.5t19.5 50.5t50.5 19.5t50.5 -19.5t19.5 -50.5t-19.5 -50.5t-50.5 -19.5z" />
    <glyph glyph-name="uni0308" unicode="&#x308;" vert-adv-y="0" 
d="M86 594q-29 0 -47.5 18.5t-18.5 47.5t18.5 47.5t47.5 18.5t47.5 -18.5t18.5 -47.5t-18.5 -47.5t-47.5 -18.5zM294 594q-29 0 -47.5 18.5t-18.5 47.5t18.5 47.5t47.5 18.5t47.5 -18.5t18.5 -47.5t-18.5 -47.5t-47.5 -18.5z" />
    <glyph glyph-name="uni030A" unicode="&#x30a;" vert-adv-y="0" 
d="M140 570q-51 0 -85.5 31.5t-34.5 78.5t34.5 78.5t85.5 31.5t85.5 -31.5t34.5 -78.5t-34.5 -78.5t-85.5 -31.5zM140 638q18 0 30 12t12 30t-12 30t-30 12t-30 -12t-12 -30t12 -30t30 -12z" />
    <glyph glyph-name="uni030B" unicode="&#x30b;" vert-adv-y="0" 
d="M141 580h-83l96 160h124zM338 580h-87l127 160h127z" />
    <glyph glyph-name="uni030C" unicode="&#x30c;" vert-adv-y="0" 
d="M130 580l-110 160h90l75 -80l75 80h90l-110 -160h-110z" />
    <glyph glyph-name="uni0312" unicode="&#x312;" vert-adv-y="1200" 
d="M50 794v-181h-100v91l51 90h49z" />
    <glyph glyph-name="uni0326" unicode="&#x326;" vert-adv-y="1200" 
d="M65 -226v181h100v-91l-51 -90h-49z" />
    <glyph glyph-name="uni0327" unicode="&#x327;" vert-adv-y="0" 
d="M85 -211q-16 0 -28 1t-20 2q-5 1 -9 2l-8 2v66l14 -2q7 -1 16 -1.5t20 -0.5q28 0 38 10t10 21q0 13 -10 22t-42 9l17 90h68l-7 -47q40 -9 53 -32t13 -46q0 -44 -29.5 -70t-95.5 -26z" />
    <glyph glyph-name="uni0328" unicode="&#x328;" vert-adv-y="1200" 
d="M132 -211q-55 0 -81 25t-26 64q0 24 9.5 44t25 35.5t34 26.5t35.5 16h61q-8 -2 -26.5 -17t-34.5 -37t-16 -46q0 -19 10.5 -30t38.5 -11q7 0 12.5 1t15.5 2v-68q-18 -4 -31 -4.5t-27 -0.5z" />
    <glyph glyph-name="uni0401" unicode="&#x401;" horiz-adv-x="615" vert-adv-y="1200" 
d="M90 0v700h470v-104h-350v-184h320v-104h-320v-204h350v-104h-470zM210 755q-31 0 -50.5 19.5t-19.5 50.5t19.5 50.5t50.5 19.5t50.5 -19.5t19.5 -50.5t-19.5 -50.5t-50.5 -19.5zM440 755q-31 0 -50.5 19.5t-19.5 50.5t19.5 50.5t50.5 19.5t50.5 -19.5t19.5 -50.5
t-19.5 -50.5t-50.5 -19.5z" />
    <glyph glyph-name="uni0402" unicode="&#x402;" horiz-adv-x="825" vert-adv-y="0" 
d="M255 0v596h-235v104h590v-104h-235v-190q26 16 73 29t107 13q117 0 173.5 -55t56.5 -161v-20q0 -107 -58.5 -162t-186.5 -55q-8 0 -25 0.5t-25 2.5v106q8 -2 20 -2.5t20 -0.5q67 0 98 28.5t31 82.5v20q0 53 -31 81.5t-98 28.5q-54 0 -93 -12.5t-62 -27.5v-302h-120z" />
    <glyph glyph-name="uni0403" unicode="&#x403;" horiz-adv-x="560" vert-adv-y="1200" 
d="M90 0v700h450v-104h-330v-596h-120zM270 750l110 150h140l-150 -150h-100z" />
    <glyph glyph-name="uni0404" unicode="&#x404;" horiz-adv-x="690" vert-adv-y="0" 
d="M360 -11q-64 0 -119.5 20t-97.5 63t-65 110.5t-23 162.5v20q0 91 23 156.5t65 107.5t97.5 62t119.5 20q58 0 108 -14.5t88 -43.5t61 -72t28 -101h-126q-13 65 -55.5 95t-103.5 30q-47 0 -85.5 -19.5t-62.5 -63t-30 -117.5h263v-100h-263q4 -59 20 -99.5t40.5 -65t55 -35
t62.5 -10.5q72 0 111 33.5t47 91.5h127q-6 -62 -29.5 -106t-62 -71.5t-87.5 -40.5t-106 -13z" />
    <glyph glyph-name="uni0405" unicode="&#x405;" horiz-adv-x="650" vert-adv-y="1200" 
d="M325 -11q-90 0 -149 26t-89.5 71.5t-36.5 103.5h120q8 -41 41 -68t114 -27q84 0 119.5 27.5t35.5 67.5q0 33 -20 54t-61.5 36.5t-105.5 28.5q-72 16 -122 40.5t-75.5 65.5t-25.5 105q0 53 29 96t85.5 69t140.5 26q82 0 136.5 -24.5t84 -67.5t34.5 -99h-120
q-8 38 -40.5 61.5t-94.5 23.5q-72 0 -103.5 -25t-31.5 -60q0 -48 40 -72t123 -41q62 -13 108 -30.5t77 -42t46.5 -60t15.5 -84.5q0 -58 -30.5 -103.5t-91.5 -71.5t-153 -26z" />
    <glyph glyph-name="uni0406" unicode="&#x406;" horiz-adv-x="320" vert-adv-y="1200" 
d="M100 0v700h120v-700h-120z" />
    <glyph glyph-name="uni0407" unicode="&#x407;" horiz-adv-x="320" vert-adv-y="1200" 
d="M100 0v700h120v-700h-120zM45 755q-31 0 -50.5 19.5t-19.5 50.5t19.5 50.5t50.5 19.5t50.5 -19.5t19.5 -50.5t-19.5 -50.5t-50.5 -19.5zM275 755q-31 0 -50.5 19.5t-19.5 50.5t19.5 50.5t50.5 19.5t50.5 -19.5t19.5 -50.5t-19.5 -50.5t-50.5 -19.5z" />
    <glyph glyph-name="uni0408" unicode="&#x408;" horiz-adv-x="560" vert-adv-y="1200" 
d="M240 -11q-72 0 -120 25t-72.5 72.5t-27.5 113.5h116q4 -52 29 -78.5t75 -26.5q36 0 60.5 14t37 48t12.5 93v450h120v-450q0 -94 -26.5 -151.5t-77.5 -83.5t-126 -26z" />
    <glyph glyph-name="uni0409" unicode="&#x409;" horiz-adv-x="1060" vert-adv-y="0" 
d="M60 -11q-8 0 -17.5 0.5t-17.5 2.5v114q3 -1 15 -1q22 0 39 8.5t28.5 32.5t19 70t10.5 120.5t3 183.5v180h480v-264h125q142 0 208.5 -59t66.5 -159t-66.5 -159t-208.5 -59h-245v596h-244v-96q0 -131 -8 -221t-23.5 -147.5t-39 -88.5t-55 -42.5t-70.5 -11.5zM620 104h115
q95 0 130 29t35 85t-35 85t-130 29h-115v-228z" />
    <glyph glyph-name="uni040A" unicode="&#x40a;" horiz-adv-x="1100" vert-adv-y="0" 
d="M90 0v700h120v-278h330v278h120v-278h130q142 0 206 -56.5t64 -154.5t-64 -154.5t-206 -56.5h-250v318h-330v-318h-120zM660 104h120q93 0 126.5 27.5t33.5 79.5t-33.5 79.5t-126.5 27.5h-120v-214z" />
    <glyph glyph-name="uni040B" unicode="&#x40b;" horiz-adv-x="840" vert-adv-y="0" 
d="M255 0v596h-235v104h590v-104h-235v-190q26 16 73 29t107 13q118 0 174 -56t56 -177v-215h-120v205q0 72 -32.5 104.5t-102.5 32.5q-54 0 -93 -12.5t-62 -27.5v-302h-120z" />
    <glyph glyph-name="uni040C" unicode="&#x40c;" horiz-adv-x="705" vert-adv-y="1200" 
d="M90 0v700h120v-293h70l254 293h136l-295 -333l305 -367h-146l-254 313h-70v-313h-120zM323 750l110 150h140l-150 -150h-100z" />
    <glyph glyph-name="uni040E" unicode="&#x40e;" horiz-adv-x="680" vert-adv-y="1200" 
d="M205 -11q-11 0 -21.5 0.5t-18.5 1.5v107q8 -1 18.5 -2t21.5 -1q27 0 44.5 6t30 21.5t23.5 43.5l-288 534h140l211 -405l175 405h124l-246 -552q-19 -42 -39 -72.5t-44 -49.5t-55.5 -28t-75.5 -9zM348 745q-62 0 -102 18.5t-59 54t-19 87.5h110q0 -46 17.5 -65t52.5 -19
t52.5 19t17.5 65h110q0 -52 -19 -87.5t-59 -54t-102 -18.5z" />
    <glyph glyph-name="uni040F" unicode="&#x40f;" horiz-adv-x="740" vert-adv-y="0" 
d="M314 -130v130h-224v700h120v-596h320v596h120v-700h-224v-130h-112z" />
    <glyph glyph-name="uni0410" unicode="&#x410;" horiz-adv-x="680" vert-adv-y="1200" 
d="M15 0l265 700h120l265 -700h-128l-59 158h-284l-59 -158h-120zM233 262h206l-102 288z" />
    <glyph glyph-name="uni0411" unicode="&#x411;" horiz-adv-x="670" vert-adv-y="0" 
d="M90 0v700h475v-104h-355v-160h145q141 0 208 -59.5t67 -158.5t-67 -158.5t-208 -59.5h-265zM210 104h135q95 0 130 29t35 86q0 56 -35 84.5t-130 28.5h-135v-228z" />
    <glyph glyph-name="uni0412" unicode="&#x412;" horiz-adv-x="675" vert-adv-y="1200" 
d="M90 0v700h280q119 0 174.5 -51t55.5 -136q0 -54 -28 -92.5t-77 -55.5q62 -14 98.5 -56.5t36.5 -110.5q0 -58 -25 -103t-79 -70t-140 -25h-296zM210 104h163q78 0 107.5 25t29.5 77q0 51 -30 78.5t-108 27.5h-162v-208zM210 408h145q70 0 97.5 26t27.5 70q0 45 -27 68.5
t-98 23.5h-145v-188z" />
    <glyph glyph-name="uni0413" unicode="&#x413;" horiz-adv-x="560" vert-adv-y="0" 
d="M90 0v700h450v-104h-330v-596h-120z" />
    <glyph glyph-name="uni0414" unicode="&#x414;" horiz-adv-x="740" vert-adv-y="0" 
d="M20 -130v234h75q19 37 30.5 89t18 113t9 123.5t2.5 120.5v150h474v-596h81v-234h-110v130h-470v-130h-110zM217 104h292v492h-238v-66q0 -144 -14 -247t-40 -179z" />
    <glyph glyph-name="uni0415" unicode="&#x415;" horiz-adv-x="615" vert-adv-y="1200" 
d="M90 0v700h470v-104h-350v-184h320v-104h-320v-204h350v-104h-470z" />
    <glyph glyph-name="uni0416" unicode="&#x416;" horiz-adv-x="980" vert-adv-y="0" 
d="M25 0l250 364l-240 336h130l205 -293h60v293h120v-293h60l209 293h126l-240 -332l250 -368h-136l-209 313h-60v-313h-120v313h-60l-211 -313h-134z" />
    <glyph glyph-name="uni0417" unicode="&#x417;" horiz-adv-x="650" vert-adv-y="0" 
d="M325 -11q-87 0 -148.5 28t-94.5 77.5t-37 115.5h126q4 -34 23 -60t52 -40.5t79 -14.5q79 0 116.5 28t37.5 80q0 34 -16 58t-49.5 37.5t-88.5 13.5h-85v96h85q64 0 96.5 26.5t32.5 72.5q0 45 -30.5 71.5t-98.5 26.5q-44 0 -74 -11.5t-45.5 -34t-19.5 -54.5h-126
q7 94 72 150t193 56t191.5 -53t63.5 -146q0 -55 -31 -92.5t-83 -54.5q64 -15 101.5 -57t37.5 -110q0 -61 -31.5 -108.5t-93.5 -74t-155 -26.5z" />
    <glyph glyph-name="uni0418" unicode="&#x418;" horiz-adv-x="760" vert-adv-y="0" 
d="M90 0v700h120v-510l344 510h116v-700h-120v510l-344 -510h-116z" />
    <glyph glyph-name="uni0419" unicode="&#x419;" horiz-adv-x="760" vert-adv-y="1200" 
d="M90 0v700h120v-510l344 510h116v-700h-120v510l-344 -510h-116zM380 745q-62 0 -102 18.5t-59 54t-19 87.5h110q0 -46 17.5 -65t52.5 -19t52.5 19t17.5 65h110q0 -52 -19 -87.5t-59 -54t-102 -18.5z" />
    <glyph glyph-name="uni041A" unicode="&#x41a;" horiz-adv-x="705" vert-adv-y="0" 
d="M90 0v700h120v-293h70l254 293h136l-295 -333l305 -367h-146l-254 313h-70v-313h-120z" />
    <glyph glyph-name="uni041B" unicode="&#x41b;" horiz-adv-x="720" vert-adv-y="0" 
d="M60 -11q-8 0 -17.5 0.5t-17.5 2.5v114q3 -1 15 -1q22 0 39 8.5t28.5 32.5t19 70t10.5 120.5t3 183.5v180h490v-700h-120v596h-254v-96q0 -131 -8 -221t-23.5 -147.5t-39 -88.5t-55 -42.5t-70.5 -11.5z" />
    <glyph glyph-name="uni041C" unicode="&#x41c;" horiz-adv-x="870" vert-adv-y="1200" 
d="M90 0v700h124l223 -415l223 415h120v-700h-120v490l-185 -345h-80l-185 345v-490h-120z" />
    <glyph glyph-name="uni041D" unicode="&#x41d;" horiz-adv-x="760" vert-adv-y="1200" 
d="M90 0v700h120v-288h340v288h120v-700h-120v308h-340v-308h-120z" />
    <glyph glyph-name="uni041E" unicode="&#x41e;" horiz-adv-x="750" vert-adv-y="1200" 
d="M375 -11q-64 0 -121.5 20t-102.5 62.5t-70.5 110t-25.5 163.5v20q0 92 25.5 157.5t70.5 107.5t102.5 61.5t121.5 19.5t121.5 -19.5t102.5 -61.5t70.5 -107.5t25.5 -157.5v-20q0 -96 -25.5 -163.5t-70.5 -110t-102.5 -62.5t-121.5 -20zM375 95q50 0 94 24t72 78.5
t28 147.5v20q0 88 -28 140.5t-72 76t-94 23.5t-94.5 -23.5t-72 -76t-27.5 -140.5v-20q0 -93 27.5 -147.5t72 -78.5t94.5 -24z" />
    <glyph glyph-name="uni041F" unicode="&#x41f;" horiz-adv-x="750" vert-adv-y="0" 
d="M90 0v700h570v-700h-120v596h-330v-596h-120z" />
    <glyph glyph-name="uni0420" unicode="&#x420;" horiz-adv-x="660" vert-adv-y="1200" 
d="M90 0v700h255q94 0 155 -27.5t90.5 -77.5t29.5 -118t-29.5 -118t-90.5 -77.5t-155 -27.5h-135v-254h-120zM210 358h125q95 0 130 29.5t35 89.5q0 59 -35 89t-130 30h-125v-238z" />
    <glyph glyph-name="uni0421" unicode="&#x421;" horiz-adv-x="690" vert-adv-y="1200" 
d="M360 -11q-86 0 -155 36.5t-109.5 115t-40.5 204.5v20q0 91 24 156.5t65.5 107.5t97 62t118.5 20q58 0 108 -14.5t88 -43.5t61 -72t28 -101h-126q-13 65 -55.5 95t-103.5 30q-44 0 -85 -22.5t-67.5 -74.5t-26.5 -143v-20q0 -72 16 -120.5t42.5 -76.5t58 -40.5t62.5 -12.5
q72 0 111.5 33.5t47.5 91.5h126q-6 -62 -29.5 -106t-62 -71.5t-87.5 -40.5t-106 -13z" />
    <glyph glyph-name="uni0422" unicode="&#x422;" horiz-adv-x="630" vert-adv-y="1200" 
d="M255 0v596h-235v104h590v-104h-235v-596h-120z" />
    <glyph glyph-name="uni0423" unicode="&#x423;" horiz-adv-x="680" vert-adv-y="0" 
d="M205 -11q-11 0 -21.5 0.5t-18.5 1.5v107q8 -1 18.5 -2t21.5 -1q27 0 44.5 6t30 21.5t23.5 43.5l-288 534h140l211 -405l175 405h124l-246 -552q-19 -42 -39 -72.5t-44 -49.5t-55.5 -28t-75.5 -9z" />
    <glyph glyph-name="uni0424" unicode="&#x424;" horiz-adv-x="880" vert-adv-y="0" 
d="M380 -30v67q-106 0 -180 39.5t-112 110t-38 163.5v20q0 89 38 154.5t112 102t180 36.5v67h120v-67q106 0 179.5 -36.5t112 -102t38.5 -154.5v-20q0 -93 -38.5 -163.5t-112 -110t-179.5 -39.5v-67h-120zM704 350v20q0 61 -22.5 102.5t-68 63t-113.5 21.5v-414
q69 0 114 24.5t67.5 70.5t22.5 112zM176 370v-20q0 -66 22.5 -112t68 -70.5t113.5 -24.5v414q-68 0 -113.5 -21.5t-68 -63t-22.5 -102.5z" />
    <glyph glyph-name="uni0425" unicode="&#x425;" horiz-adv-x="680" vert-adv-y="1200" 
d="M25 0l241 366l-231 334h136l170 -245l172 245h132l-230 -332l240 -368h-138l-178 280l-180 -280h-134z" />
    <glyph glyph-name="uni0426" unicode="&#x426;" horiz-adv-x="770" vert-adv-y="0" 
d="M628 -130v130h-538v700h120v-596h320v596h120v-596h90v-234h-112z" />
    <glyph glyph-name="uni0427" unicode="&#x427;" horiz-adv-x="675" vert-adv-y="0" 
d="M465 0v294q-26 -16 -73 -29t-107 -13q-118 0 -174 56t-56 177v215h120v-205q0 -72 32.5 -104.5t102.5 -32.5q54 0 93 12.5t62 27.5v302h120v-700h-120z" />
    <glyph glyph-name="uni0428" unicode="&#x428;" horiz-adv-x="980" vert-adv-y="0" 
d="M90 0v700h120v-596h220v596h120v-596h220v596h120v-700h-800z" />
    <glyph glyph-name="uni0429" unicode="&#x429;" horiz-adv-x="1010" vert-adv-y="0" 
d="M90 0v700h120v-596h220v596h120v-596h220v596h120v-596h90v-234h-112v130h-778z" />
    <glyph glyph-name="uni042A" unicode="&#x42a;" horiz-adv-x="740" vert-adv-y="0" 
d="M170 0v596h-150v104h270v-264h135q141 0 208 -59.5t67 -158.5t-67 -158.5t-208 -59.5h-255zM290 104h125q95 0 130 29t35 85t-35 85t-130 29h-125v-228z" />
    <glyph glyph-name="uni042B" unicode="&#x42b;" horiz-adv-x="900" vert-adv-y="0" 
d="M90 0v700h120v-264h115q141 0 208 -59.5t67 -158.5t-67 -158.5t-208 -59.5h-235zM210 104h105q95 0 130 29t35 85t-35 85t-130 29h-105v-228zM690 0v700h120v-700h-120z" />
    <glyph glyph-name="uni042C" unicode="&#x42c;" horiz-adv-x="660" vert-adv-y="0" 
d="M90 0v700h120v-264h135q141 0 208 -59.5t67 -158.5t-67 -158.5t-208 -59.5h-255zM210 104h125q95 0 130 29t35 85t-35 85t-130 29h-125v-228z" />
    <glyph glyph-name="uni042D" unicode="&#x42d;" horiz-adv-x="690" vert-adv-y="0" 
d="M330 -11q-57 0 -106 13t-87.5 40.5t-62 71.5t-29.5 106h127q8 -58 47 -91.5t111 -33.5q32 0 62 10.5t54.5 35t40.5 65t20 99.5h-262v100h262q-5 74 -29.5 117.5t-62.5 63t-85 19.5q-58 0 -102 -30t-57 -95h-126q5 58 28 101t61 72t88 43.5t108 14.5q65 0 120 -20t97 -62
t65 -107.5t23 -156.5v-20q0 -95 -23 -162.5t-65 -110.5t-97 -63t-120 -20z" />
    <glyph glyph-name="Yucy" unicode="&#x42e;" horiz-adv-x="955" vert-adv-y="0" 
d="M90 0v700h120v-288h107q8 106 47.5 171.5t101.5 96.5t139 31q86 0 152.5 -35.5t104.5 -111.5t38 -199v-20q0 -127 -38 -205.5t-104.5 -114.5t-152.5 -36q-78 0 -141 32t-102 102.5t-45 184.5h-107v-308h-120zM605 95q48 0 86 24t60.5 78.5t22.5 147.5v20
q0 88 -22.5 140.5t-60.5 76t-86 23.5q-47 0 -85.5 -23.5t-61 -76t-22.5 -140.5v-20q0 -93 22.5 -147.5t61 -78.5t85.5 -24z" />
    <glyph glyph-name="Yacy" unicode="&#x42f;" horiz-adv-x="680" vert-adv-y="0" 
d="M40 0l176 282q-78 23 -117 75.5t-39 124.5q0 64 30 113t89 77t146 28h265v-700h-120v268h-147l-155 -268h-128zM180 482q0 -54 36.5 -84t128.5 -30h125v228h-125q-92 0 -128.5 -30t-36.5 -84z" />
    <glyph glyph-name="uni0430" unicode="&#x430;" horiz-adv-x="570" vert-adv-y="1200" 
d="M225 -11q-57 0 -97.5 21.5t-61.5 59.5t-21 85q0 79 47 117.5t138 38.5h165v29q0 60 -26.5 82.5t-83.5 22.5q-51 0 -75 -16t-28 -44h-107q3 46 29 81t73.5 55t112.5 20t113.5 -20t75 -62.5t26.5 -112.5v-211q0 -42 1 -73.5t5 -61.5h-100q-3 23 -4.5 39t-1.5 40
q-19 -37 -65.5 -63.5t-114.5 -26.5zM255 85q38 0 69.5 13t51 39t19.5 63v29h-145q-42 0 -67.5 -18t-25.5 -53q0 -33 23.5 -53t74.5 -20z" />
    <glyph glyph-name="uni0431" unicode="&#x431;" horiz-adv-x="595" vert-adv-y="0" 
d="M300 -11q-72 0 -130 35t-91.5 103t-33.5 165v20q0 120 24.5 204.5t84 131.5t163.5 52q42 2 79 3.5t67 6t52 15.5v-101q-10 -6 -32.5 -10.5t-59.5 -7t-91 -4.5q-62 -1 -103 -19.5t-63 -58.5t-28 -109q16 32 43 55.5t65 37t84 13.5q66 0 117 -29t79.5 -83.5t28.5 -131.5
v-23q0 -83 -33.5 -142.5t-91 -91t-130.5 -31.5zM300 85q65 0 104 43t39 126v23q0 70 -39.5 109t-103.5 39t-103.5 -38.5t-39.5 -109.5v-23q0 -53 19 -91t51.5 -58t72.5 -20z" />
    <glyph glyph-name="uni0432" unicode="&#x432;" horiz-adv-x="570" vert-adv-y="0" 
d="M70 0v530h250q67 0 108.5 -18.5t61.5 -51t20 -74.5q0 -35 -21 -67.5t-59 -43.5q49 -12 74.5 -45.5t25.5 -78.5q0 -69 -46 -110t-144 -41h-270zM180 94h145q54 0 74.5 17.5t20.5 49.5t-20.5 48.5t-74.5 16.5h-145v-132zM180 312h130q50 0 70 16.5t20 45.5t-20 45.5
t-70 16.5h-130v-124z" />
    <glyph glyph-name="uni0433" unicode="&#x433;" horiz-adv-x="460" vert-adv-y="0" 
d="M70 0v530h370v-94h-260v-436h-110z" />
    <glyph glyph-name="uni0434" unicode="&#x434;" horiz-adv-x="615" vert-adv-y="0" 
d="M20 -125v219h60q14 21 24 65.5t15.5 102.5t5.5 118v150h395v-436h70v-219h-102v125h-366v-125h-102zM192 94h218v342h-179v-76q0 -77 -9 -147.5t-30 -118.5z" />
    <glyph glyph-name="uni0435" unicode="&#x435;" horiz-adv-x="580" vert-adv-y="1200" 
d="M300 -11q-70 0 -129 29.5t-95 89.5t-36 152v20q0 88 34.5 146t91.5 86.5t124 28.5q121 0 185.5 -65t64.5 -186v-56h-388q2 -54 23 -87t54 -47.5t71 -14.5q57 0 83.5 18t36.5 47h110q-16 -79 -78.5 -120t-151.5 -41zM295 445q-37 0 -69 -13t-52 -41t-22 -75h278
q-1 50 -19 78t-48 39.5t-68 11.5z" />
    <glyph glyph-name="uni0436" unicode="&#x436;" horiz-adv-x="810" vert-adv-y="0" 
d="M20 0l190 273l-180 257h126l144 -213h50v213h110v-213h50l156 213h114l-190 -252l200 -278h-124l-156 223h-50v-223h-110v223h-50l-150 -223h-130z" />
    <glyph glyph-name="uni0437" unicode="&#x437;" horiz-adv-x="535" vert-adv-y="0" 
d="M265 -11q-72 0 -122 20t-77 58.5t-31 92.5h112q4 -24 16.5 -41t37 -25.5t62.5 -8.5q68 0 94 22t26 55q0 30 -22.5 47.5t-78.5 17.5h-87v86h80q46 0 67 19t21 48q0 26 -22 45.5t-76 19.5q-58 0 -80.5 -19t-27.5 -51h-112q4 51 30 88t74 57.5t116 20.5q109 0 159.5 -43
t50.5 -112q0 -38 -18.5 -67t-60.5 -44q56 -14 77.5 -47t21.5 -76q0 -46 -25 -83t-76 -58.5t-129 -21.5z" />
    <glyph glyph-name="uni0438" unicode="&#x438;" horiz-adv-x="610" vert-adv-y="0" 
d="M70 0v530h110v-375l255 375h105v-530h-110v375l-255 -375h-105z" />
    <glyph glyph-name="uni0439" unicode="&#x439;" horiz-adv-x="610" vert-adv-y="1200" 
d="M70 0v530h110v-375l255 375h105v-530h-110v375l-255 -375h-105zM305 590q-83 0 -121.5 36.5t-38.5 103.5h102q0 -36 14.5 -52t43.5 -16t43.5 16t14.5 52h102q0 -67 -39 -103.5t-121 -36.5z" />
    <glyph glyph-name="uni043A" unicode="&#x43a;" horiz-adv-x="580" vert-adv-y="0" 
d="M70 0v530h110v-215h60l186 215h124l-225 -253l235 -277h-134l-186 225h-60v-225h-110z" />
    <glyph glyph-name="uni043B" unicode="&#x43b;" horiz-adv-x="590" vert-adv-y="0" 
d="M60 -11q-8 0 -17.5 0.5t-17.5 2.5v104q3 -1 15 -1q28 0 45.5 24t26 83.5t8.5 167.5v160h400v-530h-110v436h-184v-86q0 -106 -10.5 -176.5t-31.5 -110.5t-52 -57t-72 -17z" />
    <glyph glyph-name="uni043C" unicode="&#x43c;" horiz-adv-x="720" vert-adv-y="0" 
d="M70 0v530h124l169 -310l169 310h118v-530h-110v365l-140 -255h-80l-140 255v-365h-110z" />
    <glyph glyph-name="uni043D" unicode="&#x43d;" horiz-adv-x="610" vert-adv-y="0" 
d="M70 0v530h110v-213h250v213h110v-530h-110v223h-250v-223h-110z" />
    <glyph glyph-name="uni043E" unicode="&#x43e;" horiz-adv-x="600" vert-adv-y="1200" 
d="M300 -11q-73 0 -132 30.5t-93.5 91t-34.5 149.5v20q0 84 34.5 142.5t93.5 88.5t132 30q74 0 132.5 -30t93 -88.5t34.5 -142.5v-20q0 -89 -34.5 -149.5t-93 -91t-132.5 -30.5zM300 85q38 0 72 18t55 56.5t21 100.5v20q0 57 -21 93.5t-55 54t-72 17.5t-72 -17.5t-55 -54
t-21 -93.5v-20q0 -62 21 -100.5t55 -56.5t72 -18z" />
    <glyph glyph-name="uni043F" unicode="&#x43f;" horiz-adv-x="600" vert-adv-y="0" 
d="M70 0v530h460v-530h-110v436h-240v-436h-110z" />
    <glyph glyph-name="uni0440" unicode="&#x440;" horiz-adv-x="615" vert-adv-y="1200" 
d="M70 -200v730h102v-89q24 46 71.5 73t107.5 27q104 0 164 -65t60 -196v-20q0 -90 -28 -150.5t-78 -90.5t-118 -30q-57 0 -104 25t-67 70v-284h-110zM325 85q62 0 100 43t38 132v20q0 84 -37 124.5t-101 40.5q-37 0 -70.5 -16t-54 -47t-20.5 -77v-70q0 -50 20.5 -83.5
t53.5 -50t71 -16.5z" />
    <glyph glyph-name="uni0441" unicode="&#x441;" horiz-adv-x="555" vert-adv-y="1200" 
d="M290 -11q-71 0 -128 30t-89.5 90t-32.5 151v20q0 86 34.5 144t91.5 87.5t124 29.5q70 0 118.5 -24t76 -65t35.5 -92h-112q-10 37 -36 61t-82 24q-37 0 -68.5 -17t-50.5 -53.5t-19 -94.5v-20q0 -63 19 -101.5t50.5 -56t68.5 -17.5q47 0 76 21t42 64h112
q-10 -56 -41.5 -96.5t-79.5 -62.5t-109 -22z" />
    <glyph glyph-name="uni0442" unicode="&#x442;" horiz-adv-x="500" vert-adv-y="0" 
d="M195 0v436h-175v94h460v-94h-175v-436h-110z" />
    <glyph glyph-name="uni0443" unicode="&#x443;" horiz-adv-x="580" vert-adv-y="1200" 
d="M155 -211q-15 0 -30 3v96q15 -3 30 -3q22 0 36 10.5t26 35.5t28 69l-225 530h120l162 -410l146 410h112l-205 -530q-29 -74 -55 -121t-59 -68.5t-86 -21.5z" />
    <glyph glyph-name="uni0444" unicode="&#x444;" horiz-adv-x="750" vert-adv-y="0" 
d="M320 -200v189q-138 0 -209 70t-71 201v20q0 125 71 193t209 68v159h110v-159q137 0 208.5 -68t71.5 -193v-20q0 -131 -71.5 -201t-208.5 -70v-189h-110zM598 260v20q0 83 -40.5 124t-129.5 41v-360q89 0 129.5 43.5t40.5 131.5zM152 281v-21q0 -88 41 -131.5t129 -43.5
v360q-89 0 -129.5 -41t-40.5 -123z" />
    <glyph glyph-name="uni0445" unicode="&#x445;" horiz-adv-x="560" vert-adv-y="1200" 
d="M20 0l191 276l-181 254h124l129 -178l127 178h120l-179 -250l189 -280h-126l-135 206l-137 -206h-122z" />
    <glyph glyph-name="uni0446" unicode="&#x446;" horiz-adv-x="625" vert-adv-y="0" 
d="M498 -125v125h-428v530h110v-436h230v436h110v-436h80v-219h-102z" />
    <glyph glyph-name="uni0447" unicode="&#x447;" horiz-adv-x="560" vert-adv-y="0" 
d="M380 0v203q-23 -14 -54.5 -25t-80.5 -11q-95 0 -145 45t-50 143v175h110v-160q0 -60 24.5 -83.5t85.5 -23.5q42 0 70.5 9.5t39.5 18.5v239h110v-530h-110z" />
    <glyph glyph-name="uni0448" unicode="&#x448;" horiz-adv-x="820" vert-adv-y="0" 
d="M70 0v530h110v-436h175v436h110v-436h175v436h110v-530h-680z" />
    <glyph glyph-name="uni0449" unicode="&#x449;" horiz-adv-x="855" vert-adv-y="0" 
d="M728 -125v125h-658v530h110v-436h175v436h110v-436h175v436h110v-436h80v-219h-102z" />
    <glyph glyph-name="uni044A" unicode="&#x44a;" horiz-adv-x="610" vert-adv-y="0" 
d="M150 0v436h-130v94h240v-186h120q102 0 151 -43.5t49 -128.5q0 -53 -21 -92t-65 -59.5t-114 -20.5h-230zM260 94h110q55 0 77.5 19.5t22.5 58.5t-22.5 58.5t-77.5 19.5h-110v-156z" />
    <glyph glyph-name="uni044B" unicode="&#x44b;" horiz-adv-x="740" vert-adv-y="1200" 
d="M70 0v530h110v-186h100q102 0 151 -43.5t49 -128.5q0 -53 -21 -92t-65 -59.5t-114 -20.5h-210zM180 94h90q55 0 77.5 19.5t22.5 58.5t-22.5 58.5t-77.5 19.5h-90v-156zM550 0v530h110v-530h-110z" />
    <glyph glyph-name="uni044C" unicode="&#x44c;" horiz-adv-x="540" vert-adv-y="0" 
d="M80 0v530h110v-186h120q102 0 151 -43.5t49 -128.5q0 -53 -21 -92t-65 -59.5t-114 -20.5h-230zM190 94h110q55 0 77.5 19.5t22.5 58.5t-22.5 58.5t-77.5 19.5h-110v-156z" />
    <glyph glyph-name="uni044D" unicode="&#x44d;" horiz-adv-x="555" vert-adv-y="0" 
d="M265 -11q-62 0 -110 22t-79 62.5t-41 96.5h112q13 -43 42.5 -64t75.5 -21q54 0 91 32t45 107h-196v92h196q-8 67 -46 98t-90 31q-56 0 -82 -24t-36 -61h-112q8 51 35.5 92t76 65t118.5 24t126.5 -29.5t90 -87.5t33.5 -144v-20q0 -91 -32 -151t-88 -90t-130 -30z" />
    <glyph glyph-name="yucy" unicode="&#x44e;" horiz-adv-x="775" vert-adv-y="0" 
d="M70 0v530h110v-213h59q7 72 40.5 122t87 76t118.5 26q71 0 127.5 -30t89.5 -88.5t33 -142.5v-20q0 -89 -33 -149.5t-89.5 -91t-127.5 -30.5q-66 0 -119.5 26.5t-86.5 78.5t-40 129h-59v-223h-110zM485 85q36 0 67.5 18t51 56.5t19.5 100.5v20q0 57 -19.5 93.5t-51 54
t-67.5 17.5t-67.5 -17.5t-51 -54t-19.5 -93.5v-20q0 -62 19.5 -100.5t51 -56.5t67.5 -18z" />
    <glyph glyph-name="yacy" unicode="&#x44f;" horiz-adv-x="575" vert-adv-y="0" 
d="M35 0l138 201q-60 18 -89 59t-29 99q0 52 23 90.5t70 59.5t117 21h240v-530h-110v188h-114l-118 -188h-128zM167 359q0 -42 25 -59.5t68 -17.5h135v154h-135q-43 0 -68 -17.5t-25 -59.5z" />
    <glyph glyph-name="uni0451" unicode="&#x451;" horiz-adv-x="580" vert-adv-y="1200" 
d="M300 -11q-70 0 -129 29.5t-95 89.5t-36 152v20q0 88 34.5 146t91.5 86.5t124 28.5q121 0 185.5 -65t64.5 -186v-56h-388q2 -54 23 -87t54 -47.5t71 -14.5q57 0 83.5 18t36.5 47h110q-16 -79 -78.5 -120t-151.5 -41zM295 445q-37 0 -69 -13t-52 -41t-22 -75h278
q-1 50 -19 78t-48 39.5t-68 11.5zM186 594q-29 0 -47.5 18.5t-18.5 47.5t18.5 47.5t47.5 18.5t47.5 -18.5t18.5 -47.5t-18.5 -47.5t-47.5 -18.5zM394 594q-29 0 -47.5 18.5t-18.5 47.5t18.5 47.5t47.5 18.5t47.5 -18.5t18.5 -47.5t-18.5 -47.5t-47.5 -18.5z" />
    <glyph glyph-name="uni0452" unicode="&#x452;" horiz-adv-x="625" vert-adv-y="0" 
d="M110 0v444h-90v86h90v170h110v-170h220v-86h-220v-148q12 25 33 46.5t52.5 35t74.5 13.5q94 0 142 -52.5t48 -153.5v-185q0 -83 -16 -129t-53 -64t-101 -18q-11 0 -25 0.5t-25 2.5v96q8 -2 17.5 -2.5t17.5 -0.5q26 0 42.5 10t24.5 36.5t8 73.5v155q0 67 -27.5 101
t-87.5 34q-43 0 -71 -19.5t-41 -50t-13 -65.5v-160h-110z" />
    <glyph glyph-name="uni0453" unicode="&#x453;" horiz-adv-x="460" vert-adv-y="1200" 
d="M70 0v530h370v-94h-260v-436h-110zM210 580l110 160h130l-150 -160h-90z" />
    <glyph glyph-name="uni0454" unicode="&#x454;" horiz-adv-x="555" vert-adv-y="0" 
d="M290 -11q-71 0 -128 30t-89.5 90t-32.5 151v20q0 86 34.5 144t91.5 87.5t124 29.5q70 0 118.5 -24t76 -65t35.5 -92h-112q-10 37 -36 61t-82 24q-33 0 -62 -13.5t-48.5 -42t-25.5 -73.5h196v-92h-196q6 -50 25.5 -80.5t48.5 -44.5t62 -14q47 0 76 21t42 64h112
q-10 -56 -41.5 -96.5t-79.5 -62.5t-109 -22z" />
    <glyph glyph-name="uni0455" unicode="&#x455;" horiz-adv-x="540" vert-adv-y="1200" 
d="M270 -11q-58 0 -100 13t-69.5 35.5t-42 51.5t-18.5 61h110q7 -28 34 -46.5t86 -18.5q66 0 93 18t27 47q0 17 -12.5 32t-42 26.5t-81.5 17.5q-45 6 -82 17.5t-63 30.5t-40 46.5t-14 64.5q0 43 23.5 78t71.5 56.5t120 21.5q70 0 114.5 -22.5t67.5 -59t28 -79.5h-110
q-8 31 -32.5 48t-67.5 17q-59 0 -82 -18t-23 -42q0 -26 25.5 -44.5t101.5 -26.5q47 -6 85 -18t65.5 -31.5t42.5 -47.5t15 -67q0 -45 -25.5 -81.5t-76.5 -58t-128 -21.5z" />
    <glyph glyph-name="uni0456" unicode="&#x456;" horiz-adv-x="270" vert-adv-y="1200" 
d="M80 0v530h110v-530h-110zM135 590q-31 0 -50.5 19.5t-19.5 50.5t19.5 50.5t50.5 19.5t50.5 -19.5t19.5 -50.5t-19.5 -50.5t-50.5 -19.5z" />
    <glyph glyph-name="uni0457" unicode="&#x457;" horiz-adv-x="270" vert-adv-y="1200" 
d="M80 0v530h110v-530h-110zM31 594q-29 0 -47.5 18.5t-18.5 47.5t18.5 47.5t47.5 18.5t47.5 -18.5t18.5 -47.5t-18.5 -47.5t-47.5 -18.5zM239 594q-29 0 -47.5 18.5t-18.5 47.5t18.5 47.5t47.5 18.5t47.5 -18.5t18.5 -47.5t-18.5 -47.5t-47.5 -18.5z" />
    <glyph glyph-name="uni0458" unicode="&#x458;" horiz-adv-x="270" vert-adv-y="1200" 
d="M20 -211q-11 0 -25 0.5t-25 2.5v96q8 -2 17.5 -2.5t17.5 -0.5q26 0 42.5 10t24.5 36.5t8 73.5v525h110v-530q0 -83 -16 -129t-53 -64t-101 -18zM135 590q-31 0 -50.5 19.5t-19.5 50.5t19.5 50.5t50.5 19.5t50.5 -19.5t19.5 -50.5t-19.5 -50.5t-50.5 -19.5z" />
    <glyph glyph-name="uni0459" unicode="&#x459;" horiz-adv-x="850" vert-adv-y="0" 
d="M60 -11q-8 0 -17.5 0.5t-17.5 2.5v104q3 -1 15 -1q28 0 45.5 24t26 83.5t8.5 167.5v160h390v-186h110q102 0 151 -43.5t49 -128.5q0 -53 -21 -92t-65 -59.5t-114 -20.5h-220v436h-174v-86q0 -106 -10.5 -176.5t-31.5 -110.5t-52 -57t-72 -17zM510 94h100q55 0 77.5 19.5
t22.5 58.5t-22.5 58.5t-77.5 19.5h-100v-156z" />
    <glyph glyph-name="uni045A" unicode="&#x45a;" horiz-adv-x="880" vert-adv-y="0" 
d="M70 0v530h110v-198h240v198h110v-198h130q94 0 142 -43t48 -123q0 -50 -20.5 -87.5t-62.5 -58t-107 -20.5h-240v238h-240v-238h-110zM530 94h120q46 0 67 18.5t21 53.5q0 34 -21 53t-67 19h-120v-144z" />
    <glyph glyph-name="uni045B" unicode="&#x45b;" horiz-adv-x="625" vert-adv-y="0" 
d="M110 0v444h-90v86h90v170h110v-170h220v-86h-220v-148q12 25 33 46.5t52.5 35t74.5 13.5q94 0 142 -52.5t48 -153.5v-185h-110v160q0 67 -27.5 101t-87.5 34q-43 0 -71 -19.5t-41 -50t-13 -65.5v-160h-110z" />
    <glyph glyph-name="uni045C" unicode="&#x45c;" horiz-adv-x="580" vert-adv-y="1200" 
d="M70 0v530h110v-215h60l186 215h124l-225 -253l235 -277h-134l-186 225h-60v-225h-110zM257 580l110 160h130l-150 -160h-90z" />
    <glyph glyph-name="uni045E" unicode="&#x45e;" horiz-adv-x="580" vert-adv-y="1200" 
d="M155 -211q-15 0 -30 3v96q15 -3 30 -3q22 0 36 10.5t26 35.5t28 69l-225 530h120l162 -410l146 410h112l-205 -530q-29 -74 -55 -121t-59 -68.5t-86 -21.5zM294 590q-83 0 -121.5 36.5t-38.5 103.5h102q0 -36 14.5 -52t43.5 -16t43.5 16t14.5 52h102q0 -67 -39 -103.5
t-121 -36.5z" />
    <glyph glyph-name="uni045F" unicode="&#x45f;" horiz-adv-x="590" vert-adv-y="0" 
d="M244 -125v125h-174v530h110v-436h230v436h110v-530h-174v-125h-102z" />
    <glyph glyph-name="Geupturncy" unicode="&#x490;" horiz-adv-x="560" vert-adv-y="0" 
d="M90 0v700h338v130h112v-234h-330v-596h-120z" />
    <glyph glyph-name="geupturncy" unicode="&#x491;" horiz-adv-x="460" vert-adv-y="0" 
d="M70 0v530h268v125h102v-219h-260v-436h-110z" />
    <glyph glyph-name="Gestrokecy" unicode="&#x492;" horiz-adv-x="570" vert-adv-y="0" 
d="M100 409v291h450v-104h-330v-187h187v-104h-187v-305h-120v305h-80v104h80z" />
    <glyph glyph-name="gestrokecy" unicode="&#x493;" horiz-adv-x="495" vert-adv-y="0" 
d="M30 213v94h75v223h370v-94h-260v-129h167v-94h-167v-213h-110v213h-75z" />
    <glyph glyph-name="Gemiddlehookcy" unicode="&#x494;" horiz-adv-x="645" vert-adv-y="0" 
d="M90 0v700h435v-104h-312v-193q18 12 57 27.5t99 15.5q64 0 111.5 -22.5t74.5 -69.5t27 -121v-241q0 -45 -11 -82t-35.5 -63.5t-64 -41t-96.5 -14.5h-43v96h31q55 0 77.5 26t22.5 82v220q0 67 -31.5 96.5t-93.5 29.5q-45 0 -76.5 -15t-48.5 -31v-295h-123z" />
    <glyph glyph-name="gemiddlehookcy" unicode="&#x495;" horiz-adv-x="561" vert-adv-y="0" 
d="M70 0v530h370v-94h-260v-122q23 14 54.5 24.5t79.5 10.5q97 0 146 -43.5t49 -144.5v-161q0 -83 -16 -129t-53 -64t-101 -18q-11 0 -25 0.5t-25 2.5v96q8 -2 17.5 -2.5t17.5 -0.5q28 0 44.5 9.5t23.5 35.5t7 75v141q0 61 -25 84t-85 23q-42 0 -70 -9t-39 -18v-226h-110z
" />
    <glyph glyph-name="uni0496" unicode="&#x496;" horiz-adv-x="998" vert-adv-y="0" 
d="M969 -130h-112v130h-41l-204 313h-60v-313h-123v313h-60l-209 -313h-135l247 362l-237 338h133l201 -293h60v293h123v-293h60l204 293h129l-237 -331l177 -265h84v-234z" />
    <glyph glyph-name="uni0497" unicode="&#x497;" horiz-adv-x="826" vert-adv-y="0" 
d="M803 -125h-99v125h-43l-153 226h-50v-226h-110v226h-51l-154 -226h-123l192 273l-182 257h120l148 -216h50v216h110v-216h50l153 216h116l-182 -251l127 -185h81v-219z" />
    <glyph glyph-name="uni0498" unicode="&#x498;" horiz-adv-x="650" vert-adv-y="1200" 
d="M384 -5v-125h-112v126zM325 -11q-87 0 -148.5 28t-94.5 77.5t-37 115.5h126q4 -34 23 -60t52 -40.5t79 -14.5q79 0 116.5 28t37.5 80q0 34 -16 58t-49.5 37.5t-88.5 13.5h-85v96h85q64 0 96.5 26.5t32.5 72.5q0 45 -30.5 71.5t-98.5 26.5q-44 0 -74 -11.5t-45.5 -34
t-19.5 -54.5h-126q7 94 72 150t193 56t191.5 -53t63.5 -146q0 -55 -31 -92.5t-83 -54.5q64 -15 101.5 -57t37.5 -110q0 -61 -31.5 -108.5t-93.5 -74t-155 -26.5z" />
    <glyph glyph-name="uni0499" unicode="&#x499;" horiz-adv-x="535" vert-adv-y="1200" 
d="M319 -2v-123h-100v123h100zM265 -11q-72 0 -122 20t-77 58.5t-31 92.5h112q4 -24 16.5 -41t37 -25.5t62.5 -8.5q68 0 94 22t26 55q0 30 -22.5 47.5t-78.5 17.5h-87v86h80q46 0 67 19t21 48q0 26 -22 45.5t-76 19.5q-58 0 -80.5 -19t-27.5 -51h-112q4 51 30 88t74 57.5
t116 20.5q109 0 159.5 -43t50.5 -112q0 -38 -18.5 -67t-60.5 -44q56 -14 77.5 -47t21.5 -76q0 -46 -25 -83t-76 -58.5t-129 -21.5z" />
    <glyph glyph-name="uni049A" unicode="&#x49a;" horiz-adv-x="729" vert-adv-y="0" 
d="M701 -130h-112v130h-55l-254 313h-70v-313h-120v700h120v-293h70l254 293h136l-295 -333l218 -263h108v-234z" />
    <glyph glyph-name="uni049B" unicode="&#x49b;" horiz-adv-x="587" vert-adv-y="0" 
d="M563 -125h-99v125h-38l-186 225h-60v-225h-110v530h110v-215h60l186 215h124l-225 -253l155 -183h83v-219z" />
    <glyph glyph-name="uni049C" unicode="&#x49c;" horiz-adv-x="742" vert-adv-y="0" 
d="M90 0v700h123v-296h50v119h102v-119h20l172 296h131l-205 -333l234 -367h-146l-186 308h-20v-113h-102v113h-50v-308h-123z" />
    <glyph glyph-name="uni049D" unicode="&#x49d;" horiz-adv-x="624" vert-adv-y="0" 
d="M70 0v530h111v-215h38v92h94v-92h15l134 215h122l-166 -254l186 -276h-130l-146 225h-15v-97h-94v97h-38v-225h-111z" />
    <glyph glyph-name="uni04A0" unicode="&#x4a0;" horiz-adv-x="798" vert-adv-y="0" 
d="M20 602v98h276v-293h70l254 293h136l-295 -333l305 -367h-146l-254 313h-70v-313h-120v602h-156z" />
    <glyph glyph-name="uni04A1" unicode="&#x4a1;" horiz-adv-x="657" vert-adv-y="0" 
d="M20 435v95h240v-215h60l181 215h126l-219 -252l229 -278h-136l-181 225h-60v-225h-110v435h-130z" />
    <glyph glyph-name="uni04A2" unicode="&#x4a2;" horiz-adv-x="779" vert-adv-y="0" 
d="M750 -130h-112v130h-91v308h-334v-308h-123v700h123v-288h334v288h123v-596h80v-234z" />
    <glyph glyph-name="uni04A3" unicode="&#x4a3;" horiz-adv-x="633" vert-adv-y="0" 
d="M610 -125h-99v125h-81v223h-250v-223h-110v530h110v-213h250v213h110v-436h70v-219z" />
    <glyph glyph-name="EnGecy" unicode="&#x4a4;" horiz-adv-x="1017" vert-adv-y="0" 
d="M213 0h-123v700h123v-288h334v288h450v-104h-327v-596h-123v308h-334v-308z" />
    <glyph glyph-name="engecy" unicode="&#x4a5;" horiz-adv-x="820" vert-adv-y="0" 
d="M430 0v223h-250v-223h-110v530h110v-213h250v213h370v-94h-260v-436h-110z" />
    <glyph glyph-name="uni04AA" unicode="&#x4aa;" horiz-adv-x="690" vert-adv-y="0" 
d="M420 -130h-112v123q-18 2 -35 6.5t-34 9.5q-82 30 -133 112t-51 224v20q0 91 24 156.5t65.5 107.5t97 62t118.5 20q58 0 108 -14.5t88 -43.5t61 -72t28 -101h-126q-13 65 -55.5 95t-103.5 30q-44 0 -85 -22.5t-67.5 -74.5t-26.5 -143v-20q0 -72 16 -120.5t42.5 -76.5
t58 -40.5t62.5 -12.5q72 0 111.5 33.5t47.5 91.5h126q-6 -62 -30 -106t-62 -71.5t-87 -40.5q-11 -3 -22.5 -5t-23.5 -4v-123z" />
    <glyph glyph-name="uni04AB" unicode="&#x4ab;" horiz-adv-x="555" vert-adv-y="0" 
d="M341 -125h-101v118q-13 2 -25.5 5t-24.5 7q-67 26 -108.5 89.5t-41.5 165.5v20q0 86 34.5 144t91.5 87.5t124 29.5q70 0 118.5 -24t76 -65t35.5 -92h-112q-10 37 -36 61t-82 24q-37 0 -68.5 -17t-50.5 -53.5t-19 -94.5v-20q0 -63 19 -101.5t50.5 -56t68.5 -17.5
q47 0 76 21t42 64h112q-12 -63 -49.5 -106t-96.5 -63q-8 -2 -16.5 -3.5t-16.5 -3.5v-119z" />
    <glyph glyph-name="uni04AE" unicode="&#x4ae;" horiz-adv-x="660" vert-adv-y="0" 
d="M401 0h-122v272l-269 428h141l190 -304l177 304h132l-249 -428v-272z" />
    <glyph glyph-name="uni04AF" unicode="&#x4af;" horiz-adv-x="573" vert-adv-y="0" 
d="M352 -229h-110v219l-225 540h122l159 -411l145 411h114l-205 -538v-221z" />
    <glyph glyph-name="uni04B0" unicode="&#x4b0;" horiz-adv-x="633" vert-adv-y="0" 
d="M269 0v196h-138v104h135l-249 400h141l173 -287l160 287h132l-229 -400h127v-104h-130v-196h-122z" />
    <glyph glyph-name="uni04B1" unicode="&#x4b1;" horiz-adv-x="557" vert-adv-y="0" 
d="M103 0v93h102l-188 437h122l151 -376l136 376h115l-173 -437h108v-93h-131v-229h-110v229h-132z" />
    <glyph glyph-name="uni04B2" unicode="&#x4b2;" horiz-adv-x="703" vert-adv-y="0" 
d="M674 -130h-112v130h-48l-178 280l-180 -280h-134l241 366l-231 334h136l170 -245l172 245h132l-230 -332l172 -264h90v-234z" />
    <glyph glyph-name="uni04B3" unicode="&#x4b3;" horiz-adv-x="579" vert-adv-y="0" 
d="M556 -125h-100v125h-42l-135 206l-137 -206h-122l191 276l-181 254h124l129 -178l127 178h120l-179 -250l125 -186h80v-219z" />
    <glyph glyph-name="uni04B6" unicode="&#x4b6;" horiz-adv-x="703" vert-adv-y="0" 
d="M563 0h-101v298q-26 -17 -71.5 -30.5t-105.5 -13.5q-119 0 -174.5 55t-55.5 176v215h123v-205q0 -73 31.5 -104t100.5 -31q56 0 92.5 13t59.5 28v299h123v-596h90v-234h-112v130z" />
    <glyph glyph-name="uni04B7" unicode="&#x4b7;" horiz-adv-x="592" vert-adv-y="0" 
d="M469 -125v125h-91v203q-23 -14 -54.5 -25t-80.5 -11q-96 0 -145.5 43.5t-49.5 144.5v175h110v-160q0 -60 25 -83.5t85 -23.5q42 0 70.5 9t39.5 18v240h110v-436h80v-219h-99z" />
    <glyph glyph-name="uni04B8" unicode="&#x4b8;" horiz-adv-x="670" vert-adv-y="0" 
d="M580 0h-123v323q-18 -14 -42 -23.5t-50 -15.5v-105h-102v96q-48 1 -84.5 11.5t-62.5 30.5t-42.5 49.5t-24 67.5t-7.5 85v181h122v-171q0 -68 21 -104.5t78 -45.5v128h102v-125q27 7 50 19.5t42 31.5v267h123v-700z" />
    <glyph glyph-name="uni04B9" unicode="&#x4b9;" horiz-adv-x="582" vert-adv-y="0" 
d="M398 0v230q-14 -8 -32 -15t-41 -12v-94h-94v86q-60 4 -101 24t-61.5 60t-20.5 103v148h110v-133q0 -49 17 -72.5t56 -30.5v93h94v-93q26 4 45.5 10.5t27.5 12.5v213h110v-530h-110z" />
    <glyph glyph-name="uni04BA" unicode="&#x4ba;" horiz-adv-x="660" vert-adv-y="0" 
d="M90 700h123v-278q26 17 72 31t110 14q115 0 170 -55.5t55 -176.5v-235h-123v225q0 73 -31.5 104.5t-103.5 31.5q-54 0 -90 -13t-59 -29v-319h-123v700z" />
    <glyph glyph-name="uni04BB" unicode="&#x4bb;" horiz-adv-x="605" vert-adv-y="1200" 
d="M70 0v700h110v-254q12 25 33.5 46.5t54 35t77.5 13.5q97 0 146 -52.5t49 -153.5v-335h-110v310q0 67 -28 101t-92 34q-46 0 -74.5 -19.5t-42 -50t-13.5 -65.5v-310h-110z" />
    <glyph glyph-name="uni04C0" unicode="&#x4c0;" horiz-adv-x="320" vert-adv-y="1200" 
d="M100 0v700h120v-700h-120z" />
    <glyph glyph-name="uni04C3" unicode="&#x4c3;" horiz-adv-x="668" vert-adv-y="0" 
d="M90 0v700h123v-296h94l192 296h137l-207 -301q47 -8 85.5 -33t61.5 -67t23 -102v-205q0 -45 -11 -82t-35.5 -63.5t-64 -41t-96.5 -14.5h-44v96h31q56 0 78 26t22 82v180q0 46 -16 75t-46.5 43.5t-72.5 14.5h-131v-308h-123z" />
    <glyph glyph-name="uni04C4" unicode="&#x4c4;" horiz-adv-x="558" vert-adv-y="0" 
d="M295 -200v94q8 -2 16 -3t16 -1q32 0 45.5 26t13.5 89v105q0 60 -29 87.5t-82 27.5h-94v-225h-111v530h111v-215h74l148 215h122l-163 -225q66 -14 100.5 -59t34.5 -123v-140q0 -65 -15 -107t-48 -62t-87 -20q-12 0 -25.5 1.5t-26.5 4.5z" />
    <glyph glyph-name="uni04C7" unicode="&#x4c7;" horiz-adv-x="760" vert-adv-y="0" 
d="M90 0v700h123v-288h334v288h123v-700q0 -52 -10 -91t-32.5 -65.5t-61 -39.5t-95.5 -13h-23v100h17q47 0 64.5 24.5t17.5 84.5v308h-334v-308h-123z" />
    <glyph glyph-name="uni04C8" unicode="&#x4c8;" horiz-adv-x="610" vert-adv-y="0" 
d="M70 0v530h110v-213h250v213h110v-547q0 -65 -15.5 -107t-48 -62t-85.5 -20q-13 0 -26 1.5t-27 4.5v94q9 -2 17 -3t15 -1q33 0 46.5 26t13.5 89v218h-250v-223h-110z" />
    <glyph glyph-name="uni04CB" unicode="&#x4cb;" horiz-adv-x="675" vert-adv-y="0" 
d="M375 -130v234h87v194q-26 -17 -71.5 -30.5t-105.5 -13.5q-119 0 -174.5 55t-55.5 176v215h123v-205q0 -73 31.5 -104t100.5 -31q56 0 92.5 13t59.5 28v299h123v-700h-98v-130h-112z" />
    <glyph glyph-name="uni04CC" unicode="&#x4cc;" horiz-adv-x="562" vert-adv-y="0" 
d="M310 -125v214h68v120q-23 -14 -54.5 -24.5t-80.5 -10.5q-96 0 -145.5 43.5t-49.5 144.5v168h110v-153q0 -61 25 -84t85 -23q42 0 70.5 8.5t39.5 18.5v233h110v-530h-79v-125h-99z" />
    <glyph glyph-name="uni04CF" unicode="&#x4cf;" horiz-adv-x="260" vert-adv-y="0" 
d="M185 0h-110v700h110v-700z" />
    <glyph glyph-name="uni04D0" unicode="&#x4d0;" horiz-adv-x="680" vert-adv-y="1200" 
d="M15 0l265 700h120l265 -700h-128l-59 158h-284l-59 -158h-120zM233 262h206l-102 288zM341 747q-62 0 -102 18.5t-59 54t-19 87.5h110q0 -46 17.5 -65t52.5 -19t52.5 19t17.5 65h110q0 -52 -19 -87.5t-59 -54t-102 -18.5z" />
    <glyph glyph-name="uni04D1" unicode="&#x4d1;" horiz-adv-x="570" vert-adv-y="1200" 
d="M225 -11q-57 0 -97.5 21.5t-61.5 59.5t-21 85q0 79 47 117.5t138 38.5h165v29q0 60 -26.5 82.5t-83.5 22.5q-51 0 -75 -16t-28 -44h-107q3 46 29 81t73.5 55t112.5 20t113.5 -20t75 -62.5t26.5 -112.5v-211q0 -42 1 -73.5t5 -61.5h-100q-3 23 -4.5 39t-1.5 40
q-19 -37 -65.5 -63.5t-114.5 -26.5zM255 85q38 0 69.5 13t51 39t19.5 63v29h-145q-42 0 -67.5 -18t-25.5 -53q0 -33 23.5 -53t74.5 -20zM290 591q-83 0 -121.5 36.5t-38.5 103.5h102q0 -36 14.5 -52t43.5 -16t43.5 16t14.5 52h102q0 -67 -39 -103.5t-121 -36.5z" />
    <glyph glyph-name="uni04D2" unicode="&#x4d2;" horiz-adv-x="680" vert-adv-y="1200" 
d="M15 0l265 700h120l265 -700h-128l-59 158h-284l-59 -158h-120zM233 262h206l-102 288zM225 755q-31 0 -50.5 19.5t-19.5 50.5t19.5 50.5t50.5 19.5t50.5 -19.5t19.5 -50.5t-19.5 -50.5t-50.5 -19.5zM455 755q-31 0 -50.5 19.5t-19.5 50.5t19.5 50.5t50.5 19.5t50.5 -19.5
t19.5 -50.5t-19.5 -50.5t-50.5 -19.5z" />
    <glyph glyph-name="uni04D3" unicode="&#x4d3;" horiz-adv-x="570" vert-adv-y="1200" 
d="M225 -11q-57 0 -97.5 21.5t-61.5 59.5t-21 85q0 79 47 117.5t138 38.5h165v29q0 60 -26.5 82.5t-83.5 22.5q-51 0 -75 -16t-28 -44h-107q3 46 29 81t73.5 55t112.5 20t113.5 -20t75 -62.5t26.5 -112.5v-211q0 -42 1 -73.5t5 -61.5h-100q-3 23 -4.5 39t-1.5 40
q-19 -37 -65.5 -63.5t-114.5 -26.5zM255 85q38 0 69.5 13t51 39t19.5 63v29h-145q-42 0 -67.5 -18t-25.5 -53q0 -33 23.5 -53t74.5 -20zM186 594q-29 0 -47.5 18.5t-18.5 47.5t18.5 47.5t47.5 18.5t47.5 -18.5t18.5 -47.5t-18.5 -47.5t-47.5 -18.5zM394 594
q-29 0 -47.5 18.5t-18.5 47.5t18.5 47.5t47.5 18.5t47.5 -18.5t18.5 -47.5t-18.5 -47.5t-47.5 -18.5z" />
    <glyph glyph-name="uni04D4" unicode="&#x4d4;" horiz-adv-x="975" vert-adv-y="1200" 
d="M10 0l410 700h500v-104h-350v-184h320v-104h-320v-204h350v-104h-470v158h-220l-92 -158h-128zM289 262h161v288z" />
    <glyph glyph-name="uni04D5" unicode="&#x4d5;" horiz-adv-x="935" vert-adv-y="1200" 
d="M225 -11q-57 0 -97.5 21.5t-61.5 59.5t-21 85q0 79 47 116.5t138 37.5h165v31q0 60 -26.5 82.5t-83.5 22.5q-51 0 -75 -16t-28 -44h-107q3 46 29 81t73.5 55t112.5 20q60 0 106.5 -21.5t69.5 -60.5q32 45 77.5 63.5t101.5 18.5q121 0 185.5 -65t64.5 -186v-62h-388
q2 -51 23 -82.5t54 -46t71 -14.5q57 0 83.5 18t36.5 47h110q-16 -78 -78.5 -119.5t-151.5 -41.5q-69 0 -122.5 26t-82.5 77q-29 -49 -84.5 -76t-140.5 -27zM255 85q38 0 69.5 13t51 38.5t19.5 62.5v30h-145q-42 0 -67.5 -18t-25.5 -53q0 -33 23.5 -53t74.5 -20zM650 445
q-37 0 -69 -13t-52 -42t-22 -78h278q-1 52 -19 80.5t-48 40.5t-68 12z" />
    <glyph glyph-name="uni04D6" unicode="&#x4d6;" horiz-adv-x="615" vert-adv-y="1200" 
d="M90 0v700h470v-104h-350v-184h320v-104h-320v-204h350v-104h-470zM325 745q-62 0 -102 18.5t-59 54t-19 87.5h110q0 -46 17.5 -65t52.5 -19t52.5 19t17.5 65h110q0 -52 -19 -87.5t-59 -54t-102 -18.5z" />
    <glyph glyph-name="uni04D7" unicode="&#x4d7;" horiz-adv-x="580" vert-adv-y="1200" 
d="M300 -11q-70 0 -129 29.5t-95 89.5t-36 152v20q0 88 34.5 146t91.5 86.5t124 28.5q121 0 185.5 -65t64.5 -186v-56h-388q2 -54 23 -87t54 -47.5t71 -14.5q57 0 83.5 18t36.5 47h110q-16 -79 -78.5 -120t-151.5 -41zM295 445q-37 0 -69 -13t-52 -41t-22 -75h278
q-1 50 -19 78t-48 39.5t-68 11.5zM291 590q-83 0 -121.5 36.5t-38.5 103.5h102q0 -36 14.5 -52t43.5 -16t43.5 16t14.5 52h102q0 -67 -39 -103.5t-121 -36.5z" />
    <glyph glyph-name="uni04D8" unicode="&#x4d8;" horiz-adv-x="715" vert-adv-y="0" 
d="M341 -11q-66 0 -119.5 20.5t-92 63.5t-59 110.5t-20.5 161.5v57h480q-4 75 -30 119.5t-66 64t-85 19.5q-54 0 -95.5 -27t-59.5 -88h-129q14 72 53.5 121.5t98.5 74.5t130 25q64 0 120.5 -20.5t100 -62.5t68 -107.5t24.5 -155.5v-20q0 -125 -43 -203.5t-115.5 -115.5
t-160.5 -37zM342 95q49 0 89.5 21t67 69t31.5 127h-358q6 -81 28.5 -128.5t59 -68t82.5 -20.5z" />
    <glyph glyph-name="uni04D9" unicode="&#x4d9;" horiz-adv-x="583" vert-adv-y="0" 
d="M282 541q71 0 130 -29.5t95 -89.5t36 -152v-20q0 -88 -34 -146t-91 -86.5t-126 -28.5q-123 0 -187.5 65t-64.5 186v56h392q0 55 -22.5 88t-57 48t-70.5 15q-55 0 -85 -17.5t-42 -49.5h-105q16 80 78.5 120.5t153.5 40.5zM432 214h-286q2 -48 20.5 -77t50 -41.5
t70.5 -12.5q36 0 69.5 13.5t54.5 42.5t21 75z" />
    <glyph glyph-name="uni04DA" unicode="&#x4da;" horiz-adv-x="715" vert-adv-y="1200" 
d="M341 -11q-66 0 -119.5 20.5t-92 63.5t-59 110.5t-20.5 161.5v57h480q-4 75 -30 119.5t-66 64t-85 19.5q-54 0 -95.5 -27t-59.5 -88h-129q14 72 53.5 121.5t98.5 74.5t130 25q64 0 120.5 -20.5t100 -62.5t68 -107.5t24.5 -155.5v-20q0 -125 -43 -203.5t-115.5 -115.5
t-160.5 -37zM342 95q49 0 89.5 21t67 69t31.5 127h-358q6 -81 28.5 -128.5t59 -68t82.5 -20.5zM243 755q-31 0 -50.5 19.5t-19.5 50.5t19.5 50.5t50.5 19.5t50.5 -19.5t19.5 -50.5t-19.5 -50.5t-50.5 -19.5zM473 755q-31 0 -50.5 19.5t-19.5 50.5t19.5 50.5t50.5 19.5
t50.5 -19.5t19.5 -50.5t-19.5 -50.5t-50.5 -19.5z" />
    <glyph glyph-name="uni04DB" unicode="&#x4db;" horiz-adv-x="583" vert-adv-y="1200" 
d="M282 541q71 0 130 -29.5t95 -89.5t36 -152v-20q0 -88 -34 -146t-91 -86.5t-126 -28.5q-123 0 -187.5 65t-64.5 186v56h392q0 55 -22.5 88t-57 48t-70.5 15q-55 0 -85 -17.5t-42 -49.5h-105q16 80 78.5 120.5t153.5 40.5zM432 214h-286q2 -48 20.5 -77t50 -41.5
t70.5 -12.5q36 0 69.5 13.5t54.5 42.5t21 75zM188 594q-29 0 -47.5 18.5t-18.5 47.5t18.5 47.5t47.5 18.5t47.5 -18.5t18.5 -47.5t-18.5 -47.5t-47.5 -18.5zM396 594q-29 0 -47.5 18.5t-18.5 47.5t18.5 47.5t47.5 18.5t47.5 -18.5t18.5 -47.5t-18.5 -47.5t-47.5 -18.5z" />
    <glyph glyph-name="uni04DC" unicode="&#x4dc;" horiz-adv-x="980" vert-adv-y="1200" 
d="M25 0l250 364l-240 336h130l205 -293h60v293h120v-293h60l209 293h126l-240 -332l250 -368h-136l-209 313h-60v-313h-120v313h-60l-211 -313h-134zM375 755q-31 0 -50.5 19.5t-19.5 50.5t19.5 50.5t50.5 19.5t50.5 -19.5t19.5 -50.5t-19.5 -50.5t-50.5 -19.5zM605 755
q-31 0 -50.5 19.5t-19.5 50.5t19.5 50.5t50.5 19.5t50.5 -19.5t19.5 -50.5t-19.5 -50.5t-50.5 -19.5z" />
    <glyph glyph-name="uni04DD" unicode="&#x4dd;" horiz-adv-x="810" vert-adv-y="1200" 
d="M20 0l190 273l-180 257h126l144 -213h50v213h110v-213h50l156 213h114l-190 -252l200 -278h-124l-156 223h-50v-223h-110v223h-50l-150 -223h-130zM301 594q-29 0 -47.5 18.5t-18.5 47.5t18.5 47.5t47.5 18.5t47.5 -18.5t18.5 -47.5t-18.5 -47.5t-47.5 -18.5zM509 594
q-29 0 -47.5 18.5t-18.5 47.5t18.5 47.5t47.5 18.5t47.5 -18.5t18.5 -47.5t-18.5 -47.5t-47.5 -18.5z" />
    <glyph glyph-name="uni04DE" unicode="&#x4de;" horiz-adv-x="650" vert-adv-y="1200" 
d="M325 -11q-87 0 -148.5 28t-94.5 77.5t-37 115.5h126q4 -34 23 -60t52 -40.5t79 -14.5q79 0 116.5 28t37.5 80q0 34 -16 58t-49.5 37.5t-88.5 13.5h-85v96h85q64 0 96.5 26.5t32.5 72.5q0 45 -30.5 71.5t-98.5 26.5q-44 0 -74 -11.5t-45.5 -34t-19.5 -54.5h-126
q7 94 72 150t193 56t191.5 -53t63.5 -146q0 -55 -31 -92.5t-83 -54.5q64 -15 101.5 -57t37.5 -110q0 -61 -31.5 -108.5t-93.5 -74t-155 -26.5zM210 755q-31 0 -50.5 19.5t-19.5 50.5t19.5 50.5t50.5 19.5t50.5 -19.5t19.5 -50.5t-19.5 -50.5t-50.5 -19.5zM440 755
q-31 0 -50.5 19.5t-19.5 50.5t19.5 50.5t50.5 19.5t50.5 -19.5t19.5 -50.5t-19.5 -50.5t-50.5 -19.5z" />
    <glyph glyph-name="uni04DF" unicode="&#x4df;" horiz-adv-x="535" vert-adv-y="1200" 
d="M265 -11q-72 0 -122 20t-77 58.5t-31 92.5h112q4 -24 16.5 -41t37 -25.5t62.5 -8.5q68 0 94 22t26 55q0 30 -22.5 47.5t-78.5 17.5h-87v86h80q46 0 67 19t21 48q0 26 -22 45.5t-76 19.5q-58 0 -80.5 -19t-27.5 -51h-112q4 51 30 88t74 57.5t116 20.5q109 0 159.5 -43
t50.5 -112q0 -38 -18.5 -67t-60.5 -44q56 -14 77.5 -47t21.5 -76q0 -46 -25 -83t-76 -58.5t-129 -21.5zM164 594q-29 0 -47.5 18.5t-18.5 47.5t18.5 47.5t47.5 18.5t47.5 -18.5t18.5 -47.5t-18.5 -47.5t-47.5 -18.5zM372 594q-29 0 -47.5 18.5t-18.5 47.5t18.5 47.5
t47.5 18.5t47.5 -18.5t18.5 -47.5t-18.5 -47.5t-47.5 -18.5z" />
    <glyph glyph-name="uni04E2" unicode="&#x4e2;" horiz-adv-x="760" vert-adv-y="1200" 
d="M90 0v700h120v-510l344 510h116v-700h-120v510l-344 -510h-116zM230 778v94h300v-94h-300z" />
    <glyph glyph-name="uni04E3" unicode="&#x4e3;" horiz-adv-x="610" vert-adv-y="1200" 
d="M70 0v530h110v-375l255 375h105v-530h-110v375l-255 -375h-105zM165 618v84h280v-84h-280z" />
    <glyph glyph-name="uni04E4" unicode="&#x4e4;" horiz-adv-x="760" vert-adv-y="1200" 
d="M90 0v700h120v-510l344 510h116v-700h-120v510l-344 -510h-116zM265 755q-31 0 -50.5 19.5t-19.5 50.5t19.5 50.5t50.5 19.5t50.5 -19.5t19.5 -50.5t-19.5 -50.5t-50.5 -19.5zM495 755q-31 0 -50.5 19.5t-19.5 50.5t19.5 50.5t50.5 19.5t50.5 -19.5t19.5 -50.5
t-19.5 -50.5t-50.5 -19.5z" />
    <glyph glyph-name="uni04E5" unicode="&#x4e5;" horiz-adv-x="610" vert-adv-y="1200" 
d="M70 0v530h110v-375l255 375h105v-530h-110v375l-255 -375h-105zM201 594q-29 0 -47.5 18.5t-18.5 47.5t18.5 47.5t47.5 18.5t47.5 -18.5t18.5 -47.5t-18.5 -47.5t-47.5 -18.5zM409 594q-29 0 -47.5 18.5t-18.5 47.5t18.5 47.5t47.5 18.5t47.5 -18.5t18.5 -47.5
t-18.5 -47.5t-47.5 -18.5z" />
    <glyph glyph-name="uni04E6" unicode="&#x4e6;" horiz-adv-x="750" vert-adv-y="1200" 
d="M375 -11q-64 0 -121.5 20t-102.5 62.5t-70.5 110t-25.5 163.5v20q0 92 25.5 157.5t70.5 107.5t102.5 61.5t121.5 19.5t121.5 -19.5t102.5 -61.5t70.5 -107.5t25.5 -157.5v-20q0 -96 -25.5 -163.5t-70.5 -110t-102.5 -62.5t-121.5 -20zM375 95q50 0 94 24t72 78.5
t28 147.5v20q0 88 -28 140.5t-72 76t-94 23.5t-94.5 -23.5t-72 -76t-27.5 -140.5v-20q0 -93 27.5 -147.5t72 -78.5t94.5 -24zM260 755q-31 0 -50.5 19.5t-19.5 50.5t19.5 50.5t50.5 19.5t50.5 -19.5t19.5 -50.5t-19.5 -50.5t-50.5 -19.5zM490 755q-31 0 -50.5 19.5
t-19.5 50.5t19.5 50.5t50.5 19.5t50.5 -19.5t19.5 -50.5t-19.5 -50.5t-50.5 -19.5z" />
    <glyph glyph-name="uni04E7" unicode="&#x4e7;" horiz-adv-x="600" vert-adv-y="1200" 
d="M300 -11q-73 0 -132 30.5t-93.5 91t-34.5 149.5v20q0 84 34.5 142.5t93.5 88.5t132 30q74 0 132.5 -30t93 -88.5t34.5 -142.5v-20q0 -89 -34.5 -149.5t-93 -91t-132.5 -30.5zM300 85q38 0 72 18t55 56.5t21 100.5v20q0 57 -21 93.5t-55 54t-72 17.5t-72 -17.5t-55 -54
t-21 -93.5v-20q0 -62 21 -100.5t55 -56.5t72 -18zM196 594q-29 0 -47.5 18.5t-18.5 47.5t18.5 47.5t47.5 18.5t47.5 -18.5t18.5 -47.5t-18.5 -47.5t-47.5 -18.5zM404 594q-29 0 -47.5 18.5t-18.5 47.5t18.5 47.5t47.5 18.5t47.5 -18.5t18.5 -47.5t-18.5 -47.5t-47.5 -18.5z
" />
    <glyph glyph-name="uni04E8" unicode="&#x4e8;" horiz-adv-x="757" vert-adv-y="0" 
d="M378 -11q-64 0 -122 20.5t-103.5 63t-71.5 110.5t-26 162v20q0 91 26 156.5t71.5 107.5t103.5 62t122 20t122.5 -20t104 -62t71.5 -107.5t26 -156.5v-20q0 -94 -26 -162t-71.5 -110.5t-104 -63t-122.5 -20.5zM378 95q47 0 88.5 20t70 66.5t34.5 123.5h-386
q7 -77 35 -123.5t69.5 -66.5t88.5 -20zM378 605q-46 0 -88 -20t-70 -64t-35 -116h386q-6 72 -34.5 116t-70 64t-88.5 20z" />
    <glyph glyph-name="uni04E9" unicode="&#x4e9;" horiz-adv-x="607" vert-adv-y="0" 
d="M303 -11q-70 0 -130 29.5t-96.5 90t-36.5 151.5v20q0 86 36.5 144t96.5 87.5t130 29.5q71 0 131 -29.5t96.5 -87.5t36.5 -144v-20q0 -91 -36.5 -151t-96.5 -90t-131 -30zM303 85q38 0 70 15.5t53.5 48t26.5 84.5h-299q4 -52 25.5 -84.5t54 -48t69.5 -15.5zM303 445
q-36 0 -67.5 -14t-52.5 -43t-28 -74h296q-6 45 -27.5 74t-53 43t-67.5 14z" />
    <glyph glyph-name="uni04EA" unicode="&#x4ea;" horiz-adv-x="757" vert-adv-y="1200" 
d="M378 -11q-64 0 -122 20.5t-103.5 63t-71.5 110.5t-26 162v20q0 91 26 156.5t71.5 107.5t103.5 62t122 20t122.5 -20t104 -62t71.5 -107.5t26 -156.5v-20q0 -94 -26 -162t-71.5 -110.5t-104 -63t-122.5 -20.5zM378 95q47 0 88.5 20t70 66.5t34.5 123.5h-386
q7 -77 35 -123.5t69.5 -66.5t88.5 -20zM378 605q-46 0 -88 -20t-70 -64t-35 -116h386q-6 72 -34.5 116t-70 64t-88.5 20zM264 755q-31 0 -50.5 19.5t-19.5 50.5t19.5 50.5t50.5 19.5t50.5 -19.5t19.5 -50.5t-19.5 -50.5t-50.5 -19.5zM494 755q-31 0 -50.5 19.5t-19.5 50.5
t19.5 50.5t50.5 19.5t50.5 -19.5t19.5 -50.5t-19.5 -50.5t-50.5 -19.5z" />
    <glyph glyph-name="uni04EB" unicode="&#x4eb;" horiz-adv-x="607" vert-adv-y="1200" 
d="M303 -11q-70 0 -130 29.5t-96.5 90t-36.5 151.5v20q0 86 36.5 144t96.5 87.5t130 29.5q71 0 131 -29.5t96.5 -87.5t36.5 -144v-20q0 -91 -36.5 -151t-96.5 -90t-131 -30zM303 85q38 0 70 15.5t53.5 48t26.5 84.5h-299q4 -52 25.5 -84.5t54 -48t69.5 -15.5zM303 445
q-36 0 -67.5 -14t-52.5 -43t-28 -74h296q-6 45 -27.5 74t-53 43t-67.5 14zM200 594q-29 0 -47.5 18.5t-18.5 47.5t18.5 47.5t47.5 18.5t47.5 -18.5t18.5 -47.5t-18.5 -47.5t-47.5 -18.5zM408 594q-29 0 -47.5 18.5t-18.5 47.5t18.5 47.5t47.5 18.5t47.5 -18.5t18.5 -47.5
t-18.5 -47.5t-47.5 -18.5z" />
    <glyph glyph-name="uni04EE" unicode="&#x4ee;" horiz-adv-x="680" vert-adv-y="1200" 
d="M205 -11q-11 0 -21.5 0.5t-18.5 1.5v107q8 -1 18.5 -2t21.5 -1q27 0 44.5 6t30 21.5t23.5 43.5l-288 534h140l211 -405l175 405h124l-246 -552q-19 -42 -39 -72.5t-44 -49.5t-55.5 -28t-75.5 -9zM190 778v94h300v-94h-300z" />
    <glyph glyph-name="uni04EF" unicode="&#x4ef;" horiz-adv-x="580" vert-adv-y="1200" 
d="M155 -211q-15 0 -30 3v96q15 -3 30 -3q22 0 36 10.5t26 35.5t28 69l-225 530h120l162 -410l146 410h112l-205 -530q-29 -74 -55 -121t-59 -68.5t-86 -21.5zM150 618v84h280v-84h-280z" />
    <glyph glyph-name="uni04F0" unicode="&#x4f0;" horiz-adv-x="680" vert-adv-y="1200" 
d="M205 -11q-11 0 -21.5 0.5t-18.5 1.5v107q8 -1 18.5 -2t21.5 -1q27 0 44.5 6t30 21.5t23.5 43.5l-288 534h140l211 -405l175 405h124l-246 -552q-19 -42 -39 -72.5t-44 -49.5t-55.5 -28t-75.5 -9zM225 755q-31 0 -50.5 19.5t-19.5 50.5t19.5 50.5t50.5 19.5t50.5 -19.5
t19.5 -50.5t-19.5 -50.5t-50.5 -19.5zM455 755q-31 0 -50.5 19.5t-19.5 50.5t19.5 50.5t50.5 19.5t50.5 -19.5t19.5 -50.5t-19.5 -50.5t-50.5 -19.5z" />
    <glyph glyph-name="uni04F1" unicode="&#x4f1;" horiz-adv-x="580" vert-adv-y="1200" 
d="M155 -211q-15 0 -30 3v96q15 -3 30 -3q22 0 36 10.5t26 35.5t28 69l-225 530h120l162 -410l146 410h112l-205 -530q-29 -74 -55 -121t-59 -68.5t-86 -21.5zM186 594q-29 0 -47.5 18.5t-18.5 47.5t18.5 47.5t47.5 18.5t47.5 -18.5t18.5 -47.5t-18.5 -47.5t-47.5 -18.5z
M394 594q-29 0 -47.5 18.5t-18.5 47.5t18.5 47.5t47.5 18.5t47.5 -18.5t18.5 -47.5t-18.5 -47.5t-47.5 -18.5z" />
    <glyph glyph-name="uni04F2" unicode="&#x4f2;" horiz-adv-x="680" vert-adv-y="1200" 
d="M205 -11q-11 0 -21.5 0.5t-18.5 1.5v107q8 -1 18.5 -2t21.5 -1q27 0 44.5 6t30 21.5t23.5 43.5l-288 534h140l211 -405l175 405h124l-246 -552q-19 -42 -39 -72.5t-44 -49.5t-55.5 -28t-75.5 -9zM216 750l112 150h114l-134 -150h-92zM373 750l137 150h116l-161 -150h-92z
" />
    <glyph glyph-name="uni04F3" unicode="&#x4f3;" horiz-adv-x="580" vert-adv-y="1200" 
d="M155 -211q-15 0 -30 3v96q15 -3 30 -3q22 0 36 10.5t26 35.5t28 69l-225 530h120l162 -410l146 410h112l-205 -530q-29 -74 -55 -121t-59 -68.5t-86 -21.5zM221 580h-83l96 160h124zM418 580h-87l127 160h127z" />
    <glyph glyph-name="uni04F4" unicode="&#x4f4;" horiz-adv-x="675" vert-adv-y="1200" 
d="M465 0v294q-26 -16 -73 -29t-107 -13q-118 0 -174 56t-56 177v215h120v-205q0 -72 32.5 -104.5t102.5 -32.5q54 0 93 12.5t62 27.5v302h120v-700h-120zM223 755q-31 0 -50.5 19.5t-19.5 50.5t19.5 50.5t50.5 19.5t50.5 -19.5t19.5 -50.5t-19.5 -50.5t-50.5 -19.5z
M453 755q-31 0 -50.5 19.5t-19.5 50.5t19.5 50.5t50.5 19.5t50.5 -19.5t19.5 -50.5t-19.5 -50.5t-50.5 -19.5z" />
    <glyph glyph-name="uni04F5" unicode="&#x4f5;" horiz-adv-x="560" vert-adv-y="1200" 
d="M380 0v203q-23 -14 -54.5 -25t-80.5 -11q-95 0 -145 45t-50 143v175h110v-160q0 -60 24.5 -83.5t85.5 -23.5q42 0 70.5 9.5t39.5 18.5v239h110v-530h-110zM176 594q-29 0 -47.5 18.5t-18.5 47.5t18.5 47.5t47.5 18.5t47.5 -18.5t18.5 -47.5t-18.5 -47.5t-47.5 -18.5z
M384 594q-29 0 -47.5 18.5t-18.5 47.5t18.5 47.5t47.5 18.5t47.5 -18.5t18.5 -47.5t-18.5 -47.5t-47.5 -18.5z" />
    <glyph glyph-name="uni04F8" unicode="&#x4f8;" horiz-adv-x="900" vert-adv-y="1200" 
d="M90 0v700h120v-264h115q141 0 208 -59.5t67 -158.5t-67 -158.5t-208 -59.5h-235zM210 104h105q95 0 130 29t35 85t-35 85t-130 29h-105v-228zM690 0v700h120v-700h-120zM335 755q-31 0 -50.5 19.5t-19.5 50.5t19.5 50.5t50.5 19.5t50.5 -19.5t19.5 -50.5t-19.5 -50.5
t-50.5 -19.5zM565 755q-31 0 -50.5 19.5t-19.5 50.5t19.5 50.5t50.5 19.5t50.5 -19.5t19.5 -50.5t-19.5 -50.5t-50.5 -19.5z" />
    <glyph glyph-name="uni04F9" unicode="&#x4f9;" horiz-adv-x="740" vert-adv-y="1200" 
d="M70 0v530h110v-186h100q102 0 151 -43.5t49 -128.5q0 -53 -21 -92t-65 -59.5t-114 -20.5h-210zM180 94h90q55 0 77.5 19.5t22.5 58.5t-22.5 58.5t-77.5 19.5h-90v-156zM550 0v530h110v-530h-110zM264 594q-29 0 -47.5 18.5t-18.5 47.5t18.5 47.5t47.5 18.5t47.5 -18.5
t18.5 -47.5t-18.5 -47.5t-47.5 -18.5zM472 594q-29 0 -47.5 18.5t-18.5 47.5t18.5 47.5t47.5 18.5t47.5 -18.5t18.5 -47.5t-18.5 -47.5t-47.5 -18.5z" />
    <glyph glyph-name="uni0512" unicode="&#x512;" horiz-adv-x="720" vert-adv-y="0" 
d="M408 -209v100h17q47 0 64.5 24.5t17.5 84.5v596h-248v-96q0 -131 -8 -221t-24.5 -147.5t-40.5 -88.5t-55.5 -42.5t-70.5 -11.5q-8 0 -17.5 0.5t-17.5 2.5v114q2 -1 15 -1q22 0 39 8.5t28.5 32.5t19 70t10.5 120.5t3 183.5v180h490v-700q0 -52 -10 -91.5t-32.5 -65.5
t-61.5 -39t-96 -13h-22z" />
    <glyph glyph-name="uni0513" unicode="&#x513;" horiz-adv-x="588" vert-adv-y="0" 
d="M316 -200v94q9 -2 17 -3t15 -1q33 0 46.5 26t13.5 89v431h-183v-86q0 -106 -10.5 -176.5t-31.5 -110.5t-52.5 -57t-72.5 -17q-8 0 -17.5 0.5t-17.5 2.5v103q2 -1 15 -1q28 0 45.5 24t26 84.5t8.5 167.5v160h400v-547q0 -65 -15.5 -107t-48 -62t-85.5 -20q-13 0 -26 1.5
t-27 4.5z" />
    <glyph glyph-name="Wgrave" unicode="&#x1e80;" horiz-adv-x="970" vert-adv-y="1200" 
d="M210 0l-185 700h124l133 -520l153 520h100l162 -520l132 520h116l-185 -700h-120l-159 520l-151 -520h-120zM435 750l-150 150h140l110 -150h-100z" />
    <glyph glyph-name="wgrave" unicode="&#x1e81;" horiz-adv-x="830" vert-adv-y="1200" 
d="M175 0l-145 530h116l97 -390l122 390h100l130 -390l97 390h108l-145 -530h-110l-132 390l-128 -390h-110zM370 580l-150 160h130l110 -160h-90z" />
    <glyph glyph-name="Wacute" unicode="&#x1e82;" horiz-adv-x="970" vert-adv-y="1200" 
d="M210 0l-185 700h124l133 -520l153 520h100l162 -520l132 520h116l-185 -700h-120l-159 520l-151 -520h-120zM435 750l110 150h140l-150 -150h-100z" />
    <glyph glyph-name="wacute" unicode="&#x1e83;" horiz-adv-x="830" vert-adv-y="1200" 
d="M175 0l-145 530h116l97 -390l122 390h100l130 -390l97 390h108l-145 -530h-110l-132 390l-128 -390h-110zM370 580l110 160h130l-150 -160h-90z" />
    <glyph glyph-name="Wdieresis" unicode="&#x1e84;" horiz-adv-x="970" vert-adv-y="1200" 
d="M210 0l-185 700h124l133 -520l153 520h100l162 -520l132 520h116l-185 -700h-120l-159 520l-151 -520h-120zM370 755q-31 0 -50.5 19.5t-19.5 50.5t19.5 50.5t50.5 19.5t50.5 -19.5t19.5 -50.5t-19.5 -50.5t-50.5 -19.5zM600 755q-31 0 -50.5 19.5t-19.5 50.5t19.5 50.5
t50.5 19.5t50.5 -19.5t19.5 -50.5t-19.5 -50.5t-50.5 -19.5z" />
    <glyph glyph-name="wdieresis" unicode="&#x1e85;" horiz-adv-x="830" vert-adv-y="1200" 
d="M175 0l-145 530h116l97 -390l122 390h100l130 -390l97 390h108l-145 -530h-110l-132 390l-128 -390h-110zM311 594q-29 0 -47.5 18.5t-18.5 47.5t18.5 47.5t47.5 18.5t47.5 -18.5t18.5 -47.5t-18.5 -47.5t-47.5 -18.5zM519 594q-29 0 -47.5 18.5t-18.5 47.5t18.5 47.5
t47.5 18.5t47.5 -18.5t18.5 -47.5t-18.5 -47.5t-47.5 -18.5z" />
    <glyph glyph-name="uni1E9E" unicode="&#x1e9e;" horiz-adv-x="667" vert-adv-y="0" 
d="M348 709q68 0 114 -18t75 -49.5t44 -70.5t19 -81l-143 -105q62 -6 98 -30.5t51.5 -63t15.5 -87.5q0 -47 -15.5 -84.5t-46 -64.5t-75.5 -41t-104 -14h-45v101h34q69 0 99.5 29t30.5 78q0 51 -31 77.5t-101 26.5h-43v80l154 115q-4 42 -34.5 69.5t-88.5 27.5
q-75 0 -111.5 -42.5t-36.5 -124.5v-437h-123v451q0 76 31.5 134t90.5 91t141 33z" />
    <glyph glyph-name="Ygrave" unicode="&#x1ef2;" horiz-adv-x="660" vert-adv-y="1200" 
d="M280 0v270l-270 430h142l190 -310l176 310h132l-250 -430v-270h-120zM280 750l-150 150h140l110 -150h-100z" />
    <glyph glyph-name="ygrave" unicode="&#x1ef3;" horiz-adv-x="580" vert-adv-y="1200" 
d="M155 -211q-15 0 -30 3v96q15 -3 30 -3q22 0 36 10.5t26 35.5t28 69l-225 530h120l162 -410l146 410h112l-205 -530q-29 -74 -55 -121t-59 -68.5t-86 -21.5zM245 580l-150 160h130l110 -160h-90z" />
    <glyph glyph-name="uni2009" unicode="&#x2009;" horiz-adv-x="154" vert-adv-y="0" 
 />
    <glyph glyph-name="uni2010" unicode="&#x2010;" horiz-adv-x="380" vert-adv-y="0" 
d="M35 228v104h310v-104h-310z" />
    <glyph glyph-name="uni2011" unicode="&#x2011;" horiz-adv-x="380" vert-adv-y="0" 
d="M35 228v104h310v-104h-310z" />
    <glyph glyph-name="figuredash" unicode="&#x2012;" horiz-adv-x="590" vert-adv-y="0" 
d="M53 308v104h484v-104h-484z" />
    <glyph glyph-name="endash" unicode="&#x2013;" horiz-adv-x="530" vert-adv-y="0" 
d="M35 228v104h460v-104h-460z" />
    <glyph glyph-name="emdash" unicode="&#x2014;" horiz-adv-x="730" vert-adv-y="0" 
d="M35 228v104h660v-104h-660z" />
    <glyph glyph-name="quoteleft" unicode="&#x2018;" horiz-adv-x="310" vert-adv-y="0" 
d="M260 700l-40 -155v-126h-130v126l110 155h60z" />
    <glyph glyph-name="quoteright" unicode="&#x2019;" horiz-adv-x="310" vert-adv-y="0" 
d="M50 419l40 155v126h130v-126l-110 -155h-60z" />
    <glyph glyph-name="quotesinglbase" unicode="&#x201a;" horiz-adv-x="310" vert-adv-y="0" 
d="M50 -155l40 155v126h130v-126l-110 -155h-60z" />
    <glyph glyph-name="quotedblleft" unicode="&#x201c;" horiz-adv-x="520" vert-adv-y="0" 
d="M260 700l-40 -155v-126h-130v126l110 155h60zM470 700l-40 -155v-126h-130v126l110 155h60z" />
    <glyph glyph-name="quotedblright" unicode="&#x201d;" horiz-adv-x="520" vert-adv-y="0" 
d="M50 419l40 155v126h130v-126l-110 -155h-60zM260 419l40 155v126h130v-126l-110 -155h-60z" />
    <glyph glyph-name="quotedblbase" unicode="&#x201e;" horiz-adv-x="520" vert-adv-y="0" 
d="M50 -155l40 155v126h130v-126l-110 -155h-60zM260 -155l40 155v126h130v-126l-110 -155h-60z" />
    <glyph glyph-name="dagger" unicode="&#x2020;" horiz-adv-x="550" vert-adv-y="0" 
d="M224 -200v644h-184v86h184v170h102v-170h184v-86h-184v-644h-102z" />
    <glyph glyph-name="daggerdbl" unicode="&#x2021;" horiz-adv-x="550" vert-adv-y="0" 
d="M224 -200v200h-184v86h184v358h-184v86h184v170h102v-170h184v-86h-184v-358h184v-86h-184v-200h-102z" />
    <glyph glyph-name="bullet" unicode="&#x2022;" horiz-adv-x="400" vert-adv-y="0" 
d="M200 145q-36 0 -65.5 17.5t-47 47t-17.5 65.5q0 37 17.5 66t47 46.5t65.5 17.5q37 0 66 -17.5t46.5 -46.5t17.5 -66q0 -36 -17.5 -65.5t-46.5 -47t-66 -17.5z" />
    <glyph glyph-name="ellipsis" unicode="&#x2026;" horiz-adv-x="970" vert-adv-y="0" 
d="M155 -11q-22 0 -40.5 10.5t-29 29t-10.5 40.5q0 35 23 57.5t57 22.5t57 -22.5t23 -57.5q0 -22 -10.5 -40.5t-28.5 -29t-41 -10.5zM485 -11q-22 0 -40.5 10.5t-29 29t-10.5 40.5q0 35 23 57.5t57 22.5t57 -22.5t23 -57.5q0 -22 -10.5 -40.5t-28.5 -29t-41 -10.5zM815 -11
q-22 0 -40.5 10.5t-29 29t-10.5 40.5q0 35 23 57.5t57 22.5t57 -22.5t23 -57.5q0 -22 -10.5 -40.5t-28.5 -29t-41 -10.5z" />
    <glyph glyph-name="uni202F" unicode="&#x202f;" horiz-adv-x="154" vert-adv-y="0" 
 />
    <glyph glyph-name="perthousand" unicode="&#x2030;" horiz-adv-x="1227" vert-adv-y="1200" 
d="M190 359q-74 0 -119.5 46t-45.5 120v10q0 50 20.5 87t58 58t86.5 21t86 -21t58 -58t21 -87v-10q0 -74 -45.5 -120t-119.5 -46zM190 449q27 0 43 18t16 59v9q0 40 -16 58t-43 18t-43 -18t-16 -58v-9q0 -41 16 -59t43 -18zM120 -10l480 700h120l-480 -700h-120zM650 -21
q-74 0 -119.5 46t-45.5 120v10q0 50 20.5 87t58 58t86.5 21t86 -21t58 -58t21 -87v-10q0 -74 -45.5 -120t-119.5 -46zM650 69q27 0 43 18t16 59v9q0 40 -16 58t-43 18t-43 -18t-16 -58v-9q0 -41 16 -59t43 -18zM1037 -21q-74 0 -119.5 46t-45.5 120v10q0 50 20.5 87t58 58
t86.5 21t86 -21t58 -58t21 -87v-10q0 -74 -45.5 -120t-119.5 -46zM1037 69q27 0 43 18t16 59v9q0 40 -16 58t-43 18t-43 -18t-16 -58v-9q0 -41 16 -59t43 -18z" />
    <glyph glyph-name="guilsinglleft" unicode="&#x2039;" horiz-adv-x="310" vert-adv-y="0" 
d="M255 40l-220 189v92l220 189v-120l-135 -113l135 -113v-124z" />
    <glyph glyph-name="guilsinglright" unicode="&#x203a;" horiz-adv-x="310" vert-adv-y="0" 
d="M55 510l220 -189v-92l-220 -189v120l135 113l-135 113v124z" />
    <glyph glyph-name="fraction" unicode="&#x2044;" horiz-adv-x="180" vert-adv-y="0" 
d="M-210 0l480 700h120l-480 -700h-120z" />
    <glyph glyph-name="uni2074" unicode="&#x2074;" horiz-adv-x="390" vert-adv-y="0" 
d="M209 380v77h-194v71l184 252h116v-237h40v-86h-40v-77h-106zM120 543h89v129z" />
    <glyph glyph-name="uni2081" unicode="&#x2081;" horiz-adv-x="260" vert-adv-y="1200" 
d="M124 0v286l-104 -74v110l110 78h100v-400h-106z" />
    <glyph glyph-name="uni2082" unicode="&#x2082;" horiz-adv-x="370" vert-adv-y="1200" 
d="M25 0v73l153 123q36 29 46 45.5t10 38.5q0 17 -11 28.5t-38 11.5q-25 0 -37 -12.5t-12 -32.5h-106q0 61 40 98.5t115 37.5t115 -36t40 -90q0 -26 -9.5 -48.5t-30 -45t-55.5 -48.5l-73 -55h173v-88h-320z" />
    <glyph glyph-name="uni2083" unicode="&#x2083;" horiz-adv-x="380" vert-adv-y="1200" 
d="M190 -11q-83 0 -124 37t-41 94h106q0 -21 12.5 -31t46.5 -10q31 0 45 12.5t14 31.5q0 20 -12.5 32.5t-47.5 12.5h-44v74h44q27 0 38.5 12t11.5 30q0 19 -12 28t-37 9q-24 0 -36.5 -9.5t-12.5 -26.5h-106q0 57 38.5 91.5t116.5 34.5q80 0 117.5 -32.5t37.5 -82.5
q0 -39 -19.5 -57.5t-45.5 -28.5q26 -10 50.5 -33t24.5 -65q0 -51 -41 -87t-124 -36z" />
    <glyph glyph-name="uni2084" unicode="&#x2084;" horiz-adv-x="390" vert-adv-y="1200" 
d="M209 0v77h-194v71l184 252h116v-237h40v-86h-40v-77h-106zM120 163h89v129z" />
    <glyph glyph-name="Euro" unicode="&#x20ac;" horiz-adv-x="680" vert-adv-y="0" 
d="M370 -11q-67 0 -123.5 24.5t-96 78t-55.5 138.5h-70v94h60v10.5v10.5v20v10.5v10.5h-60v94h71q18 81 57.5 132t95.5 75t121 24q54 0 100 -14.5t81.5 -43.5t57 -72t26.5 -101h-126q-8 44 -27.5 71.5t-47.5 40.5t-64 13q-44 0 -84.5 -28t-60.5 -97h190v-94h-204v-10.5
v-10.5v-20v-10.5v-10.5h204v-94h-191q14 -51 37.5 -80.5t52.5 -42t56 -12.5q43 0 71.5 15t45.5 43.5t22 66.5h126q-6 -62 -28 -106t-57 -71.5t-81 -40.5t-99 -13z" />
    <glyph glyph-name="uni20B4" unicode="&#x20b4;" horiz-adv-x="610" vert-adv-y="0" 
d="M50 389v94h314q14 16 19.5 30.5t5.5 31.5q0 25 -18.5 42.5t-65.5 17.5q-42 0 -60.5 -14.5t-23.5 -40.5h-116q3 50 25.5 86t65.5 55.5t109 19.5t110.5 -20t67 -53t22.5 -73q0 -26 -4 -44t-15 -38h74v-94h-510zM305 -11q-72 0 -118.5 19t-69 53.5t-22.5 78.5q0 32 7 53
t19 40h-71v94h510v-94h-304q-19 -20 -27 -39t-8 -39q0 -28 17 -44t67 -16q42 0 61 14.5t23 40.5h126q-2 -46 -24 -82.5t-67 -57.5t-119 -21z" />
    <glyph glyph-name="uni20B8" unicode="&#x20b8;" horiz-adv-x="630" vert-adv-y="0" 
d="M20 596v104h590v-104h-590zM376 0h-122v420h-234v104h590v-104h-234v-420z" />
    <glyph glyph-name="uni20BD" unicode="&#x20bd;" horiz-adv-x="650" vert-adv-y="0" 
d="M115 0v98h-90v94h90v62h-90v104h90v342h235q84 0 141 -27.5t85.5 -77.5t28.5 -118t-28.5 -118t-85.5 -77.5t-141 -27.5h-115v-62h230v-94h-230v-98h-120zM235 358h105q80 0 112.5 29.5t32.5 89.5t-32.5 89.5t-112.5 29.5h-105v-238z" />
    <glyph glyph-name="uni2116" unicode="&#x2116;" horiz-adv-x="1100" vert-adv-y="0" 
d="M90 0v700h116l344 -500v500h120v-700h-116l-344 500v-500h-120zM905 369q-74 0 -119.5 46t-45.5 120v10q0 50 20.5 87t58 58t86.5 21t86 -21t58 -58t21 -87v-10q0 -74 -45.5 -120t-119.5 -46zM905 459q27 0 43 18t16 59v9q0 40 -16 58t-43 18t-43 -18t-16 -58v-9
q0 -41 16 -59t43 -18zM750 226v88h310v-88h-310z" />
    <glyph glyph-name="trademark" unicode="&#x2122;" horiz-adv-x="895" vert-adv-y="0" 
d="M137 300v312h-117v88h340v-88h-117v-312h-106zM425 300v400h108l113 -211l113 211h106v-400h-96v263l-96 -178h-56l-96 178v-263h-96z" />
    <glyph glyph-name="arrowleft" unicode="&#x2190;" horiz-adv-x="750" vert-adv-y="0" 
d="M314 50l-300 300l300 300h146l-248 -248h513v-104h-513l248 -248h-146z" />
    <glyph glyph-name="arrowup" unicode="&#x2191;" horiz-adv-x="750" vert-adv-y="0" 
d="M320 0v509l-245 -244v146l300 300l300 -300v-146l-245 244v-509h-110z" />
    <glyph glyph-name="arrowright" unicode="&#x2192;" horiz-adv-x="750" vert-adv-y="0" 
d="M290 50l248 248h-513v104h513l-248 248h146l300 -300l-300 -300h-146z" />
    <glyph glyph-name="arrowdown" unicode="&#x2193;" horiz-adv-x="750" vert-adv-y="0" 
d="M375 -11l-300 300v146l245 -244v509h110v-509l245 244v-146z" />
    <glyph glyph-name="arrownorthwest" unicode="&#x2196;" horiz-adv-x="800" vert-adv-y="0" 
d="M597 50l-418 418v-340l-104 104v418h418l104 -104h-340l418 -418z" />
    <glyph glyph-name="arrownortheast" unicode="&#x2197;" horiz-adv-x="750" vert-adv-y="0" 
d="M149 50l-74 74l422 422h-344l104 104h418v-418l-104 -104v344z" />
    <glyph glyph-name="arrowsoutheast" unicode="&#x2198;" horiz-adv-x="750" vert-adv-y="0" 
d="M257 50l-104 104h340l-418 418l78 78l418 -418v340l104 -104v-418h-418z" />
    <glyph glyph-name="arrowsouthwest" unicode="&#x2199;" horiz-adv-x="750" vert-adv-y="0" 
d="M75 50v418l104 104v-344l422 422l74 -74l-422 -422h342l-102 -104h-418z" />
    <glyph glyph-name="uni0394" unicode="&#x2206;" horiz-adv-x="680" vert-adv-y="0" 
d="M15 0l260 700h130l260 -700h-650zM337 560l-164 -456h328z" />
    <glyph glyph-name="minus" unicode="&#x2212;" horiz-adv-x="560" vert-adv-y="0" 
d="M45 308v104h470v-104h-470z" />
    <glyph glyph-name="division" unicode="&#x2215;" horiz-adv-x="560" vert-adv-y="0" 
d="M55 0l336 700h114l-336 -700h-114z" />
    <glyph glyph-name="radical" unicode="&#x221a;" horiz-adv-x="610" vert-adv-y="0" 
d="M10 287v104h140l125 -314l166 723h159v-104h-73l-182 -796h-120l-155 387h-60z" />
    <glyph glyph-name="approxequal" unicode="&#x2248;" horiz-adv-x="560" vert-adv-y="0" 
d="M375 160q-32 0 -58 11t-49 26t-44.5 26t-43.5 11q-18 0 -31.5 -8.5t-22.5 -18.5q-5 -6 -9.5 -12.5t-8.5 -14.5l-73 45q8 16 17 30t19 27q18 22 46 40t68 18q32 0 58.5 -11t49 -26t44 -26t43.5 -11q18 0 31.5 8t22.5 19q5 5 9.5 12t8.5 15l73 -45q-7 -16 -16 -30.5
t-20 -27.5q-18 -22 -46.5 -39.5t-67.5 -17.5zM375 380q-32 0 -58 11t-49 26t-44.5 26t-43.5 11q-18 0 -31.5 -8.5t-22.5 -18.5q-5 -6 -9.5 -12.5t-8.5 -14.5l-73 45q8 16 17 30t19 27q18 22 46 40t68 18q32 0 58.5 -11t49 -26t44 -26t43.5 -11q18 0 31.5 8t22.5 19
q5 5 9.5 12t8.5 15l73 -45q-7 -16 -16 -30.5t-20 -27.5q-18 -22 -46.5 -39.5t-67.5 -17.5z" />
    <glyph glyph-name="lessequal" unicode="&#x2264;" horiz-adv-x="560" vert-adv-y="0" 
d="M45 63v104h470v-104h-470zM515 187l-470 208v94l470 208v-120l-330 -133l330 -133v-124z" />
    <glyph glyph-name="greaterequal" unicode="&#x2265;" horiz-adv-x="560" vert-adv-y="0" 
d="M45 63v104h470v-104h-470zM45 697l470 -208v-94l-470 -208v120l330 133l-330 133v124z" />
    <glyph glyph-name="angleleft" unicode="&#x2329;" horiz-adv-x="380" vert-adv-y="0" 
d="M252 -200l-202 450l204 450h116l-204 -450l204 -450h-118z" />
    <glyph glyph-name="angleright" unicode="&#x232a;" horiz-adv-x="380" vert-adv-y="0" 
d="M128 700l202 -450l-204 -450h-116l204 450l-204 450h118z" />
    <glyph glyph-name="Accent" unicode="&#xf401;" vert-adv-y="0" 
 />
    <glyph glyph-name="Apostrophe" unicode="&#xf40a;" horiz-adv-x="285" vert-adv-y="0" 
d="M50 419l40 155v126h130v-126l-110 -155h-60z" />
    <glyph glyph-name="cyrEstail.alt02" unicode="&#xf50c;" horiz-adv-x="690" vert-adv-y="1200" 
d="M360 -11q-86 0 -155 36.5t-109.5 115t-40.5 204.5v20q0 91 24 156.5t65.5 107.5t97 62t118.5 20q58 0 108 -14.5t88 -43.5t61 -72t28 -101h-126q-13 65 -55.5 95t-103.5 30q-44 0 -85 -22.5t-67.5 -74.5t-26.5 -143v-20q0 -72 16 -120.5t42.5 -76.5t58 -40.5t62.5 -12.5
q72 0 111.5 33.5t47.5 91.5h126q-6 -62 -29.5 -106t-62 -71.5t-87.5 -40.5t-106 -13zM330 -211q-16 0 -28 1t-20 2q-5 1 -9 2l-8 2v68l14 -2q7 -1 16 -1.5t20 -0.5q28 0 37 9t9 20q0 13 -9.5 21t-42.5 8l17 92h72l-7 -47q38 -9 51 -32t13 -46q0 -44 -29.5 -70t-95.5 -26z
" />
    <glyph glyph-name="cyrestail.alt02" unicode="&#xf50d;" horiz-adv-x="555" vert-adv-y="1200" 
d="M290 -11q-71 0 -128 30t-89.5 90t-32.5 151v20q0 86 34.5 144t91.5 87.5t124 29.5q70 0 118.5 -24t76 -65t35.5 -92h-112q-10 37 -36 61t-82 24q-37 0 -68.5 -17t-50.5 -53.5t-19 -94.5v-20q0 -63 19 -101.5t50.5 -56t68.5 -17.5q47 0 76 21t42 64h112
q-10 -56 -41.5 -96.5t-79.5 -62.5t-109 -22zM260 -211q-16 0 -28 1t-20 2q-5 1 -9 2l-8 2v66l14 -2q7 -1 16 -1.5t20 -0.5q28 0 38 10t10 21q0 13 -10 22t-42 9l17 90h68l-7 -47q40 -9 53 -32t13 -46q0 -44 -29.5 -70t-95.5 -26z" />
    <glyph glyph-name="cyrYerucyrbreve" unicode="&#xf536;" horiz-adv-x="900" vert-adv-y="1200" 
d="M90 0v700h120v-264h115q141 0 208 -59.5t67 -158.5t-67 -158.5t-208 -59.5h-235zM210 104h105q95 0 130 29t35 85t-35 85t-130 29h-105v-228zM690 0v700h120v-700h-120zM450 745q-62 0 -102 18.5t-59 54t-19 87.5h110q0 -46 17.5 -65t52.5 -19t52.5 19t17.5 65h110
q0 -52 -19 -87.5t-59 -54t-102 -18.5z" />
    <glyph glyph-name="cyryerucyrbreve" unicode="&#xf537;" horiz-adv-x="740" vert-adv-y="1200" 
d="M70 0v530h110v-186h100q102 0 151 -43.5t49 -128.5q0 -53 -21 -92t-65 -59.5t-114 -20.5h-210zM180 94h90q55 0 77.5 19.5t22.5 58.5t-22.5 58.5t-77.5 19.5h-90v-156zM550 0v530h110v-530h-110zM365 590q-83 0 -121.5 36.5t-38.5 103.5h102q0 -36 14.5 -52t43.5 -16
t43.5 16t14.5 52h102q0 -67 -39 -103.5t-121 -36.5z" />
    <glyph glyph-name="cyrGebar.alt" unicode="&#xf53c;" horiz-adv-x="595" vert-adv-y="1200" 
d="M90 0v700h465v-104h-345v-199h315v-104h-315v-293h-120z" />
    <glyph glyph-name="cyrgebar.alt" unicode="&#xf53d;" horiz-adv-x="460" vert-adv-y="0" 
d="M180 0h-110v530h370v-94h-260v-129h167v-94h-167v-213z" />
    <glyph glyph-name="uniF6BA" unicode="&#xf6ba;" horiz-adv-x="380" vert-adv-y="0" 
d="M35 298v104h310v-104h-310z" />
    <glyph glyph-name="uniF6BB" unicode="&#xf6bb;" horiz-adv-x="530" vert-adv-y="0" 
d="M35 298v104h460v-104h-460z" />
    <glyph glyph-name="uniF6BC" unicode="&#xf6bc;" horiz-adv-x="730" vert-adv-y="0" 
d="M35 298v104h660v-104h-660z" />
    <glyph glyph-name="cyrBreve" unicode="&#xf6d1;" horiz-adv-x="400" vert-adv-y="0" 
d="M200 745q-62 0 -102 18.5t-59 54t-19 87.5h110q0 -46 17.5 -65t52.5 -19t52.5 19t17.5 65h110q0 -52 -19 -87.5t-59 -54t-102 -18.5z" />
    <glyph glyph-name="cyrbreve" unicode="&#xf6d4;" horiz-adv-x="360" vert-adv-y="0" 
d="M180 590q-83 0 -121.5 36.5t-38.5 103.5h102q0 -36 14.5 -52t43.5 -16t43.5 16t14.5 52h102q0 -67 -39 -103.5t-121 -36.5z" />
    <glyph glyph-name="uniFEFF" unicode="&#xfeff;" vert-adv-y="0" 
 />
    <glyph glyph-name="i.loclTRK" horiz-adv-x="270" vert-adv-y="1200" 
d="M80 0v530h110v-530h-110zM135 590q-31 0 -50.5 19.5t-19.5 50.5t19.5 50.5t50.5 19.5t50.5 -19.5t19.5 -50.5t-19.5 -50.5t-50.5 -19.5z" />
    <glyph glyph-name="zero.osf" horiz-adv-x="630" vert-adv-y="0" 
d="M315 -11q-130 0 -200 70t-70 201v20q0 80 32.5 138.5t93 90.5t144.5 32q130 0 200 -69t70 -192v-20q0 -84 -32.5 -145t-93 -93.5t-144.5 -32.5zM315 93q67 0 108.5 43.5t41.5 123.5v20q0 70 -42 113.5t-108 43.5q-67 0 -108.5 -42.5t-41.5 -114.5v-20q0 -78 42 -122.5
t108 -44.5z" />
    <glyph glyph-name="one.osf" horiz-adv-x="430" vert-adv-y="0" 
d="M220 0v403l-170 -117v124l174 120h116v-530h-120z" />
    <glyph glyph-name="two.osf" horiz-adv-x="560" vert-adv-y="0" 
d="M50 0v84l201 137q48 32 76 55.5t40.5 44.5t12.5 44q0 32 -25 51t-70 19q-58 0 -86.5 -26t-28.5 -79h-120q0 62 28 109.5t81 74.5t126 27q68 0 116 -22.5t73.5 -61t25.5 -87.5q0 -32 -8 -58t-29 -51t-57.5 -54t-93.5 -66l-57 -37h245v-104h-450z" />
    <glyph glyph-name="three.osf" horiz-adv-x="565" vert-adv-y="0" 
d="M275 -211q-76 0 -129.5 29t-82 80t-28.5 117h120q0 -56 30 -88t90 -32q56 0 88 28t32 82q0 60 -29 90t-91 30h-60v100h60q55 0 82.5 27t27.5 82q0 46 -28 73.5t-82 27.5q-53 0 -82 -29.5t-29 -80.5h-120q0 63 27 112t79 76.5t125 27.5q74 0 125.5 -25.5t78 -69.5
t26.5 -98q0 -63 -31 -107t-79 -61q54 -18 87 -64t33 -121q0 -56 -28 -103t-81.5 -75t-130.5 -28z" />
    <glyph glyph-name="four.osf" horiz-adv-x="570" vert-adv-y="0" 
d="M345 -200v200h-325v89l320 441h125v-426h85v-104h-85v-200h-120zM140 104h205v288z" />
    <glyph glyph-name="five.osf" horiz-adv-x="590" vert-adv-y="0" 
d="M295 -211q-78 0 -129 28t-77 74t-29 99h120q5 -41 34 -68t81 -27q57 0 91 37.5t34 113.5q0 55 -18.5 87.5t-47.5 47.5t-59 15q-37 0 -66 -15t-46 -41h-108v390h425v-104h-307v-170q23 20 56.5 33t70.5 13q70 0 119 -28t75 -84.5t26 -142.5q0 -81 -30.5 -139t-85.5 -88.5
t-129 -30.5z" />
    <glyph glyph-name="six.osf" horiz-adv-x="590" vert-adv-y="0" 
d="M310 -11q-116 0 -185.5 78t-69.5 248v20q0 136 36 218.5t96 120t133 37.5q54 0 98 -17.5t73 -54t39 -94.5h-120q-11 32 -34.5 46t-55.5 14q-39 0 -73.5 -20t-56 -69.5t-23.5 -140.5q26 44 70.5 62.5t92.5 18.5q71 0 118.5 -26t72 -75.5t24.5 -121.5v-10q0 -69 -32 -122
t-85 -82.5t-118 -29.5zM302 95q56 0 89.5 34t33.5 94v10q0 59 -33.5 93t-89.5 34t-89.5 -34t-33.5 -93v-10q0 -60 33.5 -94t89.5 -34z" />
    <glyph glyph-name="seven.osf" horiz-adv-x="515" vert-adv-y="0" 
d="M100 -200l254 626h-334v104h460v-94l-250 -636h-130z" />
    <glyph glyph-name="eight.osf" horiz-adv-x="600" vert-adv-y="0" 
d="M300 -11q-78 0 -134 25.5t-86 70.5t-30 103q0 60 36 106.5t101 66.5q-46 18 -81.5 60t-35.5 102q0 54 27.5 96.5t79 67t123.5 24.5q73 0 124 -24.5t78.5 -67t27.5 -96.5q0 -59 -35 -100.5t-81 -61.5q65 -23 100.5 -65t35.5 -108q0 -58 -30 -103t-85.5 -70.5t-134.5 -25.5
zM300 95q63 0 96.5 28.5t33.5 73.5q0 51 -39 81.5t-91 38.5q-52 -8 -91 -38.5t-39 -81.5q0 -45 34 -73.5t96 -28.5zM300 403q45 7 77.5 34t32.5 77q0 45 -31 68t-79 23t-79 -22.5t-31 -68.5q0 -50 33 -76.5t77 -34.5z" />
    <glyph glyph-name="nine.osf" horiz-adv-x="590" vert-adv-y="0" 
d="M275 -211q-56 0 -101 17.5t-74.5 54t-39.5 94.5h120q11 -32 32 -46t63 -14t75 20t52.5 72t20.5 148q-26 -44 -70.5 -62.5t-92.5 -18.5q-65 0 -113.5 26.5t-75 78.5t-26.5 128v10q0 75 32 129.5t85.5 84.5t117.5 30q79 0 136 -37t88 -113.5t31 -195.5v-20q0 -140 -36 -225
t-95 -123t-129 -38zM288 150q56 0 89.5 35.5t33.5 101.5v10q0 66 -34.5 102t-88.5 36q-56 0 -89.5 -35.5t-33.5 -102.5v-10q0 -66 33.5 -101.5t89.5 -35.5z" />
    <glyph glyph-name="zero.tf" horiz-adv-x="630" vert-adv-y="1200" 
d="M315 -11q-55 0 -102.5 17.5t-83 58t-55 110.5t-19.5 175v20q0 97 19.5 162.5t55 105t83 56.5t102.5 17t102.5 -17t83 -56.5t55 -105t19.5 -162.5v-20q0 -105 -19.5 -175t-55 -110.5t-83 -58t-102.5 -17.5zM315 93q28 0 53 11t44.5 39.5t31 78.5t11.5 128v20
q0 94 -19.5 145.5t-51.5 71.5t-69 20t-69 -20t-51.5 -71.5t-19.5 -145.5v-20q0 -78 11.5 -128t31 -78.5t44.5 -39.5t53 -11z" />
    <glyph glyph-name="one.tf" horiz-adv-x="630" vert-adv-y="0" 
d="M557 0h-474v104h190v467l-175 -123v128l177 124h122v-596h160v-104z" />
    <glyph glyph-name="two.tf" horiz-adv-x="590" vert-adv-y="1200" 
d="M35 0v94l261 226q43 38 69 65.5t38 52t12 52.5q0 51 -30.5 83t-84.5 32q-64 0 -99.5 -34.5t-35.5 -105.5h-120q0 74 31.5 129.5t88.5 86t135 30.5q76 0 128.5 -28.5t79.5 -78.5t27 -114q0 -47 -20 -88.5t-54.5 -79t-80.5 -73.5l-178 -145h343v-104h-510z" />
    <glyph glyph-name="three.tf" horiz-adv-x="595" vert-adv-y="1200" 
d="M290 -11q-81 0 -136.5 27t-84.5 74.5t-29 109.5h120q0 -50 31.5 -77.5t98.5 -27.5q65 0 97.5 27.5t32.5 77.5q0 51 -30 80.5t-100 29.5h-70v100h70q60 0 90 25.5t30 73.5t-28.5 72t-91.5 24q-62 0 -91.5 -25t-29.5 -70h-120q0 61 27.5 106t81.5 70t132 25q79 0 132 -25.5
t80.5 -68t27.5 -94.5q0 -60 -32 -100.5t-88 -57.5q61 -18 95.5 -60.5t34.5 -114.5q0 -56 -28.5 -102t-84 -72.5t-137.5 -26.5z" />
    <glyph glyph-name="four.tf" horiz-adv-x="630" vert-adv-y="0" 
d="M497 0h-123v158h-325v89l322 453h126v-438h85v-104h-85v-158zM374 554l-205 -292h205v292z" />
    <glyph glyph-name="five.tf" horiz-adv-x="590" vert-adv-y="1200" 
d="M295 -11q-62 0 -106.5 16t-73.5 43t-43.5 61.5t-16.5 70.5h120q5 -36 35.5 -60.5t84.5 -24.5q61 0 95.5 36t34.5 105q0 52 -19 82.5t-49 44t-62 13.5q-43 0 -71.5 -15t-45.5 -41h-108v380h435v-104h-317v-163q23 22 54 35.5t78 13.5q68 0 118.5 -28t78.5 -82.5t28 -134.5
q0 -76 -31.5 -131.5t-87.5 -86t-131 -30.5z" />
    <glyph glyph-name="six.tf" horiz-adv-x="615" vert-adv-y="1200" 
d="M320 -11q-124 0 -194.5 78t-70.5 248v20q0 136 36 218.5t98.5 120t140.5 37.5q60 0 105.5 -17.5t75 -54t39.5 -94.5h-120q-11 32 -36 46t-64 14q-45 0 -81.5 -20t-58 -69.5t-23.5 -140.5q26 44 75.5 62.5t97.5 18.5q71 0 121 -26t77 -75.5t27 -121.5v-10q0 -69 -32 -122
t-87.5 -82.5t-125.5 -29.5zM312 95q60 0 96.5 35.5t36.5 92.5v10q0 56 -36.5 91.5t-96.5 35.5t-96.5 -35.5t-36.5 -91.5v-10q0 -57 36.5 -92.5t96.5 -35.5z" />
    <glyph glyph-name="seven.tf" horiz-adv-x="630" vert-adv-y="0" 
d="M313 0h-127l261 596h-377v104h499v-94z" />
    <glyph glyph-name="eight.tf" horiz-adv-x="620" vert-adv-y="1200" 
d="M310 -11q-84 0 -142 25.5t-88 70.5t-30 103q0 60 37.5 106.5t109.5 66.5q-53 18 -90 60t-37 102q0 54 28 96.5t81.5 67t130.5 24.5q78 0 131.5 -24.5t81 -67t27.5 -96.5q0 -60 -36 -101t-90 -61q73 -23 109.5 -65t36.5 -108q0 -58 -30 -103t-88 -70.5t-142 -25.5zM310 95
q48 0 79 13t46 36t15 53q0 51 -40 81.5t-100 38.5q-60 -8 -100 -38.5t-40 -81.5q0 -30 16 -53t47 -36t77 -13zM310 403q53 8 86.5 34t33.5 77q0 45 -32.5 68t-87.5 23t-87.5 -22.5t-32.5 -68.5q0 -51 34 -77t86 -34z" />
    <glyph glyph-name="nine.tf" horiz-adv-x="615" vert-adv-y="1200" 
d="M290 -11q-61 0 -108 17.5t-77 54t-40 94.5h120q11 -32 37 -46t68 -14t77.5 20t57.5 70t23 140q-26 -44 -75.5 -62.5t-97.5 -18.5q-70 0 -120.5 26.5t-77.5 76.5t-27 120v10q0 70 32 122.5t87.5 82t125.5 29.5q84 0 143 -34t90.5 -106t31.5 -186v-20q0 -136 -36 -218.5
t-97 -120t-137 -37.5zM303 340q60 0 96.5 35.5t36.5 91.5v10q0 55 -37.5 91.5t-95.5 36.5q-60 0 -96.5 -35.5t-36.5 -92.5v-10q0 -56 36.5 -91.5t96.5 -35.5z" />
    <glyph glyph-name="zero.tosf" horiz-adv-x="630" vert-adv-y="1200" 
d="M315 -11q-130 0 -200 70t-70 201v20q0 80 32.5 138.5t93 90.5t144.5 32q130 0 200 -69t70 -192v-20q0 -84 -32.5 -145t-93 -93.5t-144.5 -32.5zM315 93q67 0 108.5 43.5t41.5 123.5v20q0 70 -42 113.5t-108 43.5q-67 0 -108.5 -42.5t-41.5 -114.5v-20q0 -78 42 -122.5
t108 -44.5z" />
    <glyph glyph-name="one.tosf" horiz-adv-x="630" vert-adv-y="0" 
d="M77 0v104h203v297l-179 -123v128l180 124h123v-426h149v-104h-476z" />
    <glyph glyph-name="two.tosf" horiz-adv-x="630" vert-adv-y="1200" 
d="M90 0v84l201 137q48 32 76 55.5t40.5 44.5t12.5 44q0 32 -25 51t-70 19q-58 0 -86.5 -26t-28.5 -79h-120q0 62 28 109.5t81 74.5t126 27q68 0 116 -22.5t73.5 -61t25.5 -87.5q0 -32 -8 -58t-29 -51t-57.5 -54t-93.5 -66l-57 -37h245v-104h-450z" />
    <glyph glyph-name="three.tosf" horiz-adv-x="630" vert-adv-y="1200" 
d="M315 -211q-76 0 -129.5 29t-82 80t-28.5 117h120q0 -56 30 -88t90 -32q56 0 88 28t32 82q0 60 -29 90t-91 30h-60v100h60q55 0 82.5 27t27.5 82q0 46 -28 73.5t-82 27.5q-53 0 -82 -29.5t-29 -80.5h-120q0 63 27 112t79 76.5t125 27.5q74 0 125.5 -25.5t78 -69.5
t26.5 -98q0 -63 -31 -107t-79 -61q54 -18 87 -64t33 -121q0 -56 -28 -103t-81.5 -75t-130.5 -28z" />
    <glyph glyph-name="four.tosf" horiz-adv-x="630" vert-adv-y="1200" 
d="M375 -200v200h-325v89l320 441h125v-426h85v-104h-85v-200h-120zM170 104h205v288z" />
    <glyph glyph-name="five.tosf" horiz-adv-x="630" vert-adv-y="1200" 
d="M310 -211q-78 0 -129 28t-77 74t-29 99h120q5 -41 34 -68t81 -27q57 0 91 37.5t34 113.5q0 55 -18.5 87.5t-47.5 47.5t-59 15q-37 0 -66 -15t-46 -41h-108v390h425v-104h-307v-170q23 20 56.5 33t70.5 13q70 0 119 -28t75 -84.5t26 -142.5q0 -81 -30.5 -139t-85.5 -88.5
t-129 -30.5z" />
    <glyph glyph-name="six.tosf" horiz-adv-x="630" vert-adv-y="1200" 
d="M325 -11q-116 0 -185.5 78t-69.5 248v20q0 136 36 218.5t96 120t133 37.5q54 0 98 -17.5t73 -54t39 -94.5h-120q-11 32 -34.5 46t-55.5 14q-39 0 -73.5 -20t-56 -69.5t-23.5 -140.5q26 44 70.5 62.5t92.5 18.5q71 0 118.5 -26t72 -75.5t24.5 -121.5v-10q0 -69 -32 -122
t-85 -82.5t-118 -29.5zM317 95q56 0 89.5 34t33.5 94v10q0 59 -33.5 93t-89.5 34t-89.5 -34t-33.5 -93v-10q0 -60 33.5 -94t89.5 -34z" />
    <glyph glyph-name="seven.tosf" horiz-adv-x="630" vert-adv-y="0" 
d="M297 -200h-130l257 626h-344v104h470v-94z" />
    <glyph glyph-name="eight.tosf" horiz-adv-x="630" vert-adv-y="1200" 
d="M315 -11q-78 0 -134 25.5t-86 70.5t-30 103q0 60 36 106.5t101 66.5q-46 18 -81.5 60t-35.5 102q0 54 27.5 96.5t79 67t123.5 24.5q73 0 124 -24.5t78.5 -67t27.5 -96.5q0 -59 -35 -100.5t-81 -61.5q65 -23 100.5 -65t35.5 -108q0 -58 -30 -103t-85.5 -70.5t-134.5 -25.5
zM315 95q63 0 96.5 28.5t33.5 73.5q0 51 -39 81.5t-91 38.5q-52 -8 -91 -38.5t-39 -81.5q0 -45 34 -73.5t96 -28.5zM315 403q45 7 77.5 34t32.5 77q0 45 -31 68t-79 23t-79 -22.5t-31 -68.5q0 -50 33 -76.5t77 -34.5z" />
    <glyph glyph-name="nine.tosf" horiz-adv-x="630" vert-adv-y="1200" 
d="M300 -211q-56 0 -101 17.5t-74.5 54t-39.5 94.5h120q11 -32 32 -46t63 -14t75 20t52.5 72t20.5 148q-26 -44 -70.5 -62.5t-92.5 -18.5q-65 0 -113.5 26.5t-75 78.5t-26.5 128v10q0 75 32 129.5t85.5 84.5t117.5 30q79 0 136 -37t88 -113.5t31 -195.5v-20q0 -140 -36 -225
t-95 -123t-129 -38zM313 150q56 0 89.5 35.5t33.5 101.5v10q0 66 -34.5 102t-88.5 36q-56 0 -89.5 -35.5t-33.5 -102.5v-10q0 -66 33.5 -101.5t89.5 -35.5z" />
    <glyph glyph-name="parenleft.case" horiz-adv-x="380" vert-adv-y="0" 
d="M80 340v20q0 102 26.5 182.5t58.5 138.5q19 34 40 63.5t45 55.5h120q-25 -26 -48 -55.5t-43 -63.5q-34 -58 -62.5 -138.5t-28.5 -182.5v-20q0 -101 28.5 -182.5t62.5 -138.5q20 -34 43 -63.5t48 -55.5h-124q-23 26 -44 55.5t-39 63.5q-32 57 -57.5 138t-25.5 183z" />
    <glyph glyph-name="parenright.case" horiz-adv-x="380" vert-adv-y="0" 
d="M300 360v-20q0 -102 -26.5 -182t-58.5 -139q-19 -34 -40 -63.5t-45 -55.5h-120q26 26 48.5 55.5t42.5 63.5q35 59 63 139t28 182v20q0 101 -28 182.5t-63 138.5q-20 34 -42.5 63.5t-48.5 55.5h124q23 -26 44 -55.5t39 -63.5q32 -57 57.5 -138t25.5 -183z" />
    <glyph glyph-name="braceleft.case" horiz-adv-x="380" vert-adv-y="0" 
d="M330 -100h-50q-72 0 -111 39t-39 111v207q0 23 -13.5 36.5t-36.5 13.5v86q23 0 36.5 13.5t13.5 36.5v207q0 72 39 111t111 39h50v-86h-40q-29 0 -43.5 -14.5t-14.5 -43.5v-236q0 -30 -13.5 -46t-36.5 -24q23 -8 36.5 -24t13.5 -46v-236q0 -29 14.5 -43.5t43.5 -14.5h40
v-86z" />
    <glyph glyph-name="braceright.case" horiz-adv-x="380" vert-adv-y="0" 
d="M50 800h50q72 0 111 -39t39 -111v-207q0 -23 13.5 -36.5t36.5 -13.5v-86q-23 0 -36.5 -13.5t-13.5 -36.5v-207q0 -72 -39 -111t-111 -39h-50v86h40q29 0 43.5 14.5t14.5 43.5v236q0 30 13.5 46t36.5 24q-23 8 -36.5 24t-13.5 46v236q0 29 -14.5 43.5t-43.5 14.5h-40v86z
" />
    <glyph glyph-name="bracketleft.case" horiz-adv-x="380" vert-adv-y="0" 
d="M120 -100v900h200v-86h-98v-728h98v-86h-200z" />
    <glyph glyph-name="bracketright.case" horiz-adv-x="380" vert-adv-y="0" 
d="M260 800v-900h-200v86h98v728h-98v86h200z" />
    <glyph glyph-name="uni030C.alt" vert-adv-y="1200" 
d="M68 492l11 123v85h103v-85l-67 -123h-47z" />
    <glyph glyph-name="uni0308.case" vert-adv-y="0" 
d="M90 755q-31 0 -50.5 19.5t-19.5 50.5t19.5 50.5t50.5 19.5t50.5 -19.5t19.5 -50.5t-19.5 -50.5t-50.5 -19.5zM320 755q-31 0 -50.5 19.5t-19.5 50.5t19.5 50.5t50.5 19.5t50.5 -19.5t19.5 -50.5t-19.5 -50.5t-50.5 -19.5z" />
    <glyph glyph-name="uni0307.case" vert-adv-y="0" 
d="M94 751q-33 0 -53.5 20.5t-20.5 53.5t20.5 53.5t53.5 20.5t53.5 -20.5t20.5 -53.5t-20.5 -53.5t-53.5 -20.5z" />
    <glyph glyph-name="gravecomb.case" vert-adv-y="0" 
d="M170 750l-150 150h140l110 -150h-100z" />
    <glyph glyph-name="acutecomb.case" vert-adv-y="1200" 
d="M20 750l110 150h140l-150 -150h-100z" />
    <glyph glyph-name="uni030B.case" vert-adv-y="0" 
d="M50 750l112 150h114l-134 -150h-92zM207 750l137 150h116l-161 -150h-92z" />
    <glyph glyph-name="uni0302.case" vert-adv-y="0" 
d="M20 750l110 150h120l110 -150h-100l-70 70l-70 -70h-100z" />
    <glyph glyph-name="uni030C.case" vert-adv-y="0" 
d="M130 750l-110 150h100l70 -70l70 70h100l-110 -150h-120z" />
    <glyph glyph-name="uni0306.case" vert-adv-y="0" 
d="M200 745q-62 0 -102 18.5t-59 54t-19 87.5h110q0 -46 17.5 -65t52.5 -19t52.5 19t17.5 65h110q0 -52 -19 -87.5t-59 -54t-102 -18.5z" />
    <glyph glyph-name="uni030A.case" vert-adv-y="0" 
d="M145 730q-35 0 -63.5 15.5t-45 41.5t-16.5 58t16.5 58t45 41.5t63.5 15.5t63.5 -15.5t45 -41.5t16.5 -58t-16.5 -58t-45 -41.5t-63.5 -15.5zM145 800q20 0 32.5 12.5t12.5 32.5t-12.5 32.5t-32.5 12.5t-32.5 -12.5t-12.5 -32.5t12.5 -32.5t32.5 -12.5z" />
    <glyph glyph-name="tildecomb.case" vert-adv-y="0" 
d="M270 755q-35 0 -57.5 11t-41 22.5t-41.5 11.5q-11 0 -20 -6t-14 -14q-4 -4 -6.5 -9.5t-4.5 -10.5l-65 30q4 14 9 27.5t12 24.5q12 20 33.5 36.5t55.5 16.5q35 0 57.5 -11.5t41.5 -22.5t41 -11q11 0 19.5 6t14.5 14l6 10t5 10l65 -30q-4 -15 -9 -28.5t-12 -24.5
q-12 -20 -33.5 -36t-55.5 -16z" />
    <glyph glyph-name="uni0304.case" vert-adv-y="0" 
d="M20 778v94h300v-94h-300z" />
    <glyph glyph-name="uni0327.case" vert-adv-y="0" 
d="M85 -211q-16 0 -28 1t-20 2q-5 1 -9 2l-8 2v68l14 -2q7 -1 16 -1.5t20 -0.5q28 0 37 9t9 20q0 13 -9.5 21t-42.5 8l17 92h72l-7 -47q38 -9 51 -32t13 -46q0 -44 -29.5 -70t-95.5 -26z" />
    </font>
</defs>
</svg>
