<?xml version="1.0" standalone="no"?>
<!DOCTYPE svg PUBLIC "-//W3C//DTD SVG 1.1//EN" "http://www.w3.org/Graphics/SVG/1.1/DTD/svg11.dtd" >
<svg xmlns="http://www.w3.org/2000/svg" xmlns:xlink="http://www.w3.org/1999/xlink" version="1.1">
<metadata>
Created by FontForge 20201107 at Fri Jan  6 16:30:32 2023
 By 
Copyright 2019 The Golos Text Project Authors (https://github.com/googlefonts/golos-text)
</metadata>
<defs>
<font id="GolosText-Bold" horiz-adv-x="580" vert-adv-y="1000" >
  <font-face 
    font-family="Golos Text"
    font-weight="700"
    font-stretch="normal"
    units-per-em="1000"
    panose-1="2 11 5 3 2 2 2 2 2 4"
    ascent="800"
    descent="-200"
    x-height="530"
    cap-height="700"
    bbox="-230 -227 1219 960"
    underline-thickness="50"
    underline-position="-100"
    unicode-range="U+000D-FEFF"
  />
<missing-glyph horiz-adv-x="500" vert-adv-y="0" 
d="M58 8h384v496h-384v-496zM50 0v512h400v-512h-400z" />
    <glyph glyph-name=".notdef" horiz-adv-x="500" vert-adv-y="0" 
d="M58 8h384v496h-384v-496zM50 0v512h400v-512h-400z" />
    <glyph glyph-name=".null" horiz-adv-x="0" vert-adv-y="0" 
 />
    <glyph glyph-name=".null" horiz-adv-x="0" vert-adv-y="0" 
 />
    <glyph glyph-name="uni000D" unicode="&#xd;" horiz-adv-x="250" vert-adv-y="0" 
 />
    <glyph glyph-name="space" unicode=" " horiz-adv-x="250" vert-adv-y="0" 
 />
    <glyph glyph-name="exclam" unicode="!" horiz-adv-x="320" vert-adv-y="0" 
d="M83 241v459h154v-459h-154zM160 -13q-26 0 -48 12.5t-34.5 34t-12.5 49.5q0 39 27.5 66.5t67.5 27.5t68 -27.5t28 -66.5q0 -28 -13 -49.5t-34.5 -34t-48.5 -12.5z" />
    <glyph glyph-name="quotedbl" unicode="&#x22;" horiz-adv-x="460" vert-adv-y="0" 
d="M50 440v260h140v-260h-140zM270 440v260h140v-260h-140z" />
    <glyph glyph-name="numbersign" unicode="#" horiz-adv-x="680" vert-adv-y="0" 
d="M85 0l34 182h-84v106h103l23 124h-87v106h107l34 182h134l-34 -182h112l34 182h134l-34 -182h84v-106h-104l-23 -124h88v-106h-107l-34 -182h-134l34 182h-112l-34 -182h-134zM272 288h112l23 124h-112z" />
    <glyph glyph-name="dollar" unicode="$" horiz-adv-x="670" vert-adv-y="0" 
d="M264 -120v111q-111 13 -166.5 67.5t-57.5 141.5h180q8 -38 35 -55.5t80 -17.5q57 0 85.5 16t28.5 49q0 27 -18.5 43t-56.5 27t-91 23q-69 16 -119 41.5t-77 68.5t-27 111q0 84 54 136t150 66v92h141v-92q102 -13 153 -64t57 -134h-180q-6 32 -29 47.5t-71 15.5
q-53 0 -74 -17t-21 -44q0 -37 38.5 -54t111.5 -31q54 -11 98.5 -27t76 -41t48.5 -61.5t17 -89.5q0 -91 -59 -146.5t-166 -69.5v-112h-141z" />
    <glyph glyph-name="percent" unicode="%" horiz-adv-x="840" vert-adv-y="1200" 
d="M190 357q-81 0 -128 46t-47 122v10q0 51 21 88.5t60.5 58.5t93.5 21t93.5 -21t60.5 -58t21 -89v-10q0 -76 -47 -122t-128 -46zM190 475q14 0 23 11t9 39v10q0 28 -8.5 39t-23.5 11q-14 0 -23 -11t-9 -39v-10q0 -28 8.5 -39t23.5 -11zM100 -10l480 700h160l-480 -700h-160
zM650 -23q-81 0 -128 46t-47 122v10q0 51 21 88.5t60.5 58.5t93.5 21t93.5 -21t60.5 -58t21 -89v-10q0 -76 -47 -122t-128 -46zM650 95q14 0 23 11t9 39v10q0 28 -8.5 39t-23.5 11q-14 0 -23 -11t-9 -39v-10q0 -28 8.5 -39t23.5 -11z" />
    <glyph glyph-name="ampersand" unicode="&#x26;" horiz-adv-x="710" vert-adv-y="0" 
d="M300 -13q-88 0 -144.5 27t-83.5 73t-27 103q0 31 10 62t37 65.5t77 76.5q-22 24 -37.5 48.5t-23.5 53t-8 64.5q0 41 21.5 76t65.5 56t113 21q64 0 103.5 -23.5t58 -58.5t18.5 -71q0 -35 -9 -61.5t-33 -54t-70 -65.5l105 -118q4 21 6.5 41.5t2.5 42.5h158
q0 -63 -14.5 -115.5t-40.5 -93.5l120 -136h-178l-36 39q-41 -26 -89 -39t-102 -13zM300 115q26 0 53.5 6.5t45.5 18.5l-139 153q-24 -21 -36.5 -37.5t-16.5 -32t-4 -33.5q0 -32 26 -53.5t71 -21.5zM248 556q0 -15 7.5 -32.5t24.5 -40.5q24 20 35 33.5t13.5 24.5t2.5 19
q0 16 -10.5 25.5t-30.5 9.5q-22 0 -32 -11.5t-10 -27.5z" />
    <glyph glyph-name="quotesingle" unicode="'" horiz-adv-x="240" vert-adv-y="0" 
d="M50 440v260h140v-260h-140z" />
    <glyph glyph-name="parenleft" unicode="(" horiz-adv-x="380" vert-adv-y="0" 
d="M60 240v20q0 109 25 191t56 138q18 32 38.5 60t43.5 51h157q-25 -23 -46.5 -51t-41.5 -60q-33 -56 -60.5 -138t-27.5 -191v-20q0 -109 27.5 -191t60.5 -138q20 -32 41.5 -60t46.5 -51h-159q-23 23 -43.5 51t-37.5 60q-30 56 -55 138t-25 191z" />
    <glyph glyph-name="parenright" unicode=")" horiz-adv-x="380" vert-adv-y="0" 
d="M320 260v-20q0 -109 -25 -191t-56 -138q-18 -32 -38.5 -60t-43.5 -51h-157q25 23 47 51t41 60q32 56 60 137.5t28 191.5v20q0 109 -28 191t-60 138q-19 32 -41 60t-47 51h159q23 -23 43.5 -51t37.5 -60q30 -56 55 -138t25 -191z" />
    <glyph glyph-name="asterisk" unicode="*" horiz-adv-x="450" vert-adv-y="0" 
d="M172 350l12 103l-85 -68l-59 105l104 35l-104 35l59 105l85 -68l-12 103h106l-12 -103l86 68l58 -105l-104 -35l104 -35l-59 -105l-85 68l12 -103h-106z" />
    <glyph glyph-name="plus" unicode="+" vert-adv-y="0" 
d="M213 105v181h-178v148h178v181h154v-181h178v-148h-178v-181h-154z" />
    <glyph glyph-name="comma" unicode="," horiz-adv-x="320" vert-adv-y="0" 
d="M40 -165l40 165v150h161v-150l-123 -165h-78z" />
    <glyph glyph-name="hyphen" unicode="-" horiz-adv-x="380" vert-adv-y="0" 
d="M25 206v148h330v-148h-330z" />
    <glyph glyph-name="period" unicode="." horiz-adv-x="320" vert-adv-y="0" 
d="M160 -13q-26 0 -48 12.5t-34.5 34t-12.5 49.5q0 39 27.5 66.5t67.5 27.5t68 -27.5t28 -66.5q0 -28 -13 -49.5t-34.5 -34t-48.5 -12.5z" />
    <glyph glyph-name="slash" unicode="/" horiz-adv-x="480" vert-adv-y="0" 
d="M10 -200l326 900h134l-326 -900h-134z" />
    <glyph glyph-name="zero" unicode="0" horiz-adv-x="650" vert-adv-y="0" 
d="M325 -13q-59 0 -110 19.5t-89 62.5t-59.5 112.5t-21.5 168.5v20q0 92 21.5 157t59.5 106t89 60.5t110 19.5t110 -19.5t89 -60.5t59.5 -106t21.5 -157v-20q0 -99 -21.5 -168.5t-59.5 -112.5t-89 -62.5t-110 -19.5zM325 135q20 0 38 10t31.5 34.5t21.5 66t8 104.5v20
q0 74 -13 116.5t-36 60.5t-50 18t-49.5 -18t-36.5 -60.5t-14 -116.5v-20q0 -63 8 -104.5t22.5 -66t32 -34.5t37.5 -10z" />
    <glyph glyph-name="one" unicode="1" horiz-adv-x="515" vert-adv-y="0" 
d="M40 0v148h154v371l-154 -110v180l155 111h180v-552h125v-148h-460z" />
    <glyph glyph-name="two" unicode="2" horiz-adv-x="610" vert-adv-y="0" 
d="M25 0v128l232 192q45 37 73.5 65.5t41 53.5t12.5 51q0 35 -19 54t-55 19q-47 0 -71 -30t-24 -88h-180q0 86 30.5 145.5t91.5 91t153 31.5q86 0 142.5 -28.5t84.5 -78.5t28 -116q0 -48 -22 -91.5t-59.5 -82t-86.5 -76.5l-121 -92h299v-148h-550z" />
    <glyph glyph-name="three" unicode="3" horiz-adv-x="610" vert-adv-y="0" 
d="M300 -13q-89 0 -149.5 32t-90.5 88t-30 128h180q0 -49 22.5 -73.5t73.5 -24.5q42 0 62.5 21.5t20.5 57.5q0 38 -21 58t-68 20h-59v132h59q40 0 59.5 18t19.5 53q0 31 -19 48.5t-54 17.5q-44 0 -65 -22t-21 -66h-180q0 75 30 128t88.5 81.5t141.5 28.5t141 -24.5
t88.5 -68.5t30.5 -101t-32 -97t-86 -57q63 -17 95.5 -58t32.5 -107q0 -63 -33 -111.5t-93.5 -75t-143.5 -26.5z" />
    <glyph glyph-name="four" unicode="4" horiz-adv-x="625" vert-adv-y="0" 
d="M334 0v136h-314v123l326 441h168v-416h76v-148h-76v-136h-180zM181 284h153v217z" />
    <glyph glyph-name="five" unicode="5" horiz-adv-x="610" vert-adv-y="0" 
d="M305 -13q-72 0 -121 18t-79.5 50.5t-44.5 73t-15 86.5h174q2 -40 25 -64t61 -24q47 0 67 29t20 83q0 38 -11 60.5t-30.5 32t-45.5 9.5t-47 -10.5t-35 -30.5h-163v400h476v-147h-303v-98q21 16 49.5 23.5t65.5 7.5q68 0 118.5 -27.5t79.5 -82t29 -135.5q0 -77 -33 -134.5
t-93.5 -88.5t-143.5 -31z" />
    <glyph glyph-name="six" unicode="6" horiz-adv-x="635" vert-adv-y="0" 
d="M330 -13q-139 0 -212 79.5t-73 258.5v20q0 132 37 213t103.5 118t154.5 37q70 0 121 -18.5t82 -59.5t37 -110h-170q-7 24 -25.5 36t-49.5 12q-34 0 -60 -16t-41 -54t-17 -108q24 35 67 49t92 14q70 0 119 -27t74.5 -76t25.5 -115v-11q0 -73 -32.5 -128t-92.5 -84.5
t-140 -29.5zM320 127q44 0 69 25.5t25 70.5v10q0 44 -25 69.5t-69 25.5t-69.5 -25.5t-25.5 -69.5v-10q0 -45 25.5 -70.5t69.5 -25.5z" />
    <glyph glyph-name="seven" unicode="7" horiz-adv-x="545" vert-adv-y="0" 
d="M110 0l228 553h-318v147h500v-127l-220 -573h-190z" />
    <glyph glyph-name="eight" unicode="8" horiz-adv-x="640" vert-adv-y="0" 
d="M320 -13q-86 0 -149 25.5t-97 72t-34 110.5q0 58 35 104t104 64q-52 18 -85.5 58t-33.5 98t30.5 101.5t89 68t140.5 24.5q83 0 141 -24.5t88.5 -68t30.5 -101.5q0 -57 -33 -97t-86 -59q69 -20 104 -63t35 -105q0 -64 -34 -110.5t-97 -72t-149 -25.5zM320 125
q36 0 60.5 9.5t37 28t12.5 43.5q0 42 -32.5 64.5t-77.5 30.5q-44 -8 -77 -31.5t-33 -63.5q0 -25 13.5 -43.5t38 -28t58.5 -9.5zM320 419q38 7 64 26t26 57q0 36 -24 54.5t-66 18.5t-66 -18t-24 -55q0 -38 27 -56.5t63 -26.5z" />
    <glyph glyph-name="nine" unicode="9" horiz-adv-x="635" vert-adv-y="0" 
d="M300 -13q-71 0 -123.5 19t-83 60.5t-38.5 108.5h170q7 -23 26 -35.5t54 -12.5q33 0 57.5 16t39 54t16.5 108q-24 -35 -67 -49t-91 -14q-70 0 -119.5 27t-75 76.5t-25.5 115.5v10q0 73 33 128t93 84.5t139 29.5q93 0 156.5 -33.5t96 -108t32.5 -196.5v-20
q0 -133 -36.5 -213.5t-102 -117.5t-151.5 -37zM315 372q44 0 69.5 25.5t25.5 70.5v9q0 43 -26.5 69.5t-68.5 26.5q-44 0 -69.5 -25.5t-25.5 -69.5v-10q0 -45 25.5 -70.5t69.5 -25.5z" />
    <glyph glyph-name="colon" unicode=":" horiz-adv-x="320" vert-adv-y="0" 
d="M160 -13q-26 0 -48 12.5t-34.5 34t-12.5 49.5q0 39 27.5 66.5t67.5 27.5t68 -27.5t28 -66.5q0 -28 -13 -49.5t-34.5 -34t-48.5 -12.5zM160 353q-26 0 -48 12.5t-34.5 34t-12.5 49.5q0 39 27.5 66.5t67.5 27.5t68 -27.5t28 -66.5q0 -28 -13 -49.5t-34.5 -34t-48.5 -12.5z
" />
    <glyph glyph-name="semicolon" unicode=";" horiz-adv-x="320" vert-adv-y="0" 
d="M40 -165l40 165v150h161v-150l-123 -165h-78zM160 353q-26 0 -48 12.5t-34.5 34t-12.5 49.5q0 39 27.5 66.5t67.5 27.5t68 -27.5t28 -66.5q0 -28 -13 -49.5t-34.5 -34t-48.5 -12.5z" />
    <glyph glyph-name="less" unicode="&#x3c;" vert-adv-y="0" 
d="M545 65l-510 232v126l510 232v-180l-270 -112l270 -112v-186z" />
    <glyph glyph-name="equal" unicode="=" vert-adv-y="0" 
d="M35 156v148h510v-148h-510zM35 416v148h510v-148h-510z" />
    <glyph glyph-name="greater" unicode="&#x3e;" vert-adv-y="0" 
d="M35 655l510 -232v-126l-510 -232v180l269 112l-269 112v186z" />
    <glyph glyph-name="question" unicode="?" horiz-adv-x="540" vert-adv-y="0" 
d="M193 241v39q0 30 11.5 53t31.5 43t46 41q33 27 51 49.5t18 48.5q0 33 -19.5 51.5t-61.5 18.5q-41 0 -61.5 -21t-20.5 -59h-158q0 57 29.5 104.5t83 75.5t127.5 28q78 0 131.5 -25.5t81 -69.5t27.5 -98q0 -41 -13 -71.5t-33 -55t-42 -43.5q-34 -30 -50 -47.5t-20.5 -27.5
t-4.5 -20v-14h-154zM269 -13q-25 0 -47 12.5t-34.5 34t-12.5 49.5q0 39 27.5 66.5t67.5 27.5t67.5 -27.5t27.5 -66.5q0 -28 -12.5 -49.5t-34 -34t-49.5 -12.5z" />
    <glyph glyph-name="at" unicode="@" horiz-adv-x="970" vert-adv-y="0" 
d="M503 -213q-102 0 -186.5 30.5t-145 90.5t-93.5 147.5t-33 201.5q0 108 34 193t94 143.5t140 89.5t172 31q102 0 184 -27.5t139 -81.5t87 -133t30 -182q0 -98 -28.5 -161t-77.5 -93t-111 -30q-44 0 -78.5 17t-48.5 68q-20 -42 -53 -64t-85 -22q-85 0 -135 57.5t-50 172.5
v39q0 116 47.5 170t128.5 54q36 0 60 -9t39 -23.5t23 -31.5v57h123v-280q0 -48 10 -65.5t39 -17.5q26 0 44.5 14.5t28 49.5t9.5 98q0 86 -24 146.5t-67.5 99t-103 56.5t-130.5 18q-69 0 -128 -22t-103 -66t-68.5 -110t-24.5 -155q0 -122 43 -203.5t120 -122t179 -40.5
q75 0 129.5 17t92.5 39v-112q-40 -21 -92.5 -34.5t-129.5 -13.5zM471 127q37 0 58 24.5t21 71.5v58q0 50 -21 73t-59 23q-36 0 -55 -25t-19 -85v-31q0 -58 19.5 -83.5t55.5 -25.5z" />
    <glyph glyph-name="A" unicode="A" horiz-adv-x="710" vert-adv-y="0" 
d="M9 0l256 700h180l255 -700h-190l-48 134h-234l-48 -134h-171zM279 272h132l-66 208z" />
    <glyph glyph-name="B" unicode="B" horiz-adv-x="705" vert-adv-y="0" 
d="M70 0v700h335q123 0 179 -48.5t56 -138.5q0 -54 -28 -92.5t-75 -55.5q61 -14 97 -56.5t36 -110.5q0 -61 -26.5 -105.5t-82.5 -68.5t-146 -24h-345zM250 138h125q65 0 90 19.5t25 60.5t-25.5 61t-92.5 20h-122v-161zM250 421h111q58 0 78.5 18.5t20.5 52.5
q0 35 -20.5 52.5t-77.5 17.5h-112v-141z" />
    <glyph glyph-name="C" unicode="C" horiz-adv-x="710" vert-adv-y="0" 
d="M370 -13q-96 0 -169.5 35.5t-114.5 114.5t-41 209v19q0 92 25 158t69.5 108t103.5 62t127 20q61 0 115 -14t94.5 -44t65.5 -78t30 -117h-187q-9 55 -42 79t-76 24q-40 0 -71.5 -19.5t-49.5 -62.5t-18 -116v-21q0 -58 11 -98t30.5 -64t44.5 -34.5t53 -10.5q51 0 81.5 24.5
t36.5 78.5h187q-4 -70 -28.5 -118.5t-65 -78t-94.5 -43t-117 -13.5z" />
    <glyph glyph-name="D" unicode="D" horiz-adv-x="715" vert-adv-y="0" 
d="M70 0v700h265q105 0 180 -38t115 -112.5t40 -184.5v-20q0 -112 -41 -189t-118.5 -116.5t-185.5 -39.5h-255zM250 148h65q46 0 83.5 19t61.5 62.5t24 115.5v20q0 68 -21.5 109t-57.5 59.5t-80 18.5h-75v-404z" />
    <glyph glyph-name="E" unicode="E" horiz-adv-x="625" vert-adv-y="0" 
d="M70 0v700h510v-138h-330v-137h300v-130h-300v-157h330v-138h-510z" />
    <glyph glyph-name="F" unicode="F" horiz-adv-x="595" vert-adv-y="0" 
d="M70 0v700h495v-138h-315v-162h285v-130h-285v-270h-180z" />
    <glyph glyph-name="G" unicode="G" horiz-adv-x="735" vert-adv-y="0" 
d="M380 -13q-95 0 -171 36.5t-120 115.5t-44 206v20q0 91 26 156.5t71.5 108t105 63t127.5 20.5q60 0 112 -14t92.5 -43.5t67 -75.5t33.5 -110h-187q-8 38 -27.5 58t-43 27.5t-47.5 7.5q-42 0 -74.5 -18.5t-51 -61.5t-18.5 -118v-20q0 -56 11 -95.5t30.5 -64.5t47 -36.5
t60.5 -11.5q37 0 70 12.5t55 39.5t23 69h-128v114h295v-47q0 -90 -23.5 -154t-65.5 -105t-99.5 -60t-126.5 -19z" />
    <glyph glyph-name="H" unicode="H" horiz-adv-x="760" vert-adv-y="0" 
d="M70 0v700h180v-266h260v266h180v-700h-180v286h-260v-286h-180z" />
    <glyph glyph-name="I" unicode="I" horiz-adv-x="340" vert-adv-y="0" 
d="M80 0v700h180v-700h-180z" />
    <glyph glyph-name="J" unicode="J" horiz-adv-x="570" vert-adv-y="0" 
d="M260 -13q-77 0 -130 29.5t-80.5 86t-29.5 137.5h171q1 -51 16 -77t53 -26q23 0 38.5 11t23.5 36t8 66v450h180v-450q0 -96 -31.5 -153.5t-87.5 -83.5t-131 -26z" />
    <glyph glyph-name="K" unicode="K" horiz-adv-x="725" vert-adv-y="0" 
d="M70 0v700h180v-281l244 281h196l-260 -288l280 -412h-210l-192 295l-58 -64v-231h-180z" />
    <glyph glyph-name="L" unicode="L" horiz-adv-x="570" vert-adv-y="0" 
d="M70 0v700h180v-552h300v-148h-480z" />
    <glyph glyph-name="M" unicode="M" horiz-adv-x="890" vert-adv-y="0" 
d="M70 0v700h184l194 -355l192 355h180v-700h-180v401l-145 -266h-100l-145 266v-401h-180z" />
    <glyph glyph-name="N" unicode="N" horiz-adv-x="760" vert-adv-y="0" 
d="M70 0v700h159l271 -390v390h190v-700h-170l-270 390v-390h-180z" />
    <glyph glyph-name="O" unicode="O" horiz-adv-x="770" vert-adv-y="0" 
d="M385 -13q-68 0 -130 20t-109 63t-74 111.5t-27 163.5v20q0 92 27 158t74 108t109 62t130 20q70 0 131 -20t108 -62t74 -108t27 -158v-20q0 -95 -27 -163.5t-74 -111.5t-108 -63t-131 -20zM384 137q41 0 76 18.5t56.5 63t21.5 126.5v20q0 78 -21.5 121t-56.5 60t-76 17
q-39 0 -74 -17t-57 -60t-22 -121v-20q0 -82 22 -126.5t57 -63t74 -18.5z" />
    <glyph glyph-name="P" unicode="P" horiz-adv-x="670" vert-adv-y="0" 
d="M70 0v700h285q98 0 161 -28.5t93.5 -82t30.5 -128.5q0 -74 -30.5 -128t-93.5 -82.5t-161 -28.5h-105v-222h-180zM250 370h85q69 0 97 23t28 68t-28 68t-97 23h-85v-182z" />
    <glyph glyph-name="Q" unicode="Q" horiz-adv-x="770" vert-adv-y="0" 
d="M385 -13q-68 0 -130 20t-109 63t-74 111t-27 164v20q0 92 27 158t74 108t109 62t130 20q70 0 131 -20t108 -62t74 -108t27 -158v-20q0 -76 -17.5 -134t-48.5 -101l56 -55l-85 -85l-61 60q-39 -23 -86 -33t-98 -10zM385 137q17 0 33.5 2.5t31.5 10.5l-95 95l85 85l86 -86
q6 20 9 45.5t3 55.5v20q0 78 -21.5 121t-56.5 60t-75 17t-75 -17t-57 -60t-22 -121v-20q0 -82 22 -126.5t57 -63t75 -18.5z" />
    <glyph glyph-name="R" unicode="R" horiz-adv-x="695" vert-adv-y="0" 
d="M70 0v700h305q88 0 146.5 -29t88.5 -81t30 -124q0 -75 -35.5 -128.5t-106.5 -78.5l162 -259h-200l-136 240h-74v-240h-180zM250 380h85q72 0 98.5 21.5t26.5 64.5t-26.5 64.5t-98.5 21.5h-85v-172z" />
    <glyph glyph-name="S" unicode="S" horiz-adv-x="670" vert-adv-y="0" 
d="M335 -13q-98 0 -163 26t-97.5 73.5t-34.5 113.5h180q8 -38 35 -55.5t80 -17.5q57 0 85.5 16t28.5 49q0 27 -18.5 43t-56.5 27t-91 23q-69 16 -119 41.5t-77 68.5t-27 111q0 66 33.5 112t95.5 70.5t146 24.5q92 0 152.5 -24t92 -69t35.5 -110h-180q-6 32 -29 47.5
t-71 15.5q-53 0 -74 -17t-21 -44q0 -37 38.5 -54t111.5 -31q54 -11 98.5 -27t76 -41t48.5 -61.5t17 -89.5q0 -69 -35 -118.5t-101 -76t-159 -26.5z" />
    <glyph glyph-name="T" unicode="T" horiz-adv-x="650" vert-adv-y="0" 
d="M235 0v552h-215v148h610v-148h-215v-552h-180z" />
    <glyph glyph-name="U" unicode="U" horiz-adv-x="730" vert-adv-y="0" 
d="M365 -13q-93 0 -161.5 32.5t-106 98t-37.5 162.5v420h180v-399q0 -81 28 -122.5t97 -41.5q71 0 98 41.5t27 121.5v400h180v-420q0 -97 -37 -162.5t-105 -98t-163 -32.5z" />
    <glyph glyph-name="V" unicode="V" horiz-adv-x="710" vert-adv-y="0" 
d="M270 0l-261 700h201l158 -470l152 470h180l-250 -700h-180z" />
    <glyph glyph-name="W" unicode="W" horiz-adv-x="1000" vert-adv-y="0" 
d="M200 0l-181 700h191l95 -434l110 434h170l123 -436l102 436h170l-180 -700h-180l-125 452l-115 -452h-180z" />
    <glyph glyph-name="X" unicode="X" horiz-adv-x="720" vert-adv-y="0" 
d="M15 0l228 365l-218 335h199l137 -212l139 212h195l-217 -333l227 -367h-201l-146 245l-146 -245h-197z" />
    <glyph glyph-name="Y" unicode="Y" horiz-adv-x="700" vert-adv-y="0" 
d="M269 0v262l-259 438h208l146 -260l138 260h188l-240 -438v-262h-181z" />
    <glyph glyph-name="Z" unicode="Z" horiz-adv-x="630" vert-adv-y="0" 
d="M30 0v128l340 424h-336v148h556v-128l-339 -424h349v-148h-570z" />
    <glyph glyph-name="bracketleft" unicode="[" horiz-adv-x="380" vert-adv-y="0" 
d="M100 -200v900h240v-106h-106v-688h106v-106h-240z" />
    <glyph glyph-name="backslash" unicode="\" horiz-adv-x="480" vert-adv-y="0" 
d="M336 -200l-326 900h134l326 -900h-134z" />
    <glyph glyph-name="bracketright" unicode="]" horiz-adv-x="380" vert-adv-y="0" 
d="M280 700v-900h-240v106h106v688h-106v106h240z" />
    <glyph glyph-name="asciicircum" unicode="^" vert-adv-y="0" 
d="M30 440l183 260h155l182 -260h-180l-85 130l-85 -130h-170z" />
    <glyph glyph-name="underscore" unicode="_" horiz-adv-x="500" vert-adv-y="0" 
d="M0 -153v106h500v-106h-500z" />
    <glyph glyph-name="grave" unicode="`" horiz-adv-x="310" vert-adv-y="0" 
d="M170 580l-150 160h160l110 -160h-120z" />
    <glyph glyph-name="a" unicode="a" vert-adv-y="0" 
d="M215 -13q-57 0 -97.5 22t-61.5 60.5t-21 85.5q0 79 48.5 121t146.5 42h150v22q0 48 -22.5 66t-62.5 18q-38 0 -56 -11.5t-20 -37.5h-154q3 48 30.5 86t79 60t125.5 22q70 0 123 -21t82.5 -67.5t29.5 -124.5v-195q0 -42 2 -73.5t6 -61.5h-147q-1 17 -2.5 30t-1.5 32
q-24 -32 -66.5 -53.5t-110.5 -21.5zM265 96q33 0 59 12t41 36.5t15 55.5v22h-120q-34 0 -50.5 -18t-16.5 -41q0 -30 16.5 -48.5t55.5 -18.5z" />
    <glyph glyph-name="b" unicode="b" horiz-adv-x="615" vert-adv-y="0" 
d="M357 -13q-61 0 -103 26.5t-62 58.5v-72h-142v700h154v-237q27 39 67.5 59.5t85.5 20.5q112 0 170 -66t58 -197v-20q0 -90 -28 -150.5t-79 -91.5t-121 -31zM320 114q46 0 76.5 37.5t30.5 108.5v20q0 69 -29.5 102.5t-77.5 33.5q-32 0 -58.5 -13.5t-42 -40.5t-15.5 -67v-50
q0 -41 15.5 -70.5t42 -45t58.5 -15.5z" />
    <glyph glyph-name="c" unicode="c" horiz-adv-x="575" vert-adv-y="0" 
d="M300 -13q-78 0 -139 30t-96 91t-35 152v20q0 84 36.5 143t98 89.5t135.5 30.5q80 0 134 -27.5t83 -73.5t33 -102h-159q-7 36 -28.5 55.5t-62.5 19.5q-32 0 -57.5 -15t-40 -44.5t-14.5 -75.5v-20q0 -49 14 -81t39 -47.5t59 -15.5q35 0 59.5 18.5t31.5 55.5h159
q-4 -62 -36 -108t-86.5 -70.5t-127.5 -24.5z" />
    <glyph glyph-name="d" unicode="d" horiz-adv-x="615" vert-adv-y="0" 
d="M258 -13q-69 0 -120.5 31t-79.5 91.5t-28 150.5v20q0 86 27 144.5t78 88.5t123 30q45 0 85.5 -20.5t67.5 -59.5v237h154v-700h-142v72q-20 -32 -62.5 -58.5t-102.5 -26.5zM295 114q33 0 59 15.5t41.5 45t15.5 70.5v50q0 40 -15.5 67t-41.5 40.5t-59 13.5q-47 0 -77 -33.5
t-30 -102.5v-20q0 -72 30.5 -109t76.5 -37z" />
    <glyph glyph-name="e" unicode="e" horiz-adv-x="590" vert-adv-y="0" 
d="M305 -13q-78 0 -140 29.5t-98.5 90.5t-36.5 153v20q0 88 35 146t95.5 87.5t134.5 29.5q131 0 198 -67.5t67 -195.5v-56h-372q2 -39 18.5 -65t42.5 -37.5t56 -11.5q44 0 69.5 13.5t33.5 36.5h142q-16 -87 -79 -130t-166 -43zM300 420q-28 0 -53 -9t-40.5 -29.5
t-17.5 -55.5h220q0 37 -15 57.5t-39.5 28.5t-54.5 8z" />
    <glyph glyph-name="f" unicode="f" horiz-adv-x="365" vert-adv-y="0" 
d="M80 0v404h-60v126h60v25q0 48 18.5 81.5t63.5 51.5t123 18q15 0 37.5 -0.5t37.5 -3.5v-127q-15 2 -32.5 2.5t-32.5 0.5q-35 0 -48 -10.5t-13 -27.5v-10h116v-126h-116v-404h-154z" />
    <glyph glyph-name="g" unicode="g" horiz-adv-x="615" vert-adv-y="0" 
d="M290 -213q-86 0 -137.5 20t-75 58.5t-27.5 89.5h157q5 -18 22.5 -34t60.5 -16q60 0 90.5 27.5t30.5 87.5v57q-27 -39 -67.5 -59.5t-85.5 -20.5q-69 0 -120.5 30t-79.5 89t-28 149v20q0 84 27.5 141.5t79 87t121.5 29.5q62 0 103.5 -26.5t61.5 -58.5v72h142v-495
q0 -124 -66.5 -186t-208.5 -62zM295 124q33 0 59 15t41.5 43.5t15.5 67.5v50q0 38 -15.5 63.5t-41.5 39t-59 13.5q-47 0 -77 -32.5t-30 -98.5v-20q0 -69 30.5 -105t76.5 -36z" />
    <glyph glyph-name="h" unicode="h" horiz-adv-x="605" vert-adv-y="0" 
d="M50 0v700h154v-237q12 17 33 35.5t54 31.5t77 13q95 0 143.5 -51t48.5 -145v-347h-154v310q0 52 -22.5 78.5t-73.5 26.5q-37 0 -60.5 -14t-34.5 -37.5t-11 -53.5v-310h-154z" />
    <glyph glyph-name="i" unicode="i" horiz-adv-x="274" vert-adv-y="1200" 
d="M60 0v530h154v-530h-154zM137 580q-43 0 -66.5 22.5t-23.5 57.5t23.5 57.5t66.5 22.5t66.5 -22.5t23.5 -57.5t-23.5 -57.5t-66.5 -22.5z" />
    <glyph glyph-name="j" unicode="j" horiz-adv-x="274" vert-adv-y="1200" 
d="M24 -213q-11 0 -25 0.5t-25 2.5v128q8 -2 17.5 -2.5t17.5 -0.5q16 0 27.5 7.5t17.5 29.5t6 63v515h154v-530q0 -84 -16.5 -130t-58 -64.5t-115.5 -18.5zM137 580q-43 0 -66.5 22.5t-23.5 57.5t23.5 57.5t66.5 22.5t66.5 -22.5t23.5 -57.5t-23.5 -57.5t-66.5 -22.5z" />
    <glyph glyph-name="k" unicode="k" vert-adv-y="0" 
d="M50 0v700h154v-374l171 204h174l-186 -223l207 -307h-178l-133 200l-55 -64v-136h-154z" />
    <glyph glyph-name="l" unicode="l" horiz-adv-x="335" vert-adv-y="0" 
d="M240 -6q-64 0 -105 15.5t-60.5 57t-19.5 120.5v513h154v-490q0 -49 13.5 -68.5t56.5 -19.5q12 0 20 0.5t16 1.5v-127q-10 -1 -21.5 -1.5t-25 -1t-28.5 -0.5z" />
    <glyph glyph-name="m" unicode="m" horiz-adv-x="875" vert-adv-y="0" 
d="M50 0v530h145v-76q18 35 56 62t94 27q63 0 97.5 -24t50.5 -65q20 38 62 63.5t99 25.5q86 0 131 -48.5t45 -144.5v-350h-154v312q0 56 -17.5 79.5t-56.5 23.5q-23 0 -42.5 -12.5t-31 -35.5t-11.5 -55v-312h-154v312q0 56 -17.5 79.5t-57.5 23.5q-23 0 -42 -12.5
t-30.5 -35.5t-11.5 -55v-312h-154z" />
    <glyph glyph-name="n" unicode="n" horiz-adv-x="605" vert-adv-y="0" 
d="M50 0v530h142v-72q20 36 62.5 60.5t113.5 24.5q95 0 143.5 -51t48.5 -147v-345h-154v310q0 52 -22.5 78.5t-73.5 26.5q-37 0 -60.5 -14.5t-34.5 -38t-11 -52.5v-310h-154z" />
    <glyph glyph-name="o" unicode="o" horiz-adv-x="600" vert-adv-y="0" 
d="M300 -13q-74 0 -135.5 29t-98 90.5t-36.5 153.5v20q0 86 36.5 144.5t98 88.5t135.5 30q75 0 136 -30t97.5 -88.5t36.5 -144.5v-20q0 -91 -36.5 -151.5t-97.5 -91t-136 -30.5zM300 115q36 0 61 17.5t38 50.5t13 77v20q0 40 -13 70t-38 47.5t-61 17.5t-61 -17.5t-38 -47.5
t-13 -70v-20q0 -46 13 -78.5t38 -49.5t61 -17z" />
    <glyph glyph-name="p" unicode="p" horiz-adv-x="615" vert-adv-y="0" 
d="M50 -200v730h142v-72q21 32 62.5 58.5t102.5 26.5q112 0 170 -66t58 -197v-20q0 -90 -28 -150.5t-79 -91.5t-121 -31q-45 0 -85.5 20.5t-67.5 59.5v-267h-154zM320 114q46 0 76.5 37.5t30.5 108.5v20q0 69 -29.5 102.5t-77.5 33.5q-32 0 -58.5 -13.5t-42 -40.5t-15.5 -67
v-50q0 -41 15.5 -70.5t42 -45t58.5 -15.5z" />
    <glyph glyph-name="q" unicode="q" horiz-adv-x="615" vert-adv-y="0" 
d="M411 -200v267q-27 -39 -67.5 -59.5t-85.5 -20.5q-69 0 -120.5 31t-79.5 91.5t-28 150.5v20q0 86 27 144.5t78 88.5t123 30q61 0 103 -26.5t62 -58.5v72h142v-730h-154zM295 114q33 0 59 15.5t41.5 45t15.5 70.5v50q0 40 -15.5 67t-41.5 40.5t-59 13.5q-47 0 -77 -33.5
t-30 -102.5v-20q0 -72 30.5 -109t76.5 -37z" />
    <glyph glyph-name="r" unicode="r" horiz-adv-x="390" vert-adv-y="0" 
d="M50 0v530h142v-72q8 18 27 38t46 33.5t60 13.5q17 0 27 -2t18 -4v-133q-5 3 -23 7t-42 4q-35 0 -57.5 -14t-33 -38t-10.5 -54v-309h-154z" />
    <glyph glyph-name="s" unicode="s" horiz-adv-x="560" vert-adv-y="0" 
d="M280 -13q-65 0 -111.5 13.5t-76.5 37t-45 55t-17 67.5h154q6 -22 26 -38.5t70 -16.5q51 0 73 14t22 37q0 12 -9.5 21.5t-35 17.5t-73.5 16q-44 7 -82.5 18t-67.5 29.5t-45.5 47.5t-16.5 73q0 47 28 84t81 58.5t126 21.5q83 0 131.5 -25.5t71.5 -65t27 -82.5h-155
q-6 25 -25.5 40t-49.5 15q-46 0 -63.5 -14t-17.5 -34t28 -31.5t89 -19.5q44 -6 82.5 -17t68 -30.5t46.5 -49t17 -71.5q0 -50 -28.5 -89t-84 -60.5t-137.5 -21.5z" />
    <glyph glyph-name="t" unicode="t" horiz-adv-x="400" vert-adv-y="0" 
d="M275 -6q-66 0 -108 17.5t-62 58t-20 110.5v224h-65v126h65v120h154v-120h121v-126h-121v-199q0 -45 14.5 -64t56.5 -19q30 0 60 3v-125q-19 -3 -40 -4.5t-55 -1.5z" />
    <glyph glyph-name="u" unicode="u" horiz-adv-x="595" vert-adv-y="0" 
d="M232 -13q-91 0 -139 52t-48 158v333h154v-309q0 -52 21.5 -79t69.5 -27q34 0 56.5 14t33.5 38t11 54v309h154v-530h-142v72q-21 -36 -63.5 -60.5t-107.5 -24.5z" />
    <glyph glyph-name="v" unicode="v" horiz-adv-x="600" vert-adv-y="0" 
d="M233 0l-223 530h170l134 -353l122 353h154l-202 -530h-155z" />
    <glyph glyph-name="w" unicode="w" horiz-adv-x="830" vert-adv-y="0" 
d="M158 0l-148 530h166l74 -326l93 326h144l100 -323l83 323h150l-148 -530h-154l-104 344l-102 -344h-154z" />
    <glyph glyph-name="x" unicode="x" vert-adv-y="0" 
d="M10 0l169 276l-159 254h170l104 -161l100 161h166l-158 -249l168 -281h-171l-111 189l-111 -189h-167z" />
    <glyph glyph-name="y" unicode="y" horiz-adv-x="600" vert-adv-y="0" 
d="M155 -213q-15 0 -30 3v128q15 -3 30 -3q20 0 33 8.5t23.5 27.5t22.5 50l-224 529h170l132 -353l125 353h153l-202 -530q-30 -75 -57 -122.5t-67.5 -69t-108.5 -21.5z" />
    <glyph glyph-name="z" unicode="z" horiz-adv-x="510" vert-adv-y="0" 
d="M25 0v106l254 298h-244v126h440v-105l-254 -299h264v-126h-460z" />
    <glyph glyph-name="braceleft" unicode="{" horiz-adv-x="380" vert-adv-y="0" 
d="M350 -200h-70q-79 0 -124.5 45.5t-45.5 124.5v177q0 23 -13.5 36.5t-36.5 13.5v106q23 0 36.5 14t13.5 36v177q0 79 45.5 124.5t124.5 45.5h70v-106h-40q-35 0 -50.5 -16t-15.5 -50v-208q0 -30 -13.5 -46t-36.5 -24q23 -8 36.5 -24t13.5 -46v-208q0 -34 15.5 -50
t50.5 -16h40v-106z" />
    <glyph glyph-name="bar" unicode="|" horiz-adv-x="340" vert-adv-y="0" 
d="M103 -200v900h134v-900h-134z" />
    <glyph glyph-name="braceright" unicode="}" horiz-adv-x="380" vert-adv-y="0" 
d="M30 700h70q79 0 124.5 -45.5t45.5 -124.5v-177q0 -23 13.5 -36.5t36.5 -13.5v-106q-23 0 -36.5 -14t-13.5 -36v-177q0 -79 -45.5 -124.5t-124.5 -45.5h-70v106h40q35 0 50.5 16t15.5 50v208q0 30 13.5 46t36.5 24q-23 8 -36.5 24t-13.5 46v208q0 34 -15.5 50t-50.5 16
h-40v106z" />
    <glyph glyph-name="asciitilde" unicode="~" vert-adv-y="0" 
d="M385 248q-34 0 -60 11t-48.5 26t-43 26t-43.5 11q-14 0 -25.5 -9.5t-20.5 -20.5l-8 -14t-8 -15l-103 72q8 19 17.5 36t22.5 33q20 25 52.5 46.5t77.5 21.5q34 0 60 -11t47.5 -26t43 -26t44.5 -11q14 0 25.5 9t19.5 20q5 8 9 15t8 15l103 -72q-8 -19 -18 -36.5t-22 -33.5
q-21 -25 -53 -46t-77 -21z" />
    <glyph glyph-name="uni00A0" unicode="&#xa0;" horiz-adv-x="250" vert-adv-y="0" 
 />
    <glyph glyph-name="exclamdown" unicode="&#xa1;" horiz-adv-x="320" vert-adv-y="0" 
d="M83 -200v489h154v-489h-154zM160 353q-26 0 -48 12.5t-34.5 34.5t-12.5 47q0 41 27.5 68.5t67.5 27.5t68 -27.5t28 -68.5q0 -26 -13 -47.5t-34.5 -34t-48.5 -12.5z" />
    <glyph glyph-name="cent" unicode="&#xa2;" horiz-adv-x="575" vert-adv-y="0" 
d="M230 -120v114q-89 19 -144.5 85t-55.5 181v20q0 70 26 123t71 86.5t103 45.5v95h140v-94q58 -11 96.5 -39.5t59.5 -68.5t24 -88h-159q-7 36 -28.5 55.5t-62.5 19.5q-32 0 -57.5 -15t-40 -44.5t-14.5 -75.5v-20q0 -49 14 -81t39 -47.5t59 -15.5q35 0 59.5 18.5t31.5 55.5
h159q-6 -78 -53 -129t-127 -67v-114h-140z" />
    <glyph glyph-name="sterling" unicode="&#xa3;" horiz-adv-x="660" vert-adv-y="0" 
d="M45 0v148h90v133h-80v118h80v101q0 69 27.5 116t81.5 72t134 25q79 0 130.5 -24.5t78 -69.5t28.5 -109h-181q-4 29 -20.5 41t-35.5 12q-27 0 -45 -15.5t-18 -47.5v-101h155v-118h-155v-133h300v-148h-570z" />
    <glyph glyph-name="currency" unicode="&#xa4;" vert-adv-y="0" 
d="M124 105l-89 89l62 62q-13 23 -20 49t-7 55q0 28 7 54.5t20 49.5l-62 62l89 89l62 -62q23 13 49 20t54 7q29 0 55.5 -7t49.5 -20l62 62l89 -89l-62 -62q13 -23 20 -49.5t7 -54.5q0 -29 -7 -55.5t-20 -48.5l62 -62l-89 -89l-62 62q-23 -13 -49.5 -20t-54.5 -7q-29 0 -55 7
t-49 20zM290 282q33 0 54.5 21.5t21.5 56.5t-21.5 56.5t-54.5 21.5t-54.5 -21.5t-21.5 -56.5t21.5 -56.5t54.5 -21.5z" />
    <glyph glyph-name="yen" unicode="&#xa5;" horiz-adv-x="660" vert-adv-y="0" 
d="M245 0v128h-180v118h180v48h-180v118h90l-145 288h208l121 -288l123 288h188l-139 -288h94v-118h-180v-48h180v-118h-180v-128h-180z" />
    <glyph glyph-name="brokenbar" unicode="&#xa6;" horiz-adv-x="340" vert-adv-y="0" 
d="M103 -200v370h134v-370h-134zM103 330v370h134v-370h-134z" />
    <glyph glyph-name="section" unicode="&#xa7;" vert-adv-y="0" 
d="M290 -213q-70 0 -118 22.5t-72.5 64t-24.5 96.5h186q0 -16 7.5 -24.5t21.5 -8.5t21.5 8t7.5 21q0 15 -9.5 28t-36.5 27.5t-81 34.5q-66 25 -109 75t-43 119q0 55 28 99t75 72q-36 23 -52 56t-16 73q0 45 24.5 82t72.5 59t118 22q71 0 118.5 -22.5t72 -64t24.5 -96.5h-186
q0 17 -7.5 25t-21.5 8t-21.5 -8t-7.5 -21q0 -15 11 -27.5t41.5 -27.5t90.5 -41q61 -25 98.5 -74.5t37.5 -113.5q0 -55 -28 -99.5t-75 -72.5q36 -23 52 -56t16 -72q0 -45 -24.5 -82t-72.5 -59t-118 -22zM290 190q26 0 45 17t19 43t-19 43t-45 17t-45 -17t-19 -43t19 -43
t45 -17z" />
    <glyph glyph-name="dieresis" unicode="&#xa8;" horiz-adv-x="420" vert-adv-y="0" 
d="M102 580q-36 0 -59 22.5t-23 57.5t22.5 57.5t59.5 22.5t59.5 -22.5t22.5 -57.5t-22.5 -57.5t-59.5 -22.5zM318 580q-37 0 -59.5 22.5t-22.5 57.5t22.5 57.5t59.5 22.5t59.5 -22.5t22.5 -57.5t-22.5 -57.5t-59.5 -22.5z" />
    <glyph glyph-name="copyright" unicode="&#xa9;" horiz-adv-x="850" vert-adv-y="0" 
d="M426 -28q-81 0 -151.5 28.5t-123 80t-82 120t-29.5 149.5t29.5 150t82 120t122.5 79.5t151 28.5t150.5 -28.5t122.5 -79.5t82.5 -120t29.5 -150t-29 -149.5t-82.5 -120t-123 -80t-149.5 -28.5zM425 84q73 0 133 35t96 95.5t36 135.5q0 76 -36 136t-96 95t-133 35
t-133.5 -35t-96 -95t-35.5 -136q0 -75 35.5 -135.5t96 -95.5t133.5 -35zM425 137q-62 0 -108 23.5t-71.5 70t-25.5 114.5v10q0 64 26.5 110.5t73.5 72t105 25.5q52 0 94.5 -16.5t69 -52t30.5 -94.5h-136q-8 34 -23 45.5t-35 11.5q-29 0 -49 -23t-20 -79v-10q0 -58 21.5 -80
t48.5 -22q23 0 37.5 15.5t18.5 46.5h137q-4 -60 -29.5 -97t-68 -54t-96.5 -17z" />
    <glyph glyph-name="ordfeminine" unicode="&#xaa;" vert-adv-y="1200" 
d="M215 -13q-57 0 -97.5 22t-61.5 60.5t-21 85.5q0 79 48.5 121t146.5 42h150v22q0 48 -22.5 66t-62.5 18q-38 0 -56 -11.5t-20 -37.5h-154q3 48 30.5 86t79 60t125.5 22q70 0 123 -21t82.5 -67.5t29.5 -124.5v-195q0 -42 2 -73.5t6 -61.5h-147q-1 17 -2.5 30t-1.5 32
q-24 -32 -66.5 -53.5t-110.5 -21.5zM265 96q33 0 59 12t41 36.5t15 55.5v22h-120q-34 0 -50.5 -18t-16.5 -41q0 -30 16.5 -48.5t55.5 -18.5z" />
    <glyph glyph-name="guillemotleft" unicode="&#xab;" horiz-adv-x="535" vert-adv-y="0" 
d="M245 25l-220 187v126l220 187v-162l-105 -86l105 -86v-166zM490 25l-220 187v126l220 187v-162l-105 -86l105 -86v-166z" />
    <glyph glyph-name="logicalnot" unicode="&#xac;" vert-adv-y="0" 
d="M390 120v166h-355v148h510v-314h-155z" />
    <glyph glyph-name="uni00AD" unicode="&#xad;" horiz-adv-x="380" vert-adv-y="0" 
d="M25 206v148h330v-148h-330z" />
    <glyph glyph-name="registered" unicode="&#xae;" horiz-adv-x="630" vert-adv-y="0" 
d="M315 137q-59 0 -110.5 22t-91 61.5t-61.5 92t-22 112.5t22 112.5t61.5 92t91 61.5t110.5 22t110.5 -22t91 -61.5t61.5 -92t22 -112.5t-22 -112.5t-61.5 -92t-91 -61.5t-110.5 -22zM315 219q56 0 101 27t71.5 73t26.5 106q0 59 -26.5 106t-71.5 74t-100 27
q-57 0 -101.5 -27t-71.5 -74t-27 -107q0 -58 27 -104.5t71.5 -73.5t100.5 -27zM195 275v300h121q77 0 107.5 -26t30.5 -75q0 -34 -15 -55.5t-44 -32.5l45 -111h-100l-30 100h-21v-100h-94zM289 445h22q29 0 39.5 8t10.5 21t-10.5 21t-39.5 8h-22v-58z" />
    <glyph glyph-name="macron" unicode="&#xaf;" horiz-adv-x="360" vert-adv-y="0" 
d="M20 607v106h320v-106h-320z" />
    <glyph glyph-name="degree" unicode="&#xb0;" horiz-adv-x="390" vert-adv-y="0" 
d="M195 373q-46 0 -85 23t-62 62t-23 85q0 47 23 86t61.5 61.5t85.5 22.5t85 -23t61.5 -61.5t23.5 -85.5q0 -46 -23 -85t-61.5 -62t-85.5 -23zM195 491q22 0 37 15t15 37t-15 37t-37 15t-37 -15t-15 -37t15 -37t37 -15z" />
    <glyph glyph-name="plusminus" unicode="&#xb1;" vert-adv-y="0" 
d="M35 56v148h510v-148h-510zM213 270v66h-178v148h178v181h154v-181h178v-148h-178v-66h-154z" />
    <glyph glyph-name="uni00B2" unicode="&#xb2;" horiz-adv-x="390" vert-adv-y="0" 
d="M15 380v91l157 120q35 26 44.5 37t9.5 22q0 12 -7 18.5t-24 6.5q-14 0 -23 -10t-9 -30h-143q0 77 42 117.5t133 40.5q90 0 132.5 -36.5t42.5 -91.5q0 -24 -6.5 -44.5t-28.5 -44t-64 -53.5l-38 -27h142v-116h-360z" />
    <glyph glyph-name="uni00B3" unicode="&#xb3;" horiz-adv-x="400" vert-adv-y="0" 
d="M200 367q-98 0 -141.5 40t-43.5 113h143q0 -17 10 -26t32 -9q23 0 32 8t9 22q0 13 -9.5 21t-32.5 8h-34v82h33q18 0 25.5 6.5t7.5 19.5q0 11 -8 17t-23 6q-14 0 -23 -6.5t-9 -23.5h-143q0 72 41 110t134 38q88 0 131.5 -33.5t43.5 -83.5q0 -39 -17.5 -57.5t-47.5 -28.5
q30 -10 52.5 -33t22.5 -65q0 -53 -44 -89t-141 -36z" />
    <glyph glyph-name="acute" unicode="&#xb4;" horiz-adv-x="310" vert-adv-y="0" 
d="M20 580l110 160h160l-150 -160h-120z" />
    <glyph glyph-name="uni03BC" unicode="&#xb5;" horiz-adv-x="600" vert-adv-y="0" 
d="M50 -200v730h154v-309q0 -52 21.5 -79t69.5 -27q35 0 57 14t33 38t11 54v309h154v-530h-142v72q-20 -35 -63 -60t-108 -25q-9 0 -17 1l-16 2v-190h-154z" />
    <glyph glyph-name="paragraph" unicode="&#xb6;" horiz-adv-x="640" vert-adv-y="0" 
d="M180 -200v506q-42 11 -76 39t-54 68.5t-20 86.5q0 55 27.5 100t73 72.5t99.5 27.5h340v-900h-134v774h-122v-774h-134z" />
    <glyph glyph-name="periodcentered" unicode="&#xb7;" horiz-adv-x="320" vert-adv-y="0" 
d="M160 179q-26 0 -48 12.5t-34.5 34t-12.5 49.5q0 39 27.5 66.5t67.5 27.5t68 -27.5t28 -66.5q0 -28 -13 -49.5t-34.5 -34t-48.5 -12.5z" />
    <glyph glyph-name="cedilla" unicode="&#xb8;" horiz-adv-x="250" vert-adv-y="0" 
d="M95 -213q-19 0 -33 1t-23 2q-5 2 -10 3.5t-9 3.5v79l14 -3q7 -1 16 -2t20 -1q24 0 32.5 7.5t8.5 15.5t-7 16.5t-36 8.5l17 92h84l-7 -45q37 -8 52.5 -31t15.5 -49q0 -45 -31 -71.5t-104 -26.5z" />
    <glyph glyph-name="uni00B9" unicode="&#xb9;" horiz-adv-x="290" vert-adv-y="0" 
d="M112 380v247l-102 -72v147l110 78h140v-400h-148z" />
    <glyph glyph-name="ordmasculine" unicode="&#xba;" horiz-adv-x="380" vert-adv-y="1200" 
d="M190 367q-81 0 -128 46t-47 122v10q0 51 21 88.5t60.5 58.5t93.5 21t93.5 -21t60.5 -58t21 -89v-10q0 -76 -47 -122t-128 -46zM190 485q14 0 23 11t9 39v10q0 28 -8.5 39t-23.5 11q-14 0 -23 -11t-9 -39v-10q0 -28 8.5 -39t23.5 -11z" />
    <glyph glyph-name="guillemotright" unicode="&#xbb;" horiz-adv-x="535" vert-adv-y="0" 
d="M45 525l220 -187v-126l-220 -187v162l105 86l-105 86v166zM290 525l220 -187v-126l-220 -187v162l105 86l-105 86v166z" />
    <glyph glyph-name="onequarter" unicode="&#xbc;" horiz-adv-x="885" vert-adv-y="1200" 
d="M112 380v247l-102 -72v147l110 78h140v-400h-148zM60 0l480 700h160l-480 -700h-160zM677 0v62h-198v92l185 246h156v-222h40v-116h-40v-62h-143zM619 178h58v90z" />
    <glyph glyph-name="onehalf" unicode="&#xbd;" horiz-adv-x="860" vert-adv-y="1200" 
d="M112 380v247l-102 -72v147l110 78h140v-400h-148zM60 0l480 700h160l-480 -700h-160zM485 0v91l157 120q35 26 44.5 37t9.5 22q0 12 -7 18.5t-24 6.5q-14 0 -23 -10t-9 -30h-143q0 77 42 117.5t133 40.5q90 0 132.5 -36.5t42.5 -91.5q0 -24 -6.5 -44.5t-28.5 -44
t-64 -53.5l-38 -27h142v-116h-360z" />
    <glyph glyph-name="threequarters" unicode="&#xbe;" horiz-adv-x="995" vert-adv-y="1200" 
d="M200 367q-98 0 -141.5 40t-43.5 113h143q0 -17 10 -26t32 -9q23 0 32 8t9 22q0 13 -9.5 21t-32.5 8h-34v82h33q18 0 25.5 6.5t7.5 19.5q0 11 -8 17t-23 6q-14 0 -23 -6.5t-9 -23.5h-143q0 72 41 110t134 38q88 0 131.5 -33.5t43.5 -83.5q0 -39 -17.5 -57.5t-47.5 -28.5
q30 -10 52.5 -33t22.5 -65q0 -53 -44 -89t-141 -36zM170 0l480 700h160l-480 -700h-160zM787 0v62h-198v92l185 246h156v-222h40v-116h-40v-62h-143zM729 178h58v90z" />
    <glyph glyph-name="questiondown" unicode="&#xbf;" horiz-adv-x="540" vert-adv-y="0" 
d="M270 -213q-78 0 -131.5 26t-81 69.5t-27.5 97.5q0 41 13 71.5t33 55t42 43.5q35 31 51 48t20 27t4 20v44h154v-69q0 -29 -11.5 -52t-31.5 -43t-46 -42q-33 -27 -51.5 -49.5t-18.5 -48.5q0 -33 20 -51.5t62 -18.5q40 0 61 21t21 59h158q0 -57 -29.5 -104t-83 -75.5
t-127.5 -28.5zM270 353q-25 0 -47.5 12.5t-35 34.5t-12.5 47q0 41 27.5 68.5t67.5 27.5t67.5 -27.5t27.5 -68.5q0 -25 -12.5 -47t-34 -34.5t-48.5 -12.5z" />
    <glyph glyph-name="Agrave" unicode="&#xc0;" horiz-adv-x="710" vert-adv-y="1200" 
d="M9 0l256 700h180l255 -700h-190l-48 134h-234l-48 -134h-171zM279 272h132l-66 208zM290 750l-150 150h170l110 -150h-130z" />
    <glyph glyph-name="Aacute" unicode="&#xc1;" horiz-adv-x="710" vert-adv-y="1200" 
d="M9 0l256 700h180l255 -700h-190l-48 134h-234l-48 -134h-171zM279 272h132l-66 208zM288 750l110 150h170l-150 -150h-130z" />
    <glyph glyph-name="Acircumflex" unicode="&#xc2;" horiz-adv-x="710" vert-adv-y="1200" 
d="M9 0l256 700h180l255 -700h-190l-48 134h-234l-48 -134h-171zM279 272h132l-66 208zM164 750l110 150h160l110 -150h-130l-60 60l-60 -60h-130z" />
    <glyph glyph-name="Atilde" unicode="&#xc3;" horiz-adv-x="710" vert-adv-y="1200" 
d="M9 0l256 700h180l255 -700h-190l-48 134h-234l-48 -134h-171zM279 272h132l-66 208zM429 739q-37 0 -60.5 11t-44 22.5t-45.5 11.5q-14 0 -23 -6t-15 -14q-3 -3 -6.5 -8.5t-5.5 -11.5l-75 56q5 16 12 29.5t15 26.5q14 20 38 37.5t60 17.5q38 0 61.5 -11.5t43.5 -22.5
t45 -11q13 0 23 6t15 14q4 4 7 9t5 11l75 -56q-5 -17 -12 -30.5t-15 -24.5q-14 -22 -38.5 -39t-59.5 -17z" />
    <glyph glyph-name="Adieresis" unicode="&#xc4;" horiz-adv-x="710" vert-adv-y="1200" 
d="M9 0l256 700h180l255 -700h-190l-48 134h-234l-48 -134h-171zM279 272h132l-66 208zM230 740q-43 0 -66.5 25t-23.5 60t23.5 60t66.5 25t66.5 -25t23.5 -60t-23.5 -60t-66.5 -25zM480 740q-43 0 -66.5 25t-23.5 60t23.5 60t66.5 25t66.5 -25t23.5 -60t-24 -60t-66 -25z
" />
    <glyph glyph-name="Aring" unicode="&#xc5;" horiz-adv-x="710" vert-adv-y="1200" 
d="M9 0l256 700h180l255 -700h-190l-48 134h-234l-48 -134h-171zM279 272h132l-66 208zM354 730q-39 0 -69.5 14t-47.5 40.5t-17 60.5q0 35 17 61t47.5 40t70.5 14q42 0 71.5 -14t46.5 -40t17 -61q0 -34 -17 -60.5t-47 -40.5t-72 -14zM355 815q21 0 33 7.5t12 22.5t-12 22.5
t-34 7.5q-20 0 -32 -7.5t-12 -22.5t12 -22.5t33 -7.5z" />
    <glyph glyph-name="AE" unicode="&#xc6;" horiz-adv-x="1025" vert-adv-y="0" 
d="M10 0l410 700h560v-138h-330v-137h300v-130h-300v-157h330v-138h-510v134h-199l-79 -134h-182zM351 272h119v213z" />
    <glyph glyph-name="Ccedilla" unicode="&#xc7;" horiz-adv-x="710" vert-adv-y="1200" 
d="M370 -13q-96 0 -169.5 35.5t-114.5 114.5t-41 209v19q0 92 25 158t69.5 108t103.5 62t127 20q61 0 115 -14t94.5 -44t65.5 -78t30 -117h-187q-9 55 -42 79t-76 24q-40 0 -71.5 -19.5t-49.5 -62.5t-18 -116v-21q0 -58 11 -98t30.5 -64t44.5 -34.5t53 -10.5q51 0 81.5 24.5
t36.5 78.5h187q-4 -70 -28.5 -118.5t-65 -78t-94.5 -43t-117 -13.5zM340 -213q-19 0 -33 1t-23 2q-5 2 -10 3.5t-9 3.5v81l14 -3q7 -1 16 -2t20 -1q23 0 31 6.5t8 15.5q0 7 -8 14.5t-35 7.5l17 94h88l-7 -45q35 -8 50.5 -31t15.5 -49q0 -45 -31 -71.5t-104 -26.5z" />
    <glyph glyph-name="Egrave" unicode="&#xc8;" horiz-adv-x="625" vert-adv-y="1200" 
d="M70 0v700h510v-138h-330v-137h300v-130h-300v-157h330v-138h-510zM260 750l-150 150h170l110 -150h-130z" />
    <glyph glyph-name="Eacute" unicode="&#xc9;" horiz-adv-x="625" vert-adv-y="1200" 
d="M70 0v700h510v-138h-330v-137h300v-130h-300v-157h330v-138h-510zM259 750l110 150h170l-150 -150h-130z" />
    <glyph glyph-name="Ecircumflex" unicode="&#xca;" horiz-adv-x="625" vert-adv-y="1200" 
d="M70 0v700h510v-138h-330v-137h300v-130h-300v-157h330v-138h-510zM135 750l110 150h160l110 -150h-130l-60 60l-60 -60h-130z" />
    <glyph glyph-name="Edieresis" unicode="&#xcb;" horiz-adv-x="625" vert-adv-y="1200" 
d="M70 0v700h510v-138h-330v-137h300v-130h-300v-157h330v-138h-510zM200 740q-43 0 -66.5 25t-23.5 60t23.5 60t66.5 25t66.5 -25t23.5 -60t-23.5 -60t-66.5 -25zM450 740q-43 0 -66.5 25t-23.5 60t23.5 60t66.5 25t66.5 -25t23.5 -60t-24 -60t-66 -25z" />
    <glyph glyph-name="Igrave" unicode="&#xcc;" horiz-adv-x="340" vert-adv-y="1200" 
d="M80 0v700h180v-700h-180zM105 750l-150 150h170l110 -150h-130z" />
    <glyph glyph-name="Iacute" unicode="&#xcd;" horiz-adv-x="340" vert-adv-y="1200" 
d="M80 0v700h180v-700h-180zM104 750l110 150h170l-150 -150h-130z" />
    <glyph glyph-name="Icircumflex" unicode="&#xce;" horiz-adv-x="340" vert-adv-y="1200" 
d="M80 0v700h180v-700h-180zM-20 750l110 150h160l110 -150h-130l-60 60l-60 -60h-130z" />
    <glyph glyph-name="Idieresis" unicode="&#xcf;" horiz-adv-x="340" vert-adv-y="1200" 
d="M80 0v700h180v-700h-180zM45 740q-43 0 -66.5 25t-23.5 60t23.5 60t66.5 25t66.5 -25t23.5 -60t-23.5 -60t-66.5 -25zM295 740q-43 0 -66.5 25t-23.5 60t23.5 60t66.5 25t66.5 -25t23.5 -60t-24 -60t-66 -25z" />
    <glyph glyph-name="Eth" unicode="&#xd0;" horiz-adv-x="745" vert-adv-y="0" 
d="M100 0v286h-80v138h80v276h265q105 0 180 -38t115 -112.5t40 -184.5v-20q0 -112 -41 -189t-118.5 -116.5t-185.5 -39.5h-255zM280 148h65q46 0 84 19t61 62.5t23 115.5v20q0 68 -21 109t-57 59.5t-80 18.5h-75v-128h120v-138h-120v-138z" />
    <glyph glyph-name="Ntilde" unicode="&#xd1;" horiz-adv-x="760" vert-adv-y="1200" 
d="M70 0v700h159l271 -390v390h190v-700h-170l-270 390v-390h-180zM455 739q-37 0 -60.5 11t-44 22.5t-45.5 11.5q-14 0 -23 -6t-15 -14q-3 -3 -6.5 -8.5t-5.5 -11.5l-75 56q5 16 12 29.5t15 26.5q14 20 38 37.5t60 17.5q38 0 61.5 -11.5t43.5 -22.5t45 -11q13 0 23 6t15 14
q4 4 7 9t5 11l75 -56q-5 -17 -12 -30.5t-15 -24.5q-14 -22 -38.5 -39t-59.5 -17z" />
    <glyph glyph-name="Ograve" unicode="&#xd2;" horiz-adv-x="770" vert-adv-y="1200" 
d="M385 -13q-68 0 -130 20t-109 63t-74 111.5t-27 163.5v20q0 92 27 158t74 108t109 62t130 20q70 0 131 -20t108 -62t74 -108t27 -158v-20q0 -95 -27 -163.5t-74 -111.5t-108 -63t-131 -20zM384 137q41 0 76 18.5t56.5 63t21.5 126.5v20q0 78 -21.5 121t-56.5 60t-76 17
q-39 0 -74 -17t-57 -60t-22 -121v-20q0 -82 22 -126.5t57 -63t74 -18.5zM319 750l-150 150h170l110 -150h-130z" />
    <glyph glyph-name="Oacute" unicode="&#xd3;" horiz-adv-x="770" vert-adv-y="1200" 
d="M385 -13q-68 0 -130 20t-109 63t-74 111.5t-27 163.5v20q0 92 27 158t74 108t109 62t130 20q70 0 131 -20t108 -62t74 -108t27 -158v-20q0 -95 -27 -163.5t-74 -111.5t-108 -63t-131 -20zM384 137q41 0 76 18.5t56.5 63t21.5 126.5v20q0 78 -21.5 121t-56.5 60t-76 17
q-39 0 -74 -17t-57 -60t-22 -121v-20q0 -82 22 -126.5t57 -63t74 -18.5zM319 750l110 150h170l-150 -150h-130z" />
    <glyph glyph-name="Ocircumflex" unicode="&#xd4;" horiz-adv-x="770" vert-adv-y="1200" 
d="M385 -13q-68 0 -130 20t-109 63t-74 111.5t-27 163.5v20q0 92 27 158t74 108t109 62t130 20q70 0 131 -20t108 -62t74 -108t27 -158v-20q0 -95 -27 -163.5t-74 -111.5t-108 -63t-131 -20zM384 137q41 0 76 18.5t56.5 63t21.5 126.5v20q0 78 -21.5 121t-56.5 60t-76 17
q-39 0 -74 -17t-57 -60t-22 -121v-20q0 -82 22 -126.5t57 -63t74 -18.5zM195 750l110 150h160l110 -150h-130l-60 60l-60 -60h-130z" />
    <glyph glyph-name="Otilde" unicode="&#xd5;" horiz-adv-x="770" vert-adv-y="1200" 
d="M385 -13q-68 0 -130 20t-109 63t-74 111.5t-27 163.5v20q0 92 27 158t74 108t109 62t130 20q70 0 131 -20t108 -62t74 -108t27 -158v-20q0 -95 -27 -163.5t-74 -111.5t-108 -63t-131 -20zM384 137q41 0 76 18.5t56.5 63t21.5 126.5v20q0 78 -21.5 121t-56.5 60t-76 17
q-39 0 -74 -17t-57 -60t-22 -121v-20q0 -82 22 -126.5t57 -63t74 -18.5zM460 739q-37 0 -60.5 11t-44 22.5t-45.5 11.5q-14 0 -23 -6t-15 -14q-3 -3 -6.5 -8.5t-5.5 -11.5l-75 56q5 16 12 29.5t15 26.5q14 20 38 37.5t60 17.5q38 0 61.5 -11.5t43.5 -22.5t45 -11q13 0 23 6
t15 14q4 4 7 9t5 11l75 -56q-5 -17 -12 -30.5t-15 -24.5q-14 -22 -38.5 -39t-59.5 -17z" />
    <glyph glyph-name="Odieresis" unicode="&#xd6;" horiz-adv-x="770" vert-adv-y="1200" 
d="M385 -13q-68 0 -130 20t-109 63t-74 111.5t-27 163.5v20q0 92 27 158t74 108t109 62t130 20q70 0 131 -20t108 -62t74 -108t27 -158v-20q0 -95 -27 -163.5t-74 -111.5t-108 -63t-131 -20zM384 137q41 0 76 18.5t56.5 63t21.5 126.5v20q0 78 -21.5 121t-56.5 60t-76 17
q-39 0 -74 -17t-57 -60t-22 -121v-20q0 -82 22 -126.5t57 -63t74 -18.5zM260 740q-43 0 -66.5 25t-23.5 60t23.5 60t66.5 25t66.5 -25t23.5 -60t-23.5 -60t-66.5 -25zM510 740q-43 0 -66.5 25t-23.5 60t23.5 60t66.5 25t66.5 -25t23.5 -60t-24 -60t-66 -25z" />
    <glyph glyph-name="multiply" unicode="&#xd7;" vert-adv-y="0" 
d="M155 125l-100 99l136 136l-136 136l100 99l135 -136l137 136l98 -99l-136 -136l136 -136l-98 -99l-137 136z" />
    <glyph glyph-name="Oslash" unicode="&#xd8;" horiz-adv-x="770" vert-adv-y="0" 
d="M385 -13q-55 0 -105.5 12.5t-92.5 38.5l-42 -51l-70 60l43 52q-35 43 -54 104t-19 142v20q0 92 27 158t74 108t109 62t130 20q55 0 105.5 -12.5t92.5 -38.5l42 51l70 -59l-43 -53q34 -42 53.5 -100t19.5 -136v-20q0 -96 -27 -164t-74 -111t-108 -63t-131 -20zM385 137
q40 0 75 18.5t56.5 63t21.5 126.5v20q0 26 -2 47.5t-7 38.5l-237 -286q20 -16 43.5 -22t49.5 -6zM385 563q-40 0 -75 -17t-57 -60t-22 -121v-20q0 -28 3 -52t8 -44l236 286q-20 15 -43.5 21.5t-49.5 6.5z" />
    <glyph glyph-name="Ugrave" unicode="&#xd9;" horiz-adv-x="730" vert-adv-y="1200" 
d="M365 -13q-93 0 -161.5 32.5t-106 98t-37.5 162.5v420h180v-399q0 -81 28 -122.5t97 -41.5q71 0 98 41.5t27 121.5v400h180v-420q0 -97 -37 -162.5t-105 -98t-163 -32.5zM300 750l-150 150h170l110 -150h-130z" />
    <glyph glyph-name="Uacute" unicode="&#xda;" horiz-adv-x="730" vert-adv-y="1200" 
d="M365 -13q-93 0 -161.5 32.5t-106 98t-37.5 162.5v420h180v-399q0 -81 28 -122.5t97 -41.5q71 0 98 41.5t27 121.5v400h180v-420q0 -97 -37 -162.5t-105 -98t-163 -32.5zM299 750l110 150h170l-150 -150h-130z" />
    <glyph glyph-name="Ucircumflex" unicode="&#xdb;" horiz-adv-x="730" vert-adv-y="1200" 
d="M365 -13q-93 0 -161.5 32.5t-106 98t-37.5 162.5v420h180v-399q0 -81 28 -122.5t97 -41.5q71 0 98 41.5t27 121.5v400h180v-420q0 -97 -37 -162.5t-105 -98t-163 -32.5zM175 750l110 150h160l110 -150h-130l-60 60l-60 -60h-130z" />
    <glyph glyph-name="Udieresis" unicode="&#xdc;" horiz-adv-x="730" vert-adv-y="1200" 
d="M365 -13q-93 0 -161.5 32.5t-106 98t-37.5 162.5v420h180v-399q0 -81 28 -122.5t97 -41.5q71 0 98 41.5t27 121.5v400h180v-420q0 -97 -37 -162.5t-105 -98t-163 -32.5zM240 740q-43 0 -66.5 25t-23.5 60t23.5 60t66.5 25t66.5 -25t23.5 -60t-23.5 -60t-66.5 -25z
M490 740q-43 0 -66.5 25t-23.5 60t23.5 60t66.5 25t66.5 -25t23.5 -60t-24 -60t-66 -25z" />
    <glyph glyph-name="Yacute" unicode="&#xdd;" horiz-adv-x="700" vert-adv-y="1200" 
d="M269 0v262l-259 438h208l146 -260l138 260h188l-240 -438v-262h-181zM284 750l110 150h170l-150 -150h-130z" />
    <glyph glyph-name="Thorn" unicode="&#xde;" horiz-adv-x="670" vert-adv-y="0" 
d="M70 0v700h180v-100h105q98 0 161 -28.5t93.5 -82.5t30.5 -129q0 -74 -30.5 -127.5t-93.5 -82t-161 -28.5h-105v-122h-180zM250 270h85q63 0 91 24t28 66t-28 67t-91 25h-85v-182z" />
    <glyph glyph-name="germandbls" unicode="&#xdf;" horiz-adv-x="595" vert-adv-y="0" 
d="M50 0v470q0 118 61 180.5t179 62.5q78 0 129 -23.5t76 -63.5t25 -91t-26 -91t-74 -57q48 -8 79 -30.5t46 -57.5t15 -84v-10q0 -70 -25 -117t-80.5 -70.5t-144.5 -23.5q-11 0 -25 0.5t-25 2.5v128q11 -2 25 -2.5t25 -0.5q48 0 72 24t24 71v10q0 44 -26.5 69.5t-84.5 25.5
h-20v116h15q34 0 55 19t21 55q0 37 -20.5 55t-55.5 18q-43 0 -64.5 -28.5t-21.5 -86.5v-470h-154z" />
    <glyph glyph-name="agrave" unicode="&#xe0;" vert-adv-y="1200" 
d="M215 -13q-57 0 -97.5 22t-61.5 60.5t-21 85.5q0 79 48.5 121t146.5 42h150v22q0 48 -22.5 66t-62.5 18q-38 0 -56 -11.5t-20 -37.5h-154q3 48 30.5 86t79 60t125.5 22q70 0 123 -21t82.5 -67.5t29.5 -124.5v-195q0 -42 2 -73.5t6 -61.5h-147q-1 17 -2.5 30t-1.5 32
q-24 -32 -66.5 -53.5t-110.5 -21.5zM265 96q33 0 59 12t41 36.5t15 55.5v22h-120q-34 0 -50.5 -18t-16.5 -41q0 -30 16.5 -48.5t55.5 -18.5zM241 580l-150 160h160l110 -160h-120z" />
    <glyph glyph-name="aacute" unicode="&#xe1;" vert-adv-y="1200" 
d="M215 -13q-57 0 -97.5 22t-61.5 60.5t-21 85.5q0 79 48.5 121t146.5 42h150v22q0 48 -22.5 66t-62.5 18q-38 0 -56 -11.5t-20 -37.5h-154q3 48 30.5 86t79 60t125.5 22q70 0 123 -21t82.5 -67.5t29.5 -124.5v-195q0 -42 2 -73.5t6 -61.5h-147q-1 17 -2.5 30t-1.5 32
q-24 -32 -66.5 -53.5t-110.5 -21.5zM265 96q33 0 59 12t41 36.5t15 55.5v22h-120q-34 0 -50.5 -18t-16.5 -41q0 -30 16.5 -48.5t55.5 -18.5zM239 580l110 160h160l-150 -160h-120z" />
    <glyph glyph-name="acircumflex" unicode="&#xe2;" vert-adv-y="1200" 
d="M215 -13q-57 0 -97.5 22t-61.5 60.5t-21 85.5q0 79 48.5 121t146.5 42h150v22q0 48 -22.5 66t-62.5 18q-38 0 -56 -11.5t-20 -37.5h-154q3 48 30.5 86t79 60t125.5 22q70 0 123 -21t82.5 -67.5t29.5 -124.5v-195q0 -42 2 -73.5t6 -61.5h-147q-1 17 -2.5 30t-1.5 32
q-24 -32 -66.5 -53.5t-110.5 -21.5zM265 96q33 0 59 12t41 36.5t15 55.5v22h-120q-34 0 -50.5 -18t-16.5 -41q0 -30 16.5 -48.5t55.5 -18.5zM115 580l110 160h150l110 -160h-120l-65 70l-65 -70h-120z" />
    <glyph glyph-name="atilde" unicode="&#xe3;" vert-adv-y="1200" 
d="M215 -13q-57 0 -97.5 22t-61.5 60.5t-21 85.5q0 79 48.5 121t146.5 42h150v22q0 48 -22.5 66t-62.5 18q-38 0 -56 -11.5t-20 -37.5h-154q3 48 30.5 86t79 60t125.5 22q70 0 123 -21t82.5 -67.5t29.5 -124.5v-195q0 -42 2 -73.5t6 -61.5h-147q-1 17 -2.5 30t-1.5 32
q-24 -32 -66.5 -53.5t-110.5 -21.5zM265 96q33 0 59 12t41 36.5t15 55.5v22h-120q-34 0 -50.5 -18t-16.5 -41q0 -30 16.5 -48.5t55.5 -18.5zM415 730l65 -45q-5 -14 -11.5 -26.5t-14.5 -23.5q-14 -19 -35.5 -34.5t-53.5 -15.5t-53.5 11.5t-39 22.5t-37.5 11q-14 0 -22.5 -6
t-15.5 -14q-4 -4 -6.5 -9.5t-5.5 -10.5l-65 45q6 14 12 26.5t14 23.5q14 19 35.5 34.5t53.5 15.5q33 0 54 -11.5t38.5 -22.5t37.5 -11q13 0 22.5 6t16.5 14q4 5 6.5 10t4.5 10z" />
    <glyph glyph-name="adieresis" unicode="&#xe4;" vert-adv-y="1200" 
d="M215 -13q-57 0 -97.5 22t-61.5 60.5t-21 85.5q0 79 48.5 121t146.5 42h150v22q0 48 -22.5 66t-62.5 18q-38 0 -56 -11.5t-20 -37.5h-154q3 48 30.5 86t79 60t125.5 22q70 0 123 -21t82.5 -67.5t29.5 -124.5v-195q0 -42 2 -73.5t6 -61.5h-147q-1 17 -2.5 30t-1.5 32
q-24 -32 -66.5 -53.5t-110.5 -21.5zM265 96q33 0 59 12t41 36.5t15 55.5v22h-120q-34 0 -50.5 -18t-16.5 -41q0 -30 16.5 -48.5t55.5 -18.5zM192 580q-36 0 -59 22.5t-23 57.5t22.5 57.5t59.5 22.5t59.5 -22.5t22.5 -57.5t-22.5 -57.5t-59.5 -22.5zM408 580
q-37 0 -59.5 22.5t-22.5 57.5t22.5 57.5t59.5 22.5t59.5 -22.5t22.5 -57.5t-22.5 -57.5t-59.5 -22.5z" />
    <glyph glyph-name="aring" unicode="&#xe5;" vert-adv-y="1200" 
d="M215 -13q-57 0 -97.5 22t-61.5 60.5t-21 85.5q0 79 48.5 121t146.5 42h150v22q0 48 -22.5 66t-62.5 18q-38 0 -56 -11.5t-20 -37.5h-154q3 48 30.5 86t79 60t125.5 22q70 0 123 -21t82.5 -67.5t29.5 -124.5v-195q0 -42 2 -73.5t6 -61.5h-147q-1 17 -2.5 30t-1.5 32
q-24 -32 -66.5 -53.5t-110.5 -21.5zM265 96q33 0 59 12t41 36.5t15 55.5v22h-120q-34 0 -50.5 -18t-16.5 -41q0 -30 16.5 -48.5t55.5 -18.5zM300 564q-57 0 -93.5 32.5t-36.5 82.5q0 51 36 84t94 33q57 0 93.5 -33t36.5 -83t-36.5 -83t-93.5 -33zM300 648q19 0 30.5 8.5
t11.5 23.5t-11.5 23.5t-30.5 8.5t-30.5 -8.5t-11.5 -23.5t11.5 -23.5t30.5 -8.5z" />
    <glyph glyph-name="ae" unicode="&#xe6;" horiz-adv-x="935" vert-adv-y="0" 
d="M215 -13q-57 0 -97.5 22t-61.5 60.5t-21 85.5q0 78 50.5 120.5t144.5 42.5h150v22q0 51 -22.5 67.5t-62.5 16.5q-38 0 -56 -11.5t-20 -37.5h-154q3 48 30.5 86t79.5 60t125 22q60 0 102 -16.5t68 -48.5q35 35 76.5 50t98.5 15q128 0 194 -67t66 -196v-58h-372
q2 -39 18.5 -64t42.5 -36.5t56 -11.5q44 0 69.5 13.5t33.5 36.5h142q-16 -87 -79 -130t-166 -43q-69 0 -120 25.5t-80 69.5q-29 -43 -89.5 -69t-145.5 -26zM266 96q32 0 58 12t41 36t15 56v22h-120q-34 0 -50.5 -18t-16.5 -41q0 -30 16.5 -48.5t56.5 -18.5zM645 420
q-28 0 -53 -9.5t-40.5 -32t-17.5 -59.5h220q0 41 -15 62.5t-39.5 30t-54.5 8.5z" />
    <glyph glyph-name="ccedilla" unicode="&#xe7;" horiz-adv-x="575" vert-adv-y="1200" 
d="M300 -13q-78 0 -139 30t-96 91t-35 152v20q0 84 36.5 143t98 89.5t135.5 30.5q80 0 134 -27.5t83 -73.5t33 -102h-159q-7 36 -28.5 55.5t-62.5 19.5q-32 0 -57.5 -15t-40 -44.5t-14.5 -75.5v-20q0 -49 14 -81t39 -47.5t59 -15.5q35 0 59.5 18.5t31.5 55.5h159
q-4 -62 -36 -108t-86.5 -70.5t-127.5 -24.5zM275 -213q-19 0 -33 1t-23 2q-5 2 -10 3.5t-9 3.5v79l14 -3q7 -1 16 -2t20 -1q24 0 32.5 7.5t8.5 15.5t-7 16.5t-36 8.5l17 92h84l-7 -45q37 -8 52.5 -31t15.5 -49q0 -45 -31 -71.5t-104 -26.5z" />
    <glyph glyph-name="egrave" unicode="&#xe8;" horiz-adv-x="590" vert-adv-y="1200" 
d="M305 -13q-78 0 -140 29.5t-98.5 90.5t-36.5 153v20q0 88 35 146t95.5 87.5t134.5 29.5q131 0 198 -67.5t67 -195.5v-56h-372q2 -39 18.5 -65t42.5 -37.5t56 -11.5q44 0 69.5 13.5t33.5 36.5h142q-16 -87 -79 -130t-166 -43zM300 420q-28 0 -53 -9t-40.5 -29.5
t-17.5 -55.5h220q0 37 -15 57.5t-39.5 28.5t-54.5 8zM236 580l-150 160h160l110 -160h-120z" />
    <glyph glyph-name="eacute" unicode="&#xe9;" horiz-adv-x="590" vert-adv-y="1200" 
d="M305 -13q-78 0 -140 29.5t-98.5 90.5t-36.5 153v20q0 88 35 146t95.5 87.5t134.5 29.5q131 0 198 -67.5t67 -195.5v-56h-372q2 -39 18.5 -65t42.5 -37.5t56 -11.5q44 0 69.5 13.5t33.5 36.5h142q-16 -87 -79 -130t-166 -43zM300 420q-28 0 -53 -9t-40.5 -29.5
t-17.5 -55.5h220q0 37 -15 57.5t-39.5 28.5t-54.5 8zM235 580l110 160h160l-150 -160h-120z" />
    <glyph glyph-name="ecircumflex" unicode="&#xea;" horiz-adv-x="590" vert-adv-y="1200" 
d="M305 -13q-78 0 -140 29.5t-98.5 90.5t-36.5 153v20q0 88 35 146t95.5 87.5t134.5 29.5q131 0 198 -67.5t67 -195.5v-56h-372q2 -39 18.5 -65t42.5 -37.5t56 -11.5q44 0 69.5 13.5t33.5 36.5h142q-16 -87 -79 -130t-166 -43zM300 420q-28 0 -53 -9t-40.5 -29.5
t-17.5 -55.5h220q0 37 -15 57.5t-39.5 28.5t-54.5 8zM110 580l110 160h150l110 -160h-120l-65 70l-65 -70h-120z" />
    <glyph glyph-name="edieresis" unicode="&#xeb;" horiz-adv-x="590" vert-adv-y="1200" 
d="M305 -13q-78 0 -140 29.5t-98.5 90.5t-36.5 153v20q0 88 35 146t95.5 87.5t134.5 29.5q131 0 198 -67.5t67 -195.5v-56h-372q2 -39 18.5 -65t42.5 -37.5t56 -11.5q44 0 69.5 13.5t33.5 36.5h142q-16 -87 -79 -130t-166 -43zM300 420q-28 0 -53 -9t-40.5 -29.5
t-17.5 -55.5h220q0 37 -15 57.5t-39.5 28.5t-54.5 8zM187 580q-36 0 -59 22.5t-23 57.5t22.5 57.5t59.5 22.5t59.5 -22.5t22.5 -57.5t-22.5 -57.5t-59.5 -22.5zM403 580q-37 0 -59.5 22.5t-22.5 57.5t22.5 57.5t59.5 22.5t59.5 -22.5t22.5 -57.5t-22.5 -57.5t-59.5 -22.5z
" />
    <glyph glyph-name="igrave" unicode="&#xec;" horiz-adv-x="274" vert-adv-y="1200" 
d="M60 0v530h154v-530h-154zM78 580l-150 160h160l110 -160h-120z" />
    <glyph glyph-name="iacute" unicode="&#xed;" horiz-adv-x="274" vert-adv-y="1200" 
d="M60 0v530h154v-530h-154zM77 580l110 160h160l-150 -160h-120z" />
    <glyph glyph-name="icircumflex" unicode="&#xee;" horiz-adv-x="274" vert-adv-y="1200" 
d="M60 0v530h154v-530h-154zM-48 580l110 160h150l110 -160h-120l-65 70l-65 -70h-120z" />
    <glyph glyph-name="idieresis" unicode="&#xef;" horiz-adv-x="274" vert-adv-y="1200" 
d="M60 0v530h154v-530h-154zM29 580q-36 0 -59 22.5t-23 57.5t22.5 57.5t59.5 22.5t59.5 -22.5t22.5 -57.5t-22.5 -57.5t-59.5 -22.5zM245 580q-37 0 -59.5 22.5t-22.5 57.5t22.5 57.5t59.5 22.5t59.5 -22.5t22.5 -57.5t-22.5 -57.5t-59.5 -22.5z" />
    <glyph glyph-name="eth" unicode="&#xf0;" horiz-adv-x="615" vert-adv-y="0" 
d="M305 -13q-72 0 -135 30t-101.5 88.5t-38.5 144.5v20q0 61 22 108t59 79.5t82.5 49t91.5 16.5q38 0 70 -10t59 -30q-23 37 -56 64.5t-77 49.5l-26 -49l-71 33l24 46q-19 7 -40 13.5t-44 13.5l41 108q26 -7 50 -14.5t47 -15.5l24 46l71 -34l-22 -42q90 -44 143.5 -104.5
t77.5 -137.5t24 -170v-20q0 -96 -38.5 -159t-101 -93.5t-135.5 -30.5zM305 113q30 0 57 13.5t43.5 44t16.5 79.5v20q0 44 -16.5 72t-43.5 41.5t-57 13.5t-57 -13.5t-43.5 -41.5t-16.5 -72v-20q0 -49 16.5 -79.5t43.5 -44t57 -13.5z" />
    <glyph glyph-name="ntilde" unicode="&#xf1;" horiz-adv-x="605" vert-adv-y="1200" 
d="M50 0v530h142v-72q20 36 62.5 60.5t113.5 24.5q95 0 143.5 -51t48.5 -147v-345h-154v310q0 52 -22.5 78.5t-73.5 26.5q-37 0 -60.5 -14.5t-34.5 -38t-11 -52.5v-310h-154zM418 730l65 -45q-5 -14 -11.5 -26.5t-14.5 -23.5q-14 -19 -35.5 -34.5t-53.5 -15.5t-53.5 11.5
t-39 22.5t-37.5 11q-14 0 -22.5 -6t-15.5 -14q-4 -4 -6.5 -9.5t-5.5 -10.5l-65 45q6 14 12 26.5t14 23.5q14 19 35.5 34.5t53.5 15.5q33 0 54 -11.5t38.5 -22.5t37.5 -11q13 0 22.5 6t16.5 14q4 5 6.5 10t4.5 10z" />
    <glyph glyph-name="ograve" unicode="&#xf2;" horiz-adv-x="600" vert-adv-y="1200" 
d="M300 -13q-74 0 -135.5 29t-98 90.5t-36.5 153.5v20q0 86 36.5 144.5t98 88.5t135.5 30q75 0 136 -30t97.5 -88.5t36.5 -144.5v-20q0 -91 -36.5 -151.5t-97.5 -91t-136 -30.5zM300 115q36 0 61 17.5t38 50.5t13 77v20q0 40 -13 70t-38 47.5t-61 17.5t-61 -17.5t-38 -47.5
t-13 -70v-20q0 -46 13 -78.5t38 -49.5t61 -17zM241 580l-150 160h160l110 -160h-120z" />
    <glyph glyph-name="oacute" unicode="&#xf3;" horiz-adv-x="600" vert-adv-y="1200" 
d="M300 -13q-74 0 -135.5 29t-98 90.5t-36.5 153.5v20q0 86 36.5 144.5t98 88.5t135.5 30q75 0 136 -30t97.5 -88.5t36.5 -144.5v-20q0 -91 -36.5 -151.5t-97.5 -91t-136 -30.5zM300 115q36 0 61 17.5t38 50.5t13 77v20q0 40 -13 70t-38 47.5t-61 17.5t-61 -17.5t-38 -47.5
t-13 -70v-20q0 -46 13 -78.5t38 -49.5t61 -17zM240 580l110 160h160l-150 -160h-120z" />
    <glyph glyph-name="ocircumflex" unicode="&#xf4;" horiz-adv-x="600" vert-adv-y="1200" 
d="M300 -13q-74 0 -135.5 29t-98 90.5t-36.5 153.5v20q0 86 36.5 144.5t98 88.5t135.5 30q75 0 136 -30t97.5 -88.5t36.5 -144.5v-20q0 -91 -36.5 -151.5t-97.5 -91t-136 -30.5zM300 115q36 0 61 17.5t38 50.5t13 77v20q0 40 -13 70t-38 47.5t-61 17.5t-61 -17.5t-38 -47.5
t-13 -70v-20q0 -46 13 -78.5t38 -49.5t61 -17zM115 580l110 160h150l110 -160h-120l-65 70l-65 -70h-120z" />
    <glyph glyph-name="otilde" unicode="&#xf5;" horiz-adv-x="600" vert-adv-y="1200" 
d="M300 -13q-74 0 -135.5 29t-98 90.5t-36.5 153.5v20q0 86 36.5 144.5t98 88.5t135.5 30q75 0 136 -30t97.5 -88.5t36.5 -144.5v-20q0 -91 -36.5 -151.5t-97.5 -91t-136 -30.5zM300 115q36 0 61 17.5t38 50.5t13 77v20q0 40 -13 70t-38 47.5t-61 17.5t-61 -17.5t-38 -47.5
t-13 -70v-20q0 -46 13 -78.5t38 -49.5t61 -17zM415 730l65 -45q-5 -14 -11.5 -26.5t-14.5 -23.5q-14 -19 -35.5 -34.5t-53.5 -15.5t-53.5 11.5t-39 22.5t-37.5 11q-14 0 -22.5 -6t-15.5 -14q-4 -4 -6.5 -9.5t-5.5 -10.5l-65 45q6 14 12 26.5t14 23.5q14 19 35.5 34.5
t53.5 15.5q33 0 54 -11.5t38.5 -22.5t37.5 -11q13 0 22.5 6t16.5 14q4 5 6.5 10t4.5 10z" />
    <glyph glyph-name="odieresis" unicode="&#xf6;" horiz-adv-x="600" vert-adv-y="1200" 
d="M300 -13q-74 0 -135.5 29t-98 90.5t-36.5 153.5v20q0 86 36.5 144.5t98 88.5t135.5 30q75 0 136 -30t97.5 -88.5t36.5 -144.5v-20q0 -91 -36.5 -151.5t-97.5 -91t-136 -30.5zM300 115q36 0 61 17.5t38 50.5t13 77v20q0 40 -13 70t-38 47.5t-61 17.5t-61 -17.5t-38 -47.5
t-13 -70v-20q0 -46 13 -78.5t38 -49.5t61 -17zM192 580q-36 0 -59 22.5t-23 57.5t22.5 57.5t59.5 22.5t59.5 -22.5t22.5 -57.5t-22.5 -57.5t-59.5 -22.5zM408 580q-37 0 -59.5 22.5t-22.5 57.5t22.5 57.5t59.5 22.5t59.5 -22.5t22.5 -57.5t-22.5 -57.5t-59.5 -22.5z" />
    <glyph glyph-name="divide" unicode="&#xf7;" vert-adv-y="0" 
d="M35 286v148h510v-148h-510zM290 36q-26 0 -48 12.5t-34.5 34.5t-12.5 48q0 40 27.5 67.5t67.5 27.5t67.5 -27.5t27.5 -67.5q0 -26 -12.5 -48t-34 -34.5t-48.5 -12.5zM290 494q-26 0 -48 12t-34.5 34.5t-12.5 48.5q0 40 27.5 67.5t67.5 27.5t67.5 -27.5t27.5 -67.5
q0 -26 -12.5 -48t-34 -34.5t-48.5 -12.5z" />
    <glyph glyph-name="oslash" unicode="&#xf8;" horiz-adv-x="600" vert-adv-y="0" 
d="M300 -13q-90 0 -155 40l-34 -40l-56 48l34 40q-28 33 -43.5 79t-15.5 106v20q0 86 36.5 144.5t98 88.5t135.5 30q88 0 155 -40l34 40l56 -48l-34 -40q28 -32 43.5 -75.5t15.5 -99.5v-20q0 -91 -36.5 -151.5t-97.5 -91t-136 -30.5zM300 115q36 0 61 17.5t38 50.5t13 77v20
q0 14 -1.5 27t-5.5 24l-169 -197q13 -10 29 -14.5t35 -4.5zM300 415q-36 0 -61 -17.5t-38 -47.5t-13 -70v-20q0 -18 1.5 -33t5.5 -28l168 196q-13 10 -28.5 15t-34.5 5z" />
    <glyph glyph-name="ugrave" unicode="&#xf9;" horiz-adv-x="595" vert-adv-y="1200" 
d="M232 -13q-91 0 -139 52t-48 158v333h154v-309q0 -52 21.5 -79t69.5 -27q34 0 56.5 14t33.5 38t11 54v309h154v-530h-142v72q-21 -36 -63.5 -60.5t-107.5 -24.5zM239 580l-150 160h160l110 -160h-120z" />
    <glyph glyph-name="uacute" unicode="&#xfa;" horiz-adv-x="595" vert-adv-y="1200" 
d="M232 -13q-91 0 -139 52t-48 158v333h154v-309q0 -52 21.5 -79t69.5 -27q34 0 56.5 14t33.5 38t11 54v309h154v-530h-142v72q-21 -36 -63.5 -60.5t-107.5 -24.5zM238 580l110 160h160l-150 -160h-120z" />
    <glyph glyph-name="ucircumflex" unicode="&#xfb;" horiz-adv-x="595" vert-adv-y="1200" 
d="M232 -13q-91 0 -139 52t-48 158v333h154v-309q0 -52 21.5 -79t69.5 -27q34 0 56.5 14t33.5 38t11 54v309h154v-530h-142v72q-21 -36 -63.5 -60.5t-107.5 -24.5zM113 580l110 160h150l110 -160h-120l-65 70l-65 -70h-120z" />
    <glyph glyph-name="udieresis" unicode="&#xfc;" horiz-adv-x="595" vert-adv-y="1200" 
d="M232 -13q-91 0 -139 52t-48 158v333h154v-309q0 -52 21.5 -79t69.5 -27q34 0 56.5 14t33.5 38t11 54v309h154v-530h-142v72q-21 -36 -63.5 -60.5t-107.5 -24.5zM190 580q-36 0 -59 22.5t-23 57.5t22.5 57.5t59.5 22.5t59.5 -22.5t22.5 -57.5t-22.5 -57.5t-59.5 -22.5z
M406 580q-37 0 -59.5 22.5t-22.5 57.5t22.5 57.5t59.5 22.5t59.5 -22.5t22.5 -57.5t-22.5 -57.5t-59.5 -22.5z" />
    <glyph glyph-name="yacute" unicode="&#xfd;" horiz-adv-x="600" vert-adv-y="1200" 
d="M155 -213q-15 0 -30 3v128q15 -3 30 -3q20 0 33 8.5t23.5 27.5t22.5 50l-224 529h170l132 -353l125 353h153l-202 -530q-30 -75 -57 -122.5t-67.5 -69t-108.5 -21.5zM240 580l110 160h160l-150 -160h-120z" />
    <glyph glyph-name="thorn" unicode="&#xfe;" horiz-adv-x="615" vert-adv-y="0" 
d="M50 -200v900h154v-238q27 40 66 60.5t87 20.5q112 0 170 -66t58 -197v-20q0 -90 -28 -150.5t-79 -91.5t-121 -31q-48 0 -87 20.5t-66 59.5v-267h-154zM320 114q46 0 76.5 37.5t30.5 108.5v20q0 69 -29.5 102.5t-77.5 33.5q-31 0 -58 -13.5t-42.5 -40.5t-15.5 -67v-50
q0 -41 15.5 -70t42 -45t58.5 -16z" />
    <glyph glyph-name="ydieresis" unicode="&#xff;" horiz-adv-x="600" vert-adv-y="1200" 
d="M155 -213q-15 0 -30 3v128q15 -3 30 -3q20 0 33 8.5t23.5 27.5t22.5 50l-224 529h170l132 -353l125 353h153l-202 -530q-30 -75 -57 -122.5t-67.5 -69t-108.5 -21.5zM192 580q-36 0 -59 22.5t-23 57.5t22.5 57.5t59.5 22.5t59.5 -22.5t22.5 -57.5t-22.5 -57.5
t-59.5 -22.5zM408 580q-37 0 -59.5 22.5t-22.5 57.5t22.5 57.5t59.5 22.5t59.5 -22.5t22.5 -57.5t-22.5 -57.5t-59.5 -22.5z" />
    <glyph glyph-name="Amacron" unicode="&#x100;" horiz-adv-x="710" vert-adv-y="1200" 
d="M9 0l256 700h180l255 -700h-190l-48 134h-234l-48 -134h-171zM279 272h132l-66 208zM190 766v118h330v-118h-330z" />
    <glyph glyph-name="amacron" unicode="&#x101;" vert-adv-y="1200" 
d="M215 -13q-57 0 -97.5 22t-61.5 60.5t-21 85.5q0 79 48.5 121t146.5 42h150v22q0 48 -22.5 66t-62.5 18q-38 0 -56 -11.5t-20 -37.5h-154q3 48 30.5 86t79 60t125.5 22q70 0 123 -21t82.5 -67.5t29.5 -124.5v-195q0 -42 2 -73.5t6 -61.5h-147q-1 17 -2.5 30t-1.5 32
q-24 -32 -66.5 -53.5t-110.5 -21.5zM265 96q33 0 59 12t41 36.5t15 55.5v22h-120q-34 0 -50.5 -18t-16.5 -41q0 -30 16.5 -48.5t55.5 -18.5zM140 607v106h320v-106h-320z" />
    <glyph glyph-name="Abreve" unicode="&#x102;" horiz-adv-x="710" vert-adv-y="1200" 
d="M9 0l256 700h180l255 -700h-190l-48 134h-234l-48 -134h-171zM279 272h132l-66 208zM354 739q-70 0 -114.5 19.5t-65 57.5t-20.5 95h146q0 -42 12.5 -56.5t41.5 -14.5t41.5 14.5t12.5 56.5h146q0 -57 -20.5 -95t-64.5 -57.5t-115 -19.5z" />
    <glyph glyph-name="abreve" unicode="&#x103;" vert-adv-y="1200" 
d="M215 -13q-57 0 -97.5 22t-61.5 60.5t-21 85.5q0 79 48.5 121t146.5 42h150v22q0 48 -22.5 66t-62.5 18q-38 0 -56 -11.5t-20 -37.5h-154q3 48 30.5 86t79 60t125.5 22q70 0 123 -21t82.5 -67.5t29.5 -124.5v-195q0 -42 2 -73.5t6 -61.5h-147q-1 17 -2.5 30t-1.5 32
q-24 -32 -66.5 -53.5t-110.5 -21.5zM265 96q33 0 59 12t41 36.5t15 55.5v22h-120q-34 0 -50.5 -18t-16.5 -41q0 -30 16.5 -48.5t55.5 -18.5zM300 584q-98 0 -139 38t-41 114h136q0 -35 11 -48t33 -13t33 13t11 48h136q0 -76 -41 -114t-139 -38z" />
    <glyph glyph-name="Aogonek" unicode="&#x104;" horiz-adv-x="710" vert-adv-y="1200" 
d="M9 0l256 700h180l255 -700h-190l-48 134h-234l-48 -134h-171zM279 272h132l-66 208zM642 -214q-73 0 -104 26.5t-31 68.5q0 24 12.5 44t30.5 35.5t35.5 25.5t27.5 14h87q-27 -15 -43.5 -30t-24 -29t-7.5 -26q0 -19 13 -28t36 -9q6 0 12.5 0.5t13.5 1.5v-88
q-13 -3 -28 -4.5t-30 -1.5z" />
    <glyph glyph-name="aogonek" unicode="&#x105;" vert-adv-y="1200" 
d="M215 -13q-57 0 -97.5 22t-61.5 60.5t-21 85.5q0 79 48.5 121t146.5 42h150v22q0 48 -22.5 66t-62.5 18q-38 0 -56 -11.5t-20 -37.5h-154q3 48 30.5 86t79 60t125.5 22q70 0 123 -21t82.5 -67.5t29.5 -124.5v-195q0 -42 2 -73.5t6 -61.5h-147q-1 17 -2.5 30t-1.5 32
q-24 -32 -66.5 -53.5t-110.5 -21.5zM265 96q33 0 59 12t41 36.5t15 55.5v22h-120q-34 0 -50.5 -18t-16.5 -41q0 -30 16.5 -48.5t55.5 -18.5zM485 -214q-73 0 -104 26.5t-31 68.5q0 24 12.5 44t30.5 35.5t35.5 25.5t27.5 14h87q-27 -15 -43.5 -30t-24 -29t-7.5 -26
q0 -19 13 -28t36 -9q6 0 12.5 0.5t13.5 1.5v-88q-13 -3 -28 -4.5t-30 -1.5z" />
    <glyph glyph-name="Cacute" unicode="&#x106;" horiz-adv-x="710" vert-adv-y="1200" 
d="M370 -13q-96 0 -169.5 35.5t-114.5 114.5t-41 209v19q0 92 25 158t69.5 108t103.5 62t127 20q61 0 115 -14t94.5 -44t65.5 -78t30 -117h-187q-9 55 -42 79t-76 24q-40 0 -71.5 -19.5t-49.5 -62.5t-18 -116v-21q0 -58 11 -98t30.5 -64t44.5 -34.5t53 -10.5q51 0 81.5 24.5
t36.5 78.5h187q-4 -70 -28.5 -118.5t-65 -78t-94.5 -43t-117 -13.5zM289 750l110 150h170l-150 -150h-130z" />
    <glyph glyph-name="cacute" unicode="&#x107;" horiz-adv-x="575" vert-adv-y="1200" 
d="M300 -13q-78 0 -139 30t-96 91t-35 152v20q0 84 36.5 143t98 89.5t135.5 30.5q80 0 134 -27.5t83 -73.5t33 -102h-159q-7 36 -28.5 55.5t-62.5 19.5q-32 0 -57.5 -15t-40 -44.5t-14.5 -75.5v-20q0 -49 14 -81t39 -47.5t59 -15.5q35 0 59.5 18.5t31.5 55.5h159
q-4 -62 -36 -108t-86.5 -70.5t-127.5 -24.5zM227 580l110 160h160l-150 -160h-120z" />
    <glyph glyph-name="Cdotaccent" unicode="&#x10a;" horiz-adv-x="710" vert-adv-y="1200" 
d="M370 -13q-96 0 -169.5 35.5t-114.5 114.5t-41 209v19q0 92 25 158t69.5 108t103.5 62t127 20q61 0 115 -14t94.5 -44t65.5 -78t30 -117h-187q-9 55 -42 79t-76 24q-40 0 -71.5 -19.5t-49.5 -62.5t-18 -116v-21q0 -58 11 -98t30.5 -64t44.5 -34.5t53 -10.5q51 0 81.5 24.5
t36.5 78.5h187q-4 -70 -28.5 -118.5t-65 -78t-94.5 -43t-117 -13.5zM354 740q-51 0 -74.5 25t-23.5 60t23.5 60t74.5 25t74.5 -25t23.5 -60t-23.5 -60t-74.5 -25z" />
    <glyph glyph-name="cdotaccent" unicode="&#x10b;" horiz-adv-x="575" vert-adv-y="1200" 
d="M300 -13q-78 0 -139 30t-96 91t-35 152v20q0 84 36.5 143t98 89.5t135.5 30.5q80 0 134 -27.5t83 -73.5t33 -102h-159q-7 36 -28.5 55.5t-62.5 19.5q-32 0 -57.5 -15t-40 -44.5t-14.5 -75.5v-20q0 -49 14 -81t39 -47.5t59 -15.5q35 0 59.5 18.5t31.5 55.5h159
q-4 -62 -36 -108t-86.5 -70.5t-127.5 -24.5zM288 580q-43 0 -66.5 22.5t-23.5 57.5t23.5 57.5t66.5 22.5t66.5 -22.5t23.5 -57.5t-23.5 -57.5t-66.5 -22.5z" />
    <glyph glyph-name="Ccaron" unicode="&#x10c;" horiz-adv-x="710" vert-adv-y="1200" 
d="M370 -13q-96 0 -169.5 35.5t-114.5 114.5t-41 209v19q0 92 25 158t69.5 108t103.5 62t127 20q61 0 115 -14t94.5 -44t65.5 -78t30 -117h-187q-9 55 -42 79t-76 24q-40 0 -71.5 -19.5t-49.5 -62.5t-18 -116v-21q0 -58 11 -98t30.5 -64t44.5 -34.5t53 -10.5q51 0 81.5 24.5
t36.5 78.5h187q-4 -70 -28.5 -118.5t-65 -78t-94.5 -43t-117 -13.5zM275 750l-110 150h130l60 -60l60 60h130l-110 -150h-160z" />
    <glyph glyph-name="ccaron" unicode="&#x10d;" horiz-adv-x="575" vert-adv-y="1200" 
d="M300 -13q-78 0 -139 30t-96 91t-35 152v20q0 84 36.5 143t98 89.5t135.5 30.5q80 0 134 -27.5t83 -73.5t33 -102h-159q-7 36 -28.5 55.5t-62.5 19.5q-32 0 -57.5 -15t-40 -44.5t-14.5 -75.5v-20q0 -49 14 -81t39 -47.5t59 -15.5q35 0 59.5 18.5t31.5 55.5h159
q-4 -62 -36 -108t-86.5 -70.5t-127.5 -24.5zM213 580l-110 160h120l65 -70l65 70h120l-110 -160h-150z" />
    <glyph glyph-name="Dcaron" unicode="&#x10e;" horiz-adv-x="715" vert-adv-y="1200" 
d="M70 0v700h265q105 0 180 -38t115 -112.5t40 -184.5v-20q0 -112 -41 -189t-118.5 -116.5t-185.5 -39.5h-255zM250 148h65q46 0 83.5 19t61.5 62.5t24 115.5v20q0 68 -21.5 109t-57.5 59.5t-80 18.5h-75v-404zM278 750l-110 150h130l60 -60l60 60h130l-110 -150h-160z" />
    <glyph glyph-name="dcaron" unicode="&#x10f;" horiz-adv-x="615" vert-adv-y="1200" 
d="M258 -13q-69 0 -120.5 31t-79.5 91.5t-28 150.5v20q0 86 27 144.5t78 88.5t123 30q45 0 85.5 -20.5t67.5 -59.5v237h154v-700h-142v72q-20 -32 -62.5 -58.5t-102.5 -26.5zM295 114q33 0 59 15.5t41.5 45t15.5 70.5v50q0 40 -15.5 67t-41.5 40.5t-59 13.5q-47 0 -77 -33.5
t-30 -102.5v-20q0 -72 30.5 -109t76.5 -37zM642 472l11 131v97h127v-97l-76 -131h-62z" />
    <glyph glyph-name="Dcroat" unicode="&#x110;" horiz-adv-x="745" vert-adv-y="1200" 
d="M100 0v286h-80v138h80v276h265q105 0 180 -38t115 -112.5t40 -184.5v-20q0 -112 -41 -189t-118.5 -116.5t-185.5 -39.5h-255zM280 148h65q46 0 84 19t61 62.5t23 115.5v20q0 68 -21 109t-57 59.5t-80 18.5h-75v-128h120v-138h-120v-138z" />
    <glyph glyph-name="dcroat" unicode="&#x111;" horiz-adv-x="644" vert-adv-y="1200" 
d="M283 651h371v-80h-371v80zM258 -13q-69 0 -120.5 31t-79.5 91.5t-28 150.5v20q0 86 27 144.5t78 88.5t123 30q45 0 85.5 -20.5t67.5 -59.5v237h154v-700h-142v72q-20 -32 -62.5 -58.5t-102.5 -26.5zM295 114q33 0 59 15.5t41.5 45t15.5 70.5v50q0 40 -15.5 67t-41.5 40.5
t-59 13.5q-47 0 -77 -33.5t-30 -102.5v-20q0 -72 30.5 -109t76.5 -37z" />
    <glyph glyph-name="Emacron" unicode="&#x112;" horiz-adv-x="625" vert-adv-y="1200" 
d="M70 0v700h510v-138h-330v-137h300v-130h-300v-157h330v-138h-510zM160 766v118h330v-118h-330z" />
    <glyph glyph-name="emacron" unicode="&#x113;" horiz-adv-x="590" vert-adv-y="1200" 
d="M305 -13q-78 0 -140 29.5t-98.5 90.5t-36.5 153v20q0 88 35 146t95.5 87.5t134.5 29.5q131 0 198 -67.5t67 -195.5v-56h-372q2 -39 18.5 -65t42.5 -37.5t56 -11.5q44 0 69.5 13.5t33.5 36.5h142q-16 -87 -79 -130t-166 -43zM300 420q-28 0 -53 -9t-40.5 -29.5
t-17.5 -55.5h220q0 37 -15 57.5t-39.5 28.5t-54.5 8zM135 607v106h320v-106h-320z" />
    <glyph glyph-name="Edotaccent" unicode="&#x116;" horiz-adv-x="625" vert-adv-y="1200" 
d="M70 0v700h510v-138h-330v-137h300v-130h-300v-157h330v-138h-510zM325 740q-51 0 -74.5 25t-23.5 60t23.5 60t74.5 25t74.5 -25t23.5 -60t-23.5 -60t-74.5 -25z" />
    <glyph glyph-name="edotaccent" unicode="&#x117;" horiz-adv-x="590" vert-adv-y="1200" 
d="M305 -13q-78 0 -140 29.5t-98.5 90.5t-36.5 153v20q0 88 35 146t95.5 87.5t134.5 29.5q131 0 198 -67.5t67 -195.5v-56h-372q2 -39 18.5 -65t42.5 -37.5t56 -11.5q44 0 69.5 13.5t33.5 36.5h142q-16 -87 -79 -130t-166 -43zM300 420q-28 0 -53 -9t-40.5 -29.5
t-17.5 -55.5h220q0 37 -15 57.5t-39.5 28.5t-54.5 8zM295 580q-43 0 -66.5 22.5t-23.5 57.5t23.5 57.5t66.5 22.5t66.5 -22.5t23.5 -57.5t-23.5 -57.5t-66.5 -22.5z" />
    <glyph glyph-name="Eogonek" unicode="&#x118;" horiz-adv-x="625" vert-adv-y="1200" 
d="M70 0v700h510v-138h-330v-137h300v-130h-300v-157h330v-138h-510zM522 -214q-73 0 -104 26.5t-31 68.5q0 24 12.5 44t30.5 35.5t35.5 25.5t27.5 14h87q-27 -15 -43.5 -30t-24 -29t-7.5 -26q0 -19 13 -28t36 -9q6 0 12.5 0.5t13.5 1.5v-88q-13 -3 -28 -4.5t-30 -1.5z" />
    <glyph glyph-name="eogonek" unicode="&#x119;" horiz-adv-x="590" vert-adv-y="1200" 
d="M305 -13q-78 0 -140 29.5t-98.5 90.5t-36.5 153v20q0 88 35 146t95.5 87.5t134.5 29.5q131 0 198 -67.5t67 -195.5v-56h-372q2 -39 18.5 -65t42.5 -37.5t56 -11.5q44 0 69.5 13.5t33.5 36.5h142q-16 -87 -79 -130t-166 -43zM300 420q-28 0 -53 -9t-40.5 -29.5
t-17.5 -55.5h220q0 37 -15 57.5t-39.5 28.5t-54.5 8zM350 -214q-73 0 -104 26.5t-31 68.5q0 24 12.5 44t30.5 35.5t35.5 25.5t27.5 14h87q-27 -15 -43.5 -30t-24 -29t-7.5 -26q0 -19 13 -28t36 -9q6 0 12.5 0.5t13.5 1.5v-88q-13 -3 -28 -4.5t-30 -1.5z" />
    <glyph glyph-name="Ecaron" unicode="&#x11a;" horiz-adv-x="625" vert-adv-y="1200" 
d="M70 0v700h510v-138h-330v-137h300v-130h-300v-157h330v-138h-510zM245 750l-110 150h130l60 -60l60 60h130l-110 -150h-160z" />
    <glyph glyph-name="ecaron" unicode="&#x11b;" horiz-adv-x="590" vert-adv-y="1200" 
d="M305 -13q-78 0 -140 29.5t-98.5 90.5t-36.5 153v20q0 88 35 146t95.5 87.5t134.5 29.5q131 0 198 -67.5t67 -195.5v-56h-372q2 -39 18.5 -65t42.5 -37.5t56 -11.5q44 0 69.5 13.5t33.5 36.5h142q-16 -87 -79 -130t-166 -43zM300 420q-28 0 -53 -9t-40.5 -29.5
t-17.5 -55.5h220q0 37 -15 57.5t-39.5 28.5t-54.5 8zM220 580l-110 160h120l65 -70l65 70h120l-110 -160h-150z" />
    <glyph glyph-name="Gbreve" unicode="&#x11e;" horiz-adv-x="735" vert-adv-y="1200" 
d="M380 -13q-95 0 -171 36.5t-120 115.5t-44 206v20q0 91 26 156.5t71.5 108t105 63t127.5 20.5q60 0 112 -14t92.5 -43.5t67 -75.5t33.5 -110h-187q-8 38 -27.5 58t-43 27.5t-47.5 7.5q-42 0 -74.5 -18.5t-51 -61.5t-18.5 -118v-20q0 -56 11 -95.5t30.5 -64.5t47 -36.5
t60.5 -11.5q37 0 70 12.5t55 39.5t23 69h-128v114h295v-47q0 -90 -23.5 -154t-65.5 -105t-99.5 -60t-126.5 -19z" />
    <glyph glyph-name="gbreve" unicode="&#x11f;" horiz-adv-x="615" vert-adv-y="1200" 
d="M290 -213q-86 0 -137.5 20t-75 58.5t-27.5 89.5h157q5 -18 22.5 -34t60.5 -16q60 0 90.5 27.5t30.5 87.5v57q-27 -39 -67.5 -59.5t-85.5 -20.5q-69 0 -120.5 30t-79.5 89t-28 149v20q0 84 27.5 141.5t79 87t121.5 29.5q62 0 103.5 -26.5t61.5 -58.5v72h142v-495
q0 -124 -66.5 -186t-208.5 -62zM295 124q33 0 59 15t41.5 43.5t15.5 67.5v50q0 38 -15.5 63.5t-41.5 39t-59 13.5q-47 0 -77 -32.5t-30 -98.5v-20q0 -69 30.5 -105t76.5 -36z" />
    <glyph glyph-name="Gdotaccent" unicode="&#x120;" horiz-adv-x="735" vert-adv-y="1200" 
d="M380 -13q-95 0 -171 36.5t-120 115.5t-44 206v20q0 91 26 156.5t71.5 108t105 63t127.5 20.5q60 0 112 -14t92.5 -43.5t67 -75.5t33.5 -110h-187q-8 38 -27.5 58t-43 27.5t-47.5 7.5q-42 0 -74.5 -18.5t-51 -61.5t-18.5 -118v-20q0 -56 11 -95.5t30.5 -64.5t47 -36.5
t60.5 -11.5q37 0 70 12.5t55 39.5t23 69h-128v114h295v-47q0 -90 -23.5 -154t-65.5 -105t-99.5 -60t-126.5 -19zM367 740q-51 0 -74.5 25t-23.5 60t23.5 60t74.5 25t74.5 -25t23.5 -60t-23.5 -60t-74.5 -25z" />
    <glyph glyph-name="gdotaccent" unicode="&#x121;" horiz-adv-x="615" vert-adv-y="1200" 
d="M290 -213q-86 0 -137.5 20t-75 58.5t-27.5 89.5h157q5 -18 22.5 -34t60.5 -16q60 0 90.5 27.5t30.5 87.5v57q-27 -39 -67.5 -59.5t-85.5 -20.5q-69 0 -120.5 30t-79.5 89t-28 149v20q0 84 27.5 141.5t79 87t121.5 29.5q62 0 103.5 -26.5t61.5 -58.5v72h142v-495
q0 -124 -66.5 -186t-208.5 -62zM295 124q33 0 59 15t41.5 43.5t15.5 67.5v50q0 38 -15.5 63.5t-41.5 39t-59 13.5q-47 0 -77 -32.5t-30 -98.5v-20q0 -69 30.5 -105t76.5 -36zM308 580q-43 0 -66.5 22.5t-23.5 57.5t23.5 57.5t66.5 22.5t66.5 -22.5t23.5 -57.5t-23.5 -57.5
t-66.5 -22.5z" />
    <glyph glyph-name="uni0122" unicode="&#x122;" horiz-adv-x="735" vert-adv-y="1200" 
d="M380 -13q-95 0 -171 36.5t-120 115.5t-44 206v20q0 91 26 156.5t71.5 108t105 63t127.5 20.5q60 0 112 -14t92.5 -43.5t67 -75.5t33.5 -110h-187q-8 38 -27.5 58t-43 27.5t-47.5 7.5q-42 0 -74.5 -18.5t-51 -61.5t-18.5 -118v-20q0 -56 11 -95.5t30.5 -64.5t47 -36.5
t60.5 -11.5q37 0 70 12.5t55 39.5t23 69h-128v114h295v-47q0 -90 -23.5 -154t-65.5 -105t-99.5 -60t-126.5 -19zM302 -226v181h132v-91l-51 -90h-81z" />
    <glyph glyph-name="uni0123" unicode="&#x123;" horiz-adv-x="615" vert-adv-y="1200" 
d="M290 -213q-86 0 -137.5 20t-75 58.5t-27.5 89.5h157q5 -18 22.5 -34t60.5 -16q60 0 90.5 27.5t30.5 87.5v57q-27 -39 -67.5 -59.5t-85.5 -20.5q-69 0 -120.5 30t-79.5 89t-28 149v20q0 84 27.5 141.5t79 87t121.5 29.5q62 0 103.5 -26.5t61.5 -58.5v72h142v-495
q0 -124 -66.5 -186t-208.5 -62zM295 124q33 0 59 15t41.5 43.5t15.5 67.5v50q0 38 -15.5 63.5t-41.5 39t-59 13.5q-47 0 -77 -32.5t-30 -98.5v-20q0 -69 30.5 -105t76.5 -36zM374 794v-181h-132v91l51 90h81z" />
    <glyph glyph-name="Hbar" unicode="&#x126;" horiz-adv-x="760" vert-adv-y="1200" 
d="M14 626h732v-124h-732v124zM70 0v700h180v-266h260v266h180v-700h-180v286h-260v-286h-180z" />
    <glyph glyph-name="hbar" unicode="&#x127;" horiz-adv-x="628" vert-adv-y="1200" 
d="M-10 651h371v-80h-371v80zM73 0v700h154v-237q11 17 32.5 35.5t54.5 31.5t77 13q95 0 143.5 -51t48.5 -145v-347h-154v310q0 52 -22.5 78.5t-73.5 26.5q-37 0 -60.5 -14t-34.5 -37.5t-11 -53.5v-310h-154z" />
    <glyph glyph-name="Imacron" unicode="&#x12a;" horiz-adv-x="340" vert-adv-y="1200" 
d="M80 0v700h180v-700h-180zM5 766v118h330v-118h-330z" />
    <glyph glyph-name="imacron" unicode="&#x12b;" horiz-adv-x="274" vert-adv-y="1200" 
d="M60 0v530h154v-530h-154zM-23 607v106h320v-106h-320z" />
    <glyph glyph-name="Iogonek" unicode="&#x12e;" horiz-adv-x="340" vert-adv-y="1200" 
d="M80 0v700h180v-700h-180zM202 -214q-73 0 -104 26.5t-31 68.5q0 24 12.5 44t30.5 35.5t35.5 25.5t27.5 14h87q-27 -15 -43.5 -30t-24 -29t-7.5 -26q0 -19 13 -28t36 -9q6 0 12.5 0.5t13.5 1.5v-88q-13 -3 -28 -4.5t-30 -1.5z" />
    <glyph glyph-name="iogonek" unicode="&#x12f;" horiz-adv-x="274" vert-adv-y="1200" 
d="M60 0v530h154v-530h-154zM137 580q-43 0 -66.5 22.5t-23.5 57.5t23.5 57.5t66.5 22.5t66.5 -22.5t23.5 -57.5t-23.5 -57.5t-66.5 -22.5zM156 -214q-73 0 -104 26.5t-31 68.5q0 24 12.5 44t30.5 35.5t35.5 25.5t27.5 14h87q-27 -15 -43.5 -30t-24 -29t-7.5 -26
q0 -19 13 -28t36 -9q6 0 12.5 0.5t13.5 1.5v-88q-13 -3 -28 -4.5t-30 -1.5z" />
    <glyph glyph-name="Idotaccent" unicode="&#x130;" horiz-adv-x="340" vert-adv-y="1200" 
d="M80 0v700h180v-700h-180zM170 740q-51 0 -74.5 25t-23.5 60t23.5 60t74.5 25t74.5 -25t23.5 -60t-23.5 -60t-74.5 -25z" />
    <glyph glyph-name="dotlessi" unicode="&#x131;" horiz-adv-x="274" vert-adv-y="1200" 
d="M60 0v530h154v-530h-154z" />
    <glyph glyph-name="IJ" unicode="&#x132;" horiz-adv-x="910" vert-adv-y="1200" 
d="M80 0v700h180v-700h-180zM600 -13q-77 0 -130 29.5t-80.5 86t-29.5 137.5h171q1 -51 16 -77t53 -26q23 0 38.5 11t23.5 36t8 66v450h180v-450q0 -96 -31.5 -153.5t-87.5 -83.5t-131 -26z" />
    <glyph glyph-name="ij" unicode="&#x133;" horiz-adv-x="548" vert-adv-y="1200" 
d="M60 0v530h154v-530h-154zM137 580q-43 0 -66.5 22.5t-23.5 57.5t23.5 57.5t66.5 22.5t66.5 -22.5t23.5 -57.5t-23.5 -57.5t-66.5 -22.5zM298 -213q-11 0 -25 0.5t-25 2.5v128q8 -2 17.5 -2.5t17.5 -0.5q16 0 27.5 7.5t17.5 29.5t6 63v515h154v-530q0 -84 -16.5 -130
t-58 -64.5t-115.5 -18.5zM410 580q-43 0 -66.5 22.5t-23.5 57.5t23.5 57.5t66.5 22.5t66.5 -22.5t23.5 -57.5t-23.5 -57.5t-66.5 -22.5z" />
    <glyph glyph-name="uni0136" unicode="&#x136;" horiz-adv-x="725" vert-adv-y="1200" 
d="M70 0v700h180v-281l244 281h196l-260 -288l280 -412h-210l-192 295l-58 -64v-231h-180zM297 -226v181h132v-91l-51 -90h-81z" />
    <glyph glyph-name="uni0137" unicode="&#x137;" vert-adv-y="1200" 
d="M50 0v700h154v-374l171 204h174l-186 -223l207 -307h-178l-133 200l-55 -64v-136h-154zM224 -226v181h132v-91l-51 -90h-81z" />
    <glyph glyph-name="Lacute" unicode="&#x139;" horiz-adv-x="570" vert-adv-y="1200" 
d="M70 0v700h180v-552h300v-148h-480zM94 750l110 150h170l-150 -150h-130z" />
    <glyph glyph-name="lacute" unicode="&#x13a;" horiz-adv-x="335" vert-adv-y="1200" 
d="M240 -6q-64 0 -105 15.5t-60.5 57t-19.5 120.5v513h154v-490q0 -49 13.5 -68.5t56.5 -19.5q12 0 20 0.5t16 1.5v-127q-10 -1 -21.5 -1.5t-25 -1t-28.5 -0.5zM66 750l110 150h170l-150 -150h-130z" />
    <glyph glyph-name="uni013B" unicode="&#x13b;" horiz-adv-x="570" vert-adv-y="1200" 
d="M70 0v700h180v-552h300v-148h-480zM219 -226v181h132v-91l-51 -90h-81z" />
    <glyph glyph-name="uni013C" unicode="&#x13c;" horiz-adv-x="335" vert-adv-y="1200" 
d="M240 -6q-64 0 -105 15.5t-60.5 57t-19.5 120.5v513h154v-490q0 -49 13.5 -68.5t56.5 -19.5q12 0 20 0.5t16 1.5v-127q-10 -1 -21.5 -1.5t-25 -1t-28.5 -0.5zM102 -226v181h132v-91l-51 -90h-81z" />
    <glyph glyph-name="Lcaron" unicode="&#x13d;" horiz-adv-x="570" vert-adv-y="1200" 
d="M70 0v700h180v-552h300v-148h-480zM446 472l11 131v97h127v-97l-76 -131h-62z" />
    <glyph glyph-name="lcaron" unicode="&#x13e;" horiz-adv-x="335" vert-adv-y="1200" 
d="M240 -6q-64 0 -105 15.5t-60.5 57t-19.5 120.5v513h154v-490q0 -49 13.5 -68.5t56.5 -19.5q12 0 20 0.5t16 1.5v-127q-10 -1 -21.5 -1.5t-25 -1t-28.5 -0.5zM287 472l11 131v97h127v-97l-76 -131h-62z" />
    <glyph glyph-name="Lslash" unicode="&#x141;" horiz-adv-x="620" vert-adv-y="0" 
d="M120 0v201l-100 -57v148l100 57v351h180v-247l150 87v-148l-150 -87v-157h300v-148h-480z" />
    <glyph glyph-name="lslash" unicode="&#x142;" horiz-adv-x="380" vert-adv-y="0" 
d="M280 -6q-48 0 -83 8.5t-57.5 29.5t-33.5 59t-11 96v80l-80 -46v126l80 46v307h154v-218l106 61v-126l-106 -61v-146q0 -49 13.5 -68.5t56.5 -19.5q12 0 20 0.5t16 1.5v-127q-10 -1 -21.5 -1.5t-25 -1t-28.5 -0.5z" />
    <glyph glyph-name="Nacute" unicode="&#x143;" horiz-adv-x="760" vert-adv-y="1200" 
d="M70 0v700h159l271 -390v390h190v-700h-170l-270 390v-390h-180zM314 750l110 150h170l-150 -150h-130z" />
    <glyph glyph-name="nacute" unicode="&#x144;" horiz-adv-x="605" vert-adv-y="1200" 
d="M50 0v530h142v-72q20 36 62.5 60.5t113.5 24.5q95 0 143.5 -51t48.5 -147v-345h-154v310q0 52 -22.5 78.5t-73.5 26.5q-37 0 -60.5 -14.5t-34.5 -38t-11 -52.5v-310h-154zM243 580l110 160h160l-150 -160h-120z" />
    <glyph glyph-name="uni0145" unicode="&#x145;" horiz-adv-x="760" vert-adv-y="1200" 
d="M70 0v700h159l271 -390v390h190v-700h-170l-270 390v-390h-180zM314 -226v181h132v-91l-51 -90h-81z" />
    <glyph glyph-name="uni0146" unicode="&#x146;" horiz-adv-x="605" vert-adv-y="1200" 
d="M50 0v530h142v-72q20 36 62.5 60.5t113.5 24.5q95 0 143.5 -51t48.5 -147v-345h-154v310q0 52 -22.5 78.5t-73.5 26.5q-37 0 -60.5 -14.5t-34.5 -38t-11 -52.5v-310h-154zM237 -226v181h132v-91l-51 -90h-81z" />
    <glyph glyph-name="Ncaron" unicode="&#x147;" horiz-adv-x="760" vert-adv-y="1200" 
d="M70 0v700h159l271 -390v390h190v-700h-170l-270 390v-390h-180zM300 750l-110 150h130l60 -60l60 60h130l-110 -150h-160z" />
    <glyph glyph-name="ncaron" unicode="&#x148;" horiz-adv-x="605" vert-adv-y="1200" 
d="M50 0v530h142v-72q20 36 62.5 60.5t113.5 24.5q95 0 143.5 -51t48.5 -147v-345h-154v310q0 52 -22.5 78.5t-73.5 26.5q-37 0 -60.5 -14.5t-34.5 -38t-11 -52.5v-310h-154zM228 580l-110 160h120l65 -70l65 70h120l-110 -160h-150z" />
    <glyph glyph-name="Eng" unicode="&#x14a;" horiz-adv-x="760" vert-adv-y="1200" 
d="M500 -213q-11 0 -25 0.5t-25 2.5v128q11 -2 18.5 -2.5t11.5 -0.5q15 0 24 7.5t12.5 29.5t3.5 63v515h170v-530q0 -84 -16 -130t-58 -64.5t-116 -18.5zM70 0v700h159l271 -390v390h190v-700h-170l-270 390v-390h-180z" />
    <glyph glyph-name="eng" unicode="&#x14b;" horiz-adv-x="607" vert-adv-y="1200" 
d="M370 -213q-11 0 -25 0.5t-25 2.5v128q8 -2 17.5 -2.5t17.5 -0.5q16 0 27.5 7.5t17.5 29.5t6 63v115h154v-131q0 -83 -16.5 -129t-58 -64.5t-115.5 -18.5zM50 0v530h142v-72q20 36 62.5 60.5t113.5 24.5q95 0 143.5 -51t48.5 -147v-345h-154v310q0 52 -22.5 78.5
t-73.5 26.5q-37 0 -60.5 -14.5t-34.5 -38t-11 -52.5v-310h-154z" />
    <glyph glyph-name="Omacron" unicode="&#x14c;" horiz-adv-x="770" vert-adv-y="1200" 
d="M385 -13q-68 0 -130 20t-109 63t-74 111.5t-27 163.5v20q0 92 27 158t74 108t109 62t130 20q70 0 131 -20t108 -62t74 -108t27 -158v-20q0 -95 -27 -163.5t-74 -111.5t-108 -63t-131 -20zM384 137q41 0 76 18.5t56.5 63t21.5 126.5v20q0 78 -21.5 121t-56.5 60t-76 17
q-39 0 -74 -17t-57 -60t-22 -121v-20q0 -82 22 -126.5t57 -63t74 -18.5zM219 766v118h330v-118h-330z" />
    <glyph glyph-name="omacron" unicode="&#x14d;" horiz-adv-x="600" vert-adv-y="1200" 
d="M300 -13q-74 0 -135.5 29t-98 90.5t-36.5 153.5v20q0 86 36.5 144.5t98 88.5t135.5 30q75 0 136 -30t97.5 -88.5t36.5 -144.5v-20q0 -91 -36.5 -151.5t-97.5 -91t-136 -30.5zM300 115q36 0 61 17.5t38 50.5t13 77v20q0 40 -13 70t-38 47.5t-61 17.5t-61 -17.5t-38 -47.5
t-13 -70v-20q0 -46 13 -78.5t38 -49.5t61 -17zM140 607v106h320v-106h-320z" />
    <glyph glyph-name="Ohungarumlaut" unicode="&#x150;" horiz-adv-x="770" vert-adv-y="1200" 
d="M385 -13q-68 0 -130 20t-109 63t-74 111.5t-27 163.5v20q0 92 27 158t74 108t109 62t130 20q70 0 131 -20t108 -62t74 -108t27 -158v-20q0 -95 -27 -163.5t-74 -111.5t-108 -63t-131 -20zM384 137q41 0 76 18.5t56.5 63t21.5 126.5v20q0 78 -21.5 121t-56.5 60t-76 17
q-39 0 -74 -17t-57 -60t-22 -121v-20q0 -82 22 -126.5t57 -63t74 -18.5zM251 750l106 150h136l-131 -150h-111zM427 750l131 150h141l-161 -150h-111z" />
    <glyph glyph-name="ohungarumlaut" unicode="&#x151;" horiz-adv-x="600" vert-adv-y="1200" 
d="M300 -13q-74 0 -135.5 29t-98 90.5t-36.5 153.5v20q0 86 36.5 144.5t98 88.5t135.5 30q75 0 136 -30t97.5 -88.5t36.5 -144.5v-20q0 -91 -36.5 -151.5t-97.5 -91t-136 -30.5zM300 115q36 0 61 17.5t38 50.5t13 77v20q0 40 -13 70t-38 47.5t-61 17.5t-61 -17.5t-38 -47.5
t-13 -70v-20q0 -46 13 -78.5t38 -49.5t61 -17zM240 580h-111l70 160h151zM470 580h-120l120 160h160z" />
    <glyph glyph-name="OE" unicode="&#x152;" horiz-adv-x="1100" vert-adv-y="0" 
d="M375 -13q-66 0 -125 20t-105.5 63t-73 111t-26.5 164v20q0 92 26.5 158t73 108t105.5 62t125 20q45 0 88.5 -12t81.5 -38v37h511v-138h-331v-138h301v-128h-301v-158h331v-138h-511v37q-38 -26 -81.5 -38t-88.5 -12zM385 137q40 0 75 18.5t57 63t22 126.5v20
q0 77 -22 120.5t-57 60.5t-75 17t-75 -17t-57 -60t-22 -121v-20q0 -82 22 -126.5t57 -63t75 -18.5z" />
    <glyph glyph-name="oe" unicode="&#x153;" horiz-adv-x="980" vert-adv-y="0" 
d="M305 -13q-74 0 -137 29t-100.5 90.5t-37.5 153.5v20q0 86 37.5 144.5t100.5 88.5t137 30q60 0 108.5 -19t83.5 -57q32 38 79 57t109 19q131 0 198 -67.5t67 -195.5v-56h-372q2 -39 18.5 -65t42.5 -37.5t56 -11.5q44 0 69.5 13.5t33.5 36.5h142q-16 -87 -79 -130t-166 -43
q-63 0 -113 19.5t-84 59.5q-34 -40 -83.5 -59.5t-109.5 -19.5zM305 115q36 0 62 17.5t40.5 50.5t14.5 77v20q0 40 -14.5 70t-40.5 47.5t-62 17.5t-62.5 -17.5t-40.5 -47.5t-14 -70v-20q0 -46 14 -78.5t40.5 -49.5t62.5 -17zM690 420q-28 0 -53 -9t-40.5 -29.5t-17.5 -55.5
h220q0 37 -15 57.5t-39.5 28.5t-54.5 8z" />
    <glyph glyph-name="Racute" unicode="&#x154;" horiz-adv-x="695" vert-adv-y="1200" 
d="M70 0v700h305q88 0 146.5 -29t88.5 -81t30 -124q0 -75 -35.5 -128.5t-106.5 -78.5l162 -259h-200l-136 240h-74v-240h-180zM250 380h85q72 0 98.5 21.5t26.5 64.5t-26.5 64.5t-98.5 21.5h-85v-172zM282 750l110 150h170l-150 -150h-130z" />
    <glyph glyph-name="racute" unicode="&#x155;" horiz-adv-x="390" vert-adv-y="1200" 
d="M50 0v530h142v-72q8 18 27 38t46 33.5t60 13.5q17 0 27 -2t18 -4v-133q-5 3 -23 7t-42 4q-35 0 -57.5 -14t-33 -38t-10.5 -54v-309h-154zM135 580l110 160h160l-150 -160h-120z" />
    <glyph glyph-name="uni0156" unicode="&#x156;" horiz-adv-x="695" vert-adv-y="1200" 
d="M70 0v700h305q88 0 146.5 -29t88.5 -81t30 -124q0 -75 -35.5 -128.5t-106.5 -78.5l162 -259h-200l-136 240h-74v-240h-180zM250 380h85q72 0 98.5 21.5t26.5 64.5t-26.5 64.5t-98.5 21.5h-85v-172zM282 -226v181h132v-91l-51 -90h-81z" />
    <glyph glyph-name="uni0157" unicode="&#x157;" horiz-adv-x="390" vert-adv-y="1200" 
d="M50 0v530h142v-72q8 18 27 38t46 33.5t60 13.5q17 0 27 -2t18 -4v-133q-5 3 -23 7t-42 4q-35 0 -57.5 -14t-33 -38t-10.5 -54v-309h-154zM61 -226v181h132v-91l-51 -90h-81z" />
    <glyph glyph-name="Rcaron" unicode="&#x158;" horiz-adv-x="695" vert-adv-y="1200" 
d="M70 0v700h305q88 0 146.5 -29t88.5 -81t30 -124q0 -75 -35.5 -128.5t-106.5 -78.5l162 -259h-200l-136 240h-74v-240h-180zM250 380h85q72 0 98.5 21.5t26.5 64.5t-26.5 64.5t-98.5 21.5h-85v-172zM268 750l-110 150h130l60 -60l60 60h130l-110 -150h-160z" />
    <glyph glyph-name="rcaron" unicode="&#x159;" horiz-adv-x="390" vert-adv-y="1200" 
d="M50 0v530h142v-72q8 18 27 38t46 33.5t60 13.5q17 0 27 -2t18 -4v-133q-5 3 -23 7t-42 4q-35 0 -57.5 -14t-33 -38t-10.5 -54v-309h-154zM120 580l-110 160h120l65 -70l65 70h120l-110 -160h-150z" />
    <glyph glyph-name="Sacute" unicode="&#x15a;" horiz-adv-x="670" vert-adv-y="1200" 
d="M335 -13q-98 0 -163 26t-97.5 73.5t-34.5 113.5h180q8 -38 35 -55.5t80 -17.5q57 0 85.5 16t28.5 49q0 27 -18.5 43t-56.5 27t-91 23q-69 16 -119 41.5t-77 68.5t-27 111q0 66 33.5 112t95.5 70.5t146 24.5q92 0 152.5 -24t92 -69t35.5 -110h-180q-6 32 -29 47.5
t-71 15.5q-53 0 -74 -17t-21 -44q0 -37 38.5 -54t111.5 -31q54 -11 98.5 -27t76 -41t48.5 -61.5t17 -89.5q0 -69 -35 -118.5t-101 -76t-159 -26.5zM269 750l110 150h170l-150 -150h-130z" />
    <glyph glyph-name="sacute" unicode="&#x15b;" horiz-adv-x="560" vert-adv-y="1200" 
d="M280 -13q-65 0 -111.5 13.5t-76.5 37t-45 55t-17 67.5h154q6 -22 26 -38.5t70 -16.5q51 0 73 14t22 37q0 12 -9.5 21.5t-35 17.5t-73.5 16q-44 7 -82.5 18t-67.5 29.5t-45.5 47.5t-16.5 73q0 47 28 84t81 58.5t126 21.5q83 0 131.5 -25.5t71.5 -65t27 -82.5h-155
q-6 25 -25.5 40t-49.5 15q-46 0 -63.5 -14t-17.5 -34t28 -31.5t89 -19.5q44 -6 82.5 -17t68 -30.5t46.5 -49t17 -71.5q0 -50 -28.5 -89t-84 -60.5t-137.5 -21.5zM219 580l110 160h160l-150 -160h-120z" />
    <glyph glyph-name="Scedilla" unicode="&#x15e;" horiz-adv-x="670" vert-adv-y="1200" 
d="M335 -13q-98 0 -163 26t-97.5 73.5t-34.5 113.5h180q8 -38 35 -55.5t80 -17.5q57 0 85.5 16t28.5 49q0 27 -18.5 43t-56.5 27t-91 23q-69 16 -119 41.5t-77 68.5t-27 111q0 66 33.5 112t95.5 70.5t146 24.5q92 0 152.5 -24t92 -69t35.5 -110h-180q-6 32 -29 47.5
t-71 15.5q-53 0 -74 -17t-21 -44q0 -37 38.5 -54t111.5 -31q54 -11 98.5 -27t76 -41t48.5 -61.5t17 -89.5q0 -69 -35 -118.5t-101 -76t-159 -26.5zM320 -213q-19 0 -33 1t-23 2q-5 2 -10 3.5t-9 3.5v81l14 -3q7 -1 16 -2t20 -1q23 0 31 6.5t8 15.5q0 7 -8 14.5t-35 7.5
l17 94h88l-7 -45q35 -8 50.5 -31t15.5 -49q0 -45 -31 -71.5t-104 -26.5z" />
    <glyph glyph-name="scedilla" unicode="&#x15f;" horiz-adv-x="560" vert-adv-y="1200" 
d="M280 -13q-65 0 -111.5 13.5t-76.5 37t-45 55t-17 67.5h154q6 -22 26 -38.5t70 -16.5q51 0 73 14t22 37q0 12 -9.5 21.5t-35 17.5t-73.5 16q-44 7 -82.5 18t-67.5 29.5t-45.5 47.5t-16.5 73q0 47 28 84t81 58.5t126 21.5q83 0 131.5 -25.5t71.5 -65t27 -82.5h-155
q-6 25 -25.5 40t-49.5 15q-46 0 -63.5 -14t-17.5 -34t28 -31.5t89 -19.5q44 -6 82.5 -17t68 -30.5t46.5 -49t17 -71.5q0 -50 -28.5 -89t-84 -60.5t-137.5 -21.5zM267 -213q-19 0 -33 1t-23 2q-5 2 -10 3.5t-9 3.5v79l14 -3q7 -1 16 -2t20 -1q24 0 32.5 7.5t8.5 15.5t-7 16.5
t-36 8.5l17 92h84l-7 -45q37 -8 52.5 -31t15.5 -49q0 -45 -31 -71.5t-104 -26.5z" />
    <glyph glyph-name="Scaron" unicode="&#x160;" horiz-adv-x="670" vert-adv-y="1200" 
d="M335 -13q-98 0 -163 26t-97.5 73.5t-34.5 113.5h180q8 -38 35 -55.5t80 -17.5q57 0 85.5 16t28.5 49q0 27 -18.5 43t-56.5 27t-91 23q-69 16 -119 41.5t-77 68.5t-27 111q0 66 33.5 112t95.5 70.5t146 24.5q92 0 152.5 -24t92 -69t35.5 -110h-180q-6 32 -29 47.5
t-71 15.5q-53 0 -74 -17t-21 -44q0 -37 38.5 -54t111.5 -31q54 -11 98.5 -27t76 -41t48.5 -61.5t17 -89.5q0 -69 -35 -118.5t-101 -76t-159 -26.5zM255 750l-110 150h130l60 -60l60 60h130l-110 -150h-160z" />
    <glyph glyph-name="scaron" unicode="&#x161;" horiz-adv-x="560" vert-adv-y="1200" 
d="M280 -13q-65 0 -111.5 13.5t-76.5 37t-45 55t-17 67.5h154q6 -22 26 -38.5t70 -16.5q51 0 73 14t22 37q0 12 -9.5 21.5t-35 17.5t-73.5 16q-44 7 -82.5 18t-67.5 29.5t-45.5 47.5t-16.5 73q0 47 28 84t81 58.5t126 21.5q83 0 131.5 -25.5t71.5 -65t27 -82.5h-155
q-6 25 -25.5 40t-49.5 15q-46 0 -63.5 -14t-17.5 -34t28 -31.5t89 -19.5q44 -6 82.5 -17t68 -30.5t46.5 -49t17 -71.5q0 -50 -28.5 -89t-84 -60.5t-137.5 -21.5zM205 580l-110 160h120l65 -70l65 70h120l-110 -160h-150z" />
    <glyph glyph-name="Tcaron" unicode="&#x164;" horiz-adv-x="650" vert-adv-y="1200" 
d="M235 0v552h-215v148h610v-148h-215v-552h-180zM245 750l-110 150h130l60 -60l60 60h130l-110 -150h-160z" />
    <glyph glyph-name="tcaron" unicode="&#x165;" horiz-adv-x="400" vert-adv-y="1200" 
d="M275 -6q-66 0 -108 17.5t-62 58t-20 110.5v224h-65v126h65v120h154v-120h121v-126h-121v-199q0 -45 14.5 -64t56.5 -19q30 0 60 3v-125q-19 -3 -40 -4.5t-55 -1.5zM295 603l11 131v97h127v-97l-76 -131h-62z" />
    <glyph glyph-name="Umacron" unicode="&#x16a;" horiz-adv-x="730" vert-adv-y="1200" 
d="M365 -13q-93 0 -161.5 32.5t-106 98t-37.5 162.5v420h180v-399q0 -81 28 -122.5t97 -41.5q71 0 98 41.5t27 121.5v400h180v-420q0 -97 -37 -162.5t-105 -98t-163 -32.5zM200 766v118h330v-118h-330z" />
    <glyph glyph-name="umacron" unicode="&#x16b;" horiz-adv-x="595" vert-adv-y="1200" 
d="M232 -13q-91 0 -139 52t-48 158v333h154v-309q0 -52 21.5 -79t69.5 -27q34 0 56.5 14t33.5 38t11 54v309h154v-530h-142v72q-21 -36 -63.5 -60.5t-107.5 -24.5zM138 607v106h320v-106h-320z" />
    <glyph glyph-name="Ubreve" unicode="&#x16c;" horiz-adv-x="730" vert-adv-y="1200" 
d="M365 -13q-93 0 -161.5 32.5t-106 98t-37.5 162.5v420h180v-399q0 -81 28 -122.5t97 -41.5q71 0 98 41.5t27 121.5v400h180v-420q0 -97 -37 -162.5t-105 -98t-163 -32.5z" />
    <glyph glyph-name="ubreve" unicode="&#x16d;" horiz-adv-x="595" vert-adv-y="1200" 
d="M232 -13q-91 0 -139 52t-48 158v333h154v-309q0 -52 21.5 -79t69.5 -27q34 0 56.5 14t33.5 38t11 54v309h154v-530h-142v72q-21 -36 -63.5 -60.5t-107.5 -24.5zM298 584q-98 0 -139 38t-41 114h136q0 -35 11 -48t33 -13t33 13t11 48h136q0 -76 -41 -114t-139 -38z" />
    <glyph glyph-name="Uring" unicode="&#x16e;" horiz-adv-x="730" vert-adv-y="1200" 
d="M365 -13q-93 0 -161.5 32.5t-106 98t-37.5 162.5v420h180v-399q0 -81 28 -122.5t97 -41.5q71 0 98 41.5t27 121.5v400h180v-420q0 -97 -37 -162.5t-105 -98t-163 -32.5zM364 730q-39 0 -69.5 14t-47.5 40.5t-17 60.5q0 35 17 61t47.5 40t70.5 14q42 0 71.5 -14t46.5 -40
t17 -61q0 -34 -17 -60.5t-47 -40.5t-72 -14zM365 815q21 0 33 7.5t12 22.5t-12 22.5t-34 7.5q-20 0 -32 -7.5t-12 -22.5t12 -22.5t33 -7.5z" />
    <glyph glyph-name="uring" unicode="&#x16f;" horiz-adv-x="595" vert-adv-y="1200" 
d="M232 -13q-91 0 -139 52t-48 158v333h154v-309q0 -52 21.5 -79t69.5 -27q34 0 56.5 14t33.5 38t11 54v309h154v-530h-142v72q-21 -36 -63.5 -60.5t-107.5 -24.5zM298 564q-57 0 -93.5 32.5t-36.5 82.5q0 51 36 84t94 33q57 0 93.5 -33t36.5 -83t-36.5 -83t-93.5 -33z
M298 648q19 0 30.5 8.5t11.5 23.5t-11.5 23.5t-30.5 8.5t-30.5 -8.5t-11.5 -23.5t11.5 -23.5t30.5 -8.5z" />
    <glyph glyph-name="Uhungarumlaut" unicode="&#x170;" horiz-adv-x="730" vert-adv-y="1200" 
d="M365 -13q-93 0 -161.5 32.5t-106 98t-37.5 162.5v420h180v-399q0 -81 28 -122.5t97 -41.5q71 0 98 41.5t27 121.5v400h180v-420q0 -97 -37 -162.5t-105 -98t-163 -32.5zM231 750l106 150h136l-131 -150h-111zM407 750l131 150h141l-161 -150h-111z" />
    <glyph glyph-name="uhungarumlaut" unicode="&#x171;" horiz-adv-x="595" vert-adv-y="1200" 
d="M232 -13q-91 0 -139 52t-48 158v333h154v-309q0 -52 21.5 -79t69.5 -27q34 0 56.5 14t33.5 38t11 54v309h154v-530h-142v72q-21 -36 -63.5 -60.5t-107.5 -24.5zM238 580h-111l70 160h151zM468 580h-120l120 160h160z" />
    <glyph glyph-name="Uogonek" unicode="&#x172;" horiz-adv-x="730" vert-adv-y="1200" 
d="M365 -13q-93 0 -161.5 32.5t-106 98t-37.5 162.5v420h180v-399q0 -81 28 -122.5t97 -41.5q71 0 98 41.5t27 121.5v400h180v-420q0 -97 -37 -162.5t-105 -98t-163 -32.5zM416 -214q-73 0 -104 26.5t-31 68.5q0 24 12.5 44t30.5 35.5t35.5 25.5t27.5 14h87
q-27 -15 -43.5 -30t-24 -29t-7.5 -26q0 -19 13 -28t36 -9q6 0 12.5 0.5t13.5 1.5v-88q-13 -3 -28 -4.5t-30 -1.5z" />
    <glyph glyph-name="uogonek" unicode="&#x173;" horiz-adv-x="595" vert-adv-y="1200" 
d="M232 -13q-91 0 -139 52t-48 158v333h154v-309q0 -52 21.5 -79t69.5 -27q34 0 56.5 14t33.5 38t11 54v309h154v-530h-142v72q-21 -36 -63.5 -60.5t-107.5 -24.5zM487 -214q-73 0 -104 26.5t-31 68.5q0 24 12.5 44t30.5 35.5t35.5 25.5t27.5 14h87q-27 -15 -43.5 -30
t-24 -29t-7.5 -26q0 -19 13 -28t36 -9q6 0 12.5 0.5t13.5 1.5v-88q-13 -3 -28 -4.5t-30 -1.5z" />
    <glyph glyph-name="Wcircumflex" unicode="&#x174;" horiz-adv-x="1000" vert-adv-y="1200" 
d="M200 0l-181 700h191l95 -434l110 434h170l123 -436l102 436h170l-180 -700h-180l-125 452l-115 -452h-180zM309 750l110 150h160l110 -150h-130l-60 60l-60 -60h-130z" />
    <glyph glyph-name="wcircumflex" unicode="&#x175;" horiz-adv-x="830" vert-adv-y="1200" 
d="M158 0l-148 530h166l74 -326l93 326h144l100 -323l83 323h150l-148 -530h-154l-104 344l-102 -344h-154zM230 580l110 160h150l110 -160h-120l-65 70l-65 -70h-120z" />
    <glyph glyph-name="Ycircumflex" unicode="&#x176;" horiz-adv-x="700" vert-adv-y="1200" 
d="M269 0v262l-259 438h208l146 -260l138 260h188l-240 -438v-262h-181zM160 750l110 150h160l110 -150h-130l-60 60l-60 -60h-130z" />
    <glyph glyph-name="ycircumflex" unicode="&#x177;" horiz-adv-x="600" vert-adv-y="1200" 
d="M155 -213q-15 0 -30 3v128q15 -3 30 -3q20 0 33 8.5t23.5 27.5t22.5 50l-224 529h170l132 -353l125 353h153l-202 -530q-30 -75 -57 -122.5t-67.5 -69t-108.5 -21.5zM115 580l110 160h150l110 -160h-120l-65 70l-65 -70h-120z" />
    <glyph glyph-name="Ydieresis" unicode="&#x178;" horiz-adv-x="700" vert-adv-y="1200" 
d="M269 0v262l-259 438h208l146 -260l138 260h188l-240 -438v-262h-181zM225 740q-43 0 -66.5 25t-23.5 60t23.5 60t66.5 25t66.5 -25t23.5 -60t-23.5 -60t-66.5 -25zM475 740q-43 0 -66.5 25t-23.5 60t23.5 60t66.5 25t66.5 -25t23.5 -60t-24 -60t-66 -25z" />
    <glyph glyph-name="Zacute" unicode="&#x179;" horiz-adv-x="630" vert-adv-y="1200" 
d="M30 0v128l340 424h-336v148h556v-128l-339 -424h349v-148h-570zM249 750l110 150h170l-150 -150h-130z" />
    <glyph glyph-name="zacute" unicode="&#x17a;" horiz-adv-x="510" vert-adv-y="1200" 
d="M25 0v106l254 298h-244v126h440v-105l-254 -299h264v-126h-460zM195 580l110 160h160l-150 -160h-120z" />
    <glyph glyph-name="Zdotaccent" unicode="&#x17b;" horiz-adv-x="630" vert-adv-y="1200" 
d="M30 0v128l340 424h-336v148h556v-128l-339 -424h349v-148h-570zM314 740q-51 0 -74.5 25t-23.5 60t23.5 60t74.5 25t74.5 -25t23.5 -60t-23.5 -60t-74.5 -25z" />
    <glyph glyph-name="zdotaccent" unicode="&#x17c;" horiz-adv-x="510" vert-adv-y="1200" 
d="M25 0v106l254 298h-244v126h440v-105l-254 -299h264v-126h-460zM255 580q-43 0 -66.5 22.5t-23.5 57.5t23.5 57.5t66.5 22.5t66.5 -22.5t23.5 -57.5t-23.5 -57.5t-66.5 -22.5z" />
    <glyph glyph-name="Zcaron" unicode="&#x17d;" horiz-adv-x="630" vert-adv-y="1200" 
d="M30 0v128l340 424h-336v148h556v-128l-339 -424h349v-148h-570zM235 750l-110 150h130l60 -60l60 60h130l-110 -150h-160z" />
    <glyph glyph-name="zcaron" unicode="&#x17e;" horiz-adv-x="510" vert-adv-y="1200" 
d="M25 0v106l254 298h-244v126h440v-105l-254 -299h264v-126h-460zM180 580l-110 160h120l65 -70l65 70h120l-110 -160h-150z" />
    <glyph glyph-name="florin" unicode="&#x192;" horiz-adv-x="370" vert-adv-y="0" 
d="M39 -213q-15 0 -27.5 0.5t-27.5 2.5v128q11 -1 22.5 -2t22.5 -1q27 0 39 10.5t12 27.5v451h-60v126h60v25q0 48 18.5 81.5t63.5 51.5t123 18q15 0 37.5 -0.5t37.5 -3.5v-127q-15 2 -32.5 2.5t-32.5 0.5q-35 0 -48 -10.5t-13 -27.5v-10h116v-126h-116v-466
q0 -48 -18.5 -81.5t-60.5 -51.5t-116 -18z" />
    <glyph glyph-name="uni0218" unicode="&#x218;" horiz-adv-x="670" vert-adv-y="1200" 
d="M335 -13q-98 0 -163 26t-97.5 73.5t-34.5 113.5h180q8 -38 35 -55.5t80 -17.5q57 0 85.5 16t28.5 49q0 27 -18.5 43t-56.5 27t-91 23q-69 16 -119 41.5t-77 68.5t-27 111q0 66 33.5 112t95.5 70.5t146 24.5q92 0 152.5 -24t92 -69t35.5 -110h-180q-6 32 -29 47.5
t-71 15.5q-53 0 -74 -17t-21 -44q0 -37 38.5 -54t111.5 -31q54 -11 98.5 -27t76 -41t48.5 -61.5t17 -89.5q0 -69 -35 -118.5t-101 -76t-159 -26.5zM269 -226v181h132v-91l-51 -90h-81z" />
    <glyph glyph-name="uni0219" unicode="&#x219;" horiz-adv-x="560" vert-adv-y="1200" 
d="M280 -13q-65 0 -111.5 13.5t-76.5 37t-45 55t-17 67.5h154q6 -22 26 -38.5t70 -16.5q51 0 73 14t22 37q0 12 -9.5 21.5t-35 17.5t-73.5 16q-44 7 -82.5 18t-67.5 29.5t-45.5 47.5t-16.5 73q0 47 28 84t81 58.5t126 21.5q83 0 131.5 -25.5t71.5 -65t27 -82.5h-155
q-6 25 -25.5 40t-49.5 15q-46 0 -63.5 -14t-17.5 -34t28 -31.5t89 -19.5q44 -6 82.5 -17t68 -30.5t46.5 -49t17 -71.5q0 -50 -28.5 -89t-84 -60.5t-137.5 -21.5zM214 -226v181h132v-91l-51 -90h-81z" />
    <glyph glyph-name="uni021A" unicode="&#x21a;" horiz-adv-x="650" vert-adv-y="1200" 
d="M235 0v552h-215v148h610v-148h-215v-552h-180zM259 -226v181h132v-91l-51 -90h-81z" />
    <glyph glyph-name="uni021B" unicode="&#x21b;" horiz-adv-x="400" vert-adv-y="1200" 
d="M275 -6q-66 0 -108 17.5t-62 58t-20 110.5v224h-65v126h65v120h154v-120h121v-126h-121v-199q0 -45 14.5 -64t56.5 -19q30 0 60 3v-125q-19 -3 -40 -4.5t-55 -1.5zM134 -226v181h132v-91l-51 -90h-81z" />
    <glyph glyph-name="uni0237" unicode="&#x237;" horiz-adv-x="274" vert-adv-y="0" 
d="M24 -213q-11 0 -25 0.5t-25 2.5v128q8 -2 17.5 -2.5t17.5 -0.5q16 0 27.5 7.5t17.5 29.5t6 63v515h154v-530q0 -84 -16.5 -130t-58 -64.5t-115.5 -18.5z" />
    <glyph glyph-name="uni02BC" unicode="&#x2bc;" horiz-adv-x="295" vert-adv-y="0" 
d="M40 385l40 165v150h161v-150l-123 -165h-78z" />
    <glyph glyph-name="circumflex" unicode="&#x2c6;" horiz-adv-x="410" vert-adv-y="0" 
d="M20 580l110 160h150l110 -160h-120l-65 70l-65 -70h-120z" />
    <glyph glyph-name="caron" unicode="&#x2c7;" horiz-adv-x="410" vert-adv-y="0" 
d="M130 580l-110 160h120l65 -70l65 70h120l-110 -160h-150z" />
    <glyph glyph-name="breve" unicode="&#x2d8;" horiz-adv-x="400" vert-adv-y="1200" 
d="M200 584q-98 0 -139 38t-41 114h136q0 -35 11 -48t33 -13t33 13t11 48h136q0 -76 -41 -114t-139 -38z" />
    <glyph glyph-name="dotaccent" unicode="&#x2d9;" horiz-adv-x="220" vert-adv-y="0" 
d="M110 580q-43 0 -66.5 22.5t-23.5 57.5t23.5 57.5t66.5 22.5t66.5 -22.5t23.5 -57.5t-23.5 -57.5t-66.5 -22.5z" />
    <glyph glyph-name="ring" unicode="&#x2da;" horiz-adv-x="300" vert-adv-y="0" 
d="M150 564q-57 0 -93.5 32.5t-36.5 82.5q0 51 36 84t94 33q57 0 93.5 -33t36.5 -83t-36.5 -83t-93.5 -33zM150 648q19 0 30.5 8.5t11.5 23.5t-11.5 23.5t-30.5 8.5t-30.5 -8.5t-11.5 -23.5t11.5 -23.5t30.5 -8.5z" />
    <glyph glyph-name="ogonek" unicode="&#x2db;" horiz-adv-x="274" vert-adv-y="1200" 
d="M156 -214q-73 0 -104 26.5t-31 68.5q0 24 12.5 44t30.5 35.5t35.5 25.5t27.5 14h87q-27 -15 -43.5 -30t-24 -29t-7.5 -26q0 -19 13 -28t36 -9q6 0 12.5 0.5t13.5 1.5v-88q-13 -3 -28 -4.5t-30 -1.5z" />
    <glyph glyph-name="tilde" unicode="&#x2dc;" horiz-adv-x="400" vert-adv-y="0" 
d="M315 730l65 -45q-5 -14 -11.5 -26.5t-14.5 -23.5q-14 -19 -35.5 -34.5t-53.5 -15.5t-53.5 11.5t-39 22.5t-37.5 11q-14 0 -22.5 -6t-15.5 -14q-4 -4 -6.5 -9.5t-5.5 -10.5l-65 45q6 14 12 26.5t14 23.5q14 19 35.5 34.5t53.5 15.5q33 0 54 -11.5t38.5 -22.5t37.5 -11
q13 0 22.5 6t16.5 14q4 5 6.5 10t4.5 10z" />
    <glyph glyph-name="hungarumlaut" unicode="&#x2dd;" horiz-adv-x="621" vert-adv-y="0" 
d="M180 580h-111l70 160h151zM410 580h-120l120 160h160z" />
    <glyph glyph-name="gravecomb" unicode="&#x300;" horiz-adv-x="0" vert-adv-y="0" 
d="M170 580l-150 160h160l110 -160h-120z" />
    <glyph glyph-name="acutecomb" unicode="&#x301;" horiz-adv-x="0" vert-adv-y="0" 
d="M20 580l110 160h160l-150 -160h-120z" />
    <glyph glyph-name="uni0302" unicode="&#x302;" horiz-adv-x="0" vert-adv-y="0" 
d="M20 580l110 160h150l110 -160h-120l-65 70l-65 -70h-120z" />
    <glyph glyph-name="tildecomb" unicode="&#x303;" horiz-adv-x="0" vert-adv-y="0" 
d="M315 730l65 -45q-5 -14 -11.5 -26.5t-14.5 -23.5q-14 -19 -35.5 -34.5t-53.5 -15.5t-53.5 11.5t-39 22.5t-37.5 11q-14 0 -22.5 -6t-15.5 -14q-4 -4 -6.5 -9.5t-5.5 -10.5l-65 45q6 14 12 26.5t14 23.5q14 19 35.5 34.5t53.5 15.5q33 0 54 -11.5t38.5 -22.5t37.5 -11
q13 0 22.5 6t16.5 14q4 5 6.5 10t4.5 10z" />
    <glyph glyph-name="uni0304" unicode="&#x304;" horiz-adv-x="0" vert-adv-y="0" 
d="M20 607v106h320v-106h-320z" />
    <glyph glyph-name="uni0306" unicode="&#x306;" horiz-adv-x="0" vert-adv-y="0" 
d="M200 584q-98 0 -139 38t-41 114h136q0 -35 11 -48t33 -13t33 13t11 48h136q0 -76 -41 -114t-139 -38z" />
    <glyph glyph-name="uni0307" unicode="&#x307;" horiz-adv-x="0" vert-adv-y="0" 
d="M110 580q-43 0 -66.5 22.5t-23.5 57.5t23.5 57.5t66.5 22.5t66.5 -22.5t23.5 -57.5t-23.5 -57.5t-66.5 -22.5z" />
    <glyph glyph-name="uni0308" unicode="&#x308;" horiz-adv-x="0" vert-adv-y="0" 
d="M102 580q-36 0 -59 22.5t-23 57.5t22.5 57.5t59.5 22.5t59.5 -22.5t22.5 -57.5t-22.5 -57.5t-59.5 -22.5zM318 580q-37 0 -59.5 22.5t-22.5 57.5t22.5 57.5t59.5 22.5t59.5 -22.5t22.5 -57.5t-22.5 -57.5t-59.5 -22.5z" />
    <glyph glyph-name="uni030A" unicode="&#x30a;" horiz-adv-x="0" vert-adv-y="0" 
d="M150 564q-57 0 -93.5 32.5t-36.5 82.5q0 51 36 84t94 33q57 0 93.5 -33t36.5 -83t-36.5 -83t-93.5 -33zM150 648q19 0 30.5 8.5t11.5 23.5t-11.5 23.5t-30.5 8.5t-30.5 -8.5t-11.5 -23.5t11.5 -23.5t30.5 -8.5z" />
    <glyph glyph-name="uni030B" unicode="&#x30b;" horiz-adv-x="0" vert-adv-y="0" 
d="M180 580h-111l70 160h151zM410 580h-120l120 160h160z" />
    <glyph glyph-name="uni030C" unicode="&#x30c;" horiz-adv-x="0" vert-adv-y="0" 
d="M130 580l-110 160h120l65 -70l65 70h120l-110 -160h-150z" />
    <glyph glyph-name="uni0312" unicode="&#x312;" horiz-adv-x="0" vert-adv-y="1200" 
d="M66 794v-181h-132v91l51 90h81z" />
    <glyph glyph-name="uni0326" unicode="&#x326;" horiz-adv-x="0" vert-adv-y="1200" 
d="M49 -226v181h132v-91l-51 -90h-81z" />
    <glyph glyph-name="uni0327" unicode="&#x327;" horiz-adv-x="0" vert-adv-y="0" 
d="M95 -213q-19 0 -33 1t-23 2q-5 2 -10 3.5t-9 3.5v79l14 -3q7 -1 16 -2t20 -1q24 0 32.5 7.5t8.5 15.5t-7 16.5t-36 8.5l17 92h84l-7 -45q37 -8 52.5 -31t15.5 -49q0 -45 -31 -71.5t-104 -26.5z" />
    <glyph glyph-name="uni0328" unicode="&#x328;" horiz-adv-x="0" vert-adv-y="1200" 
d="M156 -214q-73 0 -104 26.5t-31 68.5q0 24 12.5 44t30.5 35.5t35.5 25.5t27.5 14h87q-27 -15 -43.5 -30t-24 -29t-7.5 -26q0 -19 13 -28t36 -9q6 0 12.5 0.5t13.5 1.5v-88q-13 -3 -28 -4.5t-30 -1.5z" />
    <glyph glyph-name="uni0401" unicode="&#x401;" horiz-adv-x="625" vert-adv-y="1200" 
d="M70 0v700h510v-138h-330v-137h300v-130h-300v-157h330v-138h-510zM200 740q-43 0 -66.5 25t-23.5 60t23.5 60t66.5 25t66.5 -25t23.5 -60t-23.5 -60t-66.5 -25zM450 740q-43 0 -66.5 25t-23.5 60t23.5 60t66.5 25t66.5 -25t23.5 -60t-24 -60t-66 -25z" />
    <glyph glyph-name="uni0402" unicode="&#x402;" horiz-adv-x="835" vert-adv-y="0" 
d="M235 0v552h-215v148h610v-148h-215v-131q26 17 68 30.5t102 13.5q102 0 161 -60t59 -169v-20q0 -103 -65 -162.5t-200 -59.5q-8 0 -25 0.5t-25 2.5v150q8 -2 20 -2.5t20 -0.5q45 0 67 20.5t22 55.5v20q0 34 -22 54.5t-67 20.5q-41 0 -69 -9.5t-46 -20.5v-285h-180z" />
    <glyph glyph-name="uni0403" unicode="&#x403;" horiz-adv-x="560" vert-adv-y="1200" 
d="M70 0v700h470v-148h-290v-552h-180zM239 750l110 150h170l-150 -150h-130z" />
    <glyph glyph-name="uni0404" unicode="&#x404;" horiz-adv-x="710" vert-adv-y="0" 
d="M370 -13q-71 0 -131 19.5t-103.5 62.5t-67 111.5t-23.5 165.5v19q0 92 25 158t69 108t103.5 62t127.5 20q61 0 115 -14t94.5 -44t65.5 -78t30 -117h-187q-9 55 -43 79t-75 24q-37 0 -65.5 -13t-46 -44t-24.5 -82h211v-138h-211q5 -42 17 -71.5t29.5 -46.5t40 -24t49.5 -7
q50 0 81 24.5t38 78.5h186q-4 -70 -28.5 -118.5t-65 -78t-94.5 -43t-117 -13.5z" />
    <glyph glyph-name="uni0405" unicode="&#x405;" horiz-adv-x="670" vert-adv-y="1200" 
d="M335 -13q-98 0 -163 26t-97.5 73.5t-34.5 113.5h180q8 -38 35 -55.5t80 -17.5q57 0 85.5 16t28.5 49q0 27 -18.5 43t-56.5 27t-91 23q-69 16 -119 41.5t-77 68.5t-27 111q0 66 33.5 112t95.5 70.5t146 24.5q92 0 152.5 -24t92 -69t35.5 -110h-180q-6 32 -29 47.5
t-71 15.5q-53 0 -74 -17t-21 -44q0 -37 38.5 -54t111.5 -31q54 -11 98.5 -27t76 -41t48.5 -61.5t17 -89.5q0 -69 -35 -118.5t-101 -76t-159 -26.5z" />
    <glyph glyph-name="uni0406" unicode="&#x406;" horiz-adv-x="340" vert-adv-y="1200" 
d="M80 0v700h180v-700h-180z" />
    <glyph glyph-name="uni0407" unicode="&#x407;" horiz-adv-x="340" vert-adv-y="1200" 
d="M80 0v700h180v-700h-180zM45 740q-43 0 -66.5 25t-23.5 60t23.5 60t66.5 25t66.5 -25t23.5 -60t-23.5 -60t-66.5 -25zM295 740q-43 0 -66.5 25t-23.5 60t23.5 60t66.5 25t66.5 -25t23.5 -60t-24 -60t-66 -25z" />
    <glyph glyph-name="uni0408" unicode="&#x408;" horiz-adv-x="570" vert-adv-y="1200" 
d="M260 -13q-77 0 -130 29.5t-80.5 86t-29.5 137.5h171q1 -51 16 -77t53 -26q23 0 38.5 11t23.5 36t8 66v450h180v-450q0 -96 -31.5 -153.5t-87.5 -83.5t-131 -26z" />
    <glyph glyph-name="uni0409" unicode="&#x409;" horiz-adv-x="1060" vert-adv-y="0" 
d="M70 -13q-8 0 -22.5 0.5t-22.5 2.5v158q3 -1 15 -1q20 0 34.5 5.5t24.5 24t17.5 54.5t10.5 96.5t3 152.5v220h520v-232h95q146 0 215.5 -63t69.5 -171t-69.5 -171t-215.5 -63h-276v553h-171v-93q0 -124 -10 -209t-29.5 -137t-47.5 -79.5t-63.5 -37.5t-77.5 -10zM650 148
h75q63 0 91 24t28 62t-28 62t-91 24h-75v-172z" />
    <glyph glyph-name="uni040A" unicode="&#x40a;" horiz-adv-x="1090" vert-adv-y="0" 
d="M70 0v700h180v-256h250v256h180v-256h110q139 0 204.5 -59.5t65.5 -161.5q0 -104 -65.5 -163.5t-204.5 -59.5h-290v296h-250v-296h-180zM680 148h90q56 0 80 21t24 54q0 32 -24 52.5t-80 20.5h-90v-148z" />
    <glyph glyph-name="uni040B" unicode="&#x40b;" horiz-adv-x="850" vert-adv-y="0" 
d="M235 0v552h-215v148h610v-148h-215v-131q26 17 69 30.5t101 13.5q109 0 164.5 -54.5t55.5 -175.5v-235h-180v205q0 59 -25 84.5t-70 25.5q-42 0 -69.5 -9.5t-45.5 -20.5v-285h-180z" />
    <glyph glyph-name="uni040C" unicode="&#x40c;" horiz-adv-x="735" vert-adv-y="1200" 
d="M70 0v700h180v-277h50l214 277h196l-270 -327l280 -373h-210l-210 297h-50v-297h-180zM316 750l110 150h170l-150 -150h-130z" />
    <glyph glyph-name="uni040E" unicode="&#x40e;" horiz-adv-x="710" vert-adv-y="1200" 
d="M210 -13q-11 0 -21.5 0.5t-18.5 3.5v149l16 -2t19 -1q29 0 45 4.5t25 16t15 31.5l-281 511h183l186 -355l146 355h176l-234 -529q-23 -52 -45.5 -87t-51 -56.5t-67 -31t-92.5 -9.5zM358 739q-70 0 -114.5 19.5t-65 57.5t-20.5 95h146q0 -42 12.5 -56.5t41.5 -14.5
t41.5 14.5t12.5 56.5h146q0 -57 -20.5 -95t-64.5 -57.5t-115 -19.5z" />
    <glyph glyph-name="uni040F" unicode="&#x40f;" horiz-adv-x="740" vert-adv-y="0" 
d="M292 -130v130h-222v700h180v-552h240v552h180v-700h-222v-130h-156z" />
    <glyph glyph-name="uni0410" unicode="&#x410;" horiz-adv-x="710" vert-adv-y="1200" 
d="M9 0l256 700h180l255 -700h-190l-48 134h-234l-48 -134h-171zM279 272h132l-66 208z" />
    <glyph glyph-name="uni0411" unicode="&#x411;" horiz-adv-x="680" vert-adv-y="0" 
d="M70 0v700h515v-148h-335v-104h115q146 0 215.5 -59.5t69.5 -159.5q0 -108 -69.5 -168.5t-215.5 -60.5h-295zM250 148h95q65 0 92 21.5t27 59.5t-27 59.5t-92 21.5h-95v-162z" />
    <glyph glyph-name="uni0412" unicode="&#x412;" horiz-adv-x="705" vert-adv-y="1200" 
d="M70 0v700h335q123 0 179 -48.5t56 -138.5q0 -54 -28 -92.5t-75 -55.5q61 -14 97 -56.5t36 -110.5q0 -61 -26.5 -105.5t-82.5 -68.5t-146 -24h-345zM250 138h125q65 0 90 19.5t25 60.5t-25.5 61t-92.5 20h-122v-161zM250 421h111q58 0 78.5 18.5t20.5 52.5
q0 35 -20.5 52.5t-77.5 17.5h-112v-141z" />
    <glyph glyph-name="uni0413" unicode="&#x413;" horiz-adv-x="560" vert-adv-y="0" 
d="M70 0v700h470v-148h-290v-552h-180z" />
    <glyph glyph-name="uni0414" unicode="&#x414;" horiz-adv-x="750" vert-adv-y="0" 
d="M15 -130v278h80q13 33 21.5 77.5t13.5 95.5t7.5 104.5t2.5 104.5v170h514v-552h71v-278h-156v130h-398v-130h-156zM268 148h206v404h-166v-42q0 -122 -9.5 -210.5t-30.5 -151.5z" />
    <glyph glyph-name="uni0415" unicode="&#x415;" horiz-adv-x="625" vert-adv-y="1200" 
d="M70 0v700h510v-138h-330v-137h300v-130h-300v-157h330v-138h-510z" />
    <glyph glyph-name="uni0416" unicode="&#x416;" horiz-adv-x="1020" vert-adv-y="0" 
d="M15 0l224 359l-214 341h190l165 -277h41v277h180v-277h41l170 277h183l-215 -326l225 -374h-196l-167 297h-41v-297h-180v297h-40l-176 -297h-190z" />
    <glyph glyph-name="uni0417" unicode="&#x417;" horiz-adv-x="668" vert-adv-y="0" 
d="M335 -13q-98 0 -164 29t-99.5 83.5t-36.5 130.5h186q3 -32 14.5 -55t35.5 -35.5t64 -12.5q60 0 87 22t27 62q0 26 -10 46t-37 31t-77 11h-64v122h64q56 0 77.5 24t21.5 54t-18 52t-71 22q-32 0 -53 -9.5t-32.5 -29t-13.5 -49.5h-186q4 116 73 172t212 56t209 -50.5
t66 -148.5q0 -55 -27.5 -93.5t-78.5 -55.5q64 -15 97.5 -57.5t33.5 -110.5q0 -62 -32.5 -109.5t-98.5 -74t-169 -26.5z" />
    <glyph glyph-name="uni0418" unicode="&#x418;" horiz-adv-x="760" vert-adv-y="0" 
d="M70 0v700h180v-420l275 420h165v-700h-180v420l-275 -420h-165z" />
    <glyph glyph-name="uni0419" unicode="&#x419;" horiz-adv-x="760" vert-adv-y="1200" 
d="M70 0v700h180v-420l275 420h165v-700h-180v420l-275 -420h-165zM380 739q-70 0 -114.5 19.5t-65 57.5t-20.5 95h146q0 -42 12.5 -56.5t41.5 -14.5t41.5 14.5t12.5 56.5h146q0 -57 -20.5 -95t-64.5 -57.5t-115 -19.5z" />
    <glyph glyph-name="uni041A" unicode="&#x41a;" horiz-adv-x="735" vert-adv-y="0" 
d="M70 0v700h180v-277h50l214 277h196l-270 -327l280 -373h-210l-210 297h-50v-297h-180z" />
    <glyph glyph-name="uni041B" unicode="&#x41b;" horiz-adv-x="730" vert-adv-y="0" 
d="M70 -13q-8 0 -22.5 0.5t-22.5 2.5v158q3 -1 15 -1q20 0 34.5 5.5t24.5 24t17.5 54.5t10.5 96.5t3 152.5v220h530v-700h-181v553h-181v-93q0 -125 -10 -209.5t-29.5 -136.5t-47.5 -79.5t-63.5 -37.5t-77.5 -10z" />
    <glyph glyph-name="uni041C" unicode="&#x41c;" horiz-adv-x="890" vert-adv-y="1200" 
d="M70 0v700h184l194 -355l192 355h180v-700h-180v401l-145 -266h-100l-145 266v-401h-180z" />
    <glyph glyph-name="uni041D" unicode="&#x41d;" horiz-adv-x="760" vert-adv-y="1200" 
d="M70 0v700h180v-266h260v266h180v-700h-180v286h-260v-286h-180z" />
    <glyph glyph-name="uni041E" unicode="&#x41e;" horiz-adv-x="770" vert-adv-y="1200" 
d="M385 -13q-68 0 -130 20t-109 63t-74 111.5t-27 163.5v20q0 92 27 158t74 108t109 62t130 20q70 0 131 -20t108 -62t74 -108t27 -158v-20q0 -95 -27 -163.5t-74 -111.5t-108 -63t-131 -20zM384 137q41 0 76 18.5t56.5 63t21.5 126.5v20q0 78 -21.5 121t-56.5 60t-76 17
q-39 0 -74 -17t-57 -60t-22 -121v-20q0 -82 22 -126.5t57 -63t74 -18.5z" />
    <glyph glyph-name="uni041F" unicode="&#x41f;" horiz-adv-x="750" vert-adv-y="0" 
d="M70 0v700h610v-700h-180v552h-250v-552h-180z" />
    <glyph glyph-name="uni0420" unicode="&#x420;" horiz-adv-x="670" vert-adv-y="1200" 
d="M70 0v700h285q98 0 161 -28.5t93.5 -82t30.5 -128.5q0 -74 -30.5 -128t-93.5 -82.5t-161 -28.5h-105v-222h-180zM250 370h85q69 0 97 23t28 68t-28 68t-97 23h-85v-182z" />
    <glyph glyph-name="uni0421" unicode="&#x421;" horiz-adv-x="710" vert-adv-y="1200" 
d="M370 -13q-96 0 -169.5 35.5t-114.5 114.5t-41 209v19q0 92 25 158t69.5 108t103.5 62t127 20q61 0 115 -14t94.5 -44t65.5 -78t30 -117h-187q-9 55 -42 79t-76 24q-40 0 -71.5 -19.5t-49.5 -62.5t-18 -116v-21q0 -58 11 -98t30.5 -64t44.5 -34.5t53 -10.5q51 0 81.5 24.5
t36.5 78.5h187q-4 -70 -28.5 -118.5t-65 -78t-94.5 -43t-117 -13.5z" />
    <glyph glyph-name="uni0422" unicode="&#x422;" horiz-adv-x="650" vert-adv-y="1200" 
d="M235 0v552h-215v148h610v-148h-215v-552h-180z" />
    <glyph glyph-name="uni0423" unicode="&#x423;" horiz-adv-x="710" vert-adv-y="0" 
d="M210 -13q-11 0 -21.5 0.5t-18.5 3.5v149l16 -2t19 -1q29 0 45 4.5t25 16t15 31.5l-281 511h183l186 -355l146 355h176l-234 -529q-23 -52 -45.5 -87t-51 -56.5t-67 -31t-92.5 -9.5z" />
    <glyph glyph-name="uni0424" unicode="&#x424;" horiz-adv-x="930" vert-adv-y="0" 
d="M377 -30v60q-104 0 -179.5 40t-116.5 112t-41 168v20q0 86 41 154t116.5 107t179.5 39v60h175v-60q104 0 180 -39t117 -107t41 -154v-20q0 -96 -41 -168t-117 -112t-180 -40v-60h-175zM704 350v20q0 52 -18 85t-52 49t-82 16v-340q50 0 83.5 17t51 54.5t17.5 98.5z
M226 370v-20q0 -61 17 -98.5t51 -54.5t83 -17v340q-48 0 -82 -16t-51.5 -49t-17.5 -85z" />
    <glyph glyph-name="uni0425" unicode="&#x425;" horiz-adv-x="720" vert-adv-y="1200" 
d="M15 0l228 365l-218 335h199l137 -212l139 212h195l-217 -333l227 -367h-201l-146 245l-146 -245h-197z" />
    <glyph glyph-name="uni0426" unicode="&#x426;" horiz-adv-x="776" vert-adv-y="0" 
d="M594 -130v130h-524v700h180v-552h240v552h180v-552h80v-278h-156z" />
    <glyph glyph-name="uni0427" unicode="&#x427;" horiz-adv-x="685" vert-adv-y="0" 
d="M434 0v279q-26 -17 -68.5 -30.5t-100.5 -13.5q-109 0 -164.5 54.5t-55.5 175.5v235h180v-205q0 -59 25 -84.5t70 -25.5q41 0 69 9.5t45 20.5v285h181v-700h-181z" />
    <glyph glyph-name="uni0428" unicode="&#x428;" horiz-adv-x="1000" vert-adv-y="0" 
d="M70 0v700h180v-552h160v552h180v-552h160v552h180v-700h-860z" />
    <glyph glyph-name="uni0429" unicode="&#x429;" horiz-adv-x="1035" vert-adv-y="0" 
d="M70 0v700h180v-552h160v552h180v-552h160v552h180v-552h80v-278h-157v130h-783z" />
    <glyph glyph-name="uni042A" unicode="&#x42a;" horiz-adv-x="750" vert-adv-y="0" 
d="M150 0v552h-130v148h310v-232h105q146 0 215.5 -63t69.5 -171t-69.5 -171t-215.5 -63h-285zM330 148h85q63 0 91 24t28 62t-28 62t-91 24h-85v-172z" />
    <glyph glyph-name="uni042B" unicode="&#x42b;" horiz-adv-x="920" vert-adv-y="0" 
d="M70 0v700h180v-232h85q146 0 215.5 -63t69.5 -171t-69.5 -171t-215.5 -63h-265zM250 148h65q63 0 91 24t28 62t-28 62t-91 24h-65v-172zM670 0v700h180v-700h-180z" />
    <glyph glyph-name="uni042C" unicode="&#x42c;" horiz-adv-x="670" vert-adv-y="0" 
d="M70 0v700h180v-232h105q146 0 215.5 -63t69.5 -171t-69.5 -171t-215.5 -63h-285zM250 148h85q63 0 91 24t28 62t-28 62t-91 24h-85v-172z" />
    <glyph glyph-name="uni042D" unicode="&#x42d;" horiz-adv-x="710" vert-adv-y="0" 
d="M340 -13q-63 0 -117 13.5t-94.5 43t-65 78t-28.5 118.5h186q7 -54 38 -78.5t83 -24.5q25 0 47 7.5t40 24.5t30 46t17 71h-211v138h210q-6 51 -24.5 82t-46 44t-64.5 13q-39 0 -75 -24t-44 -79h-186q5 69 30 117t66 78t94.5 44t114.5 14q68 0 127 -20t103.5 -62t69.5 -108
t25 -158v-19q0 -97 -23.5 -165.5t-67 -111.5t-103 -62.5t-131.5 -19.5z" />
    <glyph glyph-name="Yucy" unicode="&#x42e;" horiz-adv-x="985" vert-adv-y="0" 
d="M70 0v700h180v-266h70q12 98 54.5 159.5t107 90.5t143.5 29q88 0 159 -36t113.5 -112.5t42.5 -199.5v-20q0 -127 -42.5 -206t-113.5 -115.5t-159 -36.5q-80 0 -146 30.5t-108.5 96t-52.5 172.5h-68v-286h-180zM625 137q35 0 64 18.5t47 63t18 126.5v20q0 78 -18 121
t-47 60t-64 17q-34 0 -63.5 -17t-47.5 -60t-18 -121v-20q0 -82 18 -126.5t47.5 -63t63.5 -18.5z" />
    <glyph glyph-name="Yacy" unicode="&#x42f;" horiz-adv-x="700" vert-adv-y="0" 
d="M30 0l170 259q-70 25 -105 78.5t-35 128.5q0 72 30 124t89 81t146 29h305v-700h-180v240h-93l-143 -240h-184zM240 466q0 -43 26.5 -64.5t98.5 -21.5h85v172h-85q-72 0 -98.5 -21.5t-26.5 -64.5z" />
    <glyph glyph-name="uni0430" unicode="&#x430;" vert-adv-y="1200" 
d="M215 -13q-57 0 -97.5 22t-61.5 60.5t-21 85.5q0 79 48.5 121t146.5 42h150v22q0 48 -22.5 66t-62.5 18q-38 0 -56 -11.5t-20 -37.5h-154q3 48 30.5 86t79 60t125.5 22q70 0 123 -21t82.5 -67.5t29.5 -124.5v-195q0 -42 2 -73.5t6 -61.5h-147q-1 17 -2.5 30t-1.5 32
q-24 -32 -66.5 -53.5t-110.5 -21.5zM265 96q33 0 59 12t41 36.5t15 55.5v22h-120q-34 0 -50.5 -18t-16.5 -41q0 -30 16.5 -48.5t55.5 -18.5z" />
    <glyph glyph-name="uni0431" unicode="&#x431;" horiz-adv-x="605" vert-adv-y="0" 
d="M305 -13q-77 0 -138.5 34.5t-96.5 103t-35 170.5v20q0 119 27 203.5t89 131.5t168 52q42 2 83 3t76 5.5t57 14.5v-132q-10 -6 -33.5 -11t-64 -7.5t-103.5 -4.5q-58 0 -95.5 -16.5t-57 -51.5t-26.5 -93q15 27 40.5 48t64 33.5t90.5 12.5q66 0 117 -25.5t79.5 -76.5
t28.5 -129v-18q0 -84 -36 -144t-97 -91.5t-137 -31.5zM305 115q54 0 83 34.5t29 90.5v20q0 60 -30 92.5t-82 32.5q-51 0 -81.5 -32.5t-30.5 -92.5v-16q0 -38 14.5 -67.5t40 -45.5t57.5 -16z" />
    <glyph glyph-name="uni0432" unicode="&#x432;" vert-adv-y="0" 
d="M50 0v530h284q70 0 113 -18.5t63 -50t20 -71.5q0 -37 -22 -70.5t-63 -43.5q49 -12 77 -46t28 -79q0 -69 -49 -110t-147 -41h-304zM204 116h111q41 0 61 12t20 37t-20 37.5t-61 12.5h-111v-99zM204 323h103q41 0 55 12.5t14 33.5t-15 33t-54 12h-103v-91z" />
    <glyph glyph-name="uni0433" unicode="&#x433;" horiz-adv-x="460" vert-adv-y="0" 
d="M50 0v530h390v-126h-236v-404h-154z" />
    <glyph glyph-name="uni0434" unicode="&#x434;" horiz-adv-x="625" vert-adv-y="0" 
d="M15 -125v251h56q14 21 22.5 51.5t12.5 75.5t4 107v170h435v-404h60v-251h-130v125h-330v-125h-130zM222 126h169v278h-139v-64q0 -76 -7 -127.5t-23 -86.5z" />
    <glyph glyph-name="uni0435" unicode="&#x435;" horiz-adv-x="590" vert-adv-y="1200" 
d="M305 -13q-78 0 -140 29.5t-98.5 90.5t-36.5 153v20q0 88 35 146t95.5 87.5t134.5 29.5q131 0 198 -67.5t67 -195.5v-56h-372q2 -39 18.5 -65t42.5 -37.5t56 -11.5q44 0 69.5 13.5t33.5 36.5h142q-16 -87 -79 -130t-166 -43zM300 420q-28 0 -53 -9t-40.5 -29.5
t-17.5 -55.5h220q0 37 -15 57.5t-39.5 28.5t-54.5 8z" />
    <glyph glyph-name="uni0436" unicode="&#x436;" horiz-adv-x="820" vert-adv-y="0" 
d="M10 0l175 273l-165 257h163l121 -203h29v203h154v-203h30l127 203h156l-165 -246l175 -284h-170l-123 213h-30v-213h-154v213h-31l-127 -213h-165z" />
    <glyph glyph-name="uni0437" unicode="&#x437;" horiz-adv-x="556" vert-adv-y="0" 
d="M277 -13q-87 0 -141.5 22.5t-81.5 65.5t-29 105h158q3 -20 9.5 -35t25 -23t56.5 -8q50 0 71.5 16.5t21.5 36.5q0 26 -19.5 38.5t-64.5 12.5h-69v102h61q38 0 57 12t19 37q0 20 -18.5 34t-57.5 14q-43 0 -61 -16t-21 -46h-158q4 63 32.5 104.5t81 62.5t126.5 21
q112 0 171 -41.5t59 -114.5q0 -38 -18 -68t-60 -44q58 -12 78.5 -43t20.5 -74q0 -49 -30 -88t-85.5 -61t-133.5 -22z" />
    <glyph glyph-name="uni0438" unicode="&#x438;" horiz-adv-x="610" vert-adv-y="0" 
d="M50 0v530h150v-320l225 320h135v-530h-150v320l-225 -320h-135z" />
    <glyph glyph-name="uni0439" unicode="&#x439;" horiz-adv-x="610" vert-adv-y="1200" 
d="M50 0v530h150v-320l225 320h135v-530h-150v320l-225 -320h-135zM305 584q-98 0 -139 38t-41 114h136q0 -35 11 -48t33 -13t33 13t11 48h136q0 -76 -41 -114t-139 -38z" />
    <glyph glyph-name="uni043A" unicode="&#x43a;" vert-adv-y="0" 
d="M50 0v530h154v-200h40l148 200h168l-195 -249l205 -281h-182l-144 210h-40v-210h-154z" />
    <glyph glyph-name="uni043B" unicode="&#x43b;" horiz-adv-x="596" vert-adv-y="0" 
d="M66 -13q-9 0 -23.5 0.5t-22.5 2.5v135q3 -1 15 -1q23 0 38.5 19t23 64t7.5 123v200h441v-530h-154v404h-142v-94q0 -99 -12 -163t-35 -98.5t-57.5 -48t-78.5 -13.5z" />
    <glyph glyph-name="uni043C" unicode="&#x43c;" horiz-adv-x="720" vert-adv-y="0" 
d="M50 0v530h187l126 -263l126 263h181v-530h-146v325l-114 -225h-100l-114 225v-325h-146z" />
    <glyph glyph-name="uni043D" unicode="&#x43d;" horiz-adv-x="610" vert-adv-y="0" 
d="M50 0v530h154v-197h202v197h154v-530h-154v207h-202v-207h-154z" />
    <glyph glyph-name="uni043E" unicode="&#x43e;" horiz-adv-x="600" vert-adv-y="1200" 
d="M300 -13q-74 0 -135.5 29t-98 90.5t-36.5 153.5v20q0 86 36.5 144.5t98 88.5t135.5 30q75 0 136 -30t97.5 -88.5t36.5 -144.5v-20q0 -91 -36.5 -151.5t-97.5 -91t-136 -30.5zM300 115q36 0 61 17.5t38 50.5t13 77v20q0 40 -13 70t-38 47.5t-61 17.5t-61 -17.5t-38 -47.5
t-13 -70v-20q0 -46 13 -78.5t38 -49.5t61 -17z" />
    <glyph glyph-name="uni043F" unicode="&#x43f;" horiz-adv-x="600" vert-adv-y="0" 
d="M50 0v530h500v-530h-154v404h-192v-404h-154z" />
    <glyph glyph-name="uni0440" unicode="&#x440;" horiz-adv-x="615" vert-adv-y="1200" 
d="M50 -200v730h142v-72q21 32 62.5 58.5t102.5 26.5q112 0 170 -66t58 -197v-20q0 -90 -28 -150.5t-79 -91.5t-121 -31q-45 0 -85.5 20.5t-67.5 59.5v-267h-154zM320 114q46 0 76.5 37.5t30.5 108.5v20q0 69 -29.5 102.5t-77.5 33.5q-32 0 -58.5 -13.5t-42 -40.5t-15.5 -67
v-50q0 -41 15.5 -70.5t42 -45t58.5 -15.5z" />
    <glyph glyph-name="uni0441" unicode="&#x441;" horiz-adv-x="575" vert-adv-y="1200" 
d="M300 -13q-78 0 -139 30t-96 91t-35 152v20q0 84 36.5 143t98 89.5t135.5 30.5q80 0 134 -27.5t83 -73.5t33 -102h-159q-7 36 -28.5 55.5t-62.5 19.5q-32 0 -57.5 -15t-40 -44.5t-14.5 -75.5v-20q0 -49 14 -81t39 -47.5t59 -15.5q35 0 59.5 18.5t31.5 55.5h159
q-4 -62 -36 -108t-86.5 -70.5t-127.5 -24.5z" />
    <glyph glyph-name="uni0442" unicode="&#x442;" horiz-adv-x="520" vert-adv-y="0" 
d="M183 0v404h-163v126h480v-126h-163v-404h-154z" />
    <glyph glyph-name="uni0443" unicode="&#x443;" horiz-adv-x="600" vert-adv-y="1200" 
d="M155 -213q-15 0 -30 3v128q15 -3 30 -3q20 0 33 8.5t23.5 27.5t22.5 50l-224 529h170l132 -353l125 353h153l-202 -530q-30 -75 -57 -122.5t-67.5 -69t-108.5 -21.5z" />
    <glyph glyph-name="uni0444" unicode="&#x444;" horiz-adv-x="770" vert-adv-y="0" 
d="M308 -200v187q-134 0 -206 69.5t-72 202.5v21q0 128 72 195.5t206 67.5v157h154v-157q134 0 206 -67.5t72 -195.5v-21q0 -133 -72 -202.5t-206 -69.5v-187h-154zM583 260v20q0 67 -30.5 101t-95.5 34v-300q65 0 95.5 37.5t30.5 107.5zM186 280v-20q0 -71 31.5 -108
t96.5 -37v300q-68 0 -98 -35t-30 -100z" />
    <glyph glyph-name="uni0445" unicode="&#x445;" vert-adv-y="1200" 
d="M10 0l169 276l-159 254h170l104 -161l100 161h166l-158 -249l168 -281h-171l-111 189l-111 -189h-167z" />
    <glyph glyph-name="uni0446" unicode="&#x446;" horiz-adv-x="631" vert-adv-y="0" 
d="M480 -125v125h-430v530h154v-404h182v404h154v-404h70v-251h-130z" />
    <glyph glyph-name="uni0447" unicode="&#x447;" horiz-adv-x="576" vert-adv-y="0" 
d="M361 0v186q-23 -13 -53 -24t-79 -11q-100 0 -147.5 48t-47.5 146v185h156v-170q0 -44 18.5 -62.5t67.5 -18.5q33 0 55 8.5t30 16.5v226h154v-530h-154z" />
    <glyph glyph-name="uni0448" unicode="&#x448;" horiz-adv-x="840" vert-adv-y="0" 
d="M50 0v530h154v-404h139v404h154v-404h139v404h154v-530h-740z" />
    <glyph glyph-name="uni0449" unicode="&#x449;" horiz-adv-x="880" vert-adv-y="0" 
d="M729 -125v125h-679v530h154v-404h139v404h154v-404h139v404h154v-404h70v-251h-131z" />
    <glyph glyph-name="uni044A" unicode="&#x44a;" horiz-adv-x="620" vert-adv-y="0" 
d="M130 0v404h-110v126h264v-172h106q104 0 157 -44t53 -135q0 -52 -21 -93t-67 -63.5t-122 -22.5h-260zM284 116h86q41 0 58.5 15.5t17.5 47.5q0 33 -17.5 48t-58.5 15h-86v-126z" />
    <glyph glyph-name="uni044B" unicode="&#x44b;" horiz-adv-x="760" vert-adv-y="1200" 
d="M50 0v530h154v-172h86q104 0 157 -44t53 -135q0 -52 -21 -93t-67 -63.5t-122 -22.5h-240zM204 116h66q40 0 58 15.5t18 47.5q0 33 -17.5 48t-58.5 15h-66v-126zM546 0v530h154v-530h-154z" />
    <glyph glyph-name="uni044C" unicode="&#x44c;" horiz-adv-x="550" vert-adv-y="0" 
d="M60 0v530h154v-172h106q104 0 157 -44t53 -135q0 -52 -21 -93t-67 -63.5t-122 -22.5h-260zM214 116h86q41 0 58.5 15.5t17.5 47.5q0 33 -17.5 48t-58.5 15h-86v-126z" />
    <glyph glyph-name="uni044D" unicode="&#x44d;" horiz-adv-x="575" vert-adv-y="0" 
d="M275 -13q-72 0 -127.5 24.5t-87 70.5t-35.5 108h158q8 -37 32.5 -55.5t59.5 -18.5q44 0 71.5 21.5t36.5 73.5h-158v118h157q-9 45 -37 65.5t-70 20.5q-41 0 -62.5 -19.5t-29.5 -55.5h-158q4 56 33 102t82.5 73.5t134.5 27.5q75 0 136 -30.5t97.5 -89.5t36.5 -143v-20
q0 -91 -35 -152t-96 -91t-139 -30z" />
    <glyph glyph-name="yucy" unicode="&#x44e;" horiz-adv-x="785" vert-adv-y="0" 
d="M50 0v530h154v-197h38q9 69 44 116t89 70.5t120 23.5q75 0 133.5 -30t92.5 -88.5t34 -144.5v-20q0 -91 -34 -151.5t-92.5 -91t-133.5 -30.5q-67 0 -120.5 24t-88 73t-44.5 123h-38v-207h-154zM495 115q33 0 56 17.5t34.5 51t11.5 76.5v20q0 40 -11.5 70t-34.5 47.5
t-56 17.5q-32 0 -55.5 -17.5t-35 -47.5t-11.5 -70v-20q0 -46 11.5 -79t35 -49.5t55.5 -16.5z" />
    <glyph glyph-name="yacy" unicode="&#x44f;" horiz-adv-x="585" vert-adv-y="0" 
d="M25 0l135 196q-60 20 -87.5 59t-27.5 92q0 52 24 93.5t75 65.5t131 24h260v-530h-155v179h-75l-112 -179h-168zM199 347q0 -29 20.5 -41.5t50.5 -12.5h110v111h-110q-30 0 -50.5 -14t-20.5 -43z" />
    <glyph glyph-name="uni0451" unicode="&#x451;" horiz-adv-x="590" vert-adv-y="1200" 
d="M305 -13q-78 0 -140 29.5t-98.5 90.5t-36.5 153v20q0 88 35 146t95.5 87.5t134.5 29.5q131 0 198 -67.5t67 -195.5v-56h-372q2 -39 18.5 -65t42.5 -37.5t56 -11.5q44 0 69.5 13.5t33.5 36.5h142q-16 -87 -79 -130t-166 -43zM300 420q-28 0 -53 -9t-40.5 -29.5
t-17.5 -55.5h220q0 37 -15 57.5t-39.5 28.5t-54.5 8zM187 580q-36 0 -59 22.5t-23 57.5t22.5 57.5t59.5 22.5t59.5 -22.5t22.5 -57.5t-22.5 -57.5t-59.5 -22.5zM403 580q-37 0 -59.5 22.5t-22.5 57.5t22.5 57.5t59.5 22.5t59.5 -22.5t22.5 -57.5t-22.5 -57.5t-59.5 -22.5z
" />
    <glyph glyph-name="uni0452" unicode="&#x452;" horiz-adv-x="635" vert-adv-y="0" 
d="M100 0v420h-90v110h90v170h154v-170h216v-110h-216v-127q11 17 32 35.5t53 31.5t74 13q91 0 139 -51.5t48 -146.5v-175q0 -84 -16.5 -130t-58 -64.5t-115.5 -18.5q-11 0 -25 0.5t-25 2.5v128q8 -2 17.5 -2.5t17.5 -0.5q16 0 27.5 7.5t17.5 29.5t6 63v125q0 52 -21.5 78.5
t-69.5 26.5q-35 0 -57 -13.5t-33 -37.5t-11 -55v-139h-154z" />
    <glyph glyph-name="uni0453" unicode="&#x453;" horiz-adv-x="460" vert-adv-y="1200" 
d="M50 0v530h390v-126h-236v-404h-154zM185 580l110 160h160l-150 -160h-120z" />
    <glyph glyph-name="uni0454" unicode="&#x454;" horiz-adv-x="575" vert-adv-y="0" 
d="M300 -13q-78 0 -139 30t-96 91t-35 152v20q0 84 36.5 143t98 89.5t135.5 30.5q80 0 134 -27.5t83 -73.5t33 -102h-159q-7 36 -28.5 55.5t-62.5 19.5q-28 0 -49.5 -10t-36 -28.5t-21.5 -47.5h157v-118h-158q6 -33 20 -54t36.5 -31t51.5 -10q35 0 59.5 18.5t31.5 55.5h159
q-4 -62 -36 -108t-86.5 -70.5t-127.5 -24.5z" />
    <glyph glyph-name="uni0455" unicode="&#x455;" horiz-adv-x="560" vert-adv-y="1200" 
d="M280 -13q-65 0 -111.5 13.5t-76.5 37t-45 55t-17 67.5h154q6 -22 26 -38.5t70 -16.5q51 0 73 14t22 37q0 12 -9.5 21.5t-35 17.5t-73.5 16q-44 7 -82.5 18t-67.5 29.5t-45.5 47.5t-16.5 73q0 47 28 84t81 58.5t126 21.5q83 0 131.5 -25.5t71.5 -65t27 -82.5h-155
q-6 25 -25.5 40t-49.5 15q-46 0 -63.5 -14t-17.5 -34t28 -31.5t89 -19.5q44 -6 82.5 -17t68 -30.5t46.5 -49t17 -71.5q0 -50 -28.5 -89t-84 -60.5t-137.5 -21.5z" />
    <glyph glyph-name="uni0456" unicode="&#x456;" horiz-adv-x="274" vert-adv-y="1200" 
d="M60 0v530h154v-530h-154zM137 580q-43 0 -66.5 22.5t-23.5 57.5t23.5 57.5t66.5 22.5t66.5 -22.5t23.5 -57.5t-23.5 -57.5t-66.5 -22.5z" />
    <glyph glyph-name="uni0457" unicode="&#x457;" horiz-adv-x="274" vert-adv-y="1200" 
d="M60 0v530h154v-530h-154zM29 580q-36 0 -59 22.5t-23 57.5t22.5 57.5t59.5 22.5t59.5 -22.5t22.5 -57.5t-22.5 -57.5t-59.5 -22.5zM245 580q-37 0 -59.5 22.5t-22.5 57.5t22.5 57.5t59.5 22.5t59.5 -22.5t22.5 -57.5t-22.5 -57.5t-59.5 -22.5z" />
    <glyph glyph-name="uni0458" unicode="&#x458;" horiz-adv-x="274" vert-adv-y="1200" 
d="M24 -213q-11 0 -25 0.5t-25 2.5v128q8 -2 17.5 -2.5t17.5 -0.5q16 0 27.5 7.5t17.5 29.5t6 63v515h154v-530q0 -84 -16.5 -130t-58 -64.5t-115.5 -18.5zM137 580q-43 0 -66.5 22.5t-23.5 57.5t23.5 57.5t66.5 22.5t66.5 -22.5t23.5 -57.5t-23.5 -57.5t-66.5 -22.5z" />
    <glyph glyph-name="uni0459" unicode="&#x459;" horiz-adv-x="865" vert-adv-y="0" 
d="M66 -13q-9 0 -23.5 0.5t-22.5 2.5v135q3 -1 15 -1q23 0 38.5 19t23 64t7.5 123v200h431v-172h100q104 0 157 -44t53 -135q0 -52 -21 -93t-67 -63.5t-122 -22.5h-254v404h-132v-94q0 -99 -12 -163t-35 -98.5t-57.5 -48t-78.5 -13.5zM535 116h81q40 0 57.5 15.5t17.5 47.5
q0 34 -17 48.5t-58 14.5h-81v-126z" />
    <glyph glyph-name="uni045A" unicode="&#x45a;" horiz-adv-x="890" vert-adv-y="0" 
d="M50 0v530h154v-182h192v182h155v-187h119q97 0 148.5 -43t51.5 -128q0 -49 -20.5 -88t-64.5 -61.5t-115 -22.5h-274v222h-192v-222h-154zM551 116h99q33 0 49.5 15t16.5 41q0 28 -16.5 41.5t-49.5 13.5h-99v-111z" />
    <glyph glyph-name="uni045B" unicode="&#x45b;" horiz-adv-x="635" vert-adv-y="0" 
d="M100 0v420h-90v110h90v170h154v-170h216v-110h-216v-127q11 17 32 35.5t53 31.5t74 13q91 0 139 -51.5t48 -146.5v-175h-154v140q0 52 -21.5 78.5t-69.5 26.5q-35 0 -57 -13.5t-33 -37.5t-11 -55v-139h-154z" />
    <glyph glyph-name="uni045C" unicode="&#x45c;" vert-adv-y="1200" 
d="M50 0v530h154v-200h40l148 200h168l-195 -249l205 -281h-182l-144 210h-40v-210h-154zM239 580l110 160h160l-150 -160h-120z" />
    <glyph glyph-name="uni045E" unicode="&#x45e;" horiz-adv-x="600" vert-adv-y="1200" 
d="M155 -213q-15 0 -30 3v128q15 -3 30 -3q20 0 33 8.5t23.5 27.5t22.5 50l-224 529h170l132 -353l125 353h153l-202 -530q-30 -75 -57 -122.5t-67.5 -69t-108.5 -21.5zM308 584q-98 0 -139 38t-41 114h136q0 -35 11 -48t33 -13t33 13t11 48h136q0 -76 -41 -114t-139 -38z
" />
    <glyph glyph-name="uni045F" unicode="&#x45f;" horiz-adv-x="590" vert-adv-y="0" 
d="M230 -125v125h-180v530h154v-404h182v404h154v-530h-180v-125h-130z" />
    <glyph glyph-name="Geupturncy" unicode="&#x490;" horiz-adv-x="560" vert-adv-y="0" 
d="M70 0v700h314v130h156v-278h-290v-552h-180z" />
    <glyph glyph-name="geupturncy" unicode="&#x491;" horiz-adv-x="460" vert-adv-y="0" 
d="M50 0v530h260v125h130v-251h-236v-404h-154z" />
    <glyph glyph-name="Gestrokecy" unicode="&#x492;" horiz-adv-x="590" vert-adv-y="0" 
d="M100 425v275h470v-148h-290v-127h160v-148h-160v-277h-180v277h-80v148h80z" />
    <glyph glyph-name="gestrokecy" unicode="&#x493;" horiz-adv-x="495" vert-adv-y="0" 
d="M20 177v126h65v227h390v-126h-236v-101h146v-126h-146v-177h-154v177h-65z" />
    <glyph glyph-name="Gemiddlehookcy" unicode="&#x494;" horiz-adv-x="669" vert-adv-y="0" 
d="M70 0v700h470v-148h-290v-120q26 14 64 24t86 10q73 0 121.5 -24.5t74 -75t25.5 -131.5v-235q0 -37 -11 -77t-37 -74t-72 -55t-116 -21h-64v135h47q40 0 56 25.5t16 66.5v205q0 60 -25 85t-70 25q-32 0 -55 -5.5t-40 -13.5v-296h-180z" />
    <glyph glyph-name="gemiddlehookcy" unicode="&#x495;" horiz-adv-x="565" vert-adv-y="0" 
d="M50 0v530h390v-126h-236v-101q23 13 53 24t78 11q102 0 148.5 -47.5t46.5 -146.5v-144q0 -84 -16.5 -130t-57.5 -64.5t-116 -18.5q-11 0 -25 0.5t-25 2.5v128q8 -2 17.5 -2.5t17.5 -0.5q16 0 27.5 7.5t17.5 29.5t6 63v114q0 45 -19 63t-67 18q-34 0 -56 -8.5t-30 -17.5
v-184h-154z" />
    <glyph glyph-name="uni0496" unicode="&#x496;" horiz-adv-x="1041" vert-adv-y="0" 
d="M1016 -130h-156v130h-51l-168 297h-39v-297h-181v297h-40l-176 -297h-190l225 359l-215 341h190l165 -277h41v277h181v-277h39l172 277h182l-215 -327l135 -225h101v-278z" />
    <glyph glyph-name="uni0497" unicode="&#x497;" horiz-adv-x="847" vert-adv-y="0" 
d="M827 -125h-130v125h-57l-123 213h-30v-213h-154v213h-31l-128 -213h-164l175 273l-164 257h162l120 -203h30v203h154v-203h30l127 203h156l-165 -246l97 -158h95v-251z" />
    <glyph glyph-name="uni0498" unicode="&#x498;" horiz-adv-x="668" vert-adv-y="1200" 
d="M421 -5v-125h-156v126zM335 -13q-98 0 -164 29t-99.5 83.5t-36.5 130.5h186q3 -32 14.5 -55t35.5 -35.5t64 -12.5q60 0 87 22t27 62q0 26 -10 46t-37 31t-77 11h-64v122h64q56 0 77.5 24t21.5 54t-18 52t-71 22q-32 0 -53 -9.5t-32.5 -29t-13.5 -49.5h-186q4 116 73 172
t212 56t209 -50.5t66 -148.5q0 -55 -27.5 -93.5t-78.5 -55.5q64 -15 97.5 -57.5t33.5 -110.5q0 -62 -32.5 -109.5t-98.5 -74t-169 -26.5z" />
    <glyph glyph-name="uni0499" unicode="&#x499;" horiz-adv-x="556" vert-adv-y="1200" 
d="M352 -2v-123h-130v123h130zM277 -13q-87 0 -141.5 22.5t-81.5 65.5t-29 105h158q3 -20 9.5 -35t25 -23t56.5 -8q50 0 71.5 16.5t21.5 36.5q0 26 -19.5 38.5t-64.5 12.5h-69v102h61q38 0 57 12t19 37q0 20 -18.5 34t-57.5 14q-43 0 -61 -16t-21 -46h-158q4 63 32.5 104.5
t81 62.5t126.5 21q112 0 171 -41.5t59 -114.5q0 -38 -18 -68t-60 -44q58 -12 78.5 -43t20.5 -74q0 -49 -30 -88t-85.5 -61t-133.5 -22z" />
    <glyph glyph-name="uni049A" unicode="&#x49a;" horiz-adv-x="756" vert-adv-y="0" 
d="M731 -130h-157v130h-64l-210 297h-50v-297h-180v700h180v-277h50l214 277h196l-270 -327l169 -225h122v-278z" />
    <glyph glyph-name="uni049B" unicode="&#x49b;" horiz-adv-x="594" vert-adv-y="0" 
d="M574 -125h-130v125h-56l-144 210h-40v-210h-154v530h154v-200h40l148 200h168l-195 -249l113 -155h96v-251z" />
    <glyph glyph-name="uni049C" unicode="&#x49c;" horiz-adv-x="808" vert-adv-y="0" 
d="M70 0v700h180v-276h43v121h136v-121h25l113 276h179l-150 -318l197 -382h-209l-130 297h-26v-112h-135v112h-43v-297h-180z" />
    <glyph glyph-name="uni049D" unicode="&#x49d;" horiz-adv-x="696" vert-adv-y="0" 
d="M50 0v530h154v-200h48v86h130v-86h25l82 200h170l-125 -249l152 -281h-182l-97 210h-25v-87h-130v87h-48v-210h-154z" />
    <glyph glyph-name="uni04A0" unicode="&#x4a0;" horiz-adv-x="833" vert-adv-y="0" 
d="M20 570v130h328v-277h50l214 277h196l-270 -327l280 -373h-210l-210 297h-50v-297h-180v570h-148z" />
    <glyph glyph-name="uni04A1" unicode="&#x4a1;" horiz-adv-x="660" vert-adv-y="0" 
d="M20 402v128h264v-200h40l148 200h168l-195 -249l205 -281h-182l-144 210h-40v-210h-154v402h-110z" />
    <glyph glyph-name="uni04A2" unicode="&#x4a2;" horiz-adv-x="786" vert-adv-y="0" 
d="M761 -130h-156v130h-95v286h-260v-286h-180v700h180v-266h260v266h180v-552h71v-278z" />
    <glyph glyph-name="uni04A3" unicode="&#x4a3;" horiz-adv-x="640" vert-adv-y="0" 
d="M620 -125h-130v125h-84v207h-202v-207h-154v530h154v-197h202v197h154v-404h60v-251z" />
    <glyph glyph-name="EnGecy" unicode="&#x4a4;" horiz-adv-x="1000" vert-adv-y="0" 
d="M250 0h-180v700h180v-266h260v266h470v-148h-290v-552h-180v286h-260v-286z" />
    <glyph glyph-name="engecy" unicode="&#x4a5;" horiz-adv-x="816" vert-adv-y="0" 
d="M406 0v207h-202v-207h-154v530h154v-197h202v197h390v-126h-236v-404h-154z" />
    <glyph glyph-name="uni04AA" unicode="&#x4aa;" horiz-adv-x="710" vert-adv-y="0" 
d="M450 -130h-157v123q-13 2 -27 5.5t-28 7.5q-88 29 -140.5 111.5t-52.5 228.5v19q0 92 25 158t69.5 108t103.5 62t127 20q61 0 115 -14t94.5 -44t65.5 -78t30 -117h-187q-9 55 -42 79t-76 24q-40 0 -71.5 -19.5t-49.5 -62.5t-18 -116v-21q0 -58 11 -98t30.5 -64
t44.5 -34.5t53 -10.5q51 0 81.5 24.5t36.5 78.5h187q-4 -69 -28.5 -117.5t-65 -78.5t-94.5 -44q-9 -2 -18 -3.5t-19 -3.5v-123z" />
    <glyph glyph-name="uni04AB" unicode="&#x4ab;" horiz-adv-x="575" vert-adv-y="0" 
d="M364 -125h-130v118q-11 2 -21.5 4t-21.5 6q-73 27 -117 90.5t-44 166.5v20q0 84 36.5 143t98 89.5t135.5 30.5q80 0 134 -27.5t83 -73.5t33 -102h-159q-7 36 -28.5 55.5t-62.5 19.5q-32 0 -57.5 -15t-40 -44.5t-14.5 -75.5v-20q0 -49 14 -81t39 -47.5t59 -15.5
q35 0 59.5 18.5t31.5 55.5h159q-4 -71 -44 -118.5t-107 -70.5q-8 -2 -17 -4l-18 -4v-118z" />
    <glyph glyph-name="uni04AE" unicode="&#x4ae;" horiz-adv-x="700" vert-adv-y="0" 
d="M450 0h-180v262l-260 438h209l145 -260l138 260h188l-240 -438v-262z" />
    <glyph glyph-name="uni04AF" unicode="&#x4af;" horiz-adv-x="600" vert-adv-y="0" 
d="M391 -226h-155v220l-226 536h170l134 -353l122 353h154l-199 -520v-236z" />
    <glyph glyph-name="uni04B0" unicode="&#x4b0;" horiz-adv-x="700" vert-adv-y="0" 
d="M271 0v149h-120v148h117l-258 403h208l146 -248l138 248h188l-237 -403h117v-148h-120v-149h-179z" />
    <glyph glyph-name="uni04B1" unicode="&#x4b1;" horiz-adv-x="601" vert-adv-y="0" 
d="M82 0v126h108l-180 404h170l134 -333l122 333h155l-165 -404h113v-126h-149v-226h-153v226h-155z" />
    <glyph glyph-name="uni04B2" unicode="&#x4b2;" horiz-adv-x="740" vert-adv-y="0" 
d="M715 -130h-156v130h-65l-146 245l-146 -245h-197l228 365l-218 335h199l137 -212l139 212h195l-217 -333l135 -219h112v-278z" />
    <glyph glyph-name="uni04B3" unicode="&#x4b3;" horiz-adv-x="605" vert-adv-y="0" 
d="M585 -125h-131v125h-55l-111 189l-111 -189h-167l169 276l-159 254h170l104 -161l100 161h166l-158 -249l92 -155h91v-251z" />
    <glyph glyph-name="uni04B6" unicode="&#x4b6;" horiz-adv-x="720" vert-adv-y="0" 
d="M539 0h-103v279q-27 -17 -70 -31t-101 -14q-109 0 -164.5 55t-55.5 176v235h180v-205q0 -60 25 -84.5t70 -24.5q42 0 69.5 9t45.5 21v284h180v-552h80v-278h-156v130z" />
    <glyph glyph-name="uni04B7" unicode="&#x4b7;" horiz-adv-x="605" vert-adv-y="0" 
d="M454 -125v125h-93v186q-23 -13 -53 -24t-78 -11q-102 0 -148.5 47.5t-46.5 146.5v185h154v-170q0 -45 19.5 -63t66.5 -18q34 0 55.5 8.5t30.5 16.5v226h154v-404h70v-251h-131z" />
    <glyph glyph-name="uni04B8" unicode="&#x4b8;" horiz-adv-x="745" vert-adv-y="0" 
d="M675 0h-179v302q-14 -7 -29 -13.5t-34 -12.5v-118h-136v100q-48 0 -87.5 8t-70 24t-51.5 43.5t-32 65.5t-11 89v212h180v-182q0 -49 18.5 -76t53.5 -37v113h136v-109q20 6 35 13.5t28 15.5v262h179v-700z" />
    <glyph glyph-name="uni04B9" unicode="&#x4b9;" horiz-adv-x="635" vert-adv-y="0" 
d="M421 0v215q-10 -4 -21.5 -8t-24.5 -9v-112h-131v94q-72 3 -118.5 24t-68.5 64t-22 107v155h154v-140q0 -32 12.5 -50t42.5 -26v99h131v-96q17 4 29 8.5t17 8.5v196h155v-530h-155z" />
    <glyph glyph-name="uni04BA" unicode="&#x4ba;" horiz-adv-x="670" vert-adv-y="0" 
d="M70 700h180v-263q26 17 69 30t103 13q108 0 163 -54.5t55 -175.5v-250h-180v220q0 60 -26 85t-76 25q-37 0 -63.5 -10t-44.5 -20v-300h-180v700z" />
    <glyph glyph-name="uni04BB" unicode="&#x4bb;" horiz-adv-x="605" vert-adv-y="1200" 
d="M50 0v700h154v-237q12 17 33 35.5t54 31.5t77 13q95 0 143.5 -51t48.5 -145v-347h-154v310q0 52 -22.5 78.5t-73.5 26.5q-37 0 -60.5 -14t-34.5 -37.5t-11 -53.5v-310h-154z" />
    <glyph glyph-name="uni04C0" unicode="&#x4c0;" horiz-adv-x="340" vert-adv-y="1200" 
d="M80 0v700h180v-700h-180z" />
    <glyph glyph-name="uni04C3" unicode="&#x4c3;" horiz-adv-x="719" vert-adv-y="0" 
d="M70 0v700h180v-276h70l153 276h197l-182 -284q51 -10 87 -35t55.5 -66t19.5 -100v-215q0 -37 -10.5 -77t-36.5 -74t-72 -55t-116 -21h-64v135h48q40 0 55.5 25.5t15.5 66.5v184q0 38 -11 63t-32 37.5t-52 12.5h-125v-297h-180z" />
    <glyph glyph-name="uni04C4" unicode="&#x4c4;" horiz-adv-x="595" vert-adv-y="0" 
d="M290 -210v128q8 -2 17.5 -2.5t17.5 -0.5q24 0 37.5 19t13.5 81v114q0 45 -19 63t-67 18h-86v-210h-154v530h154v-200h80l108 200h168l-134 -214q52 -17 78 -60t26 -112v-144q0 -84 -16.5 -130t-58 -64.5t-115.5 -18.5q-11 0 -25 0.5t-25 2.5z" />
    <glyph glyph-name="uni04C7" unicode="&#x4c7;" horiz-adv-x="760" vert-adv-y="0" 
d="M70 0v700h180v-266h260v266h180v-700q0 -37 -10 -77t-36.5 -74t-72.5 -55t-116 -21h-64v135h47q41 0 56.5 25.5t15.5 66.5v286h-260v-286h-180z" />
    <glyph glyph-name="uni04C8" unicode="&#x4c8;" horiz-adv-x="610" vert-adv-y="0" 
d="M50 0v530h154v-197h202v197h154v-530q0 -84 -16.5 -130t-58 -64.5t-115.5 -18.5q-11 0 -25 0.5t-25 2.5v128q8 -2 17.5 -2.5t17.5 -0.5q24 0 37.5 19t13.5 81v192h-202v-207h-154z" />
    <glyph glyph-name="uni04CB" unicode="&#x4cb;" horiz-adv-x="685" vert-adv-y="0" 
d="M364 -130v278h71v131q-26 -17 -69 -31t-101 -14q-109 0 -164.5 55t-55.5 176v235h180v-205q0 -60 25 -84.5t70 -24.5q42 0 69.5 9t45.5 21v284h180v-700h-95v-130h-156z" />
    <glyph glyph-name="uni04CC" unicode="&#x4cc;" horiz-adv-x="575" vert-adv-y="0" 
d="M301 -125v236h60v95q-23 -13 -53.5 -24t-77.5 -11q-102 0 -148.5 47.5t-46.5 146.5v165h154v-150q0 -44 19.5 -62.5t66.5 -18.5q34 0 55.5 8.5t30.5 16.5v206h154v-530h-84v-125h-130z" />
    <glyph glyph-name="uni04CF" unicode="&#x4cf;" horiz-adv-x="264" vert-adv-y="0" 
d="M209 0h-154v700h154v-700z" />
    <glyph glyph-name="uni04D0" unicode="&#x4d0;" horiz-adv-x="710" vert-adv-y="1200" 
d="M9 0l256 700h180l255 -700h-190l-48 134h-234l-48 -134h-171zM279 272h132l-66 208zM355 739q-70 0 -114.5 19.5t-65 57.5t-20.5 95h146q0 -42 12.5 -56.5t41.5 -14.5t41.5 14.5t12.5 56.5h146q0 -57 -20.5 -95t-64.5 -57.5t-115 -19.5z" />
    <glyph glyph-name="uni04D1" unicode="&#x4d1;" vert-adv-y="1200" 
d="M215 -13q-57 0 -97.5 22t-61.5 60.5t-21 85.5q0 79 48.5 121t146.5 42h150v22q0 48 -22.5 66t-62.5 18q-38 0 -56 -11.5t-20 -37.5h-154q3 48 30.5 86t79 60t125.5 22q70 0 123 -21t82.5 -67.5t29.5 -124.5v-195q0 -42 2 -73.5t6 -61.5h-147q-1 17 -2.5 30t-1.5 32
q-24 -32 -66.5 -53.5t-110.5 -21.5zM265 96q33 0 59 12t41 36.5t15 55.5v22h-120q-34 0 -50.5 -18t-16.5 -41q0 -30 16.5 -48.5t55.5 -18.5zM299 584q-98 0 -139 38t-41 114h136q0 -35 11 -48t33 -13t33 13t11 48h136q0 -76 -41 -114t-139 -38z" />
    <glyph glyph-name="uni04D2" unicode="&#x4d2;" horiz-adv-x="710" vert-adv-y="1200" 
d="M9 0l256 700h180l255 -700h-190l-48 134h-234l-48 -134h-171zM279 272h132l-66 208zM230 740q-43 0 -66.5 25t-23.5 60t23.5 60t66.5 25t66.5 -25t23.5 -60t-23.5 -60t-66.5 -25zM480 740q-43 0 -66.5 25t-23.5 60t23.5 60t66.5 25t66.5 -25t23.5 -60t-24 -60t-66 -25z
" />
    <glyph glyph-name="uni04D3" unicode="&#x4d3;" vert-adv-y="1200" 
d="M215 -13q-57 0 -97.5 22t-61.5 60.5t-21 85.5q0 79 48.5 121t146.5 42h150v22q0 48 -22.5 66t-62.5 18q-38 0 -56 -11.5t-20 -37.5h-154q3 48 30.5 86t79 60t125.5 22q70 0 123 -21t82.5 -67.5t29.5 -124.5v-195q0 -42 2 -73.5t6 -61.5h-147q-1 17 -2.5 30t-1.5 32
q-24 -32 -66.5 -53.5t-110.5 -21.5zM265 96q33 0 59 12t41 36.5t15 55.5v22h-120q-34 0 -50.5 -18t-16.5 -41q0 -30 16.5 -48.5t55.5 -18.5zM192 580q-36 0 -59 22.5t-23 57.5t22.5 57.5t59.5 22.5t59.5 -22.5t22.5 -57.5t-22.5 -57.5t-59.5 -22.5zM408 580
q-37 0 -59.5 22.5t-22.5 57.5t22.5 57.5t59.5 22.5t59.5 -22.5t22.5 -57.5t-22.5 -57.5t-59.5 -22.5z" />
    <glyph glyph-name="uni04D4" unicode="&#x4d4;" horiz-adv-x="1025" vert-adv-y="1200" 
d="M10 0l410 700h560v-138h-330v-137h300v-130h-300v-157h330v-138h-510v134h-199l-79 -134h-182zM351 272h119v213z" />
    <glyph glyph-name="uni04D5" unicode="&#x4d5;" horiz-adv-x="935" vert-adv-y="1200" 
d="M215 -13q-57 0 -97.5 22t-61.5 60.5t-21 85.5q0 78 50.5 120.5t144.5 42.5h150v22q0 51 -22.5 67.5t-62.5 16.5q-38 0 -56 -11.5t-20 -37.5h-154q3 48 30.5 86t79.5 60t125 22q60 0 102 -16.5t68 -48.5q35 35 76.5 50t98.5 15q128 0 194 -67t66 -196v-58h-372
q2 -39 18.5 -64t42.5 -36.5t56 -11.5q44 0 69.5 13.5t33.5 36.5h142q-16 -87 -79 -130t-166 -43q-69 0 -120 25.5t-80 69.5q-29 -43 -89.5 -69t-145.5 -26zM266 96q32 0 58 12t41 36t15 56v22h-120q-34 0 -50.5 -18t-16.5 -41q0 -30 16.5 -48.5t56.5 -18.5zM645 420
q-28 0 -53 -9.5t-40.5 -32t-17.5 -59.5h220q0 41 -15 62.5t-39.5 30t-54.5 8.5z" />
    <glyph glyph-name="uni04D6" unicode="&#x4d6;" horiz-adv-x="625" vert-adv-y="1200" 
d="M70 0v700h510v-138h-330v-137h300v-130h-300v-157h330v-138h-510zM325 739q-70 0 -114.5 19.5t-65 57.5t-20.5 95h146q0 -42 12.5 -56.5t41.5 -14.5t41.5 14.5t12.5 56.5h146q0 -57 -20.5 -95t-64.5 -57.5t-115 -19.5z" />
    <glyph glyph-name="uni04D7" unicode="&#x4d7;" horiz-adv-x="590" vert-adv-y="1200" 
d="M305 -13q-78 0 -140 29.5t-98.5 90.5t-36.5 153v20q0 88 35 146t95.5 87.5t134.5 29.5q131 0 198 -67.5t67 -195.5v-56h-372q2 -39 18.5 -65t42.5 -37.5t56 -11.5q44 0 69.5 13.5t33.5 36.5h142q-16 -87 -79 -130t-166 -43zM300 420q-28 0 -53 -9t-40.5 -29.5
t-17.5 -55.5h220q0 37 -15 57.5t-39.5 28.5t-54.5 8zM295 584q-98 0 -139 38t-41 114h136q0 -35 11 -48t33 -13t33 13t11 48h136q0 -76 -41 -114t-139 -38z" />
    <glyph glyph-name="uni04D8" unicode="&#x4d8;" horiz-adv-x="735" vert-adv-y="0" 
d="M352 -13q-70 0 -127.5 20.5t-99 63.5t-63.5 111t-22 164v58h462q-5 59 -25 94t-51 50t-69 15q-44 0 -74.5 -21.5t-41.5 -71.5h-186q11 86 53 139.5t106 78.5t142 25q69 0 130 -20.5t107 -62.5t71.5 -108t25.5 -157v-20q0 -127 -45.5 -206t-122 -115.5t-170.5 -36.5z
M355 137q45 0 75.5 16t48 51.5t23.5 92.5h-294q6 -59 25 -95.5t50.5 -50.5t71.5 -14z" />
    <glyph glyph-name="uni04D9" unicode="&#x4d9;" horiz-adv-x="590" vert-adv-y="0" 
d="M285 543q78 0 140.5 -29.5t98.5 -90t36 -153.5v-20q0 -87 -35 -145.5t-95 -88t-135 -29.5q-132 0 -198.5 67t-66.5 196v55h372q-1 41 -18 66.5t-43 37t-56 11.5q-45 0 -70 -13.5t-33 -36.5h-142q16 88 78.5 130.5t166.5 42.5zM401 204h-220q0 -36 15 -57t39.5 -29.5
t54.5 -8.5q29 0 53.5 9.5t40 30.5t17.5 55z" />
    <glyph glyph-name="uni04DA" unicode="&#x4da;" horiz-adv-x="735" vert-adv-y="1200" 
d="M352 -13q-70 0 -127.5 20.5t-99 63.5t-63.5 111t-22 164v58h462q-5 59 -25 94t-51 50t-69 15q-44 0 -74.5 -21.5t-41.5 -71.5h-186q11 86 53 139.5t106 78.5t142 25q69 0 130 -20.5t107 -62.5t71.5 -108t25.5 -157v-20q0 -127 -45.5 -206t-122 -115.5t-170.5 -36.5z
M355 137q45 0 75.5 16t48 51.5t23.5 92.5h-294q6 -59 25 -95.5t50.5 -50.5t71.5 -14zM243 740q-43 0 -66.5 25t-23.5 60t23.5 60t66.5 25t66.5 -25t23.5 -60t-23.5 -60t-66.5 -25zM493 740q-43 0 -66.5 25t-23.5 60t23.5 60t66.5 25t66.5 -25t23.5 -60t-24 -60t-66 -25z" />
    <glyph glyph-name="uni04DB" unicode="&#x4db;" horiz-adv-x="590" vert-adv-y="1200" 
d="M285 543q78 0 140.5 -29.5t98.5 -90t36 -153.5v-20q0 -87 -35 -145.5t-95 -88t-135 -29.5q-132 0 -198.5 67t-66.5 196v55h372q-1 41 -18 66.5t-43 37t-56 11.5q-45 0 -70 -13.5t-33 -36.5h-142q16 88 78.5 130.5t166.5 42.5zM401 204h-220q0 -36 15 -57t39.5 -29.5
t54.5 -8.5q29 0 53.5 9.5t40 30.5t17.5 55zM187 580q-36 0 -59 22.5t-23 57.5t22.5 57.5t59.5 22.5t59.5 -22.5t22.5 -57.5t-22.5 -57.5t-59.5 -22.5zM403 580q-37 0 -59.5 22.5t-22.5 57.5t22.5 57.5t59.5 22.5t59.5 -22.5t22.5 -57.5t-22.5 -57.5t-59.5 -22.5z" />
    <glyph glyph-name="uni04DC" unicode="&#x4dc;" horiz-adv-x="1020" vert-adv-y="1200" 
d="M15 0l224 359l-214 341h190l165 -277h41v277h180v-277h41l170 277h183l-215 -326l225 -374h-196l-167 297h-41v-297h-180v297h-40l-176 -297h-190zM385 740q-43 0 -66.5 25t-23.5 60t23.5 60t66.5 25t66.5 -25t23.5 -60t-23.5 -60t-66.5 -25zM635 740q-43 0 -66.5 25
t-23.5 60t23.5 60t66.5 25t66.5 -25t23.5 -60t-24 -60t-66 -25z" />
    <glyph glyph-name="uni04DD" unicode="&#x4dd;" horiz-adv-x="820" vert-adv-y="1200" 
d="M10 0l175 273l-165 257h163l121 -203h29v203h154v-203h30l127 203h156l-165 -246l175 -284h-170l-123 213h-30v-213h-154v213h-31l-127 -213h-165zM301 580q-36 0 -59 22.5t-23 57.5t22.5 57.5t59.5 22.5t59.5 -22.5t22.5 -57.5t-22.5 -57.5t-59.5 -22.5zM517 580
q-37 0 -59.5 22.5t-22.5 57.5t22.5 57.5t59.5 22.5t59.5 -22.5t22.5 -57.5t-22.5 -57.5t-59.5 -22.5z" />
    <glyph glyph-name="uni04DE" unicode="&#x4de;" horiz-adv-x="668" vert-adv-y="1200" 
d="M335 -13q-98 0 -164 29t-99.5 83.5t-36.5 130.5h186q3 -32 14.5 -55t35.5 -35.5t64 -12.5q60 0 87 22t27 62q0 26 -10 46t-37 31t-77 11h-64v122h64q56 0 77.5 24t21.5 54t-18 52t-71 22q-32 0 -53 -9.5t-32.5 -29t-13.5 -49.5h-186q4 116 73 172t212 56t209 -50.5
t66 -148.5q0 -55 -27.5 -93.5t-78.5 -55.5q64 -15 97.5 -57.5t33.5 -110.5q0 -62 -32.5 -109.5t-98.5 -74t-169 -26.5zM209 740q-43 0 -66.5 25t-23.5 60t23.5 60t66.5 25t66.5 -25t23.5 -60t-23.5 -60t-66.5 -25zM459 740q-43 0 -66.5 25t-23.5 60t23.5 60t66.5 25
t66.5 -25t23.5 -60t-24 -60t-66 -25z" />
    <glyph glyph-name="uni04DF" unicode="&#x4df;" horiz-adv-x="556" vert-adv-y="1200" 
d="M277 -13q-87 0 -141.5 22.5t-81.5 65.5t-29 105h158q3 -20 9.5 -35t25 -23t56.5 -8q50 0 71.5 16.5t21.5 36.5q0 26 -19.5 38.5t-64.5 12.5h-69v102h61q38 0 57 12t19 37q0 20 -18.5 34t-57.5 14q-43 0 -61 -16t-21 -46h-158q4 63 32.5 104.5t81 62.5t126.5 21
q112 0 171 -41.5t59 -114.5q0 -38 -18 -68t-60 -44q58 -12 78.5 -43t20.5 -74q0 -49 -30 -88t-85.5 -61t-133.5 -22zM170 580q-36 0 -59 22.5t-23 57.5t22.5 57.5t59.5 22.5t59.5 -22.5t22.5 -57.5t-22.5 -57.5t-59.5 -22.5zM386 580q-37 0 -59.5 22.5t-22.5 57.5t22.5 57.5
t59.5 22.5t59.5 -22.5t22.5 -57.5t-22.5 -57.5t-59.5 -22.5z" />
    <glyph glyph-name="uni04E2" unicode="&#x4e2;" horiz-adv-x="760" vert-adv-y="1200" 
d="M70 0v700h180v-420l275 420h165v-700h-180v420l-275 -420h-165zM215 766v118h330v-118h-330z" />
    <glyph glyph-name="uni04E3" unicode="&#x4e3;" horiz-adv-x="610" vert-adv-y="1200" 
d="M50 0v530h150v-320l225 320h135v-530h-150v320l-225 -320h-135zM145 607v106h320v-106h-320z" />
    <glyph glyph-name="uni04E4" unicode="&#x4e4;" horiz-adv-x="760" vert-adv-y="1200" 
d="M70 0v700h180v-420l275 420h165v-700h-180v420l-275 -420h-165zM255 740q-43 0 -66.5 25t-23.5 60t23.5 60t66.5 25t66.5 -25t23.5 -60t-23.5 -60t-66.5 -25zM505 740q-43 0 -66.5 25t-23.5 60t23.5 60t66.5 25t66.5 -25t23.5 -60t-24 -60t-66 -25z" />
    <glyph glyph-name="uni04E5" unicode="&#x4e5;" horiz-adv-x="610" vert-adv-y="1200" 
d="M50 0v530h150v-320l225 320h135v-530h-150v320l-225 -320h-135zM197 580q-36 0 -59 22.5t-23 57.5t22.5 57.5t59.5 22.5t59.5 -22.5t22.5 -57.5t-22.5 -57.5t-59.5 -22.5zM413 580q-37 0 -59.5 22.5t-22.5 57.5t22.5 57.5t59.5 22.5t59.5 -22.5t22.5 -57.5t-22.5 -57.5
t-59.5 -22.5z" />
    <glyph glyph-name="uni04E6" unicode="&#x4e6;" horiz-adv-x="770" vert-adv-y="1200" 
d="M385 -13q-68 0 -130 20t-109 63t-74 111.5t-27 163.5v20q0 92 27 158t74 108t109 62t130 20q70 0 131 -20t108 -62t74 -108t27 -158v-20q0 -95 -27 -163.5t-74 -111.5t-108 -63t-131 -20zM384 137q41 0 76 18.5t56.5 63t21.5 126.5v20q0 78 -21.5 121t-56.5 60t-76 17
q-39 0 -74 -17t-57 -60t-22 -121v-20q0 -82 22 -126.5t57 -63t74 -18.5zM260 740q-43 0 -66.5 25t-23.5 60t23.5 60t66.5 25t66.5 -25t23.5 -60t-23.5 -60t-66.5 -25zM510 740q-43 0 -66.5 25t-23.5 60t23.5 60t66.5 25t66.5 -25t23.5 -60t-24 -60t-66 -25z" />
    <glyph glyph-name="uni04E7" unicode="&#x4e7;" horiz-adv-x="600" vert-adv-y="1200" 
d="M300 -13q-74 0 -135.5 29t-98 90.5t-36.5 153.5v20q0 86 36.5 144.5t98 88.5t135.5 30q75 0 136 -30t97.5 -88.5t36.5 -144.5v-20q0 -91 -36.5 -151.5t-97.5 -91t-136 -30.5zM300 115q36 0 61 17.5t38 50.5t13 77v20q0 40 -13 70t-38 47.5t-61 17.5t-61 -17.5t-38 -47.5
t-13 -70v-20q0 -46 13 -78.5t38 -49.5t61 -17zM192 580q-36 0 -59 22.5t-23 57.5t22.5 57.5t59.5 22.5t59.5 -22.5t22.5 -57.5t-22.5 -57.5t-59.5 -22.5zM408 580q-37 0 -59.5 22.5t-22.5 57.5t22.5 57.5t59.5 22.5t59.5 -22.5t22.5 -57.5t-22.5 -57.5t-59.5 -22.5z" />
    <glyph glyph-name="uni04E8" unicode="&#x4e8;" horiz-adv-x="790" vert-adv-y="0" 
d="M395 -13q-71 0 -134 20t-111.5 63t-76.5 111t-28 164v20q0 93 28 158.5t76.5 107.5t111.5 62t134 20t134 -20t112 -62t76.5 -107.5t27.5 -158.5v-20q0 -96 -27.5 -164t-76.5 -111t-112 -63t-134 -20zM395 137q36 0 69.5 13t58 45.5t32.5 90.5h-320q8 -58 32 -90.5
t57.5 -45.5t70.5 -13zM395 563q-36 0 -68.5 -12t-57 -42.5t-34.5 -84.5h319q-9 54 -33.5 84.5t-56.5 42.5t-69 12z" />
    <glyph glyph-name="uni04E9" unicode="&#x4e9;" horiz-adv-x="620" vert-adv-y="0" 
d="M310 -13q-78 0 -141.5 29.5t-101 90.5t-37.5 153v20q0 86 37.5 144.5t101 88.5t141.5 30t141.5 -30t101 -88.5t37.5 -144.5v-20q0 -91 -37.5 -151.5t-101 -91t-141.5 -30.5zM310 115q34 0 58 12.5t39.5 36t20.5 56.5h-237q6 -34 21 -57t40 -35.5t58 -12.5zM310 415
q-32 0 -56 -11.5t-39.5 -33t-22.5 -49.5h235q-6 28 -21.5 49.5t-39.5 33t-56 11.5z" />
    <glyph glyph-name="uni04EA" unicode="&#x4ea;" horiz-adv-x="790" vert-adv-y="1200" 
d="M395 -13q-71 0 -134 20t-111.5 63t-76.5 111t-28 164v20q0 93 28 158.5t76.5 107.5t111.5 62t134 20t134 -20t112 -62t76.5 -107.5t27.5 -158.5v-20q0 -96 -27.5 -164t-76.5 -111t-112 -63t-134 -20zM395 137q36 0 69.5 13t58 45.5t32.5 90.5h-320q8 -58 32 -90.5
t57.5 -45.5t70.5 -13zM395 563q-36 0 -68.5 -12t-57 -42.5t-34.5 -84.5h319q-9 54 -33.5 84.5t-56.5 42.5t-69 12zM270 740q-43 0 -66.5 25t-23.5 60t23.5 60t66.5 25t66.5 -25t23.5 -60t-23.5 -60t-66.5 -25zM520 740q-43 0 -66.5 25t-23.5 60t23.5 60t66.5 25t66.5 -25
t23.5 -60t-24 -60t-66 -25z" />
    <glyph glyph-name="uni04EB" unicode="&#x4eb;" horiz-adv-x="620" vert-adv-y="1200" 
d="M310 -13q-78 0 -141.5 29.5t-101 90.5t-37.5 153v20q0 86 37.5 144.5t101 88.5t141.5 30t141.5 -30t101 -88.5t37.5 -144.5v-20q0 -91 -37.5 -151.5t-101 -91t-141.5 -30.5zM310 115q34 0 58 12.5t39.5 36t20.5 56.5h-237q6 -34 21 -57t40 -35.5t58 -12.5zM310 415
q-32 0 -56 -11.5t-39.5 -33t-22.5 -49.5h235q-6 28 -21.5 49.5t-39.5 33t-56 11.5zM202 580q-36 0 -59 22.5t-23 57.5t22.5 57.5t59.5 22.5t59.5 -22.5t22.5 -57.5t-22.5 -57.5t-59.5 -22.5zM418 580q-37 0 -59.5 22.5t-22.5 57.5t22.5 57.5t59.5 22.5t59.5 -22.5
t22.5 -57.5t-22.5 -57.5t-59.5 -22.5z" />
    <glyph glyph-name="uni04EE" unicode="&#x4ee;" horiz-adv-x="710" vert-adv-y="1200" 
d="M210 -13q-11 0 -21.5 0.5t-18.5 3.5v149l16 -2t19 -1q29 0 45 4.5t25 16t15 31.5l-281 511h183l186 -355l146 355h176l-234 -529q-23 -52 -45.5 -87t-51 -56.5t-67 -31t-92.5 -9.5zM190 766v118h330v-118h-330z" />
    <glyph glyph-name="uni04EF" unicode="&#x4ef;" horiz-adv-x="600" vert-adv-y="1200" 
d="M155 -213q-15 0 -30 3v128q15 -3 30 -3q20 0 33 8.5t23.5 27.5t22.5 50l-224 529h170l132 -353l125 353h153l-202 -530q-30 -75 -57 -122.5t-67.5 -69t-108.5 -21.5zM140 607v106h320v-106h-320z" />
    <glyph glyph-name="uni04F0" unicode="&#x4f0;" horiz-adv-x="710" vert-adv-y="1200" 
d="M210 -13q-11 0 -21.5 0.5t-18.5 3.5v149l16 -2t19 -1q29 0 45 4.5t25 16t15 31.5l-281 511h183l186 -355l146 355h176l-234 -529q-23 -52 -45.5 -87t-51 -56.5t-67 -31t-92.5 -9.5zM230 740q-43 0 -66.5 25t-23.5 60t23.5 60t66.5 25t66.5 -25t23.5 -60t-23.5 -60
t-66.5 -25zM480 740q-43 0 -66.5 25t-23.5 60t23.5 60t66.5 25t66.5 -25t23.5 -60t-24 -60t-66 -25z" />
    <glyph glyph-name="uni04F1" unicode="&#x4f1;" horiz-adv-x="600" vert-adv-y="1200" 
d="M155 -213q-15 0 -30 3v128q15 -3 30 -3q20 0 33 8.5t23.5 27.5t22.5 50l-224 529h170l132 -353l125 353h153l-202 -530q-30 -75 -57 -122.5t-67.5 -69t-108.5 -21.5zM192 580q-36 0 -59 22.5t-23 57.5t22.5 57.5t59.5 22.5t59.5 -22.5t22.5 -57.5t-22.5 -57.5
t-59.5 -22.5zM408 580q-37 0 -59.5 22.5t-22.5 57.5t22.5 57.5t59.5 22.5t59.5 -22.5t22.5 -57.5t-22.5 -57.5t-59.5 -22.5z" />
    <glyph glyph-name="uni04F2" unicode="&#x4f2;" horiz-adv-x="710" vert-adv-y="1200" 
d="M210 -13q-11 0 -21.5 0.5t-18.5 3.5v149l16 -2t19 -1q29 0 45 4.5t25 16t15 31.5l-281 511h183l186 -355l146 355h176l-234 -529q-23 -52 -45.5 -87t-51 -56.5t-67 -31t-92.5 -9.5zM221 750l106 150h136l-131 -150h-111zM397 750l131 150h141l-161 -150h-111z" />
    <glyph glyph-name="uni04F3" unicode="&#x4f3;" horiz-adv-x="600" vert-adv-y="1200" 
d="M155 -213q-15 0 -30 3v128q15 -3 30 -3q20 0 33 8.5t23.5 27.5t22.5 50l-224 529h170l132 -353l125 353h153l-202 -530q-30 -75 -57 -122.5t-67.5 -69t-108.5 -21.5zM240 580h-111l70 160h151zM470 580h-120l120 160h160z" />
    <glyph glyph-name="uni04F4" unicode="&#x4f4;" horiz-adv-x="685" vert-adv-y="1200" 
d="M434 0v279q-26 -17 -68.5 -30.5t-100.5 -13.5q-109 0 -164.5 54.5t-55.5 175.5v235h180v-205q0 -59 25 -84.5t70 -25.5q41 0 69 9.5t45 20.5v285h181v-700h-181zM218 740q-43 0 -66.5 25t-23.5 60t23.5 60t66.5 25t66.5 -25t23.5 -60t-23.5 -60t-66.5 -25zM468 740
q-43 0 -66.5 25t-23.5 60t23.5 60t66.5 25t66.5 -25t23.5 -60t-24 -60t-66 -25z" />
    <glyph glyph-name="uni04F5" unicode="&#x4f5;" horiz-adv-x="576" vert-adv-y="1200" 
d="M361 0v186q-23 -13 -53 -24t-79 -11q-100 0 -147.5 48t-47.5 146v185h156v-170q0 -44 18.5 -62.5t67.5 -18.5q33 0 55 8.5t30 16.5v226h154v-530h-154zM180 580q-36 0 -59 22.5t-23 57.5t22.5 57.5t59.5 22.5t59.5 -22.5t22.5 -57.5t-22.5 -57.5t-59.5 -22.5zM396 580
q-37 0 -59.5 22.5t-22.5 57.5t22.5 57.5t59.5 22.5t59.5 -22.5t22.5 -57.5t-22.5 -57.5t-59.5 -22.5z" />
    <glyph glyph-name="uni04F8" unicode="&#x4f8;" horiz-adv-x="920" vert-adv-y="1200" 
d="M70 0v700h180v-232h85q146 0 215.5 -63t69.5 -171t-69.5 -171t-215.5 -63h-265zM250 148h65q63 0 91 24t28 62t-28 62t-91 24h-65v-172zM670 0v700h180v-700h-180zM335 740q-43 0 -66.5 25t-23.5 60t23.5 60t66.5 25t66.5 -25t23.5 -60t-23.5 -60t-66.5 -25zM585 740
q-43 0 -66.5 25t-23.5 60t23.5 60t66.5 25t66.5 -25t23.5 -60t-24 -60t-66 -25z" />
    <glyph glyph-name="uni04F9" unicode="&#x4f9;" horiz-adv-x="760" vert-adv-y="1200" 
d="M50 0v530h154v-172h86q104 0 157 -44t53 -135q0 -52 -21 -93t-67 -63.5t-122 -22.5h-240zM204 116h66q40 0 58 15.5t18 46.5q0 34 -17.5 49t-58.5 15h-66v-126zM546 0v530h154v-530h-154zM269 579q-37 0 -59.5 22.5t-22.5 57.5q0 36 22.5 58t58.5 22q38 0 60.5 -22
t22.5 -58q0 -35 -22.5 -57.5t-59.5 -22.5zM485 579q-37 0 -59.5 22.5t-22.5 57.5q0 36 22.5 58t59.5 22t59.5 -22t22.5 -58q0 -35 -22.5 -57.5t-59.5 -22.5z" />
    <glyph glyph-name="uni0512" unicode="&#x512;" horiz-adv-x="730" vert-adv-y="0" 
d="M361 -227v135h47q41 0 56.5 25.5t15.5 66.5v553h-182v-93q0 -124 -10 -209t-29.5 -137t-47.5 -79.5t-63.5 -37.5t-77.5 -10q-8 0 -22.5 0.5t-22.5 2.5v158q2 -1 15 -1q20 0 34.5 5.5t24.5 24t17.5 54.5t10.5 97t3 152v220h530v-700q0 -37 -10.5 -77t-36.5 -74t-71.5 -55
t-116.5 -21h-64z" />
    <glyph glyph-name="uni0513" unicode="&#x513;" horiz-adv-x="595" vert-adv-y="0" 
d="M305 -210v128q8 -2 17.5 -2.5t17.5 -0.5q24 0 37.5 19t13.5 81v389h-142v-94q0 -99 -12 -163t-35 -98.5t-57.5 -48t-79.5 -13.5q-8 0 -22.5 0.5t-22.5 2.5v134q2 -1 15 -1q23 0 38.5 19.5t23.5 64t8 123.5v200h440v-530q0 -84 -16.5 -130t-58 -64.5t-116.5 -18.5
q-10 0 -24 0.5t-25 2.5z" />
    <glyph glyph-name="Wgrave" unicode="&#x1e80;" horiz-adv-x="1000" vert-adv-y="1200" 
d="M200 0l-181 700h191l95 -434l110 434h170l123 -436l102 436h170l-180 -700h-180l-125 452l-115 -452h-180zM435 750l-150 150h170l110 -150h-130z" />
    <glyph glyph-name="wgrave" unicode="&#x1e81;" horiz-adv-x="830" vert-adv-y="1200" 
d="M158 0l-148 530h166l74 -326l93 326h144l100 -323l83 323h150l-148 -530h-154l-104 344l-102 -344h-154zM356 580l-150 160h160l110 -160h-120z" />
    <glyph glyph-name="Wacute" unicode="&#x1e82;" horiz-adv-x="1000" vert-adv-y="1200" 
d="M200 0l-181 700h191l95 -434l110 434h170l123 -436l102 436h170l-180 -700h-180l-125 452l-115 -452h-180zM433 750l110 150h170l-150 -150h-130z" />
    <glyph glyph-name="wacute" unicode="&#x1e83;" horiz-adv-x="830" vert-adv-y="1200" 
d="M158 0l-148 530h166l74 -326l93 326h144l100 -323l83 323h150l-148 -530h-154l-104 344l-102 -344h-154zM355 580l110 160h160l-150 -160h-120z" />
    <glyph glyph-name="Wdieresis" unicode="&#x1e84;" horiz-adv-x="1000" vert-adv-y="1200" 
d="M200 0l-181 700h191l95 -434l110 434h170l123 -436l102 436h170l-180 -700h-180l-125 452l-115 -452h-180zM375 740q-43 0 -66.5 25t-23.5 60t23.5 60t66.5 25t66.5 -25t23.5 -60t-23.5 -60t-66.5 -25zM625 740q-43 0 -66.5 25t-23.5 60t23.5 60t66.5 25t66.5 -25
t23.5 -60t-24 -60t-66 -25z" />
    <glyph glyph-name="wdieresis" unicode="&#x1e85;" horiz-adv-x="830" vert-adv-y="1200" 
d="M158 0l-148 530h166l74 -326l93 326h144l100 -323l83 323h150l-148 -530h-154l-104 344l-102 -344h-154zM307 580q-36 0 -59 22.5t-23 57.5t22.5 57.5t59.5 22.5t59.5 -22.5t22.5 -57.5t-22.5 -57.5t-59.5 -22.5zM523 580q-37 0 -59.5 22.5t-22.5 57.5t22.5 57.5
t59.5 22.5t59.5 -22.5t22.5 -57.5t-22.5 -57.5t-59.5 -22.5z" />
    <glyph glyph-name="uni1E9E" unicode="&#x1e9e;" horiz-adv-x="706" vert-adv-y="0" 
d="M355 713q60 0 109.5 -14t88 -41.5t63 -66t36.5 -88.5l-107 -115q36 -7 64.5 -27.5t44.5 -56t16 -88.5q0 -54 -16 -94.5t-46 -67.5t-71.5 -40.5t-92.5 -13.5h-81v140h52q38 0 56.5 23t18.5 58q0 43 -24.5 58.5t-65.5 15.5h-42v82l116 126q-11 29 -34.5 44.5t-65.5 15.5
q-70 0 -102 -41t-32 -122v-400h-181v420q0 97 37 163t103.5 98t155.5 32z" />
    <glyph glyph-name="Ygrave" unicode="&#x1ef2;" horiz-adv-x="700" vert-adv-y="1200" 
d="M269 0v262l-259 438h208l146 -260l138 260h188l-240 -438v-262h-181zM285 750l-150 150h170l110 -150h-130z" />
    <glyph glyph-name="ygrave" unicode="&#x1ef3;" horiz-adv-x="600" vert-adv-y="1200" 
d="M155 -213q-15 0 -30 3v128q15 -3 30 -3q20 0 33 8.5t23.5 27.5t22.5 50l-224 529h170l132 -353l125 353h153l-202 -530q-30 -75 -57 -122.5t-67.5 -69t-108.5 -21.5zM241 580l-150 160h160l110 -160h-120z" />
    <glyph glyph-name="uni2009" unicode="&#x2009;" horiz-adv-x="154" vert-adv-y="0" 
 />
    <glyph glyph-name="uni2010" unicode="&#x2010;" horiz-adv-x="380" vert-adv-y="0" 
d="M25 206v148h330v-148h-330z" />
    <glyph glyph-name="uni2011" unicode="&#x2011;" horiz-adv-x="380" vert-adv-y="0" 
d="M25 206v148h330v-148h-330z" />
    <glyph glyph-name="figuredash" unicode="&#x2012;" horiz-adv-x="607" vert-adv-y="0" 
d="M52 286v148h503v-148h-503z" />
    <glyph glyph-name="endash" unicode="&#x2013;" horiz-adv-x="530" vert-adv-y="0" 
d="M25 206v148h480v-148h-480z" />
    <glyph glyph-name="emdash" unicode="&#x2014;" horiz-adv-x="730" vert-adv-y="0" 
d="M25 206v148h680v-148h-680z" />
    <glyph glyph-name="quoteleft" unicode="&#x2018;" horiz-adv-x="310" vert-adv-y="0" 
d="M270 700l-40 -155v-140h-150v140l109 155h81z" />
    <glyph glyph-name="quoteright" unicode="&#x2019;" horiz-adv-x="310" vert-adv-y="0" 
d="M40 405l40 155v140h150v-140l-110 -155h-80z" />
    <glyph glyph-name="quotesinglbase" unicode="&#x201a;" horiz-adv-x="310" vert-adv-y="0" 
d="M40 -155l40 155v140h150v-140l-110 -155h-80z" />
    <glyph glyph-name="quotedblleft" unicode="&#x201c;" horiz-adv-x="540" vert-adv-y="0" 
d="M270 700l-40 -155v-140h-150v140l109 155h81zM500 700l-40 -155v-140h-150v140l110 155h80z" />
    <glyph glyph-name="quotedblright" unicode="&#x201d;" horiz-adv-x="540" vert-adv-y="0" 
d="M40 405l40 155v140h150v-140l-110 -155h-80zM270 405l40 155v140h150v-140l-110 -155h-80z" />
    <glyph glyph-name="quotedblbase" unicode="&#x201e;" horiz-adv-x="540" vert-adv-y="0" 
d="M40 -155l40 155v140h150v-140l-110 -155h-80zM270 -155l40 155v140h150v-140l-110 -155h-80z" />
    <glyph glyph-name="dagger" unicode="&#x2020;" horiz-adv-x="550" vert-adv-y="0" 
d="M208 -200v624h-178v106h178v170h134v-170h178v-106h-178v-624h-134z" />
    <glyph glyph-name="daggerdbl" unicode="&#x2021;" horiz-adv-x="550" vert-adv-y="0" 
d="M208 -200v200h-178v106h178v318h-178v106h178v170h134v-170h178v-106h-178v-318h178v-106h-178v-200h-134z" />
    <glyph glyph-name="bullet" unicode="&#x2022;" horiz-adv-x="400" vert-adv-y="0" 
d="M200 125q-42 0 -76 20t-54 54t-20 76t19.5 76t54 54t76.5 20t76 -20t54 -54t20 -77q0 -41 -20 -75t-54 -54t-76 -20z" />
    <glyph glyph-name="ellipsis" unicode="&#x2026;" horiz-adv-x="1000" vert-adv-y="0" 
d="M160 -13q-26 0 -48 12.5t-34.5 34t-12.5 49.5q0 39 27.5 66.5t67.5 27.5t68 -27.5t28 -66.5q0 -28 -13 -49.5t-34.5 -34t-48.5 -12.5zM500 -13q-26 0 -48 12.5t-34.5 34t-12.5 49.5q0 39 27.5 66.5t67.5 27.5t68 -27.5t28 -66.5q0 -28 -13 -49.5t-34.5 -34t-48.5 -12.5z
M840 -13q-26 0 -48 12.5t-34.5 34t-12.5 49.5q0 39 27.5 66.5t67.5 27.5t68 -27.5t28 -66.5q0 -28 -13 -49.5t-34.5 -34t-48.5 -12.5z" />
    <glyph glyph-name="uni202F" unicode="&#x202f;" horiz-adv-x="154" vert-adv-y="0" 
 />
    <glyph glyph-name="perthousand" unicode="&#x2030;" horiz-adv-x="1234" vert-adv-y="1200" 
d="M190 357q-81 0 -128 46t-47 122v10q0 51 21 88.5t60.5 58.5t93.5 21t93.5 -21t60.5 -58t21 -89v-10q0 -76 -47 -122t-128 -46zM190 475q14 0 23 11t9 39v10q0 28 -8.5 39t-23.5 11q-14 0 -23 -11t-9 -39v-10q0 -28 8.5 -39t23.5 -11zM100 -10l480 700h160l-480 -700h-160
zM650 -23q-81 0 -128 46t-47 122v10q0 51 21 88.5t60.5 58.5t93.5 21t93.5 -21t60.5 -58t21 -89v-10q0 -76 -47 -122t-128 -46zM650 95q14 0 23 11t9 39v10q0 28 -8.5 39t-23.5 11q-14 0 -23 -11t-9 -39v-10q0 -28 8.5 -39t23.5 -11zM1044 -23q-81 0 -128 46t-47 122v10
q0 51 21 88.5t60.5 58.5t93.5 21t93.5 -21t60.5 -58t21 -89v-10q0 -76 -47 -122t-128 -46zM1044 95q14 0 23 11t9 39v10q0 28 -8.5 39t-23.5 11q-14 0 -23 -11t-9 -39v-10q0 -28 8.5 -39t23.5 -11z" />
    <glyph glyph-name="guilsinglleft" unicode="&#x2039;" horiz-adv-x="290" vert-adv-y="0" 
d="M245 25l-220 187v126l220 187v-162l-105 -86l105 -86v-166z" />
    <glyph glyph-name="guilsinglright" unicode="&#x203a;" horiz-adv-x="290" vert-adv-y="0" 
d="M45 525l220 -187v-126l-220 -187v162l105 86l-105 86v166z" />
    <glyph glyph-name="fraction" unicode="&#x2044;" horiz-adv-x="180" vert-adv-y="0" 
d="M-230 0l480 700h160l-480 -700h-160z" />
    <glyph glyph-name="uni2074" unicode="&#x2074;" horiz-adv-x="415" vert-adv-y="0" 
d="M207 380v62h-198v92l185 246h156v-222h40v-116h-40v-62h-143zM149 558h58v90z" />
    <glyph glyph-name="uni2081" unicode="&#x2081;" horiz-adv-x="290" vert-adv-y="1200" 
d="M112 0v247l-102 -72v147l110 78h140v-400h-148z" />
    <glyph glyph-name="uni2082" unicode="&#x2082;" horiz-adv-x="390" vert-adv-y="1200" 
d="M15 0v91l157 120q35 26 44.5 37t9.5 22q0 12 -7 18.5t-24 6.5q-14 0 -23 -10t-9 -30h-143q0 77 42 117.5t133 40.5q90 0 132.5 -36.5t42.5 -91.5q0 -24 -6.5 -44.5t-28.5 -44t-64 -53.5l-38 -27h142v-116h-360z" />
    <glyph glyph-name="uni2083" unicode="&#x2083;" horiz-adv-x="400" vert-adv-y="1200" 
d="M200 -13q-98 0 -141.5 40t-43.5 113h143q0 -17 10 -26t32 -9q23 0 32 8t9 22q0 13 -9.5 21t-32.5 8h-34v82h33q18 0 25.5 6.5t7.5 19.5q0 11 -8 17t-23 6q-14 0 -23 -6.5t-9 -23.5h-143q0 72 41 110t134 38q88 0 131.5 -33.5t43.5 -83.5q0 -39 -17.5 -57.5t-47.5 -28.5
q30 -10 52.5 -33t22.5 -65q0 -53 -44 -89t-141 -36z" />
    <glyph glyph-name="uni2084" unicode="&#x2084;" horiz-adv-x="415" vert-adv-y="1200" 
d="M207 0v62h-198v92l185 246h156v-222h40v-116h-40v-62h-143zM149 178h58v90z" />
    <glyph glyph-name="Euro" unicode="&#x20ac;" horiz-adv-x="705" vert-adv-y="0" 
d="M386 -13q-74 0 -133.5 22.5t-100.5 72.5t-59 131h-74v118h61q-1 5 -1 8v7v19v6.5t1 7.5h-61v118h76q20 75 62.5 123.5t101 70.5t127.5 22q57 0 106.5 -14t88 -44t61.5 -78.5t28 -116.5h-186q-6 38 -21 60.5t-35 32.5t-42 10q-33 0 -58 -15.5t-41 -50.5h122v-118h-143
q1 -5 1 -7.5v-6.5v-21v-6.5t-1 -6.5h143v-118h-123q11 -28 26.5 -44.5t34 -24t39.5 -7.5q28 0 48.5 11t33 33.5t16.5 58.5h186q-4 -70 -27 -118.5t-61 -78t-88 -43t-108 -13.5z" />
    <glyph glyph-name="uni20B4" unicode="&#x20b4;" horiz-adv-x="610" vert-adv-y="0" 
d="M30 382v118h299q7 8 11.5 16t4.5 19q0 17 -9.5 27.5t-30.5 10.5q-18 0 -27 -9.5t-13 -23.5h-180q2 56 25.5 94.5t71.5 58.5t123 20q76 0 124.5 -20t72 -52.5t23.5 -69.5q0 -23 -2 -38t-10 -33h67v-118h-550zM305 -13q-81 0 -132 19.5t-74.5 53t-23.5 74.5q0 27 4 46
t13 36h-62v118h550v-118h-305q-11 -13 -15.5 -23.5t-4.5 -22.5q0 -24 13 -33.5t37 -9.5q23 0 34.5 8.5t15.5 24.5h180q-2 -52 -24.5 -91.5t-72 -60.5t-133.5 -21z" />
    <glyph glyph-name="uni20B8" unicode="&#x20b8;" horiz-adv-x="650" vert-adv-y="0" 
d="M20 552v148h610v-148h-610zM415 0h-181v356h-214v148h610v-148h-215v-356z" />
    <glyph glyph-name="uni20BD" unicode="&#x20bd;" horiz-adv-x="675" vert-adv-y="0" 
d="M109 0v76h-90v118h90v48h-90v138h90v320h266q88 0 146.5 -28.5t88.5 -80.5t30 -125q0 -67 -30 -117.5t-88.5 -78.5t-146.5 -28h-84v-48h209v-118h-209v-76h-182zM291 380h65q53 0 78.5 22t25.5 64t-26 64t-78 22h-65v-172z" />
    <glyph glyph-name="uni2116" unicode="&#x2116;" horiz-adv-x="1110" vert-adv-y="0" 
d="M70 0v700h159l271 -390v390h190v-700h-170l-270 390v-390h-180zM915 367q-81 0 -128 46t-47 122v10q0 51 21.5 88.5t60.5 58.5t93 21t93.5 -21t60.5 -58t21 -89v-10q0 -76 -47 -122t-128 -46zM915 485q14 0 23 11t9 39v10q0 28 -9 39t-23 11t-23 -11t-9 -39v-10
q0 -28 9 -39t23 -11zM750 211v118h330v-118h-330z" />
    <glyph glyph-name="trademark" unicode="&#x2122;" horiz-adv-x="925" vert-adv-y="0" 
d="M121 300v284h-101v116h350v-116h-101v-284h-148zM425 300v400h135l101 -188l103 188h132v-400h-139v189l-62 -114h-70l-62 114v-189h-138z" />
    <glyph glyph-name="arrowleft" unicode="&#x2190;" horiz-adv-x="750" vert-adv-y="0" 
d="M312 50l-300 300l300 300h210l-226 -226h429v-148h-429l226 -226h-210z" />
    <glyph glyph-name="arrowup" unicode="&#x2191;" horiz-adv-x="750" vert-adv-y="0" 
d="M298 0v426l-223 -223v210l300 300l300 -300v-210l-223 223v-426h-154z" />
    <glyph glyph-name="arrowright" unicode="&#x2192;" horiz-adv-x="750" vert-adv-y="0" 
d="M228 50l226 226h-429v148h429l-226 226h210l300 -300l-300 -300h-210z" />
    <glyph glyph-name="arrowdown" unicode="&#x2193;" horiz-adv-x="750" vert-adv-y="0" 
d="M375 -13l-300 300v210l223 -223v426h154v-426l223 223v-210z" />
    <glyph glyph-name="arrownorthwest" unicode="&#x2196;" horiz-adv-x="750" vert-adv-y="0" 
d="M566 50l-343 343v-309l-148 148v418h418l148 -148h-309l343 -343z" />
    <glyph glyph-name="arrownortheast" unicode="&#x2197;" horiz-adv-x="750" vert-adv-y="0" 
d="M180 50l-105 105l347 347h-313l148 148h418v-418l-148 -148v313z" />
    <glyph glyph-name="arrowsoutheast" unicode="&#x2198;" horiz-adv-x="750" vert-adv-y="0" 
d="M257 50l-148 148h309l-343 343l109 109l343 -343v309l148 -148v-418h-418z" />
    <glyph glyph-name="arrowsouthwest" unicode="&#x2199;" horiz-adv-x="750" vert-adv-y="0" 
d="M75 50v418l148 148v-313l347 347l105 -105l-347 -347h313l-148 -148h-418z" />
    <glyph glyph-name="uni0394" unicode="&#x2206;" horiz-adv-x="700" vert-adv-y="0" 
d="M9 0l244 700h194l243 -700h-681zM340 490l-115 -342h231z" />
    <glyph glyph-name="minus" unicode="&#x2212;" vert-adv-y="0" 
d="M35 286v148h510v-148h-510z" />
    <glyph glyph-name="division" unicode="&#x2215;" vert-adv-y="0" 
d="M40 0l337 700h163l-338 -700h-162z" />
    <glyph glyph-name="radical" unicode="&#x221a;" horiz-adv-x="650" vert-adv-y="0" 
d="M10 243v148h180l105 -251l147 660h198v-148h-77l-168 -752h-180l-143 343h-62z" />
    <glyph glyph-name="approxequal" unicode="&#x2248;" vert-adv-y="0" 
d="M385 118q-34 0 -60 11t-48.5 26t-43 26t-43.5 11q-14 0 -25.5 -9.5t-19.5 -20.5q-5 -7 -9 -14t-8 -15l-103 72q8 19 17.5 36t22.5 31q20 27 52.5 48.5t77.5 21.5q34 0 60 -11.5t48 -26t43 -25.5t44 -11q14 0 25.5 9t19.5 20q5 7 9 14.5t8 15.5l103 -72q-8 -19 -18 -36.5
t-22 -32.5q-21 -26 -53 -47t-77 -21zM385 378q-34 0 -60 11.5t-48.5 26t-43 25.5t-43.5 11q-14 0 -25.5 -10t-19.5 -20q-5 -7 -9 -14t-8 -15l-103 72q8 19 17.5 36.5t22.5 31.5q20 26 52.5 47.5t77.5 21.5q34 0 60 -11t48 -26t43 -26t44 -11q14 0 25.5 9t19.5 20q5 7 9 14.5
t8 15.5l103 -72q-8 -19 -18 -36.5t-22 -31.5q-21 -27 -53 -48t-77 -21z" />
    <glyph glyph-name="lessequal" unicode="&#x2264;" vert-adv-y="0" 
d="M35 0v148h510v-148h-510zM545 123l-510 232v126l510 232v-180l-270 -112l270 -113v-185z" />
    <glyph glyph-name="greaterequal" unicode="&#x2265;" vert-adv-y="0" 
d="M35 0v148h510v-148h-510zM35 713l510 -232v-126l-510 -232v179l270 113l-270 112v186z" />
    <glyph glyph-name="angleleft" unicode="&#x2329;" horiz-adv-x="380" vert-adv-y="0" 
d="M231 -200l-196 450l200 450h150l-200 -450l200 -450h-154z" />
    <glyph glyph-name="angleright" unicode="&#x232a;" horiz-adv-x="380" vert-adv-y="0" 
d="M149 700l196 -450l-200 -450h-150l200 450l-200 450h154z" />
    <glyph glyph-name="Accent" unicode="&#xf401;" horiz-adv-x="0" vert-adv-y="0" 
 />
    <glyph glyph-name="Apostrophe" unicode="&#xf40a;" horiz-adv-x="295" vert-adv-y="0" 
d="M40 385l40 165v150h161v-150l-123 -165h-78z" />
    <glyph glyph-name="cyrEstail.alt02" unicode="&#xf50c;" horiz-adv-x="710" vert-adv-y="1200" 
d="M370 -13q-96 0 -169.5 35.5t-114.5 114.5t-41 209v19q0 92 25 158t69.5 108t103.5 62t127 20q61 0 115 -14t94.5 -44t65.5 -78t30 -117h-187q-9 55 -42 79t-76 24q-40 0 -71.5 -19.5t-49.5 -62.5t-18 -116v-21q0 -58 11 -98t30.5 -64t44.5 -34.5t53 -10.5q51 0 81.5 24.5
t36.5 78.5h187q-4 -70 -28.5 -118.5t-65 -78t-94.5 -43t-117 -13.5zM340 -213q-19 0 -33 1t-23 2q-5 2 -10 3.5t-9 3.5v81l14 -3q7 -1 16 -2t20 -1q23 0 31 6.5t8 15.5q0 7 -8 14.5t-35 7.5l17 94h88l-7 -45q35 -8 50.5 -31t15.5 -49q0 -45 -31 -71.5t-104 -26.5z" />
    <glyph glyph-name="cyrestail.alt02" unicode="&#xf50d;" horiz-adv-x="575" vert-adv-y="1200" 
d="M300 -13q-78 0 -139 30t-96 91t-35 152v20q0 84 36.5 143t98 89.5t135.5 30.5q80 0 134 -27.5t83 -73.5t33 -102h-159q-7 36 -28.5 55.5t-62.5 19.5q-32 0 -57.5 -15t-40 -44.5t-14.5 -75.5v-20q0 -49 14 -81t39 -47.5t59 -15.5q35 0 59.5 18.5t31.5 55.5h159
q-4 -62 -36 -108t-86.5 -70.5t-127.5 -24.5zM275 -213q-19 0 -33 1t-23 2q-5 2 -10 3.5t-9 3.5v79l14 -3q7 -1 16 -2t20 -1q24 0 32.5 7.5t8.5 15.5t-7 16.5t-36 8.5l17 92h84l-7 -45q37 -8 52.5 -31t15.5 -49q0 -45 -31 -71.5t-104 -26.5z" />
    <glyph glyph-name="cyrYerucyrbreve" unicode="&#xf536;" horiz-adv-x="920" vert-adv-y="1200" 
d="M70 0v700h180v-232h85q146 0 215.5 -63t69.5 -171t-69.5 -171t-215.5 -63h-265zM250 148h65q63 0 91 24t28 62t-28 62t-91 24h-65v-172zM670 0v700h180v-700h-180zM460 739q-70 0 -114.5 19.5t-65 57.5t-20.5 95h146q0 -42 12.5 -56.5t41.5 -14.5t41.5 14.5t12.5 56.5
h146q0 -57 -20.5 -95t-64.5 -57.5t-115 -19.5z" />
    <glyph glyph-name="cyryerucyrbreve" unicode="&#xf537;" horiz-adv-x="760" vert-adv-y="1200" 
d="M50 0v530h154v-172h86q104 0 157 -44t53 -135q0 -52 -21 -93t-67 -63.5t-122 -22.5h-240zM204 116h66q40 0 58 15.5t18 47.5q0 33 -17.5 48t-58.5 15h-66v-126zM546 0v530h154v-530h-154zM375 584q-98 0 -139 38t-41 114h136q0 -35 11 -48t33 -13t33 13t11 48h136
q0 -76 -41 -114t-139 -38z" />
    <glyph glyph-name="cyrGebar.alt" unicode="&#xf53c;" horiz-adv-x="595" vert-adv-y="1200" 
d="M70 0v700h495v-138h-315v-162h285v-130h-285v-270h-180z" />
    <glyph glyph-name="cyrgebar.alt" unicode="&#xf53d;" horiz-adv-x="460" vert-adv-y="0" 
d="M204 0h-154v530h390v-126h-236v-101h146v-126h-146v-177z" />
    <glyph glyph-name="uniF6BA" unicode="&#xf6ba;" horiz-adv-x="380" vert-adv-y="0" 
d="M25 276v148h330v-148h-330z" />
    <glyph glyph-name="uniF6BB" unicode="&#xf6bb;" horiz-adv-x="530" vert-adv-y="0" 
d="M25 276v148h480v-148h-480z" />
    <glyph glyph-name="uniF6BC" unicode="&#xf6bc;" horiz-adv-x="730" vert-adv-y="0" 
d="M25 276v148h680v-148h-680z" />
    <glyph glyph-name="cyrBreve" unicode="&#xf6d1;" horiz-adv-x="440" vert-adv-y="0" 
d="M220 739q-70 0 -114.5 19.5t-65 57.5t-20.5 95h146q0 -42 12.5 -56.5t41.5 -14.5t41.5 14.5t12.5 56.5h146q0 -57 -20.5 -95t-64.5 -57.5t-115 -19.5z" />
    <glyph glyph-name="cyrbreve" unicode="&#xf6d4;" horiz-adv-x="400" vert-adv-y="0" 
d="M200 584q-98 0 -139 38t-41 114h136q0 -35 11 -48t33 -13t33 13t11 48h136q0 -76 -41 -114t-139 -38z" />
    <glyph glyph-name="uniFEFF" unicode="&#xfeff;" horiz-adv-x="0" vert-adv-y="0" 
 />
    <glyph glyph-name="i.loclTRK" horiz-adv-x="274" vert-adv-y="1200" 
d="M60 0v530h154v-530h-154zM137 580q-43 0 -66.5 22.5t-23.5 57.5t23.5 57.5t66.5 22.5t66.5 -22.5t23.5 -57.5t-23.5 -57.5t-66.5 -22.5z" />
    <glyph glyph-name="zero.osf" horiz-adv-x="650" vert-adv-y="0" 
d="M325 -13q-141 0 -215.5 70t-74.5 203v20q0 82 34.5 140.5t99.5 90.5t156 32q142 0 216 -69t74 -194v-20q0 -86 -34 -147t-99 -93.5t-157 -32.5zM325 135q50 0 79.5 31.5t29.5 93.5v20q0 53 -30.5 84t-79.5 31q-50 0 -79.5 -30.5t-29.5 -84.5v-20q0 -60 30.5 -92.5
t79.5 -32.5z" />
    <glyph glyph-name="one.osf" horiz-adv-x="435" vert-adv-y="0" 
d="M185 0v349l-155 -110v180l156 111h179v-530h-180z" />
    <glyph glyph-name="two.osf" vert-adv-y="0" 
d="M40 0v119l232 148q33 22 49.5 35.5t22 24.5t5.5 22q0 23 -14.5 33.5t-43.5 10.5q-34 0 -52.5 -17.5t-18.5 -55.5h-180q0 68 29 118.5t85.5 77.5t140.5 27q79 0 131.5 -22.5t78 -61.5t25.5 -89q0 -32 -7 -57.5t-24 -48.5t-47 -47.5t-77 -53.5l-24 -15h179v-148h-490z" />
    <glyph glyph-name="three.osf" horiz-adv-x="601" vert-adv-y="0" 
d="M291 -213q-88 0 -145.5 30t-87 88t-29.5 140h182q0 -59 21 -83.5t63 -24.5q35 0 55 24.5t20 61.5q0 39 -20.5 62.5t-59.5 23.5h-49v132h49q31 0 50.5 18.5t19.5 60.5q0 38 -18 55.5t-47 17.5q-34 0 -54.5 -22t-20.5 -76h-180q0 80 27.5 135.5t83.5 84t140 28.5
q83 0 138.5 -25.5t83 -71.5t27.5 -104q0 -57 -27 -101t-81 -61q63 -17 90.5 -61.5t27.5 -111.5q0 -63 -29 -112.5t-87 -78.5t-143 -29z" />
    <glyph glyph-name="four.osf" horiz-adv-x="590" vert-adv-y="0" 
d="M314 -200v200h-294v123l306 407h168v-382h76v-148h-76v-200h-180zM181 148h133v183z" />
    <glyph glyph-name="five.osf" horiz-adv-x="590" vert-adv-y="0" 
d="M295 -213q-90 0 -146 29.5t-81.5 81t-27.5 117.5h174q2 -39 22.5 -63.5t58.5 -24.5q46 0 64.5 34t18.5 88q0 38 -10 63t-28.5 37t-44.5 12t-47 -10.5t-35 -30.5h-158v410h471v-147h-298v-108q20 15 46.5 23t63.5 8q70 0 119.5 -27.5t76 -84t26.5 -143.5q0 -83 -32 -142.5
t-90.5 -90.5t-142.5 -31z" />
    <glyph glyph-name="six.osf" horiz-adv-x="615" vert-adv-y="0" 
d="M320 -13q-131 0 -203 79t-72 259v20q0 132 36.5 213t101 118t147.5 37q64 0 113.5 -18.5t80 -59.5t36.5 -110h-170q-7 23 -24.5 35.5t-40.5 12.5q-33 0 -57 -16t-36.5 -54t-14.5 -108q26 29 64.5 46t84.5 17q71 0 117 -27t69 -76t23 -115v-11q0 -73 -32.5 -128t-90 -84.5
t-132.5 -29.5zM310 127q40 0 62 25.5t22 70.5v10q0 43 -22 69t-62 26t-62.5 -26t-22.5 -69v-10q0 -45 22.5 -70.5t62.5 -25.5z" />
    <glyph glyph-name="seven.osf" horiz-adv-x="525" vert-adv-y="0" 
d="M80 -200l238 583h-298v147h480v-127l-230 -603h-190z" />
    <glyph glyph-name="eight.osf" horiz-adv-x="620" vert-adv-y="0" 
d="M310 -13q-81 0 -141.5 25.5t-94.5 72t-34 110.5q0 58 33.5 104t95.5 64q-44 18 -76.5 58t-32.5 98t30 101.5t86 68t134 24.5t134 -24.5t86 -68t30 -101.5q0 -57 -32 -97t-77 -59q62 -20 95.5 -63t33.5 -105q0 -64 -34 -110.5t-94.5 -72t-141.5 -25.5zM310 125
q51 0 75.5 21.5t24.5 59.5q0 42 -29.5 64.5t-70.5 30.5q-42 -8 -71 -31.5t-29 -63.5q0 -38 26 -59.5t74 -21.5zM310 419q34 7 57 26t23 57q0 36 -21 54.5t-59 18.5t-59 -18t-21 -55q0 -38 24 -56.5t56 -26.5z" />
    <glyph glyph-name="nine.osf" horiz-adv-x="615" vert-adv-y="0" 
d="M290 -213q-71 0 -121 19t-78 60.5t-36 108.5h170q7 -23 21 -35.5t49 -12.5q33 0 55 13.5t34 54t14 120.5q-25 -35 -62.5 -49t-85.5 -14q-70 0 -116.5 28t-70 78.5t-23.5 122.5v10q0 78 30.5 134.5t88 87t136.5 30.5q93 0 154 -34.5t91 -113t30 -210.5v-20
q0 -131 -34 -215t-97 -123.5t-149 -39.5zM305 182q43 0 64 26.5t21 79.5v9q0 51 -21.5 78.5t-63.5 27.5q-44 0 -64 -27t-20 -78v-10q0 -53 20.5 -79.5t63.5 -26.5z" />
    <glyph glyph-name="zero.tf" horiz-adv-x="650" vert-adv-y="1200" 
d="M325 -13q-59 0 -110 19.5t-89 62.5t-59.5 112.5t-21.5 168.5v20q0 92 21.5 157t59.5 106t89 60.5t110 19.5t110 -19.5t89 -60.5t59.5 -106t21.5 -157v-20q0 -99 -21.5 -168.5t-59.5 -112.5t-89 -62.5t-110 -19.5zM325 135q20 0 38 10t31.5 34.5t21.5 66t8 104.5v20
q0 74 -13 116.5t-36 60.5t-50 18t-49.5 -18t-36.5 -60.5t-14 -116.5v-20q0 -63 8 -104.5t22.5 -66t32 -34.5t37.5 -10z" />
    <glyph glyph-name="one.tf" horiz-adv-x="650" vert-adv-y="0" 
d="M580 0h-500v148h175v371l-155 -110v180l155 111h181v-552h144v-148z" />
    <glyph glyph-name="two.tf" horiz-adv-x="610" vert-adv-y="1200" 
d="M25 0v128l232 192q45 37 73.5 65.5t41 53.5t12.5 51q0 35 -19 54t-55 19q-47 0 -71 -30t-24 -88h-180q0 86 30.5 145.5t91.5 91t153 31.5q86 0 142.5 -28.5t84.5 -78.5t28 -116q0 -48 -22 -91.5t-59.5 -82t-86.5 -76.5l-121 -92h299v-148h-550z" />
    <glyph glyph-name="three.tf" horiz-adv-x="610" vert-adv-y="1200" 
d="M300 -13q-89 0 -149.5 32t-90.5 88t-30 128h180q0 -49 22.5 -73.5t73.5 -24.5q42 0 62.5 21.5t20.5 57.5q0 38 -21 58t-68 20h-59v132h59q40 0 59.5 18t19.5 53q0 31 -19 48.5t-54 17.5q-44 0 -65 -22t-21 -66h-180q0 75 30 128t88.5 81.5t141.5 28.5t141 -24.5
t88.5 -68.5t30.5 -101t-32 -97t-86 -57q63 -17 95.5 -58t32.5 -107q0 -63 -33 -111.5t-93.5 -75t-143.5 -26.5z" />
    <glyph glyph-name="four.tf" horiz-adv-x="650" vert-adv-y="0" 
d="M534 0h-180v136h-303v123l315 441h168v-416h76v-148h-76v-136zM354 501l-143 -217h143v217z" />
    <glyph glyph-name="five.tf" horiz-adv-x="610" vert-adv-y="1200" 
d="M305 -13q-72 0 -121 18t-79.5 50.5t-44.5 73t-15 86.5h174q2 -40 25 -64t61 -24q47 0 67 29t20 83q0 38 -11 60.5t-30.5 32t-45.5 9.5t-47 -10.5t-35 -30.5h-163v400h476v-147h-303v-98q21 16 49.5 23.5t65.5 7.5q68 0 118.5 -27.5t79.5 -82t29 -135.5q0 -77 -33 -134.5
t-93.5 -88.5t-143.5 -31z" />
    <glyph glyph-name="six.tf" horiz-adv-x="635" vert-adv-y="1200" 
d="M330 -13q-139 0 -212 79.5t-73 258.5v20q0 132 37 213t103.5 118t154.5 37q70 0 121 -18.5t82 -59.5t37 -110h-170q-7 24 -25.5 36t-49.5 12q-34 0 -60 -16t-41 -54t-17 -108q24 35 67 49t92 14q70 0 119 -27t74.5 -76t25.5 -115v-11q0 -73 -32.5 -128t-92.5 -84.5
t-140 -29.5zM320 127q44 0 69 25.5t25 70.5v10q0 44 -25 69.5t-69 25.5t-69.5 -25.5t-25.5 -69.5v-10q0 -45 25.5 -70.5t69.5 -25.5z" />
    <glyph glyph-name="seven.tf" horiz-adv-x="650" vert-adv-y="0" 
d="M358 0h-190l238 553h-338v147h521v-127z" />
    <glyph glyph-name="eight.tf" horiz-adv-x="640" vert-adv-y="1200" 
d="M320 -13q-86 0 -149 25.5t-97 72t-34 110.5q0 58 35 104t104 64q-52 18 -85.5 58t-33.5 98t30.5 101.5t89 68t140.5 24.5q83 0 141 -24.5t88.5 -68t30.5 -101.5q0 -57 -33 -97t-86 -59q69 -20 104 -63t35 -105q0 -64 -34 -110.5t-97 -72t-149 -25.5zM320 125
q36 0 60.5 9.5t37 28t12.5 43.5q0 42 -32.5 64.5t-77.5 30.5q-44 -8 -77 -31.5t-33 -63.5q0 -25 13.5 -43.5t38 -28t58.5 -9.5zM320 419q38 7 64 26t26 57q0 36 -24 54.5t-66 18.5t-66 -18t-24 -55q0 -38 27 -56.5t63 -26.5z" />
    <glyph glyph-name="nine.tf" horiz-adv-x="635" vert-adv-y="1200" 
d="M300 -13q-71 0 -123.5 19t-83 60.5t-38.5 108.5h170q7 -23 26 -35.5t54 -12.5q33 0 57.5 16t39 54t16.5 108q-24 -35 -67 -49t-91 -14q-70 0 -119.5 27t-75 76.5t-25.5 115.5v10q0 73 33 128t93 84.5t139 29.5q93 0 156.5 -33.5t96 -108t32.5 -196.5v-20
q0 -133 -36.5 -213.5t-102 -117.5t-151.5 -37zM315 372q44 0 69.5 25.5t25.5 70.5v9q0 43 -26.5 69.5t-68.5 26.5q-44 0 -69.5 -25.5t-25.5 -69.5v-10q0 -45 25.5 -70.5t69.5 -25.5z" />
    <glyph glyph-name="zero.tosf" horiz-adv-x="650" vert-adv-y="1200" 
d="M325 -13q-141 0 -215.5 70t-74.5 203v20q0 82 34.5 140.5t99.5 90.5t156 32q142 0 216 -69t74 -194v-20q0 -86 -34 -147t-99 -93.5t-157 -32.5zM325 135q50 0 79.5 31.5t29.5 93.5v20q0 53 -30.5 84t-79.5 31q-50 0 -79.5 -30.5t-29.5 -84.5v-20q0 -60 30.5 -92.5
t79.5 -32.5z" />
    <glyph glyph-name="one.tosf" horiz-adv-x="650" vert-adv-y="0" 
d="M71 0v148h192v201l-155 -110v180l156 111h179v-382h137v-148h-509z" />
    <glyph glyph-name="two.tosf" horiz-adv-x="650" vert-adv-y="1200" 
d="M80 0v119l232 148q33 22 49.5 35.5t22 24.5t5.5 22q0 23 -14.5 33.5t-43.5 10.5q-34 0 -52.5 -17.5t-18.5 -55.5h-180q0 68 29 118.5t85.5 77.5t140.5 27q79 0 131.5 -22.5t78 -61.5t25.5 -89q0 -32 -7 -57.5t-24 -48.5t-47 -47.5t-77 -53.5l-24 -15h179v-148h-490z" />
    <glyph glyph-name="three.tosf" horiz-adv-x="650" vert-adv-y="1200" 
d="M326 -213q-88 0 -145.5 30t-87 88t-29.5 140h182q0 -59 21 -83.5t63 -24.5q35 0 55 24.5t20 61.5q0 39 -20.5 62.5t-59.5 23.5h-49v132h49q31 0 50.5 18.5t19.5 60.5q0 38 -18 55.5t-47 17.5q-34 0 -54.5 -22t-20.5 -76h-180q0 80 27.5 135.5t83.5 84t140 28.5
q83 0 138.5 -25.5t83 -71.5t27.5 -104q0 -57 -27 -101t-81 -61q63 -17 90.5 -61.5t27.5 -111.5q0 -63 -29 -112.5t-87 -78.5t-143 -29z" />
    <glyph glyph-name="four.tosf" horiz-adv-x="650" vert-adv-y="1200" 
d="M344 -200v200h-294v123l306 407h168v-382h76v-148h-76v-200h-180zM211 148h133v183z" />
    <glyph glyph-name="five.tosf" horiz-adv-x="650" vert-adv-y="1200" 
d="M320 -213q-90 0 -146 29.5t-81.5 81t-27.5 117.5h174q2 -39 22.5 -63.5t58.5 -24.5q46 0 64.5 34t18.5 88q0 38 -10 63t-28.5 37t-44.5 12t-47 -10.5t-35 -30.5h-158v410h471v-147h-298v-108q20 15 46.5 23t63.5 8q70 0 119.5 -27.5t76 -84t26.5 -143.5q0 -83 -32 -142.5
t-90.5 -90.5t-142.5 -31z" />
    <glyph glyph-name="six.tosf" horiz-adv-x="650" vert-adv-y="1200" 
d="M335 -13q-131 0 -203 79t-72 259v20q0 132 36.5 213t101 118t147.5 37q64 0 113.5 -18.5t80 -59.5t36.5 -110h-170q-7 23 -24.5 35.5t-40.5 12.5q-33 0 -57 -16t-36.5 -54t-14.5 -108q26 29 64.5 46t84.5 17q71 0 117 -27t69 -76t23 -115v-11q0 -73 -32.5 -128t-90 -84.5
t-132.5 -29.5zM325 127q40 0 62 25.5t22 70.5v10q0 43 -22 69t-62 26t-62.5 -26t-22.5 -69v-10q0 -45 22.5 -70.5t62.5 -25.5z" />
    <glyph glyph-name="seven.tosf" horiz-adv-x="650" vert-adv-y="0" 
d="M340 -200h-190l249 583h-329v147h510l1 -127z" />
    <glyph glyph-name="eight.tosf" horiz-adv-x="650" vert-adv-y="1200" 
d="M325 -13q-81 0 -141.5 25.5t-94.5 72t-34 110.5q0 58 33.5 104t95.5 64q-44 18 -76.5 58t-32.5 98t30 101.5t86 68t134 24.5t134 -24.5t86 -68t30 -101.5q0 -57 -32 -97t-77 -59q62 -20 95.5 -63t33.5 -105q0 -64 -34 -110.5t-94.5 -72t-141.5 -25.5zM325 125
q51 0 75.5 21.5t24.5 59.5q0 42 -29.5 64.5t-70.5 30.5q-42 -8 -71 -31.5t-29 -63.5q0 -38 26 -59.5t74 -21.5zM325 419q34 7 57 26t23 57q0 36 -21 54.5t-59 18.5t-59 -18t-21 -55q0 -38 24 -56.5t56 -26.5z" />
    <glyph glyph-name="nine.tosf" horiz-adv-x="650" vert-adv-y="1200" 
d="M310 -213q-71 0 -121 19t-78 60.5t-36 108.5h170q7 -23 21 -35.5t49 -12.5q33 0 55 13.5t34 54t14 120.5q-25 -35 -62.5 -49t-85.5 -14q-70 0 -116.5 28t-70 78.5t-23.5 122.5v10q0 78 30.5 134.5t88 87t136.5 30.5q93 0 154 -34.5t91 -113t30 -210.5v-20
q0 -131 -34 -215t-97 -123.5t-149 -39.5zM325 182q43 0 64 26.5t21 79.5v9q0 51 -21.5 78.5t-63.5 27.5q-44 0 -64 -27t-20 -78v-10q0 -53 20.5 -79.5t63.5 -26.5z" />
    <glyph glyph-name="parenleft.case" horiz-adv-x="380" vert-adv-y="0" 
d="M60 340v20q0 109 25 191t56 138q18 32 38.5 60t43.5 51h157q-25 -23 -46.5 -51t-41.5 -60q-33 -56 -60.5 -138t-27.5 -191v-20q0 -109 27.5 -191t60.5 -138q20 -32 41.5 -60t46.5 -51h-159q-23 23 -43.5 51t-37.5 60q-30 56 -55 138t-25 191z" />
    <glyph glyph-name="parenright.case" horiz-adv-x="380" vert-adv-y="0" 
d="M320 360v-20q0 -109 -25 -191t-56 -138q-18 -32 -38.5 -60t-43.5 -51h-157q25 23 47 51t41 60q32 56 60 137.5t28 191.5v20q0 109 -28 191t-60 138q-19 32 -41 60t-47 51h159q23 -23 43.5 -51t37.5 -60q30 -56 55 -138t25 -191z" />
    <glyph glyph-name="braceleft.case" horiz-adv-x="380" vert-adv-y="0" 
d="M350 -100h-70q-79 0 -124.5 45.5t-45.5 124.5v177q0 23 -13.5 36.5t-36.5 13.5v106q23 0 36.5 14t13.5 36v177q0 79 45.5 124.5t124.5 45.5h70v-106h-40q-35 0 -50.5 -16t-15.5 -50v-208q0 -30 -13.5 -46t-36.5 -24q23 -8 36.5 -24t13.5 -46v-208q0 -34 15.5 -50
t50.5 -16h40v-106z" />
    <glyph glyph-name="braceright.case" horiz-adv-x="380" vert-adv-y="0" 
d="M30 800h70q79 0 124.5 -45.5t45.5 -124.5v-177q0 -23 13.5 -36.5t36.5 -13.5v-106q-23 0 -36.5 -14t-13.5 -36v-177q0 -79 -45.5 -124.5t-124.5 -45.5h-70v106h40q35 0 50.5 16t15.5 50v208q0 30 13.5 46t36.5 24q-23 8 -36.5 24t-13.5 46v208q0 34 -15.5 50t-50.5 16
h-40v106z" />
    <glyph glyph-name="bracketleft.case" horiz-adv-x="380" vert-adv-y="0" 
d="M100 -100v900h240v-106h-106v-688h106v-106h-240z" />
    <glyph glyph-name="bracketright.case" horiz-adv-x="380" vert-adv-y="0" 
d="M280 800v-900h-240v106h106v688h-106v106h240z" />
    <glyph glyph-name="uni030C.alt" horiz-adv-x="0" vert-adv-y="1200" 
d="M60 472l11 131v97h127v-97l-76 -131h-62z" />
    <glyph glyph-name="uni0308.case" horiz-adv-x="0" vert-adv-y="0" 
d="M110 740q-43 0 -66.5 25t-23.5 60t23.5 60t66.5 25t66.5 -25t23.5 -60t-23.5 -60t-66.5 -25zM360 740q-43 0 -66.5 25t-23.5 60t23.5 60t66.5 25t66.5 -25t23.5 -60t-24 -60t-66 -25z" />
    <glyph glyph-name="uni0307.case" horiz-adv-x="0" vert-adv-y="0" 
d="M118 740q-51 0 -74.5 25t-23.5 60t23.5 60t74.5 25t74.5 -25t23.5 -60t-23.5 -60t-74.5 -25z" />
    <glyph glyph-name="gravecomb.case" horiz-adv-x="0" vert-adv-y="0" 
d="M170 750l-150 150h170l110 -150h-130z" />
    <glyph glyph-name="acutecomb.case" horiz-adv-x="0" vert-adv-y="1200" 
d="M20 750l110 150h170l-150 -150h-130z" />
    <glyph glyph-name="uni030B.case" horiz-adv-x="0" vert-adv-y="0" 
d="M28 750l106 150h136l-131 -150h-111zM204 750l131 150h141l-161 -150h-111z" />
    <glyph glyph-name="uni0302.case" horiz-adv-x="0" vert-adv-y="0" 
d="M20 750l110 150h160l110 -150h-130l-60 60l-60 -60h-130z" />
    <glyph glyph-name="uni030C.case" horiz-adv-x="0" vert-adv-y="0" 
d="M130 750l-110 150h130l60 -60l60 60h130l-110 -150h-160z" />
    <glyph glyph-name="uni0306.case" horiz-adv-x="0" vert-adv-y="0" 
d="M220 739q-70 0 -114.5 19.5t-65 57.5t-20.5 95h146q0 -42 12.5 -56.5t41.5 -14.5t41.5 14.5t12.5 56.5h146q0 -57 -20.5 -95t-64.5 -57.5t-115 -19.5z" />
    <glyph glyph-name="uni030A.case" horiz-adv-x="0" vert-adv-y="0" 
d="M154 730q-39 0 -69.5 14t-47.5 40.5t-17 60.5q0 35 17 61t47.5 40t70.5 14q42 0 71.5 -14t46.5 -40t17 -61q0 -34 -17 -60.5t-47 -40.5t-72 -14zM155 815q21 0 33 7.5t12 22.5t-12 22.5t-34 7.5q-20 0 -32 -7.5t-12 -22.5t12 -22.5t33 -7.5z" />
    <glyph glyph-name="tildecomb.case" horiz-adv-x="0" vert-adv-y="0" 
d="M295 739q-37 0 -60.5 11t-44 22.5t-45.5 11.5q-14 0 -23 -6t-15 -14q-3 -3 -6.5 -8.5t-5.5 -11.5l-75 56q5 16 12 29.5t15 26.5q14 20 38 37.5t60 17.5q38 0 61.5 -11.5t43.5 -22.5t45 -11q13 0 23 6t15 14q4 4 7 9t5 11l75 -56q-5 -17 -12 -30.5t-15 -24.5
q-14 -22 -38.5 -39t-59.5 -17z" />
    <glyph glyph-name="uni0304.case" horiz-adv-x="0" vert-adv-y="0" 
d="M20 766v118h330v-118h-330z" />
    <glyph glyph-name="uni0327.case" horiz-adv-x="0" vert-adv-y="0" 
d="M95 -213q-19 0 -33 1t-23 2q-5 2 -10 3.5t-9 3.5v81l14 -3q7 -1 16 -2t20 -1q23 0 31 6.5t8 15.5q0 7 -8 14.5t-35 7.5l17 94h88l-7 -45q35 -8 50.5 -31t15.5 -49q0 -45 -31 -71.5t-104 -26.5z" />
    </font>
</defs>
</svg>
